<?xml version="1.0" encoding="utf-8" standalone="no"?>
<!DOCTYPE svg PUBLIC "-//W3C//DTD SVG 1.1//EN"
  "http://www.w3.org/Graphics/SVG/1.1/DTD/svg11.dtd">
<!-- Created with matplotlib (https://matplotlib.org/) -->
<svg height="360pt" version="1.1" viewBox="0 0 360 360" width="360pt" xmlns="http://www.w3.org/2000/svg" xmlns:xlink="http://www.w3.org/1999/xlink">
 <defs>
  <style type="text/css">
*{stroke-linecap:butt;stroke-linejoin:round;}
  </style>
 </defs>
 <g id="figure_1">
  <g id="patch_1">
   <path d="M 0 360 
L 360 360 
L 360 0 
L 0 0 
z
" style="fill:#ffffff;"/>
  </g>
  <g id="axes_1">
   <g id="patch_2">
    <path d="M 47.254455 315 
L 321.745545 315 
L 321.745545 43.2 
L 47.254455 43.2 
z
" style="fill:#ffffff;"/>
   </g>
   <g id="matplotlib.axis_1">
    <g id="xtick_1">
     <g id="line2d_1">
      <defs>
       <path d="M 0 0 
L 0 3.5 
" id="m72bdff7d95" style="stroke:#262626;stroke-width:1.5;"/>
      </defs>
      <g>
       <use style="fill:#262626;stroke:#262626;stroke-width:1.5;" x="52.636634" xlink:href="#m72bdff7d95" y="315"/>
      </g>
     </g>
     <g id="text_1">
      <text style="fill:#262626;font-family:Cantarell;font-size:14px;font-style:normal;font-weight:normal;text-anchor:middle;" transform="rotate(-0, 52.636634, 332.051562)" x="52.636634" y="332.051562">0.0</text>
     </g>
    </g>
    <g id="xtick_2">
     <g id="line2d_2">
      <g>
       <use style="fill:#262626;stroke:#262626;stroke-width:1.5;" x="106.458416" xlink:href="#m72bdff7d95" y="315"/>
      </g>
     </g>
     <g id="text_2">
      <text style="fill:#262626;font-family:Cantarell;font-size:14px;font-style:normal;font-weight:normal;text-anchor:middle;" transform="rotate(-0, 106.458416, 332.051562)" x="106.458416" y="332.051562">0.2</text>
     </g>
    </g>
    <g id="xtick_3">
     <g id="line2d_3">
      <g>
       <use style="fill:#262626;stroke:#262626;stroke-width:1.5;" x="160.280198" xlink:href="#m72bdff7d95" y="315"/>
      </g>
     </g>
     <g id="text_3">
      <text style="fill:#262626;font-family:Cantarell;font-size:14px;font-style:normal;font-weight:normal;text-anchor:middle;" transform="rotate(-0, 160.280198, 332.051562)" x="160.280198" y="332.051562">0.4</text>
     </g>
    </g>
    <g id="xtick_4">
     <g id="line2d_4">
      <g>
       <use style="fill:#262626;stroke:#262626;stroke-width:1.5;" x="214.10198" xlink:href="#m72bdff7d95" y="315"/>
      </g>
     </g>
     <g id="text_4">
      <text style="fill:#262626;font-family:Cantarell;font-size:14px;font-style:normal;font-weight:normal;text-anchor:middle;" transform="rotate(-0, 214.10198, 332.051562)" x="214.10198" y="332.051562">0.6</text>
     </g>
    </g>
    <g id="xtick_5">
     <g id="line2d_5">
      <g>
       <use style="fill:#262626;stroke:#262626;stroke-width:1.5;" x="267.923762" xlink:href="#m72bdff7d95" y="315"/>
      </g>
     </g>
     <g id="text_5">
      <text style="fill:#262626;font-family:Cantarell;font-size:14px;font-style:normal;font-weight:normal;text-anchor:middle;" transform="rotate(-0, 267.923762, 332.051562)" x="267.923762" y="332.051562">0.8</text>
     </g>
    </g>
    <g id="xtick_6">
     <g id="line2d_6">
      <g>
       <use style="fill:#262626;stroke:#262626;stroke-width:1.5;" x="321.745545" xlink:href="#m72bdff7d95" y="315"/>
      </g>
     </g>
     <g id="text_6">
      <text style="fill:#262626;font-family:Cantarell;font-size:14px;font-style:normal;font-weight:normal;text-anchor:middle;" transform="rotate(-0, 321.745545, 332.051562)" x="321.745545" y="332.051562">1.0</text>
     </g>
    </g>
    <g id="text_7">
     <text style="fill:#262626;font-family:Cantarell;font-size:14px;font-style:normal;font-weight:normal;text-anchor:middle;" transform="rotate(-0, 184.5, 349.574687)" x="184.5" y="349.574687">False Positive Rate (Positive label: 1.0)</text>
    </g>
   </g>
   <g id="matplotlib.axis_2">
    <g id="ytick_1">
     <g id="line2d_7">
      <defs>
       <path d="M 0 0 
L -3.5 0 
" id="m6e0bfd81a6" style="stroke:#262626;stroke-width:1.5;"/>
      </defs>
      <g>
       <use style="fill:#262626;stroke:#262626;stroke-width:1.5;" x="47.254455" xlink:href="#m6e0bfd81a6" y="315"/>
      </g>
     </g>
     <g id="text_8">
      <text style="fill:#262626;font-family:Cantarell;font-size:14px;font-style:normal;font-weight:normal;text-anchor:end;" transform="rotate(-0, 40.254455, 320.025781)" x="40.254455" y="320.025781">0.0</text>
     </g>
    </g>
    <g id="ytick_2">
     <g id="line2d_8">
      <g>
       <use style="fill:#262626;stroke:#262626;stroke-width:1.5;" x="47.254455" xlink:href="#m6e0bfd81a6" y="261.178218"/>
      </g>
     </g>
     <g id="text_9">
      <text style="fill:#262626;font-family:Cantarell;font-size:14px;font-style:normal;font-weight:normal;text-anchor:end;" transform="rotate(-0, 40.254455, 266.203999)" x="40.254455" y="266.203999">0.2</text>
     </g>
    </g>
    <g id="ytick_3">
     <g id="line2d_9">
      <g>
       <use style="fill:#262626;stroke:#262626;stroke-width:1.5;" x="47.254455" xlink:href="#m6e0bfd81a6" y="207.356436"/>
      </g>
     </g>
     <g id="text_10">
      <text style="fill:#262626;font-family:Cantarell;font-size:14px;font-style:normal;font-weight:normal;text-anchor:end;" transform="rotate(-0, 40.254455, 212.382217)" x="40.254455" y="212.382217">0.4</text>
     </g>
    </g>
    <g id="ytick_4">
     <g id="line2d_10">
      <g>
       <use style="fill:#262626;stroke:#262626;stroke-width:1.5;" x="47.254455" xlink:href="#m6e0bfd81a6" y="153.534653"/>
      </g>
     </g>
     <g id="text_11">
      <text style="fill:#262626;font-family:Cantarell;font-size:14px;font-style:normal;font-weight:normal;text-anchor:end;" transform="rotate(-0, 40.254455, 158.560435)" x="40.254455" y="158.560435">0.6</text>
     </g>
    </g>
    <g id="ytick_5">
     <g id="line2d_11">
      <g>
       <use style="fill:#262626;stroke:#262626;stroke-width:1.5;" x="47.254455" xlink:href="#m6e0bfd81a6" y="99.712871"/>
      </g>
     </g>
     <g id="text_12">
      <text style="fill:#262626;font-family:Cantarell;font-size:14px;font-style:normal;font-weight:normal;text-anchor:end;" transform="rotate(-0, 40.254455, 104.738653)" x="40.254455" y="104.738653">0.8</text>
     </g>
    </g>
    <g id="ytick_6">
     <g id="line2d_12">
      <g>
       <use style="fill:#262626;stroke:#262626;stroke-width:1.5;" x="47.254455" xlink:href="#m6e0bfd81a6" y="45.891089"/>
      </g>
     </g>
     <g id="text_13">
      <text style="fill:#262626;font-family:Cantarell;font-size:14px;font-style:normal;font-weight:normal;text-anchor:end;" transform="rotate(-0, 40.254455, 50.91687)" x="40.254455" y="50.91687">1.0</text>
     </g>
    </g>
    <g id="text_14">
     <text style="fill:#262626;font-family:Cantarell;font-size:14px;font-style:normal;font-weight:normal;text-anchor:middle;" transform="rotate(-90, 13.209143, 179.1)" x="13.209143" y="179.1">True Positive Rate (Positive label: 1.0)</text>
    </g>
   </g>
   <g id="PolyCollection_1">
    <defs>
     <path d="M 52.636634 -45 
L 52.636634 -45 
L 55.354905 -45 
L 58.073177 -45 
L 60.791449 -46.756422 
L 63.509721 -50.101987 
L 66.227993 -51.649311 
L 68.946265 -56.918576 
L 71.664536 -60.9228 
L 74.382808 -62.257541 
L 77.10108 -72.97729 
L 79.819352 -80.797549 
L 82.537624 -90.733181 
L 85.255896 -97.399917 
L 87.974167 -100.891851 
L 90.692439 -102.961919 
L 93.410711 -110.133975 
L 96.128983 -115.382331 
L 98.847255 -115.709917 
L 101.565527 -118.895174 
L 104.283798 -123.662605 
L 107.00207 -132.611992 
L 109.720342 -137.525791 
L 112.438614 -142.063214 
L 115.156886 -148.005077 
L 117.875158 -151.807173 
L 120.593429 -155.550024 
L 123.311701 -160.442914 
L 126.029973 -162.68026 
L 128.748245 -170.646888 
L 131.466517 -173.34425 
L 134.184788 -173.34425 
L 136.90306 -177.484387 
L 139.621332 -179.554455 
L 142.339604 -180.244478 
L 145.057876 -185.764661 
L 147.776148 -188.556117 
L 150.494419 -192.257149 
L 153.212691 -196.47047 
L 155.930963 -200.662882 
L 158.649235 -204.458007 
L 161.367507 -207.803573 
L 164.085779 -209.274227 
L 166.80405 -212.696462 
L 169.522322 -220.433082 
L 172.240594 -220.955826 
L 174.958866 -220.955826 
L 177.677138 -223.52076 
L 180.39541 -228.594867 
L 183.113681 -233.972166 
L 185.831953 -238.861571 
L 188.550225 -246.521521 
L 191.268497 -247.866717 
L 193.986769 -247.866717 
L 196.705041 -249.936786 
L 199.423312 -252.885065 
L 202.141584 -257.910383 
L 204.859856 -261.025941 
L 207.578128 -262.148099 
L 210.2964 -262.357197 
L 213.014671 -263.758153 
L 215.732943 -264.427266 
L 218.451215 -267.307588 
L 221.169487 -270.224503 
L 223.887759 -273.17801 
L 226.606031 -275.676729 
L 229.324302 -276.899952 
L 232.042574 -278.572734 
L 234.760846 -280.987814 
L 237.479118 -280.987814 
L 240.19739 -283.057883 
L 242.915662 -283.057883 
L 245.633933 -287.19802 
L 248.352205 -290.020841 
L 251.070477 -294.655843 
L 253.788749 -297.548363 
L 256.507021 -297.548363 
L 259.225293 -297.548363 
L 261.943564 -299.618431 
L 264.661836 -299.618431 
L 267.380108 -301.019387 
L 270.09838 -301.6885 
L 272.816652 -301.6885 
L 275.534923 -301.6885 
L 278.253195 -303.758568 
L 280.971467 -303.758568 
L 283.689739 -305.180433 
L 286.408011 -305.828637 
L 289.126283 -305.828637 
L 291.844554 -307.898705 
L 294.562826 -309.425119 
L 297.281098 -309.968774 
L 299.99937 -309.968774 
L 302.717642 -309.968774 
L 305.435914 -309.968774 
L 308.154185 -312.038842 
L 310.872457 -312.038842 
L 313.590729 -312.038842 
L 316.309001 -312.038842 
L 319.027273 -314.108911 
L 321.745545 -314.108911 
L 321.745545 -45 
L 321.745545 -45 
L 319.027273 -45 
L 316.309001 -45 
L 313.590729 -45 
L 310.872457 -45 
L 308.154185 -45 
L 305.435914 -45 
L 302.717642 -45 
L 299.99937 -45 
L 297.281098 -45 
L 294.562826 -45 
L 291.844554 -45 
L 289.126283 -45 
L 286.408011 -45 
L 283.689739 -45 
L 280.971467 -45 
L 278.253195 -45 
L 275.534923 -45 
L 272.816652 -45 
L 270.09838 -45 
L 267.380108 -45 
L 264.661836 -45 
L 261.943564 -45 
L 259.225293 -45 
L 256.507021 -45 
L 253.788749 -45 
L 251.070477 -45 
L 248.352205 -45 
L 245.633933 -45 
L 242.915662 -45 
L 240.19739 -45 
L 237.479118 -45 
L 234.760846 -45 
L 232.042574 -45 
L 229.324302 -45 
L 226.606031 -45 
L 223.887759 -45 
L 221.169487 -45 
L 218.451215 -45 
L 215.732943 -45 
L 213.014671 -45 
L 210.2964 -45 
L 207.578128 -45 
L 204.859856 -45 
L 202.141584 -45 
L 199.423312 -45 
L 196.705041 -45 
L 193.986769 -45 
L 191.268497 -45 
L 188.550225 -45 
L 185.831953 -45 
L 183.113681 -45 
L 180.39541 -45 
L 177.677138 -45 
L 174.958866 -45 
L 172.240594 -45 
L 169.522322 -45 
L 166.80405 -45 
L 164.085779 -45 
L 161.367507 -45 
L 158.649235 -45 
L 155.930963 -45 
L 153.212691 -45 
L 150.494419 -45 
L 147.776148 -45 
L 145.057876 -45 
L 142.339604 -45 
L 139.621332 -45 
L 136.90306 -45 
L 134.184788 -45 
L 131.466517 -45 
L 128.748245 -45 
L 126.029973 -45 
L 123.311701 -45 
L 120.593429 -45 
L 117.875158 -45 
L 115.156886 -45 
L 112.438614 -45 
L 109.720342 -45 
L 107.00207 -45 
L 104.283798 -45 
L 101.565527 -45 
L 98.847255 -45 
L 96.128983 -45 
L 93.410711 -45 
L 90.692439 -45 
L 87.974167 -45 
L 85.255896 -45 
L 82.537624 -45 
L 79.819352 -45 
L 77.10108 -45 
L 74.382808 -45 
L 71.664536 -45 
L 68.946265 -45 
L 66.227993 -45 
L 63.509721 -45 
L 60.791449 -45 
L 58.073177 -45 
L 55.354905 -45 
L 52.636634 -45 
z
" id="mcd7110d2b5" style="stroke:#87001d;stroke-opacity:0.2;"/>
    </defs>
    <g clip-path="url(#p1c7d8229f0)">
     <use style="fill:#87001d;fill-opacity:0.2;stroke:#87001d;stroke-opacity:0.2;" x="0" xlink:href="#mcd7110d2b5" y="360"/>
    </g>
   </g>
   <g id="line2d_13">
    <path clip-path="url(#p1c7d8229f0)" d="M 52.636634 315 
L 57.651085 315 
L 60.994053 315 
L 64.337021 315 
L 66.008505 315 
L 71.022957 283.948972 
L 72.694441 283.948972 
L 77.708892 273.598629 
L 79.380376 273.598629 
L 79.380376 263.248286 
L 82.723344 252.897944 
L 82.723344 242.547601 
L 84.394828 242.547601 
L 86.066312 232.197258 
L 92.752248 232.197258 
L 99.438183 232.197258 
L 102.781151 232.197258 
L 102.781151 211.496573 
L 106.124119 211.496573 
L 106.124119 201.14623 
L 109.467087 201.14623 
L 111.138571 190.795887 
L 116.153023 190.795887 
L 116.153023 180.445545 
L 117.824506 180.445545 
L 121.167474 180.445545 
L 126.181926 170.095202 
L 131.196378 170.095202 
L 134.539346 170.095202 
L 136.21083 159.744859 
L 137.882314 159.744859 
L 137.882314 149.394516 
L 147.911217 149.394516 
L 151.254185 139.044174 
L 154.597153 139.044174 
L 156.268637 128.693831 
L 162.954572 128.693831 
L 167.969024 118.343488 
L 172.983476 118.343488 
L 176.326444 118.343488 
L 177.997928 118.343488 
L 181.340895 107.993145 
L 184.683863 107.993145 
L 186.355347 107.993145 
L 188.026831 97.642803 
L 191.369799 97.642803 
L 198.055735 97.642803 
L 201.398702 97.642803 
L 201.398702 87.29246 
L 209.756122 87.29246 
L 213.09909 87.29246 
L 218.113542 87.29246 
L 219.785026 76.942117 
L 223.127993 76.942117 
L 228.142445 76.942117 
L 231.485413 76.942117 
L 234.828381 76.942117 
L 238.171349 76.942117 
L 243.1858 76.942117 
L 243.1858 66.591775 
L 246.528768 66.591775 
L 251.54322 56.241432 
L 253.214704 56.241432 
L 256.557672 56.241432 
L 258.229156 56.241432 
L 271.601027 56.241432 
L 273.272511 56.241432 
L 279.958447 56.241432 
L 284.972898 56.241432 
L 288.315866 56.241432 
L 289.98735 56.241432 
L 293.330318 56.241432 
L 295.001802 45.891089 
L 298.34477 45.891089 
L 301.687738 45.891089 
L 303.359221 45.891089 
L 310.045157 45.891089 
L 313.388125 45.891089 
L 316.731093 45.891089 
L 321.745545 45.891089 
" style="fill:none;stroke:#202020;stroke-linecap:round;stroke-opacity:0.7;stroke-width:3;"/>
   </g>
   <g id="line2d_14">
    <path clip-path="url(#p1c7d8229f0)" d="M 52.636634 315 
L 54.308118 315 
L 57.651085 315 
L 60.994053 315 
L 64.337021 315 
L 69.351473 315 
L 72.694441 304.649657 
L 76.037409 304.649657 
L 76.037409 294.299315 
L 81.05186 294.299315 
L 82.723344 283.948972 
L 82.723344 273.598629 
L 86.066312 273.598629 
L 86.066312 263.248286 
L 91.080764 263.248286 
L 96.095216 252.897944 
L 99.438183 252.897944 
L 104.452635 252.897944 
L 107.795603 252.897944 
L 107.795603 242.547601 
L 109.467087 242.547601 
L 116.153023 221.846915 
L 119.49599 221.846915 
L 121.167474 221.846915 
L 127.85341 221.846915 
L 127.85341 201.14623 
L 129.524894 180.445545 
L 132.867862 180.445545 
L 134.539346 180.445545 
L 139.553797 180.445545 
L 142.896765 180.445545 
L 144.568249 170.095202 
L 149.582701 170.095202 
L 152.925669 170.095202 
L 154.597153 159.744859 
L 157.940121 149.394516 
L 161.283088 149.394516 
L 166.29754 149.394516 
L 167.969024 139.044174 
L 167.969024 118.343488 
L 171.311992 118.343488 
L 172.983476 118.343488 
L 179.669411 118.343488 
L 181.340895 118.343488 
L 184.683863 118.343488 
L 189.698315 97.642803 
L 193.041283 97.642803 
L 194.712767 97.642803 
L 196.384251 87.29246 
L 198.055735 87.29246 
L 203.070186 87.29246 
L 208.084638 76.942117 
L 218.113542 76.942117 
L 228.142445 76.942117 
L 231.485413 76.942117 
L 234.828381 76.942117 
L 243.1858 76.942117 
L 249.871736 76.942117 
L 253.214704 56.241432 
L 259.90064 56.241432 
L 263.243607 56.241432 
L 264.915091 56.241432 
L 271.601027 56.241432 
L 276.615479 56.241432 
L 279.958447 56.241432 
L 284.972898 56.241432 
L 288.315866 56.241432 
L 293.330318 56.241432 
L 296.673286 56.241432 
L 301.687738 56.241432 
L 305.030705 56.241432 
L 306.702189 56.241432 
L 306.702189 45.891089 
L 308.373673 45.891089 
L 311.716641 45.891089 
L 313.388125 45.891089 
L 320.074061 45.891089 
L 321.745545 45.891089 
" style="fill:none;stroke:#353535;stroke-linecap:round;stroke-opacity:0.7;stroke-width:3;"/>
   </g>
   <g id="line2d_15">
    <path clip-path="url(#p1c7d8229f0)" d="M 52.636634 315 
L 54.318564 315 
L 56.000495 315 
L 62.728218 315 
L 64.410149 315 
L 67.77401 315 
L 74.501733 315 
L 81.229455 315 
L 86.275248 304.649657 
L 91.32104 304.649657 
L 91.32104 283.948972 
L 93.00297 273.598629 
L 94.684901 273.598629 
L 99.730693 273.598629 
L 101.412624 263.248286 
L 104.776485 263.248286 
L 106.458416 252.897944 
L 106.458416 242.547601 
L 108.140347 242.547601 
L 111.504208 232.197258 
L 113.186139 232.197258 
L 114.868069 221.846915 
L 119.913861 211.496573 
L 121.595792 211.496573 
L 121.595792 201.14623 
L 124.959653 201.14623 
L 126.641584 201.14623 
L 130.005446 190.795887 
L 136.733168 190.795887 
L 141.77896 190.795887 
L 143.460891 180.445545 
L 145.142822 180.445545 
L 148.506683 170.095202 
L 150.188614 170.095202 
L 155.234406 170.095202 
L 161.962129 170.095202 
L 165.32599 170.095202 
L 167.007921 170.095202 
L 170.371782 170.095202 
L 172.053713 170.095202 
L 175.417574 170.095202 
L 177.099505 170.095202 
L 178.781436 159.744859 
L 182.145297 159.744859 
L 185.509158 149.394516 
L 188.87302 128.693831 
L 192.236881 128.693831 
L 193.918812 128.693831 
L 197.282673 128.693831 
L 198.964604 118.343488 
L 205.692327 118.343488 
L 210.738119 118.343488 
L 214.10198 118.343488 
L 215.783911 118.343488 
L 222.511634 107.993145 
L 225.875495 97.642803 
L 229.239356 97.642803 
L 232.603218 87.29246 
L 239.330941 87.29246 
L 242.694802 87.29246 
L 244.376733 87.29246 
L 244.376733 76.942117 
L 247.740594 76.942117 
L 251.104455 76.942117 
L 252.786386 76.942117 
L 256.150248 76.942117 
L 259.514109 76.942117 
L 261.19604 66.591775 
L 264.559901 66.591775 
L 266.241832 66.591775 
L 267.923762 56.241432 
L 269.605693 56.241432 
L 272.969554 56.241432 
L 278.015347 56.241432 
L 278.015347 45.891089 
L 283.061139 45.891089 
L 296.516584 45.891089 
L 301.562376 45.891089 
L 303.244307 45.891089 
L 306.608168 45.891089 
L 309.97203 45.891089 
L 316.699752 45.891089 
L 321.745545 45.891089 
" style="fill:none;stroke:#505050;stroke-linecap:round;stroke-opacity:0.7;stroke-width:3;"/>
   </g>
   <g id="line2d_16">
    <path clip-path="url(#p1c7d8229f0)" d="M 52.636634 315 
L 56.000495 315 
L 59.364356 315 
L 62.728218 304.649657 
L 66.092079 304.649657 
L 67.77401 294.299315 
L 69.455941 294.299315 
L 77.865594 294.299315 
L 79.547525 294.299315 
L 79.547525 283.948972 
L 81.229455 273.598629 
L 81.229455 252.897944 
L 84.593317 252.897944 
L 87.957178 252.897944 
L 89.639109 252.897944 
L 89.639109 242.547601 
L 91.32104 242.547601 
L 96.366832 242.547601 
L 98.048762 242.547601 
L 103.094554 232.197258 
L 104.776485 232.197258 
L 108.140347 211.496573 
L 111.504208 211.496573 
L 116.55 211.496573 
L 119.913861 211.496573 
L 121.595792 211.496573 
L 126.641584 201.14623 
L 135.051238 201.14623 
L 135.051238 190.795887 
L 138.415099 190.795887 
L 141.77896 190.795887 
L 148.506683 190.795887 
L 150.188614 190.795887 
L 151.870545 170.095202 
L 153.552475 170.095202 
L 156.916337 170.095202 
L 158.598267 170.095202 
L 163.644059 170.095202 
L 167.007921 159.744859 
L 168.689851 159.744859 
L 175.417574 159.744859 
L 177.099505 159.744859 
L 180.463366 159.744859 
L 180.463366 139.044174 
L 182.145297 139.044174 
L 187.191089 139.044174 
L 197.282673 139.044174 
L 202.328465 128.693831 
L 202.328465 118.343488 
L 205.692327 118.343488 
L 210.738119 118.343488 
L 214.10198 107.993145 
L 217.465842 107.993145 
L 219.147772 107.993145 
L 222.511634 107.993145 
L 224.193564 97.642803 
L 227.557426 97.642803 
L 229.239356 97.642803 
L 232.603218 97.642803 
L 234.285149 87.29246 
L 237.64901 87.29246 
L 241.012871 87.29246 
L 246.058663 87.29246 
L 249.422525 87.29246 
L 251.104455 76.942117 
L 256.150248 76.942117 
L 259.514109 76.942117 
L 262.87797 76.942117 
L 267.923762 76.942117 
L 271.287624 76.942117 
L 272.969554 76.942117 
L 276.333416 76.942117 
L 281.379208 76.942117 
L 284.743069 66.591775 
L 286.425 66.591775 
L 291.470792 66.591775 
L 291.470792 56.241432 
L 294.834653 56.241432 
L 318.381683 56.241432 
L 318.381683 45.891089 
L 321.745545 45.891089 
" style="fill:none;stroke:#656565;stroke-linecap:round;stroke-opacity:0.7;stroke-width:3;"/>
   </g>
   <g id="line2d_17">
    <path clip-path="url(#p1c7d8229f0)" d="M 52.636634 315 
L 56.000495 315 
L 59.364356 315 
L 62.728218 304.649657 
L 64.410149 294.299315 
L 67.77401 294.299315 
L 72.819802 294.299315 
L 74.501733 294.299315 
L 74.501733 283.948972 
L 76.183663 283.948972 
L 76.183663 273.598629 
L 77.865594 242.547601 
L 81.229455 242.547601 
L 87.957178 242.547601 
L 91.32104 242.547601 
L 94.684901 242.547601 
L 94.684901 221.846915 
L 98.048762 221.846915 
L 103.094554 221.846915 
L 108.140347 221.846915 
L 113.186139 221.846915 
L 113.186139 211.496573 
L 118.231931 211.496573 
L 119.913861 211.496573 
L 119.913861 201.14623 
L 121.595792 190.795887 
L 124.959653 190.795887 
L 133.369307 190.795887 
L 135.051238 190.795887 
L 140.09703 190.795887 
L 143.460891 190.795887 
L 143.460891 180.445545 
L 146.824752 180.445545 
L 148.506683 170.095202 
L 151.870545 170.095202 
L 156.916337 170.095202 
L 158.598267 170.095202 
L 158.598267 159.744859 
L 161.962129 139.044174 
L 167.007921 139.044174 
L 170.371782 128.693831 
L 173.735644 128.693831 
L 175.417574 128.693831 
L 180.463366 107.993145 
L 183.827228 107.993145 
L 183.827228 97.642803 
L 188.87302 97.642803 
L 192.236881 97.642803 
L 193.918812 97.642803 
L 200.646535 97.642803 
L 202.328465 87.29246 
L 204.010396 87.29246 
L 207.374257 87.29246 
L 215.783911 87.29246 
L 219.147772 76.942117 
L 225.875495 76.942117 
L 227.557426 66.591775 
L 232.603218 66.591775 
L 237.64901 66.591775 
L 239.330941 66.591775 
L 239.330941 56.241432 
L 242.694802 56.241432 
L 246.058663 56.241432 
L 246.058663 45.891089 
L 247.740594 45.891089 
L 251.104455 45.891089 
L 254.468317 45.891089 
L 257.832178 45.891089 
L 259.514109 45.891089 
L 264.559901 45.891089 
L 266.241832 45.891089 
L 269.605693 45.891089 
L 274.651485 45.891089 
L 283.061139 45.891089 
L 286.425 45.891089 
L 288.106931 45.891089 
L 294.834653 45.891089 
L 303.244307 45.891089 
L 306.608168 45.891089 
L 309.97203 45.891089 
L 313.335891 45.891089 
L 321.745545 45.891089 
" style="fill:none;stroke:#808080;stroke-linecap:round;stroke-opacity:0.7;stroke-width:3;"/>
   </g>
   <g id="line2d_18">
    <path clip-path="url(#p1c7d8229f0)" d="M 52.636634 315 
L 55.354905 315 
L 58.073177 315 
L 60.791449 313.243578 
L 63.509721 309.898013 
L 66.227993 308.350689 
L 68.946265 303.081424 
L 71.664536 299.0772 
L 74.382808 297.742459 
L 77.10108 287.02271 
L 79.819352 279.202451 
L 82.537624 269.266819 
L 85.255896 262.600083 
L 87.974167 259.108149 
L 90.692439 257.038081 
L 93.410711 249.866025 
L 96.128983 244.617669 
L 98.847255 244.290083 
L 101.565527 241.104826 
L 104.283798 236.337395 
L 107.00207 227.388008 
L 109.720342 222.474209 
L 112.438614 217.936786 
L 115.156886 211.994923 
L 117.875158 208.192827 
L 120.593429 204.449976 
L 123.311701 199.557086 
L 126.029973 197.31974 
L 128.748245 189.353112 
L 131.466517 186.65575 
L 134.184788 186.65575 
L 136.90306 182.515613 
L 139.621332 180.445545 
L 142.339604 179.755522 
L 145.057876 174.235339 
L 147.776148 171.443883 
L 150.494419 167.742851 
L 153.212691 163.52953 
L 155.930963 159.337118 
L 158.649235 155.541993 
L 161.367507 152.196427 
L 164.085779 150.725773 
L 166.80405 147.303538 
L 169.522322 139.566918 
L 172.240594 139.044174 
L 174.958866 139.044174 
L 177.677138 136.47924 
L 180.39541 131.405133 
L 183.113681 126.027834 
L 185.831953 121.138429 
L 188.550225 113.478479 
L 191.268497 112.133283 
L 193.986769 112.133283 
L 196.705041 110.063214 
L 199.423312 107.114935 
L 202.141584 102.089617 
L 204.859856 98.974059 
L 207.578128 97.851901 
L 210.2964 97.642803 
L 213.014671 96.241847 
L 215.732943 95.572734 
L 218.451215 92.692412 
L 221.169487 89.775497 
L 223.887759 86.82199 
L 226.606031 84.323271 
L 229.324302 83.100048 
L 232.042574 81.427266 
L 234.760846 79.012186 
L 237.479118 79.012186 
L 240.19739 76.942117 
L 242.915662 76.942117 
L 245.633933 72.80198 
L 248.352205 69.979159 
L 251.070477 65.344157 
L 253.788749 62.451637 
L 256.507021 62.451637 
L 259.225293 62.451637 
L 261.943564 60.381569 
L 264.661836 60.381569 
L 267.380108 58.980613 
L 270.09838 58.3115 
L 272.816652 58.3115 
L 275.534923 58.3115 
L 278.253195 56.241432 
L 280.971467 56.241432 
L 283.689739 54.819567 
L 286.408011 54.171363 
L 289.126283 54.171363 
L 291.844554 52.101295 
L 294.562826 50.574881 
L 297.281098 50.031226 
L 299.99937 50.031226 
L 302.717642 50.031226 
L 305.435914 50.031226 
L 308.154185 47.961158 
L 310.872457 47.961158 
L 313.590729 47.961158 
L 316.309001 47.961158 
L 319.027273 45.891089 
L 321.745545 45.891089 
" style="fill:none;stroke:#87001d;stroke-linecap:round;stroke-width:3;"/>
   </g>
   <g id="patch_3">
    <path d="M 47.254455 315 
L 47.254455 43.2 
" style="fill:none;stroke:#262626;stroke-linecap:square;stroke-linejoin:miter;stroke-width:1.5;"/>
   </g>
   <g id="patch_4">
    <path d="M 47.254455 315 
L 321.745545 315 
" style="fill:none;stroke:#262626;stroke-linecap:square;stroke-linejoin:miter;stroke-width:1.5;"/>
   </g>
   <g id="legend_1">
    <g id="line2d_19">
     <path d="M 72.545545 191.412813 
L 100.545545 191.412813 
" style="fill:none;stroke:#202020;stroke-linecap:round;stroke-opacity:0.7;stroke-width:3;"/>
    </g>
    <g id="line2d_20"/>
    <g id="text_15">
     <text style="fill:#262626;font-family:Cantarell;font-size:14px;font-style:normal;font-weight:normal;text-anchor:start;" transform="rotate(-0, 111.745545, 196.312813)" x="111.745545" y="196.312813">ROC fold 0 (AUC = 0.68)</text>
    </g>
    <g id="line2d_21">
     <path d="M 72.545545 211.935937 
L 100.545545 211.935937 
" style="fill:none;stroke:#353535;stroke-linecap:round;stroke-opacity:0.7;stroke-width:3;"/>
    </g>
    <g id="line2d_22"/>
    <g id="text_16">
     <text style="fill:#262626;font-family:Cantarell;font-size:14px;font-style:normal;font-weight:normal;text-anchor:start;" transform="rotate(-0, 111.745545, 216.835938)" x="111.745545" y="216.835938">ROC fold 1 (AUC = 0.64)</text>
    </g>
    <g id="line2d_23">
     <path d="M 72.545545 232.459062 
L 100.545545 232.459062 
" style="fill:none;stroke:#505050;stroke-linecap:round;stroke-opacity:0.7;stroke-width:3;"/>
    </g>
    <g id="line2d_24"/>
    <g id="text_17">
     <text style="fill:#262626;font-family:Cantarell;font-size:14px;font-style:normal;font-weight:normal;text-anchor:start;" transform="rotate(-0, 111.745545, 237.359062)" x="111.745545" y="237.359062">ROC fold 2 (AUC = 0.59)</text>
    </g>
    <g id="line2d_25">
     <path d="M 72.545545 252.982187 
L 100.545545 252.982187 
" style="fill:none;stroke:#656565;stroke-linecap:round;stroke-opacity:0.7;stroke-width:3;"/>
    </g>
    <g id="line2d_26"/>
    <g id="text_18">
     <text style="fill:#262626;font-family:Cantarell;font-size:14px;font-style:normal;font-weight:normal;text-anchor:start;" transform="rotate(-0, 111.745545, 257.882187)" x="111.745545" y="257.882187">ROC fold 3 (AUC = 0.60)</text>
    </g>
    <g id="line2d_27">
     <path d="M 72.545545 273.505313 
L 100.545545 273.505313 
" style="fill:none;stroke:#808080;stroke-linecap:round;stroke-opacity:0.7;stroke-width:3;"/>
    </g>
    <g id="line2d_28"/>
    <g id="text_19">
     <text style="fill:#262626;font-family:Cantarell;font-size:14px;font-style:normal;font-weight:normal;text-anchor:start;" transform="rotate(-0, 111.745545, 278.405313)" x="111.745545" y="278.405313">ROC fold 4 (AUC = 0.67)</text>
    </g>
    <g id="line2d_29">
     <path d="M 72.545545 294.028437 
L 100.545545 294.028437 
" style="fill:none;stroke:#87001d;stroke-linecap:round;stroke-width:3;"/>
    </g>
    <g id="line2d_30"/>
    <g id="text_20">
     <!-- Mean ROC (AUC = 0.64 $\pm$ 0.04) -->
     <g style="fill:#262626;" transform="translate(111.745545 298.928437)">
      <text>
       <tspan style="font-family:Cantarell;font-size:14px;font-style:regular;font-weight:regular;" x="0 11.829987 19.039978 25.773972 33.305969 37.12796 45.429947 56.097946 64.931946 68.753937 73.82193 82.151917 91.685913 100.519913 104.341904 113.9039 117.725891 125.761887 129.261887 137.297882 145.333878 160.886337 164.708328 172.744324 176.244324 184.280319 192.316315" y="-0.78125">Mean ROC (AUC = 0.64  0.04)</tspan>
       <tspan style="font-family:DejaVu Sans;font-size:14px;font-style:book;font-weight:book;" x="149.155869" y="-0.78125">±</tspan>
      </text>
     </g>
    </g>
   </g>
  </g>
 </g>
 <defs>
  <clipPath id="p1c7d8229f0">
   <rect height="271.8" width="274.491089" x="47.254455" y="43.2"/>
  </clipPath>
 </defs>
</svg>
