<?xml version="1.0" encoding="utf-8" standalone="no"?>
<!DOCTYPE svg PUBLIC "-//W3C//DTD SVG 1.1//EN"
  "http://www.w3.org/Graphics/SVG/1.1/DTD/svg11.dtd">
<!-- Created with matplotlib (https://matplotlib.org/) -->
<svg height="360pt" version="1.1" viewBox="0 0 360 360" width="360pt" xmlns="http://www.w3.org/2000/svg" xmlns:xlink="http://www.w3.org/1999/xlink">
 <defs>
  <style type="text/css">
*{stroke-linecap:butt;stroke-linejoin:round;}
  </style>
 </defs>
 <g id="figure_1">
  <g id="patch_1">
   <path d="M 0 360 
L 360 360 
L 360 0 
L 0 0 
z
" style="fill:#ffffff;"/>
  </g>
  <g id="axes_1">
   <g id="patch_2">
    <path d="M 47.254455 315 
L 321.745545 315 
L 321.745545 43.2 
L 47.254455 43.2 
z
" style="fill:#ffffff;"/>
   </g>
   <g id="matplotlib.axis_1">
    <g id="xtick_1">
     <g id="line2d_1">
      <defs>
       <path d="M 0 0 
L 0 3.5 
" id="m29c00be16b" style="stroke:#262626;stroke-width:1.5;"/>
      </defs>
      <g>
       <use style="fill:#262626;stroke:#262626;stroke-width:1.5;" x="52.636634" xlink:href="#m29c00be16b" y="315"/>
      </g>
     </g>
     <g id="text_1">
      <text style="fill:#262626;font-family:Cantarell;font-size:14px;font-style:normal;font-weight:normal;text-anchor:middle;" transform="rotate(-0, 52.636634, 332.051562)" x="52.636634" y="332.051562">0.0</text>
     </g>
    </g>
    <g id="xtick_2">
     <g id="line2d_2">
      <g>
       <use style="fill:#262626;stroke:#262626;stroke-width:1.5;" x="106.458416" xlink:href="#m29c00be16b" y="315"/>
      </g>
     </g>
     <g id="text_2">
      <text style="fill:#262626;font-family:Cantarell;font-size:14px;font-style:normal;font-weight:normal;text-anchor:middle;" transform="rotate(-0, 106.458416, 332.051562)" x="106.458416" y="332.051562">0.2</text>
     </g>
    </g>
    <g id="xtick_3">
     <g id="line2d_3">
      <g>
       <use style="fill:#262626;stroke:#262626;stroke-width:1.5;" x="160.280198" xlink:href="#m29c00be16b" y="315"/>
      </g>
     </g>
     <g id="text_3">
      <text style="fill:#262626;font-family:Cantarell;font-size:14px;font-style:normal;font-weight:normal;text-anchor:middle;" transform="rotate(-0, 160.280198, 332.051562)" x="160.280198" y="332.051562">0.4</text>
     </g>
    </g>
    <g id="xtick_4">
     <g id="line2d_4">
      <g>
       <use style="fill:#262626;stroke:#262626;stroke-width:1.5;" x="214.10198" xlink:href="#m29c00be16b" y="315"/>
      </g>
     </g>
     <g id="text_4">
      <text style="fill:#262626;font-family:Cantarell;font-size:14px;font-style:normal;font-weight:normal;text-anchor:middle;" transform="rotate(-0, 214.10198, 332.051562)" x="214.10198" y="332.051562">0.6</text>
     </g>
    </g>
    <g id="xtick_5">
     <g id="line2d_5">
      <g>
       <use style="fill:#262626;stroke:#262626;stroke-width:1.5;" x="267.923762" xlink:href="#m29c00be16b" y="315"/>
      </g>
     </g>
     <g id="text_5">
      <text style="fill:#262626;font-family:Cantarell;font-size:14px;font-style:normal;font-weight:normal;text-anchor:middle;" transform="rotate(-0, 267.923762, 332.051562)" x="267.923762" y="332.051562">0.8</text>
     </g>
    </g>
    <g id="xtick_6">
     <g id="line2d_6">
      <g>
       <use style="fill:#262626;stroke:#262626;stroke-width:1.5;" x="321.745545" xlink:href="#m29c00be16b" y="315"/>
      </g>
     </g>
     <g id="text_6">
      <text style="fill:#262626;font-family:Cantarell;font-size:14px;font-style:normal;font-weight:normal;text-anchor:middle;" transform="rotate(-0, 321.745545, 332.051562)" x="321.745545" y="332.051562">1.0</text>
     </g>
    </g>
    <g id="text_7">
     <text style="fill:#262626;font-family:Cantarell;font-size:14px;font-style:normal;font-weight:normal;text-anchor:middle;" transform="rotate(-0, 184.5, 349.574687)" x="184.5" y="349.574687">False Positive Rate (Positive label: 1.0)</text>
    </g>
   </g>
   <g id="matplotlib.axis_2">
    <g id="ytick_1">
     <g id="line2d_7">
      <defs>
       <path d="M 0 0 
L -3.5 0 
" id="macde613794" style="stroke:#262626;stroke-width:1.5;"/>
      </defs>
      <g>
       <use style="fill:#262626;stroke:#262626;stroke-width:1.5;" x="47.254455" xlink:href="#macde613794" y="315"/>
      </g>
     </g>
     <g id="text_8">
      <text style="fill:#262626;font-family:Cantarell;font-size:14px;font-style:normal;font-weight:normal;text-anchor:end;" transform="rotate(-0, 40.254455, 320.025781)" x="40.254455" y="320.025781">0.0</text>
     </g>
    </g>
    <g id="ytick_2">
     <g id="line2d_8">
      <g>
       <use style="fill:#262626;stroke:#262626;stroke-width:1.5;" x="47.254455" xlink:href="#macde613794" y="261.178218"/>
      </g>
     </g>
     <g id="text_9">
      <text style="fill:#262626;font-family:Cantarell;font-size:14px;font-style:normal;font-weight:normal;text-anchor:end;" transform="rotate(-0, 40.254455, 266.203999)" x="40.254455" y="266.203999">0.2</text>
     </g>
    </g>
    <g id="ytick_3">
     <g id="line2d_9">
      <g>
       <use style="fill:#262626;stroke:#262626;stroke-width:1.5;" x="47.254455" xlink:href="#macde613794" y="207.356436"/>
      </g>
     </g>
     <g id="text_10">
      <text style="fill:#262626;font-family:Cantarell;font-size:14px;font-style:normal;font-weight:normal;text-anchor:end;" transform="rotate(-0, 40.254455, 212.382217)" x="40.254455" y="212.382217">0.4</text>
     </g>
    </g>
    <g id="ytick_4">
     <g id="line2d_10">
      <g>
       <use style="fill:#262626;stroke:#262626;stroke-width:1.5;" x="47.254455" xlink:href="#macde613794" y="153.534653"/>
      </g>
     </g>
     <g id="text_11">
      <text style="fill:#262626;font-family:Cantarell;font-size:14px;font-style:normal;font-weight:normal;text-anchor:end;" transform="rotate(-0, 40.254455, 158.560435)" x="40.254455" y="158.560435">0.6</text>
     </g>
    </g>
    <g id="ytick_5">
     <g id="line2d_11">
      <g>
       <use style="fill:#262626;stroke:#262626;stroke-width:1.5;" x="47.254455" xlink:href="#macde613794" y="99.712871"/>
      </g>
     </g>
     <g id="text_12">
      <text style="fill:#262626;font-family:Cantarell;font-size:14px;font-style:normal;font-weight:normal;text-anchor:end;" transform="rotate(-0, 40.254455, 104.738653)" x="40.254455" y="104.738653">0.8</text>
     </g>
    </g>
    <g id="ytick_6">
     <g id="line2d_12">
      <g>
       <use style="fill:#262626;stroke:#262626;stroke-width:1.5;" x="47.254455" xlink:href="#macde613794" y="45.891089"/>
      </g>
     </g>
     <g id="text_13">
      <text style="fill:#262626;font-family:Cantarell;font-size:14px;font-style:normal;font-weight:normal;text-anchor:end;" transform="rotate(-0, 40.254455, 50.91687)" x="40.254455" y="50.91687">1.0</text>
     </g>
    </g>
    <g id="text_14">
     <text style="fill:#262626;font-family:Cantarell;font-size:14px;font-style:normal;font-weight:normal;text-anchor:middle;" transform="rotate(-90, 13.209143, 179.1)" x="13.209143" y="179.1">True Positive Rate (Positive label: 1.0)</text>
    </g>
   </g>
   <g id="PolyCollection_1">
    <defs>
     <path d="M 52.636634 -45 
L 52.636634 -45 
L 55.354905 -86.401371 
L 58.073177 -115.382331 
L 60.791449 -123.662605 
L 63.509721 -138.153085 
L 66.227993 -146.433359 
L 68.946265 -148.503427 
L 71.664536 -165.063976 
L 74.382808 -181.624524 
L 77.10108 -189.904798 
L 79.819352 -200.255141 
L 82.537624 -200.255141 
L 85.255896 -212.675552 
L 87.974167 -220.955826 
L 90.692439 -223.025895 
L 93.410711 -227.166032 
L 96.128983 -231.306169 
L 98.847255 -233.376238 
L 101.565527 -235.446306 
L 104.283798 -235.446306 
L 107.00207 -241.656512 
L 109.720342 -258.21706 
L 112.438614 -258.21706 
L 115.156886 -260.287129 
L 117.875158 -264.427266 
L 120.593429 -264.427266 
L 123.311701 -270.637471 
L 126.029973 -270.637471 
L 128.748245 -270.637471 
L 131.466517 -270.637471 
L 134.184788 -274.777609 
L 136.90306 -278.917746 
L 139.621332 -278.917746 
L 142.339604 -278.917746 
L 145.057876 -278.917746 
L 147.776148 -278.917746 
L 150.494419 -283.057883 
L 153.212691 -285.127951 
L 155.930963 -285.127951 
L 158.649235 -287.19802 
L 161.367507 -287.19802 
L 164.085779 -287.19802 
L 166.80405 -287.19802 
L 169.522322 -287.19802 
L 172.240594 -287.19802 
L 174.958866 -287.19802 
L 177.677138 -289.268088 
L 180.39541 -289.268088 
L 183.113681 -293.408225 
L 185.831953 -295.478294 
L 188.550225 -297.548363 
L 191.268497 -299.618431 
L 193.986769 -305.828637 
L 196.705041 -305.828637 
L 199.423312 -305.828637 
L 202.141584 -305.828637 
L 204.859856 -305.828637 
L 207.578128 -305.828637 
L 210.2964 -305.828637 
L 213.014671 -305.828637 
L 215.732943 -305.828637 
L 218.451215 -305.828637 
L 221.169487 -305.828637 
L 223.887759 -305.828637 
L 226.606031 -305.828637 
L 229.324302 -305.828637 
L 232.042574 -305.828637 
L 234.760846 -305.828637 
L 237.479118 -305.828637 
L 240.19739 -305.828637 
L 242.915662 -305.828637 
L 245.633933 -305.828637 
L 248.352205 -305.828637 
L 251.070477 -307.898705 
L 253.788749 -307.898705 
L 256.507021 -307.898705 
L 259.225293 -309.968774 
L 261.943564 -309.968774 
L 264.661836 -309.968774 
L 267.380108 -309.968774 
L 270.09838 -309.968774 
L 272.816652 -309.968774 
L 275.534923 -309.968774 
L 278.253195 -309.968774 
L 280.971467 -309.968774 
L 283.689739 -312.038842 
L 286.408011 -312.038842 
L 289.126283 -312.038842 
L 291.844554 -312.038842 
L 294.562826 -312.038842 
L 297.281098 -314.108911 
L 299.99937 -314.108911 
L 302.717642 -314.108911 
L 305.435914 -314.108911 
L 308.154185 -314.108911 
L 310.872457 -314.108911 
L 313.590729 -314.108911 
L 316.309001 -314.108911 
L 319.027273 -314.108911 
L 321.745545 -314.108911 
L 321.745545 -45 
L 321.745545 -45 
L 319.027273 -45 
L 316.309001 -45 
L 313.590729 -45 
L 310.872457 -45 
L 308.154185 -45 
L 305.435914 -45 
L 302.717642 -45 
L 299.99937 -45 
L 297.281098 -45 
L 294.562826 -45 
L 291.844554 -45 
L 289.126283 -45 
L 286.408011 -45 
L 283.689739 -45 
L 280.971467 -45 
L 278.253195 -45 
L 275.534923 -45 
L 272.816652 -45 
L 270.09838 -45 
L 267.380108 -45 
L 264.661836 -45 
L 261.943564 -45 
L 259.225293 -45 
L 256.507021 -45 
L 253.788749 -45 
L 251.070477 -45 
L 248.352205 -45 
L 245.633933 -45 
L 242.915662 -45 
L 240.19739 -45 
L 237.479118 -45 
L 234.760846 -45 
L 232.042574 -45 
L 229.324302 -45 
L 226.606031 -45 
L 223.887759 -45 
L 221.169487 -45 
L 218.451215 -45 
L 215.732943 -45 
L 213.014671 -45 
L 210.2964 -45 
L 207.578128 -45 
L 204.859856 -45 
L 202.141584 -45 
L 199.423312 -45 
L 196.705041 -45 
L 193.986769 -45 
L 191.268497 -45 
L 188.550225 -45 
L 185.831953 -45 
L 183.113681 -45 
L 180.39541 -45 
L 177.677138 -45 
L 174.958866 -45 
L 172.240594 -45 
L 169.522322 -45 
L 166.80405 -45 
L 164.085779 -45 
L 161.367507 -45 
L 158.649235 -45 
L 155.930963 -45 
L 153.212691 -45 
L 150.494419 -45 
L 147.776148 -45 
L 145.057876 -45 
L 142.339604 -45 
L 139.621332 -45 
L 136.90306 -45 
L 134.184788 -45 
L 131.466517 -45 
L 128.748245 -45 
L 126.029973 -45 
L 123.311701 -45 
L 120.593429 -45 
L 117.875158 -45 
L 115.156886 -45 
L 112.438614 -45 
L 109.720342 -45 
L 107.00207 -45 
L 104.283798 -45 
L 101.565527 -45 
L 98.847255 -45 
L 96.128983 -45 
L 93.410711 -45 
L 90.692439 -45 
L 87.974167 -45 
L 85.255896 -45 
L 82.537624 -45 
L 79.819352 -45 
L 77.10108 -45 
L 74.382808 -45 
L 71.664536 -45 
L 68.946265 -45 
L 66.227993 -45 
L 63.509721 -45 
L 60.791449 -45 
L 58.073177 -45 
L 55.354905 -45 
L 52.636634 -45 
z
" id="m59536dca69" style="stroke:#87001d;stroke-opacity:0.2;"/>
    </defs>
    <g clip-path="url(#p734465fa84)">
     <use style="fill:#87001d;fill-opacity:0.2;stroke:#87001d;stroke-opacity:0.2;" x="0" xlink:href="#m59536dca69" y="360"/>
    </g>
   </g>
   <g id="line2d_13">
    <path clip-path="url(#p734465fa84)" d="M 52.636634 315 
L 52.636634 304.649657 
L 52.636634 283.948972 
L 54.308118 283.948972 
L 54.308118 273.598629 
L 55.979602 273.598629 
L 55.979602 242.547601 
L 59.322569 242.547601 
L 59.322569 232.197258 
L 60.994053 232.197258 
L 60.994053 221.846915 
L 62.665537 221.846915 
L 62.665537 211.496573 
L 66.008505 211.496573 
L 66.008505 201.14623 
L 67.679989 201.14623 
L 67.679989 190.795887 
L 72.694441 190.795887 
L 72.694441 170.095202 
L 74.365925 170.095202 
L 74.365925 159.744859 
L 76.037409 159.744859 
L 76.037409 149.394516 
L 82.723344 149.394516 
L 82.723344 139.044174 
L 87.737796 139.044174 
L 87.737796 128.693831 
L 104.452635 128.693831 
L 104.452635 118.343488 
L 109.467087 118.343488 
L 109.467087 87.29246 
L 114.481539 87.29246 
L 114.481539 76.942117 
L 122.838958 76.942117 
L 122.838958 66.591775 
L 181.340895 66.591775 
L 181.340895 56.241432 
L 184.683863 56.241432 
L 184.683863 45.891089 
L 321.745545 45.891089 
" style="fill:none;stroke:#202020;stroke-linecap:round;stroke-opacity:0.7;stroke-width:3;"/>
   </g>
   <g id="line2d_14">
    <path clip-path="url(#p734465fa84)" d="M 52.636634 315 
L 52.636634 304.649657 
L 52.636634 294.299315 
L 55.979602 294.299315 
L 55.979602 263.248286 
L 57.651085 263.248286 
L 57.651085 252.897944 
L 60.994053 252.897944 
L 60.994053 232.197258 
L 71.022957 232.197258 
L 71.022957 221.846915 
L 74.365925 221.846915 
L 74.365925 211.496573 
L 79.380376 211.496573 
L 79.380376 190.795887 
L 82.723344 190.795887 
L 82.723344 180.445545 
L 87.737796 180.445545 
L 87.737796 170.095202 
L 94.423732 170.095202 
L 94.423732 159.744859 
L 99.438183 159.744859 
L 99.438183 149.394516 
L 104.452635 149.394516 
L 104.452635 128.693831 
L 109.467087 128.693831 
L 109.467087 118.343488 
L 121.167474 118.343488 
L 121.167474 107.993145 
L 151.254185 107.993145 
L 151.254185 97.642803 
L 176.326444 97.642803 
L 176.326444 87.29246 
L 183.012379 87.29246 
L 183.012379 76.942117 
L 193.041283 76.942117 
L 193.041283 66.591775 
L 249.871736 66.591775 
L 249.871736 56.241432 
L 258.229156 56.241432 
L 258.229156 45.891089 
L 321.745545 45.891089 
" style="fill:none;stroke:#353535;stroke-linecap:round;stroke-opacity:0.7;stroke-width:3;"/>
   </g>
   <g id="line2d_15">
    <path clip-path="url(#p734465fa84)" d="M 52.636634 315 
L 52.636634 304.649657 
L 52.636634 252.897944 
L 54.318564 252.897944 
L 54.318564 242.547601 
L 57.682426 242.547601 
L 57.682426 221.846915 
L 59.364356 221.846915 
L 59.364356 211.496573 
L 62.728218 211.496573 
L 62.728218 201.14623 
L 72.819802 201.14623 
L 72.819802 180.445545 
L 79.547525 180.445545 
L 79.547525 170.095202 
L 87.957178 170.095202 
L 87.957178 159.744859 
L 89.639109 159.744859 
L 89.639109 149.394516 
L 93.00297 149.394516 
L 93.00297 128.693831 
L 108.140347 128.693831 
L 108.140347 118.343488 
L 116.55 118.343488 
L 116.55 107.993145 
L 119.913861 107.993145 
L 135.051238 107.993145 
L 135.051238 87.29246 
L 148.506683 87.29246 
L 148.506683 76.942117 
L 158.598267 76.942117 
L 158.598267 66.591775 
L 193.918812 66.591775 
L 193.918812 45.891089 
L 195.600743 45.891089 
L 198.964604 45.891089 
L 315.017822 45.891089 
L 318.381683 45.891089 
L 321.745545 45.891089 
" style="fill:none;stroke:#505050;stroke-linecap:round;stroke-opacity:0.7;stroke-width:3;"/>
   </g>
   <g id="line2d_16">
    <path clip-path="url(#p734465fa84)" d="M 52.636634 315 
L 54.318564 315 
L 54.318564 273.598629 
L 56.000495 273.598629 
L 56.000495 252.897944 
L 59.364356 252.897944 
L 59.364356 242.547601 
L 62.728218 242.547601 
L 62.728218 221.846915 
L 66.092079 221.846915 
L 66.092079 211.496573 
L 69.455941 211.496573 
L 69.455941 201.14623 
L 71.137871 201.14623 
L 71.137871 190.795887 
L 74.501733 190.795887 
L 74.501733 180.445545 
L 77.865594 180.445545 
L 77.865594 170.095202 
L 82.911386 170.095202 
L 82.911386 159.744859 
L 84.593317 159.744859 
L 84.593317 139.044174 
L 86.275248 139.044174 
L 86.275248 128.693831 
L 94.684901 128.693831 
L 94.684901 118.343488 
L 108.140347 118.343488 
L 108.140347 107.993145 
L 116.55 107.993145 
L 116.55 97.642803 
L 123.277723 97.642803 
L 123.277723 87.29246 
L 133.369307 87.29246 
L 133.369307 76.942117 
L 187.191089 76.942117 
L 187.191089 66.591775 
L 188.87302 66.591775 
L 188.87302 56.241432 
L 294.834653 56.241432 
L 294.834653 45.891089 
L 321.745545 45.891089 
" style="fill:none;stroke:#656565;stroke-linecap:round;stroke-opacity:0.7;stroke-width:3;"/>
   </g>
   <g id="line2d_17">
    <path clip-path="url(#p734465fa84)" d="M 52.636634 315 
L 54.318564 315 
L 54.318564 283.948972 
L 56.000495 283.948972 
L 56.000495 263.248286 
L 57.682426 263.248286 
L 57.682426 252.897944 
L 59.364356 252.897944 
L 59.364356 242.547601 
L 64.410149 242.547601 
L 64.410149 232.197258 
L 66.092079 232.197258 
L 66.092079 221.846915 
L 69.455941 221.846915 
L 69.455941 211.496573 
L 71.137871 211.496573 
L 71.137871 170.095202 
L 72.819802 170.095202 
L 72.819802 149.394516 
L 74.501733 149.394516 
L 74.501733 128.693831 
L 77.865594 128.693831 
L 77.865594 118.343488 
L 82.911386 118.343488 
L 82.911386 107.993145 
L 96.366832 107.993145 
L 96.366832 97.642803 
L 108.140347 97.642803 
L 108.140347 76.942117 
L 131.687376 76.942117 
L 131.687376 66.591775 
L 148.506683 66.591775 
L 148.506683 56.241432 
L 272.969554 56.241432 
L 276.333416 56.241432 
L 283.061139 56.241432 
L 283.061139 45.891089 
L 321.745545 45.891089 
" style="fill:none;stroke:#808080;stroke-linecap:round;stroke-opacity:0.7;stroke-width:3;"/>
   </g>
   <g id="line2d_18">
    <path clip-path="url(#p734465fa84)" d="M 52.636634 315 
L 55.354905 273.598629 
L 58.073177 244.617669 
L 60.791449 236.337395 
L 63.509721 221.846915 
L 66.227993 213.566641 
L 68.946265 211.496573 
L 71.664536 194.936024 
L 74.382808 178.375476 
L 77.10108 170.095202 
L 79.819352 159.744859 
L 82.537624 159.744859 
L 85.255896 147.324448 
L 87.974167 139.044174 
L 90.692439 136.974105 
L 93.410711 132.833968 
L 96.128983 128.693831 
L 98.847255 126.623762 
L 101.565527 124.553694 
L 104.283798 124.553694 
L 107.00207 118.343488 
L 109.720342 101.78294 
L 112.438614 101.78294 
L 115.156886 99.712871 
L 117.875158 95.572734 
L 120.593429 95.572734 
L 123.311701 89.362529 
L 126.029973 89.362529 
L 128.748245 89.362529 
L 131.466517 89.362529 
L 134.184788 85.222391 
L 136.90306 81.082254 
L 139.621332 81.082254 
L 142.339604 81.082254 
L 145.057876 81.082254 
L 147.776148 81.082254 
L 150.494419 76.942117 
L 153.212691 74.872049 
L 155.930963 74.872049 
L 158.649235 72.80198 
L 161.367507 72.80198 
L 164.085779 72.80198 
L 166.80405 72.80198 
L 169.522322 72.80198 
L 172.240594 72.80198 
L 174.958866 72.80198 
L 177.677138 70.731912 
L 180.39541 70.731912 
L 183.113681 66.591775 
L 185.831953 64.521706 
L 188.550225 62.451637 
L 191.268497 60.381569 
L 193.986769 54.171363 
L 196.705041 54.171363 
L 199.423312 54.171363 
L 202.141584 54.171363 
L 204.859856 54.171363 
L 207.578128 54.171363 
L 210.2964 54.171363 
L 213.014671 54.171363 
L 215.732943 54.171363 
L 218.451215 54.171363 
L 221.169487 54.171363 
L 223.887759 54.171363 
L 226.606031 54.171363 
L 229.324302 54.171363 
L 232.042574 54.171363 
L 234.760846 54.171363 
L 237.479118 54.171363 
L 240.19739 54.171363 
L 242.915662 54.171363 
L 245.633933 54.171363 
L 248.352205 54.171363 
L 251.070477 52.101295 
L 253.788749 52.101295 
L 256.507021 52.101295 
L 259.225293 50.031226 
L 261.943564 50.031226 
L 264.661836 50.031226 
L 267.380108 50.031226 
L 270.09838 50.031226 
L 272.816652 50.031226 
L 275.534923 50.031226 
L 278.253195 50.031226 
L 280.971467 50.031226 
L 283.689739 47.961158 
L 286.408011 47.961158 
L 289.126283 47.961158 
L 291.844554 47.961158 
L 294.562826 47.961158 
L 297.281098 45.891089 
L 299.99937 45.891089 
L 302.717642 45.891089 
L 305.435914 45.891089 
L 308.154185 45.891089 
L 310.872457 45.891089 
L 313.590729 45.891089 
L 316.309001 45.891089 
L 319.027273 45.891089 
L 321.745545 45.891089 
" style="fill:none;stroke:#87001d;stroke-linecap:round;stroke-width:3;"/>
   </g>
   <g id="patch_3">
    <path d="M 47.254455 315 
L 47.254455 43.2 
" style="fill:none;stroke:#262626;stroke-linecap:square;stroke-linejoin:miter;stroke-width:1.5;"/>
   </g>
   <g id="patch_4">
    <path d="M 47.254455 315 
L 321.745545 315 
" style="fill:none;stroke:#262626;stroke-linecap:square;stroke-linejoin:miter;stroke-width:1.5;"/>
   </g>
   <g id="legend_1">
    <g id="line2d_19">
     <path d="M 72.545545 191.412813 
L 100.545545 191.412813 
" style="fill:none;stroke:#202020;stroke-linecap:round;stroke-opacity:0.7;stroke-width:3;"/>
    </g>
    <g id="line2d_20"/>
    <g id="text_15">
     <text style="fill:#262626;font-family:Cantarell;font-size:14px;font-style:normal;font-weight:normal;text-anchor:start;" transform="rotate(-0, 111.745545, 196.312813)" x="111.745545" y="196.312813">ROC fold 0 (AUC = 0.88)</text>
    </g>
    <g id="line2d_21">
     <path d="M 72.545545 211.935937 
L 100.545545 211.935937 
" style="fill:none;stroke:#353535;stroke-linecap:round;stroke-opacity:0.7;stroke-width:3;"/>
    </g>
    <g id="line2d_22"/>
    <g id="text_16">
     <text style="fill:#262626;font-family:Cantarell;font-size:14px;font-style:normal;font-weight:normal;text-anchor:start;" transform="rotate(-0, 111.745545, 216.835938)" x="111.745545" y="216.835938">ROC fold 1 (AUC = 0.80)</text>
    </g>
    <g id="line2d_23">
     <path d="M 72.545545 232.459062 
L 100.545545 232.459062 
" style="fill:none;stroke:#505050;stroke-linecap:round;stroke-opacity:0.7;stroke-width:3;"/>
    </g>
    <g id="line2d_24"/>
    <g id="text_17">
     <text style="fill:#262626;font-family:Cantarell;font-size:14px;font-style:normal;font-weight:normal;text-anchor:start;" transform="rotate(-0, 111.745545, 237.359062)" x="111.745545" y="237.359062">ROC fold 2 (AUC = 0.85)</text>
    </g>
    <g id="line2d_25">
     <path d="M 72.545545 252.982187 
L 100.545545 252.982187 
" style="fill:none;stroke:#656565;stroke-linecap:round;stroke-opacity:0.7;stroke-width:3;"/>
    </g>
    <g id="line2d_26"/>
    <g id="text_18">
     <text style="fill:#262626;font-family:Cantarell;font-size:14px;font-style:normal;font-weight:normal;text-anchor:start;" transform="rotate(-0, 111.745545, 257.882187)" x="111.745545" y="257.882187">ROC fold 3 (AUC = 0.84)</text>
    </g>
    <g id="line2d_27">
     <path d="M 72.545545 273.505313 
L 100.545545 273.505313 
" style="fill:none;stroke:#808080;stroke-linecap:round;stroke-opacity:0.7;stroke-width:3;"/>
    </g>
    <g id="line2d_28"/>
    <g id="text_19">
     <text style="fill:#262626;font-family:Cantarell;font-size:14px;font-style:normal;font-weight:normal;text-anchor:start;" transform="rotate(-0, 111.745545, 278.405313)" x="111.745545" y="278.405313">ROC fold 4 (AUC = 0.88)</text>
    </g>
    <g id="line2d_29">
     <path d="M 72.545545 294.028437 
L 100.545545 294.028437 
" style="fill:none;stroke:#87001d;stroke-linecap:round;stroke-width:3;"/>
    </g>
    <g id="line2d_30"/>
    <g id="text_20">
     <!-- Mean ROC (AUC = 0.85 $\pm$ 0.03) -->
     <g style="fill:#262626;" transform="translate(111.745545 298.928437)">
      <text>
       <tspan style="font-family:Cantarell;font-size:14px;font-style:regular;font-weight:regular;" x="0 11.829987 19.039978 25.773972 33.305969 37.12796 45.429947 56.097946 64.931946 68.753937 73.82193 82.151917 91.685913 100.519913 104.341904 113.9039 117.725891 125.761887 129.261887 137.297882 145.333878 160.886337 164.708328 172.744324 176.244324 184.280319 192.316315" y="-0.78125">Mean ROC (AUC = 0.85  0.03)</tspan>
       <tspan style="font-family:DejaVu Sans;font-size:14px;font-style:book;font-weight:book;" x="149.155869" y="-0.78125">±</tspan>
      </text>
     </g>
    </g>
   </g>
  </g>
 </g>
 <defs>
  <clipPath id="p734465fa84">
   <rect height="271.8" width="274.491089" x="47.254455" y="43.2"/>
  </clipPath>
 </defs>
</svg>
