<?xml version="1.0" encoding="utf-8" standalone="no"?>
<!DOCTYPE svg PUBLIC "-//W3C//DTD SVG 1.1//EN"
  "http://www.w3.org/Graphics/SVG/1.1/DTD/svg11.dtd">
<!-- Created with matplotlib (https://matplotlib.org/) -->
<svg height="360pt" version="1.1" viewBox="0 0 360 360" width="360pt" xmlns="http://www.w3.org/2000/svg" xmlns:xlink="http://www.w3.org/1999/xlink">
 <defs>
  <style type="text/css">
*{stroke-linecap:butt;stroke-linejoin:round;}
  </style>
 </defs>
 <g id="figure_1">
  <g id="patch_1">
   <path d="M 0 360 
L 360 360 
L 360 0 
L 0 0 
z
" style="fill:#ffffff;"/>
  </g>
  <g id="axes_1">
   <g id="patch_2">
    <path d="M 47.254455 315 
L 321.745545 315 
L 321.745545 43.2 
L 47.254455 43.2 
z
" style="fill:#ffffff;"/>
   </g>
   <g id="matplotlib.axis_1">
    <g id="xtick_1">
     <g id="line2d_1">
      <defs>
       <path d="M 0 0 
L 0 3.5 
" id="m3d490ac1c2" style="stroke:#262626;stroke-width:1.5;"/>
      </defs>
      <g>
       <use style="fill:#262626;stroke:#262626;stroke-width:1.5;" x="52.636634" xlink:href="#m3d490ac1c2" y="315"/>
      </g>
     </g>
     <g id="text_1">
      <text style="fill:#262626;font-family:Cantarell;font-size:14px;font-style:normal;font-weight:normal;text-anchor:middle;" transform="rotate(-0, 52.636634, 332.051562)" x="52.636634" y="332.051562">0.0</text>
     </g>
    </g>
    <g id="xtick_2">
     <g id="line2d_2">
      <g>
       <use style="fill:#262626;stroke:#262626;stroke-width:1.5;" x="106.458416" xlink:href="#m3d490ac1c2" y="315"/>
      </g>
     </g>
     <g id="text_2">
      <text style="fill:#262626;font-family:Cantarell;font-size:14px;font-style:normal;font-weight:normal;text-anchor:middle;" transform="rotate(-0, 106.458416, 332.051562)" x="106.458416" y="332.051562">0.2</text>
     </g>
    </g>
    <g id="xtick_3">
     <g id="line2d_3">
      <g>
       <use style="fill:#262626;stroke:#262626;stroke-width:1.5;" x="160.280198" xlink:href="#m3d490ac1c2" y="315"/>
      </g>
     </g>
     <g id="text_3">
      <text style="fill:#262626;font-family:Cantarell;font-size:14px;font-style:normal;font-weight:normal;text-anchor:middle;" transform="rotate(-0, 160.280198, 332.051562)" x="160.280198" y="332.051562">0.4</text>
     </g>
    </g>
    <g id="xtick_4">
     <g id="line2d_4">
      <g>
       <use style="fill:#262626;stroke:#262626;stroke-width:1.5;" x="214.10198" xlink:href="#m3d490ac1c2" y="315"/>
      </g>
     </g>
     <g id="text_4">
      <text style="fill:#262626;font-family:Cantarell;font-size:14px;font-style:normal;font-weight:normal;text-anchor:middle;" transform="rotate(-0, 214.10198, 332.051562)" x="214.10198" y="332.051562">0.6</text>
     </g>
    </g>
    <g id="xtick_5">
     <g id="line2d_5">
      <g>
       <use style="fill:#262626;stroke:#262626;stroke-width:1.5;" x="267.923762" xlink:href="#m3d490ac1c2" y="315"/>
      </g>
     </g>
     <g id="text_5">
      <text style="fill:#262626;font-family:Cantarell;font-size:14px;font-style:normal;font-weight:normal;text-anchor:middle;" transform="rotate(-0, 267.923762, 332.051562)" x="267.923762" y="332.051562">0.8</text>
     </g>
    </g>
    <g id="xtick_6">
     <g id="line2d_6">
      <g>
       <use style="fill:#262626;stroke:#262626;stroke-width:1.5;" x="321.745545" xlink:href="#m3d490ac1c2" y="315"/>
      </g>
     </g>
     <g id="text_6">
      <text style="fill:#262626;font-family:Cantarell;font-size:14px;font-style:normal;font-weight:normal;text-anchor:middle;" transform="rotate(-0, 321.745545, 332.051562)" x="321.745545" y="332.051562">1.0</text>
     </g>
    </g>
    <g id="text_7">
     <text style="fill:#262626;font-family:Cantarell;font-size:14px;font-style:normal;font-weight:normal;text-anchor:middle;" transform="rotate(-0, 184.5, 349.574687)" x="184.5" y="349.574687">False Positive Rate (Positive label: 1.0)</text>
    </g>
   </g>
   <g id="matplotlib.axis_2">
    <g id="ytick_1">
     <g id="line2d_7">
      <defs>
       <path d="M 0 0 
L -3.5 0 
" id="mdfe336b5b0" style="stroke:#262626;stroke-width:1.5;"/>
      </defs>
      <g>
       <use style="fill:#262626;stroke:#262626;stroke-width:1.5;" x="47.254455" xlink:href="#mdfe336b5b0" y="315"/>
      </g>
     </g>
     <g id="text_8">
      <text style="fill:#262626;font-family:Cantarell;font-size:14px;font-style:normal;font-weight:normal;text-anchor:end;" transform="rotate(-0, 40.254455, 320.025781)" x="40.254455" y="320.025781">0.0</text>
     </g>
    </g>
    <g id="ytick_2">
     <g id="line2d_8">
      <g>
       <use style="fill:#262626;stroke:#262626;stroke-width:1.5;" x="47.254455" xlink:href="#mdfe336b5b0" y="261.178218"/>
      </g>
     </g>
     <g id="text_9">
      <text style="fill:#262626;font-family:Cantarell;font-size:14px;font-style:normal;font-weight:normal;text-anchor:end;" transform="rotate(-0, 40.254455, 266.203999)" x="40.254455" y="266.203999">0.2</text>
     </g>
    </g>
    <g id="ytick_3">
     <g id="line2d_9">
      <g>
       <use style="fill:#262626;stroke:#262626;stroke-width:1.5;" x="47.254455" xlink:href="#mdfe336b5b0" y="207.356436"/>
      </g>
     </g>
     <g id="text_10">
      <text style="fill:#262626;font-family:Cantarell;font-size:14px;font-style:normal;font-weight:normal;text-anchor:end;" transform="rotate(-0, 40.254455, 212.382217)" x="40.254455" y="212.382217">0.4</text>
     </g>
    </g>
    <g id="ytick_4">
     <g id="line2d_10">
      <g>
       <use style="fill:#262626;stroke:#262626;stroke-width:1.5;" x="47.254455" xlink:href="#mdfe336b5b0" y="153.534653"/>
      </g>
     </g>
     <g id="text_11">
      <text style="fill:#262626;font-family:Cantarell;font-size:14px;font-style:normal;font-weight:normal;text-anchor:end;" transform="rotate(-0, 40.254455, 158.560435)" x="40.254455" y="158.560435">0.6</text>
     </g>
    </g>
    <g id="ytick_5">
     <g id="line2d_11">
      <g>
       <use style="fill:#262626;stroke:#262626;stroke-width:1.5;" x="47.254455" xlink:href="#mdfe336b5b0" y="99.712871"/>
      </g>
     </g>
     <g id="text_12">
      <text style="fill:#262626;font-family:Cantarell;font-size:14px;font-style:normal;font-weight:normal;text-anchor:end;" transform="rotate(-0, 40.254455, 104.738653)" x="40.254455" y="104.738653">0.8</text>
     </g>
    </g>
    <g id="ytick_6">
     <g id="line2d_12">
      <g>
       <use style="fill:#262626;stroke:#262626;stroke-width:1.5;" x="47.254455" xlink:href="#mdfe336b5b0" y="45.891089"/>
      </g>
     </g>
     <g id="text_13">
      <text style="fill:#262626;font-family:Cantarell;font-size:14px;font-style:normal;font-weight:normal;text-anchor:end;" transform="rotate(-0, 40.254455, 50.91687)" x="40.254455" y="50.91687">1.0</text>
     </g>
    </g>
    <g id="text_14">
     <text style="fill:#262626;font-family:Cantarell;font-size:14px;font-style:normal;font-weight:normal;text-anchor:middle;" transform="rotate(-90, 13.209143, 179.1)" x="13.209143" y="179.1">True Positive Rate (Positive label: 1.0)</text>
    </g>
   </g>
   <g id="PolyCollection_1">
    <defs>
     <path d="M 52.636634 -45 
L 52.636634 -45 
L 55.354905 -188.524752 
L 58.073177 -188.524752 
L 60.791449 -212.445545 
L 63.509721 -212.445545 
L 66.227993 -212.445545 
L 68.946265 -218.425743 
L 71.664536 -218.425743 
L 74.382808 -224.405941 
L 77.10108 -230.386139 
L 79.819352 -230.386139 
L 82.537624 -254.306931 
L 85.255896 -254.306931 
L 87.974167 -254.306931 
L 90.692439 -284.207921 
L 93.410711 -284.207921 
L 96.128983 -290.188119 
L 98.847255 -290.188119 
L 101.565527 -290.188119 
L 104.283798 -290.188119 
L 107.00207 -290.188119 
L 109.720342 -296.168317 
L 112.438614 -296.168317 
L 115.156886 -296.168317 
L 117.875158 -296.168317 
L 120.593429 -302.148515 
L 123.311701 -302.148515 
L 126.029973 -302.148515 
L 128.748245 -302.148515 
L 131.466517 -302.148515 
L 134.184788 -302.148515 
L 136.90306 -302.148515 
L 139.621332 -302.148515 
L 142.339604 -302.148515 
L 145.057876 -302.148515 
L 147.776148 -302.148515 
L 150.494419 -302.148515 
L 153.212691 -302.148515 
L 155.930963 -302.148515 
L 158.649235 -302.148515 
L 161.367507 -302.148515 
L 164.085779 -302.148515 
L 166.80405 -302.148515 
L 169.522322 -302.148515 
L 172.240594 -302.148515 
L 174.958866 -302.148515 
L 177.677138 -302.148515 
L 180.39541 -302.148515 
L 183.113681 -302.148515 
L 185.831953 -302.148515 
L 188.550225 -302.148515 
L 191.268497 -302.148515 
L 193.986769 -302.148515 
L 196.705041 -302.148515 
L 199.423312 -302.148515 
L 202.141584 -302.148515 
L 204.859856 -302.148515 
L 207.578128 -302.148515 
L 210.2964 -302.148515 
L 213.014671 -302.148515 
L 215.732943 -302.148515 
L 218.451215 -302.148515 
L 221.169487 -302.148515 
L 223.887759 -302.148515 
L 226.606031 -302.148515 
L 229.324302 -302.148515 
L 232.042574 -302.148515 
L 234.760846 -302.148515 
L 237.479118 -302.148515 
L 240.19739 -302.148515 
L 242.915662 -302.148515 
L 245.633933 -302.148515 
L 248.352205 -302.148515 
L 251.070477 -302.148515 
L 253.788749 -302.148515 
L 256.507021 -302.148515 
L 259.225293 -302.148515 
L 261.943564 -302.148515 
L 264.661836 -302.148515 
L 267.380108 -302.148515 
L 270.09838 -302.148515 
L 272.816652 -302.148515 
L 275.534923 -302.148515 
L 278.253195 -302.148515 
L 280.971467 -302.148515 
L 283.689739 -302.148515 
L 286.408011 -302.148515 
L 289.126283 -302.148515 
L 291.844554 -302.148515 
L 294.562826 -302.148515 
L 297.281098 -302.148515 
L 299.99937 -308.128713 
L 302.717642 -308.128713 
L 305.435914 -308.128713 
L 308.154185 -314.108911 
L 310.872457 -314.108911 
L 313.590729 -314.108911 
L 316.309001 -314.108911 
L 319.027273 -314.108911 
L 321.745545 -314.108911 
L 321.745545 -45 
L 321.745545 -45 
L 319.027273 -45 
L 316.309001 -45 
L 313.590729 -45 
L 310.872457 -45 
L 308.154185 -45 
L 305.435914 -45 
L 302.717642 -45 
L 299.99937 -45 
L 297.281098 -45 
L 294.562826 -45 
L 291.844554 -45 
L 289.126283 -45 
L 286.408011 -45 
L 283.689739 -45 
L 280.971467 -45 
L 278.253195 -45 
L 275.534923 -45 
L 272.816652 -45 
L 270.09838 -45 
L 267.380108 -45 
L 264.661836 -45 
L 261.943564 -45 
L 259.225293 -45 
L 256.507021 -45 
L 253.788749 -45 
L 251.070477 -45 
L 248.352205 -45 
L 245.633933 -45 
L 242.915662 -45 
L 240.19739 -45 
L 237.479118 -45 
L 234.760846 -45 
L 232.042574 -45 
L 229.324302 -45 
L 226.606031 -45 
L 223.887759 -45 
L 221.169487 -45 
L 218.451215 -45 
L 215.732943 -45 
L 213.014671 -45 
L 210.2964 -45 
L 207.578128 -45 
L 204.859856 -45 
L 202.141584 -45 
L 199.423312 -45 
L 196.705041 -45 
L 193.986769 -45 
L 191.268497 -45 
L 188.550225 -45 
L 185.831953 -45 
L 183.113681 -45 
L 180.39541 -45 
L 177.677138 -45 
L 174.958866 -45 
L 172.240594 -45 
L 169.522322 -45 
L 166.80405 -45 
L 164.085779 -45 
L 161.367507 -45 
L 158.649235 -45 
L 155.930963 -45 
L 153.212691 -45 
L 150.494419 -45 
L 147.776148 -45 
L 145.057876 -45 
L 142.339604 -45 
L 139.621332 -45 
L 136.90306 -45 
L 134.184788 -45 
L 131.466517 -45 
L 128.748245 -45 
L 126.029973 -45 
L 123.311701 -45 
L 120.593429 -45 
L 117.875158 -45 
L 115.156886 -45 
L 112.438614 -45 
L 109.720342 -45 
L 107.00207 -45 
L 104.283798 -45 
L 101.565527 -45 
L 98.847255 -45 
L 96.128983 -45 
L 93.410711 -45 
L 90.692439 -45 
L 87.974167 -45 
L 85.255896 -45 
L 82.537624 -45 
L 79.819352 -45 
L 77.10108 -45 
L 74.382808 -45 
L 71.664536 -45 
L 68.946265 -45 
L 66.227993 -45 
L 63.509721 -45 
L 60.791449 -45 
L 58.073177 -45 
L 55.354905 -45 
L 52.636634 -45 
z
" id="m58e51199a5" style="stroke:#87001d;stroke-opacity:0.2;"/>
    </defs>
    <g clip-path="url(#p3741171a03)">
     <use style="fill:#87001d;fill-opacity:0.2;stroke:#87001d;stroke-opacity:0.2;" x="0" xlink:href="#m58e51199a5" y="360"/>
    </g>
   </g>
   <g id="line2d_13">
    <path clip-path="url(#p3741171a03)" d="M 52.636634 315 
L 52.636634 285.09901 
L 52.636634 165.49505 
L 66.800261 165.49505 
L 66.800261 135.594059 
L 73.882074 135.594059 
L 73.882074 105.693069 
L 88.045701 105.693069 
L 88.045701 75.792079 
L 95.127514 75.792079 
L 95.127514 45.891089 
L 321.745545 45.891089 
" style="fill:none;stroke:#202020;stroke-linecap:round;stroke-opacity:0.7;stroke-width:3;"/>
   </g>
   <g id="line2d_14">
    <path clip-path="url(#p3741171a03)" d="M 52.636634 315 
L 52.636634 285.09901 
L 52.636634 165.49505 
L 88.045701 165.49505 
L 88.045701 75.792079 
L 109.291141 75.792079 
L 109.291141 45.891089 
L 321.745545 45.891089 
" style="fill:none;stroke:#353535;stroke-linecap:round;stroke-opacity:0.7;stroke-width:3;"/>
   </g>
   <g id="line2d_15">
    <path clip-path="url(#p3741171a03)" d="M 52.636634 315 
L 52.636634 285.09901 
L 59.909847 285.09901 
L 59.909847 165.49505 
L 74.456275 165.49505 
L 74.456275 135.594059 
L 81.729489 135.594059 
L 81.729489 105.693069 
L 299.925903 105.693069 
L 299.925903 75.792079 
L 307.199117 75.792079 
L 307.199117 45.891089 
L 321.745545 45.891089 
" style="fill:none;stroke:#505050;stroke-linecap:round;stroke-opacity:0.7;stroke-width:3;"/>
   </g>
   <g id="line2d_16">
    <path clip-path="url(#p3741171a03)" d="M 52.636634 315 
L 52.636634 285.09901 
L 52.636634 75.792079 
L 118.095558 75.792079 
L 118.095558 45.891089 
L 321.745545 45.891089 
" style="fill:none;stroke:#656565;stroke-linecap:round;stroke-opacity:0.7;stroke-width:3;"/>
   </g>
   <g id="line2d_17">
    <path clip-path="url(#p3741171a03)" d="M 52.636634 315 
L 52.636634 285.09901 
L 52.636634 165.49505 
L 81.729489 165.49505 
L 81.729489 75.792079 
L 89.002703 75.792079 
L 89.002703 45.891089 
L 321.745545 45.891089 
" style="fill:none;stroke:#808080;stroke-linecap:round;stroke-opacity:0.7;stroke-width:3;"/>
   </g>
   <g id="line2d_18">
    <path clip-path="url(#p3741171a03)" d="M 52.636634 315 
L 55.354905 171.475248 
L 58.073177 171.475248 
L 60.791449 147.554455 
L 63.509721 147.554455 
L 66.227993 147.554455 
L 68.946265 141.574257 
L 71.664536 141.574257 
L 74.382808 135.594059 
L 77.10108 129.613861 
L 79.819352 129.613861 
L 82.537624 105.693069 
L 85.255896 105.693069 
L 87.974167 105.693069 
L 90.692439 75.792079 
L 93.410711 75.792079 
L 96.128983 69.811881 
L 98.847255 69.811881 
L 101.565527 69.811881 
L 104.283798 69.811881 
L 107.00207 69.811881 
L 109.720342 63.831683 
L 112.438614 63.831683 
L 115.156886 63.831683 
L 117.875158 63.831683 
L 120.593429 57.851485 
L 123.311701 57.851485 
L 126.029973 57.851485 
L 128.748245 57.851485 
L 131.466517 57.851485 
L 134.184788 57.851485 
L 136.90306 57.851485 
L 139.621332 57.851485 
L 142.339604 57.851485 
L 145.057876 57.851485 
L 147.776148 57.851485 
L 150.494419 57.851485 
L 153.212691 57.851485 
L 155.930963 57.851485 
L 158.649235 57.851485 
L 161.367507 57.851485 
L 164.085779 57.851485 
L 166.80405 57.851485 
L 169.522322 57.851485 
L 172.240594 57.851485 
L 174.958866 57.851485 
L 177.677138 57.851485 
L 180.39541 57.851485 
L 183.113681 57.851485 
L 185.831953 57.851485 
L 188.550225 57.851485 
L 191.268497 57.851485 
L 193.986769 57.851485 
L 196.705041 57.851485 
L 199.423312 57.851485 
L 202.141584 57.851485 
L 204.859856 57.851485 
L 207.578128 57.851485 
L 210.2964 57.851485 
L 213.014671 57.851485 
L 215.732943 57.851485 
L 218.451215 57.851485 
L 221.169487 57.851485 
L 223.887759 57.851485 
L 226.606031 57.851485 
L 229.324302 57.851485 
L 232.042574 57.851485 
L 234.760846 57.851485 
L 237.479118 57.851485 
L 240.19739 57.851485 
L 242.915662 57.851485 
L 245.633933 57.851485 
L 248.352205 57.851485 
L 251.070477 57.851485 
L 253.788749 57.851485 
L 256.507021 57.851485 
L 259.225293 57.851485 
L 261.943564 57.851485 
L 264.661836 57.851485 
L 267.380108 57.851485 
L 270.09838 57.851485 
L 272.816652 57.851485 
L 275.534923 57.851485 
L 278.253195 57.851485 
L 280.971467 57.851485 
L 283.689739 57.851485 
L 286.408011 57.851485 
L 289.126283 57.851485 
L 291.844554 57.851485 
L 294.562826 57.851485 
L 297.281098 57.851485 
L 299.99937 51.871287 
L 302.717642 51.871287 
L 305.435914 51.871287 
L 308.154185 45.891089 
L 310.872457 45.891089 
L 313.590729 45.891089 
L 316.309001 45.891089 
L 319.027273 45.891089 
L 321.745545 45.891089 
" style="fill:none;stroke:#87001d;stroke-linecap:round;stroke-width:3;"/>
   </g>
   <g id="patch_3">
    <path d="M 47.254455 315 
L 47.254455 43.2 
" style="fill:none;stroke:#262626;stroke-linecap:square;stroke-linejoin:miter;stroke-width:1.5;"/>
   </g>
   <g id="patch_4">
    <path d="M 47.254455 315 
L 321.745545 315 
" style="fill:none;stroke:#262626;stroke-linecap:square;stroke-linejoin:miter;stroke-width:1.5;"/>
   </g>
   <g id="legend_1">
    <g id="line2d_19">
     <path d="M 72.545545 191.412813 
L 100.545545 191.412813 
" style="fill:none;stroke:#202020;stroke-linecap:round;stroke-opacity:0.7;stroke-width:3;"/>
    </g>
    <g id="line2d_20"/>
    <g id="text_15">
     <text style="fill:#262626;font-family:Cantarell;font-size:14px;font-style:normal;font-weight:normal;text-anchor:start;" transform="rotate(-0, 111.745545, 196.312813)" x="111.745545" y="196.312813">ROC fold 0 (AUC = 0.95)</text>
    </g>
    <g id="line2d_21">
     <path d="M 72.545545 211.935937 
L 100.545545 211.935937 
" style="fill:none;stroke:#353535;stroke-linecap:round;stroke-opacity:0.7;stroke-width:3;"/>
    </g>
    <g id="line2d_22"/>
    <g id="text_16">
     <text style="fill:#262626;font-family:Cantarell;font-size:14px;font-style:normal;font-weight:normal;text-anchor:start;" transform="rotate(-0, 111.745545, 216.835938)" x="111.745545" y="216.835938">ROC fold 1 (AUC = 0.93)</text>
    </g>
    <g id="line2d_23">
     <path d="M 72.545545 232.459062 
L 100.545545 232.459062 
" style="fill:none;stroke:#505050;stroke-linecap:round;stroke-opacity:0.7;stroke-width:3;"/>
    </g>
    <g id="line2d_24"/>
    <g id="text_17">
     <text style="fill:#262626;font-family:Cantarell;font-size:14px;font-style:normal;font-weight:normal;text-anchor:start;" transform="rotate(-0, 111.745545, 237.359062)" x="111.745545" y="237.359062">ROC fold 2 (AUC = 0.76)</text>
    </g>
    <g id="line2d_25">
     <path d="M 72.545545 252.982187 
L 100.545545 252.982187 
" style="fill:none;stroke:#656565;stroke-linecap:round;stroke-opacity:0.7;stroke-width:3;"/>
    </g>
    <g id="line2d_26"/>
    <g id="text_18">
     <text style="fill:#262626;font-family:Cantarell;font-size:14px;font-style:normal;font-weight:normal;text-anchor:start;" transform="rotate(-0, 111.745545, 257.882187)" x="111.745545" y="257.882187">ROC fold 3 (AUC = 0.97)</text>
    </g>
    <g id="line2d_27">
     <path d="M 72.545545 273.505313 
L 100.545545 273.505313 
" style="fill:none;stroke:#808080;stroke-linecap:round;stroke-opacity:0.7;stroke-width:3;"/>
    </g>
    <g id="line2d_28"/>
    <g id="text_19">
     <text style="fill:#262626;font-family:Cantarell;font-size:14px;font-style:normal;font-weight:normal;text-anchor:start;" transform="rotate(-0, 111.745545, 278.405313)" x="111.745545" y="278.405313">ROC fold 4 (AUC = 0.95)</text>
    </g>
    <g id="line2d_29">
     <path d="M 72.545545 294.028437 
L 100.545545 294.028437 
" style="fill:none;stroke:#87001d;stroke-linecap:round;stroke-width:3;"/>
    </g>
    <g id="line2d_30"/>
    <g id="text_20">
     <!-- Mean ROC (AUC = 0.91 $\pm$ 0.08) -->
     <g style="fill:#262626;" transform="translate(111.745545 298.928437)">
      <text>
       <tspan style="font-family:Cantarell;font-size:14px;font-style:regular;font-weight:regular;" x="0 11.829987 19.039978 25.773972 33.305969 37.12796 45.429947 56.097946 64.931946 68.753937 73.82193 82.151917 91.685913 100.519913 104.341904 113.9039 117.725891 125.761887 129.261887 137.297882 145.333878 160.886337 164.708328 172.744324 176.244324 184.280319 192.316315" y="-0.78125">Mean ROC (AUC = 0.91  0.08)</tspan>
       <tspan style="font-family:DejaVu Sans;font-size:14px;font-style:book;font-weight:book;" x="149.155869" y="-0.78125">±</tspan>
      </text>
     </g>
    </g>
   </g>
  </g>
 </g>
 <defs>
  <clipPath id="p3741171a03">
   <rect height="271.8" width="274.491089" x="47.254455" y="43.2"/>
  </clipPath>
 </defs>
</svg>
