<?xml version="1.0" encoding="utf-8" standalone="no"?>
<!DOCTYPE svg PUBLIC "-//W3C//DTD SVG 1.1//EN"
  "http://www.w3.org/Graphics/SVG/1.1/DTD/svg11.dtd">
<svg xmlns:xlink="http://www.w3.org/1999/xlink" width="360pt" height="360pt" viewBox="0 0 360 360" xmlns="http://www.w3.org/2000/svg" version="1.1">
 <metadata>
  <rdf:RDF xmlns:dc="http://purl.org/dc/elements/1.1/" xmlns:cc="http://creativecommons.org/ns#" xmlns:rdf="http://www.w3.org/1999/02/22-rdf-syntax-ns#">
   <cc:Work>
    <dc:type rdf:resource="http://purl.org/dc/dcmitype/StillImage"/>
    <dc:date>2023-12-05T13:48:31.834077</dc:date>
    <dc:format>image/svg+xml</dc:format>
    <dc:creator>
     <cc:Agent>
      <dc:title>Matplotlib v3.5.3, https://matplotlib.org/</dc:title>
     </cc:Agent>
    </dc:creator>
   </cc:Work>
  </rdf:RDF>
 </metadata>
 <defs>
  <style type="text/css">*{stroke-linejoin: round; stroke-linecap: butt}</style>
 </defs>
 <g id="figure_1">
  <g id="patch_1">
   <path d="M 0 360 
L 360 360 
L 360 0 
L 0 0 
z
" style="fill: #ffffff"/>
  </g>
  <g id="axes_1">
   <g id="patch_2">
    <path d="M 45 319.932353 
L 324 319.932353 
L 324 43.667647 
L 45 43.667647 
z
" style="fill: #ffffff"/>
   </g>
   <g id="matplotlib.axis_1">
    <g id="xtick_1">
     <g id="line2d_1">
      <defs>
       <path id="m6efb524e33" d="M 0 0 
L 0 3.5 
" style="stroke: #262626; stroke-width: 1.5"/>
      </defs>
      <g>
       <use xlink:href="#m6efb524e33" x="50.470588" y="319.932353" style="fill: #262626; stroke: #262626; stroke-width: 1.5"/>
      </g>
     </g>
     <g id="text_1">
      <text style="fill: #262626; font: 14px 'sans-serif'; text-anchor: middle" x="50.470588" y="337.570165" transform="rotate(-0, 50.470588, 337.570165)">0.0</text>
     </g>
    </g>
    <g id="xtick_2">
     <g id="line2d_2">
      <g>
       <use xlink:href="#m6efb524e33" x="105.176471" y="319.932353" style="fill: #262626; stroke: #262626; stroke-width: 1.5"/>
      </g>
     </g>
     <g id="text_2">
      <text style="fill: #262626; font: 14px 'sans-serif'; text-anchor: middle" x="105.176471" y="337.570165" transform="rotate(-0, 105.176471, 337.570165)">0.2</text>
     </g>
    </g>
    <g id="xtick_3">
     <g id="line2d_3">
      <g>
       <use xlink:href="#m6efb524e33" x="159.882353" y="319.932353" style="fill: #262626; stroke: #262626; stroke-width: 1.5"/>
      </g>
     </g>
     <g id="text_3">
      <text style="fill: #262626; font: 14px 'sans-serif'; text-anchor: middle" x="159.882353" y="337.570165" transform="rotate(-0, 159.882353, 337.570165)">0.4</text>
     </g>
    </g>
    <g id="xtick_4">
     <g id="line2d_4">
      <g>
       <use xlink:href="#m6efb524e33" x="214.588235" y="319.932353" style="fill: #262626; stroke: #262626; stroke-width: 1.5"/>
      </g>
     </g>
     <g id="text_4">
      <text style="fill: #262626; font: 14px 'sans-serif'; text-anchor: middle" x="214.588235" y="337.570165" transform="rotate(-0, 214.588235, 337.570165)">0.6</text>
     </g>
    </g>
    <g id="xtick_5">
     <g id="line2d_5">
      <g>
       <use xlink:href="#m6efb524e33" x="269.294118" y="319.932353" style="fill: #262626; stroke: #262626; stroke-width: 1.5"/>
      </g>
     </g>
     <g id="text_5">
      <text style="fill: #262626; font: 14px 'sans-serif'; text-anchor: middle" x="269.294118" y="337.570165" transform="rotate(-0, 269.294118, 337.570165)">0.8</text>
     </g>
    </g>
    <g id="xtick_6">
     <g id="line2d_6">
      <g>
       <use xlink:href="#m6efb524e33" x="324" y="319.932353" style="fill: #262626; stroke: #262626; stroke-width: 1.5"/>
      </g>
     </g>
     <g id="text_6">
      <text style="fill: #262626; font: 14px 'sans-serif'; text-anchor: middle" x="324" y="337.570165" transform="rotate(-0, 324, 337.570165)">1.0</text>
     </g>
    </g>
    <g id="text_7">
     <text style="fill: #262626; font: 14px 'sans-serif'; text-anchor: middle" x="184.5" y="355.11954" transform="rotate(-0, 184.5, 355.11954)">False Positive Rate (Positive label: 1.0)</text>
    </g>
   </g>
   <g id="matplotlib.axis_2">
    <g id="ytick_1">
     <g id="line2d_7">
      <defs>
       <path id="m7f270fed3b" d="M 0 0 
L -3.5 0 
" style="stroke: #262626; stroke-width: 1.5"/>
      </defs>
      <g>
       <use xlink:href="#m7f270fed3b" x="45" y="319.932353" style="fill: #262626; stroke: #262626; stroke-width: 1.5"/>
      </g>
     </g>
     <g id="text_8">
      <text style="fill: #262626; font: 14px 'sans-serif'; text-anchor: end" x="38" y="325.251259" transform="rotate(-0, 38, 325.251259)">0.0</text>
     </g>
    </g>
    <g id="ytick_2">
     <g id="line2d_8">
      <g>
       <use xlink:href="#m7f270fed3b" x="45" y="265.226471" style="fill: #262626; stroke: #262626; stroke-width: 1.5"/>
      </g>
     </g>
     <g id="text_9">
      <text style="fill: #262626; font: 14px 'sans-serif'; text-anchor: end" x="38" y="270.545377" transform="rotate(-0, 38, 270.545377)">0.2</text>
     </g>
    </g>
    <g id="ytick_3">
     <g id="line2d_9">
      <g>
       <use xlink:href="#m7f270fed3b" x="45" y="210.520588" style="fill: #262626; stroke: #262626; stroke-width: 1.5"/>
      </g>
     </g>
     <g id="text_10">
      <text style="fill: #262626; font: 14px 'sans-serif'; text-anchor: end" x="38" y="215.839494" transform="rotate(-0, 38, 215.839494)">0.4</text>
     </g>
    </g>
    <g id="ytick_4">
     <g id="line2d_10">
      <g>
       <use xlink:href="#m7f270fed3b" x="45" y="155.814706" style="fill: #262626; stroke: #262626; stroke-width: 1.5"/>
      </g>
     </g>
     <g id="text_11">
      <text style="fill: #262626; font: 14px 'sans-serif'; text-anchor: end" x="38" y="161.133612" transform="rotate(-0, 38, 161.133612)">0.6</text>
     </g>
    </g>
    <g id="ytick_5">
     <g id="line2d_11">
      <g>
       <use xlink:href="#m7f270fed3b" x="45" y="101.108824" style="fill: #262626; stroke: #262626; stroke-width: 1.5"/>
      </g>
     </g>
     <g id="text_12">
      <text style="fill: #262626; font: 14px 'sans-serif'; text-anchor: end" x="38" y="106.42773" transform="rotate(-0, 38, 106.42773)">0.8</text>
     </g>
    </g>
    <g id="ytick_6">
     <g id="line2d_12">
      <g>
       <use xlink:href="#m7f270fed3b" x="45" y="46.402941" style="fill: #262626; stroke: #262626; stroke-width: 1.5"/>
      </g>
     </g>
     <g id="text_13">
      <text style="fill: #262626; font: 14px 'sans-serif'; text-anchor: end" x="38" y="51.721847" transform="rotate(-0, 38, 51.721847)">1.0</text>
     </g>
    </g>
    <g id="text_14">
     <text style="fill: #262626; font: 14px 'sans-serif'; text-anchor: middle" x="8.824062" y="181.8" transform="rotate(-90, 8.824062, 181.8)">True Positive Rate (Positive label: 1.0)</text>
    </g>
   </g>
   <g id="PolyCollection_1">
    <defs>
     <path id="m266ae04559" d="M 50.470588 -40.067647 
L 50.470588 -40.067647 
L 53.233512 -149.479412 
L 55.996435 -160.420588 
L 58.759358 -160.420588 
L 61.522282 -245.214706 
L 64.285205 -245.214706 
L 67.048128 -245.214706 
L 69.811052 -245.214706 
L 72.573975 -245.214706 
L 75.336898 -245.214706 
L 78.099822 -245.214706 
L 80.862745 -245.214706 
L 83.625668 -269.832353 
L 86.388592 -269.832353 
L 89.151515 -269.832353 
L 91.914439 -269.832353 
L 94.677362 -269.832353 
L 97.440285 -269.832353 
L 100.203209 -269.832353 
L 102.966132 -269.832353 
L 105.729055 -269.832353 
L 108.491979 -269.832353 
L 111.254902 -269.832353 
L 114.017825 -269.832353 
L 116.780749 -269.832353 
L 119.543672 -269.832353 
L 122.306595 -280.773529 
L 125.069519 -280.773529 
L 127.832442 -291.714706 
L 130.595365 -291.714706 
L 133.358289 -291.714706 
L 136.121212 -291.714706 
L 138.884135 -291.714706 
L 141.647059 -291.714706 
L 144.409982 -291.714706 
L 147.172906 -291.714706 
L 149.935829 -291.714706 
L 152.698752 -302.655882 
L 155.461676 -313.597059 
L 158.224599 -313.597059 
L 160.987522 -313.597059 
L 163.750446 -313.597059 
L 166.513369 -313.597059 
L 169.276292 -313.597059 
L 172.039216 -313.597059 
L 174.802139 -313.597059 
L 177.565062 -313.597059 
L 180.327986 -313.597059 
L 183.090909 -313.597059 
L 185.853832 -313.597059 
L 188.616756 -313.597059 
L 191.379679 -313.597059 
L 194.142602 -313.597059 
L 196.905526 -313.597059 
L 199.668449 -313.597059 
L 202.431373 -313.597059 
L 205.194296 -313.597059 
L 207.957219 -313.597059 
L 210.720143 -313.597059 
L 213.483066 -313.597059 
L 216.245989 -313.597059 
L 219.008913 -313.597059 
L 221.771836 -313.597059 
L 224.534759 -313.597059 
L 227.297683 -313.597059 
L 230.060606 -313.597059 
L 232.823529 -313.597059 
L 235.586453 -313.597059 
L 238.349376 -313.597059 
L 241.112299 -313.597059 
L 243.875223 -313.597059 
L 246.638146 -313.597059 
L 249.40107 -313.597059 
L 252.163993 -313.597059 
L 254.926916 -313.597059 
L 257.68984 -313.597059 
L 260.452763 -313.597059 
L 263.215686 -313.597059 
L 265.97861 -313.597059 
L 268.741533 -313.597059 
L 271.504456 -313.597059 
L 274.26738 -313.597059 
L 277.030303 -313.597059 
L 279.793226 -313.597059 
L 282.55615 -313.597059 
L 285.319073 -313.597059 
L 288.081996 -313.597059 
L 290.84492 -313.597059 
L 293.607843 -313.597059 
L 296.370766 -313.597059 
L 299.13369 -313.597059 
L 301.896613 -313.597059 
L 304.659537 -313.597059 
L 307.42246 -313.597059 
L 310.185383 -313.597059 
L 312.948307 -313.597059 
L 315.71123 -313.597059 
L 318.474153 -313.597059 
L 321.237077 -313.597059 
L 324 -313.597059 
L 324 -40.067647 
L 324 -40.067647 
L 321.237077 -40.067647 
L 318.474153 -40.067647 
L 315.71123 -40.067647 
L 312.948307 -40.067647 
L 310.185383 -40.067647 
L 307.42246 -40.067647 
L 304.659537 -40.067647 
L 301.896613 -40.067647 
L 299.13369 -40.067647 
L 296.370766 -40.067647 
L 293.607843 -40.067647 
L 290.84492 -40.067647 
L 288.081996 -40.067647 
L 285.319073 -40.067647 
L 282.55615 -40.067647 
L 279.793226 -40.067647 
L 277.030303 -40.067647 
L 274.26738 -40.067647 
L 271.504456 -40.067647 
L 268.741533 -40.067647 
L 265.97861 -40.067647 
L 263.215686 -40.067647 
L 260.452763 -40.067647 
L 257.68984 -40.067647 
L 254.926916 -40.067647 
L 252.163993 -40.067647 
L 249.40107 -40.067647 
L 246.638146 -40.067647 
L 243.875223 -40.067647 
L 241.112299 -40.067647 
L 238.349376 -40.067647 
L 235.586453 -40.067647 
L 232.823529 -40.067647 
L 230.060606 -40.067647 
L 227.297683 -40.067647 
L 224.534759 -40.067647 
L 221.771836 -40.067647 
L 219.008913 -40.067647 
L 216.245989 -40.067647 
L 213.483066 -40.067647 
L 210.720143 -40.067647 
L 207.957219 -40.067647 
L 205.194296 -40.067647 
L 202.431373 -40.067647 
L 199.668449 -40.067647 
L 196.905526 -40.067647 
L 194.142602 -40.067647 
L 191.379679 -40.067647 
L 188.616756 -40.067647 
L 185.853832 -40.067647 
L 183.090909 -40.067647 
L 180.327986 -40.067647 
L 177.565062 -40.067647 
L 174.802139 -40.067647 
L 172.039216 -40.067647 
L 169.276292 -40.067647 
L 166.513369 -40.067647 
L 163.750446 -40.067647 
L 160.987522 -40.067647 
L 158.224599 -40.067647 
L 155.461676 -40.067647 
L 152.698752 -40.067647 
L 149.935829 -40.067647 
L 147.172906 -40.067647 
L 144.409982 -40.067647 
L 141.647059 -40.067647 
L 138.884135 -40.067647 
L 136.121212 -40.067647 
L 133.358289 -40.067647 
L 130.595365 -40.067647 
L 127.832442 -40.067647 
L 125.069519 -40.067647 
L 122.306595 -40.067647 
L 119.543672 -40.067647 
L 116.780749 -40.067647 
L 114.017825 -40.067647 
L 111.254902 -40.067647 
L 108.491979 -40.067647 
L 105.729055 -40.067647 
L 102.966132 -40.067647 
L 100.203209 -40.067647 
L 97.440285 -40.067647 
L 94.677362 -40.067647 
L 91.914439 -40.067647 
L 89.151515 -40.067647 
L 86.388592 -40.067647 
L 83.625668 -40.067647 
L 80.862745 -40.067647 
L 78.099822 -40.067647 
L 75.336898 -40.067647 
L 72.573975 -40.067647 
L 69.811052 -40.067647 
L 67.048128 -40.067647 
L 64.285205 -40.067647 
L 61.522282 -40.067647 
L 58.759358 -40.067647 
L 55.996435 -40.067647 
L 53.233512 -40.067647 
L 50.470588 -40.067647 
z
" style="stroke: #87001d; stroke-opacity: 0.2"/>
    </defs>
    <g clip-path="url(#pbf7651523a)">
     <use xlink:href="#m266ae04559" x="0" y="360" style="fill: #87001d; fill-opacity: 0.2; stroke: #87001d; stroke-opacity: 0.2"/>
    </g>
   </g>
   <g id="line2d_13">
    <path d="M 50.470588 319.932353 
L 50.470588 265.226471 
L 50.470588 155.814706 
L 121.058824 155.814706 
L 121.058824 101.108824 
L 138.705882 101.108824 
L 147.529412 101.108824 
L 151.941176 101.108824 
L 151.941176 46.402941 
L 156.352941 46.402941 
L 174 46.402941 
L 196.058824 46.402941 
L 209.294118 46.402941 
L 231.352941 46.402941 
L 262.235294 46.402941 
L 271.058824 46.402941 
L 293.117647 46.402941 
L 306.352941 46.402941 
L 324 46.402941 
" clip-path="url(#pbf7651523a)" style="fill: none; stroke: #202020; stroke-opacity: 0.7; stroke-width: 3; stroke-linecap: round"/>
   </g>
   <g id="line2d_14">
    <path d="M 50.470588 319.932353 
L 50.470588 265.226471 
L 50.470588 155.814706 
L 54.882353 155.814706 
L 54.882353 101.108824 
L 59.294118 101.108824 
L 59.294118 46.402941 
L 160.764706 46.402941 
L 196.058824 46.402941 
L 204.882353 46.402941 
L 226.941176 46.402941 
L 240.176471 46.402941 
L 249 46.402941 
L 275.470588 46.402941 
L 315.176471 46.402941 
L 324 46.402941 
" clip-path="url(#pbf7651523a)" style="fill: none; stroke: #353535; stroke-opacity: 0.7; stroke-width: 3; stroke-linecap: round"/>
   </g>
   <g id="line2d_15">
    <path d="M 50.470588 319.932353 
L 54.882353 319.932353 
L 59.294118 319.932353 
L 59.294118 114.785294 
L 81.352941 114.785294 
L 81.352941 46.402941 
L 147.529412 46.402941 
L 160.764706 46.402941 
L 231.352941 46.402941 
L 244.588235 46.402941 
L 249 46.402941 
L 257.823529 46.402941 
L 266.647059 46.402941 
L 279.882353 46.402941 
L 288.705882 46.402941 
L 306.352941 46.402941 
L 324 46.402941 
" clip-path="url(#pbf7651523a)" style="fill: none; stroke: #505050; stroke-opacity: 0.7; stroke-width: 3; stroke-linecap: round"/>
   </g>
   <g id="line2d_16">
    <path d="M 50.470588 319.932353 
L 50.470588 265.226471 
L 50.470588 155.814706 
L 59.438766 155.814706 
L 59.438766 101.108824 
L 126.700096 101.108824 
L 126.700096 46.402941 
L 167.056895 46.402941 
L 176.025072 46.402941 
L 180.509161 46.402941 
L 189.477338 46.402941 
L 198.445516 46.402941 
L 211.897782 46.402941 
L 220.865959 46.402941 
L 301.579556 46.402941 
L 306.063645 46.402941 
L 324 46.402941 
" clip-path="url(#pbf7651523a)" style="fill: none; stroke: #656565; stroke-opacity: 0.7; stroke-width: 3; stroke-linecap: round"/>
   </g>
   <g id="line2d_17">
    <path d="M 50.470588 319.932353 
L 50.470588 265.226471 
L 59.438766 265.226471 
L 59.438766 155.814706 
L 81.859209 155.814706 
L 81.859209 101.108824 
L 153.604629 101.108824 
L 153.604629 46.402941 
L 162.572806 46.402941 
L 176.025072 46.402941 
L 184.99325 46.402941 
L 207.413693 46.402941 
L 220.865959 46.402941 
L 229.834137 46.402941 
L 256.738669 46.402941 
L 270.190935 46.402941 
L 301.579556 46.402941 
L 310.547734 46.402941 
L 324 46.402941 
" clip-path="url(#pbf7651523a)" style="fill: none; stroke: #808080; stroke-opacity: 0.7; stroke-width: 3; stroke-linecap: round"/>
   </g>
   <g id="line2d_18">
    <path d="M 50.470588 319.932353 
L 53.233512 210.520588 
L 55.996435 199.579412 
L 58.759358 199.579412 
L 61.522282 114.785294 
L 64.285205 114.785294 
L 67.048128 114.785294 
L 69.811052 114.785294 
L 72.573975 114.785294 
L 75.336898 114.785294 
L 78.099822 114.785294 
L 80.862745 114.785294 
L 83.625668 90.167647 
L 86.388592 90.167647 
L 89.151515 90.167647 
L 91.914439 90.167647 
L 94.677362 90.167647 
L 97.440285 90.167647 
L 100.203209 90.167647 
L 102.966132 90.167647 
L 105.729055 90.167647 
L 108.491979 90.167647 
L 111.254902 90.167647 
L 114.017825 90.167647 
L 116.780749 90.167647 
L 119.543672 90.167647 
L 122.306595 79.226471 
L 125.069519 79.226471 
L 127.832442 68.285294 
L 130.595365 68.285294 
L 133.358289 68.285294 
L 136.121212 68.285294 
L 138.884135 68.285294 
L 141.647059 68.285294 
L 144.409982 68.285294 
L 147.172906 68.285294 
L 149.935829 68.285294 
L 152.698752 57.344118 
L 155.461676 46.402941 
L 158.224599 46.402941 
L 160.987522 46.402941 
L 163.750446 46.402941 
L 166.513369 46.402941 
L 169.276292 46.402941 
L 172.039216 46.402941 
L 174.802139 46.402941 
L 177.565062 46.402941 
L 180.327986 46.402941 
L 183.090909 46.402941 
L 185.853832 46.402941 
L 188.616756 46.402941 
L 191.379679 46.402941 
L 194.142602 46.402941 
L 196.905526 46.402941 
L 199.668449 46.402941 
L 202.431373 46.402941 
L 205.194296 46.402941 
L 207.957219 46.402941 
L 210.720143 46.402941 
L 213.483066 46.402941 
L 216.245989 46.402941 
L 219.008913 46.402941 
L 221.771836 46.402941 
L 224.534759 46.402941 
L 227.297683 46.402941 
L 230.060606 46.402941 
L 232.823529 46.402941 
L 235.586453 46.402941 
L 238.349376 46.402941 
L 241.112299 46.402941 
L 243.875223 46.402941 
L 246.638146 46.402941 
L 249.40107 46.402941 
L 252.163993 46.402941 
L 254.926916 46.402941 
L 257.68984 46.402941 
L 260.452763 46.402941 
L 263.215686 46.402941 
L 265.97861 46.402941 
L 268.741533 46.402941 
L 271.504456 46.402941 
L 274.26738 46.402941 
L 277.030303 46.402941 
L 279.793226 46.402941 
L 282.55615 46.402941 
L 285.319073 46.402941 
L 288.081996 46.402941 
L 290.84492 46.402941 
L 293.607843 46.402941 
L 296.370766 46.402941 
L 299.13369 46.402941 
L 301.896613 46.402941 
L 304.659537 46.402941 
L 307.42246 46.402941 
L 310.185383 46.402941 
L 312.948307 46.402941 
L 315.71123 46.402941 
L 318.474153 46.402941 
L 321.237077 46.402941 
L 324 46.402941 
" clip-path="url(#pbf7651523a)" style="fill: none; stroke: #87001d; stroke-width: 3; stroke-linecap: round"/>
   </g>
   <g id="patch_3">
    <path d="M 45 319.932353 
L 45 43.667647 
" style="fill: none; stroke: #262626; stroke-width: 1.5; stroke-linejoin: miter; stroke-linecap: square"/>
   </g>
   <g id="patch_4">
    <path d="M 45 319.932353 
L 324 319.932353 
" style="fill: none; stroke: #262626; stroke-width: 1.5; stroke-linejoin: miter; stroke-linecap: square"/>
   </g>
   <g id="legend_1">
    <g id="line2d_19">
     <path d="M 50.72 196.773915 
L 64.72 196.773915 
L 78.72 196.773915 
" style="fill: none; stroke: #202020; stroke-opacity: 0.7; stroke-width: 3; stroke-linecap: round"/>
    </g>
    <g id="text_15">
     <text style="fill: #262626; font: 14px 'sans-serif'; text-anchor: start" x="89.92" y="201.673915" transform="rotate(-0, 89.92, 201.673915)">ROC fold 0 (AUC = 0.87)</text>
    </g>
    <g id="line2d_20">
     <path d="M 50.72 217.32329 
L 64.72 217.32329 
L 78.72 217.32329 
" style="fill: none; stroke: #353535; stroke-opacity: 0.7; stroke-width: 3; stroke-linecap: round"/>
    </g>
    <g id="text_16">
     <text style="fill: #262626; font: 14px 'sans-serif'; text-anchor: start" x="89.92" y="222.22329" transform="rotate(-0, 89.92, 222.22329)">ROC fold 1 (AUC = 0.99)</text>
    </g>
    <g id="line2d_21">
     <path d="M 50.72 237.872665 
L 64.72 237.872665 
L 78.72 237.872665 
" style="fill: none; stroke: #505050; stroke-opacity: 0.7; stroke-width: 3; stroke-linecap: round"/>
    </g>
    <g id="text_17">
     <text style="fill: #262626; font: 14px 'sans-serif'; text-anchor: start" x="89.92" y="242.772665" transform="rotate(-0, 89.92, 242.772665)">ROC fold 2 (AUC = 0.95)</text>
    </g>
    <g id="line2d_22">
     <path d="M 50.72 258.42204 
L 64.72 258.42204 
L 78.72 258.42204 
" style="fill: none; stroke: #656565; stroke-opacity: 0.7; stroke-width: 3; stroke-linecap: round"/>
    </g>
    <g id="text_18">
     <text style="fill: #262626; font: 14px 'sans-serif'; text-anchor: start" x="89.92" y="263.32204" transform="rotate(-0, 89.92, 263.32204)">ROC fold 3 (AUC = 0.94)</text>
    </g>
    <g id="line2d_23">
     <path d="M 50.72 278.971415 
L 64.72 278.971415 
L 78.72 278.971415 
" style="fill: none; stroke: #808080; stroke-opacity: 0.7; stroke-width: 3; stroke-linecap: round"/>
    </g>
    <g id="text_19">
     <text style="fill: #262626; font: 14px 'sans-serif'; text-anchor: start" x="89.92" y="283.871415" transform="rotate(-0, 89.92, 283.871415)">ROC fold 4 (AUC = 0.89)</text>
    </g>
    <g id="line2d_24">
     <path d="M 50.72 299.52079 
L 64.72 299.52079 
L 78.72 299.52079 
" style="fill: none; stroke: #87001d; stroke-width: 3; stroke-linecap: round"/>
    </g>
    <g id="text_20">
     <!-- Mean ROC (AUC = 0.92 $\pm$ 0.04) -->
     <g style="fill: #262626" transform="translate(89.92 304.42079)">
      <text>
       <tspan style="font: 14px 'DejaVu Sans'" x="0 12.079102 20.692383 29.271484 38.144531 42.594727 52.322266 63.341797 73.117188 77.567383 83.029297 92.606445 102.853516 112.628906 117.079102 128.80957 133.259766 142.166992 146.617188 155.274414 164.181641 168.631836 180.362305 184.8125 193.719727 198.169922 207.077148 215.984375" y="-0.375">Mean ROC (AUC = 0.92 ± 0.04)</tspan>
      </text>
     </g>
    </g>
   </g>
  </g>
 </g>
 <defs>
  <clipPath id="pbf7651523a">
   <rect x="45" y="43.667647" width="279" height="276.264706"/>
  </clipPath>
 </defs>
</svg>
