<?xml version="1.0" encoding="utf-8" standalone="no"?>
<!DOCTYPE svg PUBLIC "-//W3C//DTD SVG 1.1//EN"
  "http://www.w3.org/Graphics/SVG/1.1/DTD/svg11.dtd">
<svg xmlns:xlink="http://www.w3.org/1999/xlink" width="360pt" height="360pt" viewBox="0 0 360 360" xmlns="http://www.w3.org/2000/svg" version="1.1">
 <metadata>
  <rdf:RDF xmlns:dc="http://purl.org/dc/elements/1.1/" xmlns:cc="http://creativecommons.org/ns#" xmlns:rdf="http://www.w3.org/1999/02/22-rdf-syntax-ns#">
   <cc:Work>
    <dc:type rdf:resource="http://purl.org/dc/dcmitype/StillImage"/>
    <dc:date>2023-12-05T13:48:33.538455</dc:date>
    <dc:format>image/svg+xml</dc:format>
    <dc:creator>
     <cc:Agent>
      <dc:title>Matplotlib v3.5.3, https://matplotlib.org/</dc:title>
     </cc:Agent>
    </dc:creator>
   </cc:Work>
  </rdf:RDF>
 </metadata>
 <defs>
  <style type="text/css">*{stroke-linejoin: round; stroke-linecap: butt}</style>
 </defs>
 <g id="figure_1">
  <g id="patch_1">
   <path d="M 0 360 
L 360 360 
L 360 0 
L 0 0 
z
" style="fill: #ffffff"/>
  </g>
  <g id="axes_1">
   <g id="patch_2">
    <path d="M 45 319.932353 
L 324 319.932353 
L 324 43.667647 
L 45 43.667647 
z
" style="fill: #ffffff"/>
   </g>
   <g id="matplotlib.axis_1">
    <g id="xtick_1">
     <g id="line2d_1">
      <defs>
       <path id="md76b823e13" d="M 0 0 
L 0 3.5 
" style="stroke: #262626; stroke-width: 1.5"/>
      </defs>
      <g>
       <use xlink:href="#md76b823e13" x="50.470588" y="319.932353" style="fill: #262626; stroke: #262626; stroke-width: 1.5"/>
      </g>
     </g>
     <g id="text_1">
      <text style="fill: #262626; font: 14px 'sans-serif'; text-anchor: middle" x="50.470588" y="337.570165" transform="rotate(-0, 50.470588, 337.570165)">0.0</text>
     </g>
    </g>
    <g id="xtick_2">
     <g id="line2d_2">
      <g>
       <use xlink:href="#md76b823e13" x="105.176471" y="319.932353" style="fill: #262626; stroke: #262626; stroke-width: 1.5"/>
      </g>
     </g>
     <g id="text_2">
      <text style="fill: #262626; font: 14px 'sans-serif'; text-anchor: middle" x="105.176471" y="337.570165" transform="rotate(-0, 105.176471, 337.570165)">0.2</text>
     </g>
    </g>
    <g id="xtick_3">
     <g id="line2d_3">
      <g>
       <use xlink:href="#md76b823e13" x="159.882353" y="319.932353" style="fill: #262626; stroke: #262626; stroke-width: 1.5"/>
      </g>
     </g>
     <g id="text_3">
      <text style="fill: #262626; font: 14px 'sans-serif'; text-anchor: middle" x="159.882353" y="337.570165" transform="rotate(-0, 159.882353, 337.570165)">0.4</text>
     </g>
    </g>
    <g id="xtick_4">
     <g id="line2d_4">
      <g>
       <use xlink:href="#md76b823e13" x="214.588235" y="319.932353" style="fill: #262626; stroke: #262626; stroke-width: 1.5"/>
      </g>
     </g>
     <g id="text_4">
      <text style="fill: #262626; font: 14px 'sans-serif'; text-anchor: middle" x="214.588235" y="337.570165" transform="rotate(-0, 214.588235, 337.570165)">0.6</text>
     </g>
    </g>
    <g id="xtick_5">
     <g id="line2d_5">
      <g>
       <use xlink:href="#md76b823e13" x="269.294118" y="319.932353" style="fill: #262626; stroke: #262626; stroke-width: 1.5"/>
      </g>
     </g>
     <g id="text_5">
      <text style="fill: #262626; font: 14px 'sans-serif'; text-anchor: middle" x="269.294118" y="337.570165" transform="rotate(-0, 269.294118, 337.570165)">0.8</text>
     </g>
    </g>
    <g id="xtick_6">
     <g id="line2d_6">
      <g>
       <use xlink:href="#md76b823e13" x="324" y="319.932353" style="fill: #262626; stroke: #262626; stroke-width: 1.5"/>
      </g>
     </g>
     <g id="text_6">
      <text style="fill: #262626; font: 14px 'sans-serif'; text-anchor: middle" x="324" y="337.570165" transform="rotate(-0, 324, 337.570165)">1.0</text>
     </g>
    </g>
    <g id="text_7">
     <text style="fill: #262626; font: 14px 'sans-serif'; text-anchor: middle" x="184.5" y="355.11954" transform="rotate(-0, 184.5, 355.11954)">False Positive Rate (Positive label: 1.0)</text>
    </g>
   </g>
   <g id="matplotlib.axis_2">
    <g id="ytick_1">
     <g id="line2d_7">
      <defs>
       <path id="mf515c643f8" d="M 0 0 
L -3.5 0 
" style="stroke: #262626; stroke-width: 1.5"/>
      </defs>
      <g>
       <use xlink:href="#mf515c643f8" x="45" y="319.932353" style="fill: #262626; stroke: #262626; stroke-width: 1.5"/>
      </g>
     </g>
     <g id="text_8">
      <text style="fill: #262626; font: 14px 'sans-serif'; text-anchor: end" x="38" y="325.251259" transform="rotate(-0, 38, 325.251259)">0.0</text>
     </g>
    </g>
    <g id="ytick_2">
     <g id="line2d_8">
      <g>
       <use xlink:href="#mf515c643f8" x="45" y="265.226471" style="fill: #262626; stroke: #262626; stroke-width: 1.5"/>
      </g>
     </g>
     <g id="text_9">
      <text style="fill: #262626; font: 14px 'sans-serif'; text-anchor: end" x="38" y="270.545377" transform="rotate(-0, 38, 270.545377)">0.2</text>
     </g>
    </g>
    <g id="ytick_3">
     <g id="line2d_9">
      <g>
       <use xlink:href="#mf515c643f8" x="45" y="210.520588" style="fill: #262626; stroke: #262626; stroke-width: 1.5"/>
      </g>
     </g>
     <g id="text_10">
      <text style="fill: #262626; font: 14px 'sans-serif'; text-anchor: end" x="38" y="215.839494" transform="rotate(-0, 38, 215.839494)">0.4</text>
     </g>
    </g>
    <g id="ytick_4">
     <g id="line2d_10">
      <g>
       <use xlink:href="#mf515c643f8" x="45" y="155.814706" style="fill: #262626; stroke: #262626; stroke-width: 1.5"/>
      </g>
     </g>
     <g id="text_11">
      <text style="fill: #262626; font: 14px 'sans-serif'; text-anchor: end" x="38" y="161.133612" transform="rotate(-0, 38, 161.133612)">0.6</text>
     </g>
    </g>
    <g id="ytick_5">
     <g id="line2d_11">
      <g>
       <use xlink:href="#mf515c643f8" x="45" y="101.108824" style="fill: #262626; stroke: #262626; stroke-width: 1.5"/>
      </g>
     </g>
     <g id="text_12">
      <text style="fill: #262626; font: 14px 'sans-serif'; text-anchor: end" x="38" y="106.42773" transform="rotate(-0, 38, 106.42773)">0.8</text>
     </g>
    </g>
    <g id="ytick_6">
     <g id="line2d_12">
      <g>
       <use xlink:href="#mf515c643f8" x="45" y="46.402941" style="fill: #262626; stroke: #262626; stroke-width: 1.5"/>
      </g>
     </g>
     <g id="text_13">
      <text style="fill: #262626; font: 14px 'sans-serif'; text-anchor: end" x="38" y="51.721847" transform="rotate(-0, 38, 51.721847)">1.0</text>
     </g>
    </g>
    <g id="text_14">
     <text style="fill: #262626; font: 14px 'sans-serif'; text-anchor: middle" x="8.824062" y="181.8" transform="rotate(-90, 8.824062, 181.8)">True Positive Rate (Positive label: 1.0)</text>
    </g>
   </g>
   <g id="PolyCollection_1">
    <defs>
     <path id="m99f4b56ed9" d="M 50.470588 -40.067647 
L 50.470588 -40.067647 
L 53.233512 -55.697899 
L 55.996435 -55.697899 
L 58.759358 -55.697899 
L 61.522282 -69.37437 
L 64.285205 -69.37437 
L 67.048128 -69.37437 
L 69.811052 -98.681092 
L 72.573975 -98.681092 
L 75.336898 -98.681092 
L 78.099822 -114.311345 
L 80.862745 -114.311345 
L 83.625668 -114.311345 
L 86.388592 -160.22521 
L 89.151515 -160.22521 
L 91.914439 -160.22521 
L 94.677362 -168.040336 
L 97.440285 -168.040336 
L 100.203209 -168.040336 
L 102.966132 -183.670588 
L 105.729055 -183.670588 
L 108.491979 -183.670588 
L 111.254902 -191.485714 
L 114.017825 -191.485714 
L 116.780749 -191.485714 
L 119.543672 -191.485714 
L 122.306595 -191.485714 
L 125.069519 -191.485714 
L 127.832442 -214.931092 
L 130.595365 -214.931092 
L 133.358289 -214.931092 
L 136.121212 -214.931092 
L 138.884135 -214.931092 
L 141.647059 -214.931092 
L 144.409982 -214.931092 
L 147.172906 -214.931092 
L 149.935829 -214.931092 
L 152.698752 -214.931092 
L 155.461676 -253.029832 
L 158.224599 -253.029832 
L 160.987522 -253.029832 
L 163.750446 -253.029832 
L 166.513369 -253.029832 
L 169.276292 -253.029832 
L 172.039216 -253.029832 
L 174.802139 -253.029832 
L 177.565062 -253.029832 
L 180.327986 -253.029832 
L 183.090909 -253.029832 
L 185.853832 -253.029832 
L 188.616756 -267.683193 
L 191.379679 -267.683193 
L 194.142602 -267.683193 
L 196.905526 -267.683193 
L 199.668449 -267.683193 
L 202.431373 -267.683193 
L 205.194296 -267.683193 
L 207.957219 -267.683193 
L 210.720143 -267.683193 
L 213.483066 -290.151681 
L 216.245989 -290.151681 
L 219.008913 -290.151681 
L 221.771836 -290.151681 
L 224.534759 -290.151681 
L 227.297683 -290.151681 
L 230.060606 -297.966807 
L 232.823529 -297.966807 
L 235.586453 -297.966807 
L 238.349376 -297.966807 
L 241.112299 -297.966807 
L 243.875223 -297.966807 
L 246.638146 -297.966807 
L 249.40107 -297.966807 
L 252.163993 -297.966807 
L 254.926916 -297.966807 
L 257.68984 -297.966807 
L 260.452763 -297.966807 
L 263.215686 -297.966807 
L 265.97861 -297.966807 
L 268.741533 -297.966807 
L 271.504456 -297.966807 
L 274.26738 -297.966807 
L 277.030303 -297.966807 
L 279.793226 -297.966807 
L 282.55615 -305.781933 
L 285.319073 -305.781933 
L 288.081996 -305.781933 
L 290.84492 -305.781933 
L 293.607843 -305.781933 
L 296.370766 -305.781933 
L 299.13369 -313.597059 
L 301.896613 -313.597059 
L 304.659537 -313.597059 
L 307.42246 -313.597059 
L 310.185383 -313.597059 
L 312.948307 -313.597059 
L 315.71123 -313.597059 
L 318.474153 -313.597059 
L 321.237077 -313.597059 
L 324 -313.597059 
L 324 -40.067647 
L 324 -40.067647 
L 321.237077 -40.067647 
L 318.474153 -40.067647 
L 315.71123 -40.067647 
L 312.948307 -40.067647 
L 310.185383 -40.067647 
L 307.42246 -40.067647 
L 304.659537 -40.067647 
L 301.896613 -40.067647 
L 299.13369 -40.067647 
L 296.370766 -40.067647 
L 293.607843 -40.067647 
L 290.84492 -40.067647 
L 288.081996 -40.067647 
L 285.319073 -40.067647 
L 282.55615 -40.067647 
L 279.793226 -40.067647 
L 277.030303 -40.067647 
L 274.26738 -40.067647 
L 271.504456 -40.067647 
L 268.741533 -40.067647 
L 265.97861 -40.067647 
L 263.215686 -40.067647 
L 260.452763 -40.067647 
L 257.68984 -40.067647 
L 254.926916 -40.067647 
L 252.163993 -40.067647 
L 249.40107 -40.067647 
L 246.638146 -40.067647 
L 243.875223 -40.067647 
L 241.112299 -40.067647 
L 238.349376 -40.067647 
L 235.586453 -40.067647 
L 232.823529 -40.067647 
L 230.060606 -40.067647 
L 227.297683 -40.067647 
L 224.534759 -40.067647 
L 221.771836 -40.067647 
L 219.008913 -40.067647 
L 216.245989 -40.067647 
L 213.483066 -40.067647 
L 210.720143 -40.067647 
L 207.957219 -40.067647 
L 205.194296 -40.067647 
L 202.431373 -40.067647 
L 199.668449 -40.067647 
L 196.905526 -40.067647 
L 194.142602 -40.067647 
L 191.379679 -40.067647 
L 188.616756 -40.067647 
L 185.853832 -40.067647 
L 183.090909 -40.067647 
L 180.327986 -40.067647 
L 177.565062 -40.067647 
L 174.802139 -40.067647 
L 172.039216 -40.067647 
L 169.276292 -40.067647 
L 166.513369 -40.067647 
L 163.750446 -40.067647 
L 160.987522 -40.067647 
L 158.224599 -40.067647 
L 155.461676 -40.067647 
L 152.698752 -40.067647 
L 149.935829 -40.067647 
L 147.172906 -40.067647 
L 144.409982 -40.067647 
L 141.647059 -40.067647 
L 138.884135 -40.067647 
L 136.121212 -40.067647 
L 133.358289 -40.067647 
L 130.595365 -40.067647 
L 127.832442 -40.067647 
L 125.069519 -40.067647 
L 122.306595 -40.067647 
L 119.543672 -40.067647 
L 116.780749 -40.067647 
L 114.017825 -40.067647 
L 111.254902 -40.067647 
L 108.491979 -40.067647 
L 105.729055 -40.067647 
L 102.966132 -40.067647 
L 100.203209 -40.067647 
L 97.440285 -40.067647 
L 94.677362 -40.067647 
L 91.914439 -40.067647 
L 89.151515 -40.067647 
L 86.388592 -40.067647 
L 83.625668 -40.067647 
L 80.862745 -40.067647 
L 78.099822 -40.067647 
L 75.336898 -40.067647 
L 72.573975 -40.067647 
L 69.811052 -40.067647 
L 67.048128 -40.067647 
L 64.285205 -40.067647 
L 61.522282 -40.067647 
L 58.759358 -40.067647 
L 55.996435 -40.067647 
L 53.233512 -40.067647 
L 50.470588 -40.067647 
z
" style="stroke: #87001d; stroke-opacity: 0.2"/>
    </defs>
    <g clip-path="url(#p34bd8753bb)">
     <use xlink:href="#m99f4b56ed9" x="0" y="360" style="fill: #87001d; fill-opacity: 0.2; stroke: #87001d; stroke-opacity: 0.2"/>
    </g>
   </g>
   <g id="line2d_13">
    <path d="M 50.470588 319.932353 
L 59.018382 319.932353 
L 59.018382 251.55 
L 67.566176 251.55 
L 67.566176 183.167647 
L 84.661765 183.167647 
L 84.661765 148.976471 
L 153.044118 148.976471 
L 153.044118 114.785294 
L 187.235294 114.785294 
L 187.235294 80.594118 
L 204.330882 80.594118 
L 212.878676 80.594118 
L 212.878676 46.402941 
L 324 46.402941 
" clip-path="url(#p34bd8753bb)" style="fill: none; stroke: #202020; stroke-opacity: 0.7; stroke-width: 3; stroke-linecap: round"/>
   </g>
   <g id="line2d_14">
    <path d="M 50.470588 319.932353 
L 50.470588 280.856723 
L 84.661765 280.856723 
L 84.661765 241.781092 
L 110.305147 241.781092 
L 110.305147 202.705462 
L 127.400735 202.705462 
L 127.400735 163.629832 
L 212.878676 163.629832 
L 212.878676 85.478571 
L 229.974265 85.478571 
L 229.974265 46.402941 
L 324 46.402941 
" clip-path="url(#p34bd8753bb)" style="fill: none; stroke: #353535; stroke-opacity: 0.7; stroke-width: 3; stroke-linecap: round"/>
   </g>
   <g id="line2d_15">
    <path d="M 50.470588 319.932353 
L 50.470588 280.856723 
L 67.566176 280.856723 
L 67.566176 241.781092 
L 84.661765 241.781092 
L 84.661765 163.629832 
L 101.757353 163.629832 
L 101.757353 124.554202 
L 127.400735 124.554202 
L 127.400735 85.478571 
L 229.974265 85.478571 
L 247.069853 85.478571 
L 298.356618 85.478571 
L 298.356618 46.402941 
L 324 46.402941 
" clip-path="url(#p34bd8753bb)" style="fill: none; stroke: #505050; stroke-opacity: 0.7; stroke-width: 3; stroke-linecap: round"/>
   </g>
   <g id="line2d_16">
    <path d="M 50.470588 319.932353 
L 59.018382 319.932353 
L 76.113971 319.932353 
L 76.113971 280.856723 
L 84.661765 280.856723 
L 84.661765 241.781092 
L 153.044118 241.781092 
L 153.044118 85.478571 
L 187.235294 85.478571 
L 187.235294 46.402941 
L 324 46.402941 
" clip-path="url(#p34bd8753bb)" style="fill: none; stroke: #656565; stroke-opacity: 0.7; stroke-width: 3; stroke-linecap: round"/>
   </g>
   <g id="line2d_17">
    <path d="M 50.470588 319.932353 
L 59.018382 319.932353 
L 67.566176 319.932353 
L 67.566176 280.856723 
L 76.113971 280.856723 
L 76.113971 241.781092 
L 84.661765 241.781092 
L 84.661765 202.705462 
L 93.209559 202.705462 
L 93.209559 163.629832 
L 101.757353 163.629832 
L 101.757353 124.554202 
L 127.400735 124.554202 
L 127.400735 85.478571 
L 281.261029 85.478571 
L 281.261029 46.402941 
L 324 46.402941 
" clip-path="url(#p34bd8753bb)" style="fill: none; stroke: #808080; stroke-opacity: 0.7; stroke-width: 3; stroke-linecap: round"/>
   </g>
   <g id="line2d_18">
    <path d="M 50.470588 319.932353 
L 53.233512 304.302101 
L 55.996435 304.302101 
L 58.759358 304.302101 
L 61.522282 290.62563 
L 64.285205 290.62563 
L 67.048128 290.62563 
L 69.811052 261.318908 
L 72.573975 261.318908 
L 75.336898 261.318908 
L 78.099822 245.688655 
L 80.862745 245.688655 
L 83.625668 245.688655 
L 86.388592 199.77479 
L 89.151515 199.77479 
L 91.914439 199.77479 
L 94.677362 191.959664 
L 97.440285 191.959664 
L 100.203209 191.959664 
L 102.966132 176.329412 
L 105.729055 176.329412 
L 108.491979 176.329412 
L 111.254902 168.514286 
L 114.017825 168.514286 
L 116.780749 168.514286 
L 119.543672 168.514286 
L 122.306595 168.514286 
L 125.069519 168.514286 
L 127.832442 145.068908 
L 130.595365 145.068908 
L 133.358289 145.068908 
L 136.121212 145.068908 
L 138.884135 145.068908 
L 141.647059 145.068908 
L 144.409982 145.068908 
L 147.172906 145.068908 
L 149.935829 145.068908 
L 152.698752 145.068908 
L 155.461676 106.970168 
L 158.224599 106.970168 
L 160.987522 106.970168 
L 163.750446 106.970168 
L 166.513369 106.970168 
L 169.276292 106.970168 
L 172.039216 106.970168 
L 174.802139 106.970168 
L 177.565062 106.970168 
L 180.327986 106.970168 
L 183.090909 106.970168 
L 185.853832 106.970168 
L 188.616756 92.316807 
L 191.379679 92.316807 
L 194.142602 92.316807 
L 196.905526 92.316807 
L 199.668449 92.316807 
L 202.431373 92.316807 
L 205.194296 92.316807 
L 207.957219 92.316807 
L 210.720143 92.316807 
L 213.483066 69.848319 
L 216.245989 69.848319 
L 219.008913 69.848319 
L 221.771836 69.848319 
L 224.534759 69.848319 
L 227.297683 69.848319 
L 230.060606 62.033193 
L 232.823529 62.033193 
L 235.586453 62.033193 
L 238.349376 62.033193 
L 241.112299 62.033193 
L 243.875223 62.033193 
L 246.638146 62.033193 
L 249.40107 62.033193 
L 252.163993 62.033193 
L 254.926916 62.033193 
L 257.68984 62.033193 
L 260.452763 62.033193 
L 263.215686 62.033193 
L 265.97861 62.033193 
L 268.741533 62.033193 
L 271.504456 62.033193 
L 274.26738 62.033193 
L 277.030303 62.033193 
L 279.793226 62.033193 
L 282.55615 54.218067 
L 285.319073 54.218067 
L 288.081996 54.218067 
L 290.84492 54.218067 
L 293.607843 54.218067 
L 296.370766 54.218067 
L 299.13369 46.402941 
L 301.896613 46.402941 
L 304.659537 46.402941 
L 307.42246 46.402941 
L 310.185383 46.402941 
L 312.948307 46.402941 
L 315.71123 46.402941 
L 318.474153 46.402941 
L 321.237077 46.402941 
L 324 46.402941 
" clip-path="url(#p34bd8753bb)" style="fill: none; stroke: #87001d; stroke-width: 3; stroke-linecap: round"/>
   </g>
   <g id="patch_3">
    <path d="M 45 319.932353 
L 45 43.667647 
" style="fill: none; stroke: #262626; stroke-width: 1.5; stroke-linejoin: miter; stroke-linecap: square"/>
   </g>
   <g id="patch_4">
    <path d="M 45 319.932353 
L 324 319.932353 
" style="fill: none; stroke: #262626; stroke-width: 1.5; stroke-linejoin: miter; stroke-linecap: square"/>
   </g>
   <g id="legend_1">
    <g id="line2d_19">
     <path d="M 51.56 196.773915 
L 65.56 196.773915 
L 79.56 196.773915 
" style="fill: none; stroke: #202020; stroke-opacity: 0.7; stroke-width: 3; stroke-linecap: round"/>
    </g>
    <g id="text_15">
     <text style="fill: #262626; font: 14px 'sans-serif'; text-anchor: start" x="90.76" y="201.673915" transform="rotate(-0, 90.76, 201.673915)">ROC fold 0 (AUC = 0.78)</text>
    </g>
    <g id="line2d_20">
     <path d="M 51.56 217.32329 
L 65.56 217.32329 
L 79.56 217.32329 
" style="fill: none; stroke: #353535; stroke-opacity: 0.7; stroke-width: 3; stroke-linecap: round"/>
    </g>
    <g id="text_16">
     <text style="fill: #262626; font: 14px 'sans-serif'; text-anchor: start" x="90.76" y="222.22329" transform="rotate(-0, 90.76, 222.22329)">ROC fold 1 (AUC = 0.65)</text>
    </g>
    <g id="line2d_21">
     <path d="M 51.56 237.872665 
L 65.56 237.872665 
L 79.56 237.872665 
" style="fill: none; stroke: #505050; stroke-opacity: 0.7; stroke-width: 3; stroke-linecap: round"/>
    </g>
    <g id="text_17">
     <text style="fill: #262626; font: 14px 'sans-serif'; text-anchor: start" x="90.76" y="242.772665" transform="rotate(-0, 90.76, 242.772665)">ROC fold 2 (AUC = 0.76)</text>
    </g>
    <g id="line2d_22">
     <path d="M 51.56 258.42204 
L 65.56 258.42204 
L 79.56 258.42204 
" style="fill: none; stroke: #656565; stroke-opacity: 0.7; stroke-width: 3; stroke-linecap: round"/>
    </g>
    <g id="text_18">
     <text style="fill: #262626; font: 14px 'sans-serif'; text-anchor: start" x="90.76" y="263.32204" transform="rotate(-0, 90.76, 263.32204)">ROC fold 3 (AUC = 0.68)</text>
    </g>
    <g id="line2d_23">
     <path d="M 51.56 278.971415 
L 65.56 278.971415 
L 79.56 278.971415 
" style="fill: none; stroke: #808080; stroke-opacity: 0.7; stroke-width: 3; stroke-linecap: round"/>
    </g>
    <g id="text_19">
     <text style="fill: #262626; font: 14px 'sans-serif'; text-anchor: start" x="90.76" y="283.871415" transform="rotate(-0, 90.76, 283.871415)">ROC fold 4 (AUC = 0.75)</text>
    </g>
    <g id="line2d_24">
     <path d="M 51.56 299.52079 
L 65.56 299.52079 
L 79.56 299.52079 
" style="fill: none; stroke: #87001d; stroke-width: 3; stroke-linecap: round"/>
    </g>
    <g id="text_20">
     <!-- Mean ROC (AUC = 0.72 $\pm$ 0.05) -->
     <g style="fill: #262626" transform="translate(90.76 304.42079)">
      <text>
       <tspan style="font: 14px 'DejaVu Sans'" x="0 12.079102 20.692383 29.271484 38.144531 42.594727 52.322266 63.341797 73.117188 77.567383 83.029297 92.606445 102.853516 112.628906 117.079102 128.80957 133.259766 142.166992 145.492188 154.399414 163.306641 167.756836 179.487305 183.9375 192.844727 197.294922 206.202148 215.109375" y="-0.375">Mean ROC (AUC = 0.72 ± 0.05)</tspan>
      </text>
     </g>
    </g>
   </g>
  </g>
 </g>
 <defs>
  <clipPath id="p34bd8753bb">
   <rect x="45" y="43.667647" width="279" height="276.264706"/>
  </clipPath>
 </defs>
</svg>
