<?xml version="1.0" encoding="utf-8" standalone="no"?>
<!DOCTYPE svg PUBLIC "-//W3C//DTD SVG 1.1//EN"
  "http://www.w3.org/Graphics/SVG/1.1/DTD/svg11.dtd">
<svg xmlns:xlink="http://www.w3.org/1999/xlink" width="360pt" height="360pt" viewBox="0 0 360 360" xmlns="http://www.w3.org/2000/svg" version="1.1">
 <metadata>
  <rdf:RDF xmlns:dc="http://purl.org/dc/elements/1.1/" xmlns:cc="http://creativecommons.org/ns#" xmlns:rdf="http://www.w3.org/1999/02/22-rdf-syntax-ns#">
   <cc:Work>
    <dc:type rdf:resource="http://purl.org/dc/dcmitype/StillImage"/>
    <dc:date>2023-12-05T13:48:37.145447</dc:date>
    <dc:format>image/svg+xml</dc:format>
    <dc:creator>
     <cc:Agent>
      <dc:title>Matplotlib v3.5.3, https://matplotlib.org/</dc:title>
     </cc:Agent>
    </dc:creator>
   </cc:Work>
  </rdf:RDF>
 </metadata>
 <defs>
  <style type="text/css">*{stroke-linejoin: round; stroke-linecap: butt}</style>
 </defs>
 <g id="figure_1">
  <g id="patch_1">
   <path d="M 0 360 
L 360 360 
L 360 0 
L 0 0 
z
" style="fill: #ffffff"/>
  </g>
  <g id="axes_1">
   <g id="patch_2">
    <path d="M 45 319.932353 
L 324 319.932353 
L 324 43.667647 
L 45 43.667647 
z
" style="fill: #ffffff"/>
   </g>
   <g id="matplotlib.axis_1">
    <g id="xtick_1">
     <g id="line2d_1">
      <defs>
       <path id="mdbbef492c5" d="M 0 0 
L 0 3.5 
" style="stroke: #262626; stroke-width: 1.5"/>
      </defs>
      <g>
       <use xlink:href="#mdbbef492c5" x="50.470588" y="319.932353" style="fill: #262626; stroke: #262626; stroke-width: 1.5"/>
      </g>
     </g>
     <g id="text_1">
      <text style="fill: #262626; font: 14px 'sans-serif'; text-anchor: middle" x="50.470588" y="337.570165" transform="rotate(-0, 50.470588, 337.570165)">0.0</text>
     </g>
    </g>
    <g id="xtick_2">
     <g id="line2d_2">
      <g>
       <use xlink:href="#mdbbef492c5" x="105.176471" y="319.932353" style="fill: #262626; stroke: #262626; stroke-width: 1.5"/>
      </g>
     </g>
     <g id="text_2">
      <text style="fill: #262626; font: 14px 'sans-serif'; text-anchor: middle" x="105.176471" y="337.570165" transform="rotate(-0, 105.176471, 337.570165)">0.2</text>
     </g>
    </g>
    <g id="xtick_3">
     <g id="line2d_3">
      <g>
       <use xlink:href="#mdbbef492c5" x="159.882353" y="319.932353" style="fill: #262626; stroke: #262626; stroke-width: 1.5"/>
      </g>
     </g>
     <g id="text_3">
      <text style="fill: #262626; font: 14px 'sans-serif'; text-anchor: middle" x="159.882353" y="337.570165" transform="rotate(-0, 159.882353, 337.570165)">0.4</text>
     </g>
    </g>
    <g id="xtick_4">
     <g id="line2d_4">
      <g>
       <use xlink:href="#mdbbef492c5" x="214.588235" y="319.932353" style="fill: #262626; stroke: #262626; stroke-width: 1.5"/>
      </g>
     </g>
     <g id="text_4">
      <text style="fill: #262626; font: 14px 'sans-serif'; text-anchor: middle" x="214.588235" y="337.570165" transform="rotate(-0, 214.588235, 337.570165)">0.6</text>
     </g>
    </g>
    <g id="xtick_5">
     <g id="line2d_5">
      <g>
       <use xlink:href="#mdbbef492c5" x="269.294118" y="319.932353" style="fill: #262626; stroke: #262626; stroke-width: 1.5"/>
      </g>
     </g>
     <g id="text_5">
      <text style="fill: #262626; font: 14px 'sans-serif'; text-anchor: middle" x="269.294118" y="337.570165" transform="rotate(-0, 269.294118, 337.570165)">0.8</text>
     </g>
    </g>
    <g id="xtick_6">
     <g id="line2d_6">
      <g>
       <use xlink:href="#mdbbef492c5" x="324" y="319.932353" style="fill: #262626; stroke: #262626; stroke-width: 1.5"/>
      </g>
     </g>
     <g id="text_6">
      <text style="fill: #262626; font: 14px 'sans-serif'; text-anchor: middle" x="324" y="337.570165" transform="rotate(-0, 324, 337.570165)">1.0</text>
     </g>
    </g>
    <g id="text_7">
     <text style="fill: #262626; font: 14px 'sans-serif'; text-anchor: middle" x="184.5" y="355.11954" transform="rotate(-0, 184.5, 355.11954)">False Positive Rate (Positive label: 1.0)</text>
    </g>
   </g>
   <g id="matplotlib.axis_2">
    <g id="ytick_1">
     <g id="line2d_7">
      <defs>
       <path id="m139b4c21fe" d="M 0 0 
L -3.5 0 
" style="stroke: #262626; stroke-width: 1.5"/>
      </defs>
      <g>
       <use xlink:href="#m139b4c21fe" x="45" y="319.932353" style="fill: #262626; stroke: #262626; stroke-width: 1.5"/>
      </g>
     </g>
     <g id="text_8">
      <text style="fill: #262626; font: 14px 'sans-serif'; text-anchor: end" x="38" y="325.251259" transform="rotate(-0, 38, 325.251259)">0.0</text>
     </g>
    </g>
    <g id="ytick_2">
     <g id="line2d_8">
      <g>
       <use xlink:href="#m139b4c21fe" x="45" y="265.226471" style="fill: #262626; stroke: #262626; stroke-width: 1.5"/>
      </g>
     </g>
     <g id="text_9">
      <text style="fill: #262626; font: 14px 'sans-serif'; text-anchor: end" x="38" y="270.545377" transform="rotate(-0, 38, 270.545377)">0.2</text>
     </g>
    </g>
    <g id="ytick_3">
     <g id="line2d_9">
      <g>
       <use xlink:href="#m139b4c21fe" x="45" y="210.520588" style="fill: #262626; stroke: #262626; stroke-width: 1.5"/>
      </g>
     </g>
     <g id="text_10">
      <text style="fill: #262626; font: 14px 'sans-serif'; text-anchor: end" x="38" y="215.839494" transform="rotate(-0, 38, 215.839494)">0.4</text>
     </g>
    </g>
    <g id="ytick_4">
     <g id="line2d_10">
      <g>
       <use xlink:href="#m139b4c21fe" x="45" y="155.814706" style="fill: #262626; stroke: #262626; stroke-width: 1.5"/>
      </g>
     </g>
     <g id="text_11">
      <text style="fill: #262626; font: 14px 'sans-serif'; text-anchor: end" x="38" y="161.133612" transform="rotate(-0, 38, 161.133612)">0.6</text>
     </g>
    </g>
    <g id="ytick_5">
     <g id="line2d_11">
      <g>
       <use xlink:href="#m139b4c21fe" x="45" y="101.108824" style="fill: #262626; stroke: #262626; stroke-width: 1.5"/>
      </g>
     </g>
     <g id="text_12">
      <text style="fill: #262626; font: 14px 'sans-serif'; text-anchor: end" x="38" y="106.42773" transform="rotate(-0, 38, 106.42773)">0.8</text>
     </g>
    </g>
    <g id="ytick_6">
     <g id="line2d_12">
      <g>
       <use xlink:href="#m139b4c21fe" x="45" y="46.402941" style="fill: #262626; stroke: #262626; stroke-width: 1.5"/>
      </g>
     </g>
     <g id="text_13">
      <text style="fill: #262626; font: 14px 'sans-serif'; text-anchor: end" x="38" y="51.721847" transform="rotate(-0, 38, 51.721847)">1.0</text>
     </g>
    </g>
    <g id="text_14">
     <text style="fill: #262626; font: 14px 'sans-serif'; text-anchor: middle" x="8.824062" y="181.8" transform="rotate(-90, 8.824062, 181.8)">True Positive Rate (Positive label: 1.0)</text>
    </g>
   </g>
   <g id="PolyCollection_1">
    <defs>
     <path id="m8c951120db" d="M 50.470588 -40.067647 
L 50.470588 -40.067647 
L 53.233512 -80.045023 
L 55.996435 -115.814253 
L 58.759358 -122.126471 
L 61.522282 -143.167195 
L 64.285205 -147.375339 
L 67.048128 -151.583484 
L 69.811052 -159.999774 
L 72.573975 -172.624208 
L 75.336898 -181.040498 
L 78.099822 -191.56086 
L 80.862745 -199.977149 
L 83.625668 -212.601584 
L 86.388592 -218.913801 
L 89.151515 -221.017873 
L 91.914439 -227.33009 
L 94.677362 -231.538235 
L 97.440285 -231.538235 
L 100.203209 -233.642308 
L 102.966132 -235.74638 
L 105.729055 -242.058597 
L 108.491979 -256.787104 
L 111.254902 -256.787104 
L 114.017825 -258.891176 
L 116.780749 -260.995249 
L 119.543672 -260.995249 
L 122.306595 -267.307466 
L 125.069519 -267.307466 
L 127.832442 -271.515611 
L 130.595365 -271.515611 
L 133.358289 -273.619683 
L 136.121212 -277.827828 
L 138.884135 -277.827828 
L 141.647059 -277.827828 
L 144.409982 -277.827828 
L 147.172906 -277.827828 
L 149.935829 -279.9319 
L 152.698752 -282.035973 
L 155.461676 -282.035973 
L 158.224599 -286.244118 
L 160.987522 -286.244118 
L 163.750446 -286.244118 
L 166.513369 -286.244118 
L 169.276292 -286.244118 
L 172.039216 -286.244118 
L 174.802139 -286.244118 
L 177.565062 -288.34819 
L 180.327986 -288.34819 
L 183.090909 -292.556335 
L 185.853832 -294.660407 
L 188.616756 -296.76448 
L 191.379679 -296.76448 
L 194.142602 -303.076697 
L 196.905526 -303.076697 
L 199.668449 -303.076697 
L 202.431373 -303.076697 
L 205.194296 -303.076697 
L 207.957219 -303.076697 
L 210.720143 -303.076697 
L 213.483066 -305.180769 
L 216.245989 -305.180769 
L 219.008913 -305.180769 
L 221.771836 -305.180769 
L 224.534759 -305.180769 
L 227.297683 -305.180769 
L 230.060606 -305.180769 
L 232.823529 -305.180769 
L 235.586453 -305.180769 
L 238.349376 -305.180769 
L 241.112299 -305.180769 
L 243.875223 -305.180769 
L 246.638146 -305.180769 
L 249.40107 -305.180769 
L 252.163993 -307.284842 
L 254.926916 -307.284842 
L 257.68984 -307.284842 
L 260.452763 -309.388914 
L 263.215686 -309.388914 
L 265.97861 -309.388914 
L 268.741533 -309.388914 
L 271.504456 -309.388914 
L 274.26738 -309.388914 
L 277.030303 -309.388914 
L 279.793226 -309.388914 
L 282.55615 -309.388914 
L 285.319073 -311.492986 
L 288.081996 -311.492986 
L 290.84492 -311.492986 
L 293.607843 -311.492986 
L 296.370766 -311.492986 
L 299.13369 -313.597059 
L 301.896613 -313.597059 
L 304.659537 -313.597059 
L 307.42246 -313.597059 
L 310.185383 -313.597059 
L 312.948307 -313.597059 
L 315.71123 -313.597059 
L 318.474153 -313.597059 
L 321.237077 -313.597059 
L 324 -313.597059 
L 324 -40.067647 
L 324 -40.067647 
L 321.237077 -40.067647 
L 318.474153 -40.067647 
L 315.71123 -40.067647 
L 312.948307 -40.067647 
L 310.185383 -40.067647 
L 307.42246 -40.067647 
L 304.659537 -40.067647 
L 301.896613 -40.067647 
L 299.13369 -40.067647 
L 296.370766 -40.067647 
L 293.607843 -40.067647 
L 290.84492 -40.067647 
L 288.081996 -40.067647 
L 285.319073 -40.067647 
L 282.55615 -40.067647 
L 279.793226 -40.067647 
L 277.030303 -40.067647 
L 274.26738 -40.067647 
L 271.504456 -40.067647 
L 268.741533 -40.067647 
L 265.97861 -40.067647 
L 263.215686 -40.067647 
L 260.452763 -40.067647 
L 257.68984 -40.067647 
L 254.926916 -40.067647 
L 252.163993 -40.067647 
L 249.40107 -40.067647 
L 246.638146 -40.067647 
L 243.875223 -40.067647 
L 241.112299 -40.067647 
L 238.349376 -40.067647 
L 235.586453 -40.067647 
L 232.823529 -40.067647 
L 230.060606 -40.067647 
L 227.297683 -40.067647 
L 224.534759 -40.067647 
L 221.771836 -40.067647 
L 219.008913 -40.067647 
L 216.245989 -40.067647 
L 213.483066 -40.067647 
L 210.720143 -40.067647 
L 207.957219 -40.067647 
L 205.194296 -40.067647 
L 202.431373 -40.067647 
L 199.668449 -40.067647 
L 196.905526 -40.067647 
L 194.142602 -40.067647 
L 191.379679 -40.067647 
L 188.616756 -40.067647 
L 185.853832 -40.067647 
L 183.090909 -40.067647 
L 180.327986 -40.067647 
L 177.565062 -40.067647 
L 174.802139 -40.067647 
L 172.039216 -40.067647 
L 169.276292 -40.067647 
L 166.513369 -40.067647 
L 163.750446 -40.067647 
L 160.987522 -40.067647 
L 158.224599 -40.067647 
L 155.461676 -40.067647 
L 152.698752 -40.067647 
L 149.935829 -40.067647 
L 147.172906 -40.067647 
L 144.409982 -40.067647 
L 141.647059 -40.067647 
L 138.884135 -40.067647 
L 136.121212 -40.067647 
L 133.358289 -40.067647 
L 130.595365 -40.067647 
L 127.832442 -40.067647 
L 125.069519 -40.067647 
L 122.306595 -40.067647 
L 119.543672 -40.067647 
L 116.780749 -40.067647 
L 114.017825 -40.067647 
L 111.254902 -40.067647 
L 108.491979 -40.067647 
L 105.729055 -40.067647 
L 102.966132 -40.067647 
L 100.203209 -40.067647 
L 97.440285 -40.067647 
L 94.677362 -40.067647 
L 91.914439 -40.067647 
L 89.151515 -40.067647 
L 86.388592 -40.067647 
L 83.625668 -40.067647 
L 80.862745 -40.067647 
L 78.099822 -40.067647 
L 75.336898 -40.067647 
L 72.573975 -40.067647 
L 69.811052 -40.067647 
L 67.048128 -40.067647 
L 64.285205 -40.067647 
L 61.522282 -40.067647 
L 58.759358 -40.067647 
L 55.996435 -40.067647 
L 53.233512 -40.067647 
L 50.470588 -40.067647 
z
" style="stroke: #87001d; stroke-opacity: 0.2"/>
    </defs>
    <g clip-path="url(#p2664044108)">
     <use xlink:href="#m8c951120db" x="0" y="360" style="fill: #87001d; fill-opacity: 0.2; stroke: #87001d; stroke-opacity: 0.2"/>
    </g>
   </g>
   <g id="line2d_13">
    <path d="M 50.470588 319.932353 
L 50.470588 309.411991 
L 50.470588 288.371267 
L 52.169529 288.371267 
L 52.169529 277.850905 
L 53.868469 277.850905 
L 53.868469 246.289819 
L 57.26635 246.289819 
L 57.26635 235.769457 
L 58.96529 235.769457 
L 58.96529 225.249095 
L 60.664231 225.249095 
L 60.664231 214.728733 
L 64.062112 214.728733 
L 64.062112 204.208371 
L 65.761052 204.208371 
L 65.761052 193.688009 
L 70.857874 193.688009 
L 70.857874 172.647285 
L 72.556814 172.647285 
L 72.556814 162.126923 
L 74.255754 162.126923 
L 74.255754 151.606561 
L 81.051516 151.606561 
L 81.051516 141.086199 
L 86.148338 141.086199 
L 86.148338 130.565837 
L 103.137742 130.565837 
L 103.137742 120.045475 
L 108.234563 120.045475 
L 108.234563 88.484389 
L 113.331385 88.484389 
L 113.331385 77.964027 
L 121.826087 77.964027 
L 121.826087 67.443665 
L 181.289003 67.443665 
L 181.289003 56.923303 
L 184.686883 56.923303 
L 184.686883 46.402941 
L 324 46.402941 
" clip-path="url(#p2664044108)" style="fill: none; stroke: #202020; stroke-opacity: 0.7; stroke-width: 3; stroke-linecap: round"/>
   </g>
   <g id="line2d_14">
    <path d="M 50.470588 319.932353 
L 50.470588 309.411991 
L 50.470588 298.891629 
L 53.868469 298.891629 
L 53.868469 267.330543 
L 55.56741 267.330543 
L 55.56741 256.810181 
L 58.96529 256.810181 
L 58.96529 235.769457 
L 69.158933 235.769457 
L 69.158933 225.249095 
L 72.556814 225.249095 
L 72.556814 214.728733 
L 77.653635 214.728733 
L 77.653635 193.688009 
L 81.051516 193.688009 
L 81.051516 183.167647 
L 86.148338 183.167647 
L 86.148338 172.647285 
L 92.944099 172.647285 
L 92.944099 162.126923 
L 98.040921 162.126923 
L 98.040921 151.606561 
L 103.137742 151.606561 
L 103.137742 130.565837 
L 108.234563 130.565837 
L 108.234563 120.045475 
L 120.127147 120.045475 
L 120.127147 109.525113 
L 150.708075 109.525113 
L 150.708075 99.004751 
L 176.192181 99.004751 
L 176.192181 88.484389 
L 182.987943 88.484389 
L 182.987943 77.964027 
L 193.181586 77.964027 
L 193.181586 67.443665 
L 250.945561 67.443665 
L 250.945561 56.923303 
L 259.440263 56.923303 
L 259.440263 46.402941 
L 324 46.402941 
" clip-path="url(#p2664044108)" style="fill: none; stroke: #353535; stroke-opacity: 0.7; stroke-width: 3; stroke-linecap: round"/>
   </g>
   <g id="line2d_15">
    <path d="M 50.470588 319.932353 
L 50.470588 309.411991 
L 50.470588 256.810181 
L 52.180147 256.810181 
L 52.180147 246.289819 
L 55.599265 246.289819 
L 55.599265 225.249095 
L 57.308824 225.249095 
L 57.308824 214.728733 
L 60.727941 214.728733 
L 60.727941 204.208371 
L 70.985294 204.208371 
L 70.985294 183.167647 
L 77.823529 183.167647 
L 77.823529 172.647285 
L 86.371324 172.647285 
L 86.371324 162.126923 
L 88.080882 162.126923 
L 88.080882 151.606561 
L 91.5 151.606561 
L 91.5 120.045475 
L 115.433824 120.045475 
L 115.433824 109.525113 
L 118.852941 109.525113 
L 134.238971 109.525113 
L 134.238971 88.484389 
L 147.915441 88.484389 
L 147.915441 77.964027 
L 156.463235 77.964027 
L 156.463235 67.443665 
L 194.073529 67.443665 
L 194.073529 46.402941 
L 195.783088 46.402941 
L 199.202206 46.402941 
L 317.161765 46.402941 
L 320.580882 46.402941 
L 324 46.402941 
" clip-path="url(#p2664044108)" style="fill: none; stroke: #505050; stroke-opacity: 0.7; stroke-width: 3; stroke-linecap: round"/>
   </g>
   <g id="line2d_16">
    <path d="M 50.470588 319.932353 
L 52.180147 319.932353 
L 52.180147 277.850905 
L 53.889706 277.850905 
L 53.889706 256.810181 
L 57.308824 256.810181 
L 57.308824 246.289819 
L 60.727941 246.289819 
L 60.727941 225.249095 
L 64.147059 225.249095 
L 64.147059 214.728733 
L 67.566176 214.728733 
L 67.566176 204.208371 
L 72.694853 204.208371 
L 72.694853 193.688009 
L 76.113971 193.688009 
L 76.113971 183.167647 
L 79.533088 183.167647 
L 79.533088 172.647285 
L 81.242647 172.647285 
L 81.242647 130.565837 
L 93.209559 130.565837 
L 93.209559 120.045475 
L 106.886029 120.045475 
L 106.886029 99.004751 
L 122.272059 99.004751 
L 122.272059 88.484389 
L 132.529412 88.484389 
L 132.529412 77.964027 
L 187.235294 77.964027 
L 187.235294 67.443665 
L 211.169118 67.443665 
L 211.169118 56.923303 
L 296.647059 56.923303 
L 296.647059 46.402941 
L 324 46.402941 
" clip-path="url(#p2664044108)" style="fill: none; stroke: #656565; stroke-opacity: 0.7; stroke-width: 3; stroke-linecap: round"/>
   </g>
   <g id="line2d_17">
    <path d="M 50.470588 319.932353 
L 52.180147 319.932353 
L 52.180147 298.891629 
L 53.889706 298.891629 
L 53.889706 246.289819 
L 55.599265 246.289819 
L 55.599265 235.769457 
L 59.018382 235.769457 
L 59.018382 204.208371 
L 65.856618 204.208371 
L 65.856618 193.688009 
L 69.275735 193.688009 
L 69.275735 172.647285 
L 72.694853 172.647285 
L 72.694853 151.606561 
L 76.113971 151.606561 
L 76.113971 141.086199 
L 79.533088 141.086199 
L 79.533088 109.525113 
L 101.757353 109.525113 
L 101.757353 99.004751 
L 106.886029 99.004751 
L 106.886029 88.484389 
L 127.400735 88.484389 
L 127.400735 67.443665 
L 156.463235 67.443665 
L 156.463235 56.923303 
L 277.841912 56.923303 
L 281.261029 56.923303 
L 282.970588 56.923303 
L 282.970588 46.402941 
L 324 46.402941 
" clip-path="url(#p2664044108)" style="fill: none; stroke: #808080; stroke-opacity: 0.7; stroke-width: 3; stroke-linecap: round"/>
   </g>
   <g id="line2d_18">
    <path d="M 50.470588 319.932353 
L 53.233512 279.954977 
L 55.996435 244.185747 
L 58.759358 237.873529 
L 61.522282 216.832805 
L 64.285205 212.624661 
L 67.048128 208.416516 
L 69.811052 200.000226 
L 72.573975 187.375792 
L 75.336898 178.959502 
L 78.099822 168.43914 
L 80.862745 160.022851 
L 83.625668 147.398416 
L 86.388592 141.086199 
L 89.151515 138.982127 
L 91.914439 132.66991 
L 94.677362 128.461765 
L 97.440285 128.461765 
L 100.203209 126.357692 
L 102.966132 124.25362 
L 105.729055 117.941403 
L 108.491979 103.212896 
L 111.254902 103.212896 
L 114.017825 101.108824 
L 116.780749 99.004751 
L 119.543672 99.004751 
L 122.306595 92.692534 
L 125.069519 92.692534 
L 127.832442 88.484389 
L 130.595365 88.484389 
L 133.358289 86.380317 
L 136.121212 82.172172 
L 138.884135 82.172172 
L 141.647059 82.172172 
L 144.409982 82.172172 
L 147.172906 82.172172 
L 149.935829 80.0681 
L 152.698752 77.964027 
L 155.461676 77.964027 
L 158.224599 73.755882 
L 160.987522 73.755882 
L 163.750446 73.755882 
L 166.513369 73.755882 
L 169.276292 73.755882 
L 172.039216 73.755882 
L 174.802139 73.755882 
L 177.565062 71.65181 
L 180.327986 71.65181 
L 183.090909 67.443665 
L 185.853832 65.339593 
L 188.616756 63.23552 
L 191.379679 63.23552 
L 194.142602 56.923303 
L 196.905526 56.923303 
L 199.668449 56.923303 
L 202.431373 56.923303 
L 205.194296 56.923303 
L 207.957219 56.923303 
L 210.720143 56.923303 
L 213.483066 54.819231 
L 216.245989 54.819231 
L 219.008913 54.819231 
L 221.771836 54.819231 
L 224.534759 54.819231 
L 227.297683 54.819231 
L 230.060606 54.819231 
L 232.823529 54.819231 
L 235.586453 54.819231 
L 238.349376 54.819231 
L 241.112299 54.819231 
L 243.875223 54.819231 
L 246.638146 54.819231 
L 249.40107 54.819231 
L 252.163993 52.715158 
L 254.926916 52.715158 
L 257.68984 52.715158 
L 260.452763 50.611086 
L 263.215686 50.611086 
L 265.97861 50.611086 
L 268.741533 50.611086 
L 271.504456 50.611086 
L 274.26738 50.611086 
L 277.030303 50.611086 
L 279.793226 50.611086 
L 282.55615 50.611086 
L 285.319073 48.507014 
L 288.081996 48.507014 
L 290.84492 48.507014 
L 293.607843 48.507014 
L 296.370766 48.507014 
L 299.13369 46.402941 
L 301.896613 46.402941 
L 304.659537 46.402941 
L 307.42246 46.402941 
L 310.185383 46.402941 
L 312.948307 46.402941 
L 315.71123 46.402941 
L 318.474153 46.402941 
L 321.237077 46.402941 
L 324 46.402941 
" clip-path="url(#p2664044108)" style="fill: none; stroke: #87001d; stroke-width: 3; stroke-linecap: round"/>
   </g>
   <g id="patch_3">
    <path d="M 45 319.932353 
L 45 43.667647 
" style="fill: none; stroke: #262626; stroke-width: 1.5; stroke-linejoin: miter; stroke-linecap: square"/>
   </g>
   <g id="patch_4">
    <path d="M 45 319.932353 
L 324 319.932353 
" style="fill: none; stroke: #262626; stroke-width: 1.5; stroke-linejoin: miter; stroke-linecap: square"/>
   </g>
   <g id="legend_1">
    <g id="line2d_19">
     <path d="M 50.86 196.773915 
L 64.86 196.773915 
L 78.86 196.773915 
" style="fill: none; stroke: #202020; stroke-opacity: 0.7; stroke-width: 3; stroke-linecap: round"/>
    </g>
    <g id="text_15">
     <text style="fill: #262626; font: 14px 'sans-serif'; text-anchor: start" x="90.06" y="201.673915" transform="rotate(-0, 90.06, 201.673915)">ROC fold 0 (AUC = 0.88)</text>
    </g>
    <g id="line2d_20">
     <path d="M 50.86 217.32329 
L 64.86 217.32329 
L 78.86 217.32329 
" style="fill: none; stroke: #353535; stroke-opacity: 0.7; stroke-width: 3; stroke-linecap: round"/>
    </g>
    <g id="text_16">
     <text style="fill: #262626; font: 14px 'sans-serif'; text-anchor: start" x="90.06" y="222.22329" transform="rotate(-0, 90.06, 222.22329)">ROC fold 1 (AUC = 0.80)</text>
    </g>
    <g id="line2d_21">
     <path d="M 50.86 237.872665 
L 64.86 237.872665 
L 78.86 237.872665 
" style="fill: none; stroke: #505050; stroke-opacity: 0.7; stroke-width: 3; stroke-linecap: round"/>
    </g>
    <g id="text_17">
     <text style="fill: #262626; font: 14px 'sans-serif'; text-anchor: start" x="90.06" y="242.772665" transform="rotate(-0, 90.06, 242.772665)">ROC fold 2 (AUC = 0.86)</text>
    </g>
    <g id="line2d_22">
     <path d="M 50.86 258.42204 
L 64.86 258.42204 
L 78.86 258.42204 
" style="fill: none; stroke: #656565; stroke-opacity: 0.7; stroke-width: 3; stroke-linecap: round"/>
    </g>
    <g id="text_18">
     <text style="fill: #262626; font: 14px 'sans-serif'; text-anchor: start" x="90.06" y="263.32204" transform="rotate(-0, 90.06, 263.32204)">ROC fold 3 (AUC = 0.84)</text>
    </g>
    <g id="line2d_23">
     <path d="M 50.86 278.971415 
L 64.86 278.971415 
L 78.86 278.971415 
" style="fill: none; stroke: #808080; stroke-opacity: 0.7; stroke-width: 3; stroke-linecap: round"/>
    </g>
    <g id="text_19">
     <text style="fill: #262626; font: 14px 'sans-serif'; text-anchor: start" x="90.06" y="283.871415" transform="rotate(-0, 90.06, 283.871415)">ROC fold 4 (AUC = 0.88)</text>
    </g>
    <g id="line2d_24">
     <path d="M 50.86 299.52079 
L 64.86 299.52079 
L 78.86 299.52079 
" style="fill: none; stroke: #87001d; stroke-width: 3; stroke-linecap: round"/>
    </g>
    <g id="text_20">
     <!-- Mean ROC (AUC = 0.85 $\pm$ 0.03) -->
     <g style="fill: #262626" transform="translate(90.06 304.42079)">
      <text>
       <tspan style="font: 14px 'DejaVu Sans'" x="0 12.079102 20.692383 29.271484 38.144531 42.594727 52.322266 63.341797 73.117188 77.567383 83.029297 92.606445 102.853516 112.628906 117.079102 128.80957 133.259766 142.166992 146.242188 155.149414 164.056641 168.506836 180.237305 184.6875 193.594727 198.044922 206.952148 215.859375" y="-0.375">Mean ROC (AUC = 0.85 ± 0.03)</tspan>
      </text>
     </g>
    </g>
   </g>
  </g>
 </g>
 <defs>
  <clipPath id="p2664044108">
   <rect x="45" y="43.667647" width="279" height="276.264706"/>
  </clipPath>
 </defs>
</svg>
