<?xml version="1.0" encoding="utf-8" standalone="no"?>
<!DOCTYPE svg PUBLIC "-//W3C//DTD SVG 1.1//EN"
  "http://www.w3.org/Graphics/SVG/1.1/DTD/svg11.dtd">
<!-- Created with matplotlib (https://matplotlib.org/) -->
<svg height="360pt" version="1.1" viewBox="0 0 360 360" width="360pt" xmlns="http://www.w3.org/2000/svg" xmlns:xlink="http://www.w3.org/1999/xlink">
 <defs>
  <style type="text/css">
*{stroke-linecap:butt;stroke-linejoin:round;}
  </style>
 </defs>
 <g id="figure_1">
  <g id="patch_1">
   <path d="M 0 360 
L 360 360 
L 360 0 
L 0 0 
z
" style="fill:#ffffff;"/>
  </g>
  <g id="axes_1">
   <g id="patch_2">
    <path d="M 47.254455 315 
L 321.745545 315 
L 321.745545 43.2 
L 47.254455 43.2 
z
" style="fill:#ffffff;"/>
   </g>
   <g id="matplotlib.axis_1">
    <g id="xtick_1">
     <g id="line2d_1">
      <defs>
       <path d="M 0 0 
L 0 3.5 
" id="ma85a2af2a1" style="stroke:#262626;stroke-width:1.5;"/>
      </defs>
      <g>
       <use style="fill:#262626;stroke:#262626;stroke-width:1.5;" x="52.636634" xlink:href="#ma85a2af2a1" y="315"/>
      </g>
     </g>
     <g id="text_1">
      <text style="fill:#262626;font-family:Cantarell;font-size:14px;font-style:normal;font-weight:normal;text-anchor:middle;" transform="rotate(-0, 52.636634, 332.051562)" x="52.636634" y="332.051562">0.0</text>
     </g>
    </g>
    <g id="xtick_2">
     <g id="line2d_2">
      <g>
       <use style="fill:#262626;stroke:#262626;stroke-width:1.5;" x="106.458416" xlink:href="#ma85a2af2a1" y="315"/>
      </g>
     </g>
     <g id="text_2">
      <text style="fill:#262626;font-family:Cantarell;font-size:14px;font-style:normal;font-weight:normal;text-anchor:middle;" transform="rotate(-0, 106.458416, 332.051562)" x="106.458416" y="332.051562">0.2</text>
     </g>
    </g>
    <g id="xtick_3">
     <g id="line2d_3">
      <g>
       <use style="fill:#262626;stroke:#262626;stroke-width:1.5;" x="160.280198" xlink:href="#ma85a2af2a1" y="315"/>
      </g>
     </g>
     <g id="text_3">
      <text style="fill:#262626;font-family:Cantarell;font-size:14px;font-style:normal;font-weight:normal;text-anchor:middle;" transform="rotate(-0, 160.280198, 332.051562)" x="160.280198" y="332.051562">0.4</text>
     </g>
    </g>
    <g id="xtick_4">
     <g id="line2d_4">
      <g>
       <use style="fill:#262626;stroke:#262626;stroke-width:1.5;" x="214.10198" xlink:href="#ma85a2af2a1" y="315"/>
      </g>
     </g>
     <g id="text_4">
      <text style="fill:#262626;font-family:Cantarell;font-size:14px;font-style:normal;font-weight:normal;text-anchor:middle;" transform="rotate(-0, 214.10198, 332.051562)" x="214.10198" y="332.051562">0.6</text>
     </g>
    </g>
    <g id="xtick_5">
     <g id="line2d_5">
      <g>
       <use style="fill:#262626;stroke:#262626;stroke-width:1.5;" x="267.923762" xlink:href="#ma85a2af2a1" y="315"/>
      </g>
     </g>
     <g id="text_5">
      <text style="fill:#262626;font-family:Cantarell;font-size:14px;font-style:normal;font-weight:normal;text-anchor:middle;" transform="rotate(-0, 267.923762, 332.051562)" x="267.923762" y="332.051562">0.8</text>
     </g>
    </g>
    <g id="xtick_6">
     <g id="line2d_6">
      <g>
       <use style="fill:#262626;stroke:#262626;stroke-width:1.5;" x="321.745545" xlink:href="#ma85a2af2a1" y="315"/>
      </g>
     </g>
     <g id="text_6">
      <text style="fill:#262626;font-family:Cantarell;font-size:14px;font-style:normal;font-weight:normal;text-anchor:middle;" transform="rotate(-0, 321.745545, 332.051562)" x="321.745545" y="332.051562">1.0</text>
     </g>
    </g>
    <g id="text_7">
     <text style="fill:#262626;font-family:Cantarell;font-size:14px;font-style:normal;font-weight:normal;text-anchor:middle;" transform="rotate(-0, 184.5, 349.574687)" x="184.5" y="349.574687">False Positive Rate (Positive label: 1.0)</text>
    </g>
   </g>
   <g id="matplotlib.axis_2">
    <g id="ytick_1">
     <g id="line2d_7">
      <defs>
       <path d="M 0 0 
L -3.5 0 
" id="m85d7dc9b92" style="stroke:#262626;stroke-width:1.5;"/>
      </defs>
      <g>
       <use style="fill:#262626;stroke:#262626;stroke-width:1.5;" x="47.254455" xlink:href="#m85d7dc9b92" y="315"/>
      </g>
     </g>
     <g id="text_8">
      <text style="fill:#262626;font-family:Cantarell;font-size:14px;font-style:normal;font-weight:normal;text-anchor:end;" transform="rotate(-0, 40.254455, 320.025781)" x="40.254455" y="320.025781">0.0</text>
     </g>
    </g>
    <g id="ytick_2">
     <g id="line2d_8">
      <g>
       <use style="fill:#262626;stroke:#262626;stroke-width:1.5;" x="47.254455" xlink:href="#m85d7dc9b92" y="261.178218"/>
      </g>
     </g>
     <g id="text_9">
      <text style="fill:#262626;font-family:Cantarell;font-size:14px;font-style:normal;font-weight:normal;text-anchor:end;" transform="rotate(-0, 40.254455, 266.203999)" x="40.254455" y="266.203999">0.2</text>
     </g>
    </g>
    <g id="ytick_3">
     <g id="line2d_9">
      <g>
       <use style="fill:#262626;stroke:#262626;stroke-width:1.5;" x="47.254455" xlink:href="#m85d7dc9b92" y="207.356436"/>
      </g>
     </g>
     <g id="text_10">
      <text style="fill:#262626;font-family:Cantarell;font-size:14px;font-style:normal;font-weight:normal;text-anchor:end;" transform="rotate(-0, 40.254455, 212.382217)" x="40.254455" y="212.382217">0.4</text>
     </g>
    </g>
    <g id="ytick_4">
     <g id="line2d_10">
      <g>
       <use style="fill:#262626;stroke:#262626;stroke-width:1.5;" x="47.254455" xlink:href="#m85d7dc9b92" y="153.534653"/>
      </g>
     </g>
     <g id="text_11">
      <text style="fill:#262626;font-family:Cantarell;font-size:14px;font-style:normal;font-weight:normal;text-anchor:end;" transform="rotate(-0, 40.254455, 158.560435)" x="40.254455" y="158.560435">0.6</text>
     </g>
    </g>
    <g id="ytick_5">
     <g id="line2d_11">
      <g>
       <use style="fill:#262626;stroke:#262626;stroke-width:1.5;" x="47.254455" xlink:href="#m85d7dc9b92" y="99.712871"/>
      </g>
     </g>
     <g id="text_12">
      <text style="fill:#262626;font-family:Cantarell;font-size:14px;font-style:normal;font-weight:normal;text-anchor:end;" transform="rotate(-0, 40.254455, 104.738653)" x="40.254455" y="104.738653">0.8</text>
     </g>
    </g>
    <g id="ytick_6">
     <g id="line2d_12">
      <g>
       <use style="fill:#262626;stroke:#262626;stroke-width:1.5;" x="47.254455" xlink:href="#m85d7dc9b92" y="45.891089"/>
      </g>
     </g>
     <g id="text_13">
      <text style="fill:#262626;font-family:Cantarell;font-size:14px;font-style:normal;font-weight:normal;text-anchor:end;" transform="rotate(-0, 40.254455, 50.91687)" x="40.254455" y="50.91687">1.0</text>
     </g>
    </g>
    <g id="text_14">
     <text style="fill:#262626;font-family:Cantarell;font-size:14px;font-style:normal;font-weight:normal;text-anchor:middle;" transform="rotate(-90, 13.209143, 179.1)" x="13.209143" y="179.1">True Positive Rate (Positive label: 1.0)</text>
    </g>
   </g>
   <g id="PolyCollection_1">
    <defs>
     <path d="M 52.636634 -45 
L 52.636634 -45 
L 55.354905 -88.471439 
L 58.073177 -113.312262 
L 60.791449 -119.522468 
L 63.509721 -142.293222 
L 66.227993 -162.993907 
L 68.946265 -162.993907 
L 71.664536 -171.274181 
L 74.382808 -181.624524 
L 77.10108 -200.255141 
L 79.819352 -208.535415 
L 82.537624 -214.745621 
L 85.255896 -220.955826 
L 87.974167 -233.376238 
L 90.692439 -237.516375 
L 93.410711 -243.72658 
L 96.128983 -247.866717 
L 98.847255 -249.936786 
L 101.565527 -252.006855 
L 104.283798 -252.006855 
L 107.00207 -252.006855 
L 109.720342 -260.287129 
L 112.438614 -262.357197 
L 115.156886 -266.497334 
L 117.875158 -270.637471 
L 120.593429 -274.777609 
L 123.311701 -283.057883 
L 126.029973 -283.057883 
L 128.748245 -287.19802 
L 131.466517 -289.268088 
L 134.184788 -289.268088 
L 136.90306 -289.268088 
L 139.621332 -289.268088 
L 142.339604 -289.268088 
L 145.057876 -289.268088 
L 147.776148 -289.268088 
L 150.494419 -291.338157 
L 153.212691 -291.338157 
L 155.930963 -293.408225 
L 158.649235 -293.408225 
L 161.367507 -295.478294 
L 164.085779 -295.478294 
L 166.80405 -295.478294 
L 169.522322 -295.478294 
L 172.240594 -295.478294 
L 174.958866 -295.478294 
L 177.677138 -297.548363 
L 180.39541 -297.548363 
L 183.113681 -297.548363 
L 185.831953 -299.618431 
L 188.550225 -299.618431 
L 191.268497 -299.618431 
L 193.986769 -299.618431 
L 196.705041 -299.618431 
L 199.423312 -299.618431 
L 202.141584 -301.6885 
L 204.859856 -303.758568 
L 207.578128 -303.758568 
L 210.2964 -303.758568 
L 213.014671 -303.758568 
L 215.732943 -303.758568 
L 218.451215 -303.758568 
L 221.169487 -303.758568 
L 223.887759 -303.758568 
L 226.606031 -303.758568 
L 229.324302 -303.758568 
L 232.042574 -305.828637 
L 234.760846 -305.828637 
L 237.479118 -305.828637 
L 240.19739 -305.828637 
L 242.915662 -305.828637 
L 245.633933 -305.828637 
L 248.352205 -305.828637 
L 251.070477 -305.828637 
L 253.788749 -309.968774 
L 256.507021 -309.968774 
L 259.225293 -309.968774 
L 261.943564 -309.968774 
L 264.661836 -309.968774 
L 267.380108 -309.968774 
L 270.09838 -309.968774 
L 272.816652 -309.968774 
L 275.534923 -309.968774 
L 278.253195 -309.968774 
L 280.971467 -309.968774 
L 283.689739 -312.038842 
L 286.408011 -314.108911 
L 289.126283 -314.108911 
L 291.844554 -314.108911 
L 294.562826 -314.108911 
L 297.281098 -314.108911 
L 299.99937 -314.108911 
L 302.717642 -314.108911 
L 305.435914 -314.108911 
L 308.154185 -314.108911 
L 310.872457 -314.108911 
L 313.590729 -314.108911 
L 316.309001 -314.108911 
L 319.027273 -314.108911 
L 321.745545 -314.108911 
L 321.745545 -45 
L 321.745545 -45 
L 319.027273 -45 
L 316.309001 -45 
L 313.590729 -45 
L 310.872457 -45 
L 308.154185 -45 
L 305.435914 -45 
L 302.717642 -45 
L 299.99937 -45 
L 297.281098 -45 
L 294.562826 -45 
L 291.844554 -45 
L 289.126283 -45 
L 286.408011 -45 
L 283.689739 -45 
L 280.971467 -45 
L 278.253195 -45 
L 275.534923 -45 
L 272.816652 -45 
L 270.09838 -45 
L 267.380108 -45 
L 264.661836 -45 
L 261.943564 -45 
L 259.225293 -45 
L 256.507021 -45 
L 253.788749 -45 
L 251.070477 -45 
L 248.352205 -45 
L 245.633933 -45 
L 242.915662 -45 
L 240.19739 -45 
L 237.479118 -45 
L 234.760846 -45 
L 232.042574 -45 
L 229.324302 -45 
L 226.606031 -45 
L 223.887759 -45 
L 221.169487 -45 
L 218.451215 -45 
L 215.732943 -45 
L 213.014671 -45 
L 210.2964 -45 
L 207.578128 -45 
L 204.859856 -45 
L 202.141584 -45 
L 199.423312 -45 
L 196.705041 -45 
L 193.986769 -45 
L 191.268497 -45 
L 188.550225 -45 
L 185.831953 -45 
L 183.113681 -45 
L 180.39541 -45 
L 177.677138 -45 
L 174.958866 -45 
L 172.240594 -45 
L 169.522322 -45 
L 166.80405 -45 
L 164.085779 -45 
L 161.367507 -45 
L 158.649235 -45 
L 155.930963 -45 
L 153.212691 -45 
L 150.494419 -45 
L 147.776148 -45 
L 145.057876 -45 
L 142.339604 -45 
L 139.621332 -45 
L 136.90306 -45 
L 134.184788 -45 
L 131.466517 -45 
L 128.748245 -45 
L 126.029973 -45 
L 123.311701 -45 
L 120.593429 -45 
L 117.875158 -45 
L 115.156886 -45 
L 112.438614 -45 
L 109.720342 -45 
L 107.00207 -45 
L 104.283798 -45 
L 101.565527 -45 
L 98.847255 -45 
L 96.128983 -45 
L 93.410711 -45 
L 90.692439 -45 
L 87.974167 -45 
L 85.255896 -45 
L 82.537624 -45 
L 79.819352 -45 
L 77.10108 -45 
L 74.382808 -45 
L 71.664536 -45 
L 68.946265 -45 
L 66.227993 -45 
L 63.509721 -45 
L 60.791449 -45 
L 58.073177 -45 
L 55.354905 -45 
L 52.636634 -45 
z
" id="m2e178f2ab2" style="stroke:#87001d;stroke-opacity:0.2;"/>
    </defs>
    <g clip-path="url(#p074e916f84)">
     <use style="fill:#87001d;fill-opacity:0.2;stroke:#87001d;stroke-opacity:0.2;" x="0" xlink:href="#m2e178f2ab2" y="360"/>
    </g>
   </g>
   <g id="line2d_13">
    <path clip-path="url(#p074e916f84)" d="M 52.636634 315 
L 52.636634 304.649657 
L 52.636634 273.598629 
L 55.979602 273.598629 
L 55.979602 263.248286 
L 57.651085 263.248286 
L 57.651085 242.547601 
L 59.322569 242.547601 
L 59.322569 221.846915 
L 60.994053 221.846915 
L 60.994053 211.496573 
L 74.365925 211.496573 
L 74.365925 170.095202 
L 77.708892 170.095202 
L 77.708892 149.394516 
L 79.380376 149.394516 
L 79.380376 139.044174 
L 81.05186 139.044174 
L 81.05186 128.693831 
L 87.737796 128.693831 
L 87.737796 97.642803 
L 89.40928 97.642803 
L 89.40928 87.29246 
L 107.795603 87.29246 
L 107.795603 76.942117 
L 109.467087 76.942117 
L 109.467087 66.591775 
L 112.810055 66.591775 
L 112.810055 56.241432 
L 154.597153 56.241432 
L 154.597153 45.891089 
L 186.355347 45.891089 
L 189.698315 45.891089 
L 203.070186 45.891089 
L 206.413154 45.891089 
L 273.272511 45.891089 
L 276.615479 45.891089 
L 303.359221 45.891089 
L 306.702189 45.891089 
L 310.045157 45.891089 
L 315.059609 45.891089 
L 321.745545 45.891089 
" style="fill:none;stroke:#202020;stroke-linecap:round;stroke-opacity:0.7;stroke-width:3;"/>
   </g>
   <g id="line2d_14">
    <path clip-path="url(#p074e916f84)" d="M 52.636634 315 
L 52.636634 304.649657 
L 52.636634 283.948972 
L 60.994053 283.948972 
L 60.994053 273.598629 
L 62.665537 273.598629 
L 62.665537 263.248286 
L 64.337021 263.248286 
L 64.337021 232.197258 
L 66.008505 232.197258 
L 66.008505 221.846915 
L 69.351473 221.846915 
L 69.351473 211.496573 
L 76.037409 211.496573 
L 76.037409 201.14623 
L 82.723344 201.14623 
L 82.723344 180.445545 
L 86.066312 180.445545 
L 86.066312 149.394516 
L 91.080764 149.394516 
L 91.080764 139.044174 
L 96.095216 139.044174 
L 96.095216 128.693831 
L 112.810055 128.693831 
L 112.810055 118.343488 
L 116.153023 118.343488 
L 116.153023 107.993145 
L 131.196378 107.993145 
L 131.196378 97.642803 
L 176.326444 97.642803 
L 176.326444 87.29246 
L 199.727218 87.29246 
L 199.727218 76.942117 
L 203.070186 76.942117 
L 203.070186 66.591775 
L 251.54322 66.591775 
L 251.54322 56.241432 
L 258.229156 56.241432 
L 261.572123 56.241432 
L 284.972898 56.241432 
L 284.972898 45.891089 
L 291.658834 45.891089 
L 296.673286 45.891089 
L 310.045157 45.891089 
L 315.059609 45.891089 
L 318.402577 45.891089 
L 321.745545 45.891089 
" style="fill:none;stroke:#353535;stroke-linecap:round;stroke-opacity:0.7;stroke-width:3;"/>
   </g>
   <g id="line2d_15">
    <path clip-path="url(#p074e916f84)" d="M 52.636634 315 
L 52.636634 304.649657 
L 52.636634 283.948972 
L 54.318564 283.948972 
L 54.318564 273.598629 
L 56.000495 273.598629 
L 56.000495 242.547601 
L 57.682426 242.547601 
L 57.682426 232.197258 
L 59.364356 232.197258 
L 59.364356 221.846915 
L 61.046287 221.846915 
L 61.046287 201.14623 
L 62.728218 201.14623 
L 62.728218 190.795887 
L 64.410149 190.795887 
L 64.410149 170.095202 
L 74.501733 170.095202 
L 74.501733 139.044174 
L 81.229455 139.044174 
L 81.229455 128.693831 
L 84.593317 128.693831 
L 84.593317 118.343488 
L 91.32104 118.343488 
L 91.32104 107.993145 
L 108.140347 107.993145 
L 108.140347 97.642803 
L 118.231931 97.642803 
L 121.595792 97.642803 
L 121.595792 76.942117 
L 123.277723 76.942117 
L 123.277723 66.591775 
L 126.641584 66.591775 
L 126.641584 56.241432 
L 151.870545 56.241432 
L 155.234406 56.241432 
L 180.463366 56.241432 
L 183.827228 56.241432 
L 185.509158 56.241432 
L 185.509158 45.891089 
L 294.834653 45.891089 
L 299.880446 45.891089 
L 304.926238 45.891089 
L 308.290099 45.891089 
L 311.65396 45.891089 
L 316.699752 45.891089 
L 321.745545 45.891089 
" style="fill:none;stroke:#505050;stroke-linecap:round;stroke-opacity:0.7;stroke-width:3;"/>
   </g>
   <g id="line2d_16">
    <path clip-path="url(#p074e916f84)" d="M 52.636634 315 
L 52.636634 304.649657 
L 56.000495 304.649657 
L 56.000495 294.299315 
L 57.682426 294.299315 
L 57.682426 263.248286 
L 61.046287 263.248286 
L 61.046287 242.547601 
L 62.728218 242.547601 
L 62.728218 211.496573 
L 64.410149 211.496573 
L 64.410149 180.445545 
L 71.137871 180.445545 
L 71.137871 159.744859 
L 72.819802 159.744859 
L 72.819802 149.394516 
L 74.501733 149.394516 
L 74.501733 128.693831 
L 89.639109 128.693831 
L 89.639109 118.343488 
L 94.684901 118.343488 
L 94.684901 107.993145 
L 111.504208 107.993145 
L 111.504208 97.642803 
L 116.55 97.642803 
L 116.55 87.29246 
L 150.188614 87.29246 
L 150.188614 76.942117 
L 160.280198 76.942117 
L 160.280198 66.591775 
L 217.465842 66.591775 
L 220.829703 66.591775 
L 251.104455 66.591775 
L 251.104455 56.241432 
L 281.379208 56.241432 
L 281.379208 45.891089 
L 304.926238 45.891089 
L 309.97203 45.891089 
L 321.745545 45.891089 
" style="fill:none;stroke:#656565;stroke-linecap:round;stroke-opacity:0.7;stroke-width:3;"/>
   </g>
   <g id="line2d_17">
    <path clip-path="url(#p074e916f84)" d="M 52.636634 315 
L 52.636634 304.649657 
L 54.318564 304.649657 
L 54.318564 221.846915 
L 56.000495 221.846915 
L 56.000495 211.496573 
L 66.092079 211.496573 
L 66.092079 201.14623 
L 71.137871 201.14623 
L 71.137871 190.795887 
L 74.501733 190.795887 
L 74.501733 180.445545 
L 76.183663 180.445545 
L 76.183663 159.744859 
L 79.547525 159.744859 
L 79.547525 149.394516 
L 81.229455 149.394516 
L 81.229455 139.044174 
L 93.00297 139.044174 
L 93.00297 128.693831 
L 96.366832 128.693831 
L 96.366832 118.343488 
L 101.412624 118.343488 
L 101.412624 107.993145 
L 108.140347 107.993145 
L 108.140347 97.642803 
L 118.231931 97.642803 
L 118.231931 76.942117 
L 121.595792 76.942117 
L 121.595792 66.591775 
L 128.323515 66.591775 
L 128.323515 56.241432 
L 230.921287 56.241432 
L 230.921287 45.891089 
L 279.697277 45.891089 
L 283.061139 45.891089 
L 303.244307 45.891089 
L 308.290099 45.891089 
L 311.65396 45.891089 
L 318.381683 45.891089 
L 321.745545 45.891089 
" style="fill:none;stroke:#808080;stroke-linecap:round;stroke-opacity:0.7;stroke-width:3;"/>
   </g>
   <g id="line2d_18">
    <path clip-path="url(#p074e916f84)" d="M 52.636634 315 
L 55.354905 271.528561 
L 58.073177 246.687738 
L 60.791449 240.477532 
L 63.509721 217.706778 
L 66.227993 197.006093 
L 68.946265 197.006093 
L 71.664536 188.725819 
L 74.382808 178.375476 
L 77.10108 159.744859 
L 79.819352 151.464585 
L 82.537624 145.254379 
L 85.255896 139.044174 
L 87.974167 126.623762 
L 90.692439 122.483625 
L 93.410711 116.27342 
L 96.128983 112.133283 
L 98.847255 110.063214 
L 101.565527 107.993145 
L 104.283798 107.993145 
L 107.00207 107.993145 
L 109.720342 99.712871 
L 112.438614 97.642803 
L 115.156886 93.502666 
L 117.875158 89.362529 
L 120.593429 85.222391 
L 123.311701 76.942117 
L 126.029973 76.942117 
L 128.748245 72.80198 
L 131.466517 70.731912 
L 134.184788 70.731912 
L 136.90306 70.731912 
L 139.621332 70.731912 
L 142.339604 70.731912 
L 145.057876 70.731912 
L 147.776148 70.731912 
L 150.494419 68.661843 
L 153.212691 68.661843 
L 155.930963 66.591775 
L 158.649235 66.591775 
L 161.367507 64.521706 
L 164.085779 64.521706 
L 166.80405 64.521706 
L 169.522322 64.521706 
L 172.240594 64.521706 
L 174.958866 64.521706 
L 177.677138 62.451637 
L 180.39541 62.451637 
L 183.113681 62.451637 
L 185.831953 60.381569 
L 188.550225 60.381569 
L 191.268497 60.381569 
L 193.986769 60.381569 
L 196.705041 60.381569 
L 199.423312 60.381569 
L 202.141584 58.3115 
L 204.859856 56.241432 
L 207.578128 56.241432 
L 210.2964 56.241432 
L 213.014671 56.241432 
L 215.732943 56.241432 
L 218.451215 56.241432 
L 221.169487 56.241432 
L 223.887759 56.241432 
L 226.606031 56.241432 
L 229.324302 56.241432 
L 232.042574 54.171363 
L 234.760846 54.171363 
L 237.479118 54.171363 
L 240.19739 54.171363 
L 242.915662 54.171363 
L 245.633933 54.171363 
L 248.352205 54.171363 
L 251.070477 54.171363 
L 253.788749 50.031226 
L 256.507021 50.031226 
L 259.225293 50.031226 
L 261.943564 50.031226 
L 264.661836 50.031226 
L 267.380108 50.031226 
L 270.09838 50.031226 
L 272.816652 50.031226 
L 275.534923 50.031226 
L 278.253195 50.031226 
L 280.971467 50.031226 
L 283.689739 47.961158 
L 286.408011 45.891089 
L 289.126283 45.891089 
L 291.844554 45.891089 
L 294.562826 45.891089 
L 297.281098 45.891089 
L 299.99937 45.891089 
L 302.717642 45.891089 
L 305.435914 45.891089 
L 308.154185 45.891089 
L 310.872457 45.891089 
L 313.590729 45.891089 
L 316.309001 45.891089 
L 319.027273 45.891089 
L 321.745545 45.891089 
" style="fill:none;stroke:#87001d;stroke-linecap:round;stroke-width:3;"/>
   </g>
   <g id="patch_3">
    <path d="M 47.254455 315 
L 47.254455 43.2 
" style="fill:none;stroke:#262626;stroke-linecap:square;stroke-linejoin:miter;stroke-width:1.5;"/>
   </g>
   <g id="patch_4">
    <path d="M 47.254455 315 
L 321.745545 315 
" style="fill:none;stroke:#262626;stroke-linecap:square;stroke-linejoin:miter;stroke-width:1.5;"/>
   </g>
   <g id="legend_1">
    <g id="line2d_19">
     <path d="M 72.545545 191.412813 
L 100.545545 191.412813 
" style="fill:none;stroke:#202020;stroke-linecap:round;stroke-opacity:0.7;stroke-width:3;"/>
    </g>
    <g id="line2d_20"/>
    <g id="text_15">
     <text style="fill:#262626;font-family:Cantarell;font-size:14px;font-style:normal;font-weight:normal;text-anchor:start;" transform="rotate(-0, 111.745545, 196.312813)" x="111.745545" y="196.312813">ROC fold 0 (AUC = 0.91)</text>
    </g>
    <g id="line2d_21">
     <path d="M 72.545545 211.935937 
L 100.545545 211.935937 
" style="fill:none;stroke:#353535;stroke-linecap:round;stroke-opacity:0.7;stroke-width:3;"/>
    </g>
    <g id="line2d_22"/>
    <g id="text_16">
     <text style="fill:#262626;font-family:Cantarell;font-size:14px;font-style:normal;font-weight:normal;text-anchor:start;" transform="rotate(-0, 111.745545, 216.835938)" x="111.745545" y="216.835938">ROC fold 1 (AUC = 0.80)</text>
    </g>
    <g id="line2d_23">
     <path d="M 72.545545 232.459062 
L 100.545545 232.459062 
" style="fill:none;stroke:#505050;stroke-linecap:round;stroke-opacity:0.7;stroke-width:3;"/>
    </g>
    <g id="line2d_24"/>
    <g id="text_17">
     <text style="fill:#262626;font-family:Cantarell;font-size:14px;font-style:normal;font-weight:normal;text-anchor:start;" transform="rotate(-0, 111.745545, 237.359062)" x="111.745545" y="237.359062">ROC fold 2 (AUC = 0.90)</text>
    </g>
    <g id="line2d_25">
     <path d="M 72.545545 252.982187 
L 100.545545 252.982187 
" style="fill:none;stroke:#656565;stroke-linecap:round;stroke-opacity:0.7;stroke-width:3;"/>
    </g>
    <g id="line2d_26"/>
    <g id="text_18">
     <text style="fill:#262626;font-family:Cantarell;font-size:14px;font-style:normal;font-weight:normal;text-anchor:start;" transform="rotate(-0, 111.745545, 257.882187)" x="111.745545" y="257.882187">ROC fold 3 (AUC = 0.85)</text>
    </g>
    <g id="line2d_27">
     <path d="M 72.545545 273.505313 
L 100.545545 273.505313 
" style="fill:none;stroke:#808080;stroke-linecap:round;stroke-opacity:0.7;stroke-width:3;"/>
    </g>
    <g id="line2d_28"/>
    <g id="text_19">
     <text style="fill:#262626;font-family:Cantarell;font-size:14px;font-style:normal;font-weight:normal;text-anchor:start;" transform="rotate(-0, 111.745545, 278.405313)" x="111.745545" y="278.405313">ROC fold 4 (AUC = 0.88)</text>
    </g>
    <g id="line2d_29">
     <path d="M 72.545545 294.028437 
L 100.545545 294.028437 
" style="fill:none;stroke:#87001d;stroke-linecap:round;stroke-width:3;"/>
    </g>
    <g id="line2d_30"/>
    <g id="text_20">
     <!-- Mean ROC (AUC = 0.87 $\pm$ 0.04) -->
     <g style="fill:#262626;" transform="translate(111.745545 298.928437)">
      <text>
       <tspan style="font-family:Cantarell;font-size:14px;font-style:regular;font-weight:regular;" x="0 11.829987 19.039978 25.773972 33.305969 37.12796 45.429947 56.097946 64.931946 68.753937 73.82193 82.151917 91.685913 100.519913 104.341904 113.9039 117.725891 125.761887 129.261887 137.297882 145.333878 160.886337 164.708328 172.744324 176.244324 184.280319 192.316315" y="-0.78125">Mean ROC (AUC = 0.87  0.04)</tspan>
       <tspan style="font-family:DejaVu Sans;font-size:14px;font-style:book;font-weight:book;" x="149.155869" y="-0.78125">±</tspan>
      </text>
     </g>
    </g>
   </g>
  </g>
 </g>
 <defs>
  <clipPath id="p074e916f84">
   <rect height="271.8" width="274.491089" x="47.254455" y="43.2"/>
  </clipPath>
 </defs>
</svg>
