<?xml version="1.0" encoding="utf-8" standalone="no"?>
<!DOCTYPE svg PUBLIC "-//W3C//DTD SVG 1.1//EN"
  "http://www.w3.org/Graphics/SVG/1.1/DTD/svg11.dtd">
<svg xmlns:xlink="http://www.w3.org/1999/xlink" width="360pt" height="360pt" viewBox="0 0 360 360" xmlns="http://www.w3.org/2000/svg" version="1.1">
 <metadata>
  <rdf:RDF xmlns:dc="http://purl.org/dc/elements/1.1/" xmlns:cc="http://creativecommons.org/ns#" xmlns:rdf="http://www.w3.org/1999/02/22-rdf-syntax-ns#">
   <cc:Work>
    <dc:type rdf:resource="http://purl.org/dc/dcmitype/StillImage"/>
    <dc:date>2023-12-05T14:14:30.777406</dc:date>
    <dc:format>image/svg+xml</dc:format>
    <dc:creator>
     <cc:Agent>
      <dc:title>Matplotlib v3.5.3, https://matplotlib.org/</dc:title>
     </cc:Agent>
    </dc:creator>
   </cc:Work>
  </rdf:RDF>
 </metadata>
 <defs>
  <style type="text/css">*{stroke-linejoin: round; stroke-linecap: butt}</style>
 </defs>
 <g id="figure_1">
  <g id="patch_1">
   <path d="M 0 360 
L 360 360 
L 360 0 
L 0 0 
z
" style="fill: #ffffff"/>
  </g>
  <g id="axes_1">
   <g id="patch_2">
    <path d="M 45 319.932353 
L 324 319.932353 
L 324 43.667647 
L 45 43.667647 
z
" style="fill: #ffffff"/>
   </g>
   <g id="matplotlib.axis_1">
    <g id="xtick_1">
     <g id="line2d_1">
      <defs>
       <path id="m0c7984ff31" d="M 0 0 
L 0 3.5 
" style="stroke: #262626; stroke-width: 1.5"/>
      </defs>
      <g>
       <use xlink:href="#m0c7984ff31" x="50.470588" y="319.932353" style="fill: #262626; stroke: #262626; stroke-width: 1.5"/>
      </g>
     </g>
     <g id="text_1">
      <text style="fill: #262626; font: 14px 'sans-serif'; text-anchor: middle" x="50.470588" y="337.570165" transform="rotate(-0, 50.470588, 337.570165)">0.0</text>
     </g>
    </g>
    <g id="xtick_2">
     <g id="line2d_2">
      <g>
       <use xlink:href="#m0c7984ff31" x="105.176471" y="319.932353" style="fill: #262626; stroke: #262626; stroke-width: 1.5"/>
      </g>
     </g>
     <g id="text_2">
      <text style="fill: #262626; font: 14px 'sans-serif'; text-anchor: middle" x="105.176471" y="337.570165" transform="rotate(-0, 105.176471, 337.570165)">0.2</text>
     </g>
    </g>
    <g id="xtick_3">
     <g id="line2d_3">
      <g>
       <use xlink:href="#m0c7984ff31" x="159.882353" y="319.932353" style="fill: #262626; stroke: #262626; stroke-width: 1.5"/>
      </g>
     </g>
     <g id="text_3">
      <text style="fill: #262626; font: 14px 'sans-serif'; text-anchor: middle" x="159.882353" y="337.570165" transform="rotate(-0, 159.882353, 337.570165)">0.4</text>
     </g>
    </g>
    <g id="xtick_4">
     <g id="line2d_4">
      <g>
       <use xlink:href="#m0c7984ff31" x="214.588235" y="319.932353" style="fill: #262626; stroke: #262626; stroke-width: 1.5"/>
      </g>
     </g>
     <g id="text_4">
      <text style="fill: #262626; font: 14px 'sans-serif'; text-anchor: middle" x="214.588235" y="337.570165" transform="rotate(-0, 214.588235, 337.570165)">0.6</text>
     </g>
    </g>
    <g id="xtick_5">
     <g id="line2d_5">
      <g>
       <use xlink:href="#m0c7984ff31" x="269.294118" y="319.932353" style="fill: #262626; stroke: #262626; stroke-width: 1.5"/>
      </g>
     </g>
     <g id="text_5">
      <text style="fill: #262626; font: 14px 'sans-serif'; text-anchor: middle" x="269.294118" y="337.570165" transform="rotate(-0, 269.294118, 337.570165)">0.8</text>
     </g>
    </g>
    <g id="xtick_6">
     <g id="line2d_6">
      <g>
       <use xlink:href="#m0c7984ff31" x="324" y="319.932353" style="fill: #262626; stroke: #262626; stroke-width: 1.5"/>
      </g>
     </g>
     <g id="text_6">
      <text style="fill: #262626; font: 14px 'sans-serif'; text-anchor: middle" x="324" y="337.570165" transform="rotate(-0, 324, 337.570165)">1.0</text>
     </g>
    </g>
    <g id="text_7">
     <text style="fill: #262626; font: 14px 'sans-serif'; text-anchor: middle" x="184.5" y="355.11954" transform="rotate(-0, 184.5, 355.11954)">False Positive Rate (Positive label: 1.0)</text>
    </g>
   </g>
   <g id="matplotlib.axis_2">
    <g id="ytick_1">
     <g id="line2d_7">
      <defs>
       <path id="m909457058a" d="M 0 0 
L -3.5 0 
" style="stroke: #262626; stroke-width: 1.5"/>
      </defs>
      <g>
       <use xlink:href="#m909457058a" x="45" y="319.932353" style="fill: #262626; stroke: #262626; stroke-width: 1.5"/>
      </g>
     </g>
     <g id="text_8">
      <text style="fill: #262626; font: 14px 'sans-serif'; text-anchor: end" x="38" y="325.251259" transform="rotate(-0, 38, 325.251259)">0.0</text>
     </g>
    </g>
    <g id="ytick_2">
     <g id="line2d_8">
      <g>
       <use xlink:href="#m909457058a" x="45" y="265.226471" style="fill: #262626; stroke: #262626; stroke-width: 1.5"/>
      </g>
     </g>
     <g id="text_9">
      <text style="fill: #262626; font: 14px 'sans-serif'; text-anchor: end" x="38" y="270.545377" transform="rotate(-0, 38, 270.545377)">0.2</text>
     </g>
    </g>
    <g id="ytick_3">
     <g id="line2d_9">
      <g>
       <use xlink:href="#m909457058a" x="45" y="210.520588" style="fill: #262626; stroke: #262626; stroke-width: 1.5"/>
      </g>
     </g>
     <g id="text_10">
      <text style="fill: #262626; font: 14px 'sans-serif'; text-anchor: end" x="38" y="215.839494" transform="rotate(-0, 38, 215.839494)">0.4</text>
     </g>
    </g>
    <g id="ytick_4">
     <g id="line2d_10">
      <g>
       <use xlink:href="#m909457058a" x="45" y="155.814706" style="fill: #262626; stroke: #262626; stroke-width: 1.5"/>
      </g>
     </g>
     <g id="text_11">
      <text style="fill: #262626; font: 14px 'sans-serif'; text-anchor: end" x="38" y="161.133612" transform="rotate(-0, 38, 161.133612)">0.6</text>
     </g>
    </g>
    <g id="ytick_5">
     <g id="line2d_11">
      <g>
       <use xlink:href="#m909457058a" x="45" y="101.108824" style="fill: #262626; stroke: #262626; stroke-width: 1.5"/>
      </g>
     </g>
     <g id="text_12">
      <text style="fill: #262626; font: 14px 'sans-serif'; text-anchor: end" x="38" y="106.42773" transform="rotate(-0, 38, 106.42773)">0.8</text>
     </g>
    </g>
    <g id="ytick_6">
     <g id="line2d_12">
      <g>
       <use xlink:href="#m909457058a" x="45" y="46.402941" style="fill: #262626; stroke: #262626; stroke-width: 1.5"/>
      </g>
     </g>
     <g id="text_13">
      <text style="fill: #262626; font: 14px 'sans-serif'; text-anchor: end" x="38" y="51.721847" transform="rotate(-0, 38, 51.721847)">1.0</text>
     </g>
    </g>
    <g id="text_14">
     <text style="fill: #262626; font: 14px 'sans-serif'; text-anchor: middle" x="8.824062" y="181.8" transform="rotate(-90, 8.824062, 181.8)">True Positive Rate (Positive label: 1.0)</text>
    </g>
   </g>
   <g id="PolyCollection_1">
    <defs>
     <path id="m7fd373c68f" d="M 50.470588 -40.067647 
L 50.470588 -40.067647 
L 53.233512 -84.253167 
L 55.996435 -109.502036 
L 58.759358 -113.710181 
L 61.522282 -143.167195 
L 64.285205 -159.999774 
L 67.048128 -159.999774 
L 69.811052 -170.520136 
L 72.573975 -185.248643 
L 75.336898 -197.873077 
L 78.099822 -208.393439 
L 80.862745 -214.705656 
L 83.625668 -218.913801 
L 86.388592 -231.538235 
L 89.151515 -235.74638 
L 91.914439 -242.058597 
L 94.677362 -246.266742 
L 97.440285 -248.370814 
L 100.203209 -252.578959 
L 102.966132 -252.578959 
L 105.729055 -254.683032 
L 108.491979 -263.099321 
L 111.254902 -267.307466 
L 114.017825 -271.515611 
L 116.780749 -275.723756 
L 119.543672 -279.9319 
L 122.306595 -282.035973 
L 125.069519 -284.140045 
L 127.832442 -286.244118 
L 130.595365 -288.34819 
L 133.358289 -288.34819 
L 136.121212 -288.34819 
L 138.884135 -288.34819 
L 141.647059 -288.34819 
L 144.409982 -288.34819 
L 147.172906 -288.34819 
L 149.935829 -290.452262 
L 152.698752 -290.452262 
L 155.461676 -292.556335 
L 158.224599 -292.556335 
L 160.987522 -294.660407 
L 163.750446 -294.660407 
L 166.513369 -294.660407 
L 169.276292 -294.660407 
L 172.039216 -294.660407 
L 174.802139 -294.660407 
L 177.565062 -296.76448 
L 180.327986 -296.76448 
L 183.090909 -298.868552 
L 185.853832 -298.868552 
L 188.616756 -298.868552 
L 191.379679 -298.868552 
L 194.142602 -298.868552 
L 196.905526 -298.868552 
L 199.668449 -298.868552 
L 202.431373 -300.972624 
L 205.194296 -303.076697 
L 207.957219 -303.076697 
L 210.720143 -303.076697 
L 213.483066 -303.076697 
L 216.245989 -303.076697 
L 219.008913 -303.076697 
L 221.771836 -303.076697 
L 224.534759 -303.076697 
L 227.297683 -303.076697 
L 230.060606 -303.076697 
L 232.823529 -305.180769 
L 235.586453 -305.180769 
L 238.349376 -305.180769 
L 241.112299 -305.180769 
L 243.875223 -305.180769 
L 246.638146 -305.180769 
L 249.40107 -305.180769 
L 252.163993 -305.180769 
L 254.926916 -309.388914 
L 257.68984 -309.388914 
L 260.452763 -309.388914 
L 263.215686 -309.388914 
L 265.97861 -309.388914 
L 268.741533 -309.388914 
L 271.504456 -309.388914 
L 274.26738 -309.388914 
L 277.030303 -309.388914 
L 279.793226 -309.388914 
L 282.55615 -309.388914 
L 285.319073 -311.492986 
L 288.081996 -313.597059 
L 290.84492 -313.597059 
L 293.607843 -313.597059 
L 296.370766 -313.597059 
L 299.13369 -313.597059 
L 301.896613 -313.597059 
L 304.659537 -313.597059 
L 307.42246 -313.597059 
L 310.185383 -313.597059 
L 312.948307 -313.597059 
L 315.71123 -313.597059 
L 318.474153 -313.597059 
L 321.237077 -313.597059 
L 324 -313.597059 
L 324 -40.067647 
L 324 -40.067647 
L 321.237077 -40.067647 
L 318.474153 -40.067647 
L 315.71123 -40.067647 
L 312.948307 -40.067647 
L 310.185383 -40.067647 
L 307.42246 -40.067647 
L 304.659537 -40.067647 
L 301.896613 -40.067647 
L 299.13369 -40.067647 
L 296.370766 -40.067647 
L 293.607843 -40.067647 
L 290.84492 -40.067647 
L 288.081996 -40.067647 
L 285.319073 -40.067647 
L 282.55615 -40.067647 
L 279.793226 -40.067647 
L 277.030303 -40.067647 
L 274.26738 -40.067647 
L 271.504456 -40.067647 
L 268.741533 -40.067647 
L 265.97861 -40.067647 
L 263.215686 -40.067647 
L 260.452763 -40.067647 
L 257.68984 -40.067647 
L 254.926916 -40.067647 
L 252.163993 -40.067647 
L 249.40107 -40.067647 
L 246.638146 -40.067647 
L 243.875223 -40.067647 
L 241.112299 -40.067647 
L 238.349376 -40.067647 
L 235.586453 -40.067647 
L 232.823529 -40.067647 
L 230.060606 -40.067647 
L 227.297683 -40.067647 
L 224.534759 -40.067647 
L 221.771836 -40.067647 
L 219.008913 -40.067647 
L 216.245989 -40.067647 
L 213.483066 -40.067647 
L 210.720143 -40.067647 
L 207.957219 -40.067647 
L 205.194296 -40.067647 
L 202.431373 -40.067647 
L 199.668449 -40.067647 
L 196.905526 -40.067647 
L 194.142602 -40.067647 
L 191.379679 -40.067647 
L 188.616756 -40.067647 
L 185.853832 -40.067647 
L 183.090909 -40.067647 
L 180.327986 -40.067647 
L 177.565062 -40.067647 
L 174.802139 -40.067647 
L 172.039216 -40.067647 
L 169.276292 -40.067647 
L 166.513369 -40.067647 
L 163.750446 -40.067647 
L 160.987522 -40.067647 
L 158.224599 -40.067647 
L 155.461676 -40.067647 
L 152.698752 -40.067647 
L 149.935829 -40.067647 
L 147.172906 -40.067647 
L 144.409982 -40.067647 
L 141.647059 -40.067647 
L 138.884135 -40.067647 
L 136.121212 -40.067647 
L 133.358289 -40.067647 
L 130.595365 -40.067647 
L 127.832442 -40.067647 
L 125.069519 -40.067647 
L 122.306595 -40.067647 
L 119.543672 -40.067647 
L 116.780749 -40.067647 
L 114.017825 -40.067647 
L 111.254902 -40.067647 
L 108.491979 -40.067647 
L 105.729055 -40.067647 
L 102.966132 -40.067647 
L 100.203209 -40.067647 
L 97.440285 -40.067647 
L 94.677362 -40.067647 
L 91.914439 -40.067647 
L 89.151515 -40.067647 
L 86.388592 -40.067647 
L 83.625668 -40.067647 
L 80.862745 -40.067647 
L 78.099822 -40.067647 
L 75.336898 -40.067647 
L 72.573975 -40.067647 
L 69.811052 -40.067647 
L 67.048128 -40.067647 
L 64.285205 -40.067647 
L 61.522282 -40.067647 
L 58.759358 -40.067647 
L 55.996435 -40.067647 
L 53.233512 -40.067647 
L 50.470588 -40.067647 
z
" style="stroke: #87001d; stroke-opacity: 0.2"/>
    </defs>
    <g clip-path="url(#p5abce5745e)">
     <use xlink:href="#m7fd373c68f" x="0" y="360" style="fill: #87001d; fill-opacity: 0.2; stroke: #87001d; stroke-opacity: 0.2"/>
    </g>
   </g>
   <g id="line2d_13">
    <path d="M 50.470588 319.932353 
L 50.470588 309.411991 
L 50.470588 277.850905 
L 53.868469 277.850905 
L 53.868469 267.330543 
L 55.56741 267.330543 
L 55.56741 246.289819 
L 57.26635 246.289819 
L 57.26635 225.249095 
L 58.96529 225.249095 
L 58.96529 214.728733 
L 72.556814 214.728733 
L 72.556814 172.647285 
L 75.954695 172.647285 
L 75.954695 151.606561 
L 77.653635 151.606561 
L 77.653635 141.086199 
L 79.352576 141.086199 
L 79.352576 130.565837 
L 86.148338 130.565837 
L 86.148338 99.004751 
L 87.847278 99.004751 
L 87.847278 88.484389 
L 106.535623 88.484389 
L 106.535623 77.964027 
L 108.234563 77.964027 
L 108.234563 67.443665 
L 111.632444 67.443665 
L 111.632444 56.923303 
L 154.105955 56.923303 
L 154.105955 46.402941 
L 186.385824 46.402941 
L 189.783705 46.402941 
L 203.375228 46.402941 
L 206.773109 46.402941 
L 274.730727 46.402941 
L 278.128608 46.402941 
L 305.311655 46.402941 
L 308.709536 46.402941 
L 312.107417 46.402941 
L 317.204238 46.402941 
L 324 46.402941 
" clip-path="url(#p5abce5745e)" style="fill: none; stroke: #202020; stroke-opacity: 0.7; stroke-width: 3; stroke-linecap: round"/>
   </g>
   <g id="line2d_14">
    <path d="M 50.470588 319.932353 
L 50.470588 309.411991 
L 50.470588 288.371267 
L 58.96529 288.371267 
L 58.96529 277.850905 
L 60.664231 277.850905 
L 60.664231 267.330543 
L 62.363171 267.330543 
L 62.363171 235.769457 
L 64.062112 235.769457 
L 64.062112 225.249095 
L 67.459993 225.249095 
L 67.459993 214.728733 
L 74.255754 214.728733 
L 74.255754 204.208371 
L 81.051516 204.208371 
L 81.051516 183.167647 
L 84.449397 183.167647 
L 84.449397 151.606561 
L 89.546218 151.606561 
L 89.546218 141.086199 
L 94.64304 141.086199 
L 94.64304 130.565837 
L 111.632444 130.565837 
L 111.632444 120.045475 
L 115.030325 120.045475 
L 115.030325 109.525113 
L 130.320789 109.525113 
L 130.320789 99.004751 
L 176.192181 99.004751 
L 176.192181 88.484389 
L 199.977347 88.484389 
L 199.977347 77.964027 
L 203.375228 77.964027 
L 203.375228 67.443665 
L 252.644501 67.443665 
L 252.644501 56.923303 
L 259.440263 56.923303 
L 262.838144 56.923303 
L 286.62331 56.923303 
L 286.62331 46.402941 
L 293.419072 46.402941 
L 298.515893 46.402941 
L 312.107417 46.402941 
L 317.204238 46.402941 
L 320.602119 46.402941 
L 324 46.402941 
" clip-path="url(#p5abce5745e)" style="fill: none; stroke: #353535; stroke-opacity: 0.7; stroke-width: 3; stroke-linecap: round"/>
   </g>
   <g id="line2d_15">
    <path d="M 50.470588 319.932353 
L 50.470588 309.411991 
L 50.470588 277.850905 
L 55.599265 277.850905 
L 55.599265 235.769457 
L 59.018382 235.769457 
L 59.018382 172.647285 
L 67.566176 172.647285 
L 67.566176 162.126923 
L 70.985294 162.126923 
L 70.985294 141.086199 
L 76.113971 141.086199 
L 76.113971 130.565837 
L 89.790441 130.565837 
L 89.790441 120.045475 
L 93.209559 120.045475 
L 93.209559 109.525113 
L 98.338235 109.525113 
L 98.338235 99.004751 
L 105.176471 99.004751 
L 105.176471 88.484389 
L 106.886029 88.484389 
L 106.886029 77.964027 
L 108.595588 77.964027 
L 108.595588 67.443665 
L 113.724265 67.443665 
L 117.143382 67.443665 
L 123.981618 67.443665 
L 123.981618 56.923303 
L 182.106618 56.923303 
L 182.106618 46.402941 
L 305.194853 46.402941 
L 308.613971 46.402941 
L 313.742647 46.402941 
L 317.161765 46.402941 
L 318.871324 46.402941 
L 322.290441 46.402941 
L 324 46.402941 
" clip-path="url(#p5abce5745e)" style="fill: none; stroke: #505050; stroke-opacity: 0.7; stroke-width: 3; stroke-linecap: round"/>
   </g>
   <g id="line2d_16">
    <path d="M 50.470588 319.932353 
L 50.470588 309.411991 
L 53.889706 309.411991 
L 53.889706 298.891629 
L 55.599265 298.891629 
L 55.599265 267.330543 
L 59.018382 267.330543 
L 59.018382 246.289819 
L 60.727941 246.289819 
L 60.727941 214.728733 
L 62.4375 214.728733 
L 62.4375 183.167647 
L 69.275735 183.167647 
L 69.275735 162.126923 
L 70.985294 162.126923 
L 70.985294 151.606561 
L 72.694853 151.606561 
L 72.694853 130.565837 
L 79.533088 130.565837 
L 79.533088 120.045475 
L 88.080882 120.045475 
L 88.080882 109.525113 
L 110.305147 109.525113 
L 110.305147 99.004751 
L 115.433824 99.004751 
L 115.433824 88.484389 
L 149.625 88.484389 
L 149.625 77.964027 
L 159.882353 77.964027 
L 159.882353 67.443665 
L 218.007353 67.443665 
L 221.426471 67.443665 
L 252.198529 67.443665 
L 252.198529 56.923303 
L 282.970588 56.923303 
L 282.970588 46.402941 
L 306.904412 46.402941 
L 312.033088 46.402941 
L 324 46.402941 
" clip-path="url(#p5abce5745e)" style="fill: none; stroke: #656565; stroke-opacity: 0.7; stroke-width: 3; stroke-linecap: round"/>
   </g>
   <g id="line2d_17">
    <path d="M 50.470588 319.932353 
L 50.470588 309.411991 
L 52.180147 309.411991 
L 52.180147 225.249095 
L 53.889706 225.249095 
L 53.889706 214.728733 
L 64.147059 214.728733 
L 64.147059 204.208371 
L 69.275735 204.208371 
L 69.275735 193.688009 
L 72.694853 193.688009 
L 72.694853 183.167647 
L 74.404412 183.167647 
L 74.404412 162.126923 
L 77.823529 162.126923 
L 77.823529 151.606561 
L 79.533088 151.606561 
L 79.533088 141.086199 
L 91.5 141.086199 
L 91.5 130.565837 
L 94.919118 130.565837 
L 94.919118 120.045475 
L 100.047794 120.045475 
L 100.047794 109.525113 
L 106.886029 109.525113 
L 106.886029 99.004751 
L 117.143382 99.004751 
L 117.143382 77.964027 
L 120.5625 77.964027 
L 120.5625 67.443665 
L 127.400735 67.443665 
L 127.400735 56.923303 
L 231.683824 56.923303 
L 231.683824 46.402941 
L 281.261029 46.402941 
L 284.680147 46.402941 
L 305.194853 46.402941 
L 310.323529 46.402941 
L 313.742647 46.402941 
L 320.580882 46.402941 
L 324 46.402941 
" clip-path="url(#p5abce5745e)" style="fill: none; stroke: #808080; stroke-opacity: 0.7; stroke-width: 3; stroke-linecap: round"/>
   </g>
   <g id="line2d_18">
    <path d="M 50.470588 319.932353 
L 53.233512 275.746833 
L 55.996435 250.497964 
L 58.759358 246.289819 
L 61.522282 216.832805 
L 64.285205 200.000226 
L 67.048128 200.000226 
L 69.811052 189.479864 
L 72.573975 174.751357 
L 75.336898 162.126923 
L 78.099822 151.606561 
L 80.862745 145.294344 
L 83.625668 141.086199 
L 86.388592 128.461765 
L 89.151515 124.25362 
L 91.914439 117.941403 
L 94.677362 113.733258 
L 97.440285 111.629186 
L 100.203209 107.421041 
L 102.966132 107.421041 
L 105.729055 105.316968 
L 108.491979 96.900679 
L 111.254902 92.692534 
L 114.017825 88.484389 
L 116.780749 84.276244 
L 119.543672 80.0681 
L 122.306595 77.964027 
L 125.069519 75.859955 
L 127.832442 73.755882 
L 130.595365 71.65181 
L 133.358289 71.65181 
L 136.121212 71.65181 
L 138.884135 71.65181 
L 141.647059 71.65181 
L 144.409982 71.65181 
L 147.172906 71.65181 
L 149.935829 69.547738 
L 152.698752 69.547738 
L 155.461676 67.443665 
L 158.224599 67.443665 
L 160.987522 65.339593 
L 163.750446 65.339593 
L 166.513369 65.339593 
L 169.276292 65.339593 
L 172.039216 65.339593 
L 174.802139 65.339593 
L 177.565062 63.23552 
L 180.327986 63.23552 
L 183.090909 61.131448 
L 185.853832 61.131448 
L 188.616756 61.131448 
L 191.379679 61.131448 
L 194.142602 61.131448 
L 196.905526 61.131448 
L 199.668449 61.131448 
L 202.431373 59.027376 
L 205.194296 56.923303 
L 207.957219 56.923303 
L 210.720143 56.923303 
L 213.483066 56.923303 
L 216.245989 56.923303 
L 219.008913 56.923303 
L 221.771836 56.923303 
L 224.534759 56.923303 
L 227.297683 56.923303 
L 230.060606 56.923303 
L 232.823529 54.819231 
L 235.586453 54.819231 
L 238.349376 54.819231 
L 241.112299 54.819231 
L 243.875223 54.819231 
L 246.638146 54.819231 
L 249.40107 54.819231 
L 252.163993 54.819231 
L 254.926916 50.611086 
L 257.68984 50.611086 
L 260.452763 50.611086 
L 263.215686 50.611086 
L 265.97861 50.611086 
L 268.741533 50.611086 
L 271.504456 50.611086 
L 274.26738 50.611086 
L 277.030303 50.611086 
L 279.793226 50.611086 
L 282.55615 50.611086 
L 285.319073 48.507014 
L 288.081996 46.402941 
L 290.84492 46.402941 
L 293.607843 46.402941 
L 296.370766 46.402941 
L 299.13369 46.402941 
L 301.896613 46.402941 
L 304.659537 46.402941 
L 307.42246 46.402941 
L 310.185383 46.402941 
L 312.948307 46.402941 
L 315.71123 46.402941 
L 318.474153 46.402941 
L 321.237077 46.402941 
L 324 46.402941 
" clip-path="url(#p5abce5745e)" style="fill: none; stroke: #87001d; stroke-width: 3; stroke-linecap: round"/>
   </g>
   <g id="patch_3">
    <path d="M 45 319.932353 
L 45 43.667647 
" style="fill: none; stroke: #262626; stroke-width: 1.5; stroke-linejoin: miter; stroke-linecap: square"/>
   </g>
   <g id="patch_4">
    <path d="M 45 319.932353 
L 324 319.932353 
" style="fill: none; stroke: #262626; stroke-width: 1.5; stroke-linejoin: miter; stroke-linecap: square"/>
   </g>
   <g id="legend_1">
    <g id="line2d_19">
     <path d="M 50.86 196.773915 
L 64.86 196.773915 
L 78.86 196.773915 
" style="fill: none; stroke: #202020; stroke-opacity: 0.7; stroke-width: 3; stroke-linecap: round"/>
    </g>
    <g id="text_15">
     <text style="fill: #262626; font: 14px 'sans-serif'; text-anchor: start" x="90.06" y="201.673915" transform="rotate(-0, 90.06, 201.673915)">ROC fold 0 (AUC = 0.91)</text>
    </g>
    <g id="line2d_20">
     <path d="M 50.86 217.32329 
L 64.86 217.32329 
L 78.86 217.32329 
" style="fill: none; stroke: #353535; stroke-opacity: 0.7; stroke-width: 3; stroke-linecap: round"/>
    </g>
    <g id="text_16">
     <text style="fill: #262626; font: 14px 'sans-serif'; text-anchor: start" x="90.06" y="222.22329" transform="rotate(-0, 90.06, 222.22329)">ROC fold 1 (AUC = 0.80)</text>
    </g>
    <g id="line2d_21">
     <path d="M 50.86 237.872665 
L 64.86 237.872665 
L 78.86 237.872665 
" style="fill: none; stroke: #505050; stroke-opacity: 0.7; stroke-width: 3; stroke-linecap: round"/>
    </g>
    <g id="text_17">
     <text style="fill: #262626; font: 14px 'sans-serif'; text-anchor: start" x="90.06" y="242.772665" transform="rotate(-0, 90.06, 242.772665)">ROC fold 2 (AUC = 0.91)</text>
    </g>
    <g id="line2d_22">
     <path d="M 50.86 258.42204 
L 64.86 258.42204 
L 78.86 258.42204 
" style="fill: none; stroke: #656565; stroke-opacity: 0.7; stroke-width: 3; stroke-linecap: round"/>
    </g>
    <g id="text_18">
     <text style="fill: #262626; font: 14px 'sans-serif'; text-anchor: start" x="90.06" y="263.32204" transform="rotate(-0, 90.06, 263.32204)">ROC fold 3 (AUC = 0.85)</text>
    </g>
    <g id="line2d_23">
     <path d="M 50.86 278.971415 
L 64.86 278.971415 
L 78.86 278.971415 
" style="fill: none; stroke: #808080; stroke-opacity: 0.7; stroke-width: 3; stroke-linecap: round"/>
    </g>
    <g id="text_19">
     <text style="fill: #262626; font: 14px 'sans-serif'; text-anchor: start" x="90.06" y="283.871415" transform="rotate(-0, 90.06, 283.871415)">ROC fold 4 (AUC = 0.88)</text>
    </g>
    <g id="line2d_24">
     <path d="M 50.86 299.52079 
L 64.86 299.52079 
L 78.86 299.52079 
" style="fill: none; stroke: #87001d; stroke-width: 3; stroke-linecap: round"/>
    </g>
    <g id="text_20">
     <!-- Mean ROC (AUC = 0.87 $\pm$ 0.04) -->
     <g style="fill: #262626" transform="translate(90.06 304.42079)">
      <text>
       <tspan style="font: 14px 'DejaVu Sans'" x="0 12.079102 20.692383 29.271484 38.144531 42.594727 52.322266 63.341797 73.117188 77.567383 83.029297 92.606445 102.853516 112.628906 117.079102 128.80957 133.259766 142.166992 146.242188 155.149414 164.056641 168.506836 180.237305 184.6875 193.594727 198.044922 206.952148 215.859375" y="-0.375">Mean ROC (AUC = 0.87 ± 0.04)</tspan>
      </text>
     </g>
    </g>
   </g>
  </g>
 </g>
 <defs>
  <clipPath id="p5abce5745e">
   <rect x="45" y="43.667647" width="279" height="276.264706"/>
  </clipPath>
 </defs>
</svg>
