<?xml version="1.0" encoding="utf-8" standalone="no"?>
<!DOCTYPE svg PUBLIC "-//W3C//DTD SVG 1.1//EN"
  "http://www.w3.org/Graphics/SVG/1.1/DTD/svg11.dtd">
<svg xmlns:xlink="http://www.w3.org/1999/xlink" width="360pt" height="360pt" viewBox="0 0 360 360" xmlns="http://www.w3.org/2000/svg" version="1.1">
 <metadata>
  <rdf:RDF xmlns:dc="http://purl.org/dc/elements/1.1/" xmlns:cc="http://creativecommons.org/ns#" xmlns:rdf="http://www.w3.org/1999/02/22-rdf-syntax-ns#">
   <cc:Work>
    <dc:type rdf:resource="http://purl.org/dc/dcmitype/StillImage"/>
    <dc:date>2023-12-05T13:48:28.577828</dc:date>
    <dc:format>image/svg+xml</dc:format>
    <dc:creator>
     <cc:Agent>
      <dc:title>Matplotlib v3.5.3, https://matplotlib.org/</dc:title>
     </cc:Agent>
    </dc:creator>
   </cc:Work>
  </rdf:RDF>
 </metadata>
 <defs>
  <style type="text/css">*{stroke-linejoin: round; stroke-linecap: butt}</style>
 </defs>
 <g id="figure_1">
  <g id="patch_1">
   <path d="M 0 360 
L 360 360 
L 360 0 
L 0 0 
z
" style="fill: #ffffff"/>
  </g>
  <g id="axes_1">
   <g id="patch_2">
    <path d="M 45 319.932353 
L 324 319.932353 
L 324 43.667647 
L 45 43.667647 
z
" style="fill: #ffffff"/>
   </g>
   <g id="matplotlib.axis_1">
    <g id="xtick_1">
     <g id="line2d_1">
      <defs>
       <path id="mad3b166c9e" d="M 0 0 
L 0 3.5 
" style="stroke: #262626; stroke-width: 1.5"/>
      </defs>
      <g>
       <use xlink:href="#mad3b166c9e" x="50.470588" y="319.932353" style="fill: #262626; stroke: #262626; stroke-width: 1.5"/>
      </g>
     </g>
     <g id="text_1">
      <text style="fill: #262626; font: 14px 'sans-serif'; text-anchor: middle" x="50.470588" y="337.570165" transform="rotate(-0, 50.470588, 337.570165)">0.0</text>
     </g>
    </g>
    <g id="xtick_2">
     <g id="line2d_2">
      <g>
       <use xlink:href="#mad3b166c9e" x="105.176471" y="319.932353" style="fill: #262626; stroke: #262626; stroke-width: 1.5"/>
      </g>
     </g>
     <g id="text_2">
      <text style="fill: #262626; font: 14px 'sans-serif'; text-anchor: middle" x="105.176471" y="337.570165" transform="rotate(-0, 105.176471, 337.570165)">0.2</text>
     </g>
    </g>
    <g id="xtick_3">
     <g id="line2d_3">
      <g>
       <use xlink:href="#mad3b166c9e" x="159.882353" y="319.932353" style="fill: #262626; stroke: #262626; stroke-width: 1.5"/>
      </g>
     </g>
     <g id="text_3">
      <text style="fill: #262626; font: 14px 'sans-serif'; text-anchor: middle" x="159.882353" y="337.570165" transform="rotate(-0, 159.882353, 337.570165)">0.4</text>
     </g>
    </g>
    <g id="xtick_4">
     <g id="line2d_4">
      <g>
       <use xlink:href="#mad3b166c9e" x="214.588235" y="319.932353" style="fill: #262626; stroke: #262626; stroke-width: 1.5"/>
      </g>
     </g>
     <g id="text_4">
      <text style="fill: #262626; font: 14px 'sans-serif'; text-anchor: middle" x="214.588235" y="337.570165" transform="rotate(-0, 214.588235, 337.570165)">0.6</text>
     </g>
    </g>
    <g id="xtick_5">
     <g id="line2d_5">
      <g>
       <use xlink:href="#mad3b166c9e" x="269.294118" y="319.932353" style="fill: #262626; stroke: #262626; stroke-width: 1.5"/>
      </g>
     </g>
     <g id="text_5">
      <text style="fill: #262626; font: 14px 'sans-serif'; text-anchor: middle" x="269.294118" y="337.570165" transform="rotate(-0, 269.294118, 337.570165)">0.8</text>
     </g>
    </g>
    <g id="xtick_6">
     <g id="line2d_6">
      <g>
       <use xlink:href="#mad3b166c9e" x="324" y="319.932353" style="fill: #262626; stroke: #262626; stroke-width: 1.5"/>
      </g>
     </g>
     <g id="text_6">
      <text style="fill: #262626; font: 14px 'sans-serif'; text-anchor: middle" x="324" y="337.570165" transform="rotate(-0, 324, 337.570165)">1.0</text>
     </g>
    </g>
    <g id="text_7">
     <text style="fill: #262626; font: 14px 'sans-serif'; text-anchor: middle" x="184.5" y="355.11954" transform="rotate(-0, 184.5, 355.11954)">False Positive Rate (Positive label: 1.0)</text>
    </g>
   </g>
   <g id="matplotlib.axis_2">
    <g id="ytick_1">
     <g id="line2d_7">
      <defs>
       <path id="ma963cbb8d8" d="M 0 0 
L -3.5 0 
" style="stroke: #262626; stroke-width: 1.5"/>
      </defs>
      <g>
       <use xlink:href="#ma963cbb8d8" x="45" y="319.932353" style="fill: #262626; stroke: #262626; stroke-width: 1.5"/>
      </g>
     </g>
     <g id="text_8">
      <text style="fill: #262626; font: 14px 'sans-serif'; text-anchor: end" x="38" y="325.251259" transform="rotate(-0, 38, 325.251259)">0.0</text>
     </g>
    </g>
    <g id="ytick_2">
     <g id="line2d_8">
      <g>
       <use xlink:href="#ma963cbb8d8" x="45" y="265.226471" style="fill: #262626; stroke: #262626; stroke-width: 1.5"/>
      </g>
     </g>
     <g id="text_9">
      <text style="fill: #262626; font: 14px 'sans-serif'; text-anchor: end" x="38" y="270.545377" transform="rotate(-0, 38, 270.545377)">0.2</text>
     </g>
    </g>
    <g id="ytick_3">
     <g id="line2d_9">
      <g>
       <use xlink:href="#ma963cbb8d8" x="45" y="210.520588" style="fill: #262626; stroke: #262626; stroke-width: 1.5"/>
      </g>
     </g>
     <g id="text_10">
      <text style="fill: #262626; font: 14px 'sans-serif'; text-anchor: end" x="38" y="215.839494" transform="rotate(-0, 38, 215.839494)">0.4</text>
     </g>
    </g>
    <g id="ytick_4">
     <g id="line2d_10">
      <g>
       <use xlink:href="#ma963cbb8d8" x="45" y="155.814706" style="fill: #262626; stroke: #262626; stroke-width: 1.5"/>
      </g>
     </g>
     <g id="text_11">
      <text style="fill: #262626; font: 14px 'sans-serif'; text-anchor: end" x="38" y="161.133612" transform="rotate(-0, 38, 161.133612)">0.6</text>
     </g>
    </g>
    <g id="ytick_5">
     <g id="line2d_11">
      <g>
       <use xlink:href="#ma963cbb8d8" x="45" y="101.108824" style="fill: #262626; stroke: #262626; stroke-width: 1.5"/>
      </g>
     </g>
     <g id="text_12">
      <text style="fill: #262626; font: 14px 'sans-serif'; text-anchor: end" x="38" y="106.42773" transform="rotate(-0, 38, 106.42773)">0.8</text>
     </g>
    </g>
    <g id="ytick_6">
     <g id="line2d_12">
      <g>
       <use xlink:href="#ma963cbb8d8" x="45" y="46.402941" style="fill: #262626; stroke: #262626; stroke-width: 1.5"/>
      </g>
     </g>
     <g id="text_13">
      <text style="fill: #262626; font: 14px 'sans-serif'; text-anchor: end" x="38" y="51.721847" transform="rotate(-0, 38, 51.721847)">1.0</text>
     </g>
    </g>
    <g id="text_14">
     <text style="fill: #262626; font: 14px 'sans-serif'; text-anchor: middle" x="8.824062" y="181.8" transform="rotate(-90, 8.824062, 181.8)">True Positive Rate (Positive label: 1.0)</text>
    </g>
   </g>
   <g id="PolyCollection_1">
    <defs>
     <path id="m29da077db6" d="M 50.470588 -40.067647 
L 50.470588 -40.067647 
L 53.233512 -185.95 
L 55.996435 -185.95 
L 58.759358 -210.263725 
L 61.522282 -210.263725 
L 64.285205 -210.263725 
L 67.048128 -216.342157 
L 69.811052 -216.342157 
L 72.573975 -222.420588 
L 75.336898 -228.49902 
L 78.099822 -228.49902 
L 80.862745 -252.812745 
L 83.625668 -252.812745 
L 86.388592 -252.812745 
L 89.151515 -283.204902 
L 91.914439 -283.204902 
L 94.677362 -289.283333 
L 97.440285 -289.283333 
L 100.203209 -289.283333 
L 102.966132 -289.283333 
L 105.729055 -289.283333 
L 108.491979 -295.361765 
L 111.254902 -295.361765 
L 114.017825 -295.361765 
L 116.780749 -295.361765 
L 119.543672 -301.440196 
L 122.306595 -301.440196 
L 125.069519 -301.440196 
L 127.832442 -301.440196 
L 130.595365 -301.440196 
L 133.358289 -301.440196 
L 136.121212 -301.440196 
L 138.884135 -301.440196 
L 141.647059 -301.440196 
L 144.409982 -301.440196 
L 147.172906 -301.440196 
L 149.935829 -301.440196 
L 152.698752 -301.440196 
L 155.461676 -301.440196 
L 158.224599 -301.440196 
L 160.987522 -301.440196 
L 163.750446 -301.440196 
L 166.513369 -301.440196 
L 169.276292 -301.440196 
L 172.039216 -301.440196 
L 174.802139 -301.440196 
L 177.565062 -301.440196 
L 180.327986 -301.440196 
L 183.090909 -301.440196 
L 185.853832 -301.440196 
L 188.616756 -301.440196 
L 191.379679 -301.440196 
L 194.142602 -301.440196 
L 196.905526 -301.440196 
L 199.668449 -301.440196 
L 202.431373 -301.440196 
L 205.194296 -301.440196 
L 207.957219 -301.440196 
L 210.720143 -301.440196 
L 213.483066 -301.440196 
L 216.245989 -301.440196 
L 219.008913 -301.440196 
L 221.771836 -301.440196 
L 224.534759 -301.440196 
L 227.297683 -301.440196 
L 230.060606 -301.440196 
L 232.823529 -301.440196 
L 235.586453 -301.440196 
L 238.349376 -301.440196 
L 241.112299 -301.440196 
L 243.875223 -301.440196 
L 246.638146 -301.440196 
L 249.40107 -301.440196 
L 252.163993 -301.440196 
L 254.926916 -301.440196 
L 257.68984 -301.440196 
L 260.452763 -301.440196 
L 263.215686 -301.440196 
L 265.97861 -301.440196 
L 268.741533 -301.440196 
L 271.504456 -301.440196 
L 274.26738 -301.440196 
L 277.030303 -301.440196 
L 279.793226 -301.440196 
L 282.55615 -301.440196 
L 285.319073 -301.440196 
L 288.081996 -301.440196 
L 290.84492 -301.440196 
L 293.607843 -301.440196 
L 296.370766 -301.440196 
L 299.13369 -301.440196 
L 301.896613 -307.518627 
L 304.659537 -307.518627 
L 307.42246 -307.518627 
L 310.185383 -313.597059 
L 312.948307 -313.597059 
L 315.71123 -313.597059 
L 318.474153 -313.597059 
L 321.237077 -313.597059 
L 324 -313.597059 
L 324 -40.067647 
L 324 -40.067647 
L 321.237077 -40.067647 
L 318.474153 -40.067647 
L 315.71123 -40.067647 
L 312.948307 -40.067647 
L 310.185383 -40.067647 
L 307.42246 -40.067647 
L 304.659537 -40.067647 
L 301.896613 -40.067647 
L 299.13369 -40.067647 
L 296.370766 -40.067647 
L 293.607843 -40.067647 
L 290.84492 -40.067647 
L 288.081996 -40.067647 
L 285.319073 -40.067647 
L 282.55615 -40.067647 
L 279.793226 -40.067647 
L 277.030303 -40.067647 
L 274.26738 -40.067647 
L 271.504456 -40.067647 
L 268.741533 -40.067647 
L 265.97861 -40.067647 
L 263.215686 -40.067647 
L 260.452763 -40.067647 
L 257.68984 -40.067647 
L 254.926916 -40.067647 
L 252.163993 -40.067647 
L 249.40107 -40.067647 
L 246.638146 -40.067647 
L 243.875223 -40.067647 
L 241.112299 -40.067647 
L 238.349376 -40.067647 
L 235.586453 -40.067647 
L 232.823529 -40.067647 
L 230.060606 -40.067647 
L 227.297683 -40.067647 
L 224.534759 -40.067647 
L 221.771836 -40.067647 
L 219.008913 -40.067647 
L 216.245989 -40.067647 
L 213.483066 -40.067647 
L 210.720143 -40.067647 
L 207.957219 -40.067647 
L 205.194296 -40.067647 
L 202.431373 -40.067647 
L 199.668449 -40.067647 
L 196.905526 -40.067647 
L 194.142602 -40.067647 
L 191.379679 -40.067647 
L 188.616756 -40.067647 
L 185.853832 -40.067647 
L 183.090909 -40.067647 
L 180.327986 -40.067647 
L 177.565062 -40.067647 
L 174.802139 -40.067647 
L 172.039216 -40.067647 
L 169.276292 -40.067647 
L 166.513369 -40.067647 
L 163.750446 -40.067647 
L 160.987522 -40.067647 
L 158.224599 -40.067647 
L 155.461676 -40.067647 
L 152.698752 -40.067647 
L 149.935829 -40.067647 
L 147.172906 -40.067647 
L 144.409982 -40.067647 
L 141.647059 -40.067647 
L 138.884135 -40.067647 
L 136.121212 -40.067647 
L 133.358289 -40.067647 
L 130.595365 -40.067647 
L 127.832442 -40.067647 
L 125.069519 -40.067647 
L 122.306595 -40.067647 
L 119.543672 -40.067647 
L 116.780749 -40.067647 
L 114.017825 -40.067647 
L 111.254902 -40.067647 
L 108.491979 -40.067647 
L 105.729055 -40.067647 
L 102.966132 -40.067647 
L 100.203209 -40.067647 
L 97.440285 -40.067647 
L 94.677362 -40.067647 
L 91.914439 -40.067647 
L 89.151515 -40.067647 
L 86.388592 -40.067647 
L 83.625668 -40.067647 
L 80.862745 -40.067647 
L 78.099822 -40.067647 
L 75.336898 -40.067647 
L 72.573975 -40.067647 
L 69.811052 -40.067647 
L 67.048128 -40.067647 
L 64.285205 -40.067647 
L 61.522282 -40.067647 
L 58.759358 -40.067647 
L 55.996435 -40.067647 
L 53.233512 -40.067647 
L 50.470588 -40.067647 
z
" style="stroke: #87001d; stroke-opacity: 0.2"/>
    </defs>
    <g clip-path="url(#p77da1810fd)">
     <use xlink:href="#m29da077db6" x="0" y="360" style="fill: #87001d; fill-opacity: 0.2; stroke: #87001d; stroke-opacity: 0.2"/>
    </g>
   </g>
   <g id="line2d_13">
    <path d="M 50.470588 319.932353 
L 50.470588 289.540196 
L 50.470588 167.971569 
L 64.866873 167.971569 
L 64.866873 137.579412 
L 72.065015 137.579412 
L 72.065015 107.187255 
L 86.4613 107.187255 
L 86.4613 76.795098 
L 93.659443 76.795098 
L 93.659443 46.402941 
L 324 46.402941 
" clip-path="url(#p77da1810fd)" style="fill: none; stroke: #202020; stroke-opacity: 0.7; stroke-width: 3; stroke-linecap: round"/>
   </g>
   <g id="line2d_14">
    <path d="M 50.470588 319.932353 
L 50.470588 289.540196 
L 50.470588 167.971569 
L 86.4613 167.971569 
L 86.4613 76.795098 
L 108.055728 76.795098 
L 108.055728 46.402941 
L 324 46.402941 
" clip-path="url(#p77da1810fd)" style="fill: none; stroke: #353535; stroke-opacity: 0.7; stroke-width: 3; stroke-linecap: round"/>
   </g>
   <g id="line2d_15">
    <path d="M 50.470588 319.932353 
L 50.470588 289.540196 
L 57.863275 289.540196 
L 57.863275 167.971569 
L 72.648649 167.971569 
L 72.648649 137.579412 
L 80.041335 137.579412 
L 80.041335 107.187255 
L 301.82194 107.187255 
L 301.82194 76.795098 
L 309.214626 76.795098 
L 309.214626 46.402941 
L 324 46.402941 
" clip-path="url(#p77da1810fd)" style="fill: none; stroke: #505050; stroke-opacity: 0.7; stroke-width: 3; stroke-linecap: round"/>
   </g>
   <g id="line2d_16">
    <path d="M 50.470588 319.932353 
L 50.470588 289.540196 
L 50.470588 76.795098 
L 117.004769 76.795098 
L 117.004769 46.402941 
L 324 46.402941 
" clip-path="url(#p77da1810fd)" style="fill: none; stroke: #656565; stroke-opacity: 0.7; stroke-width: 3; stroke-linecap: round"/>
   </g>
   <g id="line2d_17">
    <path d="M 50.470588 319.932353 
L 50.470588 289.540196 
L 50.470588 167.971569 
L 80.041335 167.971569 
L 80.041335 76.795098 
L 87.434022 76.795098 
L 87.434022 46.402941 
L 324 46.402941 
" clip-path="url(#p77da1810fd)" style="fill: none; stroke: #808080; stroke-opacity: 0.7; stroke-width: 3; stroke-linecap: round"/>
   </g>
   <g id="line2d_18">
    <path d="M 50.470588 319.932353 
L 53.233512 174.05 
L 55.996435 174.05 
L 58.759358 149.736275 
L 61.522282 149.736275 
L 64.285205 149.736275 
L 67.048128 143.657843 
L 69.811052 143.657843 
L 72.573975 137.579412 
L 75.336898 131.50098 
L 78.099822 131.50098 
L 80.862745 107.187255 
L 83.625668 107.187255 
L 86.388592 107.187255 
L 89.151515 76.795098 
L 91.914439 76.795098 
L 94.677362 70.716667 
L 97.440285 70.716667 
L 100.203209 70.716667 
L 102.966132 70.716667 
L 105.729055 70.716667 
L 108.491979 64.638235 
L 111.254902 64.638235 
L 114.017825 64.638235 
L 116.780749 64.638235 
L 119.543672 58.559804 
L 122.306595 58.559804 
L 125.069519 58.559804 
L 127.832442 58.559804 
L 130.595365 58.559804 
L 133.358289 58.559804 
L 136.121212 58.559804 
L 138.884135 58.559804 
L 141.647059 58.559804 
L 144.409982 58.559804 
L 147.172906 58.559804 
L 149.935829 58.559804 
L 152.698752 58.559804 
L 155.461676 58.559804 
L 158.224599 58.559804 
L 160.987522 58.559804 
L 163.750446 58.559804 
L 166.513369 58.559804 
L 169.276292 58.559804 
L 172.039216 58.559804 
L 174.802139 58.559804 
L 177.565062 58.559804 
L 180.327986 58.559804 
L 183.090909 58.559804 
L 185.853832 58.559804 
L 188.616756 58.559804 
L 191.379679 58.559804 
L 194.142602 58.559804 
L 196.905526 58.559804 
L 199.668449 58.559804 
L 202.431373 58.559804 
L 205.194296 58.559804 
L 207.957219 58.559804 
L 210.720143 58.559804 
L 213.483066 58.559804 
L 216.245989 58.559804 
L 219.008913 58.559804 
L 221.771836 58.559804 
L 224.534759 58.559804 
L 227.297683 58.559804 
L 230.060606 58.559804 
L 232.823529 58.559804 
L 235.586453 58.559804 
L 238.349376 58.559804 
L 241.112299 58.559804 
L 243.875223 58.559804 
L 246.638146 58.559804 
L 249.40107 58.559804 
L 252.163993 58.559804 
L 254.926916 58.559804 
L 257.68984 58.559804 
L 260.452763 58.559804 
L 263.215686 58.559804 
L 265.97861 58.559804 
L 268.741533 58.559804 
L 271.504456 58.559804 
L 274.26738 58.559804 
L 277.030303 58.559804 
L 279.793226 58.559804 
L 282.55615 58.559804 
L 285.319073 58.559804 
L 288.081996 58.559804 
L 290.84492 58.559804 
L 293.607843 58.559804 
L 296.370766 58.559804 
L 299.13369 58.559804 
L 301.896613 52.481373 
L 304.659537 52.481373 
L 307.42246 52.481373 
L 310.185383 46.402941 
L 312.948307 46.402941 
L 315.71123 46.402941 
L 318.474153 46.402941 
L 321.237077 46.402941 
L 324 46.402941 
" clip-path="url(#p77da1810fd)" style="fill: none; stroke: #87001d; stroke-width: 3; stroke-linecap: round"/>
   </g>
   <g id="patch_3">
    <path d="M 45 319.932353 
L 45 43.667647 
" style="fill: none; stroke: #262626; stroke-width: 1.5; stroke-linejoin: miter; stroke-linecap: square"/>
   </g>
   <g id="patch_4">
    <path d="M 45 319.932353 
L 324 319.932353 
" style="fill: none; stroke: #262626; stroke-width: 1.5; stroke-linejoin: miter; stroke-linecap: square"/>
   </g>
   <g id="legend_1">
    <g id="line2d_19">
     <path d="M 50.44 196.773915 
L 64.44 196.773915 
L 78.44 196.773915 
" style="fill: none; stroke: #202020; stroke-opacity: 0.7; stroke-width: 3; stroke-linecap: round"/>
    </g>
    <g id="text_15">
     <text style="fill: #262626; font: 14px 'sans-serif'; text-anchor: start" x="89.64" y="201.673915" transform="rotate(-0, 89.64, 201.673915)">ROC fold 0 (AUC = 0.95)</text>
    </g>
    <g id="line2d_20">
     <path d="M 50.44 217.32329 
L 64.44 217.32329 
L 78.44 217.32329 
" style="fill: none; stroke: #353535; stroke-opacity: 0.7; stroke-width: 3; stroke-linecap: round"/>
    </g>
    <g id="text_16">
     <text style="fill: #262626; font: 14px 'sans-serif'; text-anchor: start" x="89.64" y="222.22329" transform="rotate(-0, 89.64, 222.22329)">ROC fold 1 (AUC = 0.93)</text>
    </g>
    <g id="line2d_21">
     <path d="M 50.44 237.872665 
L 64.44 237.872665 
L 78.44 237.872665 
" style="fill: none; stroke: #505050; stroke-opacity: 0.7; stroke-width: 3; stroke-linecap: round"/>
    </g>
    <g id="text_17">
     <text style="fill: #262626; font: 14px 'sans-serif'; text-anchor: start" x="89.64" y="242.772665" transform="rotate(-0, 89.64, 242.772665)">ROC fold 2 (AUC = 0.76)</text>
    </g>
    <g id="line2d_22">
     <path d="M 50.44 258.42204 
L 64.44 258.42204 
L 78.44 258.42204 
" style="fill: none; stroke: #656565; stroke-opacity: 0.7; stroke-width: 3; stroke-linecap: round"/>
    </g>
    <g id="text_18">
     <text style="fill: #262626; font: 14px 'sans-serif'; text-anchor: start" x="89.64" y="263.32204" transform="rotate(-0, 89.64, 263.32204)">ROC fold 3 (AUC = 0.97)</text>
    </g>
    <g id="line2d_23">
     <path d="M 50.44 278.971415 
L 64.44 278.971415 
L 78.44 278.971415 
" style="fill: none; stroke: #808080; stroke-opacity: 0.7; stroke-width: 3; stroke-linecap: round"/>
    </g>
    <g id="text_19">
     <text style="fill: #262626; font: 14px 'sans-serif'; text-anchor: start" x="89.64" y="283.871415" transform="rotate(-0, 89.64, 283.871415)">ROC fold 4 (AUC = 0.95)</text>
    </g>
    <g id="line2d_24">
     <path d="M 50.44 299.52079 
L 64.44 299.52079 
L 78.44 299.52079 
" style="fill: none; stroke: #87001d; stroke-width: 3; stroke-linecap: round"/>
    </g>
    <g id="text_20">
     <!-- Mean ROC (AUC = 0.91 $\pm$ 0.08) -->
     <g style="fill: #262626" transform="translate(89.64 304.42079)">
      <text>
       <tspan style="font: 14px 'DejaVu Sans'" x="0 12.079102 20.692383 29.271484 38.144531 42.594727 52.322266 63.341797 73.117188 77.567383 83.029297 92.606445 102.853516 112.628906 117.079102 128.80957 133.259766 142.166992 146.617188 155.524414 164.431641 168.881836 180.612305 185.0625 193.969727 198.419922 207.327148 216.234375" y="-0.375">Mean ROC (AUC = 0.91 ± 0.08)</tspan>
      </text>
     </g>
    </g>
   </g>
  </g>
 </g>
 <defs>
  <clipPath id="p77da1810fd">
   <rect x="45" y="43.667647" width="279" height="276.264706"/>
  </clipPath>
 </defs>
</svg>
