<?xml version="1.0" encoding="utf-8" standalone="no"?>
<!DOCTYPE svg PUBLIC "-//W3C//DTD SVG 1.1//EN"
  "http://www.w3.org/Graphics/SVG/1.1/DTD/svg11.dtd">
<svg xmlns:xlink="http://www.w3.org/1999/xlink" width="360pt" height="360pt" viewBox="0 0 360 360" xmlns="http://www.w3.org/2000/svg" version="1.1">
 <metadata>
  <rdf:RDF xmlns:dc="http://purl.org/dc/elements/1.1/" xmlns:cc="http://creativecommons.org/ns#" xmlns:rdf="http://www.w3.org/1999/02/22-rdf-syntax-ns#">
   <cc:Work>
    <dc:type rdf:resource="http://purl.org/dc/dcmitype/StillImage"/>
    <dc:date>2023-12-05T13:48:39.334718</dc:date>
    <dc:format>image/svg+xml</dc:format>
    <dc:creator>
     <cc:Agent>
      <dc:title>Matplotlib v3.5.3, https://matplotlib.org/</dc:title>
     </cc:Agent>
    </dc:creator>
   </cc:Work>
  </rdf:RDF>
 </metadata>
 <defs>
  <style type="text/css">*{stroke-linejoin: round; stroke-linecap: butt}</style>
 </defs>
 <g id="figure_1">
  <g id="patch_1">
   <path d="M 0 360 
L 360 360 
L 360 0 
L 0 0 
z
" style="fill: #ffffff"/>
  </g>
  <g id="axes_1">
   <g id="patch_2">
    <path d="M 45 319.932353 
L 324 319.932353 
L 324 43.667647 
L 45 43.667647 
z
" style="fill: #ffffff"/>
   </g>
   <g id="matplotlib.axis_1">
    <g id="xtick_1">
     <g id="line2d_1">
      <defs>
       <path id="m18b65ccdbc" d="M 0 0 
L 0 3.5 
" style="stroke: #262626; stroke-width: 1.5"/>
      </defs>
      <g>
       <use xlink:href="#m18b65ccdbc" x="50.470588" y="319.932353" style="fill: #262626; stroke: #262626; stroke-width: 1.5"/>
      </g>
     </g>
     <g id="text_1">
      <text style="fill: #262626; font: 14px 'sans-serif'; text-anchor: middle" x="50.470588" y="337.570165" transform="rotate(-0, 50.470588, 337.570165)">0.0</text>
     </g>
    </g>
    <g id="xtick_2">
     <g id="line2d_2">
      <g>
       <use xlink:href="#m18b65ccdbc" x="105.176471" y="319.932353" style="fill: #262626; stroke: #262626; stroke-width: 1.5"/>
      </g>
     </g>
     <g id="text_2">
      <text style="fill: #262626; font: 14px 'sans-serif'; text-anchor: middle" x="105.176471" y="337.570165" transform="rotate(-0, 105.176471, 337.570165)">0.2</text>
     </g>
    </g>
    <g id="xtick_3">
     <g id="line2d_3">
      <g>
       <use xlink:href="#m18b65ccdbc" x="159.882353" y="319.932353" style="fill: #262626; stroke: #262626; stroke-width: 1.5"/>
      </g>
     </g>
     <g id="text_3">
      <text style="fill: #262626; font: 14px 'sans-serif'; text-anchor: middle" x="159.882353" y="337.570165" transform="rotate(-0, 159.882353, 337.570165)">0.4</text>
     </g>
    </g>
    <g id="xtick_4">
     <g id="line2d_4">
      <g>
       <use xlink:href="#m18b65ccdbc" x="214.588235" y="319.932353" style="fill: #262626; stroke: #262626; stroke-width: 1.5"/>
      </g>
     </g>
     <g id="text_4">
      <text style="fill: #262626; font: 14px 'sans-serif'; text-anchor: middle" x="214.588235" y="337.570165" transform="rotate(-0, 214.588235, 337.570165)">0.6</text>
     </g>
    </g>
    <g id="xtick_5">
     <g id="line2d_5">
      <g>
       <use xlink:href="#m18b65ccdbc" x="269.294118" y="319.932353" style="fill: #262626; stroke: #262626; stroke-width: 1.5"/>
      </g>
     </g>
     <g id="text_5">
      <text style="fill: #262626; font: 14px 'sans-serif'; text-anchor: middle" x="269.294118" y="337.570165" transform="rotate(-0, 269.294118, 337.570165)">0.8</text>
     </g>
    </g>
    <g id="xtick_6">
     <g id="line2d_6">
      <g>
       <use xlink:href="#m18b65ccdbc" x="324" y="319.932353" style="fill: #262626; stroke: #262626; stroke-width: 1.5"/>
      </g>
     </g>
     <g id="text_6">
      <text style="fill: #262626; font: 14px 'sans-serif'; text-anchor: middle" x="324" y="337.570165" transform="rotate(-0, 324, 337.570165)">1.0</text>
     </g>
    </g>
    <g id="text_7">
     <text style="fill: #262626; font: 14px 'sans-serif'; text-anchor: middle" x="184.5" y="355.11954" transform="rotate(-0, 184.5, 355.11954)">False Positive Rate (Positive label: 1.0)</text>
    </g>
   </g>
   <g id="matplotlib.axis_2">
    <g id="ytick_1">
     <g id="line2d_7">
      <defs>
       <path id="m48ff66bdd9" d="M 0 0 
L -3.5 0 
" style="stroke: #262626; stroke-width: 1.5"/>
      </defs>
      <g>
       <use xlink:href="#m48ff66bdd9" x="45" y="319.932353" style="fill: #262626; stroke: #262626; stroke-width: 1.5"/>
      </g>
     </g>
     <g id="text_8">
      <text style="fill: #262626; font: 14px 'sans-serif'; text-anchor: end" x="38" y="325.251259" transform="rotate(-0, 38, 325.251259)">0.0</text>
     </g>
    </g>
    <g id="ytick_2">
     <g id="line2d_8">
      <g>
       <use xlink:href="#m48ff66bdd9" x="45" y="265.226471" style="fill: #262626; stroke: #262626; stroke-width: 1.5"/>
      </g>
     </g>
     <g id="text_9">
      <text style="fill: #262626; font: 14px 'sans-serif'; text-anchor: end" x="38" y="270.545377" transform="rotate(-0, 38, 270.545377)">0.2</text>
     </g>
    </g>
    <g id="ytick_3">
     <g id="line2d_9">
      <g>
       <use xlink:href="#m48ff66bdd9" x="45" y="210.520588" style="fill: #262626; stroke: #262626; stroke-width: 1.5"/>
      </g>
     </g>
     <g id="text_10">
      <text style="fill: #262626; font: 14px 'sans-serif'; text-anchor: end" x="38" y="215.839494" transform="rotate(-0, 38, 215.839494)">0.4</text>
     </g>
    </g>
    <g id="ytick_4">
     <g id="line2d_10">
      <g>
       <use xlink:href="#m48ff66bdd9" x="45" y="155.814706" style="fill: #262626; stroke: #262626; stroke-width: 1.5"/>
      </g>
     </g>
     <g id="text_11">
      <text style="fill: #262626; font: 14px 'sans-serif'; text-anchor: end" x="38" y="161.133612" transform="rotate(-0, 38, 161.133612)">0.6</text>
     </g>
    </g>
    <g id="ytick_5">
     <g id="line2d_11">
      <g>
       <use xlink:href="#m48ff66bdd9" x="45" y="101.108824" style="fill: #262626; stroke: #262626; stroke-width: 1.5"/>
      </g>
     </g>
     <g id="text_12">
      <text style="fill: #262626; font: 14px 'sans-serif'; text-anchor: end" x="38" y="106.42773" transform="rotate(-0, 38, 106.42773)">0.8</text>
     </g>
    </g>
    <g id="ytick_6">
     <g id="line2d_12">
      <g>
       <use xlink:href="#m48ff66bdd9" x="45" y="46.402941" style="fill: #262626; stroke: #262626; stroke-width: 1.5"/>
      </g>
     </g>
     <g id="text_13">
      <text style="fill: #262626; font: 14px 'sans-serif'; text-anchor: end" x="38" y="51.721847" transform="rotate(-0, 38, 51.721847)">1.0</text>
     </g>
    </g>
    <g id="text_14">
     <text style="fill: #262626; font: 14px 'sans-serif'; text-anchor: middle" x="8.824062" y="181.8" transform="rotate(-90, 8.824062, 181.8)">True Positive Rate (Positive label: 1.0)</text>
    </g>
   </g>
   <g id="PolyCollection_1">
    <defs>
     <path id="maf2493dade" d="M 50.470588 -40.067647 
L 50.470588 -40.067647 
L 53.233512 -40.067647 
L 55.996435 -40.067647 
L 58.759358 -41.852921 
L 61.522282 -45.253442 
L 64.285205 -46.826183 
L 67.048128 -52.182003 
L 69.811052 -56.252002 
L 72.573975 -57.608668 
L 75.336898 -68.504504 
L 78.099822 -76.453222 
L 80.862745 -86.552061 
L 83.625668 -93.328308 
L 86.388592 -96.877602 
L 89.151515 -98.981674 
L 91.914439 -106.271541 
L 94.677362 -111.606109 
L 97.440285 -111.939076 
L 100.203209 -115.176656 
L 102.966132 -120.022398 
L 105.729055 -129.118792 
L 108.491979 -134.113307 
L 111.254902 -138.725264 
L 114.017825 -144.764731 
L 116.780749 -148.629282 
L 119.543672 -152.433614 
L 122.306595 -157.406876 
L 125.069519 -159.680975 
L 127.832442 -167.778466 
L 130.595365 -170.520136 
L 133.358289 -170.520136 
L 136.121212 -174.728281 
L 138.884135 -176.832353 
L 141.647059 -177.53371 
L 144.409982 -183.14457 
L 147.172906 -185.98188 
L 149.935829 -189.743706 
L 152.698752 -194.026237 
L 155.461676 -198.287515 
L 158.224599 -202.144981 
L 160.987522 -205.545503 
L 163.750446 -207.040315 
L 166.513369 -210.518765 
L 169.276292 -218.382469 
L 172.039216 -218.913801 
L 174.802139 -218.913801 
L 177.565062 -221.520867 
L 180.327986 -226.678324 
L 183.090909 -232.143953 
L 185.853832 -237.113673 
L 188.616756 -244.899449 
L 191.379679 -246.266742 
L 194.142602 -246.266742 
L 196.905526 -248.370814 
L 199.668449 -251.367524 
L 202.431373 -256.47539 
L 205.194296 -259.642125 
L 207.957219 -260.782716 
L 210.720143 -260.995249 
L 213.483066 -262.419217 
L 216.245989 -263.099321 
L 219.008913 -266.026957 
L 221.771836 -268.991787 
L 224.534759 -271.993809 
L 227.297683 -274.533573 
L 230.060606 -275.776889 
L 232.823529 -277.477149 
L 235.586453 -279.9319 
L 238.349376 -279.9319 
L 241.112299 -282.035973 
L 243.875223 -282.035973 
L 246.638146 -286.244118 
L 249.40107 -289.113307 
L 252.163993 -293.824446 
L 254.926916 -296.76448 
L 257.68984 -296.76448 
L 260.452763 -296.76448 
L 263.215686 -298.868552 
L 265.97861 -298.868552 
L 268.741533 -300.29252 
L 271.504456 -300.972624 
L 274.26738 -300.972624 
L 277.030303 -300.972624 
L 279.793226 -303.076697 
L 282.55615 -303.076697 
L 285.319073 -304.521918 
L 288.081996 -305.180769 
L 290.84492 -305.180769 
L 293.607843 -307.284842 
L 296.370766 -308.836329 
L 299.13369 -309.388914 
L 301.896613 -309.388914 
L 304.659537 -309.388914 
L 307.42246 -309.388914 
L 310.185383 -311.492986 
L 312.948307 -311.492986 
L 315.71123 -311.492986 
L 318.474153 -311.492986 
L 321.237077 -313.597059 
L 324 -313.597059 
L 324 -40.067647 
L 324 -40.067647 
L 321.237077 -40.067647 
L 318.474153 -40.067647 
L 315.71123 -40.067647 
L 312.948307 -40.067647 
L 310.185383 -40.067647 
L 307.42246 -40.067647 
L 304.659537 -40.067647 
L 301.896613 -40.067647 
L 299.13369 -40.067647 
L 296.370766 -40.067647 
L 293.607843 -40.067647 
L 290.84492 -40.067647 
L 288.081996 -40.067647 
L 285.319073 -40.067647 
L 282.55615 -40.067647 
L 279.793226 -40.067647 
L 277.030303 -40.067647 
L 274.26738 -40.067647 
L 271.504456 -40.067647 
L 268.741533 -40.067647 
L 265.97861 -40.067647 
L 263.215686 -40.067647 
L 260.452763 -40.067647 
L 257.68984 -40.067647 
L 254.926916 -40.067647 
L 252.163993 -40.067647 
L 249.40107 -40.067647 
L 246.638146 -40.067647 
L 243.875223 -40.067647 
L 241.112299 -40.067647 
L 238.349376 -40.067647 
L 235.586453 -40.067647 
L 232.823529 -40.067647 
L 230.060606 -40.067647 
L 227.297683 -40.067647 
L 224.534759 -40.067647 
L 221.771836 -40.067647 
L 219.008913 -40.067647 
L 216.245989 -40.067647 
L 213.483066 -40.067647 
L 210.720143 -40.067647 
L 207.957219 -40.067647 
L 205.194296 -40.067647 
L 202.431373 -40.067647 
L 199.668449 -40.067647 
L 196.905526 -40.067647 
L 194.142602 -40.067647 
L 191.379679 -40.067647 
L 188.616756 -40.067647 
L 185.853832 -40.067647 
L 183.090909 -40.067647 
L 180.327986 -40.067647 
L 177.565062 -40.067647 
L 174.802139 -40.067647 
L 172.039216 -40.067647 
L 169.276292 -40.067647 
L 166.513369 -40.067647 
L 163.750446 -40.067647 
L 160.987522 -40.067647 
L 158.224599 -40.067647 
L 155.461676 -40.067647 
L 152.698752 -40.067647 
L 149.935829 -40.067647 
L 147.172906 -40.067647 
L 144.409982 -40.067647 
L 141.647059 -40.067647 
L 138.884135 -40.067647 
L 136.121212 -40.067647 
L 133.358289 -40.067647 
L 130.595365 -40.067647 
L 127.832442 -40.067647 
L 125.069519 -40.067647 
L 122.306595 -40.067647 
L 119.543672 -40.067647 
L 116.780749 -40.067647 
L 114.017825 -40.067647 
L 111.254902 -40.067647 
L 108.491979 -40.067647 
L 105.729055 -40.067647 
L 102.966132 -40.067647 
L 100.203209 -40.067647 
L 97.440285 -40.067647 
L 94.677362 -40.067647 
L 91.914439 -40.067647 
L 89.151515 -40.067647 
L 86.388592 -40.067647 
L 83.625668 -40.067647 
L 80.862745 -40.067647 
L 78.099822 -40.067647 
L 75.336898 -40.067647 
L 72.573975 -40.067647 
L 69.811052 -40.067647 
L 67.048128 -40.067647 
L 64.285205 -40.067647 
L 61.522282 -40.067647 
L 58.759358 -40.067647 
L 55.996435 -40.067647 
L 53.233512 -40.067647 
L 50.470588 -40.067647 
z
" style="stroke: #87001d; stroke-opacity: 0.2"/>
    </defs>
    <g clip-path="url(#p26291e22a4)">
     <use xlink:href="#maf2493dade" x="0" y="360" style="fill: #87001d; fill-opacity: 0.2; stroke: #87001d; stroke-opacity: 0.2"/>
    </g>
   </g>
   <g id="line2d_13">
    <path d="M 50.470588 319.932353 
L 55.56741 319.932353 
L 58.96529 319.932353 
L 62.363171 319.932353 
L 64.062112 319.932353 
L 69.158933 288.371267 
L 70.857874 288.371267 
L 75.954695 277.850905 
L 77.653635 277.850905 
L 77.653635 267.330543 
L 81.051516 256.810181 
L 81.051516 246.289819 
L 82.750457 246.289819 
L 84.449397 235.769457 
L 91.245159 235.769457 
L 98.040921 235.769457 
L 101.438802 235.769457 
L 101.438802 214.728733 
L 104.836682 214.728733 
L 104.836682 204.208371 
L 108.234563 204.208371 
L 109.933504 193.688009 
L 115.030325 193.688009 
L 115.030325 183.167647 
L 116.729266 183.167647 
L 120.127147 183.167647 
L 125.223968 172.647285 
L 130.320789 172.647285 
L 133.71867 172.647285 
L 135.417611 162.126923 
L 137.116551 162.126923 
L 137.116551 151.606561 
L 147.310194 151.606561 
L 150.708075 141.086199 
L 154.105955 141.086199 
L 155.804896 130.565837 
L 162.600658 130.565837 
L 167.697479 120.045475 
L 172.7943 120.045475 
L 176.192181 120.045475 
L 177.891122 120.045475 
L 181.289003 109.525113 
L 184.686883 109.525113 
L 186.385824 109.525113 
L 188.084764 99.004751 
L 191.482645 99.004751 
L 198.278407 99.004751 
L 201.676288 99.004751 
L 201.676288 88.484389 
L 210.17099 88.484389 
L 213.568871 88.484389 
L 218.665692 88.484389 
L 220.364633 77.964027 
L 223.762514 77.964027 
L 228.859335 77.964027 
L 232.257216 77.964027 
L 235.655097 77.964027 
L 239.052978 77.964027 
L 244.149799 77.964027 
L 244.149799 67.443665 
L 247.54768 67.443665 
L 252.644501 56.923303 
L 254.343442 56.923303 
L 257.741323 56.923303 
L 259.440263 56.923303 
L 273.031787 56.923303 
L 274.730727 56.923303 
L 281.526489 56.923303 
L 286.62331 56.923303 
L 290.021191 56.923303 
L 291.720132 56.923303 
L 295.118012 56.923303 
L 296.816953 46.402941 
L 300.214834 46.402941 
L 303.612715 46.402941 
L 305.311655 46.402941 
L 312.107417 46.402941 
L 315.505298 46.402941 
L 318.903179 46.402941 
L 324 46.402941 
" clip-path="url(#p26291e22a4)" style="fill: none; stroke: #202020; stroke-opacity: 0.7; stroke-width: 3; stroke-linecap: round"/>
   </g>
   <g id="line2d_14">
    <path d="M 50.470588 319.932353 
L 52.169529 319.932353 
L 55.56741 319.932353 
L 58.96529 319.932353 
L 62.363171 319.932353 
L 67.459993 319.932353 
L 70.857874 309.411991 
L 74.255754 309.411991 
L 74.255754 298.891629 
L 79.352576 298.891629 
L 81.051516 288.371267 
L 81.051516 277.850905 
L 84.449397 277.850905 
L 84.449397 267.330543 
L 89.546218 267.330543 
L 94.64304 256.810181 
L 98.040921 256.810181 
L 103.137742 256.810181 
L 106.535623 256.810181 
L 106.535623 246.289819 
L 108.234563 246.289819 
L 115.030325 225.249095 
L 118.428206 225.249095 
L 120.127147 225.249095 
L 126.922908 225.249095 
L 126.922908 204.208371 
L 128.621849 183.167647 
L 132.01973 183.167647 
L 133.71867 183.167647 
L 138.815491 183.167647 
L 142.213372 183.167647 
L 143.912313 172.647285 
L 149.009134 172.647285 
L 152.407015 172.647285 
L 154.105955 162.126923 
L 157.503836 151.606561 
L 160.901717 151.606561 
L 165.998539 151.606561 
L 167.697479 141.086199 
L 167.697479 120.045475 
L 171.09536 120.045475 
L 172.7943 120.045475 
L 179.590062 120.045475 
L 181.289003 120.045475 
L 184.686883 120.045475 
L 189.783705 99.004751 
L 193.181586 99.004751 
L 194.880526 99.004751 
L 196.579467 88.484389 
L 198.278407 88.484389 
L 203.375228 88.484389 
L 208.47205 77.964027 
L 218.665692 77.964027 
L 228.859335 77.964027 
L 232.257216 77.964027 
L 235.655097 77.964027 
L 244.149799 77.964027 
L 250.945561 77.964027 
L 254.343442 56.923303 
L 261.139204 56.923303 
L 264.537084 56.923303 
L 266.236025 56.923303 
L 273.031787 56.923303 
L 278.128608 56.923303 
L 281.526489 56.923303 
L 286.62331 56.923303 
L 290.021191 56.923303 
L 295.118012 56.923303 
L 298.515893 56.923303 
L 303.612715 56.923303 
L 307.010596 56.923303 
L 308.709536 56.923303 
L 308.709536 46.402941 
L 310.408476 46.402941 
L 313.806357 46.402941 
L 315.505298 46.402941 
L 322.30106 46.402941 
L 324 46.402941 
" clip-path="url(#p26291e22a4)" style="fill: none; stroke: #353535; stroke-opacity: 0.7; stroke-width: 3; stroke-linecap: round"/>
   </g>
   <g id="line2d_15">
    <path d="M 50.470588 319.932353 
L 52.180147 319.932353 
L 53.889706 319.932353 
L 60.727941 319.932353 
L 62.4375 319.932353 
L 65.856618 319.932353 
L 72.694853 319.932353 
L 79.533088 319.932353 
L 84.661765 309.411991 
L 89.790441 309.411991 
L 89.790441 288.371267 
L 91.5 277.850905 
L 93.209559 277.850905 
L 98.338235 277.850905 
L 100.047794 267.330543 
L 103.466912 267.330543 
L 105.176471 256.810181 
L 105.176471 246.289819 
L 106.886029 246.289819 
L 110.305147 235.769457 
L 112.014706 235.769457 
L 113.724265 225.249095 
L 118.852941 214.728733 
L 120.5625 214.728733 
L 120.5625 204.208371 
L 123.981618 204.208371 
L 125.691176 204.208371 
L 129.110294 193.688009 
L 135.948529 193.688009 
L 141.077206 193.688009 
L 142.786765 183.167647 
L 144.496324 183.167647 
L 147.915441 172.647285 
L 149.625 172.647285 
L 154.753676 172.647285 
L 161.591912 172.647285 
L 165.011029 172.647285 
L 166.720588 172.647285 
L 170.139706 172.647285 
L 171.849265 172.647285 
L 175.268382 172.647285 
L 176.977941 172.647285 
L 178.6875 162.126923 
L 182.106618 162.126923 
L 185.525735 151.606561 
L 188.944853 130.565837 
L 192.363971 130.565837 
L 194.073529 130.565837 
L 197.492647 130.565837 
L 199.202206 120.045475 
L 206.040441 120.045475 
L 211.169118 120.045475 
L 214.588235 120.045475 
L 216.297794 120.045475 
L 223.136029 109.525113 
L 226.555147 99.004751 
L 229.974265 99.004751 
L 233.393382 88.484389 
L 240.231618 88.484389 
L 243.650735 88.484389 
L 245.360294 88.484389 
L 245.360294 77.964027 
L 248.779412 77.964027 
L 252.198529 77.964027 
L 253.908088 77.964027 
L 257.327206 77.964027 
L 260.746324 77.964027 
L 262.455882 67.443665 
L 265.875 67.443665 
L 267.584559 67.443665 
L 269.294118 56.923303 
L 271.003676 56.923303 
L 274.422794 56.923303 
L 279.551471 56.923303 
L 279.551471 46.402941 
L 284.680147 46.402941 
L 298.356618 46.402941 
L 303.485294 46.402941 
L 305.194853 46.402941 
L 308.613971 46.402941 
L 312.033088 46.402941 
L 318.871324 46.402941 
L 324 46.402941 
" clip-path="url(#p26291e22a4)" style="fill: none; stroke: #505050; stroke-opacity: 0.7; stroke-width: 3; stroke-linecap: round"/>
   </g>
   <g id="line2d_16">
    <path d="M 50.470588 319.932353 
L 53.889706 319.932353 
L 57.308824 319.932353 
L 60.727941 309.411991 
L 64.147059 309.411991 
L 65.856618 298.891629 
L 67.566176 298.891629 
L 76.113971 298.891629 
L 77.823529 298.891629 
L 77.823529 288.371267 
L 79.533088 277.850905 
L 79.533088 256.810181 
L 82.952206 256.810181 
L 86.371324 256.810181 
L 88.080882 256.810181 
L 88.080882 246.289819 
L 89.790441 246.289819 
L 94.919118 246.289819 
L 96.628676 246.289819 
L 101.757353 235.769457 
L 103.466912 235.769457 
L 106.886029 214.728733 
L 110.305147 214.728733 
L 115.433824 214.728733 
L 118.852941 214.728733 
L 120.5625 214.728733 
L 125.691176 204.208371 
L 134.238971 204.208371 
L 134.238971 193.688009 
L 137.658088 193.688009 
L 141.077206 193.688009 
L 147.915441 193.688009 
L 149.625 193.688009 
L 151.334559 172.647285 
L 153.044118 172.647285 
L 156.463235 172.647285 
L 158.172794 172.647285 
L 163.301471 172.647285 
L 166.720588 162.126923 
L 168.430147 162.126923 
L 175.268382 162.126923 
L 176.977941 162.126923 
L 180.397059 162.126923 
L 180.397059 141.086199 
L 182.106618 141.086199 
L 187.235294 141.086199 
L 197.492647 141.086199 
L 202.621324 130.565837 
L 202.621324 120.045475 
L 206.040441 120.045475 
L 211.169118 120.045475 
L 214.588235 109.525113 
L 218.007353 109.525113 
L 219.716912 109.525113 
L 223.136029 109.525113 
L 224.845588 99.004751 
L 228.264706 99.004751 
L 229.974265 99.004751 
L 233.393382 99.004751 
L 235.102941 88.484389 
L 238.522059 88.484389 
L 241.941176 88.484389 
L 247.069853 88.484389 
L 250.488971 88.484389 
L 252.198529 77.964027 
L 257.327206 77.964027 
L 260.746324 77.964027 
L 264.165441 77.964027 
L 269.294118 77.964027 
L 272.713235 77.964027 
L 274.422794 77.964027 
L 277.841912 77.964027 
L 282.970588 77.964027 
L 286.389706 67.443665 
L 288.099265 67.443665 
L 293.227941 67.443665 
L 293.227941 56.923303 
L 296.647059 56.923303 
L 320.580882 56.923303 
L 320.580882 46.402941 
L 324 46.402941 
" clip-path="url(#p26291e22a4)" style="fill: none; stroke: #656565; stroke-opacity: 0.7; stroke-width: 3; stroke-linecap: round"/>
   </g>
   <g id="line2d_17">
    <path d="M 50.470588 319.932353 
L 53.889706 319.932353 
L 57.308824 319.932353 
L 60.727941 309.411991 
L 62.4375 298.891629 
L 65.856618 298.891629 
L 70.985294 298.891629 
L 72.694853 298.891629 
L 72.694853 288.371267 
L 74.404412 288.371267 
L 74.404412 277.850905 
L 76.113971 246.289819 
L 79.533088 246.289819 
L 86.371324 246.289819 
L 89.790441 246.289819 
L 93.209559 246.289819 
L 93.209559 225.249095 
L 96.628676 225.249095 
L 101.757353 225.249095 
L 106.886029 225.249095 
L 112.014706 225.249095 
L 112.014706 214.728733 
L 117.143382 214.728733 
L 118.852941 214.728733 
L 118.852941 204.208371 
L 120.5625 193.688009 
L 123.981618 193.688009 
L 132.529412 193.688009 
L 134.238971 193.688009 
L 139.367647 193.688009 
L 142.786765 193.688009 
L 142.786765 183.167647 
L 146.205882 183.167647 
L 147.915441 172.647285 
L 151.334559 172.647285 
L 156.463235 172.647285 
L 158.172794 172.647285 
L 158.172794 162.126923 
L 161.591912 141.086199 
L 166.720588 141.086199 
L 170.139706 130.565837 
L 173.558824 130.565837 
L 175.268382 130.565837 
L 180.397059 109.525113 
L 183.816176 109.525113 
L 183.816176 99.004751 
L 188.944853 99.004751 
L 192.363971 99.004751 
L 194.073529 99.004751 
L 200.911765 99.004751 
L 202.621324 88.484389 
L 204.330882 88.484389 
L 207.75 88.484389 
L 216.297794 88.484389 
L 219.716912 77.964027 
L 226.555147 77.964027 
L 228.264706 67.443665 
L 233.393382 67.443665 
L 238.522059 67.443665 
L 240.231618 67.443665 
L 240.231618 56.923303 
L 243.650735 56.923303 
L 247.069853 56.923303 
L 247.069853 46.402941 
L 248.779412 46.402941 
L 252.198529 46.402941 
L 255.617647 46.402941 
L 259.036765 46.402941 
L 260.746324 46.402941 
L 265.875 46.402941 
L 267.584559 46.402941 
L 271.003676 46.402941 
L 276.132353 46.402941 
L 284.680147 46.402941 
L 288.099265 46.402941 
L 289.808824 46.402941 
L 296.647059 46.402941 
L 305.194853 46.402941 
L 308.613971 46.402941 
L 312.033088 46.402941 
L 315.452206 46.402941 
L 324 46.402941 
" clip-path="url(#p26291e22a4)" style="fill: none; stroke: #808080; stroke-opacity: 0.7; stroke-width: 3; stroke-linecap: round"/>
   </g>
   <g id="line2d_18">
    <path d="M 50.470588 319.932353 
L 53.233512 319.932353 
L 55.996435 319.932353 
L 58.759358 318.147079 
L 61.522282 314.746558 
L 64.285205 313.173817 
L 67.048128 307.817997 
L 69.811052 303.747998 
L 72.573975 302.391332 
L 75.336898 291.495496 
L 78.099822 283.546778 
L 80.862745 273.447939 
L 83.625668 266.671692 
L 86.388592 263.122398 
L 89.151515 261.018326 
L 91.914439 253.728459 
L 94.677362 248.393891 
L 97.440285 248.060924 
L 100.203209 244.823344 
L 102.966132 239.977602 
L 105.729055 230.881208 
L 108.491979 225.886693 
L 111.254902 221.274736 
L 114.017825 215.235269 
L 116.780749 211.370718 
L 119.543672 207.566386 
L 122.306595 202.593124 
L 125.069519 200.319025 
L 127.832442 192.221534 
L 130.595365 189.479864 
L 133.358289 189.479864 
L 136.121212 185.271719 
L 138.884135 183.167647 
L 141.647059 182.46629 
L 144.409982 176.85543 
L 147.172906 174.01812 
L 149.935829 170.256294 
L 152.698752 165.973763 
L 155.461676 161.712485 
L 158.224599 157.855019 
L 160.987522 154.454497 
L 163.750446 152.959685 
L 166.513369 149.481235 
L 169.276292 141.617531 
L 172.039216 141.086199 
L 174.802139 141.086199 
L 177.565062 138.479133 
L 180.327986 133.321676 
L 183.090909 127.856047 
L 185.853832 122.886327 
L 188.616756 115.100551 
L 191.379679 113.733258 
L 194.142602 113.733258 
L 196.905526 111.629186 
L 199.668449 108.632476 
L 202.431373 103.52461 
L 205.194296 100.357875 
L 207.957219 99.217284 
L 210.720143 99.004751 
L 213.483066 97.580783 
L 216.245989 96.900679 
L 219.008913 93.973043 
L 221.771836 91.008213 
L 224.534759 88.006191 
L 227.297683 85.466427 
L 230.060606 84.223111 
L 232.823529 82.522851 
L 235.586453 80.0681 
L 238.349376 80.0681 
L 241.112299 77.964027 
L 243.875223 77.964027 
L 246.638146 73.755882 
L 249.40107 70.886693 
L 252.163993 66.175554 
L 254.926916 63.23552 
L 257.68984 63.23552 
L 260.452763 63.23552 
L 263.215686 61.131448 
L 265.97861 61.131448 
L 268.741533 59.70748 
L 271.504456 59.027376 
L 274.26738 59.027376 
L 277.030303 59.027376 
L 279.793226 56.923303 
L 282.55615 56.923303 
L 285.319073 55.478082 
L 288.081996 54.819231 
L 290.84492 54.819231 
L 293.607843 52.715158 
L 296.370766 51.163671 
L 299.13369 50.611086 
L 301.896613 50.611086 
L 304.659537 50.611086 
L 307.42246 50.611086 
L 310.185383 48.507014 
L 312.948307 48.507014 
L 315.71123 48.507014 
L 318.474153 48.507014 
L 321.237077 46.402941 
L 324 46.402941 
" clip-path="url(#p26291e22a4)" style="fill: none; stroke: #87001d; stroke-width: 3; stroke-linecap: round"/>
   </g>
   <g id="patch_3">
    <path d="M 45 319.932353 
L 45 43.667647 
" style="fill: none; stroke: #262626; stroke-width: 1.5; stroke-linejoin: miter; stroke-linecap: square"/>
   </g>
   <g id="patch_4">
    <path d="M 45 319.932353 
L 324 319.932353 
" style="fill: none; stroke: #262626; stroke-width: 1.5; stroke-linejoin: miter; stroke-linecap: square"/>
   </g>
   <g id="legend_1">
    <g id="line2d_19">
     <path d="M 50.44 196.773915 
L 64.44 196.773915 
L 78.44 196.773915 
" style="fill: none; stroke: #202020; stroke-opacity: 0.7; stroke-width: 3; stroke-linecap: round"/>
    </g>
    <g id="text_15">
     <text style="fill: #262626; font: 14px 'sans-serif'; text-anchor: start" x="89.64" y="201.673915" transform="rotate(-0, 89.64, 201.673915)">ROC fold 0 (AUC = 0.68)</text>
    </g>
    <g id="line2d_20">
     <path d="M 50.44 217.32329 
L 64.44 217.32329 
L 78.44 217.32329 
" style="fill: none; stroke: #353535; stroke-opacity: 0.7; stroke-width: 3; stroke-linecap: round"/>
    </g>
    <g id="text_16">
     <text style="fill: #262626; font: 14px 'sans-serif'; text-anchor: start" x="89.64" y="222.22329" transform="rotate(-0, 89.64, 222.22329)">ROC fold 1 (AUC = 0.64)</text>
    </g>
    <g id="line2d_21">
     <path d="M 50.44 237.872665 
L 64.44 237.872665 
L 78.44 237.872665 
" style="fill: none; stroke: #505050; stroke-opacity: 0.7; stroke-width: 3; stroke-linecap: round"/>
    </g>
    <g id="text_17">
     <text style="fill: #262626; font: 14px 'sans-serif'; text-anchor: start" x="89.64" y="242.772665" transform="rotate(-0, 89.64, 242.772665)">ROC fold 2 (AUC = 0.59)</text>
    </g>
    <g id="line2d_22">
     <path d="M 50.44 258.42204 
L 64.44 258.42204 
L 78.44 258.42204 
" style="fill: none; stroke: #656565; stroke-opacity: 0.7; stroke-width: 3; stroke-linecap: round"/>
    </g>
    <g id="text_18">
     <text style="fill: #262626; font: 14px 'sans-serif'; text-anchor: start" x="89.64" y="263.32204" transform="rotate(-0, 89.64, 263.32204)">ROC fold 3 (AUC = 0.60)</text>
    </g>
    <g id="line2d_23">
     <path d="M 50.44 278.971415 
L 64.44 278.971415 
L 78.44 278.971415 
" style="fill: none; stroke: #808080; stroke-opacity: 0.7; stroke-width: 3; stroke-linecap: round"/>
    </g>
    <g id="text_19">
     <text style="fill: #262626; font: 14px 'sans-serif'; text-anchor: start" x="89.64" y="283.871415" transform="rotate(-0, 89.64, 283.871415)">ROC fold 4 (AUC = 0.67)</text>
    </g>
    <g id="line2d_24">
     <path d="M 50.44 299.52079 
L 64.44 299.52079 
L 78.44 299.52079 
" style="fill: none; stroke: #87001d; stroke-width: 3; stroke-linecap: round"/>
    </g>
    <g id="text_20">
     <!-- Mean ROC (AUC = 0.64 $\pm$ 0.04) -->
     <g style="fill: #262626" transform="translate(89.64 304.42079)">
      <text>
       <tspan style="font: 14px 'DejaVu Sans'" x="0 12.079102 20.692383 29.271484 38.144531 42.594727 52.322266 63.341797 73.117188 77.567383 83.029297 92.606445 102.853516 112.628906 117.079102 128.80957 133.259766 142.166992 146.617188 155.524414 164.431641 168.881836 180.612305 185.0625 193.969727 198.419922 207.327148 216.234375" y="-0.375">Mean ROC (AUC = 0.64 ± 0.04)</tspan>
      </text>
     </g>
    </g>
   </g>
  </g>
 </g>
 <defs>
  <clipPath id="p26291e22a4">
   <rect x="45" y="43.667647" width="279" height="276.264706"/>
  </clipPath>
 </defs>
</svg>
