<?xml version="1.0" encoding="utf-8" standalone="no"?>
<!DOCTYPE svg PUBLIC "-//W3C//DTD SVG 1.1//EN"
  "http://www.w3.org/Graphics/SVG/1.1/DTD/svg11.dtd">
<!-- Created with matplotlib (https://matplotlib.org/) -->
<svg height="360pt" version="1.1" viewBox="0 0 360 360" width="360pt" xmlns="http://www.w3.org/2000/svg" xmlns:xlink="http://www.w3.org/1999/xlink">
 <defs>
  <style type="text/css">
*{stroke-linecap:butt;stroke-linejoin:round;}
  </style>
 </defs>
 <g id="figure_1">
  <g id="patch_1">
   <path d="M 0 360 
L 360 360 
L 360 0 
L 0 0 
z
" style="fill:#ffffff;"/>
  </g>
  <g id="axes_1">
   <g id="patch_2">
    <path d="M 47.254455 315 
L 321.745545 315 
L 321.745545 43.2 
L 47.254455 43.2 
z
" style="fill:#ffffff;"/>
   </g>
   <g id="matplotlib.axis_1">
    <g id="xtick_1">
     <g id="line2d_1">
      <defs>
       <path d="M 0 0 
L 0 3.5 
" id="m1cb8d05f00" style="stroke:#262626;stroke-width:1.5;"/>
      </defs>
      <g>
       <use style="fill:#262626;stroke:#262626;stroke-width:1.5;" x="52.636634" xlink:href="#m1cb8d05f00" y="315"/>
      </g>
     </g>
     <g id="text_1">
      <text style="fill:#262626;font-family:Cantarell;font-size:14px;font-style:normal;font-weight:normal;text-anchor:middle;" transform="rotate(-0, 52.636634, 332.051562)" x="52.636634" y="332.051562">0.0</text>
     </g>
    </g>
    <g id="xtick_2">
     <g id="line2d_2">
      <g>
       <use style="fill:#262626;stroke:#262626;stroke-width:1.5;" x="106.458416" xlink:href="#m1cb8d05f00" y="315"/>
      </g>
     </g>
     <g id="text_2">
      <text style="fill:#262626;font-family:Cantarell;font-size:14px;font-style:normal;font-weight:normal;text-anchor:middle;" transform="rotate(-0, 106.458416, 332.051562)" x="106.458416" y="332.051562">0.2</text>
     </g>
    </g>
    <g id="xtick_3">
     <g id="line2d_3">
      <g>
       <use style="fill:#262626;stroke:#262626;stroke-width:1.5;" x="160.280198" xlink:href="#m1cb8d05f00" y="315"/>
      </g>
     </g>
     <g id="text_3">
      <text style="fill:#262626;font-family:Cantarell;font-size:14px;font-style:normal;font-weight:normal;text-anchor:middle;" transform="rotate(-0, 160.280198, 332.051562)" x="160.280198" y="332.051562">0.4</text>
     </g>
    </g>
    <g id="xtick_4">
     <g id="line2d_4">
      <g>
       <use style="fill:#262626;stroke:#262626;stroke-width:1.5;" x="214.10198" xlink:href="#m1cb8d05f00" y="315"/>
      </g>
     </g>
     <g id="text_4">
      <text style="fill:#262626;font-family:Cantarell;font-size:14px;font-style:normal;font-weight:normal;text-anchor:middle;" transform="rotate(-0, 214.10198, 332.051562)" x="214.10198" y="332.051562">0.6</text>
     </g>
    </g>
    <g id="xtick_5">
     <g id="line2d_5">
      <g>
       <use style="fill:#262626;stroke:#262626;stroke-width:1.5;" x="267.923762" xlink:href="#m1cb8d05f00" y="315"/>
      </g>
     </g>
     <g id="text_5">
      <text style="fill:#262626;font-family:Cantarell;font-size:14px;font-style:normal;font-weight:normal;text-anchor:middle;" transform="rotate(-0, 267.923762, 332.051562)" x="267.923762" y="332.051562">0.8</text>
     </g>
    </g>
    <g id="xtick_6">
     <g id="line2d_6">
      <g>
       <use style="fill:#262626;stroke:#262626;stroke-width:1.5;" x="321.745545" xlink:href="#m1cb8d05f00" y="315"/>
      </g>
     </g>
     <g id="text_6">
      <text style="fill:#262626;font-family:Cantarell;font-size:14px;font-style:normal;font-weight:normal;text-anchor:middle;" transform="rotate(-0, 321.745545, 332.051562)" x="321.745545" y="332.051562">1.0</text>
     </g>
    </g>
    <g id="text_7">
     <text style="fill:#262626;font-family:Cantarell;font-size:14px;font-style:normal;font-weight:normal;text-anchor:middle;" transform="rotate(-0, 184.5, 349.574687)" x="184.5" y="349.574687">False Positive Rate (Positive label: 1.0)</text>
    </g>
   </g>
   <g id="matplotlib.axis_2">
    <g id="ytick_1">
     <g id="line2d_7">
      <defs>
       <path d="M 0 0 
L -3.5 0 
" id="m973958c721" style="stroke:#262626;stroke-width:1.5;"/>
      </defs>
      <g>
       <use style="fill:#262626;stroke:#262626;stroke-width:1.5;" x="47.254455" xlink:href="#m973958c721" y="315"/>
      </g>
     </g>
     <g id="text_8">
      <text style="fill:#262626;font-family:Cantarell;font-size:14px;font-style:normal;font-weight:normal;text-anchor:end;" transform="rotate(-0, 40.254455, 320.025781)" x="40.254455" y="320.025781">0.0</text>
     </g>
    </g>
    <g id="ytick_2">
     <g id="line2d_8">
      <g>
       <use style="fill:#262626;stroke:#262626;stroke-width:1.5;" x="47.254455" xlink:href="#m973958c721" y="261.178218"/>
      </g>
     </g>
     <g id="text_9">
      <text style="fill:#262626;font-family:Cantarell;font-size:14px;font-style:normal;font-weight:normal;text-anchor:end;" transform="rotate(-0, 40.254455, 266.203999)" x="40.254455" y="266.203999">0.2</text>
     </g>
    </g>
    <g id="ytick_3">
     <g id="line2d_9">
      <g>
       <use style="fill:#262626;stroke:#262626;stroke-width:1.5;" x="47.254455" xlink:href="#m973958c721" y="207.356436"/>
      </g>
     </g>
     <g id="text_10">
      <text style="fill:#262626;font-family:Cantarell;font-size:14px;font-style:normal;font-weight:normal;text-anchor:end;" transform="rotate(-0, 40.254455, 212.382217)" x="40.254455" y="212.382217">0.4</text>
     </g>
    </g>
    <g id="ytick_4">
     <g id="line2d_10">
      <g>
       <use style="fill:#262626;stroke:#262626;stroke-width:1.5;" x="47.254455" xlink:href="#m973958c721" y="153.534653"/>
      </g>
     </g>
     <g id="text_11">
      <text style="fill:#262626;font-family:Cantarell;font-size:14px;font-style:normal;font-weight:normal;text-anchor:end;" transform="rotate(-0, 40.254455, 158.560435)" x="40.254455" y="158.560435">0.6</text>
     </g>
    </g>
    <g id="ytick_5">
     <g id="line2d_11">
      <g>
       <use style="fill:#262626;stroke:#262626;stroke-width:1.5;" x="47.254455" xlink:href="#m973958c721" y="99.712871"/>
      </g>
     </g>
     <g id="text_12">
      <text style="fill:#262626;font-family:Cantarell;font-size:14px;font-style:normal;font-weight:normal;text-anchor:end;" transform="rotate(-0, 40.254455, 104.738653)" x="40.254455" y="104.738653">0.8</text>
     </g>
    </g>
    <g id="ytick_6">
     <g id="line2d_12">
      <g>
       <use style="fill:#262626;stroke:#262626;stroke-width:1.5;" x="47.254455" xlink:href="#m973958c721" y="45.891089"/>
      </g>
     </g>
     <g id="text_13">
      <text style="fill:#262626;font-family:Cantarell;font-size:14px;font-style:normal;font-weight:normal;text-anchor:end;" transform="rotate(-0, 40.254455, 50.91687)" x="40.254455" y="50.91687">1.0</text>
     </g>
    </g>
    <g id="text_14">
     <text style="fill:#262626;font-family:Cantarell;font-size:14px;font-style:normal;font-weight:normal;text-anchor:middle;" transform="rotate(-90, 13.209143, 179.1)" x="13.209143" y="179.1">True Positive Rate (Positive label: 1.0)</text>
    </g>
   </g>
   <g id="PolyCollection_1">
    <defs>
     <path d="M 52.636634 -45 
L 52.636634 -45 
L 55.354905 -60.377652 
L 58.073177 -60.377652 
L 60.791449 -60.377652 
L 63.509721 -73.833098 
L 66.227993 -73.833098 
L 68.946265 -73.833098 
L 71.664536 -102.666195 
L 74.382808 -102.666195 
L 77.10108 -102.666195 
L 79.819352 -118.043847 
L 82.537624 -118.043847 
L 85.255896 -118.043847 
L 87.974167 -163.2157 
L 90.692439 -163.2157 
L 93.410711 -163.2157 
L 96.128983 -170.904526 
L 98.847255 -170.904526 
L 101.565527 -170.904526 
L 104.283798 -186.282178 
L 107.00207 -186.282178 
L 109.720342 -186.282178 
L 112.438614 -193.971004 
L 115.156886 -193.971004 
L 117.875158 -193.971004 
L 120.593429 -193.971004 
L 123.311701 -193.971004 
L 126.029973 -193.971004 
L 128.748245 -217.037482 
L 131.466517 -217.037482 
L 134.184788 -217.037482 
L 136.90306 -217.037482 
L 139.621332 -217.037482 
L 142.339604 -217.037482 
L 145.057876 -217.037482 
L 147.776148 -217.037482 
L 150.494419 -217.037482 
L 153.212691 -217.037482 
L 155.930963 -254.520509 
L 158.649235 -254.520509 
L 161.367507 -254.520509 
L 164.085779 -254.520509 
L 166.80405 -254.520509 
L 169.522322 -254.520509 
L 172.240594 -254.520509 
L 174.958866 -254.520509 
L 177.677138 -254.520509 
L 180.39541 -254.520509 
L 183.113681 -254.520509 
L 185.831953 -254.520509 
L 188.550225 -268.937058 
L 191.268497 -268.937058 
L 193.986769 -268.937058 
L 196.705041 -268.937058 
L 199.423312 -268.937058 
L 202.141584 -268.937058 
L 204.859856 -268.937058 
L 207.578128 -268.937058 
L 210.2964 -268.937058 
L 213.014671 -291.042433 
L 215.732943 -291.042433 
L 218.451215 -291.042433 
L 221.169487 -291.042433 
L 223.887759 -291.042433 
L 226.606031 -291.042433 
L 229.324302 -298.731259 
L 232.042574 -298.731259 
L 234.760846 -298.731259 
L 237.479118 -298.731259 
L 240.19739 -298.731259 
L 242.915662 -298.731259 
L 245.633933 -298.731259 
L 248.352205 -298.731259 
L 251.070477 -298.731259 
L 253.788749 -298.731259 
L 256.507021 -298.731259 
L 259.225293 -298.731259 
L 261.943564 -298.731259 
L 264.661836 -298.731259 
L 267.380108 -298.731259 
L 270.09838 -298.731259 
L 272.816652 -298.731259 
L 275.534923 -298.731259 
L 278.253195 -298.731259 
L 280.971467 -306.420085 
L 283.689739 -306.420085 
L 286.408011 -306.420085 
L 289.126283 -306.420085 
L 291.844554 -306.420085 
L 294.562826 -306.420085 
L 297.281098 -314.108911 
L 299.99937 -314.108911 
L 302.717642 -314.108911 
L 305.435914 -314.108911 
L 308.154185 -314.108911 
L 310.872457 -314.108911 
L 313.590729 -314.108911 
L 316.309001 -314.108911 
L 319.027273 -314.108911 
L 321.745545 -314.108911 
L 321.745545 -45 
L 321.745545 -45 
L 319.027273 -45 
L 316.309001 -45 
L 313.590729 -45 
L 310.872457 -45 
L 308.154185 -45 
L 305.435914 -45 
L 302.717642 -45 
L 299.99937 -45 
L 297.281098 -45 
L 294.562826 -45 
L 291.844554 -45 
L 289.126283 -45 
L 286.408011 -45 
L 283.689739 -45 
L 280.971467 -45 
L 278.253195 -45 
L 275.534923 -45 
L 272.816652 -45 
L 270.09838 -45 
L 267.380108 -45 
L 264.661836 -45 
L 261.943564 -45 
L 259.225293 -45 
L 256.507021 -45 
L 253.788749 -45 
L 251.070477 -45 
L 248.352205 -45 
L 245.633933 -45 
L 242.915662 -45 
L 240.19739 -45 
L 237.479118 -45 
L 234.760846 -45 
L 232.042574 -45 
L 229.324302 -45 
L 226.606031 -45 
L 223.887759 -45 
L 221.169487 -45 
L 218.451215 -45 
L 215.732943 -45 
L 213.014671 -45 
L 210.2964 -45 
L 207.578128 -45 
L 204.859856 -45 
L 202.141584 -45 
L 199.423312 -45 
L 196.705041 -45 
L 193.986769 -45 
L 191.268497 -45 
L 188.550225 -45 
L 185.831953 -45 
L 183.113681 -45 
L 180.39541 -45 
L 177.677138 -45 
L 174.958866 -45 
L 172.240594 -45 
L 169.522322 -45 
L 166.80405 -45 
L 164.085779 -45 
L 161.367507 -45 
L 158.649235 -45 
L 155.930963 -45 
L 153.212691 -45 
L 150.494419 -45 
L 147.776148 -45 
L 145.057876 -45 
L 142.339604 -45 
L 139.621332 -45 
L 136.90306 -45 
L 134.184788 -45 
L 131.466517 -45 
L 128.748245 -45 
L 126.029973 -45 
L 123.311701 -45 
L 120.593429 -45 
L 117.875158 -45 
L 115.156886 -45 
L 112.438614 -45 
L 109.720342 -45 
L 107.00207 -45 
L 104.283798 -45 
L 101.565527 -45 
L 98.847255 -45 
L 96.128983 -45 
L 93.410711 -45 
L 90.692439 -45 
L 87.974167 -45 
L 85.255896 -45 
L 82.537624 -45 
L 79.819352 -45 
L 77.10108 -45 
L 74.382808 -45 
L 71.664536 -45 
L 68.946265 -45 
L 66.227993 -45 
L 63.509721 -45 
L 60.791449 -45 
L 58.073177 -45 
L 55.354905 -45 
L 52.636634 -45 
z
" id="mbfc7cba99f" style="stroke:#87001d;stroke-opacity:0.2;"/>
    </defs>
    <g clip-path="url(#p5139491421)">
     <use style="fill:#87001d;fill-opacity:0.2;stroke:#87001d;stroke-opacity:0.2;" x="0" xlink:href="#mbfc7cba99f" y="360"/>
    </g>
   </g>
   <g id="line2d_13">
    <path clip-path="url(#p5139491421)" d="M 52.636634 315 
L 61.046287 315 
L 61.046287 247.722772 
L 69.455941 247.722772 
L 69.455941 180.445545 
L 86.275248 180.445545 
L 86.275248 146.806931 
L 153.552475 146.806931 
L 153.552475 113.168317 
L 187.191089 113.168317 
L 187.191089 79.529703 
L 204.010396 79.529703 
L 212.42005 79.529703 
L 212.42005 45.891089 
L 321.745545 45.891089 
" style="fill:none;stroke:#202020;stroke-linecap:round;stroke-opacity:0.7;stroke-width:3;"/>
   </g>
   <g id="line2d_14">
    <path clip-path="url(#p5139491421)" d="M 52.636634 315 
L 52.636634 276.55587 
L 86.275248 276.55587 
L 86.275248 238.11174 
L 111.504208 238.11174 
L 111.504208 199.66761 
L 128.323515 199.66761 
L 128.323515 161.223479 
L 212.42005 161.223479 
L 212.42005 84.335219 
L 229.239356 84.335219 
L 229.239356 45.891089 
L 321.745545 45.891089 
" style="fill:none;stroke:#353535;stroke-linecap:round;stroke-opacity:0.7;stroke-width:3;"/>
   </g>
   <g id="line2d_15">
    <path clip-path="url(#p5139491421)" d="M 52.636634 315 
L 52.636634 276.55587 
L 69.455941 276.55587 
L 69.455941 238.11174 
L 86.275248 238.11174 
L 86.275248 161.223479 
L 103.094554 161.223479 
L 103.094554 122.779349 
L 128.323515 122.779349 
L 128.323515 84.335219 
L 229.239356 84.335219 
L 246.058663 84.335219 
L 296.516584 84.335219 
L 296.516584 45.891089 
L 321.745545 45.891089 
" style="fill:none;stroke:#505050;stroke-linecap:round;stroke-opacity:0.7;stroke-width:3;"/>
   </g>
   <g id="line2d_16">
    <path clip-path="url(#p5139491421)" d="M 52.636634 315 
L 61.046287 315 
L 77.865594 315 
L 77.865594 276.55587 
L 86.275248 276.55587 
L 86.275248 238.11174 
L 153.552475 238.11174 
L 153.552475 84.335219 
L 187.191089 84.335219 
L 187.191089 45.891089 
L 321.745545 45.891089 
" style="fill:none;stroke:#656565;stroke-linecap:round;stroke-opacity:0.7;stroke-width:3;"/>
   </g>
   <g id="line2d_17">
    <path clip-path="url(#p5139491421)" d="M 52.636634 315 
L 61.046287 315 
L 69.455941 315 
L 69.455941 276.55587 
L 77.865594 276.55587 
L 77.865594 238.11174 
L 86.275248 238.11174 
L 86.275248 199.66761 
L 94.684901 199.66761 
L 94.684901 161.223479 
L 103.094554 161.223479 
L 103.094554 122.779349 
L 128.323515 122.779349 
L 128.323515 84.335219 
L 279.697277 84.335219 
L 279.697277 45.891089 
L 321.745545 45.891089 
" style="fill:none;stroke:#808080;stroke-linecap:round;stroke-opacity:0.7;stroke-width:3;"/>
   </g>
   <g id="line2d_18">
    <path clip-path="url(#p5139491421)" d="M 52.636634 315 
L 55.354905 299.622348 
L 58.073177 299.622348 
L 60.791449 299.622348 
L 63.509721 286.166902 
L 66.227993 286.166902 
L 68.946265 286.166902 
L 71.664536 257.333805 
L 74.382808 257.333805 
L 77.10108 257.333805 
L 79.819352 241.956153 
L 82.537624 241.956153 
L 85.255896 241.956153 
L 87.974167 196.7843 
L 90.692439 196.7843 
L 93.410711 196.7843 
L 96.128983 189.095474 
L 98.847255 189.095474 
L 101.565527 189.095474 
L 104.283798 173.717822 
L 107.00207 173.717822 
L 109.720342 173.717822 
L 112.438614 166.028996 
L 115.156886 166.028996 
L 117.875158 166.028996 
L 120.593429 166.028996 
L 123.311701 166.028996 
L 126.029973 166.028996 
L 128.748245 142.962518 
L 131.466517 142.962518 
L 134.184788 142.962518 
L 136.90306 142.962518 
L 139.621332 142.962518 
L 142.339604 142.962518 
L 145.057876 142.962518 
L 147.776148 142.962518 
L 150.494419 142.962518 
L 153.212691 142.962518 
L 155.930963 105.479491 
L 158.649235 105.479491 
L 161.367507 105.479491 
L 164.085779 105.479491 
L 166.80405 105.479491 
L 169.522322 105.479491 
L 172.240594 105.479491 
L 174.958866 105.479491 
L 177.677138 105.479491 
L 180.39541 105.479491 
L 183.113681 105.479491 
L 185.831953 105.479491 
L 188.550225 91.062942 
L 191.268497 91.062942 
L 193.986769 91.062942 
L 196.705041 91.062942 
L 199.423312 91.062942 
L 202.141584 91.062942 
L 204.859856 91.062942 
L 207.578128 91.062942 
L 210.2964 91.062942 
L 213.014671 68.957567 
L 215.732943 68.957567 
L 218.451215 68.957567 
L 221.169487 68.957567 
L 223.887759 68.957567 
L 226.606031 68.957567 
L 229.324302 61.268741 
L 232.042574 61.268741 
L 234.760846 61.268741 
L 237.479118 61.268741 
L 240.19739 61.268741 
L 242.915662 61.268741 
L 245.633933 61.268741 
L 248.352205 61.268741 
L 251.070477 61.268741 
L 253.788749 61.268741 
L 256.507021 61.268741 
L 259.225293 61.268741 
L 261.943564 61.268741 
L 264.661836 61.268741 
L 267.380108 61.268741 
L 270.09838 61.268741 
L 272.816652 61.268741 
L 275.534923 61.268741 
L 278.253195 61.268741 
L 280.971467 53.579915 
L 283.689739 53.579915 
L 286.408011 53.579915 
L 289.126283 53.579915 
L 291.844554 53.579915 
L 294.562826 53.579915 
L 297.281098 45.891089 
L 299.99937 45.891089 
L 302.717642 45.891089 
L 305.435914 45.891089 
L 308.154185 45.891089 
L 310.872457 45.891089 
L 313.590729 45.891089 
L 316.309001 45.891089 
L 319.027273 45.891089 
L 321.745545 45.891089 
" style="fill:none;stroke:#87001d;stroke-linecap:round;stroke-width:3;"/>
   </g>
   <g id="patch_3">
    <path d="M 47.254455 315 
L 47.254455 43.2 
" style="fill:none;stroke:#262626;stroke-linecap:square;stroke-linejoin:miter;stroke-width:1.5;"/>
   </g>
   <g id="patch_4">
    <path d="M 47.254455 315 
L 321.745545 315 
" style="fill:none;stroke:#262626;stroke-linecap:square;stroke-linejoin:miter;stroke-width:1.5;"/>
   </g>
   <g id="legend_1">
    <g id="line2d_19">
     <path d="M 72.545545 191.412813 
L 100.545545 191.412813 
" style="fill:none;stroke:#202020;stroke-linecap:round;stroke-opacity:0.7;stroke-width:3;"/>
    </g>
    <g id="line2d_20"/>
    <g id="text_15">
     <text style="fill:#262626;font-family:Cantarell;font-size:14px;font-style:normal;font-weight:normal;text-anchor:start;" transform="rotate(-0, 111.745545, 196.312813)" x="111.745545" y="196.312813">ROC fold 0 (AUC = 0.78)</text>
    </g>
    <g id="line2d_21">
     <path d="M 72.545545 211.935937 
L 100.545545 211.935937 
" style="fill:none;stroke:#353535;stroke-linecap:round;stroke-opacity:0.7;stroke-width:3;"/>
    </g>
    <g id="line2d_22"/>
    <g id="text_16">
     <text style="fill:#262626;font-family:Cantarell;font-size:14px;font-style:normal;font-weight:normal;text-anchor:start;" transform="rotate(-0, 111.745545, 216.835938)" x="111.745545" y="216.835938">ROC fold 1 (AUC = 0.65)</text>
    </g>
    <g id="line2d_23">
     <path d="M 72.545545 232.459062 
L 100.545545 232.459062 
" style="fill:none;stroke:#505050;stroke-linecap:round;stroke-opacity:0.7;stroke-width:3;"/>
    </g>
    <g id="line2d_24"/>
    <g id="text_17">
     <text style="fill:#262626;font-family:Cantarell;font-size:14px;font-style:normal;font-weight:normal;text-anchor:start;" transform="rotate(-0, 111.745545, 237.359062)" x="111.745545" y="237.359062">ROC fold 2 (AUC = 0.76)</text>
    </g>
    <g id="line2d_25">
     <path d="M 72.545545 252.982187 
L 100.545545 252.982187 
" style="fill:none;stroke:#656565;stroke-linecap:round;stroke-opacity:0.7;stroke-width:3;"/>
    </g>
    <g id="line2d_26"/>
    <g id="text_18">
     <text style="fill:#262626;font-family:Cantarell;font-size:14px;font-style:normal;font-weight:normal;text-anchor:start;" transform="rotate(-0, 111.745545, 257.882187)" x="111.745545" y="257.882187">ROC fold 3 (AUC = 0.68)</text>
    </g>
    <g id="line2d_27">
     <path d="M 72.545545 273.505313 
L 100.545545 273.505313 
" style="fill:none;stroke:#808080;stroke-linecap:round;stroke-opacity:0.7;stroke-width:3;"/>
    </g>
    <g id="line2d_28"/>
    <g id="text_19">
     <text style="fill:#262626;font-family:Cantarell;font-size:14px;font-style:normal;font-weight:normal;text-anchor:start;" transform="rotate(-0, 111.745545, 278.405313)" x="111.745545" y="278.405313">ROC fold 4 (AUC = 0.75)</text>
    </g>
    <g id="line2d_29">
     <path d="M 72.545545 294.028437 
L 100.545545 294.028437 
" style="fill:none;stroke:#87001d;stroke-linecap:round;stroke-width:3;"/>
    </g>
    <g id="line2d_30"/>
    <g id="text_20">
     <!-- Mean ROC (AUC = 0.72 $\pm$ 0.05) -->
     <g style="fill:#262626;" transform="translate(111.745545 298.928437)">
      <text>
       <tspan style="font-family:Cantarell;font-size:14px;font-style:regular;font-weight:regular;" x="0 11.829987 19.039978 25.773972 33.305969 37.12796 45.429947 56.097946 64.931946 68.753937 73.82193 82.151917 91.685913 100.519913 104.341904 113.9039 117.725891 125.761887 129.261887 137.297882 145.333878 160.886337 164.708328 172.744324 176.244324 184.280319 192.316315" y="-0.78125">Mean ROC (AUC = 0.72  0.05)</tspan>
       <tspan style="font-family:DejaVu Sans;font-size:14px;font-style:book;font-weight:book;" x="149.155869" y="-0.78125">±</tspan>
      </text>
     </g>
    </g>
   </g>
  </g>
 </g>
 <defs>
  <clipPath id="p5139491421">
   <rect height="271.8" width="274.491089" x="47.254455" y="43.2"/>
  </clipPath>
 </defs>
</svg>
