<?xml version="1.0" encoding="utf-8" standalone="no"?>
<!DOCTYPE svg PUBLIC "-//W3C//DTD SVG 1.1//EN"
  "http://www.w3.org/Graphics/SVG/1.1/DTD/svg11.dtd">
<svg xmlns:xlink="http://www.w3.org/1999/xlink" width="360pt" height="360pt" viewBox="0 0 360 360" xmlns="http://www.w3.org/2000/svg" version="1.1">
 <metadata>
  <rdf:RDF xmlns:dc="http://purl.org/dc/elements/1.1/" xmlns:cc="http://creativecommons.org/ns#" xmlns:rdf="http://www.w3.org/1999/02/22-rdf-syntax-ns#">
   <cc:Work>
    <dc:type rdf:resource="http://purl.org/dc/dcmitype/StillImage"/>
    <dc:date>2023-12-01T16:47:03.172173</dc:date>
    <dc:format>image/svg+xml</dc:format>
    <dc:creator>
     <cc:Agent>
      <dc:title>Matplotlib v3.5.3, https://matplotlib.org/</dc:title>
     </cc:Agent>
    </dc:creator>
   </cc:Work>
  </rdf:RDF>
 </metadata>
 <defs>
  <style type="text/css">*{stroke-linejoin: round; stroke-linecap: butt}</style>
 </defs>
 <g id="figure_1">
  <g id="patch_1">
   <path d="M 0 360 
L 360 360 
L 360 0 
L 0 0 
z
" style="fill: #ffffff"/>
  </g>
  <g id="axes_1">
   <g id="patch_2">
    <path d="M 45 320.4 
L 324 320.4 
L 324 43.2 
L 45 43.2 
z
" style="fill: #ffffff"/>
   </g>
   <g id="matplotlib.axis_1">
    <g id="xtick_1">
     <g id="line2d_1">
      <defs>
       <path id="m5b2dc5cfe3" d="M 0 0 
L 0 3.5 
" style="stroke: #262626; stroke-width: 2"/>
      </defs>
      <g>
       <use xlink:href="#m5b2dc5cfe3" x="136.344846" y="320.4" style="fill: #262626; stroke: #262626; stroke-width: 2"/>
      </g>
     </g>
     <g id="text_1">
      <text style="fill: #262626; font: 14px 'sans-serif'; text-anchor: middle" x="136.344846" y="338.037813" transform="rotate(-0, 136.344846, 338.037813)">−5</text>
     </g>
    </g>
    <g id="xtick_2">
     <g id="line2d_2">
      <g>
       <use xlink:href="#m5b2dc5cfe3" x="228.128003" y="320.4" style="fill: #262626; stroke: #262626; stroke-width: 2"/>
      </g>
     </g>
     <g id="text_2">
      <text style="fill: #262626; font: 14px 'sans-serif'; text-anchor: middle" x="228.128003" y="338.037813" transform="rotate(-0, 228.128003, 338.037813)">0</text>
     </g>
    </g>
    <g id="xtick_3">
     <g id="line2d_3">
      <g>
       <use xlink:href="#m5b2dc5cfe3" x="319.91116" y="320.4" style="fill: #262626; stroke: #262626; stroke-width: 2"/>
      </g>
     </g>
     <g id="text_3">
      <text style="fill: #262626; font: 14px 'sans-serif'; text-anchor: middle" x="319.91116" y="338.037813" transform="rotate(-0, 319.91116, 338.037813)">5</text>
     </g>
    </g>
    <g id="text_4">
     <text style="fill: #262626; font: 14px 'sans-serif'; text-anchor: middle" x="184.5" y="355.587188" transform="rotate(-0, 184.5, 355.587188)">Rep-2 log2 enriched read counts</text>
    </g>
   </g>
   <g id="matplotlib.axis_2">
    <g id="ytick_1">
     <g id="line2d_4">
      <defs>
       <path id="m22323cb6bf" d="M 0 0 
L -3.5 0 
" style="stroke: #262626; stroke-width: 2"/>
      </defs>
      <g>
       <use xlink:href="#m22323cb6bf" x="45" y="284.35908" style="fill: #262626; stroke: #262626; stroke-width: 2"/>
      </g>
     </g>
     <g id="text_5">
      <text style="fill: #262626; font: 14px 'sans-serif'; text-anchor: end" x="38" y="289.677987" transform="rotate(-0, 38, 289.677987)">−8</text>
     </g>
    </g>
    <g id="ytick_2">
     <g id="line2d_5">
      <g>
       <use xlink:href="#m22323cb6bf" x="45" y="247.882677" style="fill: #262626; stroke: #262626; stroke-width: 2"/>
      </g>
     </g>
     <g id="text_6">
      <text style="fill: #262626; font: 14px 'sans-serif'; text-anchor: end" x="38" y="253.201584" transform="rotate(-0, 38, 253.201584)">−6</text>
     </g>
    </g>
    <g id="ytick_3">
     <g id="line2d_6">
      <g>
       <use xlink:href="#m22323cb6bf" x="45" y="211.406274" style="fill: #262626; stroke: #262626; stroke-width: 2"/>
      </g>
     </g>
     <g id="text_7">
      <text style="fill: #262626; font: 14px 'sans-serif'; text-anchor: end" x="38" y="216.725181" transform="rotate(-0, 38, 216.725181)">−4</text>
     </g>
    </g>
    <g id="ytick_4">
     <g id="line2d_7">
      <g>
       <use xlink:href="#m22323cb6bf" x="45" y="174.929871" style="fill: #262626; stroke: #262626; stroke-width: 2"/>
      </g>
     </g>
     <g id="text_8">
      <text style="fill: #262626; font: 14px 'sans-serif'; text-anchor: end" x="38" y="180.248778" transform="rotate(-0, 38, 180.248778)">−2</text>
     </g>
    </g>
    <g id="ytick_5">
     <g id="line2d_8">
      <g>
       <use xlink:href="#m22323cb6bf" x="45" y="138.453468" style="fill: #262626; stroke: #262626; stroke-width: 2"/>
      </g>
     </g>
     <g id="text_9">
      <text style="fill: #262626; font: 14px 'sans-serif'; text-anchor: end" x="38" y="143.772375" transform="rotate(-0, 38, 143.772375)">0</text>
     </g>
    </g>
    <g id="ytick_6">
     <g id="line2d_9">
      <g>
       <use xlink:href="#m22323cb6bf" x="45" y="101.977065" style="fill: #262626; stroke: #262626; stroke-width: 2"/>
      </g>
     </g>
     <g id="text_10">
      <text style="fill: #262626; font: 14px 'sans-serif'; text-anchor: end" x="38" y="107.295972" transform="rotate(-0, 38, 107.295972)">2</text>
     </g>
    </g>
    <g id="ytick_7">
     <g id="line2d_10">
      <g>
       <use xlink:href="#m22323cb6bf" x="45" y="65.500662" style="fill: #262626; stroke: #262626; stroke-width: 2"/>
      </g>
     </g>
     <g id="text_11">
      <text style="fill: #262626; font: 14px 'sans-serif'; text-anchor: end" x="38" y="70.819568" transform="rotate(-0, 38, 70.819568)">4</text>
     </g>
    </g>
    <g id="text_12">
     <text style="fill: #262626; font: 14px 'sans-serif'; text-anchor: middle" x="10.449375" y="181.8" transform="rotate(-90, 10.449375, 181.8)">Rep-1 log2 enriched read counts</text>
    </g>
   </g>
   <g id="PathCollection_1">
    <defs>
     <path id="mc4630865c7" d="M 0 3 
C 0.795609 3 1.55874 2.683901 2.12132 2.12132 
C 2.683901 1.55874 3 0.795609 3 0 
C 3 -0.795609 2.683901 -1.55874 2.12132 -2.12132 
C 1.55874 -2.683901 0.795609 -3 0 -3 
C -0.795609 -3 -1.55874 -2.683901 -2.12132 -2.12132 
C -2.683901 -1.55874 -3 -0.795609 -3 0 
C -3 0.795609 -2.683901 1.55874 -2.12132 2.12132 
C -1.55874 2.683901 -0.795609 3 0 3 
z
"/>
    </defs>
    <g clip-path="url(#pe56ed176ca)">
     <use xlink:href="#mc4630865c7" x="282.14308" y="112.096584" style="fill: #808080; fill-opacity: 0.4"/>
     <use xlink:href="#mc4630865c7" x="216.915775" y="118.924885" style="fill: #808080; fill-opacity: 0.4"/>
     <use xlink:href="#mc4630865c7" x="235.349467" y="110.30595" style="fill: #808080; fill-opacity: 0.4"/>
     <use xlink:href="#mc4630865c7" x="222.356552" y="123.824941" style="fill: #808080; fill-opacity: 0.4"/>
     <use xlink:href="#mc4630865c7" x="228.250585" y="135.221405" style="fill: #808080; fill-opacity: 0.4"/>
     <use xlink:href="#mc4630865c7" x="156.088131" y="177.479853" style="fill: #808080; fill-opacity: 0.4"/>
     <use xlink:href="#mc4630865c7" x="181.481385" y="212.83642" style="fill: #808080; fill-opacity: 0.4"/>
     <use xlink:href="#mc4630865c7" x="259.502717" y="175.975891" style="fill: #808080; fill-opacity: 0.4"/>
     <use xlink:href="#mc4630865c7" x="233.390616" y="188.726829" style="fill: #808080; fill-opacity: 0.4"/>
     <use xlink:href="#mc4630865c7" x="256.192688" y="218.631432" style="fill: #808080; fill-opacity: 0.4"/>
     <use xlink:href="#mc4630865c7" x="173.012899" y="218.478008" style="fill: #808080; fill-opacity: 0.4"/>
     <use xlink:href="#mc4630865c7" x="240.252597" y="126.278748" style="fill: #808080; fill-opacity: 0.4"/>
     <use xlink:href="#mc4630865c7" x="197.629819" y="221.933742" style="fill: #808080; fill-opacity: 0.4"/>
     <use xlink:href="#mc4630865c7" x="199.039895" y="172.274629" style="fill: #808080; fill-opacity: 0.4"/>
     <use xlink:href="#mc4630865c7" x="201.781522" y="174.9501" style="fill: #808080; fill-opacity: 0.4"/>
     <use xlink:href="#mc4630865c7" x="194.093505" y="209.158981" style="fill: #808080; fill-opacity: 0.4"/>
     <use xlink:href="#mc4630865c7" x="160.916557" y="163.829266" style="fill: #808080; fill-opacity: 0.4"/>
     <use xlink:href="#mc4630865c7" x="186.414694" y="173.966353" style="fill: #808080; fill-opacity: 0.4"/>
     <use xlink:href="#mc4630865c7" x="164.30197" y="178.703895" style="fill: #808080; fill-opacity: 0.4"/>
     <use xlink:href="#mc4630865c7" x="211.544645" y="199.011367" style="fill: #808080; fill-opacity: 0.4"/>
     <use xlink:href="#mc4630865c7" x="220.669165" y="183.678105" style="fill: #808080; fill-opacity: 0.4"/>
     <use xlink:href="#mc4630865c7" x="165.922127" y="194.510071" style="fill: #808080; fill-opacity: 0.4"/>
     <use xlink:href="#mc4630865c7" x="289.447778" y="163.625366" style="fill: #808080; fill-opacity: 0.4"/>
     <use xlink:href="#mc4630865c7" x="277.566408" y="83.800237" style="fill: #808080; fill-opacity: 0.4"/>
     <use xlink:href="#mc4630865c7" x="271.425335" y="92.147652" style="fill: #808080; fill-opacity: 0.4"/>
     <use xlink:href="#mc4630865c7" x="266.305283" y="95.95515" style="fill: #808080; fill-opacity: 0.4"/>
     <use xlink:href="#mc4630865c7" x="272.525039" y="82.670138" style="fill: #808080; fill-opacity: 0.4"/>
     <use xlink:href="#mc4630865c7" x="273.211024" y="70.504669" style="fill: #808080; fill-opacity: 0.4"/>
     <use xlink:href="#mc4630865c7" x="283.096117" y="92.12042" style="fill: #808080; fill-opacity: 0.4"/>
     <use xlink:href="#mc4630865c7" x="218.943228" y="229.664704" style="fill: #808080; fill-opacity: 0.4"/>
     <use xlink:href="#mc4630865c7" x="159.135514" y="209.808697" style="fill: #808080; fill-opacity: 0.4"/>
     <use xlink:href="#mc4630865c7" x="184.135807" y="247.538297" style="fill: #808080; fill-opacity: 0.4"/>
     <use xlink:href="#mc4630865c7" x="173.803496" y="252.664953" style="fill: #808080; fill-opacity: 0.4"/>
     <use xlink:href="#mc4630865c7" x="156.193431" y="217.907672" style="fill: #808080; fill-opacity: 0.4"/>
     <use xlink:href="#mc4630865c7" x="178.630587" y="279.702456" style="fill: #808080; fill-opacity: 0.4"/>
     <use xlink:href="#mc4630865c7" x="193.800872" y="209.449726" style="fill: #808080; fill-opacity: 0.4"/>
     <use xlink:href="#mc4630865c7" x="156.985946" y="237.173823" style="fill: #808080; fill-opacity: 0.4"/>
     <use xlink:href="#mc4630865c7" x="175.328745" y="235.639346" style="fill: #808080; fill-opacity: 0.4"/>
     <use xlink:href="#mc4630865c7" x="158.038162" y="229.300096" style="fill: #808080; fill-opacity: 0.4"/>
     <use xlink:href="#mc4630865c7" x="128.248913" y="252.28453" style="fill: #808080; fill-opacity: 0.4"/>
     <use xlink:href="#mc4630865c7" x="199.225159" y="229.733584" style="fill: #808080; fill-opacity: 0.4"/>
     <use xlink:href="#mc4630865c7" x="154.869228" y="237.082935" style="fill: #808080; fill-opacity: 0.4"/>
     <use xlink:href="#mc4630865c7" x="168.399784" y="232.736995" style="fill: #808080; fill-opacity: 0.4"/>
     <use xlink:href="#mc4630865c7" x="136.125976" y="226.220084" style="fill: #808080; fill-opacity: 0.4"/>
     <use xlink:href="#mc4630865c7" x="125.388035" y="252.027824" style="fill: #808080; fill-opacity: 0.4"/>
     <use xlink:href="#mc4630865c7" x="192.186911" y="235.536094" style="fill: #808080; fill-opacity: 0.4"/>
     <use xlink:href="#mc4630865c7" x="141.977857" y="249.312823" style="fill: #808080; fill-opacity: 0.4"/>
     <use xlink:href="#mc4630865c7" x="148.263346" y="225.244058" style="fill: #808080; fill-opacity: 0.4"/>
     <use xlink:href="#mc4630865c7" x="104.554551" y="246.919159" style="fill: #808080; fill-opacity: 0.4"/>
     <use xlink:href="#mc4630865c7" x="158.64269" y="197.085227" style="fill: #808080; fill-opacity: 0.4"/>
     <use xlink:href="#mc4630865c7" x="170.562259" y="211.666798" style="fill: #808080; fill-opacity: 0.4"/>
     <use xlink:href="#mc4630865c7" x="155.94613" y="223.120958" style="fill: #808080; fill-opacity: 0.4"/>
     <use xlink:href="#mc4630865c7" x="159.290271" y="204.554875" style="fill: #808080; fill-opacity: 0.4"/>
     <use xlink:href="#mc4630865c7" x="128.998636" y="222.632778" style="fill: #808080; fill-opacity: 0.4"/>
     <use xlink:href="#mc4630865c7" x="146.708591" y="283.861276" style="fill: #808080; fill-opacity: 0.4"/>
     <use xlink:href="#mc4630865c7" x="169.228846" y="248.587924" style="fill: #808080; fill-opacity: 0.4"/>
     <use xlink:href="#mc4630865c7" x="266.65703" y="176.025772" style="fill: #808080; fill-opacity: 0.4"/>
     <use xlink:href="#mc4630865c7" x="268.344143" y="100.585859" style="fill: #808080; fill-opacity: 0.4"/>
     <use xlink:href="#mc4630865c7" x="272.641302" y="102.317283" style="fill: #808080; fill-opacity: 0.4"/>
     <use xlink:href="#mc4630865c7" x="236.768631" y="131.14901" style="fill: #808080; fill-opacity: 0.4"/>
     <use xlink:href="#mc4630865c7" x="217.23785" y="143.634628" style="fill: #808080; fill-opacity: 0.4"/>
     <use xlink:href="#mc4630865c7" x="246.788859" y="110.971427" style="fill: #808080; fill-opacity: 0.4"/>
     <use xlink:href="#mc4630865c7" x="254.198808" y="90.949787" style="fill: #808080; fill-opacity: 0.4"/>
     <use xlink:href="#mc4630865c7" x="173.576389" y="213.787045" style="fill: #808080; fill-opacity: 0.4"/>
     <use xlink:href="#mc4630865c7" x="198.197624" y="207.809344" style="fill: #808080; fill-opacity: 0.4"/>
     <use xlink:href="#mc4630865c7" x="140.508145" y="240.10439" style="fill: #808080; fill-opacity: 0.4"/>
     <use xlink:href="#mc4630865c7" x="63.356631" y="269.613084" style="fill: #808080; fill-opacity: 0.4"/>
     <use xlink:href="#mc4630865c7" x="292.492714" y="85.709926" style="fill: #808080; fill-opacity: 0.4"/>
     <use xlink:href="#mc4630865c7" x="262.531586" y="89.576875" style="fill: #808080; fill-opacity: 0.4"/>
     <use xlink:href="#mc4630865c7" x="274.640556" y="175.282235" style="fill: #808080; fill-opacity: 0.4"/>
     <use xlink:href="#mc4630865c7" x="242.829559" y="90.294331" style="fill: #808080; fill-opacity: 0.4"/>
     <use xlink:href="#mc4630865c7" x="257.75924" y="93.805387" style="fill: #808080; fill-opacity: 0.4"/>
     <use xlink:href="#mc4630865c7" x="239.657448" y="88.879016" style="fill: #808080; fill-opacity: 0.4"/>
     <use xlink:href="#mc4630865c7" x="251.772382" y="95.438539" style="fill: #808080; fill-opacity: 0.4"/>
     <use xlink:href="#mc4630865c7" x="210.127427" y="117.298669" style="fill: #808080; fill-opacity: 0.4"/>
     <use xlink:href="#mc4630865c7" x="177.431928" y="192.750161" style="fill: #808080; fill-opacity: 0.4"/>
     <use xlink:href="#mc4630865c7" x="175.987899" y="243.937236" style="fill: #808080; fill-opacity: 0.4"/>
     <use xlink:href="#mc4630865c7" x="156.309747" y="216.508332" style="fill: #808080; fill-opacity: 0.4"/>
     <use xlink:href="#mc4630865c7" x="152.96888" y="235.293584" style="fill: #808080; fill-opacity: 0.4"/>
     <use xlink:href="#mc4630865c7" x="267.701931" y="110.528587" style="fill: #808080; fill-opacity: 0.4"/>
     <use xlink:href="#mc4630865c7" x="279.124896" y="168.839323" style="fill: #808080; fill-opacity: 0.4"/>
     <use xlink:href="#mc4630865c7" x="249.596373" y="109.110144" style="fill: #808080; fill-opacity: 0.4"/>
     <use xlink:href="#mc4630865c7" x="238.149338" y="106.895401" style="fill: #808080; fill-opacity: 0.4"/>
     <use xlink:href="#mc4630865c7" x="245.725477" y="113.281254" style="fill: #808080; fill-opacity: 0.4"/>
     <use xlink:href="#mc4630865c7" x="219.851751" y="127.895401" style="fill: #808080; fill-opacity: 0.4"/>
     <use xlink:href="#mc4630865c7" x="212.06197" y="127.019984" style="fill: #808080; fill-opacity: 0.4"/>
     <use xlink:href="#mc4630865c7" x="228.113333" y="112.056135" style="fill: #808080; fill-opacity: 0.4"/>
     <use xlink:href="#mc4630865c7" x="228.912744" y="108.768513" style="fill: #808080; fill-opacity: 0.4"/>
     <use xlink:href="#mc4630865c7" x="124.452743" y="281.863947" style="fill: #808080; fill-opacity: 0.4"/>
     <use xlink:href="#mc4630865c7" x="170.615815" y="213.956256" style="fill: #808080; fill-opacity: 0.4"/>
     <use xlink:href="#mc4630865c7" x="168.237123" y="288.11441" style="fill: #808080; fill-opacity: 0.4"/>
     <use xlink:href="#mc4630865c7" x="157.842615" y="210.26315" style="fill: #808080; fill-opacity: 0.4"/>
     <use xlink:href="#mc4630865c7" x="163.070835" y="243.495004" style="fill: #808080; fill-opacity: 0.4"/>
     <use xlink:href="#mc4630865c7" x="209.814936" y="190.254613" style="fill: #808080; fill-opacity: 0.4"/>
     <use xlink:href="#mc4630865c7" x="263.001805" y="142.974265" style="fill: #808080; fill-opacity: 0.4"/>
     <use xlink:href="#mc4630865c7" x="262.048134" y="94.82861" style="fill: #808080; fill-opacity: 0.4"/>
     <use xlink:href="#mc4630865c7" x="281.968334" y="93.48453" style="fill: #808080; fill-opacity: 0.4"/>
     <use xlink:href="#mc4630865c7" x="272.936824" y="99.782874" style="fill: #808080; fill-opacity: 0.4"/>
     <use xlink:href="#mc4630865c7" x="273.840143" y="95.754616" style="fill: #808080; fill-opacity: 0.4"/>
     <use xlink:href="#mc4630865c7" x="237.595749" y="124.463396" style="fill: #808080; fill-opacity: 0.4"/>
     <use xlink:href="#mc4630865c7" x="257.53341" y="98.297776" style="fill: #808080; fill-opacity: 0.4"/>
     <use xlink:href="#mc4630865c7" x="172.32499" y="191.758575" style="fill: #808080; fill-opacity: 0.4"/>
     <use xlink:href="#mc4630865c7" x="148.013611" y="261.554211" style="fill: #808080; fill-opacity: 0.4"/>
     <use xlink:href="#mc4630865c7" x="168.815493" y="218.199569" style="fill: #808080; fill-opacity: 0.4"/>
     <use xlink:href="#mc4630865c7" x="170.794185" y="267.335644" style="fill: #808080; fill-opacity: 0.4"/>
     <use xlink:href="#mc4630865c7" x="126.846838" y="248.880285" style="fill: #808080; fill-opacity: 0.4"/>
     <use xlink:href="#mc4630865c7" x="146.863917" y="237.84566" style="fill: #808080; fill-opacity: 0.4"/>
     <use xlink:href="#mc4630865c7" x="179.674888" y="255.069562" style="fill: #808080; fill-opacity: 0.4"/>
     <use xlink:href="#mc4630865c7" x="177.072054" y="264.362371" style="fill: #808080; fill-opacity: 0.4"/>
     <use xlink:href="#mc4630865c7" x="141.267814" y="265.15736" style="fill: #808080; fill-opacity: 0.4"/>
     <use xlink:href="#mc4630865c7" x="130.112809" y="239.763995" style="fill: #808080; fill-opacity: 0.4"/>
     <use xlink:href="#mc4630865c7" x="166.038833" y="219.717782" style="fill: #808080; fill-opacity: 0.4"/>
     <use xlink:href="#mc4630865c7" x="181.100328" y="228.680957" style="fill: #808080; fill-opacity: 0.4"/>
     <use xlink:href="#mc4630865c7" x="178.619253" y="188.471369" style="fill: #808080; fill-opacity: 0.4"/>
     <use xlink:href="#mc4630865c7" x="158.593848" y="222.135369" style="fill: #808080; fill-opacity: 0.4"/>
     <use xlink:href="#mc4630865c7" x="123.765548" y="214.391177" style="fill: #808080; fill-opacity: 0.4"/>
     <use xlink:href="#mc4630865c7" x="162.274958" y="239.488472" style="fill: #808080; fill-opacity: 0.4"/>
     <use xlink:href="#mc4630865c7" x="184.98283" y="222.534045" style="fill: #808080; fill-opacity: 0.4"/>
     <use xlink:href="#mc4630865c7" x="126.993558" y="219.827645" style="fill: #808080; fill-opacity: 0.4"/>
     <use xlink:href="#mc4630865c7" x="122.288024" y="229.300096" style="fill: #808080; fill-opacity: 0.4"/>
     <use xlink:href="#mc4630865c7" x="143.094954" y="208.627404" style="fill: #808080; fill-opacity: 0.4"/>
     <use xlink:href="#mc4630865c7" x="118.828807" y="243.405659" style="fill: #808080; fill-opacity: 0.4"/>
     <use xlink:href="#mc4630865c7" x="149.21549" y="231.45322" style="fill: #808080; fill-opacity: 0.4"/>
     <use xlink:href="#mc4630865c7" x="119.559419" y="242.67976" style="fill: #808080; fill-opacity: 0.4"/>
     <use xlink:href="#mc4630865c7" x="203.835237" y="187.854523" style="fill: #808080; fill-opacity: 0.4"/>
     <use xlink:href="#mc4630865c7" x="145.35019" y="206.386718" style="fill: #808080; fill-opacity: 0.4"/>
     <use xlink:href="#mc4630865c7" x="127.891374" y="218.935622" style="fill: #808080; fill-opacity: 0.4"/>
     <use xlink:href="#mc4630865c7" x="157.147593" y="250.975197" style="fill: #808080; fill-opacity: 0.4"/>
     <use xlink:href="#mc4630865c7" x="165.744982" y="233.268572" style="fill: #808080; fill-opacity: 0.4"/>
     <use xlink:href="#mc4630865c7" x="171.216752" y="216.206529" style="fill: #808080; fill-opacity: 0.4"/>
     <use xlink:href="#mc4630865c7" x="131.125022" y="220.52011" style="fill: #808080; fill-opacity: 0.4"/>
     <use xlink:href="#mc4630865c7" x="176.271902" y="209.633087" style="fill: #808080; fill-opacity: 0.4"/>
     <use xlink:href="#mc4630865c7" x="151.603474" y="269.613084" style="fill: #808080; fill-opacity: 0.4"/>
     <use xlink:href="#mc4630865c7" x="127.891374" y="223.732896" style="fill: #808080; fill-opacity: 0.4"/>
     <use xlink:href="#mc4630865c7" x="132.7198" y="243.045213" style="fill: #808080; fill-opacity: 0.4"/>
     <use xlink:href="#mc4630865c7" x="185.182703" y="213.215019" style="fill: #808080; fill-opacity: 0.4"/>
     <use xlink:href="#mc4630865c7" x="160.822143" y="220.878361" style="fill: #808080; fill-opacity: 0.4"/>
     <use xlink:href="#mc4630865c7" x="125.215507" y="212.950573" style="fill: #808080; fill-opacity: 0.4"/>
     <use xlink:href="#mc4630865c7" x="161.511706" y="229.905" style="fill: #808080; fill-opacity: 0.4"/>
     <use xlink:href="#mc4630865c7" x="155.069428" y="242.371291" style="fill: #808080; fill-opacity: 0.4"/>
     <use xlink:href="#mc4630865c7" x="186.968752" y="205.190505" style="fill: #808080; fill-opacity: 0.4"/>
     <use xlink:href="#mc4630865c7" x="160.916557" y="177.479853" style="fill: #808080; fill-opacity: 0.4"/>
     <use xlink:href="#mc4630865c7" x="123.33492" y="275.405021" style="fill: #808080; fill-opacity: 0.4"/>
     <use xlink:href="#mc4630865c7" x="305.643369" y="81.713883" style="fill: #808080; fill-opacity: 0.4"/>
     <use xlink:href="#mc4630865c7" x="303.256251" y="79.213779" style="fill: #808080; fill-opacity: 0.4"/>
     <use xlink:href="#mc4630865c7" x="272.942918" y="92.568467" style="fill: #808080; fill-opacity: 0.4"/>
     <use xlink:href="#mc4630865c7" x="256.266662" y="93.341427" style="fill: #808080; fill-opacity: 0.4"/>
     <use xlink:href="#mc4630865c7" x="265.890551" y="90.065349" style="fill: #808080; fill-opacity: 0.4"/>
     <use xlink:href="#mc4630865c7" x="233.830728" y="96.428693" style="fill: #808080; fill-opacity: 0.4"/>
     <use xlink:href="#mc4630865c7" x="254.016209" y="100.656247" style="fill: #808080; fill-opacity: 0.4"/>
     <use xlink:href="#mc4630865c7" x="259.926218" y="109.62026" style="fill: #808080; fill-opacity: 0.4"/>
     <use xlink:href="#mc4630865c7" x="239.748144" y="102.61259" style="fill: #808080; fill-opacity: 0.4"/>
     <use xlink:href="#mc4630865c7" x="243.444704" y="98.808318" style="fill: #808080; fill-opacity: 0.4"/>
     <use xlink:href="#mc4630865c7" x="259.113683" y="94.053722" style="fill: #808080; fill-opacity: 0.4"/>
     <use xlink:href="#mc4630865c7" x="264.90691" y="94.939856" style="fill: #808080; fill-opacity: 0.4"/>
     <use xlink:href="#mc4630865c7" x="245.875807" y="109.60163" style="fill: #808080; fill-opacity: 0.4"/>
     <use xlink:href="#mc4630865c7" x="244.097456" y="103.598048" style="fill: #808080; fill-opacity: 0.4"/>
     <use xlink:href="#mc4630865c7" x="242.4692" y="104.061332" style="fill: #808080; fill-opacity: 0.4"/>
     <use xlink:href="#mc4630865c7" x="233.926018" y="95.20802" style="fill: #808080; fill-opacity: 0.4"/>
    </g>
   </g>
   <g id="PolyCollection_1">
    <defs>
     <path id="m22ab4d74fd" d="M 63.356631 -54.793527 
L 63.356631 -29.018691 
L 65.803972 -31.705274 
L 68.251313 -34.405469 
L 70.698654 -37.095141 
L 73.145995 -39.785603 
L 75.593335 -42.488376 
L 78.040676 -45.198216 
L 80.488017 -47.925376 
L 82.935358 -50.652781 
L 85.382698 -53.387847 
L 87.830039 -56.106065 
L 90.27738 -58.831245 
L 92.724721 -61.539353 
L 95.172062 -64.183506 
L 97.619402 -66.827659 
L 100.066743 -69.550606 
L 102.514084 -72.274307 
L 104.961425 -75.008818 
L 107.408765 -77.754614 
L 109.856106 -80.50041 
L 112.303447 -83.239219 
L 114.750788 -85.939129 
L 117.198129 -88.639039 
L 119.645469 -91.333354 
L 122.09281 -93.93512 
L 124.540151 -96.530213 
L 126.987492 -99.127322 
L 129.434832 -101.792554 
L 131.882173 -104.374552 
L 134.329514 -107.04083 
L 136.776855 -109.710838 
L 139.224196 -112.351395 
L 141.671536 -115.061645 
L 144.118877 -117.610046 
L 146.566218 -120.169035 
L 149.013559 -122.745018 
L 151.460899 -125.359567 
L 153.90824 -128.08245 
L 156.355581 -130.743684 
L 158.802922 -133.393198 
L 161.250263 -135.988782 
L 163.697603 -138.663447 
L 166.144944 -141.284306 
L 168.592285 -143.820726 
L 171.039626 -146.365097 
L 173.486966 -148.979763 
L 175.934307 -151.551654 
L 178.381648 -154.06955 
L 180.828989 -156.716256 
L 183.27633 -159.224397 
L 185.72367 -161.618533 
L 188.171011 -164.091749 
L 190.618352 -166.65591 
L 193.065693 -169.182765 
L 195.513034 -171.70085 
L 197.960374 -174.131753 
L 200.407715 -176.517973 
L 202.855056 -178.974639 
L 205.302397 -181.313571 
L 207.749737 -183.766705 
L 210.197078 -186.169051 
L 212.644419 -188.499968 
L 215.09176 -190.720143 
L 217.539101 -193.138418 
L 219.986441 -195.435256 
L 222.433782 -197.863802 
L 224.881123 -200.260441 
L 227.328464 -202.49749 
L 229.775804 -204.814236 
L 232.223145 -207.109303 
L 234.670486 -209.304929 
L 237.117827 -211.61845 
L 239.565168 -213.938002 
L 242.012508 -216.228264 
L 244.459849 -218.646375 
L 246.90719 -220.944829 
L 249.354531 -223.240051 
L 251.801871 -225.534267 
L 254.249212 -227.829872 
L 256.696553 -230.12794 
L 259.143894 -232.426008 
L 261.591235 -234.724076 
L 264.038575 -237.063432 
L 266.485916 -239.419576 
L 268.933257 -241.775719 
L 271.380598 -244.131862 
L 273.827938 -246.472421 
L 276.275279 -248.702552 
L 278.72262 -250.932682 
L 281.169961 -253.162813 
L 283.617302 -255.393363 
L 286.064642 -257.6882 
L 288.511983 -259.985483 
L 290.959324 -262.287709 
L 293.406665 -264.626824 
L 295.854005 -266.940777 
L 298.301346 -269.177698 
L 300.748687 -271.468263 
L 303.196028 -273.765201 
L 305.643369 -276.062138 
L 305.643369 -300.310412 
L 305.643369 -300.310412 
L 303.196028 -297.575971 
L 300.748687 -294.884932 
L 298.301346 -292.201301 
L 295.854005 -289.468725 
L 293.406665 -286.783681 
L 290.959324 -284.142846 
L 288.511983 -281.479752 
L 286.064642 -278.820704 
L 283.617302 -276.169177 
L 281.169961 -273.523829 
L 278.72262 -270.865528 
L 276.275279 -268.260581 
L 273.827938 -265.599831 
L 271.380598 -262.936318 
L 268.933257 -260.273415 
L 266.485916 -257.604959 
L 264.038575 -254.948869 
L 261.591235 -252.286447 
L 259.143894 -249.599108 
L 256.696553 -246.962058 
L 254.249212 -244.300615 
L 251.801871 -241.641102 
L 249.354531 -239.021172 
L 246.90719 -236.390274 
L 244.459849 -233.739067 
L 242.012508 -231.078594 
L 239.565168 -228.435445 
L 237.117827 -225.855505 
L 234.670486 -223.235255 
L 232.223145 -220.623323 
L 229.775804 -217.978685 
L 227.328464 -215.328205 
L 224.881123 -212.723644 
L 222.433782 -210.053887 
L 219.986441 -207.477991 
L 217.539101 -204.856373 
L 215.09176 -202.336323 
L 212.644419 -199.734778 
L 210.197078 -197.1731 
L 207.749737 -194.624901 
L 205.302397 -192.047267 
L 202.855056 -189.561725 
L 200.407715 -187.072709 
L 197.960374 -184.444689 
L 195.513034 -181.897915 
L 193.065693 -179.443647 
L 190.618352 -176.991118 
L 188.171011 -174.537153 
L 185.72367 -172.084894 
L 183.27633 -169.615115 
L 180.828989 -167.183818 
L 178.381648 -164.763155 
L 175.934307 -162.278098 
L 173.486966 -159.765893 
L 171.039626 -157.322104 
L 168.592285 -154.875273 
L 166.144944 -152.397848 
L 163.697603 -149.905037 
L 161.250263 -147.452482 
L 158.802922 -145.116154 
L 156.355581 -142.663823 
L 153.90824 -140.212312 
L 151.460899 -137.784241 
L 149.013559 -135.380884 
L 146.566218 -132.921235 
L 144.118877 -130.474605 
L 141.671536 -128.028534 
L 139.224196 -125.782187 
L 136.776855 -123.293073 
L 134.329514 -120.992515 
L 131.882173 -118.717691 
L 129.434832 -116.321264 
L 126.987492 -113.964837 
L 124.540151 -111.577631 
L 122.09281 -109.210557 
L 119.645469 -106.886079 
L 117.198129 -104.5627 
L 114.750788 -102.330458 
L 112.303447 -100.103775 
L 109.856106 -97.874741 
L 107.408765 -95.627987 
L 104.961425 -93.256296 
L 102.514084 -90.959943 
L 100.066743 -88.754581 
L 97.619402 -86.548891 
L 95.172062 -84.323229 
L 92.724721 -82.081133 
L 90.27738 -79.768855 
L 87.830039 -77.46848 
L 85.382698 -75.18572 
L 82.935358 -72.90296 
L 80.488017 -70.671837 
L 78.040676 -68.507607 
L 75.593335 -66.34329 
L 73.145995 -64.072364 
L 70.698654 -61.731495 
L 68.251313 -59.36335 
L 65.803972 -57.064091 
L 63.356631 -54.793527 
z
"/>
    </defs>
    <g clip-path="url(#pe56ed176ca)">
     <use xlink:href="#m22ab4d74fd" x="0" y="360" style="fill: #808080; fill-opacity: 0.15"/>
    </g>
   </g>
   <g id="line2d_11">
    <path d="M 63.356631 318.146611 
L 65.803972 315.648988 
L 68.251313 313.151364 
L 70.698654 310.65374 
L 73.145995 308.156116 
L 75.593335 305.658492 
L 78.040676 303.160868 
L 80.488017 300.663244 
L 82.935358 298.165621 
L 85.382698 295.667997 
L 87.830039 293.170373 
L 90.27738 290.672749 
L 92.724721 288.175125 
L 95.172062 285.677501 
L 97.619402 283.179877 
L 100.066743 280.682253 
L 102.514084 278.18463 
L 104.961425 275.687006 
L 107.408765 273.189382 
L 109.856106 270.691758 
L 112.303447 268.194134 
L 114.750788 265.69651 
L 117.198129 263.198886 
L 119.645469 260.701263 
L 122.09281 258.203639 
L 124.540151 255.706015 
L 126.987492 253.208391 
L 129.434832 250.710767 
L 131.882173 248.213143 
L 134.329514 245.715519 
L 136.776855 243.217896 
L 139.224196 240.720272 
L 141.671536 238.222648 
L 144.118877 235.725024 
L 146.566218 233.2274 
L 149.013559 230.729776 
L 151.460899 228.232152 
L 153.90824 225.734528 
L 156.355581 223.236905 
L 158.802922 220.739281 
L 161.250263 218.241657 
L 163.697603 215.744033 
L 166.144944 213.246409 
L 168.592285 210.748785 
L 171.039626 208.251161 
L 173.486966 205.753538 
L 175.934307 203.255914 
L 178.381648 200.75829 
L 180.828989 198.260666 
L 183.27633 195.763042 
L 185.72367 193.265418 
L 188.171011 190.767794 
L 190.618352 188.27017 
L 193.065693 185.772547 
L 195.513034 183.274923 
L 197.960374 180.777299 
L 200.407715 178.279675 
L 202.855056 175.782051 
L 205.302397 173.284427 
L 207.749737 170.786803 
L 210.197078 168.28918 
L 212.644419 165.791556 
L 215.09176 163.293932 
L 217.539101 160.796308 
L 219.986441 158.298684 
L 222.433782 155.80106 
L 224.881123 153.303436 
L 227.328464 150.805813 
L 229.775804 148.308189 
L 232.223145 145.810565 
L 234.670486 143.312941 
L 237.117827 140.815317 
L 239.565168 138.317693 
L 242.012508 135.820069 
L 244.459849 133.322445 
L 246.90719 130.824822 
L 249.354531 128.327198 
L 251.801871 125.829574 
L 254.249212 123.33195 
L 256.696553 120.834326 
L 259.143894 118.336702 
L 261.591235 115.839078 
L 264.038575 113.341455 
L 266.485916 110.843831 
L 268.933257 108.346207 
L 271.380598 105.848583 
L 273.827938 103.350959 
L 276.275279 100.853335 
L 278.72262 98.355711 
L 281.169961 95.858087 
L 283.617302 93.360464 
L 286.064642 90.86284 
L 288.511983 88.365216 
L 290.959324 85.867592 
L 293.406665 83.369968 
L 295.854005 80.872344 
L 298.301346 78.37472 
L 300.748687 75.877097 
L 303.196028 73.379473 
L 305.643369 70.881849 
" clip-path="url(#pe56ed176ca)" style="fill: none; stroke: #808080; stroke-width: 2.25; stroke-linecap: round"/>
   </g>
   <g id="patch_3">
    <path d="M 45 320.4 
L 45 43.2 
" style="fill: none; stroke: #262626; stroke-width: 2; stroke-linejoin: miter; stroke-linecap: square"/>
   </g>
   <g id="patch_4">
    <path d="M 45 320.4 
L 324 320.4 
" style="fill: none; stroke: #262626; stroke-width: 2; stroke-linejoin: miter; stroke-linecap: square"/>
   </g>
   <g id="text_13">
    <text style="fill: #262626; font: 16.8px 'sans-serif'; text-anchor: middle" x="184.5" y="37.2" transform="rotate(-0, 184.5, 37.2)">AraC PDZ Enrichment: 2</text>
   </g>
   <g id="legend_1">
    <g id="line2d_12">
     <path d="M 57.6 61.537812 
L 71.6 61.537812 
L 85.6 61.537812 
" style="fill: none; stroke: #808080; stroke-width: 2.25; stroke-linecap: round"/>
    </g>
    <g id="text_14">
     <text style="fill: #262626; font: 14px 'sans-serif'; text-anchor: start" x="96.8" y="66.437812" transform="rotate(-0, 96.8, 66.437812)">Pearson's r: 0.86</text>
    </g>
   </g>
  </g>
 </g>
 <defs>
  <clipPath id="pe56ed176ca">
   <rect x="45" y="43.2" width="279" height="277.2"/>
  </clipPath>
 </defs>
</svg>
