<?xml version="1.0" encoding="utf-8" standalone="no"?>
<!DOCTYPE svg PUBLIC "-//W3C//DTD SVG 1.1//EN"
  "http://www.w3.org/Graphics/SVG/1.1/DTD/svg11.dtd">
<svg xmlns:xlink="http://www.w3.org/1999/xlink" width="360pt" height="360pt" viewBox="0 0 360 360" xmlns="http://www.w3.org/2000/svg" version="1.1">
 <metadata>
  <rdf:RDF xmlns:dc="http://purl.org/dc/elements/1.1/" xmlns:cc="http://creativecommons.org/ns#" xmlns:rdf="http://www.w3.org/1999/02/22-rdf-syntax-ns#">
   <cc:Work>
    <dc:type rdf:resource="http://purl.org/dc/dcmitype/StillImage"/>
    <dc:date>2023-12-01T16:47:06.114290</dc:date>
    <dc:format>image/svg+xml</dc:format>
    <dc:creator>
     <cc:Agent>
      <dc:title>Matplotlib v3.5.3, https://matplotlib.org/</dc:title>
     </cc:Agent>
    </dc:creator>
   </cc:Work>
  </rdf:RDF>
 </metadata>
 <defs>
  <style type="text/css">*{stroke-linejoin: round; stroke-linecap: butt}</style>
 </defs>
 <g id="figure_1">
  <g id="patch_1">
   <path d="M 0 360 
L 360 360 
L 360 0 
L 0 0 
z
" style="fill: #ffffff"/>
  </g>
  <g id="axes_1">
   <g id="patch_2">
    <path d="M 45 320.4 
L 324 320.4 
L 324 43.2 
L 45 43.2 
z
" style="fill: #ffffff"/>
   </g>
   <g id="matplotlib.axis_1">
    <g id="xtick_1">
     <g id="line2d_1">
      <defs>
       <path id="m42a550eaf0" d="M 0 0 
L 0 3.5 
" style="stroke: #262626; stroke-width: 2"/>
      </defs>
      <g>
       <use xlink:href="#m42a550eaf0" x="74.109296" y="320.4" style="fill: #262626; stroke: #262626; stroke-width: 2"/>
      </g>
     </g>
     <g id="text_1">
      <text style="fill: #262626; font: 14px 'sans-serif'; text-anchor: middle" x="74.109296" y="338.037813" transform="rotate(-0, 74.109296, 338.037813)">−10</text>
     </g>
    </g>
    <g id="xtick_2">
     <g id="line2d_2">
      <g>
       <use xlink:href="#m42a550eaf0" x="145.321642" y="320.4" style="fill: #262626; stroke: #262626; stroke-width: 2"/>
      </g>
     </g>
     <g id="text_2">
      <text style="fill: #262626; font: 14px 'sans-serif'; text-anchor: middle" x="145.321642" y="338.037813" transform="rotate(-0, 145.321642, 338.037813)">−5</text>
     </g>
    </g>
    <g id="xtick_3">
     <g id="line2d_3">
      <g>
       <use xlink:href="#m42a550eaf0" x="216.533987" y="320.4" style="fill: #262626; stroke: #262626; stroke-width: 2"/>
      </g>
     </g>
     <g id="text_3">
      <text style="fill: #262626; font: 14px 'sans-serif'; text-anchor: middle" x="216.533987" y="338.037813" transform="rotate(-0, 216.533987, 338.037813)">0</text>
     </g>
    </g>
    <g id="xtick_4">
     <g id="line2d_4">
      <g>
       <use xlink:href="#m42a550eaf0" x="287.746333" y="320.4" style="fill: #262626; stroke: #262626; stroke-width: 2"/>
      </g>
     </g>
     <g id="text_4">
      <text style="fill: #262626; font: 14px 'sans-serif'; text-anchor: middle" x="287.746333" y="338.037813" transform="rotate(-0, 287.746333, 338.037813)">5</text>
     </g>
    </g>
    <g id="text_5">
     <text style="fill: #262626; font: 14px 'sans-serif'; text-anchor: middle" x="184.5" y="355.587188" transform="rotate(-0, 184.5, 355.587188)">Rep-2 log2 enriched read counts</text>
    </g>
   </g>
   <g id="matplotlib.axis_2">
    <g id="ytick_1">
     <g id="line2d_5">
      <defs>
       <path id="m398f59d7d9" d="M 0 0 
L -3.5 0 
" style="stroke: #262626; stroke-width: 2"/>
      </defs>
      <g>
       <use xlink:href="#m398f59d7d9" x="45" y="291.478506" style="fill: #262626; stroke: #262626; stroke-width: 2"/>
      </g>
     </g>
     <g id="text_6">
      <text style="fill: #262626; font: 14px 'sans-serif'; text-anchor: end" x="38" y="296.797412" transform="rotate(-0, 38, 296.797412)">−10.0</text>
     </g>
    </g>
    <g id="ytick_2">
     <g id="line2d_6">
      <g>
       <use xlink:href="#m398f59d7d9" x="45" y="256.10205" style="fill: #262626; stroke: #262626; stroke-width: 2"/>
      </g>
     </g>
     <g id="text_7">
      <text style="fill: #262626; font: 14px 'sans-serif'; text-anchor: end" x="38" y="261.420956" transform="rotate(-0, 38, 261.420956)">−7.5</text>
     </g>
    </g>
    <g id="ytick_3">
     <g id="line2d_7">
      <g>
       <use xlink:href="#m398f59d7d9" x="45" y="220.725595" style="fill: #262626; stroke: #262626; stroke-width: 2"/>
      </g>
     </g>
     <g id="text_8">
      <text style="fill: #262626; font: 14px 'sans-serif'; text-anchor: end" x="38" y="226.044501" transform="rotate(-0, 38, 226.044501)">−5.0</text>
     </g>
    </g>
    <g id="ytick_4">
     <g id="line2d_8">
      <g>
       <use xlink:href="#m398f59d7d9" x="45" y="185.349139" style="fill: #262626; stroke: #262626; stroke-width: 2"/>
      </g>
     </g>
     <g id="text_9">
      <text style="fill: #262626; font: 14px 'sans-serif'; text-anchor: end" x="38" y="190.668045" transform="rotate(-0, 38, 190.668045)">−2.5</text>
     </g>
    </g>
    <g id="ytick_5">
     <g id="line2d_9">
      <g>
       <use xlink:href="#m398f59d7d9" x="45" y="149.972684" style="fill: #262626; stroke: #262626; stroke-width: 2"/>
      </g>
     </g>
     <g id="text_10">
      <text style="fill: #262626; font: 14px 'sans-serif'; text-anchor: end" x="38" y="155.29159" transform="rotate(-0, 38, 155.29159)">0.0</text>
     </g>
    </g>
    <g id="ytick_6">
     <g id="line2d_10">
      <g>
       <use xlink:href="#m398f59d7d9" x="45" y="114.596228" style="fill: #262626; stroke: #262626; stroke-width: 2"/>
      </g>
     </g>
     <g id="text_11">
      <text style="fill: #262626; font: 14px 'sans-serif'; text-anchor: end" x="38" y="119.915135" transform="rotate(-0, 38, 119.915135)">2.5</text>
     </g>
    </g>
    <g id="ytick_7">
     <g id="line2d_11">
      <g>
       <use xlink:href="#m398f59d7d9" x="45" y="79.219773" style="fill: #262626; stroke: #262626; stroke-width: 2"/>
      </g>
     </g>
     <g id="text_12">
      <text style="fill: #262626; font: 14px 'sans-serif'; text-anchor: end" x="38" y="84.538679" transform="rotate(-0, 38, 84.538679)">5.0</text>
     </g>
    </g>
    <g id="ytick_8">
     <g id="line2d_12">
      <g>
       <use xlink:href="#m398f59d7d9" x="45" y="43.843317" style="fill: #262626; stroke: #262626; stroke-width: 2"/>
      </g>
     </g>
     <g id="text_13">
      <text style="fill: #262626; font: 14px 'sans-serif'; text-anchor: end" x="38" y="49.162224" transform="rotate(-0, 38, 49.162224)">7.5</text>
     </g>
    </g>
    <g id="text_14">
     <text style="fill: #262626; font: 14px 'sans-serif'; text-anchor: middle" x="-11.815" y="181.8" transform="rotate(-90, -11.815, 181.8)">Rep-1 log2 enriched read counts</text>
    </g>
   </g>
   <g id="PathCollection_1">
    <defs>
     <path id="m9d1308acd9" d="M 0 3 
C 0.795609 3 1.55874 2.683901 2.12132 2.12132 
C 2.683901 1.55874 3 0.795609 3 0 
C 3 -0.795609 2.683901 -1.55874 2.12132 -2.12132 
C 1.55874 -2.683901 0.795609 -3 0 -3 
C -0.795609 -3 -1.55874 -2.683901 -2.12132 -2.12132 
C -2.683901 -1.55874 -3 -0.795609 -3 0 
C -3 0.795609 -2.683901 1.55874 -2.12132 2.12132 
C -1.55874 2.683901 -0.795609 3 0 3 
z
"/>
    </defs>
    <g clip-path="url(#p5791b49298)">
     <use xlink:href="#m9d1308acd9" x="269.560594" y="132.658963" style="fill: #808080; fill-opacity: 0.4"/>
     <use xlink:href="#m9d1308acd9" x="266.304034" y="129.976968" style="fill: #808080; fill-opacity: 0.4"/>
     <use xlink:href="#m9d1308acd9" x="275.347047" y="124.424112" style="fill: #808080; fill-opacity: 0.4"/>
     <use xlink:href="#m9d1308acd9" x="261.724758" y="140.815509" style="fill: #808080; fill-opacity: 0.4"/>
     <use xlink:href="#m9d1308acd9" x="276.354586" y="126.093842" style="fill: #808080; fill-opacity: 0.4"/>
     <use xlink:href="#m9d1308acd9" x="251.929765" y="171.10079" style="fill: #808080; fill-opacity: 0.4"/>
     <use xlink:href="#m9d1308acd9" x="258.698502" y="135.605371" style="fill: #808080; fill-opacity: 0.4"/>
     <use xlink:href="#m9d1308acd9" x="281.235312" y="121.969756" style="fill: #808080; fill-opacity: 0.4"/>
     <use xlink:href="#m9d1308acd9" x="282.253367" y="107.49012" style="fill: #808080; fill-opacity: 0.4"/>
     <use xlink:href="#m9d1308acd9" x="258.194861" y="123.7759" style="fill: #808080; fill-opacity: 0.4"/>
     <use xlink:href="#m9d1308acd9" x="279.731207" y="112.835484" style="fill: #808080; fill-opacity: 0.4"/>
     <use xlink:href="#m9d1308acd9" x="261.52732" y="129.162998" style="fill: #808080; fill-opacity: 0.4"/>
     <use xlink:href="#m9d1308acd9" x="237.367483" y="163.189428" style="fill: #808080; fill-opacity: 0.4"/>
     <use xlink:href="#m9d1308acd9" x="276.889387" y="120.242096" style="fill: #808080; fill-opacity: 0.4"/>
     <use xlink:href="#m9d1308acd9" x="232.710962" y="185.42221" style="fill: #808080; fill-opacity: 0.4"/>
     <use xlink:href="#m9d1308acd9" x="173.392404" y="218.699787" style="fill: #808080; fill-opacity: 0.4"/>
     <use xlink:href="#m9d1308acd9" x="198.220226" y="220.556973" style="fill: #808080; fill-opacity: 0.4"/>
     <use xlink:href="#m9d1308acd9" x="158.428895" y="217.782105" style="fill: #808080; fill-opacity: 0.4"/>
     <use xlink:href="#m9d1308acd9" x="181.723714" y="175.01039" style="fill: #808080; fill-opacity: 0.4"/>
     <use xlink:href="#m9d1308acd9" x="201.031645" y="176.691862" style="fill: #808080; fill-opacity: 0.4"/>
     <use xlink:href="#m9d1308acd9" x="195.144172" y="200.235335" style="fill: #808080; fill-opacity: 0.4"/>
     <use xlink:href="#m9d1308acd9" x="195.010312" y="198.792507" style="fill: #808080; fill-opacity: 0.4"/>
     <use xlink:href="#m9d1308acd9" x="232.355233" y="173.101058" style="fill: #808080; fill-opacity: 0.4"/>
     <use xlink:href="#m9d1308acd9" x="178.724721" y="213.401872" style="fill: #808080; fill-opacity: 0.4"/>
     <use xlink:href="#m9d1308acd9" x="231.051089" y="175.303608" style="fill: #808080; fill-opacity: 0.4"/>
     <use xlink:href="#m9d1308acd9" x="230.137715" y="173.549757" style="fill: #808080; fill-opacity: 0.4"/>
     <use xlink:href="#m9d1308acd9" x="192.38365" y="213.239202" style="fill: #808080; fill-opacity: 0.4"/>
     <use xlink:href="#m9d1308acd9" x="206.047277" y="191.490593" style="fill: #808080; fill-opacity: 0.4"/>
     <use xlink:href="#m9d1308acd9" x="170.016381" y="244.482172" style="fill: #808080; fill-opacity: 0.4"/>
     <use xlink:href="#m9d1308acd9" x="211.047444" y="201.402222" style="fill: #808080; fill-opacity: 0.4"/>
     <use xlink:href="#m9d1308acd9" x="223.872279" y="168.096889" style="fill: #808080; fill-opacity: 0.4"/>
     <use xlink:href="#m9d1308acd9" x="193.546032" y="183.69222" style="fill: #808080; fill-opacity: 0.4"/>
     <use xlink:href="#m9d1308acd9" x="178.347691" y="188.201345" style="fill: #808080; fill-opacity: 0.4"/>
     <use xlink:href="#m9d1308acd9" x="223.49525" y="177.197745" style="fill: #808080; fill-opacity: 0.4"/>
     <use xlink:href="#m9d1308acd9" x="117.945264" y="223.635004" style="fill: #808080; fill-opacity: 0.4"/>
     <use xlink:href="#m9d1308acd9" x="185.097641" y="272.783336" style="fill: #808080; fill-opacity: 0.4"/>
     <use xlink:href="#m9d1308acd9" x="157.732301" y="235.12771" style="fill: #808080; fill-opacity: 0.4"/>
     <use xlink:href="#m9d1308acd9" x="148.771477" y="214.52326" style="fill: #808080; fill-opacity: 0.4"/>
     <use xlink:href="#m9d1308acd9" x="202.693908" y="217.279042" style="fill: #808080; fill-opacity: 0.4"/>
     <use xlink:href="#m9d1308acd9" x="168.690273" y="242.077634" style="fill: #808080; fill-opacity: 0.4"/>
     <use xlink:href="#m9d1308acd9" x="148.218072" y="214.306758" style="fill: #808080; fill-opacity: 0.4"/>
     <use xlink:href="#m9d1308acd9" x="161.403978" y="249.628606" style="fill: #808080; fill-opacity: 0.4"/>
     <use xlink:href="#m9d1308acd9" x="182.932742" y="199.344297" style="fill: #808080; fill-opacity: 0.4"/>
     <use xlink:href="#m9d1308acd9" x="170.936045" y="237.695418" style="fill: #808080; fill-opacity: 0.4"/>
     <use xlink:href="#m9d1308acd9" x="163.538357" y="212.585164" style="fill: #808080; fill-opacity: 0.4"/>
     <use xlink:href="#m9d1308acd9" x="176.389301" y="216.414324" style="fill: #808080; fill-opacity: 0.4"/>
     <use xlink:href="#m9d1308acd9" x="176.905166" y="270.494464" style="fill: #808080; fill-opacity: 0.4"/>
     <use xlink:href="#m9d1308acd9" x="174.915141" y="233.975311" style="fill: #808080; fill-opacity: 0.4"/>
     <use xlink:href="#m9d1308acd9" x="121.377815" y="197.991817" style="fill: #808080; fill-opacity: 0.4"/>
     <use xlink:href="#m9d1308acd9" x="150.656193" y="246.419891" style="fill: #808080; fill-opacity: 0.4"/>
     <use xlink:href="#m9d1308acd9" x="143.262785" y="253.765599" style="fill: #808080; fill-opacity: 0.4"/>
     <use xlink:href="#m9d1308acd9" x="146.963935" y="222.155011" style="fill: #808080; fill-opacity: 0.4"/>
     <use xlink:href="#m9d1308acd9" x="170.016381" y="220.108275" style="fill: #808080; fill-opacity: 0.4"/>
     <use xlink:href="#m9d1308acd9" x="147.419553" y="246.909609" style="fill: #808080; fill-opacity: 0.4"/>
     <use xlink:href="#m9d1308acd9" x="150.403509" y="254.741244" style="fill: #808080; fill-opacity: 0.4"/>
     <use xlink:href="#m9d1308acd9" x="169.402976" y="261.646739" style="fill: #808080; fill-opacity: 0.4"/>
     <use xlink:href="#m9d1308acd9" x="166.408957" y="226.805067" style="fill: #808080; fill-opacity: 0.4"/>
     <use xlink:href="#m9d1308acd9" x="156.087621" y="276.193741" style="fill: #808080; fill-opacity: 0.4"/>
     <use xlink:href="#m9d1308acd9" x="150.019009" y="188.290591" style="fill: #808080; fill-opacity: 0.4"/>
     <use xlink:href="#m9d1308acd9" x="131.412262" y="272.408739" style="fill: #808080; fill-opacity: 0.4"/>
     <use xlink:href="#m9d1308acd9" x="156.664656" y="238.241014" style="fill: #808080; fill-opacity: 0.4"/>
     <use xlink:href="#m9d1308acd9" x="152.341361" y="212.405822" style="fill: #808080; fill-opacity: 0.4"/>
     <use xlink:href="#m9d1308acd9" x="172.303538" y="219.781628" style="fill: #808080; fill-opacity: 0.4"/>
     <use xlink:href="#m9d1308acd9" x="142.163724" y="243.853969" style="fill: #808080; fill-opacity: 0.4"/>
     <use xlink:href="#m9d1308acd9" x="137.707499" y="240.872738" style="fill: #808080; fill-opacity: 0.4"/>
     <use xlink:href="#m9d1308acd9" x="164.609481" y="221.553023" style="fill: #808080; fill-opacity: 0.4"/>
     <use xlink:href="#m9d1308acd9" x="169.554619" y="203.80676" style="fill: #808080; fill-opacity: 0.4"/>
     <use xlink:href="#m9d1308acd9" x="199.287516" y="217.652636" style="fill: #808080; fill-opacity: 0.4"/>
     <use xlink:href="#m9d1308acd9" x="192.922473" y="265.413258" style="fill: #808080; fill-opacity: 0.4"/>
     <use xlink:href="#m9d1308acd9" x="171.395928" y="276.964209" style="fill: #808080; fill-opacity: 0.4"/>
     <use xlink:href="#m9d1308acd9" x="117.748636" y="219.866674" style="fill: #808080; fill-opacity: 0.4"/>
     <use xlink:href="#m9d1308acd9" x="153.677051" y="221.527647" style="fill: #808080; fill-opacity: 0.4"/>
     <use xlink:href="#m9d1308acd9" x="177.885929" y="230.16217" style="fill: #808080; fill-opacity: 0.4"/>
     <use xlink:href="#m9d1308acd9" x="154.09008" y="269.532987" style="fill: #808080; fill-opacity: 0.4"/>
     <use xlink:href="#m9d1308acd9" x="116.149164" y="211.415279" style="fill: #808080; fill-opacity: 0.4"/>
     <use xlink:href="#m9d1308acd9" x="164.697411" y="220.837458" style="fill: #808080; fill-opacity: 0.4"/>
     <use xlink:href="#m9d1308acd9" x="178.773877" y="249.283608" style="fill: #808080; fill-opacity: 0.4"/>
     <use xlink:href="#m9d1308acd9" x="169.050522" y="227.973397" style="fill: #808080; fill-opacity: 0.4"/>
     <use xlink:href="#m9d1308acd9" x="118.445229" y="257.507812" style="fill: #808080; fill-opacity: 0.4"/>
     <use xlink:href="#m9d1308acd9" x="177.955229" y="271.39693" style="fill: #808080; fill-opacity: 0.4"/>
     <use xlink:href="#m9d1308acd9" x="126.878009" y="241.027114" style="fill: #808080; fill-opacity: 0.4"/>
     <use xlink:href="#m9d1308acd9" x="172.47903" y="219.300271" style="fill: #808080; fill-opacity: 0.4"/>
     <use xlink:href="#m9d1308acd9" x="161.092881" y="233.594897" style="fill: #808080; fill-opacity: 0.4"/>
     <use xlink:href="#m9d1308acd9" x="168.754052" y="209.003556" style="fill: #808080; fill-opacity: 0.4"/>
     <use xlink:href="#m9d1308acd9" x="160.794616" y="283.579676" style="fill: #808080; fill-opacity: 0.4"/>
     <use xlink:href="#m9d1308acd9" x="142.348008" y="233.984826" style="fill: #808080; fill-opacity: 0.4"/>
     <use xlink:href="#m9d1308acd9" x="152.282904" y="227.50611" style="fill: #808080; fill-opacity: 0.4"/>
     <use xlink:href="#m9d1308acd9" x="165.791455" y="215.552805" style="fill: #808080; fill-opacity: 0.4"/>
     <use xlink:href="#m9d1308acd9" x="167.238076" y="306.249418" style="fill: #808080; fill-opacity: 0.4"/>
     <use xlink:href="#m9d1308acd9" x="176.559821" y="238.888428" style="fill: #808080; fill-opacity: 0.4"/>
     <use xlink:href="#m9d1308acd9" x="164.239083" y="225.497819" style="fill: #808080; fill-opacity: 0.4"/>
     <use xlink:href="#m9d1308acd9" x="160.937805" y="251.868106" style="fill: #808080; fill-opacity: 0.4"/>
     <use xlink:href="#m9d1308acd9" x="186.136818" y="243.853969" style="fill: #808080; fill-opacity: 0.4"/>
     <use xlink:href="#m9d1308acd9" x="167.961656" y="259.507335" style="fill: #808080; fill-opacity: 0.4"/>
     <use xlink:href="#m9d1308acd9" x="174.673402" y="234.378593" style="fill: #808080; fill-opacity: 0.4"/>
     <use xlink:href="#m9d1308acd9" x="146.298908" y="246.785374" style="fill: #808080; fill-opacity: 0.4"/>
     <use xlink:href="#m9d1308acd9" x="154.499757" y="235.319614" style="fill: #808080; fill-opacity: 0.4"/>
     <use xlink:href="#m9d1308acd9" x="181.170068" y="215.932041" style="fill: #808080; fill-opacity: 0.4"/>
     <use xlink:href="#m9d1308acd9" x="170.405494" y="263.797671" style="fill: #808080; fill-opacity: 0.4"/>
     <use xlink:href="#m9d1308acd9" x="167.829517" y="213.798292" style="fill: #808080; fill-opacity: 0.4"/>
     <use xlink:href="#m9d1308acd9" x="187.139728" y="239.270742" style="fill: #808080; fill-opacity: 0.4"/>
     <use xlink:href="#m9d1308acd9" x="173.043146" y="228.157732" style="fill: #808080; fill-opacity: 0.4"/>
     <use xlink:href="#m9d1308acd9" x="183.709158" y="243.981165" style="fill: #808080; fill-opacity: 0.4"/>
     <use xlink:href="#m9d1308acd9" x="147.099563" y="243.719216" style="fill: #808080; fill-opacity: 0.4"/>
     <use xlink:href="#m9d1308acd9" x="172.034415" y="228.326575" style="fill: #808080; fill-opacity: 0.4"/>
     <use xlink:href="#m9d1308acd9" x="158.428895" y="246.08327" style="fill: #808080; fill-opacity: 0.4"/>
     <use xlink:href="#m9d1308acd9" x="181.360032" y="255.011645" style="fill: #808080; fill-opacity: 0.4"/>
     <use xlink:href="#m9d1308acd9" x="175.91158" y="305.138964" style="fill: #808080; fill-opacity: 0.4"/>
     <use xlink:href="#m9d1308acd9" x="166.58383" y="210.480472" style="fill: #808080; fill-opacity: 0.4"/>
     <use xlink:href="#m9d1308acd9" x="160.049971" y="273.090334" style="fill: #808080; fill-opacity: 0.4"/>
     <use xlink:href="#m9d1308acd9" x="176.380366" y="242.985116" style="fill: #808080; fill-opacity: 0.4"/>
     <use xlink:href="#m9d1308acd9" x="174.915141" y="219.987832" style="fill: #808080; fill-opacity: 0.4"/>
     <use xlink:href="#m9d1308acd9" x="165.112656" y="206.50351" style="fill: #808080; fill-opacity: 0.4"/>
     <use xlink:href="#m9d1308acd9" x="145.153547" y="245.652677" style="fill: #808080; fill-opacity: 0.4"/>
     <use xlink:href="#m9d1308acd9" x="185.865131" y="267.718933" style="fill: #808080; fill-opacity: 0.4"/>
     <use xlink:href="#m9d1308acd9" x="166.184836" y="231.337457" style="fill: #808080; fill-opacity: 0.4"/>
     <use xlink:href="#m9d1308acd9" x="174.477277" y="215.066711" style="fill: #808080; fill-opacity: 0.4"/>
     <use xlink:href="#m9d1308acd9" x="148.595102" y="211.88896" style="fill: #808080; fill-opacity: 0.4"/>
     <use xlink:href="#m9d1308acd9" x="159.149935" y="225.832282" style="fill: #808080; fill-opacity: 0.4"/>
     <use xlink:href="#m9d1308acd9" x="176.44207" y="233.1244" style="fill: #808080; fill-opacity: 0.4"/>
     <use xlink:href="#m9d1308acd9" x="167.665529" y="209.405752" style="fill: #808080; fill-opacity: 0.4"/>
     <use xlink:href="#m9d1308acd9" x="109.879087" y="251.868106" style="fill: #808080; fill-opacity: 0.4"/>
     <use xlink:href="#m9d1308acd9" x="154.630218" y="249.340576" style="fill: #808080; fill-opacity: 0.4"/>
     <use xlink:href="#m9d1308acd9" x="165.981585" y="271.752458" style="fill: #808080; fill-opacity: 0.4"/>
     <use xlink:href="#m9d1308acd9" x="154.941914" y="242.699087" style="fill: #808080; fill-opacity: 0.4"/>
     <use xlink:href="#m9d1308acd9" x="165.1701" y="228.035932" style="fill: #808080; fill-opacity: 0.4"/>
     <use xlink:href="#m9d1308acd9" x="147.651208" y="218.458187" style="fill: #808080; fill-opacity: 0.4"/>
     <use xlink:href="#m9d1308acd9" x="159.897201" y="205.03378" style="fill: #808080; fill-opacity: 0.4"/>
     <use xlink:href="#m9d1308acd9" x="174.690575" y="196.669998" style="fill: #808080; fill-opacity: 0.4"/>
     <use xlink:href="#m9d1308acd9" x="156.964079" y="211.644275" style="fill: #808080; fill-opacity: 0.4"/>
     <use xlink:href="#m9d1308acd9" x="139.743573" y="226.556405" style="fill: #808080; fill-opacity: 0.4"/>
     <use xlink:href="#m9d1308acd9" x="169.496162" y="230.077984" style="fill: #808080; fill-opacity: 0.4"/>
     <use xlink:href="#m9d1308acd9" x="188.422232" y="191.68784" style="fill: #808080; fill-opacity: 0.4"/>
     <use xlink:href="#m9d1308acd9" x="171.97477" y="185.775216" style="fill: #808080; fill-opacity: 0.4"/>
     <use xlink:href="#m9d1308acd9" x="180.767843" y="240.443564" style="fill: #808080; fill-opacity: 0.4"/>
     <use xlink:href="#m9d1308acd9" x="171.434014" y="207.903447" style="fill: #808080; fill-opacity: 0.4"/>
     <use xlink:href="#m9d1308acd9" x="176.298066" y="290.60439" style="fill: #808080; fill-opacity: 0.4"/>
     <use xlink:href="#m9d1308acd9" x="157.392665" y="236.372637" style="fill: #808080; fill-opacity: 0.4"/>
     <use xlink:href="#m9d1308acd9" x="166.525374" y="220.816379" style="fill: #808080; fill-opacity: 0.4"/>
     <use xlink:href="#m9d1308acd9" x="124.938122" y="236.906226" style="fill: #808080; fill-opacity: 0.4"/>
     <use xlink:href="#m9d1308acd9" x="173.638485" y="249.160995" style="fill: #808080; fill-opacity: 0.4"/>
     <use xlink:href="#m9d1308acd9" x="180.795331" y="210.948201" style="fill: #808080; fill-opacity: 0.4"/>
     <use xlink:href="#m9d1308acd9" x="147.791464" y="231.151865" style="fill: #808080; fill-opacity: 0.4"/>
     <use xlink:href="#m9d1308acd9" x="176.905166" y="216.618175" style="fill: #808080; fill-opacity: 0.4"/>
     <use xlink:href="#m9d1308acd9" x="179.164257" y="195.876994" style="fill: #808080; fill-opacity: 0.4"/>
     <use xlink:href="#m9d1308acd9" x="180.306081" y="234.258857" style="fill: #808080; fill-opacity: 0.4"/>
     <use xlink:href="#m9d1308acd9" x="168.612588" y="203.004218" style="fill: #808080; fill-opacity: 0.4"/>
     <use xlink:href="#m9d1308acd9" x="167.117563" y="283.941012" style="fill: #808080; fill-opacity: 0.4"/>
     <use xlink:href="#m9d1308acd9" x="195.51948" y="207.056901" style="fill: #808080; fill-opacity: 0.4"/>
     <use xlink:href="#m9d1308acd9" x="202.301018" y="206.5328" style="fill: #808080; fill-opacity: 0.4"/>
     <use xlink:href="#m9d1308acd9" x="177.734286" y="179.583528" style="fill: #808080; fill-opacity: 0.4"/>
     <use xlink:href="#m9d1308acd9" x="196.506939" y="252.964909" style="fill: #808080; fill-opacity: 0.4"/>
     <use xlink:href="#m9d1308acd9" x="168.228511" y="221.679432" style="fill: #808080; fill-opacity: 0.4"/>
     <use xlink:href="#m9d1308acd9" x="187.480958" y="228.23405" style="fill: #808080; fill-opacity: 0.4"/>
     <use xlink:href="#m9d1308acd9" x="198.681988" y="200.963174" style="fill: #808080; fill-opacity: 0.4"/>
     <use xlink:href="#m9d1308acd9" x="172.772833" y="218.365655" style="fill: #808080; fill-opacity: 0.4"/>
     <use xlink:href="#m9d1308acd9" x="176.559821" y="249.980597" style="fill: #808080; fill-opacity: 0.4"/>
     <use xlink:href="#m9d1308acd9" x="154.564884" y="288.135145" style="fill: #808080; fill-opacity: 0.4"/>
     <use xlink:href="#m9d1308acd9" x="184.658954" y="221.656507" style="fill: #808080; fill-opacity: 0.4"/>
     <use xlink:href="#m9d1308acd9" x="195.324021" y="182.633451" style="fill: #808080; fill-opacity: 0.4"/>
     <use xlink:href="#m9d1308acd9" x="178.115513" y="219.880172" style="fill: #808080; fill-opacity: 0.4"/>
     <use xlink:href="#m9d1308acd9" x="175.233713" y="258.004551" style="fill: #808080; fill-opacity: 0.4"/>
     <use xlink:href="#m9d1308acd9" x="197.998089" y="223.830365" style="fill: #808080; fill-opacity: 0.4"/>
     <use xlink:href="#m9d1308acd9" x="200.459709" y="219.438871" style="fill: #808080; fill-opacity: 0.4"/>
     <use xlink:href="#m9d1308acd9" x="134.706909" y="265.413258" style="fill: #808080; fill-opacity: 0.4"/>
     <use xlink:href="#m9d1308acd9" x="183.645445" y="204.416208" style="fill: #808080; fill-opacity: 0.4"/>
     <use xlink:href="#m9d1308acd9" x="181.969796" y="220.859831" style="fill: #808080; fill-opacity: 0.4"/>
     <use xlink:href="#m9d1308acd9" x="183.080744" y="219.622181" style="fill: #808080; fill-opacity: 0.4"/>
     <use xlink:href="#m9d1308acd9" x="192.140743" y="171.451894" style="fill: #808080; fill-opacity: 0.4"/>
     <use xlink:href="#m9d1308acd9" x="189.511886" y="179.819792" style="fill: #808080; fill-opacity: 0.4"/>
     <use xlink:href="#m9d1308acd9" x="185.718661" y="167.993798" style="fill: #808080; fill-opacity: 0.4"/>
     <use xlink:href="#m9d1308acd9" x="191.131058" y="222.554013" style="fill: #808080; fill-opacity: 0.4"/>
     <use xlink:href="#m9d1308acd9" x="197.675717" y="199.789676" style="fill: #808080; fill-opacity: 0.4"/>
     <use xlink:href="#m9d1308acd9" x="203.400079" y="218.595362" style="fill: #808080; fill-opacity: 0.4"/>
     <use xlink:href="#m9d1308acd9" x="193.69482" y="172.059842" style="fill: #808080; fill-opacity: 0.4"/>
     <use xlink:href="#m9d1308acd9" x="150.097584" y="194.499656" style="fill: #808080; fill-opacity: 0.4"/>
     <use xlink:href="#m9d1308acd9" x="181.458581" y="178.97408" style="fill: #808080; fill-opacity: 0.4"/>
     <use xlink:href="#m9d1308acd9" x="171.850616" y="188.520059" style="fill: #808080; fill-opacity: 0.4"/>
     <use xlink:href="#m9d1308acd9" x="144.186426" y="194.333002" style="fill: #808080; fill-opacity: 0.4"/>
     <use xlink:href="#m9d1308acd9" x="190.055025" y="157.584564" style="fill: #808080; fill-opacity: 0.4"/>
     <use xlink:href="#m9d1308acd9" x="292.123553" y="75.358214" style="fill: #808080; fill-opacity: 0.4"/>
     <use xlink:href="#m9d1308acd9" x="284.824868" y="82.521905" style="fill: #808080; fill-opacity: 0.4"/>
     <use xlink:href="#m9d1308acd9" x="281.739571" y="84.275775" style="fill: #808080; fill-opacity: 0.4"/>
     <use xlink:href="#m9d1308acd9" x="280.873454" y="81.685027" style="fill: #808080; fill-opacity: 0.4"/>
     <use xlink:href="#m9d1308acd9" x="282.491554" y="80.538688" style="fill: #808080; fill-opacity: 0.4"/>
     <use xlink:href="#m9d1308acd9" x="290.423548" y="75.985562" style="fill: #808080; fill-opacity: 0.4"/>
     <use xlink:href="#m9d1308acd9" x="279.034614" y="86.805453" style="fill: #808080; fill-opacity: 0.4"/>
     <use xlink:href="#m9d1308acd9" x="285.765572" y="75.072131" style="fill: #808080; fill-opacity: 0.4"/>
     <use xlink:href="#m9d1308acd9" x="283.574979" y="74.890333" style="fill: #808080; fill-opacity: 0.4"/>
     <use xlink:href="#m9d1308acd9" x="287.181108" y="73.241419" style="fill: #808080; fill-opacity: 0.4"/>
     <use xlink:href="#m9d1308acd9" x="277.760176" y="76.716682" style="fill: #808080; fill-opacity: 0.4"/>
     <use xlink:href="#m9d1308acd9" x="284.631178" y="76.003905" style="fill: #808080; fill-opacity: 0.4"/>
     <use xlink:href="#m9d1308acd9" x="295.148736" y="62.994155" style="fill: #808080; fill-opacity: 0.4"/>
     <use xlink:href="#m9d1308acd9" x="285.621487" y="75.531084" style="fill: #808080; fill-opacity: 0.4"/>
     <use xlink:href="#m9d1308acd9" x="302.089827" y="57.350582" style="fill: #808080; fill-opacity: 0.4"/>
    </g>
   </g>
   <g id="PolyCollection_1">
    <defs>
     <path id="mfba4d49e50" d="M 109.879087 -82.596525 
L 109.879087 -64.45775 
L 111.82061 -66.626278 
L 113.762132 -68.778094 
L 115.703655 -70.942928 
L 117.645178 -73.110324 
L 119.5867 -75.222391 
L 121.528223 -77.337698 
L 123.469746 -79.507967 
L 125.411268 -81.651247 
L 127.352791 -83.753554 
L 129.294313 -85.932488 
L 131.235836 -88.137789 
L 133.177359 -90.343335 
L 135.118881 -92.545528 
L 137.060404 -94.718702 
L 139.001927 -96.893794 
L 140.943449 -99.068887 
L 142.884972 -101.164974 
L 144.826494 -103.25605 
L 146.768017 -105.451115 
L 148.70954 -107.477159 
L 150.651062 -109.518908 
L 152.592585 -111.615935 
L 154.534108 -113.819092 
L 156.47563 -115.902924 
L 158.417153 -117.953801 
L 160.358676 -120.014809 
L 162.300198 -122.078223 
L 164.241721 -124.28381 
L 166.183243 -126.447239 
L 168.124766 -128.668338 
L 170.066289 -130.806977 
L 172.007811 -133.005149 
L 173.949334 -135.174019 
L 175.890857 -137.281411 
L 177.832379 -139.338507 
L 179.773902 -141.405295 
L 181.715424 -143.471452 
L 183.656947 -145.485199 
L 185.59847 -147.524698 
L 187.539992 -149.564687 
L 189.481515 -151.609015 
L 191.423038 -153.656167 
L 193.36456 -155.69115 
L 195.306083 -157.724363 
L 197.247605 -159.732406 
L 199.189128 -161.64818 
L 201.130651 -163.650658 
L 203.072173 -165.641725 
L 205.013696 -167.544029 
L 206.955219 -169.479094 
L 208.896741 -171.32209 
L 210.838264 -173.22119 
L 212.779787 -175.113141 
L 214.721309 -177.006314 
L 216.662832 -178.965019 
L 218.604354 -180.93562 
L 220.545877 -182.753644 
L 222.4874 -184.612786 
L 224.428922 -186.471204 
L 226.370445 -188.396179 
L 228.311968 -190.243075 
L 230.25349 -192.08549 
L 232.195013 -193.901172 
L 234.136535 -195.850423 
L 236.078058 -197.698517 
L 238.019581 -199.608499 
L 239.961103 -201.390772 
L 241.902626 -203.202898 
L 243.844149 -205.045635 
L 245.785671 -206.904116 
L 247.727194 -208.740782 
L 249.668716 -210.54348 
L 251.610239 -212.348106 
L 253.551762 -214.154241 
L 255.493284 -216.026315 
L 257.434807 -217.930828 
L 259.37633 -219.738226 
L 261.317852 -221.521261 
L 263.259375 -223.380681 
L 265.200897 -225.240102 
L 267.14242 -227.099522 
L 269.083943 -228.958046 
L 271.025465 -230.785143 
L 272.966988 -232.552535 
L 274.908511 -234.364469 
L 276.850033 -236.176404 
L 278.791556 -237.959004 
L 280.733079 -239.736441 
L 282.674601 -241.478862 
L 284.616124 -243.219851 
L 286.557646 -244.98163 
L 288.499169 -246.820606 
L 290.440692 -248.626171 
L 292.382214 -250.405133 
L 294.323737 -252.184095 
L 296.26526 -253.963057 
L 298.206782 -255.754282 
L 300.148305 -257.522322 
L 302.089827 -259.297275 
L 302.089827 -280.182376 
L 302.089827 -280.182376 
L 300.148305 -278.024173 
L 298.206782 -275.865283 
L 296.26526 -273.709077 
L 294.323737 -271.563326 
L 292.382214 -269.417576 
L 290.440692 -267.271826 
L 288.499169 -265.15229 
L 286.557646 -263.065335 
L 284.616124 -260.978075 
L 282.674601 -258.836489 
L 280.733079 -256.706656 
L 278.791556 -254.549845 
L 276.850033 -252.408652 
L 274.908511 -250.263534 
L 272.966988 -248.046427 
L 271.025465 -245.914823 
L 269.083943 -243.782301 
L 267.14242 -241.610878 
L 265.200897 -239.444681 
L 263.259375 -237.352387 
L 261.317852 -235.256805 
L 259.37633 -233.117131 
L 257.434807 -230.94168 
L 255.493284 -228.767477 
L 253.551762 -226.661299 
L 251.610239 -224.558097 
L 249.668716 -222.469237 
L 247.727194 -220.337728 
L 245.785671 -218.259106 
L 243.844149 -216.164195 
L 241.902626 -213.994333 
L 239.961103 -211.840129 
L 238.019581 -209.743343 
L 236.078058 -207.608156 
L 234.136535 -205.535366 
L 232.195013 -203.445294 
L 230.25349 -201.424519 
L 228.311968 -199.370609 
L 226.370445 -197.316914 
L 224.428922 -195.351325 
L 222.4874 -193.284063 
L 220.545877 -191.265915 
L 218.604354 -189.226314 
L 216.662832 -187.223916 
L 214.721309 -185.206937 
L 212.779787 -183.159528 
L 210.838264 -181.164109 
L 208.896741 -179.116547 
L 206.955219 -177.081012 
L 205.013696 -175.073883 
L 203.072173 -173.069252 
L 201.130651 -171.049088 
L 199.189128 -169.035519 
L 197.247605 -167.052406 
L 195.306083 -165.049971 
L 193.36456 -163.084696 
L 191.423038 -161.100587 
L 189.481515 -159.140999 
L 187.539992 -157.162355 
L 185.59847 -155.19186 
L 183.656947 -153.261233 
L 181.715424 -151.396661 
L 179.773902 -149.393764 
L 177.832379 -147.553807 
L 175.890857 -145.62868 
L 173.949334 -143.742705 
L 172.007811 -141.798759 
L 170.066289 -139.853141 
L 168.124766 -138.019782 
L 166.183243 -136.158519 
L 164.241721 -134.300821 
L 162.300198 -132.395185 
L 160.358676 -130.498354 
L 158.417153 -128.603968 
L 156.47563 -126.76475 
L 154.534108 -124.962762 
L 152.592585 -123.15839 
L 150.651062 -121.302215 
L 148.70954 -119.456544 
L 146.768017 -117.587205 
L 144.826494 -115.717867 
L 142.884972 -113.858383 
L 140.943449 -112.03855 
L 139.001927 -110.218718 
L 137.060404 -108.398885 
L 135.118881 -106.545143 
L 133.177359 -104.675494 
L 131.235836 -102.860183 
L 129.294313 -101.037583 
L 127.352791 -99.162581 
L 125.411268 -97.287523 
L 123.469746 -95.465607 
L 121.528223 -93.643691 
L 119.5867 -91.821074 
L 117.645178 -89.99703 
L 115.703655 -88.172561 
L 113.762132 -86.261123 
L 111.82061 -84.354616 
L 109.879087 -82.596525 
z
"/>
    </defs>
    <g clip-path="url(#p5791b49298)">
     <use xlink:href="#mfba4d49e50" x="0" y="360" style="fill: #808080; fill-opacity: 0.15"/>
    </g>
   </g>
   <g id="line2d_13">
    <path d="M 109.879087 285.825749 
L 111.82061 283.838945 
L 113.762132 281.85214 
L 115.703655 279.865335 
L 117.645178 277.878531 
L 119.5867 275.891726 
L 121.528223 273.904922 
L 123.469746 271.918117 
L 125.411268 269.931312 
L 127.352791 267.944508 
L 129.294313 265.957703 
L 131.235836 263.970899 
L 133.177359 261.984094 
L 135.118881 259.997289 
L 137.060404 258.010485 
L 139.001927 256.02368 
L 140.943449 254.036875 
L 142.884972 252.050071 
L 144.826494 250.063266 
L 146.768017 248.076462 
L 148.70954 246.089657 
L 150.651062 244.102852 
L 152.592585 242.116048 
L 154.534108 240.129243 
L 156.47563 238.142439 
L 158.417153 236.155634 
L 160.358676 234.168829 
L 162.300198 232.182025 
L 164.241721 230.19522 
L 166.183243 228.208415 
L 168.124766 226.221611 
L 170.066289 224.234806 
L 172.007811 222.248002 
L 173.949334 220.261197 
L 175.890857 218.274392 
L 177.832379 216.287588 
L 179.773902 214.300783 
L 181.715424 212.313979 
L 183.656947 210.327174 
L 185.59847 208.340369 
L 187.539992 206.353565 
L 189.481515 204.36676 
L 191.423038 202.379955 
L 193.36456 200.393151 
L 195.306083 198.406346 
L 197.247605 196.419542 
L 199.189128 194.432737 
L 201.130651 192.445932 
L 203.072173 190.459128 
L 205.013696 188.472323 
L 206.955219 186.485518 
L 208.896741 184.498714 
L 210.838264 182.511909 
L 212.779787 180.525105 
L 214.721309 178.5383 
L 216.662832 176.551495 
L 218.604354 174.564691 
L 220.545877 172.577886 
L 222.4874 170.591082 
L 224.428922 168.604277 
L 226.370445 166.617472 
L 228.311968 164.630668 
L 230.25349 162.643863 
L 232.195013 160.657058 
L 234.136535 158.670254 
L 236.078058 156.683449 
L 238.019581 154.696645 
L 239.961103 152.70984 
L 241.902626 150.723035 
L 243.844149 148.736231 
L 245.785671 146.749426 
L 247.727194 144.762622 
L 249.668716 142.775817 
L 251.610239 140.789012 
L 253.551762 138.802208 
L 255.493284 136.815403 
L 257.434807 134.828598 
L 259.37633 132.841794 
L 261.317852 130.854989 
L 263.259375 128.868185 
L 265.200897 126.88138 
L 267.14242 124.894575 
L 269.083943 122.907771 
L 271.025465 120.920966 
L 272.966988 118.934162 
L 274.908511 116.947357 
L 276.850033 114.960552 
L 278.791556 112.973748 
L 280.733079 110.986943 
L 282.674601 109.000138 
L 284.616124 107.013334 
L 286.557646 105.026529 
L 288.499169 103.039725 
L 290.440692 101.05292 
L 292.382214 99.066115 
L 294.323737 97.079311 
L 296.26526 95.092506 
L 298.206782 93.105701 
L 300.148305 91.118897 
L 302.089827 89.132092 
" clip-path="url(#p5791b49298)" style="fill: none; stroke: #808080; stroke-width: 2.25; stroke-linecap: round"/>
   </g>
   <g id="patch_3">
    <path d="M 45 320.4 
L 45 43.2 
" style="fill: none; stroke: #262626; stroke-width: 2; stroke-linejoin: miter; stroke-linecap: square"/>
   </g>
   <g id="patch_4">
    <path d="M 45 320.4 
L 324 320.4 
" style="fill: none; stroke: #262626; stroke-width: 2; stroke-linejoin: miter; stroke-linecap: square"/>
   </g>
   <g id="text_15">
    <text style="fill: #262626; font: 16.8px 'sans-serif'; text-anchor: middle" x="184.5" y="37.2" transform="rotate(-0, 184.5, 37.2)">AraC UniRapR Enrichment: 2</text>
   </g>
   <g id="legend_1">
    <g id="line2d_14">
     <path d="M 57.6 61.537812 
L 71.6 61.537812 
L 85.6 61.537812 
" style="fill: none; stroke: #808080; stroke-width: 2.25; stroke-linecap: round"/>
    </g>
    <g id="text_16">
     <text style="fill: #262626; font: 14px 'sans-serif'; text-anchor: start" x="96.8" y="66.437812" transform="rotate(-0, 96.8, 66.437812)">Pearson's r: 0.84</text>
    </g>
   </g>
  </g>
 </g>
 <defs>
  <clipPath id="p5791b49298">
   <rect x="45" y="43.2" width="279" height="277.2"/>
  </clipPath>
 </defs>
</svg>
