<?xml version="1.0" encoding="utf-8" standalone="no"?>
<!DOCTYPE svg PUBLIC "-//W3C//DTD SVG 1.1//EN"
  "http://www.w3.org/Graphics/SVG/1.1/DTD/svg11.dtd">
<svg xmlns:xlink="http://www.w3.org/1999/xlink" width="360pt" height="360pt" viewBox="0 0 360 360" xmlns="http://www.w3.org/2000/svg" version="1.1">
 <metadata>
  <rdf:RDF xmlns:dc="http://purl.org/dc/elements/1.1/" xmlns:cc="http://creativecommons.org/ns#" xmlns:rdf="http://www.w3.org/1999/02/22-rdf-syntax-ns#">
   <cc:Work>
    <dc:type rdf:resource="http://purl.org/dc/dcmitype/StillImage"/>
    <dc:date>2023-12-05T10:52:04.524335</dc:date>
    <dc:format>image/svg+xml</dc:format>
    <dc:creator>
     <cc:Agent>
      <dc:title>Matplotlib v3.5.3, https://matplotlib.org/</dc:title>
     </cc:Agent>
    </dc:creator>
   </cc:Work>
  </rdf:RDF>
 </metadata>
 <defs>
  <style type="text/css">*{stroke-linejoin: round; stroke-linecap: butt}</style>
 </defs>
 <g id="figure_1">
  <g id="patch_1">
   <path d="M 0 360 
L 360 360 
L 360 0 
L 0 0 
z
" style="fill: #ffffff"/>
  </g>
  <g id="axes_1">
   <g id="patch_2">
    <path d="M 45 320.4 
L 324 320.4 
L 324 43.2 
L 45 43.2 
z
" style="fill: #ffffff"/>
   </g>
   <g id="matplotlib.axis_1">
    <g id="xtick_1">
     <g id="line2d_1">
      <defs>
       <path id="ma2a42335ae" d="M 0 0 
L 0 3.5 
" style="stroke: #262626; stroke-width: 2"/>
      </defs>
      <g>
       <use xlink:href="#ma2a42335ae" x="91.5" y="320.4" style="fill: #262626; stroke: #262626; stroke-width: 2"/>
      </g>
     </g>
     <g id="text_1">
      <text style="fill: #262626; font: 14px 'sans-serif'; text-anchor: middle" x="91.5" y="338.037813" transform="rotate(-0, 91.5, 338.037813)">Coil</text>
     </g>
    </g>
    <g id="xtick_2">
     <g id="line2d_2">
      <g>
       <use xlink:href="#ma2a42335ae" x="184.5" y="320.4" style="fill: #262626; stroke: #262626; stroke-width: 2"/>
      </g>
     </g>
     <g id="text_2">
      <text style="fill: #262626; font: 14px 'sans-serif'; text-anchor: middle" x="184.5" y="338.037813" transform="rotate(-0, 184.5, 338.037813)">Helix</text>
     </g>
    </g>
    <g id="xtick_3">
     <g id="line2d_3">
      <g>
       <use xlink:href="#ma2a42335ae" x="277.5" y="320.4" style="fill: #262626; stroke: #262626; stroke-width: 2"/>
      </g>
     </g>
     <g id="text_3">
      <text style="fill: #262626; font: 14px 'sans-serif'; text-anchor: middle" x="277.5" y="338.037813" transform="rotate(-0, 277.5, 338.037813)">Sheet</text>
     </g>
    </g>
    <g id="text_4">
     <text style="fill: #262626; font: 14px 'sans-serif'; text-anchor: middle" x="184.5" y="355.587188" transform="rotate(-0, 184.5, 355.587188)">Sec structure</text>
    </g>
   </g>
   <g id="matplotlib.axis_2">
    <g id="ytick_1">
     <g id="line2d_4">
      <defs>
       <path id="m057cc8dcdd" d="M 0 0 
L -3.5 0 
" style="stroke: #262626; stroke-width: 2"/>
      </defs>
      <g>
       <use xlink:href="#m057cc8dcdd" x="45" y="278.717563" style="fill: #262626; stroke: #262626; stroke-width: 2"/>
      </g>
     </g>
     <g id="text_5">
      <text style="fill: #262626; font: 14px 'sans-serif'; text-anchor: end" x="38" y="284.03647" transform="rotate(-0, 38, 284.03647)">−10</text>
     </g>
    </g>
    <g id="ytick_2">
     <g id="line2d_5">
      <g>
       <use xlink:href="#m057cc8dcdd" x="45" y="217.36183" style="fill: #262626; stroke: #262626; stroke-width: 2"/>
      </g>
     </g>
     <g id="text_6">
      <text style="fill: #262626; font: 14px 'sans-serif'; text-anchor: end" x="38" y="222.680736" transform="rotate(-0, 38, 222.680736)">−5</text>
     </g>
    </g>
    <g id="ytick_3">
     <g id="line2d_6">
      <g>
       <use xlink:href="#m057cc8dcdd" x="45" y="156.006097" style="fill: #262626; stroke: #262626; stroke-width: 2"/>
      </g>
     </g>
     <g id="text_7">
      <text style="fill: #262626; font: 14px 'sans-serif'; text-anchor: end" x="38" y="161.325003" transform="rotate(-0, 38, 161.325003)">0</text>
     </g>
    </g>
    <g id="ytick_4">
     <g id="line2d_7">
      <g>
       <use xlink:href="#m057cc8dcdd" x="45" y="94.650364" style="fill: #262626; stroke: #262626; stroke-width: 2"/>
      </g>
     </g>
     <g id="text_8">
      <text style="fill: #262626; font: 14px 'sans-serif'; text-anchor: end" x="38" y="99.96927" transform="rotate(-0, 38, 99.96927)">5</text>
     </g>
    </g>
    <g id="text_9">
     <text style="fill: #262626; font: 14px 'sans-serif'; text-anchor: middle" x="1.541875" y="181.8" transform="rotate(-90, 1.541875, 181.8)">Log2 variant enrichment</text>
    </g>
   </g>
   <g id="PolyCollection_1">
    <defs>
     <path id="m31003f9d03" d="M 91.963796 -52.2 
L 91.036204 -52.2 
L 90.866372 -54.49907 
L 90.654131 -56.79814 
L 90.396055 -59.097211 
L 90.090579 -61.396281 
L 89.738289 -63.695351 
L 89.341866 -65.994421 
L 88.905569 -68.293491 
L 88.434226 -70.592562 
L 87.931772 -72.891632 
L 87.399508 -75.190702 
L 86.834336 -77.489772 
L 86.227296 -79.788842 
L 85.562747 -82.087913 
L 84.818508 -84.386983 
L 83.96712 -86.686053 
L 82.978293 -88.985123 
L 81.822348 -91.284193 
L 80.474357 -93.583264 
L 78.918458 -95.882334 
L 77.151813 -98.181404 
L 75.187597 -100.480474 
L 73.056517 -102.779545 
L 70.806508 -105.078615 
L 68.500441 -107.377685 
L 66.211973 -109.676755 
L 64.019899 -111.975825 
L 62.00164 -114.274896 
L 60.226624 -116.573966 
L 58.750422 -118.873036 
L 57.610398 -121.172106 
L 56.823462 -123.471176 
L 56.386188 -125.770247 
L 56.277233 -128.069317 
L 56.461595 -130.368387 
L 56.896007 -132.667457 
L 57.534577 -134.966527 
L 58.333829 -137.265598 
L 59.256435 -139.564668 
L 60.273233 -141.863738 
L 61.363486 -144.162808 
L 62.513614 -146.461878 
L 63.71494 -148.760949 
L 64.961042 -151.060019 
L 66.245325 -153.359089 
L 67.559245 -155.658159 
L 68.891432 -157.957229 
L 70.22771 -160.2563 
L 71.55183 -162.55537 
L 72.846618 -164.85444 
L 74.095207 -167.15351 
L 75.282087 -169.45258 
L 76.393799 -171.751651 
L 77.419244 -174.050721 
L 78.349674 -176.349791 
L 79.178503 -178.648861 
L 79.901114 -180.947932 
L 80.514773 -183.247002 
L 81.018726 -185.546072 
L 81.414454 -187.845142 
L 81.705976 -190.144212 
L 81.900072 -192.443283 
L 82.006271 -194.742353 
L 82.036506 -197.041423 
L 82.004419 -199.340493 
L 81.924403 -201.639563 
L 81.810531 -203.938634 
L 81.675607 -206.237704 
L 81.530533 -208.536774 
L 81.384159 -210.835844 
L 81.243644 -213.134914 
L 81.11525 -215.433985 
L 81.005372 -217.733055 
L 80.921519 -220.032125 
L 80.872985 -222.331195 
L 80.870975 -224.630265 
L 80.928094 -226.929336 
L 81.05723 -229.228406 
L 81.270016 -231.527476 
L 81.575134 -233.826546 
L 81.976786 -236.125616 
L 82.473593 -238.424687 
L 83.058153 -240.723757 
L 83.717304 -243.022827 
L 84.433081 -245.321897 
L 85.184194 -247.620967 
L 85.947815 -249.920038 
L 86.701425 -252.219108 
L 87.424494 -254.518178 
L 88.099809 -256.817248 
L 88.714345 -259.116318 
L 89.259649 -261.415389 
L 89.731761 -263.714459 
L 90.130759 -266.013529 
L 90.460044 -268.312599 
L 90.725482 -270.61167 
L 90.934521 -272.91074 
L 91.095368 -275.20981 
L 91.216303 -277.50888 
L 91.305152 -279.80795 
L 91.694848 -279.80795 
L 91.694848 -279.80795 
L 91.783697 -277.50888 
L 91.904632 -275.20981 
L 92.065479 -272.91074 
L 92.274518 -270.61167 
L 92.539956 -268.312599 
L 92.869241 -266.013529 
L 93.268239 -263.714459 
L 93.740351 -261.415389 
L 94.285655 -259.116318 
L 94.900191 -256.817248 
L 95.575506 -254.518178 
L 96.298575 -252.219108 
L 97.052185 -249.920038 
L 97.815806 -247.620967 
L 98.566919 -245.321897 
L 99.282696 -243.022827 
L 99.941847 -240.723757 
L 100.526407 -238.424687 
L 101.023214 -236.125616 
L 101.424866 -233.826546 
L 101.729984 -231.527476 
L 101.94277 -229.228406 
L 102.071906 -226.929336 
L 102.129025 -224.630265 
L 102.127015 -222.331195 
L 102.078481 -220.032125 
L 101.994628 -217.733055 
L 101.88475 -215.433985 
L 101.756356 -213.134914 
L 101.615841 -210.835844 
L 101.469467 -208.536774 
L 101.324393 -206.237704 
L 101.189469 -203.938634 
L 101.075597 -201.639563 
L 100.995581 -199.340493 
L 100.963494 -197.041423 
L 100.993729 -194.742353 
L 101.099928 -192.443283 
L 101.294024 -190.144212 
L 101.585546 -187.845142 
L 101.981274 -185.546072 
L 102.485227 -183.247002 
L 103.098886 -180.947932 
L 103.821497 -178.648861 
L 104.650326 -176.349791 
L 105.580756 -174.050721 
L 106.606201 -171.751651 
L 107.717913 -169.45258 
L 108.904793 -167.15351 
L 110.153382 -164.85444 
L 111.44817 -162.55537 
L 112.77229 -160.2563 
L 114.108568 -157.957229 
L 115.440755 -155.658159 
L 116.754675 -153.359089 
L 118.038958 -151.060019 
L 119.28506 -148.760949 
L 120.486386 -146.461878 
L 121.636514 -144.162808 
L 122.726767 -141.863738 
L 123.743565 -139.564668 
L 124.666171 -137.265598 
L 125.465423 -134.966527 
L 126.103993 -132.667457 
L 126.538405 -130.368387 
L 126.722767 -128.069317 
L 126.613812 -125.770247 
L 126.176538 -123.471176 
L 125.389602 -121.172106 
L 124.249578 -118.873036 
L 122.773376 -116.573966 
L 120.99836 -114.274896 
L 118.980101 -111.975825 
L 116.788027 -109.676755 
L 114.499559 -107.377685 
L 112.193492 -105.078615 
L 109.943483 -102.779545 
L 107.812403 -100.480474 
L 105.848187 -98.181404 
L 104.081542 -95.882334 
L 102.525643 -93.583264 
L 101.177652 -91.284193 
L 100.021707 -88.985123 
L 99.03288 -86.686053 
L 98.181492 -84.386983 
L 97.437253 -82.087913 
L 96.772704 -79.788842 
L 96.165664 -77.489772 
L 95.600492 -75.190702 
L 95.068228 -72.891632 
L 94.565774 -70.592562 
L 94.094431 -68.293491 
L 93.658134 -65.994421 
L 93.261711 -63.695351 
L 92.909421 -61.396281 
L 92.603945 -59.097211 
L 92.345869 -56.79814 
L 92.133628 -54.49907 
L 91.963796 -52.2 
z
" style="stroke: #4d4d4d; stroke-width: 2"/>
    </defs>
    <g clip-path="url(#p2a0643dfce)">
     <use xlink:href="#m31003f9d03" x="0" y="360" style="fill: #808080; stroke: #4d4d4d; stroke-width: 2"/>
    </g>
   </g>
   <g id="PolyCollection_2">
    <defs>
     <path id="m70f9319fdc" d="M 185.415753 -52.215106 
L 183.584247 -52.215106 
L 183.271267 -54.424941 
L 182.888214 -56.634776 
L 182.432709 -58.844612 
L 181.906777 -61.054447 
L 181.317579 -63.264282 
L 180.677573 -65.474117 
L 180.003912 -67.683952 
L 179.316983 -69.893788 
L 178.638106 -72.103623 
L 177.986608 -74.313458 
L 177.376605 -76.523293 
L 176.813968 -78.733128 
L 176.293984 -80.942964 
L 175.800192 -83.152799 
L 175.304733 -85.362634 
L 174.770354 -87.572469 
L 174.153936 -89.782304 
L 173.411203 -91.99214 
L 172.502027 -94.201975 
L 171.395647 -96.41181 
L 170.075101 -98.621645 
L 168.540266 -100.83148 
L 166.809082 -103.041316 
L 164.916783 -105.251151 
L 162.913255 -107.460986 
L 160.858851 -109.670821 
L 158.819227 -111.880656 
L 156.859855 -114.090492 
L 155.040873 -116.300327 
L 153.412851 -118.510162 
L 152.013896 -120.719997 
L 150.868272 -122.929832 
L 149.986531 -125.139668 
L 149.366902 -127.349503 
L 148.997593 -129.559338 
L 148.859556 -131.769173 
L 148.92931 -133.979009 
L 149.181468 -136.188844 
L 149.590748 -138.398679 
L 150.133388 -140.608514 
L 150.787981 -142.818349 
L 151.535858 -145.028185 
L 152.361168 -147.23802 
L 153.250799 -149.447855 
L 154.194266 -151.65769 
L 155.183586 -153.867525 
L 156.213149 -156.077361 
L 157.279503 -158.287196 
L 158.380986 -160.497031 
L 159.517145 -162.706866 
L 160.687925 -164.916701 
L 161.892692 -167.126537 
L 163.129203 -169.336372 
L 164.392696 -171.546207 
L 165.675276 -173.756042 
L 166.965735 -175.965877 
L 168.249895 -178.175713 
L 169.51144 -180.385548 
L 170.73314 -182.595383 
L 171.898251 -184.805218 
L 172.991884 -187.015053 
L 174.002091 -189.224889 
L 174.920524 -191.434724 
L 175.742571 -193.644559 
L 176.467001 -195.854394 
L 177.095245 -198.06423 
L 177.630487 -200.274065 
L 178.076788 -202.4839 
L 178.438431 -204.693735 
L 178.71962 -206.90357 
L 178.924579 -209.113406 
L 179.058007 -211.323241 
L 179.125767 -213.533076 
L 179.135639 -215.742911 
L 179.097926 -217.952746 
L 179.025748 -220.162582 
L 178.934893 -222.372417 
L 178.843181 -224.582252 
L 178.769364 -226.792087 
L 178.731702 -229.001922 
L 178.746389 -231.211758 
L 178.826043 -233.421593 
L 178.978491 -235.631428 
L 179.20602 -237.841263 
L 179.505199 -240.051098 
L 179.86731 -242.260934 
L 180.279307 -244.470769 
L 180.725182 -246.680604 
L 181.187539 -248.890439 
L 181.649167 -251.100274 
L 182.094445 -253.31011 
L 182.510415 -255.519945 
L 182.887446 -257.72978 
L 183.219482 -259.939615 
L 183.503897 -262.14945 
L 183.741065 -264.359286 
L 183.933722 -266.569121 
L 184.08626 -268.778956 
L 184.204028 -270.988791 
L 184.795972 -270.988791 
L 184.795972 -270.988791 
L 184.91374 -268.778956 
L 185.066278 -266.569121 
L 185.258935 -264.359286 
L 185.496103 -262.14945 
L 185.780518 -259.939615 
L 186.112554 -257.72978 
L 186.489585 -255.519945 
L 186.905555 -253.31011 
L 187.350833 -251.100274 
L 187.812461 -248.890439 
L 188.274818 -246.680604 
L 188.720693 -244.470769 
L 189.13269 -242.260934 
L 189.494801 -240.051098 
L 189.79398 -237.841263 
L 190.021509 -235.631428 
L 190.173957 -233.421593 
L 190.253611 -231.211758 
L 190.268298 -229.001922 
L 190.230636 -226.792087 
L 190.156819 -224.582252 
L 190.065107 -222.372417 
L 189.974252 -220.162582 
L 189.902074 -217.952746 
L 189.864361 -215.742911 
L 189.874233 -213.533076 
L 189.941993 -211.323241 
L 190.075421 -209.113406 
L 190.28038 -206.90357 
L 190.561569 -204.693735 
L 190.923212 -202.4839 
L 191.369513 -200.274065 
L 191.904755 -198.06423 
L 192.532999 -195.854394 
L 193.257429 -193.644559 
L 194.079476 -191.434724 
L 194.997909 -189.224889 
L 196.008116 -187.015053 
L 197.101749 -184.805218 
L 198.26686 -182.595383 
L 199.48856 -180.385548 
L 200.750105 -178.175713 
L 202.034265 -175.965877 
L 203.324724 -173.756042 
L 204.607304 -171.546207 
L 205.870797 -169.336372 
L 207.107308 -167.126537 
L 208.312075 -164.916701 
L 209.482855 -162.706866 
L 210.619014 -160.497031 
L 211.720497 -158.287196 
L 212.786851 -156.077361 
L 213.816414 -153.867525 
L 214.805734 -151.65769 
L 215.749201 -149.447855 
L 216.638832 -147.23802 
L 217.464142 -145.028185 
L 218.212019 -142.818349 
L 218.866612 -140.608514 
L 219.409252 -138.398679 
L 219.818532 -136.188844 
L 220.07069 -133.979009 
L 220.140444 -131.769173 
L 220.002407 -129.559338 
L 219.633098 -127.349503 
L 219.013469 -125.139668 
L 218.131728 -122.929832 
L 216.986104 -120.719997 
L 215.587149 -118.510162 
L 213.959127 -116.300327 
L 212.140145 -114.090492 
L 210.180773 -111.880656 
L 208.141149 -109.670821 
L 206.086745 -107.460986 
L 204.083217 -105.251151 
L 202.190918 -103.041316 
L 200.459734 -100.83148 
L 198.924899 -98.621645 
L 197.604353 -96.41181 
L 196.497973 -94.201975 
L 195.588797 -91.99214 
L 194.846064 -89.782304 
L 194.229646 -87.572469 
L 193.695267 -85.362634 
L 193.199808 -83.152799 
L 192.706016 -80.942964 
L 192.186032 -78.733128 
L 191.623395 -76.523293 
L 191.013392 -74.313458 
L 190.361894 -72.103623 
L 189.683017 -69.893788 
L 188.996088 -67.683952 
L 188.322427 -65.474117 
L 187.682421 -63.264282 
L 187.093223 -61.054447 
L 186.567291 -58.844612 
L 186.111786 -56.634776 
L 185.728733 -54.424941 
L 185.415753 -52.215106 
z
" style="stroke: #4d4d4d; stroke-width: 2"/>
    </defs>
    <g clip-path="url(#p2a0643dfce)">
     <use xlink:href="#m70f9319fdc" x="0" y="360" style="fill: #808080; stroke: #4d4d4d; stroke-width: 2"/>
    </g>
   </g>
   <g id="PolyCollection_3">
    <defs>
     <path id="m7b97394bf1" d="M 277.961242 -52.656277 
L 277.038758 -52.656277 
L 276.847608 -55.197122 
L 276.603738 -57.737968 
L 276.303107 -60.278814 
L 275.944621 -62.819659 
L 275.530296 -65.360505 
L 275.064586 -67.901351 
L 274.552717 -70.442196 
L 273.998105 -72.983042 
L 273.3992 -75.523888 
L 272.746361 -78.064733 
L 272.019554 -80.605579 
L 271.187682 -83.146425 
L 270.210158 -85.687271 
L 269.041015 -88.228116 
L 267.63531 -90.768962 
L 265.957102 -93.309808 
L 263.987803 -95.850653 
L 261.733463 -98.391499 
L 259.229521 -100.932345 
L 256.541802 -103.47319 
L 253.763105 -106.014036 
L 251.005435 -108.554882 
L 248.388725 -111.095727 
L 246.027624 -113.636573 
L 244.018404 -116.177419 
L 242.428136 -118.718265 
L 241.287984 -121.25911 
L 240.591768 -123.799956 
L 240.3 -126.340802 
L 240.348611 -128.881647 
L 240.660753 -131.422493 
L 241.159572 -133.963339 
L 241.779765 -136.504184 
L 242.476074 -139.04503 
L 243.227534 -141.585876 
L 244.037092 -144.126721 
L 244.927053 -146.667567 
L 245.93147 -149.208413 
L 247.087029 -151.749259 
L 248.4241 -154.290104 
L 249.959443 -156.83095 
L 251.691653 -159.371796 
L 253.599828 -161.912641 
L 255.645377 -164.453487 
L 257.776297 -166.994333 
L 259.932951 -169.535178 
L 262.054222 -172.076024 
L 264.08302 -174.61687 
L 265.97042 -177.157715 
L 267.67806 -179.698561 
L 269.17886 -182.239407 
L 270.456367 -184.780253 
L 271.503271 -187.321098 
L 272.319651 -189.861944 
L 272.911413 -192.40279 
L 273.289262 -194.943635 
L 273.468289 -197.484481 
L 273.468103 -200.025327 
L 273.313249 -202.566172 
L 273.033551 -205.107018 
L 272.664012 -207.647864 
L 272.243928 -210.188709 
L 271.81506 -212.729555 
L 271.418855 -215.270401 
L 271.092986 -217.811246 
L 270.867662 -220.352092 
L 270.762321 -222.892938 
L 270.783322 -225.433784 
L 270.92314 -227.974629 
L 271.161357 -230.515475 
L 271.467392 -233.056321 
L 271.804655 -235.597166 
L 272.135502 -238.138012 
L 272.426288 -240.678858 
L 272.651759 -243.219703 
L 272.798177 -245.760549 
L 272.864758 -248.301395 
L 272.863269 -250.84224 
L 272.815902 -253.383086 
L 272.751766 -255.923932 
L 272.702561 -258.464778 
L 272.698061 -261.005623 
L 272.762092 -263.546469 
L 272.909558 -266.087315 
L 273.144925 -268.62816 
L 273.462295 -271.169006 
L 273.846934 -273.709852 
L 274.277895 -276.250697 
L 274.731208 -278.791543 
L 275.183072 -281.332389 
L 275.612551 -283.873234 
L 276.003446 -286.41408 
L 276.345191 -288.954926 
L 276.632848 -291.495772 
L 276.866378 -294.036617 
L 277.04949 -296.577463 
L 277.188317 -299.118309 
L 277.290177 -301.659154 
L 277.362557 -304.2 
L 277.637443 -304.2 
L 277.637443 -304.2 
L 277.709823 -301.659154 
L 277.811683 -299.118309 
L 277.95051 -296.577463 
L 278.133622 -294.036617 
L 278.367152 -291.495772 
L 278.654809 -288.954926 
L 278.996554 -286.41408 
L 279.387449 -283.873234 
L 279.816928 -281.332389 
L 280.268792 -278.791543 
L 280.722105 -276.250697 
L 281.153066 -273.709852 
L 281.537705 -271.169006 
L 281.855075 -268.62816 
L 282.090442 -266.087315 
L 282.237908 -263.546469 
L 282.301939 -261.005623 
L 282.297439 -258.464778 
L 282.248234 -255.923932 
L 282.184098 -253.383086 
L 282.136731 -250.84224 
L 282.135242 -248.301395 
L 282.201823 -245.760549 
L 282.348241 -243.219703 
L 282.573712 -240.678858 
L 282.864498 -238.138012 
L 283.195345 -235.597166 
L 283.532608 -233.056321 
L 283.838643 -230.515475 
L 284.07686 -227.974629 
L 284.216678 -225.433784 
L 284.237679 -222.892938 
L 284.132338 -220.352092 
L 283.907014 -217.811246 
L 283.581145 -215.270401 
L 283.18494 -212.729555 
L 282.756072 -210.188709 
L 282.335988 -207.647864 
L 281.966449 -205.107018 
L 281.686751 -202.566172 
L 281.531897 -200.025327 
L 281.531711 -197.484481 
L 281.710738 -194.943635 
L 282.088587 -192.40279 
L 282.680349 -189.861944 
L 283.496729 -187.321098 
L 284.543633 -184.780253 
L 285.82114 -182.239407 
L 287.32194 -179.698561 
L 289.02958 -177.157715 
L 290.91698 -174.61687 
L 292.945778 -172.076024 
L 295.067049 -169.535178 
L 297.223703 -166.994333 
L 299.354623 -164.453487 
L 301.400172 -161.912641 
L 303.308347 -159.371796 
L 305.040557 -156.83095 
L 306.5759 -154.290104 
L 307.912971 -151.749259 
L 309.06853 -149.208413 
L 310.072947 -146.667567 
L 310.962908 -144.126721 
L 311.772466 -141.585876 
L 312.523926 -139.04503 
L 313.220235 -136.504184 
L 313.840428 -133.963339 
L 314.339247 -131.422493 
L 314.651389 -128.881647 
L 314.7 -126.340802 
L 314.408232 -123.799956 
L 313.712016 -121.25911 
L 312.571864 -118.718265 
L 310.981596 -116.177419 
L 308.972376 -113.636573 
L 306.611275 -111.095727 
L 303.994565 -108.554882 
L 301.236895 -106.014036 
L 298.458198 -103.47319 
L 295.770479 -100.932345 
L 293.266537 -98.391499 
L 291.012197 -95.850653 
L 289.042898 -93.309808 
L 287.36469 -90.768962 
L 285.958985 -88.228116 
L 284.789842 -85.687271 
L 283.812318 -83.146425 
L 282.980446 -80.605579 
L 282.253639 -78.064733 
L 281.6008 -75.523888 
L 281.001895 -72.983042 
L 280.447283 -70.442196 
L 279.935414 -67.901351 
L 279.469704 -65.360505 
L 279.055379 -62.819659 
L 278.696893 -60.278814 
L 278.396262 -57.737968 
L 278.152392 -55.197122 
L 277.961242 -52.656277 
z
" style="stroke: #4d4d4d; stroke-width: 2"/>
    </defs>
    <g clip-path="url(#p2a0643dfce)">
     <use xlink:href="#m7b97394bf1" x="0" y="360" style="fill: #808080; stroke: #4d4d4d; stroke-width: 2"/>
    </g>
   </g>
   <g id="line2d_8">
    <path d="M 91.5 278.717563 
L 91.5 109.274486 
" clip-path="url(#p2a0643dfce)" style="fill: none; stroke: #000000; stroke-width: 2; stroke-linecap: round"/>
   </g>
   <g id="line2d_9">
    <path d="M 91.5 238.916953 
L 91.5 186.267267 
" clip-path="url(#p2a0643dfce)" style="fill: none; stroke: #000000; stroke-width: 6; stroke-linecap: round"/>
   </g>
   <g id="line2d_10">
    <path d="M 184.5 278.717563 
L 184.5 125.95638 
" clip-path="url(#p2a0643dfce)" style="fill: none; stroke: #000000; stroke-width: 2; stroke-linecap: round"/>
   </g>
   <g id="line2d_11">
    <path d="M 184.5 240.560099 
L 184.5 194.070544 
" clip-path="url(#p2a0643dfce)" style="fill: none; stroke: #000000; stroke-width: 6; stroke-linecap: round"/>
   </g>
   <g id="line2d_12">
    <path d="M 277.5 278.717563 
L 277.5 139.642682 
" clip-path="url(#p2a0643dfce)" style="fill: none; stroke: #000000; stroke-width: 2; stroke-linecap: round"/>
   </g>
   <g id="line2d_13">
    <path d="M 277.5 241.131244 
L 277.5 200.38414 
" clip-path="url(#p2a0643dfce)" style="fill: none; stroke: #000000; stroke-width: 6; stroke-linecap: round"/>
   </g>
   <g id="patch_3">
    <path d="M 45 320.4 
L 45 43.2 
" style="fill: none; stroke: #262626; stroke-width: 2; stroke-linejoin: miter; stroke-linecap: square"/>
   </g>
   <g id="patch_4">
    <path d="M 45 320.4 
L 324 320.4 
" style="fill: none; stroke: #262626; stroke-width: 2; stroke-linejoin: miter; stroke-linecap: square"/>
   </g>
   <g id="PathCollection_1">
    <defs>
     <path id="m093fdd2d01" d="M 0 2 
C 0.530406 2 1.03916 1.789267 1.414214 1.414214 
C 1.789267 1.03916 2 0.530406 2 0 
C 2 -0.530406 1.789267 -1.03916 1.414214 -1.414214 
C 1.03916 -1.789267 0.530406 -2 0 -2 
C -0.530406 -2 -1.03916 -1.789267 -1.414214 -1.414214 
C -1.789267 -1.03916 -2 -0.530406 -2 0 
C -2 0.530406 -1.789267 1.03916 -1.414214 1.414214 
C -1.03916 1.789267 -0.530406 2 0 2 
z
" style="stroke: #4d4d4d"/>
    </defs>
    <g clip-path="url(#p2a0643dfce)">
     <use xlink:href="#m093fdd2d01" x="91.5" y="216.929432" style="fill: #ffffff; stroke: #4d4d4d"/>
    </g>
   </g>
   <g id="PathCollection_2">
    <g clip-path="url(#p2a0643dfce)">
     <use xlink:href="#m093fdd2d01" x="184.5" y="220.069078" style="fill: #ffffff; stroke: #4d4d4d"/>
    </g>
   </g>
   <g id="PathCollection_3">
    <g clip-path="url(#p2a0643dfce)">
     <use xlink:href="#m093fdd2d01" x="277.5" y="221.381478" style="fill: #ffffff; stroke: #4d4d4d"/>
    </g>
   </g>
   <g id="text_10">
    <text style="fill: #262626; font: 16.8px 'sans-serif'; text-anchor: middle" x="184.5" y="37.2" transform="rotate(-0, 184.5, 37.2)">AraC_UniRapR</text>
   </g>
  </g>
 </g>
 <defs>
  <clipPath id="p2a0643dfce">
   <rect x="45" y="43.2" width="279" height="277.2"/>
  </clipPath>
 </defs>
</svg>
