<?xml version="1.0" encoding="utf-8" standalone="no"?>
<!DOCTYPE svg PUBLIC "-//W3C//DTD SVG 1.1//EN"
  "http://www.w3.org/Graphics/SVG/1.1/DTD/svg11.dtd">
<svg xmlns:xlink="http://www.w3.org/1999/xlink" width="360pt" height="360pt" viewBox="0 0 360 360" xmlns="http://www.w3.org/2000/svg" version="1.1">
 <metadata>
  <rdf:RDF xmlns:dc="http://purl.org/dc/elements/1.1/" xmlns:cc="http://creativecommons.org/ns#" xmlns:rdf="http://www.w3.org/1999/02/22-rdf-syntax-ns#">
   <cc:Work>
    <dc:type rdf:resource="http://purl.org/dc/dcmitype/StillImage"/>
    <dc:date>2023-12-01T16:47:09.955290</dc:date>
    <dc:format>image/svg+xml</dc:format>
    <dc:creator>
     <cc:Agent>
      <dc:title>Matplotlib v3.5.3, https://matplotlib.org/</dc:title>
     </cc:Agent>
    </dc:creator>
   </cc:Work>
  </rdf:RDF>
 </metadata>
 <defs>
  <style type="text/css">*{stroke-linejoin: round; stroke-linecap: butt}</style>
 </defs>
 <g id="figure_1">
  <g id="patch_1">
   <path d="M 0 360 
L 360 360 
L 360 0 
L 0 0 
z
" style="fill: #ffffff"/>
  </g>
  <g id="axes_1">
   <g id="patch_2">
    <path d="M 45 320.4 
L 324 320.4 
L 324 43.2 
L 45 43.2 
z
" style="fill: #ffffff"/>
   </g>
   <g id="matplotlib.axis_1">
    <g id="xtick_1">
     <g id="line2d_1">
      <defs>
       <path id="m379a1b8967" d="M 0 0 
L 0 3.5 
" style="stroke: #262626; stroke-width: 2"/>
      </defs>
      <g>
       <use xlink:href="#m379a1b8967" x="74.100709" y="320.4" style="fill: #262626; stroke: #262626; stroke-width: 2"/>
      </g>
     </g>
     <g id="text_1">
      <text style="fill: #262626; font: 14px 'sans-serif'; text-anchor: middle" x="74.100709" y="338.037813" transform="rotate(-0, 74.100709, 338.037813)">−10</text>
     </g>
    </g>
    <g id="xtick_2">
     <g id="line2d_2">
      <g>
       <use xlink:href="#m379a1b8967" x="156.572375" y="320.4" style="fill: #262626; stroke: #262626; stroke-width: 2"/>
      </g>
     </g>
     <g id="text_2">
      <text style="fill: #262626; font: 14px 'sans-serif'; text-anchor: middle" x="156.572375" y="338.037813" transform="rotate(-0, 156.572375, 338.037813)">−5</text>
     </g>
    </g>
    <g id="xtick_3">
     <g id="line2d_3">
      <g>
       <use xlink:href="#m379a1b8967" x="239.04404" y="320.4" style="fill: #262626; stroke: #262626; stroke-width: 2"/>
      </g>
     </g>
     <g id="text_3">
      <text style="fill: #262626; font: 14px 'sans-serif'; text-anchor: middle" x="239.04404" y="338.037813" transform="rotate(-0, 239.04404, 338.037813)">0</text>
     </g>
    </g>
    <g id="xtick_4">
     <g id="line2d_4">
      <g>
       <use xlink:href="#m379a1b8967" x="321.515705" y="320.4" style="fill: #262626; stroke: #262626; stroke-width: 2"/>
      </g>
     </g>
     <g id="text_4">
      <text style="fill: #262626; font: 14px 'sans-serif'; text-anchor: middle" x="321.515705" y="338.037813" transform="rotate(-0, 321.515705, 338.037813)">5</text>
     </g>
    </g>
    <g id="text_5">
     <text style="fill: #262626; font: 14px 'sans-serif'; text-anchor: middle" x="184.5" y="355.587188" transform="rotate(-0, 184.5, 355.587188)">Rep-2 log2 enriched read counts</text>
    </g>
   </g>
   <g id="matplotlib.axis_2">
    <g id="ytick_1">
     <g id="line2d_5">
      <defs>
       <path id="m7f00b25862" d="M 0 0 
L -3.5 0 
" style="stroke: #262626; stroke-width: 2"/>
      </defs>
      <g>
       <use xlink:href="#m7f00b25862" x="45" y="291.487037" style="fill: #262626; stroke: #262626; stroke-width: 2"/>
      </g>
     </g>
     <g id="text_6">
      <text style="fill: #262626; font: 14px 'sans-serif'; text-anchor: end" x="38" y="296.805943" transform="rotate(-0, 38, 296.805943)">−10</text>
     </g>
    </g>
    <g id="ytick_2">
     <g id="line2d_6">
      <g>
       <use xlink:href="#m7f00b25862" x="45" y="258.711201" style="fill: #262626; stroke: #262626; stroke-width: 2"/>
      </g>
     </g>
     <g id="text_7">
      <text style="fill: #262626; font: 14px 'sans-serif'; text-anchor: end" x="38" y="264.030107" transform="rotate(-0, 38, 264.030107)">−8</text>
     </g>
    </g>
    <g id="ytick_3">
     <g id="line2d_7">
      <g>
       <use xlink:href="#m7f00b25862" x="45" y="225.935365" style="fill: #262626; stroke: #262626; stroke-width: 2"/>
      </g>
     </g>
     <g id="text_8">
      <text style="fill: #262626; font: 14px 'sans-serif'; text-anchor: end" x="38" y="231.254271" transform="rotate(-0, 38, 231.254271)">−6</text>
     </g>
    </g>
    <g id="ytick_4">
     <g id="line2d_8">
      <g>
       <use xlink:href="#m7f00b25862" x="45" y="193.159529" style="fill: #262626; stroke: #262626; stroke-width: 2"/>
      </g>
     </g>
     <g id="text_9">
      <text style="fill: #262626; font: 14px 'sans-serif'; text-anchor: end" x="38" y="198.478435" transform="rotate(-0, 38, 198.478435)">−4</text>
     </g>
    </g>
    <g id="ytick_5">
     <g id="line2d_9">
      <g>
       <use xlink:href="#m7f00b25862" x="45" y="160.383693" style="fill: #262626; stroke: #262626; stroke-width: 2"/>
      </g>
     </g>
     <g id="text_10">
      <text style="fill: #262626; font: 14px 'sans-serif'; text-anchor: end" x="38" y="165.702599" transform="rotate(-0, 38, 165.702599)">−2</text>
     </g>
    </g>
    <g id="ytick_6">
     <g id="line2d_10">
      <g>
       <use xlink:href="#m7f00b25862" x="45" y="127.607857" style="fill: #262626; stroke: #262626; stroke-width: 2"/>
      </g>
     </g>
     <g id="text_11">
      <text style="fill: #262626; font: 14px 'sans-serif'; text-anchor: end" x="38" y="132.926763" transform="rotate(-0, 38, 132.926763)">0</text>
     </g>
    </g>
    <g id="ytick_7">
     <g id="line2d_11">
      <g>
       <use xlink:href="#m7f00b25862" x="45" y="94.832021" style="fill: #262626; stroke: #262626; stroke-width: 2"/>
      </g>
     </g>
     <g id="text_12">
      <text style="fill: #262626; font: 14px 'sans-serif'; text-anchor: end" x="38" y="100.150928" transform="rotate(-0, 38, 100.150928)">2</text>
     </g>
    </g>
    <g id="ytick_8">
     <g id="line2d_12">
      <g>
       <use xlink:href="#m7f00b25862" x="45" y="62.056185" style="fill: #262626; stroke: #262626; stroke-width: 2"/>
      </g>
     </g>
     <g id="text_13">
      <text style="fill: #262626; font: 14px 'sans-serif'; text-anchor: end" x="38" y="67.375092" transform="rotate(-0, 38, 67.375092)">4</text>
     </g>
    </g>
    <g id="text_14">
     <text style="fill: #262626; font: 14px 'sans-serif'; text-anchor: middle" x="1.541875" y="181.8" transform="rotate(-90, 1.541875, 181.8)">Rep-1 log2 enriched read counts</text>
    </g>
   </g>
   <g id="PathCollection_1">
    <defs>
     <path id="m08a4ef03dd" d="M 0 3 
C 0.795609 3 1.55874 2.683901 2.12132 2.12132 
C 2.683901 1.55874 3 0.795609 3 0 
C 3 -0.795609 2.683901 -1.55874 2.12132 -2.12132 
C 1.55874 -2.683901 0.795609 -3 0 -3 
C -0.795609 -3 -1.55874 -2.683901 -2.12132 -2.12132 
C -2.683901 -1.55874 -3 -0.795609 -3 0 
C -3 0.795609 -2.683901 1.55874 -2.12132 2.12132 
C -1.55874 2.683901 -0.795609 3 0 3 
z
"/>
    </defs>
    <g clip-path="url(#p639e1aa71e)">
     <use xlink:href="#m08a4ef03dd" x="207.600304" y="168.089931" style="fill: #808080; fill-opacity: 0.4"/>
     <use xlink:href="#m08a4ef03dd" x="224.094637" y="148.057465" style="fill: #808080; fill-opacity: 0.4"/>
     <use xlink:href="#m08a4ef03dd" x="209.136081" y="163.489246" style="fill: #808080; fill-opacity: 0.4"/>
     <use xlink:href="#m08a4ef03dd" x="201.12929" y="226.467668" style="fill: #808080; fill-opacity: 0.4"/>
     <use xlink:href="#m08a4ef03dd" x="197.951737" y="177.676249" style="fill: #808080; fill-opacity: 0.4"/>
     <use xlink:href="#m08a4ef03dd" x="226.165185" y="170.874648" style="fill: #808080; fill-opacity: 0.4"/>
     <use xlink:href="#m08a4ef03dd" x="212.541351" y="200.798505" style="fill: #808080; fill-opacity: 0.4"/>
     <use xlink:href="#m08a4ef03dd" x="233.515486" y="144.016468" style="fill: #808080; fill-opacity: 0.4"/>
     <use xlink:href="#m08a4ef03dd" x="242.352465" y="167.491348" style="fill: #808080; fill-opacity: 0.4"/>
     <use xlink:href="#m08a4ef03dd" x="217.749863" y="212.739041" style="fill: #808080; fill-opacity: 0.4"/>
     <use xlink:href="#m08a4ef03dd" x="216.95326" y="186.402734" style="fill: #808080; fill-opacity: 0.4"/>
     <use xlink:href="#m08a4ef03dd" x="193.176519" y="213.022839" style="fill: #808080; fill-opacity: 0.4"/>
     <use xlink:href="#m08a4ef03dd" x="196.980325" y="205.967012" style="fill: #808080; fill-opacity: 0.4"/>
     <use xlink:href="#m08a4ef03dd" x="202.03671" y="202.27127" style="fill: #808080; fill-opacity: 0.4"/>
     <use xlink:href="#m08a4ef03dd" x="158.492057" y="212.680476" style="fill: #808080; fill-opacity: 0.4"/>
     <use xlink:href="#m08a4ef03dd" x="182.701199" y="187.147516" style="fill: #808080; fill-opacity: 0.4"/>
     <use xlink:href="#m08a4ef03dd" x="213.886132" y="209.202742" style="fill: #808080; fill-opacity: 0.4"/>
     <use xlink:href="#m08a4ef03dd" x="178.217963" y="260.343366" style="fill: #808080; fill-opacity: 0.4"/>
     <use xlink:href="#m08a4ef03dd" x="182.618429" y="214.762671" style="fill: #808080; fill-opacity: 0.4"/>
     <use xlink:href="#m08a4ef03dd" x="191.816361" y="188.175528" style="fill: #808080; fill-opacity: 0.4"/>
     <use xlink:href="#m08a4ef03dd" x="179.81563" y="196.458085" style="fill: #808080; fill-opacity: 0.4"/>
     <use xlink:href="#m08a4ef03dd" x="194.953885" y="207.980379" style="fill: #808080; fill-opacity: 0.4"/>
     <use xlink:href="#m08a4ef03dd" x="200.203247" y="202.079538" style="fill: #808080; fill-opacity: 0.4"/>
     <use xlink:href="#m08a4ef03dd" x="163.754878" y="213.003866" style="fill: #808080; fill-opacity: 0.4"/>
     <use xlink:href="#m08a4ef03dd" x="214.32619" y="193.632503" style="fill: #808080; fill-opacity: 0.4"/>
     <use xlink:href="#m08a4ef03dd" x="206.392111" y="205.348643" style="fill: #808080; fill-opacity: 0.4"/>
     <use xlink:href="#m08a4ef03dd" x="193.530677" y="235.229972" style="fill: #808080; fill-opacity: 0.4"/>
     <use xlink:href="#m08a4ef03dd" x="183.137841" y="187.262566" style="fill: #808080; fill-opacity: 0.4"/>
     <use xlink:href="#m08a4ef03dd" x="187.86653" y="192.18276" style="fill: #808080; fill-opacity: 0.4"/>
     <use xlink:href="#m08a4ef03dd" x="193.766192" y="217.395344" style="fill: #808080; fill-opacity: 0.4"/>
     <use xlink:href="#m08a4ef03dd" x="140.532874" y="201.301044" style="fill: #808080; fill-opacity: 0.4"/>
     <use xlink:href="#m08a4ef03dd" x="178.654605" y="219.556863" style="fill: #808080; fill-opacity: 0.4"/>
     <use xlink:href="#m08a4ef03dd" x="216.720297" y="187.466678" style="fill: #808080; fill-opacity: 0.4"/>
     <use xlink:href="#m08a4ef03dd" x="203.006046" y="200.765713" style="fill: #808080; fill-opacity: 0.4"/>
     <use xlink:href="#m08a4ef03dd" x="203.456513" y="195.896697" style="fill: #808080; fill-opacity: 0.4"/>
     <use xlink:href="#m08a4ef03dd" x="202.378613" y="198.675488" style="fill: #808080; fill-opacity: 0.4"/>
     <use xlink:href="#m08a4ef03dd" x="178.266085" y="199.371826" style="fill: #808080; fill-opacity: 0.4"/>
     <use xlink:href="#m08a4ef03dd" x="207.668003" y="192.270388" style="fill: #808080; fill-opacity: 0.4"/>
     <use xlink:href="#m08a4ef03dd" x="155.535868" y="218.958636" style="fill: #808080; fill-opacity: 0.4"/>
     <use xlink:href="#m08a4ef03dd" x="175.148823" y="191.379623" style="fill: #808080; fill-opacity: 0.4"/>
     <use xlink:href="#m08a4ef03dd" x="190.737029" y="246.3792" style="fill: #808080; fill-opacity: 0.4"/>
     <use xlink:href="#m08a4ef03dd" x="182.29835" y="221.987599" style="fill: #808080; fill-opacity: 0.4"/>
     <use xlink:href="#m08a4ef03dd" x="174.718109" y="221.684735" style="fill: #808080; fill-opacity: 0.4"/>
     <use xlink:href="#m08a4ef03dd" x="183.197443" y="186.938688" style="fill: #808080; fill-opacity: 0.4"/>
     <use xlink:href="#m08a4ef03dd" x="222.578437" y="190.047283" style="fill: #808080; fill-opacity: 0.4"/>
     <use xlink:href="#m08a4ef03dd" x="186.09531" y="204.565802" style="fill: #808080; fill-opacity: 0.4"/>
     <use xlink:href="#m08a4ef03dd" x="181.175788" y="179.109583" style="fill: #808080; fill-opacity: 0.4"/>
     <use xlink:href="#m08a4ef03dd" x="151.252954" y="238.935798" style="fill: #808080; fill-opacity: 0.4"/>
     <use xlink:href="#m08a4ef03dd" x="168.908312" y="222.060383" style="fill: #808080; fill-opacity: 0.4"/>
     <use xlink:href="#m08a4ef03dd" x="188.004594" y="194.1232" style="fill: #808080; fill-opacity: 0.4"/>
     <use xlink:href="#m08a4ef03dd" x="193.654509" y="196.746312" style="fill: #808080; fill-opacity: 0.4"/>
     <use xlink:href="#m08a4ef03dd" x="186.947093" y="215.476416" style="fill: #808080; fill-opacity: 0.4"/>
     <use xlink:href="#m08a4ef03dd" x="182.677995" y="195.439962" style="fill: #808080; fill-opacity: 0.4"/>
     <use xlink:href="#m08a4ef03dd" x="145.373956" y="205.447001" style="fill: #808080; fill-opacity: 0.4"/>
     <use xlink:href="#m08a4ef03dd" x="180.934388" y="237.477283" style="fill: #808080; fill-opacity: 0.4"/>
     <use xlink:href="#m08a4ef03dd" x="201.094976" y="204.412103" style="fill: #808080; fill-opacity: 0.4"/>
     <use xlink:href="#m08a4ef03dd" x="192.641748" y="199.91799" style="fill: #808080; fill-opacity: 0.4"/>
     <use xlink:href="#m08a4ef03dd" x="181.391395" y="226.045754" style="fill: #808080; fill-opacity: 0.4"/>
     <use xlink:href="#m08a4ef03dd" x="172.394365" y="218.178354" style="fill: #808080; fill-opacity: 0.4"/>
     <use xlink:href="#m08a4ef03dd" x="191.28159" y="240.84222" style="fill: #808080; fill-opacity: 0.4"/>
     <use xlink:href="#m08a4ef03dd" x="185.291448" y="212.106898" style="fill: #808080; fill-opacity: 0.4"/>
     <use xlink:href="#m08a4ef03dd" x="197.299743" y="206.117844" style="fill: #808080; fill-opacity: 0.4"/>
     <use xlink:href="#m08a4ef03dd" x="197.192794" y="205.070569" style="fill: #808080; fill-opacity: 0.4"/>
     <use xlink:href="#m08a4ef03dd" x="178.508166" y="215.201868" style="fill: #808080; fill-opacity: 0.4"/>
     <use xlink:href="#m08a4ef03dd" x="220.119369" y="207.600105" style="fill: #808080; fill-opacity: 0.4"/>
     <use xlink:href="#m08a4ef03dd" x="194.041934" y="241.464434" style="fill: #808080; fill-opacity: 0.4"/>
     <use xlink:href="#m08a4ef03dd" x="196.551552" y="195.217701" style="fill: #808080; fill-opacity: 0.4"/>
     <use xlink:href="#m08a4ef03dd" x="208.202774" y="221.930833" style="fill: #808080; fill-opacity: 0.4"/>
     <use xlink:href="#m08a4ef03dd" x="176.954146" y="237.255976" style="fill: #808080; fill-opacity: 0.4"/>
     <use xlink:href="#m08a4ef03dd" x="197.171461" y="176.925622" style="fill: #808080; fill-opacity: 0.4"/>
     <use xlink:href="#m08a4ef03dd" x="202.771064" y="205.144208" style="fill: #808080; fill-opacity: 0.4"/>
     <use xlink:href="#m08a4ef03dd" x="190.684786" y="215.866484" style="fill: #808080; fill-opacity: 0.4"/>
     <use xlink:href="#m08a4ef03dd" x="188.083849" y="197.732828" style="fill: #808080; fill-opacity: 0.4"/>
     <use xlink:href="#m08a4ef03dd" x="145.887301" y="224.660375" style="fill: #808080; fill-opacity: 0.4"/>
     <use xlink:href="#m08a4ef03dd" x="215.379378" y="221.003547" style="fill: #808080; fill-opacity: 0.4"/>
     <use xlink:href="#m08a4ef03dd" x="197.349267" y="221.251118" style="fill: #808080; fill-opacity: 0.4"/>
     <use xlink:href="#m08a4ef03dd" x="196.251279" y="213.647991" style="fill: #808080; fill-opacity: 0.4"/>
     <use xlink:href="#m08a4ef03dd" x="175.367139" y="202.899857" style="fill: #808080; fill-opacity: 0.4"/>
     <use xlink:href="#m08a4ef03dd" x="169.904118" y="213.236802" style="fill: #808080; fill-opacity: 0.4"/>
     <use xlink:href="#m08a4ef03dd" x="214.80938" y="194.430729" style="fill: #808080; fill-opacity: 0.4"/>
     <use xlink:href="#m08a4ef03dd" x="171.156844" y="207.082989" style="fill: #808080; fill-opacity: 0.4"/>
     <use xlink:href="#m08a4ef03dd" x="202.290315" y="251.288369" style="fill: #808080; fill-opacity: 0.4"/>
     <use xlink:href="#m08a4ef03dd" x="150.270399" y="251.024201" style="fill: #808080; fill-opacity: 0.4"/>
     <use xlink:href="#m08a4ef03dd" x="211.245995" y="221.160643" style="fill: #808080; fill-opacity: 0.4"/>
     <use xlink:href="#m08a4ef03dd" x="158.303943" y="205.792446" style="fill: #808080; fill-opacity: 0.4"/>
     <use xlink:href="#m08a4ef03dd" x="186.311445" y="208.414078" style="fill: #808080; fill-opacity: 0.4"/>
     <use xlink:href="#m08a4ef03dd" x="146.110742" y="213.236802" style="fill: #808080; fill-opacity: 0.4"/>
     <use xlink:href="#m08a4ef03dd" x="164.265183" y="202.451439" style="fill: #808080; fill-opacity: 0.4"/>
     <use xlink:href="#m08a4ef03dd" x="195.786946" y="215.957359" style="fill: #808080; fill-opacity: 0.4"/>
     <use xlink:href="#m08a4ef03dd" x="165.718573" y="304.012082" style="fill: #808080; fill-opacity: 0.4"/>
     <use xlink:href="#m08a4ef03dd" x="155.900032" y="218.178354" style="fill: #808080; fill-opacity: 0.4"/>
     <use xlink:href="#m08a4ef03dd" x="162.982204" y="222.00649" style="fill: #808080; fill-opacity: 0.4"/>
     <use xlink:href="#m08a4ef03dd" x="125.78838" y="217.949583" style="fill: #808080; fill-opacity: 0.4"/>
     <use xlink:href="#m08a4ef03dd" x="156.5583" y="212.667069" style="fill: #808080; fill-opacity: 0.4"/>
     <use xlink:href="#m08a4ef03dd" x="170.522239" y="218.241885" style="fill: #808080; fill-opacity: 0.4"/>
     <use xlink:href="#m08a4ef03dd" x="179.719677" y="227.401615" style="fill: #808080; fill-opacity: 0.4"/>
     <use xlink:href="#m08a4ef03dd" x="131.483743" y="224.836485" style="fill: #808080; fill-opacity: 0.4"/>
     <use xlink:href="#m08a4ef03dd" x="189.25515" y="233.269268" style="fill: #808080; fill-opacity: 0.4"/>
     <use xlink:href="#m08a4ef03dd" x="171.049894" y="200.021086" style="fill: #808080; fill-opacity: 0.4"/>
     <use xlink:href="#m08a4ef03dd" x="162.160272" y="229.62472" style="fill: #808080; fill-opacity: 0.4"/>
     <use xlink:href="#m08a4ef03dd" x="174.334396" y="239.858825" style="fill: #808080; fill-opacity: 0.4"/>
     <use xlink:href="#m08a4ef03dd" x="145.776363" y="204.433059" style="fill: #808080; fill-opacity: 0.4"/>
     <use xlink:href="#m08a4ef03dd" x="172.821599" y="224.307906" style="fill: #808080; fill-opacity: 0.4"/>
     <use xlink:href="#m08a4ef03dd" x="130.184367" y="210.338143" style="fill: #808080; fill-opacity: 0.4"/>
     <use xlink:href="#m08a4ef03dd" x="200.79832" y="226.796502" style="fill: #808080; fill-opacity: 0.4"/>
     <use xlink:href="#m08a4ef03dd" x="168.714056" y="201.980889" style="fill: #808080; fill-opacity: 0.4"/>
     <use xlink:href="#m08a4ef03dd" x="188.040226" y="246.805207" style="fill: #808080; fill-opacity: 0.4"/>
     <use xlink:href="#m08a4ef03dd" x="124.396387" y="256.698817" style="fill: #808080; fill-opacity: 0.4"/>
     <use xlink:href="#m08a4ef03dd" x="195.060966" y="200.62466" style="fill: #808080; fill-opacity: 0.4"/>
     <use xlink:href="#m08a4ef03dd" x="179.249543" y="257.792572" style="fill: #808080; fill-opacity: 0.4"/>
     <use xlink:href="#m08a4ef03dd" x="132.223583" y="232.534201" style="fill: #808080; fill-opacity: 0.4"/>
     <use xlink:href="#m08a4ef03dd" x="161.013241" y="235.606258" style="fill: #808080; fill-opacity: 0.4"/>
     <use xlink:href="#m08a4ef03dd" x="158.872806" y="202.533295" style="fill: #808080; fill-opacity: 0.4"/>
     <use xlink:href="#m08a4ef03dd" x="170.522239" y="273.265172" style="fill: #808080; fill-opacity: 0.4"/>
     <use xlink:href="#m08a4ef03dd" x="171.677002" y="180.201152" style="fill: #808080; fill-opacity: 0.4"/>
     <use xlink:href="#m08a4ef03dd" x="181.129174" y="252.280519" style="fill: #808080; fill-opacity: 0.4"/>
     <use xlink:href="#m08a4ef03dd" x="179.667366" y="202.644257" style="fill: #808080; fill-opacity: 0.4"/>
     <use xlink:href="#m08a4ef03dd" x="185.795982" y="189.75358" style="fill: #808080; fill-opacity: 0.4"/>
     <use xlink:href="#m08a4ef03dd" x="187.437756" y="201.24406" style="fill: #808080; fill-opacity: 0.4"/>
     <use xlink:href="#m08a4ef03dd" x="202.290315" y="229.62472" style="fill: #808080; fill-opacity: 0.4"/>
     <use xlink:href="#m08a4ef03dd" x="183.924567" y="206.835936" style="fill: #808080; fill-opacity: 0.4"/>
     <use xlink:href="#m08a4ef03dd" x="163.872974" y="211.535149" style="fill: #808080; fill-opacity: 0.4"/>
     <use xlink:href="#m08a4ef03dd" x="143.659742" y="191.075392" style="fill: #808080; fill-opacity: 0.4"/>
     <use xlink:href="#m08a4ef03dd" x="128.094667" y="203.442177" style="fill: #808080; fill-opacity: 0.4"/>
     <use xlink:href="#m08a4ef03dd" x="202.771064" y="197.336381" style="fill: #808080; fill-opacity: 0.4"/>
     <use xlink:href="#m08a4ef03dd" x="178.131588" y="220.383558" style="fill: #808080; fill-opacity: 0.4"/>
     <use xlink:href="#m08a4ef03dd" x="182.212906" y="201.007426" style="fill: #808080; fill-opacity: 0.4"/>
     <use xlink:href="#m08a4ef03dd" x="161.61571" y="210.703034" style="fill: #808080; fill-opacity: 0.4"/>
     <use xlink:href="#m08a4ef03dd" x="142.571157" y="225.897935" style="fill: #808080; fill-opacity: 0.4"/>
     <use xlink:href="#m08a4ef03dd" x="176.592219" y="208.926215" style="fill: #808080; fill-opacity: 0.4"/>
     <use xlink:href="#m08a4ef03dd" x="195.325863" y="230.707784" style="fill: #808080; fill-opacity: 0.4"/>
     <use xlink:href="#m08a4ef03dd" x="166.604846" y="231.835935" style="fill: #808080; fill-opacity: 0.4"/>
     <use xlink:href="#m08a4ef03dd" x="207.289237" y="217.981212" style="fill: #808080; fill-opacity: 0.4"/>
     <use xlink:href="#m08a4ef03dd" x="160.053029" y="223.638468" style="fill: #808080; fill-opacity: 0.4"/>
     <use xlink:href="#m08a4ef03dd" x="170.731899" y="210.662244" style="fill: #808080; fill-opacity: 0.4"/>
     <use xlink:href="#m08a4ef03dd" x="182.212906" y="192.035241" style="fill: #808080; fill-opacity: 0.4"/>
     <use xlink:href="#m08a4ef03dd" x="199.753398" y="198.641906" style="fill: #808080; fill-opacity: 0.4"/>
     <use xlink:href="#m08a4ef03dd" x="185.677297" y="215.070493" style="fill: #808080; fill-opacity: 0.4"/>
     <use xlink:href="#m08a4ef03dd" x="203.000704" y="216.455343" style="fill: #808080; fill-opacity: 0.4"/>
     <use xlink:href="#m08a4ef03dd" x="194.142298" y="179.56868" style="fill: #808080; fill-opacity: 0.4"/>
     <use xlink:href="#m08a4ef03dd" x="193.766192" y="186.266934" style="fill: #808080; fill-opacity: 0.4"/>
     <use xlink:href="#m08a4ef03dd" x="165.295892" y="179.642795" style="fill: #808080; fill-opacity: 0.4"/>
     <use xlink:href="#m08a4ef03dd" x="196.790712" y="217.547388" style="fill: #808080; fill-opacity: 0.4"/>
     <use xlink:href="#m08a4ef03dd" x="154.343093" y="199.871218" style="fill: #808080; fill-opacity: 0.4"/>
     <use xlink:href="#m08a4ef03dd" x="163.211383" y="211.33264" style="fill: #808080; fill-opacity: 0.4"/>
     <use xlink:href="#m08a4ef03dd" x="200.14988" y="194.664923" style="fill: #808080; fill-opacity: 0.4"/>
     <use xlink:href="#m08a4ef03dd" x="147.026097" y="188.943471" style="fill: #808080; fill-opacity: 0.4"/>
     <use xlink:href="#m08a4ef03dd" x="178.217963" y="223.256944" style="fill: #808080; fill-opacity: 0.4"/>
     <use xlink:href="#m08a4ef03dd" x="207.600304" y="200.005935" style="fill: #808080; fill-opacity: 0.4"/>
     <use xlink:href="#m08a4ef03dd" x="192.444268" y="170.874648" style="fill: #808080; fill-opacity: 0.4"/>
     <use xlink:href="#m08a4ef03dd" x="183.527953" y="210.026077" style="fill: #808080; fill-opacity: 0.4"/>
     <use xlink:href="#m08a4ef03dd" x="182.767623" y="218.736637" style="fill: #808080; fill-opacity: 0.4"/>
     <use xlink:href="#m08a4ef03dd" x="189.315932" y="216.541161" style="fill: #808080; fill-opacity: 0.4"/>
     <use xlink:href="#m08a4ef03dd" x="164.472409" y="169.469714" style="fill: #808080; fill-opacity: 0.4"/>
     <use xlink:href="#m08a4ef03dd" x="214.890874" y="156.584509" style="fill: #808080; fill-opacity: 0.4"/>
     <use xlink:href="#m08a4ef03dd" x="198.52517" y="196.279151" style="fill: #808080; fill-opacity: 0.4"/>
     <use xlink:href="#m08a4ef03dd" x="174.365042" y="160.726337" style="fill: #808080; fill-opacity: 0.4"/>
     <use xlink:href="#m08a4ef03dd" x="213.611027" y="182.592387" style="fill: #808080; fill-opacity: 0.4"/>
     <use xlink:href="#m08a4ef03dd" x="172.859949" y="191.78767" style="fill: #808080; fill-opacity: 0.4"/>
     <use xlink:href="#m08a4ef03dd" x="167.111006" y="177.804952" style="fill: #808080; fill-opacity: 0.4"/>
     <use xlink:href="#m08a4ef03dd" x="181.386687" y="208.031331" style="fill: #808080; fill-opacity: 0.4"/>
     <use xlink:href="#m08a4ef03dd" x="165.975832" y="246.758528" style="fill: #808080; fill-opacity: 0.4"/>
     <use xlink:href="#m08a4ef03dd" x="163.637365" y="197.082972" style="fill: #808080; fill-opacity: 0.4"/>
     <use xlink:href="#m08a4ef03dd" x="178.178663" y="233.98217" style="fill: #808080; fill-opacity: 0.4"/>
     <use xlink:href="#m08a4ef03dd" x="177.487585" y="198.77111" style="fill: #808080; fill-opacity: 0.4"/>
     <use xlink:href="#m08a4ef03dd" x="207.600304" y="290.865805" style="fill: #808080; fill-opacity: 0.4"/>
     <use xlink:href="#m08a4ef03dd" x="162.160272" y="227.935232" style="fill: #808080; fill-opacity: 0.4"/>
     <use xlink:href="#m08a4ef03dd" x="161.294857" y="272.846705" style="fill: #808080; fill-opacity: 0.4"/>
     <use xlink:href="#m08a4ef03dd" x="183.332097" y="184.520954" style="fill: #808080; fill-opacity: 0.4"/>
     <use xlink:href="#m08a4ef03dd" x="161.72363" y="219.612395" style="fill: #808080; fill-opacity: 0.4"/>
     <use xlink:href="#m08a4ef03dd" x="175.282" y="211.605619" style="fill: #808080; fill-opacity: 0.4"/>
     <use xlink:href="#m08a4ef03dd" x="178.654605" y="178.771478" style="fill: #808080; fill-opacity: 0.4"/>
     <use xlink:href="#m08a4ef03dd" x="158.567721" y="224.139096" style="fill: #808080; fill-opacity: 0.4"/>
     <use xlink:href="#m08a4ef03dd" x="189.093818" y="216.485315" style="fill: #808080; fill-opacity: 0.4"/>
     <use xlink:href="#m08a4ef03dd" x="171.264277" y="178.217297" style="fill: #808080; fill-opacity: 0.4"/>
     <use xlink:href="#m08a4ef03dd" x="143.829112" y="193.573913" style="fill: #808080; fill-opacity: 0.4"/>
     <use xlink:href="#m08a4ef03dd" x="176.034368" y="204.916336" style="fill: #808080; fill-opacity: 0.4"/>
     <use xlink:href="#m08a4ef03dd" x="219.104066" y="169.731259" style="fill: #808080; fill-opacity: 0.4"/>
     <use xlink:href="#m08a4ef03dd" x="168.521372" y="205.227253" style="fill: #808080; fill-opacity: 0.4"/>
     <use xlink:href="#m08a4ef03dd" x="141.685022" y="243.166271" style="fill: #808080; fill-opacity: 0.4"/>
     <use xlink:href="#m08a4ef03dd" x="144.483939" y="213.132877" style="fill: #808080; fill-opacity: 0.4"/>
     <use xlink:href="#m08a4ef03dd" x="118.5164" y="186.437735" style="fill: #808080; fill-opacity: 0.4"/>
     <use xlink:href="#m08a4ef03dd" x="160.596968" y="227.911681" style="fill: #808080; fill-opacity: 0.4"/>
     <use xlink:href="#m08a4ef03dd" x="188.837942" y="177.676249" style="fill: #808080; fill-opacity: 0.4"/>
     <use xlink:href="#m08a4ef03dd" x="186.25806" y="177.956048" style="fill: #808080; fill-opacity: 0.4"/>
     <use xlink:href="#m08a4ef03dd" x="179.412293" y="180.478357" style="fill: #808080; fill-opacity: 0.4"/>
     <use xlink:href="#m08a4ef03dd" x="115.253929" y="189.056944" style="fill: #808080; fill-opacity: 0.4"/>
     <use xlink:href="#m08a4ef03dd" x="190.270927" y="137.003583" style="fill: #808080; fill-opacity: 0.4"/>
     <use xlink:href="#m08a4ef03dd" x="246.009383" y="105.64823" style="fill: #808080; fill-opacity: 0.4"/>
     <use xlink:href="#m08a4ef03dd" x="160.528292" y="184.867134" style="fill: #808080; fill-opacity: 0.4"/>
     <use xlink:href="#m08a4ef03dd" x="281.456518" y="95.407262" style="fill: #808080; fill-opacity: 0.4"/>
     <use xlink:href="#m08a4ef03dd" x="298.988284" y="59.587918" style="fill: #808080; fill-opacity: 0.4"/>
     <use xlink:href="#m08a4ef03dd" x="288.066102" y="75.623431" style="fill: #808080; fill-opacity: 0.4"/>
     <use xlink:href="#m08a4ef03dd" x="296.145264" y="70.7838" style="fill: #808080; fill-opacity: 0.4"/>
     <use xlink:href="#m08a4ef03dd" x="289.212371" y="68.961186" style="fill: #808080; fill-opacity: 0.4"/>
     <use xlink:href="#m08a4ef03dd" x="279.173668" y="79.159351" style="fill: #808080; fill-opacity: 0.4"/>
     <use xlink:href="#m08a4ef03dd" x="284.772306" y="82.788943" style="fill: #808080; fill-opacity: 0.4"/>
     <use xlink:href="#m08a4ef03dd" x="280.096214" y="80.024714" style="fill: #808080; fill-opacity: 0.4"/>
     <use xlink:href="#m08a4ef03dd" x="293.042054" y="75.392956" style="fill: #808080; fill-opacity: 0.4"/>
     <use xlink:href="#m08a4ef03dd" x="288.536191" y="80.745199" style="fill: #808080; fill-opacity: 0.4"/>
     <use xlink:href="#m08a4ef03dd" x="282.422109" y="81.463016" style="fill: #808080; fill-opacity: 0.4"/>
     <use xlink:href="#m08a4ef03dd" x="279.740896" y="82.352159" style="fill: #808080; fill-opacity: 0.4"/>
     <use xlink:href="#m08a4ef03dd" x="288.322422" y="88.161705" style="fill: #808080; fill-opacity: 0.4"/>
     <use xlink:href="#m08a4ef03dd" x="290.913228" y="85.158941" style="fill: #808080; fill-opacity: 0.4"/>
     <use xlink:href="#m08a4ef03dd" x="287.76226" y="80.628955" style="fill: #808080; fill-opacity: 0.4"/>
     <use xlink:href="#m08a4ef03dd" x="288.341374" y="80.301413" style="fill: #808080; fill-opacity: 0.4"/>
     <use xlink:href="#m08a4ef03dd" x="298.034427" y="70.169147" style="fill: #808080; fill-opacity: 0.4"/>
     <use xlink:href="#m08a4ef03dd" x="300.351259" y="65.266892" style="fill: #808080; fill-opacity: 0.4"/>
     <use xlink:href="#m08a4ef03dd" x="300.171358" y="70.371775" style="fill: #808080; fill-opacity: 0.4"/>
     <use xlink:href="#m08a4ef03dd" x="286.697481" y="77.308133" style="fill: #808080; fill-opacity: 0.4"/>
     <use xlink:href="#m08a4ef03dd" x="285.083453" y="76.484758" style="fill: #808080; fill-opacity: 0.4"/>
     <use xlink:href="#m08a4ef03dd" x="286.360262" y="77.275857" style="fill: #808080; fill-opacity: 0.4"/>
     <use xlink:href="#m08a4ef03dd" x="274.652038" y="98.102284" style="fill: #808080; fill-opacity: 0.4"/>
     <use xlink:href="#m08a4ef03dd" x="275.224049" y="93.516804" style="fill: #808080; fill-opacity: 0.4"/>
     <use xlink:href="#m08a4ef03dd" x="270.092148" y="111.487974" style="fill: #808080; fill-opacity: 0.4"/>
     <use xlink:href="#m08a4ef03dd" x="263.666124" y="134.696756" style="fill: #808080; fill-opacity: 0.4"/>
     <use xlink:href="#m08a4ef03dd" x="200.431401" y="196.308454" style="fill: #808080; fill-opacity: 0.4"/>
     <use xlink:href="#m08a4ef03dd" x="153.106644" y="174.419648" style="fill: #808080; fill-opacity: 0.4"/>
     <use xlink:href="#m08a4ef03dd" x="214.980841" y="171.78761" style="fill: #808080; fill-opacity: 0.4"/>
     <use xlink:href="#m08a4ef03dd" x="182.861346" y="172.08049" style="fill: #808080; fill-opacity: 0.4"/>
     <use xlink:href="#m08a4ef03dd" x="187.173644" y="158.301513" style="fill: #808080; fill-opacity: 0.4"/>
     <use xlink:href="#m08a4ef03dd" x="154.184977" y="208.308069" style="fill: #808080; fill-opacity: 0.4"/>
     <use xlink:href="#m08a4ef03dd" x="177.284656" y="231.517151" style="fill: #808080; fill-opacity: 0.4"/>
     <use xlink:href="#m08a4ef03dd" x="161.94095" y="190.512761" style="fill: #808080; fill-opacity: 0.4"/>
     <use xlink:href="#m08a4ef03dd" x="147.378641" y="201.948831" style="fill: #808080; fill-opacity: 0.4"/>
     <use xlink:href="#m08a4ef03dd" x="214.220512" y="178.278645" style="fill: #808080; fill-opacity: 0.4"/>
     <use xlink:href="#m08a4ef03dd" x="160.562605" y="185.583669" style="fill: #808080; fill-opacity: 0.4"/>
     <use xlink:href="#m08a4ef03dd" x="201.216615" y="162.47666" style="fill: #808080; fill-opacity: 0.4"/>
     <use xlink:href="#m08a4ef03dd" x="179.705716" y="224.563506" style="fill: #808080; fill-opacity: 0.4"/>
     <use xlink:href="#m08a4ef03dd" x="218.434696" y="200.579878" style="fill: #808080; fill-opacity: 0.4"/>
     <use xlink:href="#m08a4ef03dd" x="247.93573" y="139.346855" style="fill: #808080; fill-opacity: 0.4"/>
     <use xlink:href="#m08a4ef03dd" x="283.041016" y="88.024961" style="fill: #808080; fill-opacity: 0.4"/>
     <use xlink:href="#m08a4ef03dd" x="291.40028" y="85.73085" style="fill: #808080; fill-opacity: 0.4"/>
     <use xlink:href="#m08a4ef03dd" x="293.276065" y="61.183498" style="fill: #808080; fill-opacity: 0.4"/>
     <use xlink:href="#m08a4ef03dd" x="288.611616" y="67.263369" style="fill: #808080; fill-opacity: 0.4"/>
    </g>
   </g>
   <g id="PolyCollection_1">
    <defs>
     <path id="m97f0a51884" d="M 115.253929 -101.221851 
L 115.253929 -85.114708 
L 117.123599 -87.072446 
L 118.993269 -89.012428 
L 120.862939 -90.936856 
L 122.732609 -92.849421 
L 124.602279 -94.791368 
L 126.471949 -96.704223 
L 128.341619 -98.617002 
L 130.211289 -100.568997 
L 132.080959 -102.494572 
L 133.950629 -104.398238 
L 135.820299 -106.292013 
L 137.689969 -108.231911 
L 139.559639 -110.149739 
L 141.429309 -112.055627 
L 143.298979 -113.958097 
L 145.168649 -115.861125 
L 147.038319 -117.798843 
L 148.907989 -119.737079 
L 150.777659 -121.643491 
L 152.647329 -123.572234 
L 154.516999 -125.539579 
L 156.386669 -127.491599 
L 158.256339 -129.415016 
L 160.126009 -131.257566 
L 161.995679 -133.117105 
L 163.865349 -134.952629 
L 165.735019 -136.80829 
L 167.604689 -138.722934 
L 169.474359 -140.588137 
L 171.344029 -142.483999 
L 173.213699 -144.369215 
L 175.083369 -146.201145 
L 176.953039 -148.033076 
L 178.822709 -149.8793 
L 180.692379 -151.729636 
L 182.562049 -153.663068 
L 184.431719 -155.533191 
L 186.301389 -157.38787 
L 188.171059 -159.244614 
L 190.040729 -161.028552 
L 191.910399 -162.85001 
L 193.780069 -164.60318 
L 195.649739 -166.330672 
L 197.519409 -168.139735 
L 199.389079 -169.909239 
L 201.258749 -171.665819 
L 203.128419 -173.478468 
L 204.998089 -175.268062 
L 206.867759 -177.006325 
L 208.737429 -178.768184 
L 210.607099 -180.527318 
L 212.476769 -182.27394 
L 214.346439 -183.916731 
L 216.216109 -185.655391 
L 218.085779 -187.382782 
L 219.955449 -189.05097 
L 221.825119 -190.763042 
L 223.694789 -192.443724 
L 225.564459 -194.124441 
L 227.434129 -195.801684 
L 229.303799 -197.44459 
L 231.173469 -199.18491 
L 233.043139 -200.782187 
L 234.912809 -202.450153 
L 236.782479 -204.088788 
L 238.652149 -205.76352 
L 240.521819 -207.341981 
L 242.391489 -208.927507 
L 244.261159 -210.544913 
L 246.130829 -212.182044 
L 248.000499 -213.90987 
L 249.870169 -215.596309 
L 251.739839 -217.203624 
L 253.609509 -218.811308 
L 255.479179 -220.418992 
L 257.348849 -221.967111 
L 259.218519 -223.580136 
L 261.088189 -225.21863 
L 262.957859 -226.846451 
L 264.827529 -228.453614 
L 266.697199 -230.060778 
L 268.566869 -231.668033 
L 270.436539 -233.267361 
L 272.306209 -234.875109 
L 274.175879 -236.508376 
L 276.045549 -238.161483 
L 277.915219 -239.804382 
L 279.784889 -241.447282 
L 281.654559 -243.021487 
L 283.524229 -244.566698 
L 285.393899 -246.148033 
L 287.263569 -247.766003 
L 289.133239 -249.383973 
L 291.002909 -251.001943 
L 292.872579 -252.619913 
L 294.742249 -254.206469 
L 296.611919 -255.788497 
L 298.481589 -257.379902 
L 300.351259 -258.986143 
L 300.351259 -278.138226 
L 300.351259 -278.138226 
L 298.481589 -276.23301 
L 296.611919 -274.353534 
L 294.742249 -272.474124 
L 292.872579 -270.594714 
L 291.002909 -268.714562 
L 289.133239 -266.83371 
L 287.263569 -264.886447 
L 285.393899 -262.907842 
L 283.524229 -260.986227 
L 281.654559 -259.079869 
L 279.784889 -257.134785 
L 277.915219 -255.22631 
L 276.045549 -253.356081 
L 274.175879 -251.45926 
L 272.306209 -249.550776 
L 270.436539 -247.619779 
L 268.566869 -245.676342 
L 266.697199 -243.787191 
L 264.827529 -241.913855 
L 262.957859 -240.02664 
L 261.088189 -238.10992 
L 259.218519 -236.239145 
L 257.348849 -234.389295 
L 255.479179 -232.510481 
L 253.609509 -230.630819 
L 251.739839 -228.750031 
L 249.870169 -226.870346 
L 248.000499 -224.918935 
L 246.130829 -222.995646 
L 244.261159 -221.145435 
L 242.391489 -219.306538 
L 240.521819 -217.472769 
L 238.652149 -215.592601 
L 236.782479 -213.704114 
L 234.912809 -211.803239 
L 233.043139 -209.885086 
L 231.173469 -208.002129 
L 229.303799 -206.121693 
L 227.434129 -204.314626 
L 225.564459 -202.454388 
L 223.694789 -200.617815 
L 221.825119 -198.706278 
L 219.955449 -196.855586 
L 218.085779 -195.084082 
L 216.216109 -193.266446 
L 214.346439 -191.398882 
L 212.476769 -189.592406 
L 210.607099 -187.786093 
L 208.737429 -185.974337 
L 206.867759 -184.126402 
L 204.998089 -182.346714 
L 203.128419 -180.576643 
L 201.258749 -178.891155 
L 199.389079 -177.081361 
L 197.519409 -175.315549 
L 195.649739 -173.565831 
L 193.780069 -171.785851 
L 191.910399 -170.016384 
L 190.040729 -168.249295 
L 188.171059 -166.503816 
L 186.301389 -164.724964 
L 184.431719 -163.013827 
L 182.562049 -161.285307 
L 180.692379 -159.641551 
L 178.822709 -157.956551 
L 176.953039 -156.269256 
L 175.083369 -154.581961 
L 173.213699 -152.895902 
L 171.344029 -151.213229 
L 169.474359 -149.524337 
L 167.604689 -147.836866 
L 165.735019 -146.151015 
L 163.865349 -144.45199 
L 161.995679 -142.777772 
L 160.126009 -141.091518 
L 158.256339 -139.405478 
L 156.386669 -137.718931 
L 154.516999 -136.058263 
L 152.647329 -134.389647 
L 150.777659 -132.721031 
L 148.907989 -131.022339 
L 147.038319 -129.326986 
L 145.168649 -127.695588 
L 143.298979 -126.020642 
L 141.429309 -124.379129 
L 139.559639 -122.711683 
L 137.689969 -121.063422 
L 135.820299 -119.459811 
L 133.950629 -117.74788 
L 132.080959 -116.136829 
L 130.211289 -114.411981 
L 128.341619 -112.706596 
L 126.471949 -111.043028 
L 124.602279 -109.417697 
L 122.732609 -107.792367 
L 120.862939 -106.167036 
L 118.993269 -104.541705 
L 117.123599 -102.864492 
L 115.253929 -101.221851 
z
"/>
    </defs>
    <g clip-path="url(#p639e1aa71e)">
     <use xlink:href="#m97f0a51884" x="0" y="360" style="fill: #808080; fill-opacity: 0.15"/>
    </g>
   </g>
   <g id="line2d_13">
    <path d="M 115.253929 266.522514 
L 117.123599 264.740226 
L 118.993269 262.957937 
L 120.862939 261.175649 
L 122.732609 259.393361 
L 124.602279 257.611073 
L 126.471949 255.828785 
L 128.341619 254.046496 
L 130.211289 252.264208 
L 132.080959 250.48192 
L 133.950629 248.699632 
L 135.820299 246.917344 
L 137.689969 245.135055 
L 139.559639 243.352767 
L 141.429309 241.570479 
L 143.298979 239.788191 
L 145.168649 238.005903 
L 147.038319 236.223614 
L 148.907989 234.441326 
L 150.777659 232.659038 
L 152.647329 230.87675 
L 154.516999 229.094462 
L 156.386669 227.312173 
L 158.256339 225.529885 
L 160.126009 223.747597 
L 161.995679 221.965309 
L 163.865349 220.183021 
L 165.735019 218.400732 
L 167.604689 216.618444 
L 169.474359 214.836156 
L 171.344029 213.053868 
L 173.213699 211.27158 
L 175.083369 209.489291 
L 176.953039 207.707003 
L 178.822709 205.924715 
L 180.692379 204.142427 
L 182.562049 202.360139 
L 184.431719 200.57785 
L 186.301389 198.795562 
L 188.171059 197.013274 
L 190.040729 195.230986 
L 191.910399 193.448698 
L 193.780069 191.666409 
L 195.649739 189.884121 
L 197.519409 188.101833 
L 199.389079 186.319545 
L 201.258749 184.537257 
L 203.128419 182.754968 
L 204.998089 180.97268 
L 206.867759 179.190392 
L 208.737429 177.408104 
L 210.607099 175.625816 
L 212.476769 173.843527 
L 214.346439 172.061239 
L 216.216109 170.278951 
L 218.085779 168.496663 
L 219.955449 166.714375 
L 221.825119 164.932086 
L 223.694789 163.149798 
L 225.564459 161.36751 
L 227.434129 159.585222 
L 229.303799 157.802934 
L 231.173469 156.020645 
L 233.043139 154.238357 
L 234.912809 152.456069 
L 236.782479 150.673781 
L 238.652149 148.891493 
L 240.521819 147.109204 
L 242.391489 145.326916 
L 244.261159 143.544628 
L 246.130829 141.76234 
L 248.000499 139.980052 
L 249.870169 138.197763 
L 251.739839 136.415475 
L 253.609509 134.633187 
L 255.479179 132.850899 
L 257.348849 131.068611 
L 259.218519 129.286322 
L 261.088189 127.504034 
L 262.957859 125.721746 
L 264.827529 123.939458 
L 266.697199 122.15717 
L 268.566869 120.374881 
L 270.436539 118.592593 
L 272.306209 116.810305 
L 274.175879 115.028017 
L 276.045549 113.245729 
L 277.915219 111.46344 
L 279.784889 109.681152 
L 281.654559 107.898864 
L 283.524229 106.116576 
L 285.393899 104.334288 
L 287.263569 102.551999 
L 289.133239 100.769711 
L 291.002909 98.987423 
L 292.872579 97.205135 
L 294.742249 95.422847 
L 296.611919 93.640558 
L 298.481589 91.85827 
L 300.351259 90.075982 
" clip-path="url(#p639e1aa71e)" style="fill: none; stroke: #808080; stroke-width: 2.25; stroke-linecap: round"/>
   </g>
   <g id="patch_3">
    <path d="M 45 320.4 
L 45 43.2 
" style="fill: none; stroke: #262626; stroke-width: 2; stroke-linejoin: miter; stroke-linecap: square"/>
   </g>
   <g id="patch_4">
    <path d="M 45 320.4 
L 324 320.4 
" style="fill: none; stroke: #262626; stroke-width: 2; stroke-linejoin: miter; stroke-linecap: square"/>
   </g>
   <g id="text_15">
    <text style="fill: #262626; font: 16.8px 'sans-serif'; text-anchor: middle" x="184.5" y="37.2" transform="rotate(-0, 184.5, 37.2)">Flp PDZ Enrichment: 2</text>
   </g>
   <g id="legend_1">
    <g id="line2d_14">
     <path d="M 57.6 61.537812 
L 71.6 61.537812 
L 85.6 61.537812 
" style="fill: none; stroke: #808080; stroke-width: 2.25; stroke-linecap: round"/>
    </g>
    <g id="text_16">
     <text style="fill: #262626; font: 14px 'sans-serif'; text-anchor: start" x="96.8" y="66.437812" transform="rotate(-0, 96.8, 66.437812)">Pearson's r: 0.82</text>
    </g>
   </g>
  </g>
 </g>
 <defs>
  <clipPath id="p639e1aa71e">
   <rect x="45" y="43.2" width="279" height="277.2"/>
  </clipPath>
 </defs>
</svg>
