<?xml version="1.0" encoding="utf-8" standalone="no"?>
<!DOCTYPE svg PUBLIC "-//W3C//DTD SVG 1.1//EN"
  "http://www.w3.org/Graphics/SVG/1.1/DTD/svg11.dtd">
<!-- Created with matplotlib (https://matplotlib.org/) -->
<svg height="360pt" version="1.1" viewBox="0 0 360 360" width="360pt" xmlns="http://www.w3.org/2000/svg" xmlns:xlink="http://www.w3.org/1999/xlink">
 <metadata>
  <rdf:RDF xmlns:cc="http://creativecommons.org/ns#" xmlns:dc="http://purl.org/dc/elements/1.1/" xmlns:rdf="http://www.w3.org/1999/02/22-rdf-syntax-ns#">
   <cc:Work>
    <dc:type rdf:resource="http://purl.org/dc/dcmitype/StillImage"/>
    <dc:date>2023-04-13T14:39:29.879391</dc:date>
    <dc:format>image/svg+xml</dc:format>
    <dc:creator>
     <cc:Agent>
      <dc:title>Matplotlib v3.3.3, https://matplotlib.org/</dc:title>
     </cc:Agent>
    </dc:creator>
   </cc:Work>
  </rdf:RDF>
 </metadata>
 <defs>
  <style type="text/css">*{stroke-linecap:butt;stroke-linejoin:round;}</style>
 </defs>
 <g id="figure_1">
  <g id="patch_1">
   <path d="M 0 360 
L 360 360 
L 360 0 
L 0 0 
z
" style="fill:#ffffff;"/>
  </g>
  <g id="axes_1">
   <g id="patch_2">
    <path d="M 45 315 
L 324 315 
L 324 43.2 
L 45 43.2 
z
" style="fill:#ffffff;"/>
   </g>
   <g id="matplotlib.axis_1">
    <g id="xtick_1">
     <g id="line2d_1">
      <defs>
       <path d="M 0 0 
L 0 3.5 
" id="md88eef9bdb" style="stroke:#262626;stroke-width:2;"/>
      </defs>
      <g>
       <use style="fill:#262626;stroke:#262626;stroke-width:2;" x="91.5" xlink:href="#md88eef9bdb" y="315"/>
      </g>
     </g>
     <g id="text_1">
      <text style="fill:#262626;font-family:Cantarell;font-size:14px;font-stretch:normal;font-style:normal;font-weight:normal;text-anchor:middle;" transform="rotate(-0, 91.5, 332.051562)" x="91.5" y="332.051562">Coil</text>
     </g>
    </g>
    <g id="xtick_2">
     <g id="line2d_2">
      <g>
       <use style="fill:#262626;stroke:#262626;stroke-width:2;" x="184.5" xlink:href="#md88eef9bdb" y="315"/>
      </g>
     </g>
     <g id="text_2">
      <text style="fill:#262626;font-family:Cantarell;font-size:14px;font-stretch:normal;font-style:normal;font-weight:normal;text-anchor:middle;" transform="rotate(-0, 184.5, 332.051562)" x="184.5" y="332.051562">Helix</text>
     </g>
    </g>
    <g id="xtick_3">
     <g id="line2d_3">
      <g>
       <use style="fill:#262626;stroke:#262626;stroke-width:2;" x="277.5" xlink:href="#md88eef9bdb" y="315"/>
      </g>
     </g>
     <g id="text_3">
      <text style="fill:#262626;font-family:Cantarell;font-size:14px;font-stretch:normal;font-style:normal;font-weight:normal;text-anchor:middle;" transform="rotate(-0, 277.5, 332.051562)" x="277.5" y="332.051562">Sheet</text>
     </g>
    </g>
    <g id="text_4">
     <text style="fill:#262626;font-family:Cantarell;font-size:14px;font-stretch:normal;font-style:normal;font-weight:normal;text-anchor:middle;" transform="rotate(-0, 184.5, 349.574687)" x="184.5" y="349.574687">Sec structure</text>
    </g>
   </g>
   <g id="matplotlib.axis_2">
    <g id="ytick_1">
     <g id="line2d_4">
      <defs>
       <path d="M 0 0 
L -3.5 0 
" id="m0e39622be2" style="stroke:#262626;stroke-width:2;"/>
      </defs>
      <g>
       <use style="fill:#262626;stroke:#262626;stroke-width:2;" x="45" xlink:href="#m0e39622be2" y="308.482907"/>
      </g>
     </g>
     <g id="text_5">
      <text style="fill:#262626;font-family:Cantarell;font-size:14px;font-stretch:normal;font-style:normal;font-weight:normal;text-anchor:end;" transform="rotate(-0, 38, 313.508688)" x="38" y="313.508688">−12.5</text>
     </g>
    </g>
    <g id="ytick_2">
     <g id="line2d_5">
      <g>
       <use style="fill:#262626;stroke:#262626;stroke-width:2;" x="45" xlink:href="#m0e39622be2" y="277.078021"/>
      </g>
     </g>
     <g id="text_6">
      <text style="fill:#262626;font-family:Cantarell;font-size:14px;font-stretch:normal;font-style:normal;font-weight:normal;text-anchor:end;" transform="rotate(-0, 38, 282.103803)" x="38" y="282.103803">−10.0</text>
     </g>
    </g>
    <g id="ytick_3">
     <g id="line2d_6">
      <g>
       <use style="fill:#262626;stroke:#262626;stroke-width:2;" x="45" xlink:href="#m0e39622be2" y="245.673136"/>
      </g>
     </g>
     <g id="text_7">
      <text style="fill:#262626;font-family:Cantarell;font-size:14px;font-stretch:normal;font-style:normal;font-weight:normal;text-anchor:end;" transform="rotate(-0, 38, 250.698917)" x="38" y="250.698917">−7.5</text>
     </g>
    </g>
    <g id="ytick_4">
     <g id="line2d_7">
      <g>
       <use style="fill:#262626;stroke:#262626;stroke-width:2;" x="45" xlink:href="#m0e39622be2" y="214.26825"/>
      </g>
     </g>
     <g id="text_8">
      <text style="fill:#262626;font-family:Cantarell;font-size:14px;font-stretch:normal;font-style:normal;font-weight:normal;text-anchor:end;" transform="rotate(-0, 38, 219.294031)" x="38" y="219.294031">−5.0</text>
     </g>
    </g>
    <g id="ytick_5">
     <g id="line2d_8">
      <g>
       <use style="fill:#262626;stroke:#262626;stroke-width:2;" x="45" xlink:href="#m0e39622be2" y="182.863365"/>
      </g>
     </g>
     <g id="text_9">
      <text style="fill:#262626;font-family:Cantarell;font-size:14px;font-stretch:normal;font-style:normal;font-weight:normal;text-anchor:end;" transform="rotate(-0, 38, 187.889146)" x="38" y="187.889146">−2.5</text>
     </g>
    </g>
    <g id="ytick_6">
     <g id="line2d_9">
      <g>
       <use style="fill:#262626;stroke:#262626;stroke-width:2;" x="45" xlink:href="#m0e39622be2" y="151.458479"/>
      </g>
     </g>
     <g id="text_10">
      <text style="fill:#262626;font-family:Cantarell;font-size:14px;font-stretch:normal;font-style:normal;font-weight:normal;text-anchor:end;" transform="rotate(-0, 38, 156.48426)" x="38" y="156.48426">0.0</text>
     </g>
    </g>
    <g id="ytick_7">
     <g id="line2d_10">
      <g>
       <use style="fill:#262626;stroke:#262626;stroke-width:2;" x="45" xlink:href="#m0e39622be2" y="120.053594"/>
      </g>
     </g>
     <g id="text_11">
      <text style="fill:#262626;font-family:Cantarell;font-size:14px;font-stretch:normal;font-style:normal;font-weight:normal;text-anchor:end;" transform="rotate(-0, 38, 125.079375)" x="38" y="125.079375">2.5</text>
     </g>
    </g>
    <g id="ytick_8">
     <g id="line2d_11">
      <g>
       <use style="fill:#262626;stroke:#262626;stroke-width:2;" x="45" xlink:href="#m0e39622be2" y="88.648708"/>
      </g>
     </g>
     <g id="text_12">
      <text style="fill:#262626;font-family:Cantarell;font-size:14px;font-stretch:normal;font-style:normal;font-weight:normal;text-anchor:end;" transform="rotate(-0, 38, 93.674489)" x="38" y="93.674489">5.0</text>
     </g>
    </g>
    <g id="ytick_9">
     <g id="line2d_12">
      <g>
       <use style="fill:#262626;stroke:#262626;stroke-width:2;" x="45" xlink:href="#m0e39622be2" y="57.243823"/>
      </g>
     </g>
     <g id="text_13">
      <text style="fill:#262626;font-family:Cantarell;font-size:14px;font-stretch:normal;font-style:normal;font-weight:normal;text-anchor:end;" transform="rotate(-0, 38, 62.269604)" x="38" y="62.269604">7.5</text>
     </g>
    </g>
    <g id="text_14">
     <text style="fill:#262626;font-family:Cantarell;font-size:14px;font-stretch:normal;font-style:normal;font-weight:normal;text-anchor:middle;" transform="rotate(-90, -6.812188, 179.1)" x="-6.812188" y="179.1">Log2 variant enrichment</text>
    </g>
   </g>
   <g id="PolyCollection_1">
    <defs>
     <path d="M 91.925207 -57.354545 
L 91.074793 -57.354545 
L 90.883473 -59.850413 
L 90.639445 -62.346281 
L 90.343623 -64.842149 
L 90.00395 -67.338017 
L 89.636326 -69.833884 
L 89.264075 -72.329752 
L 88.915663 -74.82562 
L 88.620738 -77.321488 
L 88.405118 -79.817355 
L 88.285711 -82.313223 
L 88.266517 -84.809091 
L 88.336726 -87.304959 
L 88.471415 -89.800826 
L 88.634754 -92.296694 
L 88.784983 -94.792562 
L 88.880053 -97.28843 
L 88.882738 -99.784298 
L 88.764279 -102.280165 
L 88.506101 -104.776033 
L 88.099651 -107.271901 
L 87.544855 -109.767769 
L 86.84789 -112.263636 
L 86.018944 -114.759504 
L 85.070403 -117.255372 
L 84.015568 -119.75124 
L 82.867732 -122.247107 
L 81.639308 -124.742975 
L 80.340774 -127.238843 
L 78.97948 -129.734711 
L 77.558653 -132.230579 
L 76.077235 -134.726446 
L 74.531161 -137.222314 
L 72.91642 -139.718182 
L 71.233725 -142.21405 
L 69.493961 -144.709917 
L 67.723073 -147.205785 
L 65.964901 -149.701653 
L 64.2807 -152.197521 
L 62.744804 -154.693388 
L 61.436835 -157.189256 
L 60.431723 -159.685124 
L 59.789457 -162.180992 
L 59.546509 -164.67686 
L 59.710549 -167.172727 
L 60.259221 -169.668595 
L 61.142972 -172.164463 
L 62.291124 -174.660331 
L 63.620031 -177.156198 
L 65.042022 -179.652066 
L 66.473993 -182.147934 
L 67.844739 -184.643802 
L 69.100395 -187.139669 
L 70.207574 -189.635537 
L 71.154038 -192.131405 
L 71.947001 -194.627273 
L 72.609482 -197.12314 
L 73.175384 -199.619008 
L 73.684137 -202.114876 
L 74.175742 -204.610744 
L 74.686818 -207.106612 
L 75.247952 -209.602479 
L 75.882286 -212.098347 
L 76.60504 -214.594215 
L 77.423561 -217.090083 
L 78.337566 -219.58595 
L 79.339421 -222.081818 
L 80.414469 -224.577686 
L 81.541608 -227.073554 
L 82.694327 -229.569421 
L 83.842363 -232.065289 
L 84.954008 -234.561157 
L 85.998869 -237.057025 
L 86.950727 -239.552893 
L 87.790033 -242.04876 
L 88.505574 -244.544628 
L 89.094985 -247.040496 
L 89.564027 -249.536364 
L 89.92482 -252.032231 
L 90.193437 -254.528099 
L 90.387417 -257.023967 
L 90.523668 -259.519835 
L 90.617122 -262.015702 
L 90.680197 -264.51157 
L 90.722929 -267.007438 
L 90.753465 -269.503306 
L 90.77857 -271.999174 
L 90.803921 -274.495041 
L 90.834086 -276.990909 
L 90.87227 -279.486777 
L 90.920023 -281.982645 
L 90.977083 -284.478512 
L 91.041511 -286.97438 
L 91.110121 -289.470248 
L 91.179112 -291.966116 
L 91.244763 -294.461983 
L 91.304018 -296.957851 
L 91.354848 -299.453719 
L 91.396364 -301.949587 
L 91.428699 -304.445455 
L 91.571301 -304.445455 
L 91.571301 -304.445455 
L 91.603636 -301.949587 
L 91.645152 -299.453719 
L 91.695982 -296.957851 
L 91.755237 -294.461983 
L 91.820888 -291.966116 
L 91.889879 -289.470248 
L 91.958489 -286.97438 
L 92.022917 -284.478512 
L 92.079977 -281.982645 
L 92.12773 -279.486777 
L 92.165914 -276.990909 
L 92.196079 -274.495041 
L 92.22143 -271.999174 
L 92.246535 -269.503306 
L 92.277071 -267.007438 
L 92.319803 -264.51157 
L 92.382878 -262.015702 
L 92.476332 -259.519835 
L 92.612583 -257.023967 
L 92.806563 -254.528099 
L 93.07518 -252.032231 
L 93.435973 -249.536364 
L 93.905015 -247.040496 
L 94.494426 -244.544628 
L 95.209967 -242.04876 
L 96.049273 -239.552893 
L 97.001131 -237.057025 
L 98.045992 -234.561157 
L 99.157637 -232.065289 
L 100.305673 -229.569421 
L 101.458392 -227.073554 
L 102.585531 -224.577686 
L 103.660579 -222.081818 
L 104.662434 -219.58595 
L 105.576439 -217.090083 
L 106.39496 -214.594215 
L 107.117714 -212.098347 
L 107.752048 -209.602479 
L 108.313182 -207.106612 
L 108.824258 -204.610744 
L 109.315863 -202.114876 
L 109.824616 -199.619008 
L 110.390518 -197.12314 
L 111.052999 -194.627273 
L 111.845962 -192.131405 
L 112.792426 -189.635537 
L 113.899605 -187.139669 
L 115.155261 -184.643802 
L 116.526007 -182.147934 
L 117.957978 -179.652066 
L 119.379969 -177.156198 
L 120.708876 -174.660331 
L 121.857028 -172.164463 
L 122.740779 -169.668595 
L 123.289451 -167.172727 
L 123.453491 -164.67686 
L 123.210543 -162.180992 
L 122.568277 -159.685124 
L 121.563165 -157.189256 
L 120.255196 -154.693388 
L 118.7193 -152.197521 
L 117.035099 -149.701653 
L 115.276927 -147.205785 
L 113.506039 -144.709917 
L 111.766275 -142.21405 
L 110.08358 -139.718182 
L 108.468839 -137.222314 
L 106.922765 -134.726446 
L 105.441347 -132.230579 
L 104.02052 -129.734711 
L 102.659226 -127.238843 
L 101.360692 -124.742975 
L 100.132268 -122.247107 
L 98.984432 -119.75124 
L 97.929597 -117.255372 
L 96.981056 -114.759504 
L 96.15211 -112.263636 
L 95.455145 -109.767769 
L 94.900349 -107.271901 
L 94.493899 -104.776033 
L 94.235721 -102.280165 
L 94.117262 -99.784298 
L 94.119947 -97.28843 
L 94.215017 -94.792562 
L 94.365246 -92.296694 
L 94.528585 -89.800826 
L 94.663274 -87.304959 
L 94.733483 -84.809091 
L 94.714289 -82.313223 
L 94.594882 -79.817355 
L 94.379262 -77.321488 
L 94.084337 -74.82562 
L 93.735925 -72.329752 
L 93.363674 -69.833884 
L 92.99605 -67.338017 
L 92.656377 -64.842149 
L 92.360555 -62.346281 
L 92.116527 -59.850413 
L 91.925207 -57.354545 
z
" id="mc9d1f9b746" style="stroke:#4d4d4d;stroke-width:2;"/>
    </defs>
    <g clip-path="url(#p16d2e7ab7d)">
     <use style="fill:#808080;stroke:#4d4d4d;stroke-width:2;" x="0" xlink:href="#mc9d1f9b746" y="360"/>
    </g>
   </g>
   <g id="PolyCollection_2">
    <defs>
     <path d="M 184.855843 -57.463637 
L 184.144157 -57.463637 
L 183.983442 -59.957301 
L 183.778333 -62.450965 
L 183.529653 -64.944629 
L 183.244212 -67.438293 
L 182.935593 -69.931957 
L 182.623698 -72.42562 
L 182.332774 -74.919284 
L 182.088023 -77.412948 
L 181.911285 -79.906612 
L 181.816646 -82.400276 
L 181.80693 -84.89394 
L 181.871923 -87.387604 
L 181.988749 -89.881268 
L 182.124326 -92.374932 
L 182.239344 -94.868596 
L 182.292916 -97.362259 
L 182.247026 -99.855923 
L 182.070125 -102.349587 
L 181.739557 -104.843251 
L 181.242841 -107.336915 
L 180.578058 -109.830579 
L 179.753572 -112.324243 
L 178.787219 -114.817907 
L 177.704862 -117.311571 
L 176.538034 -119.805234 
L 175.320432 -122.298898 
L 174.083211 -124.792562 
L 172.849493 -127.286226 
L 171.629028 -129.77989 
L 170.41439 -132.273554 
L 169.180224 -134.767218 
L 167.886755 -137.260882 
L 166.487941 -139.754546 
L 164.943468 -142.24821 
L 163.23252 -144.741873 
L 161.366301 -147.235537 
L 159.395966 -149.729201 
L 157.413247 -152.222865 
L 155.542481 -154.716529 
L 153.924756 -157.210193 
L 152.696901 -159.703857 
L 151.969532 -162.197521 
L 151.808791 -164.691185 
L 152.225674 -167.184849 
L 153.175072 -169.678512 
L 154.56434 -172.172176 
L 156.269075 -174.66584 
L 158.152369 -177.159504 
L 160.083444 -179.653168 
L 161.952285 -182.146832 
L 163.678342 -184.640496 
L 165.212968 -187.13416 
L 166.536669 -189.627824 
L 167.653029 -192.121488 
L 168.581295 -194.615151 
L 169.349296 -197.108815 
L 169.987731 -199.602479 
L 170.526255 -202.096143 
L 170.99132 -204.589807 
L 171.405464 -207.083471 
L 171.78762 -209.577135 
L 172.153999 -212.070799 
L 172.519127 -214.564463 
L 172.896625 -217.058127 
L 173.299377 -219.55179 
L 173.738871 -222.045454 
L 174.223679 -224.539118 
L 174.75737 -227.032782 
L 175.336388 -229.526446 
L 175.948633 -232.02011 
L 176.573455 -234.513774 
L 177.18351 -237.007438 
L 177.748479 -239.501102 
L 178.240087 -241.994766 
L 178.637415 -244.488429 
L 178.931269 -246.982093 
L 179.126517 -249.475757 
L 179.241739 -251.969421 
L 179.306201 -254.463085 
L 179.354836 -256.956749 
L 179.422362 -259.450413 
L 179.537827 -261.944077 
L 179.720648 -264.437741 
L 179.978761 -266.931404 
L 180.308923 -269.425068 
L 180.69875 -271.918732 
L 181.129778 -274.412396 
L 181.580785 -276.90606 
L 182.03078 -279.399724 
L 182.461264 -281.893388 
L 182.857647 -284.387052 
L 183.209886 -286.880716 
L 183.512473 -289.37438 
L 183.763985 -291.868043 
L 183.966338 -294.361707 
L 184.123911 -296.855371 
L 184.242629 -299.349035 
L 184.329125 -301.842699 
L 184.390031 -304.336363 
L 184.609969 -304.336363 
L 184.609969 -304.336363 
L 184.670875 -301.842699 
L 184.757371 -299.349035 
L 184.876089 -296.855371 
L 185.033662 -294.361707 
L 185.236015 -291.868043 
L 185.487527 -289.37438 
L 185.790114 -286.880716 
L 186.142353 -284.387052 
L 186.538736 -281.893388 
L 186.96922 -279.399724 
L 187.419215 -276.90606 
L 187.870222 -274.412396 
L 188.30125 -271.918732 
L 188.691077 -269.425068 
L 189.021239 -266.931404 
L 189.279352 -264.437741 
L 189.462173 -261.944077 
L 189.577638 -259.450413 
L 189.645164 -256.956749 
L 189.693799 -254.463085 
L 189.758261 -251.969421 
L 189.873483 -249.475757 
L 190.068731 -246.982093 
L 190.362585 -244.488429 
L 190.759913 -241.994766 
L 191.251521 -239.501102 
L 191.81649 -237.007438 
L 192.426545 -234.513774 
L 193.051367 -232.02011 
L 193.663612 -229.526446 
L 194.24263 -227.032782 
L 194.776321 -224.539118 
L 195.261129 -222.045454 
L 195.700623 -219.55179 
L 196.103375 -217.058127 
L 196.480873 -214.564463 
L 196.846001 -212.070799 
L 197.21238 -209.577135 
L 197.594536 -207.083471 
L 198.00868 -204.589807 
L 198.473745 -202.096143 
L 199.012269 -199.602479 
L 199.650704 -197.108815 
L 200.418705 -194.615151 
L 201.346971 -192.121488 
L 202.463331 -189.627824 
L 203.787032 -187.13416 
L 205.321658 -184.640496 
L 207.047715 -182.146832 
L 208.916556 -179.653168 
L 210.847631 -177.159504 
L 212.730925 -174.66584 
L 214.43566 -172.172176 
L 215.824928 -169.678512 
L 216.774326 -167.184849 
L 217.191209 -164.691185 
L 217.030468 -162.197521 
L 216.303099 -159.703857 
L 215.075244 -157.210193 
L 213.457519 -154.716529 
L 211.586753 -152.222865 
L 209.604034 -149.729201 
L 207.633699 -147.235537 
L 205.76748 -144.741873 
L 204.056532 -142.24821 
L 202.512059 -139.754546 
L 201.113245 -137.260882 
L 199.819776 -134.767218 
L 198.58561 -132.273554 
L 197.370972 -129.77989 
L 196.150507 -127.286226 
L 194.916789 -124.792562 
L 193.679568 -122.298898 
L 192.461966 -119.805234 
L 191.295138 -117.311571 
L 190.212781 -114.817907 
L 189.246428 -112.324243 
L 188.421942 -109.830579 
L 187.757159 -107.336915 
L 187.260443 -104.843251 
L 186.929875 -102.349587 
L 186.752974 -99.855923 
L 186.707084 -97.362259 
L 186.760656 -94.868596 
L 186.875674 -92.374932 
L 187.011251 -89.881268 
L 187.128077 -87.387604 
L 187.19307 -84.89394 
L 187.183354 -82.400276 
L 187.088715 -79.906612 
L 186.911977 -77.412948 
L 186.667226 -74.919284 
L 186.376302 -72.42562 
L 186.064407 -69.931957 
L 185.755788 -67.438293 
L 185.470347 -64.944629 
L 185.221667 -62.450965 
L 185.016558 -59.957301 
L 184.855843 -57.463637 
z
" id="m7e6221d97a" style="stroke:#4d4d4d;stroke-width:2;"/>
    </defs>
    <g clip-path="url(#p16d2e7ab7d)">
     <use style="fill:#808080;stroke:#4d4d4d;stroke-width:2;" x="0" xlink:href="#m7e6221d97a" y="360"/>
    </g>
   </g>
   <g id="PolyCollection_3">
    <defs>
     <path d="M 279.890533 -121.865642 
L 275.109467 -121.865642 
L 274.616835 -123.392591 
L 274.046265 -124.91954 
L 273.390778 -126.446489 
L 272.643898 -127.973438 
L 271.799928 -129.500387 
L 270.854246 -131.027336 
L 269.803612 -132.554285 
L 268.646474 -134.081234 
L 267.383268 -135.608183 
L 266.016682 -137.135132 
L 264.551884 -138.662081 
L 262.996694 -140.18903 
L 261.361675 -141.715979 
L 259.660156 -143.242928 
L 257.90815 -144.769877 
L 256.124177 -146.296826 
L 254.328984 -147.823775 
L 252.545168 -149.350725 
L 250.796708 -150.877674 
L 249.10841 -152.404623 
L 247.505296 -153.931572 
L 246.011943 -155.458521 
L 244.651806 -156.98547 
L 243.446543 -158.512419 
L 242.415372 -160.039368 
L 241.574481 -161.566317 
L 240.936523 -163.093266 
L 240.510205 -164.620215 
L 240.3 -166.147164 
L 240.305985 -167.674113 
L 240.523819 -169.201062 
L 240.944852 -170.728011 
L 241.556376 -172.25496 
L 242.341994 -173.781909 
L 243.2821 -175.308858 
L 244.354449 -176.835807 
L 245.534799 -178.362756 
L 246.7976 -179.889705 
L 248.116702 -181.416654 
L 249.466062 -182.943603 
L 250.820424 -184.470552 
L 252.155954 -185.997501 
L 253.450807 -187.52445 
L 254.685608 -189.051399 
L 255.843838 -190.578348 
L 256.912127 -192.105297 
L 257.880419 -193.632247 
L 258.742049 -195.159196 
L 259.493698 -196.686145 
L 260.135264 -198.213094 
L 260.669631 -199.740043 
L 261.102374 -201.266992 
L 261.441394 -202.793941 
L 261.696516 -204.32089 
L 261.879053 -205.847839 
L 262.00136 -207.374788 
L 262.076394 -208.901737 
L 262.117292 -210.428686 
L 262.136978 -211.955635 
L 262.14782 -213.482584 
L 262.161332 -215.009533 
L 262.18793 -216.536482 
L 262.236752 -218.063431 
L 262.315534 -219.59038 
L 262.430537 -221.117329 
L 262.586533 -222.644278 
L 262.786826 -224.171227 
L 263.033323 -225.698176 
L 263.326621 -227.225125 
L 263.666126 -228.752074 
L 264.050185 -230.279023 
L 264.476225 -231.805972 
L 264.940892 -233.332921 
L 265.440196 -234.85987 
L 265.969644 -236.38682 
L 266.524371 -237.913769 
L 267.099258 -239.440718 
L 267.689044 -240.967667 
L 268.28843 -242.494616 
L 268.892173 -244.021565 
L 269.495172 -245.548514 
L 270.092546 -247.075463 
L 270.679703 -248.602412 
L 271.252406 -250.129361 
L 271.80682 -251.65631 
L 272.339563 -253.183259 
L 272.847736 -254.710208 
L 273.328948 -256.237157 
L 273.78133 -257.764106 
L 274.203532 -259.291055 
L 274.594716 -260.818004 
L 274.954535 -262.344953 
L 275.283098 -263.871902 
L 275.580934 -265.398851 
L 275.848942 -266.9258 
L 276.08834 -268.452749 
L 276.300606 -269.979698 
L 276.487425 -271.506647 
L 276.650627 -273.033596 
L 278.349373 -273.033596 
L 278.349373 -273.033596 
L 278.512575 -271.506647 
L 278.699394 -269.979698 
L 278.91166 -268.452749 
L 279.151058 -266.9258 
L 279.419066 -265.398851 
L 279.716902 -263.871902 
L 280.045465 -262.344953 
L 280.405284 -260.818004 
L 280.796468 -259.291055 
L 281.21867 -257.764106 
L 281.671052 -256.237157 
L 282.152264 -254.710208 
L 282.660437 -253.183259 
L 283.19318 -251.65631 
L 283.747594 -250.129361 
L 284.320297 -248.602412 
L 284.907454 -247.075463 
L 285.504828 -245.548514 
L 286.107827 -244.021565 
L 286.71157 -242.494616 
L 287.310956 -240.967667 
L 287.900742 -239.440718 
L 288.475629 -237.913769 
L 289.030356 -236.38682 
L 289.559804 -234.85987 
L 290.059108 -233.332921 
L 290.523775 -231.805972 
L 290.949815 -230.279023 
L 291.333874 -228.752074 
L 291.673379 -227.225125 
L 291.966677 -225.698176 
L 292.213174 -224.171227 
L 292.413467 -222.644278 
L 292.569463 -221.117329 
L 292.684466 -219.59038 
L 292.763248 -218.063431 
L 292.81207 -216.536482 
L 292.838668 -215.009533 
L 292.85218 -213.482584 
L 292.863022 -211.955635 
L 292.882708 -210.428686 
L 292.923606 -208.901737 
L 292.99864 -207.374788 
L 293.120947 -205.847839 
L 293.303484 -204.32089 
L 293.558606 -202.793941 
L 293.897626 -201.266992 
L 294.330369 -199.740043 
L 294.864736 -198.213094 
L 295.506302 -196.686145 
L 296.257951 -195.159196 
L 297.119581 -193.632247 
L 298.087873 -192.105297 
L 299.156162 -190.578348 
L 300.314392 -189.051399 
L 301.549193 -187.52445 
L 302.844046 -185.997501 
L 304.179576 -184.470552 
L 305.533938 -182.943603 
L 306.883298 -181.416654 
L 308.2024 -179.889705 
L 309.465201 -178.362756 
L 310.645551 -176.835807 
L 311.7179 -175.308858 
L 312.658006 -173.781909 
L 313.443624 -172.25496 
L 314.055148 -170.728011 
L 314.476181 -169.201062 
L 314.694015 -167.674113 
L 314.7 -166.147164 
L 314.489795 -164.620215 
L 314.063477 -163.093266 
L 313.425519 -161.566317 
L 312.584628 -160.039368 
L 311.553457 -158.512419 
L 310.348194 -156.98547 
L 308.988057 -155.458521 
L 307.494704 -153.931572 
L 305.89159 -152.404623 
L 304.203292 -150.877674 
L 302.454832 -149.350725 
L 300.671016 -147.823775 
L 298.875823 -146.296826 
L 297.09185 -144.769877 
L 295.339844 -143.242928 
L 293.638325 -141.715979 
L 292.003306 -140.18903 
L 290.448116 -138.662081 
L 288.983318 -137.135132 
L 287.616732 -135.608183 
L 286.353526 -134.081234 
L 285.196388 -132.554285 
L 284.145754 -131.027336 
L 283.200072 -129.500387 
L 282.356102 -127.973438 
L 281.609222 -126.446489 
L 280.953735 -124.91954 
L 280.383165 -123.392591 
L 279.890533 -121.865642 
z
" id="mc592171296" style="stroke:#4d4d4d;stroke-width:2;"/>
    </defs>
    <g clip-path="url(#p16d2e7ab7d)">
     <use style="fill:#808080;stroke:#4d4d4d;stroke-width:2;" x="0" xlink:href="#mc592171296" y="360"/>
    </g>
   </g>
   <g id="line2d_13">
    <path clip-path="url(#p16d2e7ab7d)" d="M 91.5 246.101199 
L 91.5 103.62918 
" style="fill:none;stroke:#000000;stroke-linecap:round;stroke-width:2;"/>
   </g>
   <g id="line2d_14">
    <path clip-path="url(#p16d2e7ab7d)" d="M 91.5 207.095897 
L 91.5 163.314102 
" style="fill:none;stroke:#000000;stroke-linecap:round;stroke-width:6;"/>
   </g>
   <g id="line2d_15">
    <path clip-path="url(#p16d2e7ab7d)" d="M 184.5 246.101199 
L 184.5 95.750286 
" style="fill:none;stroke:#000000;stroke-linecap:round;stroke-width:2;"/>
   </g>
   <g id="line2d_16">
    <path clip-path="url(#p16d2e7ab7d)" d="M 184.5 204.737427 
L 184.5 160.768073 
" style="fill:none;stroke:#000000;stroke-linecap:round;stroke-width:6;"/>
   </g>
   <g id="line2d_17">
    <path clip-path="url(#p16d2e7ab7d)" d="M 277.5 202.246764 
L 277.5 122.853998 
" style="fill:none;stroke:#000000;stroke-linecap:round;stroke-width:2;"/>
   </g>
   <g id="line2d_18">
    <path clip-path="url(#p16d2e7ab7d)" d="M 277.5 196.136904 
L 277.5 157.118035 
" style="fill:none;stroke:#000000;stroke-linecap:round;stroke-width:6;"/>
   </g>
   <g id="patch_3">
    <path d="M 45 315 
L 45 43.2 
" style="fill:none;stroke:#262626;stroke-linecap:square;stroke-linejoin:miter;stroke-width:2;"/>
   </g>
   <g id="patch_4">
    <path d="M 45 315 
L 324 315 
" style="fill:none;stroke:#262626;stroke-linecap:square;stroke-linejoin:miter;stroke-width:2;"/>
   </g>
   <g id="PathCollection_1">
    <defs>
     <path d="M 0 2 
C 0.530406 2 1.03916 1.789267 1.414214 1.414214 
C 1.789267 1.03916 2 0.530406 2 0 
C 2 -0.530406 1.789267 -1.03916 1.414214 -1.414214 
C 1.03916 -1.789267 0.530406 -2 0 -2 
C -0.530406 -2 -1.03916 -1.789267 -1.414214 -1.414214 
C -1.789267 -1.03916 -2 -0.530406 -2 0 
C -2 0.530406 -1.789267 1.03916 -1.414214 1.414214 
C -1.03916 1.789267 -0.530406 2 0 2 
z
" id="m01251eca1c" style="stroke:#4d4d4d;"/>
    </defs>
    <g clip-path="url(#p16d2e7ab7d)">
     <use style="fill:#ffffff;stroke:#4d4d4d;" x="91.5" xlink:href="#m01251eca1c" y="191.314699"/>
    </g>
   </g>
   <g id="PathCollection_2">
    <g clip-path="url(#p16d2e7ab7d)">
     <use style="fill:#ffffff;stroke:#4d4d4d;" x="184.5" xlink:href="#m01251eca1c" y="192.638371"/>
    </g>
   </g>
   <g id="PathCollection_3">
    <g clip-path="url(#p16d2e7ab7d)">
     <use style="fill:#ffffff;stroke:#4d4d4d;" x="277.5" xlink:href="#m01251eca1c" y="188.41647"/>
    </g>
   </g>
   <g id="text_15">
    <text style="fill:#262626;font-family:Cantarell;font-size:16.8px;font-stretch:normal;font-style:normal;font-weight:normal;text-anchor:middle;" transform="rotate(-0, 184.5, 37.2)" x="184.5" y="37.2">SigF_PDZ</text>
   </g>
  </g>
 </g>
 <defs>
  <clipPath id="p16d2e7ab7d">
   <rect height="271.8" width="279" x="45" y="43.2"/>
  </clipPath>
 </defs>
</svg>
