<?xml version="1.0" encoding="utf-8" standalone="no"?>
<!DOCTYPE svg PUBLIC "-//W3C//DTD SVG 1.1//EN"
  "http://www.w3.org/Graphics/SVG/1.1/DTD/svg11.dtd">
<!-- Created with matplotlib (https://matplotlib.org/) -->
<svg height="360pt" version="1.1" viewBox="0 0 360 360" width="360pt" xmlns="http://www.w3.org/2000/svg" xmlns:xlink="http://www.w3.org/1999/xlink">
 <metadata>
  <rdf:RDF xmlns:cc="http://creativecommons.org/ns#" xmlns:dc="http://purl.org/dc/elements/1.1/" xmlns:rdf="http://www.w3.org/1999/02/22-rdf-syntax-ns#">
   <cc:Work>
    <dc:type rdf:resource="http://purl.org/dc/dcmitype/StillImage"/>
    <dc:date>2023-04-13T14:39:28.206075</dc:date>
    <dc:format>image/svg+xml</dc:format>
    <dc:creator>
     <cc:Agent>
      <dc:title>Matplotlib v3.3.3, https://matplotlib.org/</dc:title>
     </cc:Agent>
    </dc:creator>
   </cc:Work>
  </rdf:RDF>
 </metadata>
 <defs>
  <style type="text/css">*{stroke-linecap:butt;stroke-linejoin:round;}</style>
 </defs>
 <g id="figure_1">
  <g id="patch_1">
   <path d="M 0 360 
L 360 360 
L 360 0 
L 0 0 
z
" style="fill:#ffffff;"/>
  </g>
  <g id="axes_1">
   <g id="patch_2">
    <path d="M 45 315 
L 324 315 
L 324 43.2 
L 45 43.2 
z
" style="fill:#ffffff;"/>
   </g>
   <g id="matplotlib.axis_1">
    <g id="xtick_1">
     <g id="line2d_1">
      <defs>
       <path d="M 0 0 
L 0 3.5 
" id="mab350b08ba" style="stroke:#262626;stroke-width:2;"/>
      </defs>
      <g>
       <use style="fill:#262626;stroke:#262626;stroke-width:2;" x="91.5" xlink:href="#mab350b08ba" y="315"/>
      </g>
     </g>
     <g id="text_1">
      <text style="fill:#262626;font-family:Cantarell;font-size:14px;font-stretch:normal;font-style:normal;font-weight:normal;text-anchor:middle;" transform="rotate(-0, 91.5, 332.051562)" x="91.5" y="332.051562">Coil</text>
     </g>
    </g>
    <g id="xtick_2">
     <g id="line2d_2">
      <g>
       <use style="fill:#262626;stroke:#262626;stroke-width:2;" x="184.5" xlink:href="#mab350b08ba" y="315"/>
      </g>
     </g>
     <g id="text_2">
      <text style="fill:#262626;font-family:Cantarell;font-size:14px;font-stretch:normal;font-style:normal;font-weight:normal;text-anchor:middle;" transform="rotate(-0, 184.5, 332.051562)" x="184.5" y="332.051562">Helix</text>
     </g>
    </g>
    <g id="xtick_3">
     <g id="line2d_3">
      <g>
       <use style="fill:#262626;stroke:#262626;stroke-width:2;" x="277.5" xlink:href="#mab350b08ba" y="315"/>
      </g>
     </g>
     <g id="text_3">
      <text style="fill:#262626;font-family:Cantarell;font-size:14px;font-stretch:normal;font-style:normal;font-weight:normal;text-anchor:middle;" transform="rotate(-0, 277.5, 332.051562)" x="277.5" y="332.051562">Sheet</text>
     </g>
    </g>
    <g id="text_4">
     <text style="fill:#262626;font-family:Cantarell;font-size:14px;font-stretch:normal;font-style:normal;font-weight:normal;text-anchor:middle;" transform="rotate(-0, 184.5, 349.574687)" x="184.5" y="349.574687">Sec structure</text>
    </g>
   </g>
   <g id="matplotlib.axis_2">
    <g id="ytick_1">
     <g id="line2d_4">
      <defs>
       <path d="M 0 0 
L -3.5 0 
" id="m46a1e0d4b2" style="stroke:#262626;stroke-width:2;"/>
      </defs>
      <g>
       <use style="fill:#262626;stroke:#262626;stroke-width:2;" x="45" xlink:href="#m46a1e0d4b2" y="298.521242"/>
      </g>
     </g>
     <g id="text_5">
      <text style="fill:#262626;font-family:Cantarell;font-size:14px;font-stretch:normal;font-style:normal;font-weight:normal;text-anchor:end;" transform="rotate(-0, 38, 303.547023)" x="38" y="303.547023">−12.5</text>
     </g>
    </g>
    <g id="ytick_2">
     <g id="line2d_5">
      <g>
       <use style="fill:#262626;stroke:#262626;stroke-width:2;" x="45" xlink:href="#m46a1e0d4b2" y="265.515157"/>
      </g>
     </g>
     <g id="text_6">
      <text style="fill:#262626;font-family:Cantarell;font-size:14px;font-stretch:normal;font-style:normal;font-weight:normal;text-anchor:end;" transform="rotate(-0, 38, 270.540938)" x="38" y="270.540938">−10.0</text>
     </g>
    </g>
    <g id="ytick_3">
     <g id="line2d_6">
      <g>
       <use style="fill:#262626;stroke:#262626;stroke-width:2;" x="45" xlink:href="#m46a1e0d4b2" y="232.509072"/>
      </g>
     </g>
     <g id="text_7">
      <text style="fill:#262626;font-family:Cantarell;font-size:14px;font-stretch:normal;font-style:normal;font-weight:normal;text-anchor:end;" transform="rotate(-0, 38, 237.534853)" x="38" y="237.534853">−7.5</text>
     </g>
    </g>
    <g id="ytick_4">
     <g id="line2d_7">
      <g>
       <use style="fill:#262626;stroke:#262626;stroke-width:2;" x="45" xlink:href="#m46a1e0d4b2" y="199.502986"/>
      </g>
     </g>
     <g id="text_8">
      <text style="fill:#262626;font-family:Cantarell;font-size:14px;font-stretch:normal;font-style:normal;font-weight:normal;text-anchor:end;" transform="rotate(-0, 38, 204.528768)" x="38" y="204.528768">−5.0</text>
     </g>
    </g>
    <g id="ytick_5">
     <g id="line2d_8">
      <g>
       <use style="fill:#262626;stroke:#262626;stroke-width:2;" x="45" xlink:href="#m46a1e0d4b2" y="166.496901"/>
      </g>
     </g>
     <g id="text_9">
      <text style="fill:#262626;font-family:Cantarell;font-size:14px;font-stretch:normal;font-style:normal;font-weight:normal;text-anchor:end;" transform="rotate(-0, 38, 171.522683)" x="38" y="171.522683">−2.5</text>
     </g>
    </g>
    <g id="ytick_6">
     <g id="line2d_9">
      <g>
       <use style="fill:#262626;stroke:#262626;stroke-width:2;" x="45" xlink:href="#m46a1e0d4b2" y="133.490816"/>
      </g>
     </g>
     <g id="text_10">
      <text style="fill:#262626;font-family:Cantarell;font-size:14px;font-stretch:normal;font-style:normal;font-weight:normal;text-anchor:end;" transform="rotate(-0, 38, 138.516598)" x="38" y="138.516598">0.0</text>
     </g>
    </g>
    <g id="ytick_7">
     <g id="line2d_10">
      <g>
       <use style="fill:#262626;stroke:#262626;stroke-width:2;" x="45" xlink:href="#m46a1e0d4b2" y="100.484731"/>
      </g>
     </g>
     <g id="text_11">
      <text style="fill:#262626;font-family:Cantarell;font-size:14px;font-stretch:normal;font-style:normal;font-weight:normal;text-anchor:end;" transform="rotate(-0, 38, 105.510513)" x="38" y="105.510513">2.5</text>
     </g>
    </g>
    <g id="ytick_8">
     <g id="line2d_11">
      <g>
       <use style="fill:#262626;stroke:#262626;stroke-width:2;" x="45" xlink:href="#m46a1e0d4b2" y="67.478646"/>
      </g>
     </g>
     <g id="text_12">
      <text style="fill:#262626;font-family:Cantarell;font-size:14px;font-stretch:normal;font-style:normal;font-weight:normal;text-anchor:end;" transform="rotate(-0, 38, 72.504428)" x="38" y="72.504428">5.0</text>
     </g>
    </g>
    <g id="text_13">
     <text style="fill:#262626;font-family:Cantarell;font-size:14px;font-stretch:normal;font-style:normal;font-weight:normal;text-anchor:middle;" transform="rotate(-90, -6.812188, 179.1)" x="-6.812188" y="179.1">Log2 variant enrichment</text>
    </g>
   </g>
   <g id="PolyCollection_1">
    <defs>
     <path d="M 91.936623 -61.79664 
L 91.063377 -61.79664 
L 90.91565 -64.217217 
L 90.733559 -66.637794 
L 90.514303 -69.058371 
L 90.25621 -71.478949 
L 89.95885 -73.899526 
L 89.622917 -76.320103 
L 89.249821 -78.74068 
L 88.840985 -81.161257 
L 88.396886 -83.581834 
L 87.915949 -86.002411 
L 87.39348 -88.422989 
L 86.820841 -90.843566 
L 86.185091 -93.264143 
L 85.469296 -95.68472 
L 84.653606 -98.105297 
L 83.717122 -100.525874 
L 82.640423 -102.946451 
L 81.408509 -105.367029 
L 80.013803 -107.787606 
L 78.45881 -110.208183 
L 76.758032 -112.62876 
L 74.938792 -115.049337 
L 73.040749 -117.469914 
L 71.114051 -119.890491 
L 69.216237 -122.311069 
L 67.408193 -124.731646 
L 65.749574 -127.152223 
L 64.294229 -129.5728 
L 63.086138 -131.993377 
L 62.156348 -134.413954 
L 61.521247 -136.834531 
L 61.18235 -139.255109 
L 61.127549 -141.675686 
L 61.333609 -144.096263 
L 61.7695 -146.51684 
L 62.400078 -148.937417 
L 63.189606 -151.357994 
L 64.10466 -153.778571 
L 65.116117 -156.199149 
L 66.200087 -158.619726 
L 67.337834 -161.040303 
L 68.514887 -163.46088 
L 69.719661 -165.881457 
L 70.94191 -168.302034 
L 72.171339 -170.722611 
L 73.396587 -173.143189 
L 74.604703 -175.563766 
L 75.781123 -177.984343 
L 76.91005 -180.40492 
L 77.975112 -182.825497 
L 78.960142 -185.246074 
L 79.849951 -187.666651 
L 80.630997 -190.087229 
L 81.291915 -192.507806 
L 81.823924 -194.928383 
L 82.221114 -197.34896 
L 82.480688 -199.769537 
L 82.603183 -202.190114 
L 82.592682 -204.610691 
L 82.457001 -207.031269 
L 82.207811 -209.451846 
L 81.860606 -211.872423 
L 81.434448 -214.293 
L 80.951427 -216.713577 
L 80.435806 -219.134154 
L 79.91288 -221.554731 
L 79.407648 -223.975309 
L 78.943442 -226.395886 
L 78.54069 -228.816463 
L 78.215978 -231.23704 
L 77.98156 -233.657617 
L 77.84534 -236.078194 
L 77.811317 -238.498772 
L 77.880353 -240.919349 
L 78.051076 -243.339926 
L 78.320719 -245.760503 
L 78.685709 -248.18108 
L 79.141896 -250.601657 
L 79.68441 -253.022234 
L 80.307219 -255.442812 
L 81.002545 -257.863389 
L 81.760333 -260.283966 
L 82.567943 -262.704543 
L 83.410213 -265.12512 
L 84.269924 -267.545697 
L 85.128643 -269.966274 
L 85.967835 -272.386852 
L 86.770069 -274.807429 
L 87.520156 -277.228006 
L 88.206056 -279.648583 
L 88.819458 -282.06916 
L 89.355977 -284.489737 
L 89.814979 -286.910314 
L 90.199114 -289.330892 
L 90.513637 -291.751469 
L 90.765624 -294.172046 
L 90.963196 -296.592623 
L 91.114816 -299.0132 
L 91.228716 -301.433777 
L 91.771284 -301.433777 
L 91.771284 -301.433777 
L 91.885184 -299.0132 
L 92.036804 -296.592623 
L 92.234376 -294.172046 
L 92.486363 -291.751469 
L 92.800886 -289.330892 
L 93.185021 -286.910314 
L 93.644023 -284.489737 
L 94.180542 -282.06916 
L 94.793944 -279.648583 
L 95.479844 -277.228006 
L 96.229931 -274.807429 
L 97.032165 -272.386852 
L 97.871357 -269.966274 
L 98.730076 -267.545697 
L 99.589787 -265.12512 
L 100.432057 -262.704543 
L 101.239667 -260.283966 
L 101.997455 -257.863389 
L 102.692781 -255.442812 
L 103.31559 -253.022234 
L 103.858104 -250.601657 
L 104.314291 -248.18108 
L 104.679281 -245.760503 
L 104.948924 -243.339926 
L 105.119647 -240.919349 
L 105.188683 -238.498772 
L 105.15466 -236.078194 
L 105.01844 -233.657617 
L 104.784022 -231.23704 
L 104.45931 -228.816463 
L 104.056558 -226.395886 
L 103.592352 -223.975309 
L 103.08712 -221.554731 
L 102.564194 -219.134154 
L 102.048573 -216.713577 
L 101.565552 -214.293 
L 101.139394 -211.872423 
L 100.792189 -209.451846 
L 100.542999 -207.031269 
L 100.407318 -204.610691 
L 100.396817 -202.190114 
L 100.519312 -199.769537 
L 100.778886 -197.34896 
L 101.176076 -194.928383 
L 101.708085 -192.507806 
L 102.369003 -190.087229 
L 103.150049 -187.666651 
L 104.039858 -185.246074 
L 105.024888 -182.825497 
L 106.08995 -180.40492 
L 107.218877 -177.984343 
L 108.395297 -175.563766 
L 109.603413 -173.143189 
L 110.828661 -170.722611 
L 112.05809 -168.302034 
L 113.280339 -165.881457 
L 114.485113 -163.46088 
L 115.662166 -161.040303 
L 116.799913 -158.619726 
L 117.883883 -156.199149 
L 118.89534 -153.778571 
L 119.810394 -151.357994 
L 120.599922 -148.937417 
L 121.2305 -146.51684 
L 121.666391 -144.096263 
L 121.872451 -141.675686 
L 121.81765 -139.255109 
L 121.478753 -136.834531 
L 120.843652 -134.413954 
L 119.913862 -131.993377 
L 118.705771 -129.5728 
L 117.250426 -127.152223 
L 115.591807 -124.731646 
L 113.783763 -122.311069 
L 111.885949 -119.890491 
L 109.959251 -117.469914 
L 108.061208 -115.049337 
L 106.241968 -112.62876 
L 104.54119 -110.208183 
L 102.986197 -107.787606 
L 101.591491 -105.367029 
L 100.359577 -102.946451 
L 99.282878 -100.525874 
L 98.346394 -98.105297 
L 97.530704 -95.68472 
L 96.814909 -93.264143 
L 96.179159 -90.843566 
L 95.60652 -88.422989 
L 95.084051 -86.002411 
L 94.603114 -83.581834 
L 94.159015 -81.161257 
L 93.750179 -78.74068 
L 93.377083 -76.320103 
L 93.04115 -73.899526 
L 92.74379 -71.478949 
L 92.485697 -69.058371 
L 92.266441 -66.637794 
L 92.08435 -64.217217 
L 91.936623 -61.79664 
z
" id="m33473e0e7d" style="stroke:#4d4d4d;stroke-width:2;"/>
    </defs>
    <g clip-path="url(#pf6e9880c3a)">
     <use style="fill:#808080;stroke:#4d4d4d;stroke-width:2;" x="0" xlink:href="#m33473e0e7d" y="360"/>
    </g>
   </g>
   <g id="PolyCollection_2">
    <defs>
     <path d="M 185.276924 -57.354545 
L 183.723076 -57.354545 
L 183.489692 -59.850413 
L 183.208775 -62.346281 
L 182.877778 -64.842149 
L 182.496038 -67.338017 
L 182.065102 -69.833884 
L 181.588865 -72.329752 
L 181.073428 -74.82562 
L 180.526659 -77.321488 
L 179.957426 -79.817355 
L 179.374561 -82.313223 
L 178.785645 -84.809091 
L 178.195756 -87.304959 
L 177.606348 -89.800826 
L 177.014468 -92.296694 
L 176.412456 -94.792562 
L 175.788264 -97.28843 
L 175.12644 -99.784298 
L 174.409734 -102.280165 
L 173.621198 -104.776033 
L 172.746553 -107.271901 
L 171.776553 -109.767769 
L 170.70905 -112.263636 
L 169.550451 -114.759504 
L 168.316372 -117.255372 
L 167.031324 -119.75124 
L 165.727426 -122.247107 
L 164.442238 -124.742975 
L 163.215921 -127.238843 
L 162.088026 -129.734711 
L 161.094244 -132.230579 
L 160.263487 -134.726446 
L 159.615581 -137.222314 
L 159.159838 -139.718182 
L 158.894617 -142.21405 
L 158.807906 -144.709917 
L 158.878828 -147.205785 
L 159.079891 -149.701653 
L 159.379723 -152.197521 
L 159.746003 -154.693388 
L 160.148308 -157.189256 
L 160.560604 -159.685124 
L 160.963189 -162.180992 
L 161.343933 -164.67686 
L 161.698761 -167.172727 
L 162.031388 -169.668595 
L 162.352364 -172.164463 
L 162.677562 -174.660331 
L 163.026262 -177.156198 
L 163.419012 -179.652066 
L 163.875445 -182.147934 
L 164.412245 -184.643802 
L 165.041411 -187.139669 
L 165.768944 -189.635537 
L 166.594063 -192.131405 
L 167.508981 -194.627273 
L 168.499245 -197.12314 
L 169.544589 -199.619008 
L 170.620209 -202.114876 
L 171.698346 -204.610744 
L 172.750023 -207.106612 
L 173.746799 -209.602479 
L 174.662412 -212.098347 
L 175.474186 -214.594215 
L 176.164135 -217.090083 
L 176.71972 -219.58595 
L 177.134256 -222.081818 
L 177.406986 -224.577686 
L 177.54289 -227.073554 
L 177.55226 -229.569421 
L 177.450115 -232.065289 
L 177.255492 -234.561157 
L 176.990641 -237.057025 
L 176.680148 -239.552893 
L 176.349979 -242.04876 
L 176.026449 -244.544628 
L 175.735138 -247.040496 
L 175.499768 -249.536364 
L 175.341085 -252.032231 
L 175.27583 -254.528099 
L 175.315857 -257.023967 
L 175.467504 -259.519835 
L 175.73128 -262.015702 
L 176.101922 -264.51157 
L 176.568844 -267.007438 
L 177.116951 -269.503306 
L 177.727754 -271.999174 
L 178.380689 -274.495041 
L 179.054515 -276.990909 
L 179.728665 -279.486777 
L 180.384443 -281.982645 
L 181.005955 -284.478512 
L 181.580739 -286.97438 
L 182.100047 -289.470248 
L 182.558825 -291.966116 
L 182.955421 -294.461983 
L 183.291085 -296.957851 
L 183.569361 -299.453719 
L 183.795419 -301.949587 
L 183.97542 -304.445455 
L 185.02458 -304.445455 
L 185.02458 -304.445455 
L 185.204581 -301.949587 
L 185.430639 -299.453719 
L 185.708915 -296.957851 
L 186.044579 -294.461983 
L 186.441175 -291.966116 
L 186.899953 -289.470248 
L 187.419261 -286.97438 
L 187.994045 -284.478512 
L 188.615557 -281.982645 
L 189.271335 -279.486777 
L 189.945485 -276.990909 
L 190.619311 -274.495041 
L 191.272246 -271.999174 
L 191.883049 -269.503306 
L 192.431156 -267.007438 
L 192.898078 -264.51157 
L 193.26872 -262.015702 
L 193.532496 -259.519835 
L 193.684143 -257.023967 
L 193.72417 -254.528099 
L 193.658915 -252.032231 
L 193.500232 -249.536364 
L 193.264862 -247.040496 
L 192.973551 -244.544628 
L 192.650021 -242.04876 
L 192.319852 -239.552893 
L 192.009359 -237.057025 
L 191.744508 -234.561157 
L 191.549885 -232.065289 
L 191.44774 -229.569421 
L 191.45711 -227.073554 
L 191.593014 -224.577686 
L 191.865744 -222.081818 
L 192.28028 -219.58595 
L 192.835865 -217.090083 
L 193.525814 -214.594215 
L 194.337588 -212.098347 
L 195.253201 -209.602479 
L 196.249977 -207.106612 
L 197.301654 -204.610744 
L 198.379791 -202.114876 
L 199.455411 -199.619008 
L 200.500755 -197.12314 
L 201.491019 -194.627273 
L 202.405937 -192.131405 
L 203.231056 -189.635537 
L 203.958589 -187.139669 
L 204.587755 -184.643802 
L 205.124555 -182.147934 
L 205.580988 -179.652066 
L 205.973738 -177.156198 
L 206.322438 -174.660331 
L 206.647636 -172.164463 
L 206.968612 -169.668595 
L 207.301239 -167.172727 
L 207.656067 -164.67686 
L 208.036811 -162.180992 
L 208.439396 -159.685124 
L 208.851692 -157.189256 
L 209.253997 -154.693388 
L 209.620277 -152.197521 
L 209.920109 -149.701653 
L 210.121172 -147.205785 
L 210.192094 -144.709917 
L 210.105383 -142.21405 
L 209.840162 -139.718182 
L 209.384419 -137.222314 
L 208.736513 -134.726446 
L 207.905756 -132.230579 
L 206.911974 -129.734711 
L 205.784079 -127.238843 
L 204.557762 -124.742975 
L 203.272574 -122.247107 
L 201.968676 -119.75124 
L 200.683628 -117.255372 
L 199.449549 -114.759504 
L 198.29095 -112.263636 
L 197.223447 -109.767769 
L 196.253447 -107.271901 
L 195.378802 -104.776033 
L 194.590266 -102.280165 
L 193.87356 -99.784298 
L 193.211736 -97.28843 
L 192.587544 -94.792562 
L 191.985532 -92.296694 
L 191.393652 -89.800826 
L 190.804244 -87.304959 
L 190.214355 -84.809091 
L 189.625439 -82.313223 
L 189.042574 -79.817355 
L 188.473341 -77.321488 
L 187.926572 -74.82562 
L 187.411135 -72.329752 
L 186.934898 -69.833884 
L 186.503962 -67.338017 
L 186.122222 -64.842149 
L 185.791225 -62.346281 
L 185.510308 -59.850413 
L 185.276924 -57.354545 
z
" id="m9083bf1735" style="stroke:#4d4d4d;stroke-width:2;"/>
    </defs>
    <g clip-path="url(#pf6e9880c3a)">
     <use style="fill:#808080;stroke:#4d4d4d;stroke-width:2;" x="0" xlink:href="#m9083bf1735" y="360"/>
    </g>
   </g>
   <g id="PolyCollection_3">
    <defs>
     <path d="M 277.806338 -65.078094 
L 277.193662 -65.078094 
L 277.076447 -67.495227 
L 276.928515 -69.912359 
L 276.746924 -72.329492 
L 276.529797 -74.746625 
L 276.276324 -77.163758 
L 275.986422 -79.58089 
L 275.659951 -81.998023 
L 275.295505 -84.415156 
L 274.888876 -86.832289 
L 274.431387 -89.249421 
L 273.908404 -91.666554 
L 273.298389 -94.083687 
L 272.572835 -96.50082 
L 271.697387 -98.917953 
L 270.6343 -101.335085 
L 269.346215 -103.752218 
L 267.801028 -106.169351 
L 265.977397 -108.586484 
L 263.870266 -111.003616 
L 261.495631 -113.420749 
L 258.893742 -115.837882 
L 256.129979 -118.255015 
L 253.29287 -120.672147 
L 250.489016 -123.08928 
L 247.835159 -125.506413 
L 245.448095 -127.923546 
L 243.433587 -130.340678 
L 241.875721 -132.757811 
L 240.828252 -135.174944 
L 240.309258 -137.592077 
L 240.3 -140.00921 
L 240.748196 -142.426342 
L 241.575262 -144.843475 
L 242.686412 -147.260608 
L 243.982077 -149.677741 
L 245.36901 -152.094873 
L 246.769531 -154.512006 
L 248.127825 -156.929139 
L 249.412715 -159.346272 
L 250.616939 -161.763404 
L 251.753444 -164.180537 
L 252.84958 -166.59767 
L 253.940253 -169.014803 
L 255.061063 -171.431935 
L 256.242334 -173.849068 
L 257.504649 -176.266201 
L 258.856254 -178.683334 
L 260.292351 -181.100467 
L 261.796095 -183.517599 
L 263.340895 -185.934732 
L 264.893523 -188.351865 
L 266.417514 -190.768998 
L 267.876389 -193.18613 
L 269.23632 -195.603263 
L 270.468036 -198.020396 
L 271.547871 -200.437529 
L 272.458023 -202.854661 
L 273.186207 -205.271794 
L 273.724903 -207.688927 
L 274.070506 -210.10606 
L 274.222584 -212.523192 
L 274.183474 -214.940325 
L 273.958326 -217.357458 
L 273.555633 -219.774591 
L 272.988181 -222.191724 
L 272.274228 -224.608856 
L 271.438648 -227.025989 
L 270.513711 -229.443122 
L 269.539144 -231.860255 
L 268.561197 -234.277387 
L 267.630571 -236.69452 
L 266.799247 -239.111653 
L 266.116489 -241.528786 
L 265.624498 -243.945918 
L 265.354339 -246.363051 
L 265.322773 -248.780184 
L 265.530557 -251.197317 
L 265.962512 -253.61445 
L 266.589421 -256.031582 
L 267.371449 -258.448715 
L 268.262571 -260.865848 
L 269.215321 -263.282981 
L 270.185169 -265.700113 
L 271.133953 -268.117246 
L 272.032027 -270.534379 
L 272.859017 -272.951512 
L 273.603361 -275.368644 
L 274.260939 -277.785777 
L 274.833225 -280.20291 
L 275.325353 -282.620043 
L 275.744415 -285.037175 
L 276.098163 -287.454308 
L 276.394196 -289.871441 
L 276.639547 -292.288574 
L 276.840587 -294.705707 
L 277.003087 -297.122839 
L 277.132349 -299.539972 
L 277.233301 -301.957105 
L 277.310547 -304.374238 
L 277.689453 -304.374238 
L 277.689453 -304.374238 
L 277.766699 -301.957105 
L 277.867651 -299.539972 
L 277.996913 -297.122839 
L 278.159413 -294.705707 
L 278.360453 -292.288574 
L 278.605804 -289.871441 
L 278.901837 -287.454308 
L 279.255585 -285.037175 
L 279.674647 -282.620043 
L 280.166775 -280.20291 
L 280.739061 -277.785777 
L 281.396639 -275.368644 
L 282.140983 -272.951512 
L 282.967973 -270.534379 
L 283.866047 -268.117246 
L 284.814831 -265.700113 
L 285.784679 -263.282981 
L 286.737429 -260.865848 
L 287.628551 -258.448715 
L 288.410579 -256.031582 
L 289.037488 -253.61445 
L 289.469443 -251.197317 
L 289.677227 -248.780184 
L 289.645661 -246.363051 
L 289.375502 -243.945918 
L 288.883511 -241.528786 
L 288.200753 -239.111653 
L 287.369429 -236.69452 
L 286.438803 -234.277387 
L 285.460856 -231.860255 
L 284.486289 -229.443122 
L 283.561352 -227.025989 
L 282.725772 -224.608856 
L 282.011819 -222.191724 
L 281.444367 -219.774591 
L 281.041674 -217.357458 
L 280.816526 -214.940325 
L 280.777416 -212.523192 
L 280.929494 -210.10606 
L 281.275097 -207.688927 
L 281.813793 -205.271794 
L 282.541977 -202.854661 
L 283.452129 -200.437529 
L 284.531964 -198.020396 
L 285.76368 -195.603263 
L 287.123611 -193.18613 
L 288.582486 -190.768998 
L 290.106477 -188.351865 
L 291.659105 -185.934732 
L 293.203905 -183.517599 
L 294.707649 -181.100467 
L 296.143746 -178.683334 
L 297.495351 -176.266201 
L 298.757666 -173.849068 
L 299.938937 -171.431935 
L 301.059747 -169.014803 
L 302.15042 -166.59767 
L 303.246556 -164.180537 
L 304.383061 -161.763404 
L 305.587285 -159.346272 
L 306.872175 -156.929139 
L 308.230469 -154.512006 
L 309.63099 -152.094873 
L 311.017923 -149.677741 
L 312.313588 -147.260608 
L 313.424738 -144.843475 
L 314.251804 -142.426342 
L 314.7 -140.00921 
L 314.690742 -137.592077 
L 314.171748 -135.174944 
L 313.124279 -132.757811 
L 311.566413 -130.340678 
L 309.551905 -127.923546 
L 307.164841 -125.506413 
L 304.510984 -123.08928 
L 301.70713 -120.672147 
L 298.870021 -118.255015 
L 296.106258 -115.837882 
L 293.504369 -113.420749 
L 291.129734 -111.003616 
L 289.022603 -108.586484 
L 287.198972 -106.169351 
L 285.653785 -103.752218 
L 284.3657 -101.335085 
L 283.302613 -98.917953 
L 282.427165 -96.50082 
L 281.701611 -94.083687 
L 281.091596 -91.666554 
L 280.568613 -89.249421 
L 280.111124 -86.832289 
L 279.704495 -84.415156 
L 279.340049 -81.998023 
L 279.013578 -79.58089 
L 278.723676 -77.163758 
L 278.470203 -74.746625 
L 278.253076 -72.329492 
L 278.071485 -69.912359 
L 277.923553 -67.495227 
L 277.806338 -65.078094 
z
" id="m92c8f61eca" style="stroke:#4d4d4d;stroke-width:2;"/>
    </defs>
    <g clip-path="url(#pf6e9880c3a)">
     <use style="fill:#808080;stroke:#4d4d4d;stroke-width:2;" x="0" xlink:href="#m92c8f61eca" y="360"/>
    </g>
   </g>
   <g id="line2d_12">
    <path clip-path="url(#pf6e9880c3a)" d="M 91.5 265.515157 
L 91.5 91.254426 
" style="fill:none;stroke:#000000;stroke-linecap:round;stroke-width:2;"/>
   </g>
   <g id="line2d_13">
    <path clip-path="url(#pf6e9880c3a)" d="M 91.5 225.580604 
L 91.5 141.910357 
" style="fill:none;stroke:#000000;stroke-linecap:round;stroke-width:6;"/>
   </g>
   <g id="line2d_14">
    <path clip-path="url(#pf6e9880c3a)" d="M 184.5 265.515157 
L 184.5 92.684843 
" style="fill:none;stroke:#000000;stroke-linecap:round;stroke-width:2;"/>
   </g>
   <g id="line2d_15">
    <path clip-path="url(#pf6e9880c3a)" d="M 184.5 223.166195 
L 184.5 168.729109 
" style="fill:none;stroke:#000000;stroke-linecap:round;stroke-width:6;"/>
   </g>
   <g id="line2d_16">
    <path clip-path="url(#pf6e9880c3a)" d="M 277.5 265.515157 
L 277.5 113.633442 
" style="fill:none;stroke:#000000;stroke-linecap:round;stroke-width:2;"/>
   </g>
   <g id="line2d_17">
    <path clip-path="url(#pf6e9880c3a)" d="M 277.5 225.440739 
L 277.5 180.691161 
" style="fill:none;stroke:#000000;stroke-linecap:round;stroke-width:6;"/>
   </g>
   <g id="patch_3">
    <path d="M 45 315 
L 45 43.2 
" style="fill:none;stroke:#262626;stroke-linecap:square;stroke-linejoin:miter;stroke-width:2;"/>
   </g>
   <g id="patch_4">
    <path d="M 45 315 
L 324 315 
" style="fill:none;stroke:#262626;stroke-linecap:square;stroke-linejoin:miter;stroke-width:2;"/>
   </g>
   <g id="PathCollection_1">
    <defs>
     <path d="M 0 2 
C 0.530406 2 1.03916 1.789267 1.414214 1.414214 
C 1.789267 1.03916 2 0.530406 2 0 
C 2 -0.530406 1.789267 -1.03916 1.414214 -1.414214 
C 1.03916 -1.789267 0.530406 -2 0 -2 
C -0.530406 -2 -1.03916 -1.789267 -1.414214 -1.414214 
C -1.789267 -1.03916 -2 -0.530406 -2 0 
C -2 0.530406 -1.789267 1.03916 -1.414214 1.414214 
C -1.03916 1.789267 -0.530406 2 0 2 
z
" id="m2de8b11e3c" style="stroke:#4d4d4d;"/>
    </defs>
    <g clip-path="url(#pf6e9880c3a)">
     <use style="fill:#ffffff;stroke:#4d4d4d;" x="91.5" xlink:href="#m2de8b11e3c" y="200.403271"/>
    </g>
   </g>
   <g id="PathCollection_2">
    <g clip-path="url(#pf6e9880c3a)">
     <use style="fill:#ffffff;stroke:#4d4d4d;" x="184.5" xlink:href="#m2de8b11e3c" y="199.936159"/>
    </g>
   </g>
   <g id="PathCollection_3">
    <g clip-path="url(#pf6e9880c3a)">
     <use style="fill:#ffffff;stroke:#4d4d4d;" x="277.5" xlink:href="#m2de8b11e3c" y="209.880855"/>
    </g>
   </g>
   <g id="text_14">
    <text style="fill:#262626;font-family:Cantarell;font-size:16.8px;font-stretch:normal;font-style:normal;font-weight:normal;text-anchor:middle;" transform="rotate(-0, 184.5, 37.2)" x="184.5" y="37.2">AraC_PDZ</text>
   </g>
  </g>
 </g>
 <defs>
  <clipPath id="pf6e9880c3a">
   <rect height="271.8" width="279" x="45" y="43.2"/>
  </clipPath>
 </defs>
</svg>
