<?xml version="1.0" encoding="utf-8" standalone="no"?>
<!DOCTYPE svg PUBLIC "-//W3C//DTD SVG 1.1//EN"
  "http://www.w3.org/Graphics/SVG/1.1/DTD/svg11.dtd">
<svg xmlns:xlink="http://www.w3.org/1999/xlink" width="360pt" height="360pt" viewBox="0 0 360 360" xmlns="http://www.w3.org/2000/svg" version="1.1">
 <metadata>
  <rdf:RDF xmlns:dc="http://purl.org/dc/elements/1.1/" xmlns:cc="http://creativecommons.org/ns#" xmlns:rdf="http://www.w3.org/1999/02/22-rdf-syntax-ns#">
   <cc:Work>
    <dc:type rdf:resource="http://purl.org/dc/dcmitype/StillImage"/>
    <dc:date>2023-12-01T16:46:54.323582</dc:date>
    <dc:format>image/svg+xml</dc:format>
    <dc:creator>
     <cc:Agent>
      <dc:title>Matplotlib v3.5.3, https://matplotlib.org/</dc:title>
     </cc:Agent>
    </dc:creator>
   </cc:Work>
  </rdf:RDF>
 </metadata>
 <defs>
  <style type="text/css">*{stroke-linejoin: round; stroke-linecap: butt}</style>
 </defs>
 <g id="figure_1">
  <g id="patch_1">
   <path d="M 0 360 
L 360 360 
L 360 0 
L 0 0 
z
" style="fill: #ffffff"/>
  </g>
  <g id="axes_1">
   <g id="patch_2">
    <path d="M 45 320.4 
L 324 320.4 
L 324 43.2 
L 45 43.2 
z
" style="fill: #ffffff"/>
   </g>
   <g id="matplotlib.axis_1">
    <g id="xtick_1">
     <g id="line2d_1">
      <defs>
       <path id="mef122c2899" d="M 0 0 
L 0 3.5 
" style="stroke: #262626; stroke-width: 2"/>
      </defs>
      <g>
       <use xlink:href="#mef122c2899" x="112.065619" y="320.4" style="fill: #262626; stroke: #262626; stroke-width: 2"/>
      </g>
     </g>
     <g id="text_1">
      <text style="fill: #262626; font: 14px 'sans-serif'; text-anchor: middle" x="112.065619" y="338.037813" transform="rotate(-0, 112.065619, 338.037813)">−5</text>
     </g>
    </g>
    <g id="xtick_2">
     <g id="line2d_2">
      <g>
       <use xlink:href="#mef122c2899" x="203.29175" y="320.4" style="fill: #262626; stroke: #262626; stroke-width: 2"/>
      </g>
     </g>
     <g id="text_2">
      <text style="fill: #262626; font: 14px 'sans-serif'; text-anchor: middle" x="203.29175" y="338.037813" transform="rotate(-0, 203.29175, 338.037813)">0</text>
     </g>
    </g>
    <g id="xtick_3">
     <g id="line2d_3">
      <g>
       <use xlink:href="#mef122c2899" x="294.517881" y="320.4" style="fill: #262626; stroke: #262626; stroke-width: 2"/>
      </g>
     </g>
     <g id="text_3">
      <text style="fill: #262626; font: 14px 'sans-serif'; text-anchor: middle" x="294.517881" y="338.037813" transform="rotate(-0, 294.517881, 338.037813)">5</text>
     </g>
    </g>
    <g id="text_4">
     <text style="fill: #262626; font: 14px 'sans-serif'; text-anchor: middle" x="184.5" y="355.587188" transform="rotate(-0, 184.5, 355.587188)">Rep-2 log2 enriched read counts</text>
    </g>
   </g>
   <g id="matplotlib.axis_2">
    <g id="ytick_1">
     <g id="line2d_4">
      <defs>
       <path id="ma2bf2d3114" d="M 0 0 
L -3.5 0 
" style="stroke: #262626; stroke-width: 2"/>
      </defs>
      <g>
       <use xlink:href="#ma2bf2d3114" x="45" y="308.149608" style="fill: #262626; stroke: #262626; stroke-width: 2"/>
      </g>
     </g>
     <g id="text_5">
      <text style="fill: #262626; font: 14px 'sans-serif'; text-anchor: end" x="38" y="313.468514" transform="rotate(-0, 38, 313.468514)">−8</text>
     </g>
    </g>
    <g id="ytick_2">
     <g id="line2d_5">
      <g>
       <use xlink:href="#ma2bf2d3114" x="45" y="271.894577" style="fill: #262626; stroke: #262626; stroke-width: 2"/>
      </g>
     </g>
     <g id="text_6">
      <text style="fill: #262626; font: 14px 'sans-serif'; text-anchor: end" x="38" y="277.213484" transform="rotate(-0, 38, 277.213484)">−6</text>
     </g>
    </g>
    <g id="ytick_3">
     <g id="line2d_6">
      <g>
       <use xlink:href="#ma2bf2d3114" x="45" y="235.639547" style="fill: #262626; stroke: #262626; stroke-width: 2"/>
      </g>
     </g>
     <g id="text_7">
      <text style="fill: #262626; font: 14px 'sans-serif'; text-anchor: end" x="38" y="240.958454" transform="rotate(-0, 38, 240.958454)">−4</text>
     </g>
    </g>
    <g id="ytick_4">
     <g id="line2d_7">
      <g>
       <use xlink:href="#ma2bf2d3114" x="45" y="199.384517" style="fill: #262626; stroke: #262626; stroke-width: 2"/>
      </g>
     </g>
     <g id="text_8">
      <text style="fill: #262626; font: 14px 'sans-serif'; text-anchor: end" x="38" y="204.703424" transform="rotate(-0, 38, 204.703424)">−2</text>
     </g>
    </g>
    <g id="ytick_5">
     <g id="line2d_8">
      <g>
       <use xlink:href="#ma2bf2d3114" x="45" y="163.129487" style="fill: #262626; stroke: #262626; stroke-width: 2"/>
      </g>
     </g>
     <g id="text_9">
      <text style="fill: #262626; font: 14px 'sans-serif'; text-anchor: end" x="38" y="168.448393" transform="rotate(-0, 38, 168.448393)">0</text>
     </g>
    </g>
    <g id="ytick_6">
     <g id="line2d_9">
      <g>
       <use xlink:href="#ma2bf2d3114" x="45" y="126.874457" style="fill: #262626; stroke: #262626; stroke-width: 2"/>
      </g>
     </g>
     <g id="text_10">
      <text style="fill: #262626; font: 14px 'sans-serif'; text-anchor: end" x="38" y="132.193363" transform="rotate(-0, 38, 132.193363)">2</text>
     </g>
    </g>
    <g id="ytick_7">
     <g id="line2d_10">
      <g>
       <use xlink:href="#ma2bf2d3114" x="45" y="90.619427" style="fill: #262626; stroke: #262626; stroke-width: 2"/>
      </g>
     </g>
     <g id="text_11">
      <text style="fill: #262626; font: 14px 'sans-serif'; text-anchor: end" x="38" y="95.938333" transform="rotate(-0, 38, 95.938333)">4</text>
     </g>
    </g>
    <g id="ytick_8">
     <g id="line2d_11">
      <g>
       <use xlink:href="#ma2bf2d3114" x="45" y="54.364397" style="fill: #262626; stroke: #262626; stroke-width: 2"/>
      </g>
     </g>
     <g id="text_12">
      <text style="fill: #262626; font: 14px 'sans-serif'; text-anchor: end" x="38" y="59.683303" transform="rotate(-0, 38, 59.683303)">6</text>
     </g>
    </g>
    <g id="text_13">
     <text style="fill: #262626; font: 14px 'sans-serif'; text-anchor: middle" x="10.449375" y="181.8" transform="rotate(-90, 10.449375, 181.8)">Rep-1 log2 enriched read counts</text>
    </g>
   </g>
   <g id="PathCollection_1">
    <defs>
     <path id="mfa8c4b4a80" d="M 0 3 
C 0.795609 3 1.55874 2.683901 2.12132 2.12132 
C 2.683901 1.55874 3 0.795609 3 0 
C 3 -0.795609 2.683901 -1.55874 2.12132 -2.12132 
C 1.55874 -2.683901 0.795609 -3 0 -3 
C -0.795609 -3 -1.55874 -2.683901 -2.12132 -2.12132 
C -2.683901 -1.55874 -3 -0.795609 -3 0 
C -3 0.795609 -2.683901 1.55874 -2.12132 2.12132 
C -1.55874 2.683901 -0.795609 3 0 3 
z
"/>
    </defs>
    <g clip-path="url(#pf3feefb79f)">
     <use xlink:href="#mfa8c4b4a80" x="180.250617" y="248.899813" style="fill: #808080; fill-opacity: 0.4"/>
     <use xlink:href="#mfa8c4b4a80" x="192.491991" y="251.175376" style="fill: #808080; fill-opacity: 0.4"/>
     <use xlink:href="#mfa8c4b4a80" x="173.436784" y="188.464478" style="fill: #808080; fill-opacity: 0.4"/>
     <use xlink:href="#mfa8c4b4a80" x="189.604463" y="226.475367" style="fill: #808080; fill-opacity: 0.4"/>
     <use xlink:href="#mfa8c4b4a80" x="162.227897" y="205.173965" style="fill: #808080; fill-opacity: 0.4"/>
     <use xlink:href="#mfa8c4b4a80" x="180.473123" y="247.264751" style="fill: #808080; fill-opacity: 0.4"/>
     <use xlink:href="#mfa8c4b4a80" x="148.511471" y="173.010547" style="fill: #808080; fill-opacity: 0.4"/>
     <use xlink:href="#mfa8c4b4a80" x="149.909444" y="238.295897" style="fill: #808080; fill-opacity: 0.4"/>
     <use xlink:href="#mfa8c4b4a80" x="163.091" y="246.407216" style="fill: #808080; fill-opacity: 0.4"/>
     <use xlink:href="#mfa8c4b4a80" x="168.373114" y="246.407216" style="fill: #808080; fill-opacity: 0.4"/>
     <use xlink:href="#mfa8c4b4a80" x="144.607561" y="219.129074" style="fill: #808080; fill-opacity: 0.4"/>
     <use xlink:href="#mfa8c4b4a80" x="163.355548" y="248.899813" style="fill: #808080; fill-opacity: 0.4"/>
     <use xlink:href="#mfa8c4b4a80" x="186.526143" y="242.664775" style="fill: #808080; fill-opacity: 0.4"/>
     <use xlink:href="#mfa8c4b4a80" x="178.235906" y="206.120764" style="fill: #808080; fill-opacity: 0.4"/>
     <use xlink:href="#mfa8c4b4a80" x="196.481132" y="246.407216" style="fill: #808080; fill-opacity: 0.4"/>
     <use xlink:href="#mfa8c4b4a80" x="163.40251" y="244.602882" style="fill: #808080; fill-opacity: 0.4"/>
     <use xlink:href="#mfa8c4b4a80" x="167.1486" y="246.407216" style="fill: #808080; fill-opacity: 0.4"/>
     <use xlink:href="#mfa8c4b4a80" x="161.806731" y="250.438638" style="fill: #808080; fill-opacity: 0.4"/>
     <use xlink:href="#mfa8c4b4a80" x="172.479504" y="250.438638" style="fill: #808080; fill-opacity: 0.4"/>
     <use xlink:href="#mfa8c4b4a80" x="160.433082" y="224.759835" style="fill: #808080; fill-opacity: 0.4"/>
     <use xlink:href="#mfa8c4b4a80" x="165.864331" y="241.217233" style="fill: #808080; fill-opacity: 0.4"/>
     <use xlink:href="#mfa8c4b4a80" x="179.731601" y="216.440005" style="fill: #808080; fill-opacity: 0.4"/>
     <use xlink:href="#mfa8c4b4a80" x="178.998925" y="278.411974" style="fill: #808080; fill-opacity: 0.4"/>
     <use xlink:href="#mfa8c4b4a80" x="159.796419" y="243.844786" style="fill: #808080; fill-opacity: 0.4"/>
     <use xlink:href="#mfa8c4b4a80" x="173.568067" y="288.498003" style="fill: #808080; fill-opacity: 0.4"/>
     <use xlink:href="#mfa8c4b4a80" x="173.60939" y="263.193285" style="fill: #808080; fill-opacity: 0.4"/>
     <use xlink:href="#mfa8c4b4a80" x="162.376911" y="239.26822" style="fill: #808080; fill-opacity: 0.4"/>
     <use xlink:href="#mfa8c4b4a80" x="166.756698" y="269.483878" style="fill: #808080; fill-opacity: 0.4"/>
     <use xlink:href="#mfa8c4b4a80" x="181.573901" y="251.714622" style="fill: #808080; fill-opacity: 0.4"/>
     <use xlink:href="#mfa8c4b4a80" x="164.35979" y="290.510724" style="fill: #808080; fill-opacity: 0.4"/>
     <use xlink:href="#mfa8c4b4a80" x="179.310435" y="221.781821" style="fill: #808080; fill-opacity: 0.4"/>
     <use xlink:href="#mfa8c4b4a80" x="174.642596" y="258.698975" style="fill: #808080; fill-opacity: 0.4"/>
     <use xlink:href="#mfa8c4b4a80" x="169.518825" y="240.020861" style="fill: #808080; fill-opacity: 0.4"/>
     <use xlink:href="#mfa8c4b4a80" x="169.072751" y="290.510724" style="fill: #808080; fill-opacity: 0.4"/>
     <use xlink:href="#mfa8c4b4a80" x="175.11393" y="263.193285" style="fill: #808080; fill-opacity: 0.4"/>
     <use xlink:href="#mfa8c4b4a80" x="172.595461" y="252.416744" style="fill: #808080; fill-opacity: 0.4"/>
     <use xlink:href="#mfa8c4b4a80" x="161.535644" y="283.094528" style="fill: #808080; fill-opacity: 0.4"/>
     <use xlink:href="#mfa8c4b4a80" x="177.394584" y="270.544259" style="fill: #808080; fill-opacity: 0.4"/>
     <use xlink:href="#mfa8c4b4a80" x="162.070395" y="288.323069" style="fill: #808080; fill-opacity: 0.4"/>
     <use xlink:href="#mfa8c4b4a80" x="150.080925" y="246.925104" style="fill: #808080; fill-opacity: 0.4"/>
     <use xlink:href="#mfa8c4b4a80" x="160.686464" y="262.730397" style="fill: #808080; fill-opacity: 0.4"/>
     <use xlink:href="#mfa8c4b4a80" x="171.122384" y="277.762996" style="fill: #808080; fill-opacity: 0.4"/>
     <use xlink:href="#mfa8c4b4a80" x="148.084998" y="262.730397" style="fill: #808080; fill-opacity: 0.4"/>
     <use xlink:href="#mfa8c4b4a80" x="167.422318" y="290.831618" style="fill: #808080; fill-opacity: 0.4"/>
     <use xlink:href="#mfa8c4b4a80" x="161.467084" y="289.523721" style="fill: #808080; fill-opacity: 0.4"/>
     <use xlink:href="#mfa8c4b4a80" x="163.983367" y="251.356363" style="fill: #808080; fill-opacity: 0.4"/>
     <use xlink:href="#mfa8c4b4a80" x="152.729737" y="291.461828" style="fill: #808080; fill-opacity: 0.4"/>
     <use xlink:href="#mfa8c4b4a80" x="125.950581" y="296.667374" style="fill: #808080; fill-opacity: 0.4"/>
     <use xlink:href="#mfa8c4b4a80" x="140.848408" y="266.493586" style="fill: #808080; fill-opacity: 0.4"/>
     <use xlink:href="#mfa8c4b4a80" x="156.868704" y="247.821208" style="fill: #808080; fill-opacity: 0.4"/>
     <use xlink:href="#mfa8c4b4a80" x="156.050329" y="266.761819" style="fill: #808080; fill-opacity: 0.4"/>
     <use xlink:href="#mfa8c4b4a80" x="177.347085" y="284.350088" style="fill: #808080; fill-opacity: 0.4"/>
     <use xlink:href="#mfa8c4b4a80" x="117.58761" y="273.489521" style="fill: #808080; fill-opacity: 0.4"/>
     <use xlink:href="#mfa8c4b4a80" x="167.995623" y="291.148621" style="fill: #808080; fill-opacity: 0.4"/>
     <use xlink:href="#mfa8c4b4a80" x="175.887138" y="265.180504" style="fill: #808080; fill-opacity: 0.4"/>
     <use xlink:href="#mfa8c4b4a80" x="160.417702" y="243.408497" style="fill: #808080; fill-opacity: 0.4"/>
     <use xlink:href="#mfa8c4b4a80" x="167.723147" y="247.052989" style="fill: #808080; fill-opacity: 0.4"/>
     <use xlink:href="#mfa8c4b4a80" x="151.768261" y="267.935943" style="fill: #808080; fill-opacity: 0.4"/>
     <use xlink:href="#mfa8c4b4a80" x="152.653249" y="252.009467" style="fill: #808080; fill-opacity: 0.4"/>
     <use xlink:href="#mfa8c4b4a80" x="121.984857" y="220.168382" style="fill: #808080; fill-opacity: 0.4"/>
     <use xlink:href="#mfa8c4b4a80" x="161.187354" y="255.822179" style="fill: #808080; fill-opacity: 0.4"/>
     <use xlink:href="#mfa8c4b4a80" x="159.226495" y="236.766076" style="fill: #808080; fill-opacity: 0.4"/>
     <use xlink:href="#mfa8c4b4a80" x="107.834071" y="257.204141" style="fill: #808080; fill-opacity: 0.4"/>
     <use xlink:href="#mfa8c4b4a80" x="157.749131" y="287.969652" style="fill: #808080; fill-opacity: 0.4"/>
     <use xlink:href="#mfa8c4b4a80" x="162.959716" y="267.420606" style="fill: #808080; fill-opacity: 0.4"/>
     <use xlink:href="#mfa8c4b4a80" x="169.872406" y="223.857937" style="fill: #808080; fill-opacity: 0.4"/>
     <use xlink:href="#mfa8c4b4a80" x="145.7262" y="265.073977" style="fill: #808080; fill-opacity: 0.4"/>
     <use xlink:href="#mfa8c4b4a80" x="168.19041" y="251.750179" style="fill: #808080; fill-opacity: 0.4"/>
     <use xlink:href="#mfa8c4b4a80" x="170.893344" y="234.461853" style="fill: #808080; fill-opacity: 0.4"/>
     <use xlink:href="#mfa8c4b4a80" x="162.150818" y="195.126505" style="fill: #808080; fill-opacity: 0.4"/>
     <use xlink:href="#mfa8c4b4a80" x="159.706551" y="236.289118" style="fill: #808080; fill-opacity: 0.4"/>
     <use xlink:href="#mfa8c4b4a80" x="156.433061" y="292.678442" style="fill: #808080; fill-opacity: 0.4"/>
     <use xlink:href="#mfa8c4b4a80" x="162.94517" y="242.520684" style="fill: #808080; fill-opacity: 0.4"/>
     <use xlink:href="#mfa8c4b4a80" x="141.476857" y="295.626342" style="fill: #808080; fill-opacity: 0.4"/>
     <use xlink:href="#mfa8c4b4a80" x="148.903374" y="261.454413" style="fill: #808080; fill-opacity: 0.4"/>
     <use xlink:href="#mfa8c4b4a80" x="154.92701" y="259.766571" style="fill: #808080; fill-opacity: 0.4"/>
     <use xlink:href="#mfa8c4b4a80" x="167.436278" y="295.359478" style="fill: #808080; fill-opacity: 0.4"/>
     <use xlink:href="#mfa8c4b4a80" x="168.498757" y="229.693693" style="fill: #808080; fill-opacity: 0.4"/>
     <use xlink:href="#mfa8c4b4a80" x="171.134107" y="224.402799" style="fill: #808080; fill-opacity: 0.4"/>
     <use xlink:href="#mfa8c4b4a80" x="155.331199" y="258.148376" style="fill: #808080; fill-opacity: 0.4"/>
     <use xlink:href="#mfa8c4b4a80" x="167.46011" y="276.82649" style="fill: #808080; fill-opacity: 0.4"/>
     <use xlink:href="#mfa8c4b4a80" x="185.849751" y="239.647248" style="fill: #808080; fill-opacity: 0.4"/>
     <use xlink:href="#mfa8c4b4a80" x="178.387996" y="288.671774" style="fill: #808080; fill-opacity: 0.4"/>
     <use xlink:href="#mfa8c4b4a80" x="189.500216" y="287.248158" style="fill: #808080; fill-opacity: 0.4"/>
     <use xlink:href="#mfa8c4b4a80" x="167.349279" y="236.274528" style="fill: #808080; fill-opacity: 0.4"/>
     <use xlink:href="#mfa8c4b4a80" x="173.397817" y="231.398735" style="fill: #808080; fill-opacity: 0.4"/>
     <use xlink:href="#mfa8c4b4a80" x="162.764011" y="257.011133" style="fill: #808080; fill-opacity: 0.4"/>
     <use xlink:href="#mfa8c4b4a80" x="171.940796" y="246.552106" style="fill: #808080; fill-opacity: 0.4"/>
     <use xlink:href="#mfa8c4b4a80" x="169.017774" y="262.259168" style="fill: #808080; fill-opacity: 0.4"/>
     <use xlink:href="#mfa8c4b4a80" x="182.569802" y="230.772298" style="fill: #808080; fill-opacity: 0.4"/>
     <use xlink:href="#mfa8c4b4a80" x="176.666452" y="267.679544" style="fill: #808080; fill-opacity: 0.4"/>
     <use xlink:href="#mfa8c4b4a80" x="184.575451" y="259.23822" style="fill: #808080; fill-opacity: 0.4"/>
     <use xlink:href="#mfa8c4b4a80" x="190.72473" y="223.719928" style="fill: #808080; fill-opacity: 0.4"/>
     <use xlink:href="#mfa8c4b4a80" x="177.362322" y="271.563315" style="fill: #808080; fill-opacity: 0.4"/>
     <use xlink:href="#mfa8c4b4a80" x="169.845077" y="287.969652" style="fill: #808080; fill-opacity: 0.4"/>
     <use xlink:href="#mfa8c4b4a80" x="172.912803" y="264.643474" style="fill: #808080; fill-opacity: 0.4"/>
     <use xlink:href="#mfa8c4b4a80" x="179.475724" y="302.272485" style="fill: #808080; fill-opacity: 0.4"/>
     <use xlink:href="#mfa8c4b4a80" x="188.004044" y="293.982714" style="fill: #808080; fill-opacity: 0.4"/>
     <use xlink:href="#mfa8c4b4a80" x="185.541843" y="246.753612" style="fill: #808080; fill-opacity: 0.4"/>
     <use xlink:href="#mfa8c4b4a80" x="163.757423" y="213.933343" style="fill: #808080; fill-opacity: 0.4"/>
     <use xlink:href="#mfa8c4b4a80" x="177.530516" y="250.188373" style="fill: #808080; fill-opacity: 0.4"/>
     <use xlink:href="#mfa8c4b4a80" x="183.246454" y="233.905396" style="fill: #808080; fill-opacity: 0.4"/>
     <use xlink:href="#mfa8c4b4a80" x="196.995591" y="234.461853" style="fill: #808080; fill-opacity: 0.4"/>
     <use xlink:href="#mfa8c4b4a80" x="195.387467" y="213.731393" style="fill: #808080; fill-opacity: 0.4"/>
     <use xlink:href="#mfa8c4b4a80" x="192.646919" y="228.967964" style="fill: #808080; fill-opacity: 0.4"/>
     <use xlink:href="#mfa8c4b4a80" x="183.730812" y="279.17007" style="fill: #808080; fill-opacity: 0.4"/>
     <use xlink:href="#mfa8c4b4a80" x="202.559627" y="219.363627" style="fill: #808080; fill-opacity: 0.4"/>
     <use xlink:href="#mfa8c4b4a80" x="188.989796" y="230.292423" style="fill: #808080; fill-opacity: 0.4"/>
     <use xlink:href="#mfa8c4b4a80" x="183.8187" y="246.696197" style="fill: #808080; fill-opacity: 0.4"/>
     <use xlink:href="#mfa8c4b4a80" x="187.939651" y="222.130738" style="fill: #808080; fill-opacity: 0.4"/>
     <use xlink:href="#mfa8c4b4a80" x="193.119316" y="259.23822" style="fill: #808080; fill-opacity: 0.4"/>
     <use xlink:href="#mfa8c4b4a80" x="184.109557" y="229.30542" style="fill: #808080; fill-opacity: 0.4"/>
     <use xlink:href="#mfa8c4b4a80" x="185.69163" y="281.09038" style="fill: #808080; fill-opacity: 0.4"/>
     <use xlink:href="#mfa8c4b4a80" x="187.464201" y="204.571578" style="fill: #808080; fill-opacity: 0.4"/>
     <use xlink:href="#mfa8c4b4a80" x="178.152476" y="224.870417" style="fill: #808080; fill-opacity: 0.4"/>
     <use xlink:href="#mfa8c4b4a80" x="184.950597" y="220.168382" style="fill: #808080; fill-opacity: 0.4"/>
     <use xlink:href="#mfa8c4b4a80" x="193.33303" y="202.512095" style="fill: #808080; fill-opacity: 0.4"/>
     <use xlink:href="#mfa8c4b4a80" x="183.286918" y="224.53726" style="fill: #808080; fill-opacity: 0.4"/>
     <use xlink:href="#mfa8c4b4a80" x="215.585129" y="192.158444" style="fill: #808080; fill-opacity: 0.4"/>
     <use xlink:href="#mfa8c4b4a80" x="189.753317" y="228.854504" style="fill: #808080; fill-opacity: 0.4"/>
     <use xlink:href="#mfa8c4b4a80" x="204.743647" y="259.766571" style="fill: #808080; fill-opacity: 0.4"/>
     <use xlink:href="#mfa8c4b4a80" x="207.336067" y="243.651778" style="fill: #808080; fill-opacity: 0.4"/>
     <use xlink:href="#mfa8c4b4a80" x="197.461484" y="244.602882" style="fill: #808080; fill-opacity: 0.4"/>
     <use xlink:href="#mfa8c4b4a80" x="189.262004" y="205.032981" style="fill: #808080; fill-opacity: 0.4"/>
     <use xlink:href="#mfa8c4b4a80" x="194.080361" y="192.371067" style="fill: #808080; fill-opacity: 0.4"/>
     <use xlink:href="#mfa8c4b4a80" x="193.899936" y="246.696197" style="fill: #808080; fill-opacity: 0.4"/>
     <use xlink:href="#mfa8c4b4a80" x="191.350908" y="238.883618" style="fill: #808080; fill-opacity: 0.4"/>
     <use xlink:href="#mfa8c4b4a80" x="196.634914" y="206.004272" style="fill: #808080; fill-opacity: 0.4"/>
     <use xlink:href="#mfa8c4b4a80" x="188.236064" y="251.416415" style="fill: #808080; fill-opacity: 0.4"/>
     <use xlink:href="#mfa8c4b4a80" x="208.314596" y="228.711983" style="fill: #808080; fill-opacity: 0.4"/>
     <use xlink:href="#mfa8c4b4a80" x="190.72473" y="221.227331" style="fill: #808080; fill-opacity: 0.4"/>
     <use xlink:href="#mfa8c4b4a80" x="200.655981" y="227.212105" style="fill: #808080; fill-opacity: 0.4"/>
     <use xlink:href="#mfa8c4b4a80" x="184.296905" y="268.566153" style="fill: #808080; fill-opacity: 0.4"/>
     <use xlink:href="#mfa8c4b4a80" x="197.776725" y="193.399306" style="fill: #808080; fill-opacity: 0.4"/>
     <use xlink:href="#mfa8c4b4a80" x="189.173227" y="189.568121" style="fill: #808080; fill-opacity: 0.4"/>
     <use xlink:href="#mfa8c4b4a80" x="179.479711" y="257.868668" style="fill: #808080; fill-opacity: 0.4"/>
     <use xlink:href="#mfa8c4b4a80" x="199.892962" y="213.116012" style="fill: #808080; fill-opacity: 0.4"/>
     <use xlink:href="#mfa8c4b4a80" x="201.397503" y="186.188915" style="fill: #808080; fill-opacity: 0.4"/>
     <use xlink:href="#mfa8c4b4a80" x="198.409114" y="197.546557" style="fill: #808080; fill-opacity: 0.4"/>
     <use xlink:href="#mfa8c4b4a80" x="192.243274" y="189.044747" style="fill: #808080; fill-opacity: 0.4"/>
     <use xlink:href="#mfa8c4b4a80" x="186.643784" y="202.180347" style="fill: #808080; fill-opacity: 0.4"/>
     <use xlink:href="#mfa8c4b4a80" x="198.326809" y="244.368329" style="fill: #808080; fill-opacity: 0.4"/>
     <use xlink:href="#mfa8c4b4a80" x="200.295748" y="260.539607" style="fill: #808080; fill-opacity: 0.4"/>
     <use xlink:href="#mfa8c4b4a80" x="205.059272" y="231.165576" style="fill: #808080; fill-opacity: 0.4"/>
     <use xlink:href="#mfa8c4b4a80" x="185.229824" y="239.458421" style="fill: #808080; fill-opacity: 0.4"/>
     <use xlink:href="#mfa8c4b4a80" x="193.984624" y="209.957743" style="fill: #808080; fill-opacity: 0.4"/>
     <use xlink:href="#mfa8c4b4a80" x="186.559911" y="218.321558" style="fill: #808080; fill-opacity: 0.4"/>
     <use xlink:href="#mfa8c4b4a80" x="193.454874" y="202.256115" style="fill: #808080; fill-opacity: 0.4"/>
     <use xlink:href="#mfa8c4b4a80" x="195.592311" y="204.728288" style="fill: #808080; fill-opacity: 0.4"/>
     <use xlink:href="#mfa8c4b4a80" x="204.771369" y="196.918868" style="fill: #808080; fill-opacity: 0.4"/>
     <use xlink:href="#mfa8c4b4a80" x="197.710044" y="216.917689" style="fill: #808080; fill-opacity: 0.4"/>
     <use xlink:href="#mfa8c4b4a80" x="190.152484" y="233.905396" style="fill: #808080; fill-opacity: 0.4"/>
     <use xlink:href="#mfa8c4b4a80" x="199.179577" y="163.894472" style="fill: #808080; fill-opacity: 0.4"/>
     <use xlink:href="#mfa8c4b4a80" x="303.174262" y="85.032472" style="fill: #808080; fill-opacity: 0.4"/>
     <use xlink:href="#mfa8c4b4a80" x="286.372751" y="67.856231" style="fill: #808080; fill-opacity: 0.4"/>
     <use xlink:href="#mfa8c4b4a80" x="272.990503" y="78.573478" style="fill: #808080; fill-opacity: 0.4"/>
     <use xlink:href="#mfa8c4b4a80" x="266.615705" y="84.843849" style="fill: #808080; fill-opacity: 0.4"/>
     <use xlink:href="#mfa8c4b4a80" x="274.25304" y="76.031349" style="fill: #808080; fill-opacity: 0.4"/>
     <use xlink:href="#mfa8c4b4a80" x="287.685608" y="70.410587" style="fill: #808080; fill-opacity: 0.4"/>
     <use xlink:href="#mfa8c4b4a80" x="269.6042" y="77.15128" style="fill: #808080; fill-opacity: 0.4"/>
     <use xlink:href="#mfa8c4b4a80" x="286.416567" y="61.327515" style="fill: #808080; fill-opacity: 0.4"/>
     <use xlink:href="#mfa8c4b4a80" x="275.366136" y="73.006096" style="fill: #808080; fill-opacity: 0.4"/>
     <use xlink:href="#mfa8c4b4a80" x="286.047233" y="71.97644" style="fill: #808080; fill-opacity: 0.4"/>
     <use xlink:href="#mfa8c4b4a80" x="282.6517" y="72.38384" style="fill: #808080; fill-opacity: 0.4"/>
     <use xlink:href="#mfa8c4b4a80" x="286.117251" y="78.016357" style="fill: #808080; fill-opacity: 0.4"/>
     <use xlink:href="#mfa8c4b4a80" x="289.22103" y="71.917034" style="fill: #808080; fill-opacity: 0.4"/>
     <use xlink:href="#mfa8c4b4a80" x="292.85114" y="66.195889" style="fill: #808080; fill-opacity: 0.4"/>
     <use xlink:href="#mfa8c4b4a80" x="288.128687" y="73.166026" style="fill: #808080; fill-opacity: 0.4"/>
    </g>
   </g>
   <g id="PolyCollection_1">
    <defs>
     <path id="m13658fd2c0" d="M 107.834071 -40.248596 
L 107.834071 -15.437812 
L 109.807204 -18.309242 
L 111.780337 -21.180671 
L 113.753471 -24.052101 
L 115.726604 -26.956876 
L 117.699737 -29.823906 
L 119.67287 -32.683422 
L 121.646004 -35.620461 
L 123.619137 -38.557839 
L 125.59227 -41.495302 
L 127.565403 -44.391176 
L 129.538537 -47.256927 
L 131.51167 -50.122679 
L 133.484803 -52.98843 
L 135.457936 -55.854181 
L 137.431069 -58.71079 
L 139.404203 -61.561039 
L 141.377336 -64.411289 
L 143.350469 -67.262403 
L 145.323602 -70.135247 
L 147.296736 -72.962888 
L 149.269869 -75.892444 
L 151.243002 -78.77566 
L 153.216135 -81.646665 
L 155.189269 -84.511829 
L 157.162402 -87.37883 
L 159.135535 -90.154435 
L 161.108668 -93.028995 
L 163.081802 -95.90431 
L 165.054935 -98.699169 
L 167.028068 -101.491056 
L 169.001201 -104.316549 
L 170.974335 -106.99738 
L 172.947468 -109.809813 
L 174.920601 -112.677959 
L 176.893734 -115.454068 
L 178.866868 -118.230779 
L 180.840001 -120.993959 
L 182.813134 -123.771918 
L 184.786267 -126.413245 
L 186.759401 -129.052983 
L 188.732534 -131.783661 
L 190.705667 -134.330538 
L 192.6788 -136.833619 
L 194.651934 -139.350667 
L 196.625067 -141.872038 
L 198.5982 -144.491717 
L 200.571333 -147.054285 
L 202.544466 -149.70406 
L 204.5176 -152.279562 
L 206.490733 -154.772045 
L 208.463866 -157.274803 
L 210.436999 -159.76078 
L 212.410133 -162.251268 
L 214.383266 -164.714078 
L 216.356399 -167.241286 
L 218.329532 -169.732672 
L 220.302666 -172.189647 
L 222.275799 -174.469499 
L 224.248932 -176.878969 
L 226.222065 -179.283906 
L 228.195199 -181.732869 
L 230.168332 -184.066034 
L 232.141465 -186.450502 
L 234.114598 -188.720008 
L 236.087732 -191.116476 
L 238.060865 -193.519193 
L 240.033998 -195.934749 
L 242.007131 -198.392948 
L 243.980265 -200.825543 
L 245.953398 -203.15038 
L 247.926531 -205.532871 
L 249.899664 -207.933688 
L 251.872798 -210.294846 
L 253.845931 -212.606391 
L 255.819064 -215.011804 
L 257.792197 -217.456222 
L 259.76533 -219.903364 
L 261.738464 -222.309931 
L 263.711597 -224.638372 
L 265.68473 -227.007488 
L 267.657863 -229.392086 
L 269.630997 -231.690363 
L 271.60413 -233.976563 
L 273.577263 -236.266126 
L 275.550396 -238.591429 
L 277.52353 -240.935169 
L 279.496663 -243.344316 
L 281.469796 -245.759464 
L 283.442929 -248.180586 
L 285.416063 -250.601709 
L 287.389196 -253.022832 
L 289.362329 -255.443954 
L 291.335462 -257.865077 
L 293.308596 -260.270687 
L 295.281729 -262.674468 
L 297.254862 -265.07825 
L 299.227995 -267.482032 
L 301.201129 -269.885813 
L 303.174262 -272.289595 
L 303.174262 -303.826505 
L 303.174262 -303.826505 
L 301.201129 -300.903044 
L 299.227995 -297.979583 
L 297.254862 -295.067552 
L 295.281729 -292.171596 
L 293.308596 -289.350972 
L 291.335462 -286.518908 
L 289.362329 -283.654384 
L 287.389196 -280.707795 
L 285.416063 -277.7603 
L 283.442929 -274.951943 
L 281.469796 -272.030915 
L 279.496663 -269.081609 
L 277.52353 -266.190066 
L 275.550396 -263.348959 
L 273.577263 -260.507852 
L 271.60413 -257.548954 
L 269.630997 -254.683954 
L 267.657863 -251.831871 
L 265.68473 -248.934475 
L 263.711597 -246.055572 
L 261.738464 -243.201556 
L 259.76533 -240.249918 
L 257.792197 -237.465311 
L 255.819064 -234.554933 
L 253.845931 -231.631305 
L 251.872798 -228.734003 
L 249.899664 -225.822984 
L 247.926531 -222.911966 
L 245.953398 -220.011879 
L 243.980265 -217.245846 
L 242.007131 -214.432709 
L 240.033998 -211.547609 
L 238.060865 -208.585969 
L 236.087732 -205.790495 
L 234.114598 -203.004122 
L 232.141465 -200.242513 
L 230.168332 -197.444367 
L 228.195199 -194.606924 
L 226.222065 -191.821693 
L 224.248932 -189.037547 
L 222.275799 -186.234037 
L 220.302666 -183.441331 
L 218.329532 -180.683581 
L 216.356399 -177.991612 
L 214.383266 -175.246364 
L 212.410133 -172.469788 
L 210.436999 -169.692005 
L 208.463866 -166.914068 
L 206.490733 -164.149336 
L 204.5176 -161.519328 
L 202.544466 -158.808696 
L 200.571333 -156.166066 
L 198.5982 -153.518412 
L 196.625067 -150.820416 
L 194.651934 -148.144617 
L 192.6788 -145.432447 
L 190.705667 -142.717966 
L 188.732534 -140.087861 
L 186.759401 -137.473951 
L 184.786267 -134.824968 
L 182.813134 -132.135018 
L 180.840001 -129.509433 
L 178.866868 -126.966084 
L 176.893734 -124.466518 
L 174.920601 -121.937914 
L 172.947468 -119.439452 
L 170.974335 -116.939668 
L 169.001201 -114.515554 
L 167.028068 -112.217743 
L 165.054935 -109.650304 
L 163.081802 -107.12854 
L 161.108668 -104.665886 
L 159.135535 -102.227967 
L 157.162402 -99.787067 
L 155.189269 -97.267066 
L 153.216135 -94.885416 
L 151.243002 -92.508568 
L 149.269869 -90.129062 
L 147.296736 -87.750947 
L 145.323602 -85.334894 
L 143.350469 -82.912447 
L 141.377336 -80.483361 
L 139.404203 -78.078351 
L 137.431069 -75.696376 
L 135.457936 -73.350475 
L 133.484803 -71.093987 
L 131.51167 -68.723433 
L 129.538537 -66.429951 
L 127.565403 -64.011367 
L 125.59227 -61.58492 
L 123.619137 -59.152671 
L 121.646004 -56.812488 
L 119.67287 -54.449779 
L 117.699737 -52.072563 
L 115.726604 -49.702546 
L 113.753471 -47.340373 
L 111.780337 -44.976448 
L 109.807204 -42.612522 
L 107.834071 -40.248596 
z
"/>
    </defs>
    <g clip-path="url(#pf3feefb79f)">
     <use xlink:href="#m13658fd2c0" x="0" y="360" style="fill: #808080; fill-opacity: 0.15"/>
    </g>
   </g>
   <g id="line2d_12">
    <path d="M 107.834071 332.423871 
L 109.807204 329.777596 
L 111.780337 327.131321 
L 113.753471 324.485046 
L 115.726604 321.83877 
L 117.699737 319.192495 
L 119.67287 316.54622 
L 121.646004 313.899945 
L 123.619137 311.253669 
L 125.59227 308.607394 
L 127.565403 305.961119 
L 129.538537 303.314844 
L 131.51167 300.668568 
L 133.484803 298.022293 
L 135.457936 295.376018 
L 137.431069 292.729743 
L 139.404203 290.083467 
L 141.377336 287.437192 
L 143.350469 284.790917 
L 145.323602 282.144642 
L 147.296736 279.498366 
L 149.269869 276.852091 
L 151.243002 274.205816 
L 153.216135 271.559541 
L 155.189269 268.913265 
L 157.162402 266.26699 
L 159.135535 263.620715 
L 161.108668 260.97444 
L 163.081802 258.328164 
L 165.054935 255.681889 
L 167.028068 253.035614 
L 169.001201 250.389339 
L 170.974335 247.743063 
L 172.947468 245.096788 
L 174.920601 242.450513 
L 176.893734 239.804238 
L 178.866868 237.157962 
L 180.840001 234.511687 
L 182.813134 231.865412 
L 184.786267 229.219137 
L 186.759401 226.572861 
L 188.732534 223.926586 
L 190.705667 221.280311 
L 192.6788 218.634036 
L 194.651934 215.98776 
L 196.625067 213.341485 
L 198.5982 210.69521 
L 200.571333 208.048934 
L 202.544466 205.402659 
L 204.5176 202.756384 
L 206.490733 200.110109 
L 208.463866 197.463833 
L 210.436999 194.817558 
L 212.410133 192.171283 
L 214.383266 189.525008 
L 216.356399 186.878732 
L 218.329532 184.232457 
L 220.302666 181.586182 
L 222.275799 178.939907 
L 224.248932 176.293631 
L 226.222065 173.647356 
L 228.195199 171.001081 
L 230.168332 168.354806 
L 232.141465 165.70853 
L 234.114598 163.062255 
L 236.087732 160.41598 
L 238.060865 157.769705 
L 240.033998 155.123429 
L 242.007131 152.477154 
L 243.980265 149.830879 
L 245.953398 147.184604 
L 247.926531 144.538328 
L 249.899664 141.892053 
L 251.872798 139.245778 
L 253.845931 136.599503 
L 255.819064 133.953227 
L 257.792197 131.306952 
L 259.76533 128.660677 
L 261.738464 126.014402 
L 263.711597 123.368126 
L 265.68473 120.721851 
L 267.657863 118.075576 
L 269.630997 115.429301 
L 271.60413 112.783025 
L 273.577263 110.13675 
L 275.550396 107.490475 
L 277.52353 104.8442 
L 279.496663 102.197924 
L 281.469796 99.551649 
L 283.442929 96.905374 
L 285.416063 94.259099 
L 287.389196 91.612823 
L 289.362329 88.966548 
L 291.335462 86.320273 
L 293.308596 83.673997 
L 295.281729 81.027722 
L 297.254862 78.381447 
L 299.227995 75.735172 
L 301.201129 73.088896 
L 303.174262 70.442621 
" clip-path="url(#pf3feefb79f)" style="fill: none; stroke: #808080; stroke-width: 2.25; stroke-linecap: round"/>
   </g>
   <g id="patch_3">
    <path d="M 45 320.4 
L 45 43.2 
" style="fill: none; stroke: #262626; stroke-width: 2; stroke-linejoin: miter; stroke-linecap: square"/>
   </g>
   <g id="patch_4">
    <path d="M 45 320.4 
L 324 320.4 
" style="fill: none; stroke: #262626; stroke-width: 2; stroke-linejoin: miter; stroke-linecap: square"/>
   </g>
   <g id="text_14">
    <text style="fill: #262626; font: 16.8px 'sans-serif'; text-anchor: middle" x="184.5" y="37.2" transform="rotate(-0, 184.5, 37.2)">AraC ERD Enrichment: 2</text>
   </g>
   <g id="legend_1">
    <g id="line2d_13">
     <path d="M 57.6 61.537812 
L 71.6 61.537812 
L 85.6 61.537812 
" style="fill: none; stroke: #808080; stroke-width: 2.25; stroke-linecap: round"/>
    </g>
    <g id="text_15">
     <text style="fill: #262626; font: 14px 'sans-serif'; text-anchor: start" x="96.8" y="66.437812" transform="rotate(-0, 96.8, 66.437812)">Pearson's r: 0.85</text>
    </g>
   </g>
  </g>
 </g>
 <defs>
  <clipPath id="pf3feefb79f">
   <rect x="45" y="43.2" width="279" height="277.2"/>
  </clipPath>
 </defs>
</svg>
