<?xml version="1.0" encoding="utf-8" standalone="no"?>
<!DOCTYPE svg PUBLIC "-//W3C//DTD SVG 1.1//EN"
  "http://www.w3.org/Graphics/SVG/1.1/DTD/svg11.dtd">
<!-- Created with matplotlib (https://matplotlib.org/) -->
<svg height="360pt" version="1.1" viewBox="0 0 360 360" width="360pt" xmlns="http://www.w3.org/2000/svg" xmlns:xlink="http://www.w3.org/1999/xlink">
 <defs>
  <style type="text/css">
*{stroke-linecap:butt;stroke-linejoin:round;}
  </style>
 </defs>
 <g id="figure_1">
  <g id="patch_1">
   <path d="M 0 360 
L 360 360 
L 360 0 
L 0 0 
z
" style="fill:#ffffff;"/>
  </g>
  <g id="axes_1">
   <g id="patch_2">
    <path d="M 45 315 
L 324 315 
L 324 43.2 
L 45 43.2 
z
" style="fill:#ffffff;"/>
   </g>
   <g id="matplotlib.axis_1">
    <g id="xtick_1">
     <g id="line2d_1">
      <defs>
       <path d="M 0 0 
L 0 6 
" id="m0cce8e1bce" style="stroke:#262626;stroke-width:2;"/>
      </defs>
      <g>
       <use style="fill:#262626;stroke:#262626;stroke-width:2;" x="77.423824" xlink:href="#m0cce8e1bce" y="315"/>
      </g>
     </g>
     <g id="text_1">
      <text style="fill:#262626;font-family:Droid Sans;font-size:11px;font-style:normal;font-weight:normal;text-anchor:middle;" transform="rotate(-0, 77.423824, 332.858281)" x="77.423824" y="332.858281">−8</text>
     </g>
    </g>
    <g id="xtick_2">
     <g id="line2d_2">
      <g>
       <use style="fill:#262626;stroke:#262626;stroke-width:2;" x="113.858693" xlink:href="#m0cce8e1bce" y="315"/>
      </g>
     </g>
     <g id="text_2">
      <text style="fill:#262626;font-family:Droid Sans;font-size:11px;font-style:normal;font-weight:normal;text-anchor:middle;" transform="rotate(-0, 113.858693, 332.858281)" x="113.858693" y="332.858281">−6</text>
     </g>
    </g>
    <g id="xtick_3">
     <g id="line2d_3">
      <g>
       <use style="fill:#262626;stroke:#262626;stroke-width:2;" x="150.293563" xlink:href="#m0cce8e1bce" y="315"/>
      </g>
     </g>
     <g id="text_3">
      <text style="fill:#262626;font-family:Droid Sans;font-size:11px;font-style:normal;font-weight:normal;text-anchor:middle;" transform="rotate(-0, 150.293563, 332.858281)" x="150.293563" y="332.858281">−4</text>
     </g>
    </g>
    <g id="xtick_4">
     <g id="line2d_4">
      <g>
       <use style="fill:#262626;stroke:#262626;stroke-width:2;" x="186.728432" xlink:href="#m0cce8e1bce" y="315"/>
      </g>
     </g>
     <g id="text_4">
      <text style="fill:#262626;font-family:Droid Sans;font-size:11px;font-style:normal;font-weight:normal;text-anchor:middle;" transform="rotate(-0, 186.728432, 332.858281)" x="186.728432" y="332.858281">−2</text>
     </g>
    </g>
    <g id="xtick_5">
     <g id="line2d_5">
      <g>
       <use style="fill:#262626;stroke:#262626;stroke-width:2;" x="223.163301" xlink:href="#m0cce8e1bce" y="315"/>
      </g>
     </g>
     <g id="text_5">
      <text style="fill:#262626;font-family:Droid Sans;font-size:11px;font-style:normal;font-weight:normal;text-anchor:middle;" transform="rotate(-0, 223.163301, 332.858281)" x="223.163301" y="332.858281">0</text>
     </g>
    </g>
    <g id="xtick_6">
     <g id="line2d_6">
      <g>
       <use style="fill:#262626;stroke:#262626;stroke-width:2;" x="259.598171" xlink:href="#m0cce8e1bce" y="315"/>
      </g>
     </g>
     <g id="text_6">
      <text style="fill:#262626;font-family:Droid Sans;font-size:11px;font-style:normal;font-weight:normal;text-anchor:middle;" transform="rotate(-0, 259.598171, 332.858281)" x="259.598171" y="332.858281">2</text>
     </g>
    </g>
    <g id="xtick_7">
     <g id="line2d_7">
      <g>
       <use style="fill:#262626;stroke:#262626;stroke-width:2;" x="296.03304" xlink:href="#m0cce8e1bce" y="315"/>
      </g>
     </g>
     <g id="text_7">
      <text style="fill:#262626;font-family:Droid Sans;font-size:11px;font-style:normal;font-weight:normal;text-anchor:middle;" transform="rotate(-0, 296.03304, 332.858281)" x="296.03304" y="332.858281">4</text>
     </g>
    </g>
    <g id="text_8">
     <text style="fill:#262626;font-family:Droid Sans;font-size:12px;font-style:normal;font-weight:normal;text-anchor:middle;" transform="rotate(-0, 184.5, 348.619844)" x="184.5" y="348.619844">Rep-2 log2 enriched read counts</text>
    </g>
   </g>
   <g id="matplotlib.axis_2">
    <g id="ytick_1">
     <g id="line2d_8">
      <defs>
       <path d="M 0 0 
L -6 0 
" id="m25dcfb9dd8" style="stroke:#262626;stroke-width:2;"/>
      </defs>
      <g>
       <use style="fill:#262626;stroke:#262626;stroke-width:2;" x="45" xlink:href="#m25dcfb9dd8" y="283.41292"/>
      </g>
     </g>
     <g id="text_9">
      <text style="fill:#262626;font-family:Droid Sans;font-size:11px;font-style:normal;font-weight:normal;text-anchor:end;" transform="rotate(-0, 35.5, 287.592061)" x="35.5" y="287.592061">−8</text>
     </g>
    </g>
    <g id="ytick_2">
     <g id="line2d_9">
      <g>
       <use style="fill:#262626;stroke:#262626;stroke-width:2;" x="45" xlink:href="#m25dcfb9dd8" y="247.918305"/>
      </g>
     </g>
     <g id="text_10">
      <text style="fill:#262626;font-family:Droid Sans;font-size:11px;font-style:normal;font-weight:normal;text-anchor:end;" transform="rotate(-0, 35.5, 252.097446)" x="35.5" y="252.097446">−6</text>
     </g>
    </g>
    <g id="ytick_3">
     <g id="line2d_10">
      <g>
       <use style="fill:#262626;stroke:#262626;stroke-width:2;" x="45" xlink:href="#m25dcfb9dd8" y="212.423691"/>
      </g>
     </g>
     <g id="text_11">
      <text style="fill:#262626;font-family:Droid Sans;font-size:11px;font-style:normal;font-weight:normal;text-anchor:end;" transform="rotate(-0, 35.5, 216.602831)" x="35.5" y="216.602831">−4</text>
     </g>
    </g>
    <g id="ytick_4">
     <g id="line2d_11">
      <g>
       <use style="fill:#262626;stroke:#262626;stroke-width:2;" x="45" xlink:href="#m25dcfb9dd8" y="176.929076"/>
      </g>
     </g>
     <g id="text_12">
      <text style="fill:#262626;font-family:Droid Sans;font-size:11px;font-style:normal;font-weight:normal;text-anchor:end;" transform="rotate(-0, 35.5, 181.108217)" x="35.5" y="181.108217">−2</text>
     </g>
    </g>
    <g id="ytick_5">
     <g id="line2d_12">
      <g>
       <use style="fill:#262626;stroke:#262626;stroke-width:2;" x="45" xlink:href="#m25dcfb9dd8" y="141.434461"/>
      </g>
     </g>
     <g id="text_13">
      <text style="fill:#262626;font-family:Droid Sans;font-size:11px;font-style:normal;font-weight:normal;text-anchor:end;" transform="rotate(-0, 35.5, 145.613602)" x="35.5" y="145.613602">0</text>
     </g>
    </g>
    <g id="ytick_6">
     <g id="line2d_13">
      <g>
       <use style="fill:#262626;stroke:#262626;stroke-width:2;" x="45" xlink:href="#m25dcfb9dd8" y="105.939847"/>
      </g>
     </g>
     <g id="text_14">
      <text style="fill:#262626;font-family:Droid Sans;font-size:11px;font-style:normal;font-weight:normal;text-anchor:end;" transform="rotate(-0, 35.5, 110.118987)" x="35.5" y="110.118987">2</text>
     </g>
    </g>
    <g id="ytick_7">
     <g id="line2d_14">
      <g>
       <use style="fill:#262626;stroke:#262626;stroke-width:2;" x="45" xlink:href="#m25dcfb9dd8" y="70.445232"/>
      </g>
     </g>
     <g id="text_15">
      <text style="fill:#262626;font-family:Droid Sans;font-size:11px;font-style:normal;font-weight:normal;text-anchor:end;" transform="rotate(-0, 35.5, 74.624373)" x="35.5" y="74.624373">4</text>
     </g>
    </g>
    <g id="text_16">
     <text style="fill:#262626;font-family:Droid Sans;font-size:12px;font-style:normal;font-weight:normal;text-anchor:middle;" transform="rotate(-90, 16.499063, 179.1)" x="16.499063" y="179.1">Rep-1 log2 enriched read counts</text>
    </g>
   </g>
   <g id="PathCollection_1">
    <defs>
     <path d="M 0 3 
C 0.795609 3 1.55874 2.683901 2.12132 2.12132 
C 2.683901 1.55874 3 0.795609 3 0 
C 3 -0.795609 2.683901 -1.55874 2.12132 -2.12132 
C 1.55874 -2.683901 0.795609 -3 0 -3 
C -0.795609 -3 -1.55874 -2.683901 -2.12132 -2.12132 
C -2.683901 -1.55874 -3 -0.795609 -3 0 
C -3 0.795609 -2.683901 1.55874 -2.12132 2.12132 
C -1.55874 2.683901 -0.795609 3 0 3 
z
" id="mac73bd477f"/>
    </defs>
    <g clip-path="url(#p9a79570d86)">
     <use style="fill:#808080;fill-opacity:0.4;" x="298.455449" xlink:href="#mac73bd477f" y="99.058572"/>
     <use style="fill:#808080;fill-opacity:0.4;" x="243.674265" xlink:href="#mac73bd477f" y="104.012805"/>
     <use style="fill:#808080;fill-opacity:0.4;" x="246.935002" xlink:href="#mac73bd477f" y="109.992422"/>
     <use style="fill:#808080;fill-opacity:0.4;" x="254.793458" xlink:href="#mac73bd477f" y="110.27963"/>
     <use style="fill:#808080;fill-opacity:0.4;" x="220.776793" xlink:href="#mac73bd477f" y="115.937865"/>
     <use style="fill:#808080;fill-opacity:0.4;" x="195.225992" xlink:href="#mac73bd477f" y="141.550576"/>
     <use style="fill:#808080;fill-opacity:0.4;" x="163.31422" xlink:href="#mac73bd477f" y="140.629726"/>
     <use style="fill:#808080;fill-opacity:0.4;" x="223.115819" xlink:href="#mac73bd477f" y="142.855004"/>
     <use style="fill:#808080;fill-opacity:0.4;" x="272.176467" xlink:href="#mac73bd477f" y="104.771929"/>
     <use style="fill:#808080;fill-opacity:0.4;" x="247.907265" xlink:href="#mac73bd477f" y="123.279463"/>
     <use style="fill:#808080;fill-opacity:0.4;" x="277.467868" xlink:href="#mac73bd477f" y="103.248132"/>
     <use style="fill:#808080;fill-opacity:0.4;" x="305.782565" xlink:href="#mac73bd477f" y="101.814342"/>
     <use style="fill:#808080;fill-opacity:0.4;" x="288.345244" xlink:href="#mac73bd477f" y="104.263719"/>
     <use style="fill:#808080;fill-opacity:0.4;" x="275.403663" xlink:href="#mac73bd477f" y="103.183864"/>
     <use style="fill:#808080;fill-opacity:0.4;" x="211.29406" xlink:href="#mac73bd477f" y="174.325046"/>
     <use style="fill:#808080;fill-opacity:0.4;" x="118.386583" xlink:href="#mac73bd477f" y="208.319949"/>
     <use style="fill:#808080;fill-opacity:0.4;" x="184.259663" xlink:href="#mac73bd477f" y="152.300494"/>
     <use style="fill:#808080;fill-opacity:0.4;" x="219.128321" xlink:href="#mac73bd477f" y="163.873099"/>
     <use style="fill:#808080;fill-opacity:0.4;" x="247.106222" xlink:href="#mac73bd477f" y="163.962468"/>
     <use style="fill:#808080;fill-opacity:0.4;" x="276.820991" xlink:href="#mac73bd477f" y="115.603595"/>
     <use style="fill:#808080;fill-opacity:0.4;" x="265.667466" xlink:href="#mac73bd477f" y="102.477503"/>
     <use style="fill:#808080;fill-opacity:0.4;" x="216.25489" xlink:href="#mac73bd477f" y="169.234909"/>
     <use style="fill:#808080;fill-opacity:0.4;" x="230.542301" xlink:href="#mac73bd477f" y="182.869628"/>
     <use style="fill:#808080;fill-opacity:0.4;" x="211.042554" xlink:href="#mac73bd477f" y="212.504994"/>
     <use style="fill:#808080;fill-opacity:0.4;" x="252.203447" xlink:href="#mac73bd477f" y="139.634315"/>
     <use style="fill:#808080;fill-opacity:0.4;" x="229.296466" xlink:href="#mac73bd477f" y="137.040963"/>
     <use style="fill:#808080;fill-opacity:0.4;" x="217.402358" xlink:href="#mac73bd477f" y="160.664901"/>
     <use style="fill:#808080;fill-opacity:0.4;" x="219.332455" xlink:href="#mac73bd477f" y="156.968646"/>
     <use style="fill:#808080;fill-opacity:0.4;" x="155.859278" xlink:href="#mac73bd477f" y="239.384589"/>
     <use style="fill:#808080;fill-opacity:0.4;" x="153.999311" xlink:href="#mac73bd477f" y="232.581538"/>
     <use style="fill:#808080;fill-opacity:0.4;" x="209.317911" xlink:href="#mac73bd477f" y="177.183966"/>
     <use style="fill:#808080;fill-opacity:0.4;" x="147.016046" xlink:href="#mac73bd477f" y="208.558127"/>
     <use style="fill:#808080;fill-opacity:0.4;" x="177.586212" xlink:href="#mac73bd477f" y="182.195801"/>
     <use style="fill:#808080;fill-opacity:0.4;" x="165.233481" xlink:href="#mac73bd477f" y="164.909838"/>
     <use style="fill:#808080;fill-opacity:0.4;" x="178.02794" xlink:href="#mac73bd477f" y="221.206953"/>
     <use style="fill:#808080;fill-opacity:0.4;" x="223.438476" xlink:href="#mac73bd477f" y="125.556012"/>
     <use style="fill:#808080;fill-opacity:0.4;" x="200.042129" xlink:href="#mac73bd477f" y="227.350639"/>
     <use style="fill:#808080;fill-opacity:0.4;" x="179.570717" xlink:href="#mac73bd477f" y="245.604972"/>
     <use style="fill:#808080;fill-opacity:0.4;" x="150.238305" xlink:href="#mac73bd477f" y="201.755076"/>
     <use style="fill:#808080;fill-opacity:0.4;" x="160.75237" xlink:href="#mac73bd477f" y="250.467621"/>
     <use style="fill:#808080;fill-opacity:0.4;" x="145.047475" xlink:href="#mac73bd477f" y="241.302359"/>
     <use style="fill:#808080;fill-opacity:0.4;" x="164.065191" xlink:href="#mac73bd477f" y="229.883893"/>
     <use style="fill:#808080;fill-opacity:0.4;" x="182.589127" xlink:href="#mac73bd477f" y="197.766946"/>
     <use style="fill:#808080;fill-opacity:0.4;" x="303.104837" xlink:href="#mac73bd477f" y="88.083567"/>
     <use style="fill:#808080;fill-opacity:0.4;" x="186.584742" xlink:href="#mac73bd477f" y="217.420312"/>
     <use style="fill:#808080;fill-opacity:0.4;" x="71.418299" xlink:href="#mac73bd477f" y="243.694639"/>
     <use style="fill:#808080;fill-opacity:0.4;" x="166.501514" xlink:href="#mac73bd477f" y="215.826756"/>
     <use style="fill:#808080;fill-opacity:0.4;" x="163.582935" xlink:href="#mac73bd477f" y="223.966519"/>
     <use style="fill:#808080;fill-opacity:0.4;" x="162.173961" xlink:href="#mac73bd477f" y="196.807096"/>
     <use style="fill:#808080;fill-opacity:0.4;" x="174.659168" xlink:href="#mac73bd477f" y="227.857664"/>
     <use style="fill:#808080;fill-opacity:0.4;" x="193.370007" xlink:href="#mac73bd477f" y="240.735212"/>
     <use style="fill:#808080;fill-opacity:0.4;" x="168.864376" xlink:href="#mac73bd477f" y="203.420164"/>
     <use style="fill:#808080;fill-opacity:0.4;" x="162.924291" xlink:href="#mac73bd477f" y="220.929293"/>
     <use style="fill:#808080;fill-opacity:0.4;" x="171.220145" xlink:href="#mac73bd477f" y="208.136306"/>
     <use style="fill:#808080;fill-opacity:0.4;" x="165.058848" xlink:href="#mac73bd477f" y="263.01538"/>
     <use style="fill:#808080;fill-opacity:0.4;" x="179.300876" xlink:href="#mac73bd477f" y="213.985403"/>
     <use style="fill:#808080;fill-opacity:0.4;" x="157.583921" xlink:href="#mac73bd477f" y="244.840618"/>
     <use style="fill:#808080;fill-opacity:0.4;" x="155.491221" xlink:href="#mac73bd477f" y="222.326219"/>
     <use style="fill:#808080;fill-opacity:0.4;" x="170.594605" xlink:href="#mac73bd477f" y="278.271451"/>
     <use style="fill:#808080;fill-opacity:0.4;" x="223.741237" xlink:href="#mac73bd477f" y="153.993934"/>
     <use style="fill:#808080;fill-opacity:0.4;" x="180.708918" xlink:href="#mac73bd477f" y="236.607797"/>
     <use style="fill:#808080;fill-opacity:0.4;" x="155.600472" xlink:href="#mac73bd477f" y="222.292629"/>
     <use style="fill:#808080;fill-opacity:0.4;" x="174.215405" xlink:href="#mac73bd477f" y="225.374279"/>
     <use style="fill:#808080;fill-opacity:0.4;" x="190.517926" xlink:href="#mac73bd477f" y="217.61271"/>
     <use style="fill:#808080;fill-opacity:0.4;" x="144.47648" xlink:href="#mac73bd477f" y="215.25885"/>
     <use style="fill:#808080;fill-opacity:0.4;" x="155.385712" xlink:href="#mac73bd477f" y="269.165847"/>
     <use style="fill:#808080;fill-opacity:0.4;" x="166.006543" xlink:href="#mac73bd477f" y="249.575734"/>
     <use style="fill:#808080;fill-opacity:0.4;" x="165.310442" xlink:href="#mac73bd477f" y="283.872427"/>
     <use style="fill:#808080;fill-opacity:0.4;" x="140.423761" xlink:href="#mac73bd477f" y="223.730422"/>
     <use style="fill:#808080;fill-opacity:0.4;" x="161.687504" xlink:href="#mac73bd477f" y="245.854768"/>
     <use style="fill:#808080;fill-opacity:0.4;" x="73.337561" xlink:href="#mac73bd477f" y="190.81082"/>
     <use style="fill:#808080;fill-opacity:0.4;" x="174.667349" xlink:href="#mac73bd477f" y="231.443397"/>
     <use style="fill:#808080;fill-opacity:0.4;" x="154.903456" xlink:href="#mac73bd477f" y="202.337745"/>
     <use style="fill:#808080;fill-opacity:0.4;" x="150.718798" xlink:href="#mac73bd477f" y="228.166579"/>
     <use style="fill:#808080;fill-opacity:0.4;" x="164.650334" xlink:href="#mac73bd477f" y="246.67025"/>
     <use style="fill:#808080;fill-opacity:0.4;" x="144.777912" xlink:href="#mac73bd477f" y="212.051815"/>
     <use style="fill:#808080;fill-opacity:0.4;" x="143.342795" xlink:href="#mac73bd477f" y="225.21574"/>
     <use style="fill:#808080;fill-opacity:0.4;" x="114.884761" xlink:href="#mac73bd477f" y="264.973324"/>
     <use style="fill:#808080;fill-opacity:0.4;" x="158.791123" xlink:href="#mac73bd477f" y="216.600721"/>
     <use style="fill:#808080;fill-opacity:0.4;" x="144.059877" xlink:href="#mac73bd477f" y="250.879489"/>
     <use style="fill:#808080;fill-opacity:0.4;" x="161.886721" xlink:href="#mac73bd477f" y="268.076153"/>
     <use style="fill:#808080;fill-opacity:0.4;" x="248.488317" xlink:href="#mac73bd477f" y="131.890639"/>
     <use style="fill:#808080;fill-opacity:0.4;" x="281.593743" xlink:href="#mac73bd477f" y="88.937532"/>
     <use style="fill:#808080;fill-opacity:0.4;" x="200.595459" xlink:href="#mac73bd477f" y="163.094979"/>
     <use style="fill:#808080;fill-opacity:0.4;" x="161.891563" xlink:href="#mac73bd477f" y="242.209936"/>
     <use style="fill:#808080;fill-opacity:0.4;" x="168.669464" xlink:href="#mac73bd477f" y="212.576613"/>
     <use style="fill:#808080;fill-opacity:0.4;" x="194.526615" xlink:href="#mac73bd477f" y="168.685141"/>
     <use style="fill:#808080;fill-opacity:0.4;" x="144.912348" xlink:href="#mac73bd477f" y="202.555265"/>
     <use style="fill:#808080;fill-opacity:0.4;" x="169.477727" xlink:href="#mac73bd477f" y="205.807744"/>
     <use style="fill:#808080;fill-opacity:0.4;" x="164.550788" xlink:href="#mac73bd477f" y="189.530355"/>
     <use style="fill:#808080;fill-opacity:0.4;" x="191.267864" xlink:href="#mac73bd477f" y="241.979614"/>
     <use style="fill:#808080;fill-opacity:0.4;" x="289.663911" xlink:href="#mac73bd477f" y="91.623292"/>
     <use style="fill:#808080;fill-opacity:0.4;" x="266.672303" xlink:href="#mac73bd477f" y="109.612113"/>
     <use style="fill:#808080;fill-opacity:0.4;" x="247.527113" xlink:href="#mac73bd477f" y="116.552121"/>
     <use style="fill:#808080;fill-opacity:0.4;" x="245.611097" xlink:href="#mac73bd477f" y="115.488814"/>
     <use style="fill:#808080;fill-opacity:0.4;" x="254.293842" xlink:href="#mac73bd477f" y="110.098577"/>
     <use style="fill:#808080;fill-opacity:0.4;" x="248.808362" xlink:href="#mac73bd477f" y="114.250874"/>
     <use style="fill:#808080;fill-opacity:0.4;" x="271.467661" xlink:href="#mac73bd477f" y="98.013367"/>
     <use style="fill:#808080;fill-opacity:0.4;" x="278.88031" xlink:href="#mac73bd477f" y="95.059641"/>
     <use style="fill:#808080;fill-opacity:0.4;" x="287.19307" xlink:href="#mac73bd477f" y="85.616234"/>
     <use style="fill:#808080;fill-opacity:0.4;" x="181.071182" xlink:href="#mac73bd477f" y="237.541783"/>
     <use style="fill:#808080;fill-opacity:0.4;" x="104.54184" xlink:href="#mac73bd477f" y="230.939697"/>
     <use style="fill:#808080;fill-opacity:0.4;" x="197.329691" xlink:href="#mac73bd477f" y="216.88364"/>
     <use style="fill:#808080;fill-opacity:0.4;" x="156.843402" xlink:href="#mac73bd477f" y="197.086923"/>
     <use style="fill:#808080;fill-opacity:0.4;" x="164.615048" xlink:href="#mac73bd477f" y="215.335303"/>
     <use style="fill:#808080;fill-opacity:0.4;" x="179.331319" xlink:href="#mac73bd477f" y="219.475864"/>
     <use style="fill:#808080;fill-opacity:0.4;" x="178.348068" xlink:href="#mac73bd477f" y="207.094646"/>
     <use style="fill:#808080;fill-opacity:0.4;" x="172.085942" xlink:href="#mac73bd477f" y="184.558412"/>
     <use style="fill:#808080;fill-opacity:0.4;" x="266.575908" xlink:href="#mac73bd477f" y="102.74811"/>
     <use style="fill:#808080;fill-opacity:0.4;" x="261.564839" xlink:href="#mac73bd477f" y="94.458245"/>
     <use style="fill:#808080;fill-opacity:0.4;" x="255.906753" xlink:href="#mac73bd477f" y="90.629287"/>
     <use style="fill:#808080;fill-opacity:0.4;" x="257.975771" xlink:href="#mac73bd477f" y="91.209292"/>
     <use style="fill:#808080;fill-opacity:0.4;" x="275.296167" xlink:href="#mac73bd477f" y="93.236953"/>
     <use style="fill:#808080;fill-opacity:0.4;" x="240.8861" xlink:href="#mac73bd477f" y="107.839313"/>
     <use style="fill:#808080;fill-opacity:0.4;" x="269.797559" xlink:href="#mac73bd477f" y="84.844755"/>
     <use style="fill:#808080;fill-opacity:0.4;" x="190.554741" xlink:href="#mac73bd477f" y="213.40347"/>
     <use style="fill:#808080;fill-opacity:0.4;" x="168.077572" xlink:href="#mac73bd477f" y="173.994668"/>
     <use style="fill:#808080;fill-opacity:0.4;" x="167.420966" xlink:href="#mac73bd477f" y="216.020727"/>
     <use style="fill:#808080;fill-opacity:0.4;" x="150.238305" xlink:href="#mac73bd477f" y="250.328845"/>
     <use style="fill:#808080;fill-opacity:0.4;" x="140.630886" xlink:href="#mac73bd477f" y="263.352279"/>
     <use style="fill:#808080;fill-opacity:0.4;" x="139.785726" xlink:href="#mac73bd477f" y="253.794119"/>
     <use style="fill:#808080;fill-opacity:0.4;" x="63.217435" xlink:href="#mac73bd477f" y="195.426235"/>
     <use style="fill:#808080;fill-opacity:0.4;" x="182.32801" xlink:href="#mac73bd477f" y="223.98043"/>
     <use style="fill:#808080;fill-opacity:0.4;" x="162.937941" xlink:href="#mac73bd477f" y="207.375496"/>
     <use style="fill:#808080;fill-opacity:0.4;" x="158.608923" xlink:href="#mac73bd477f" y="233.80424"/>
     <use style="fill:#808080;fill-opacity:0.4;" x="162.04385" xlink:href="#mac73bd477f" y="235.965658"/>
     <use style="fill:#808080;fill-opacity:0.4;" x="171.078637" xlink:href="#mac73bd477f" y="227.976919"/>
     <use style="fill:#808080;fill-opacity:0.4;" x="177.793159" xlink:href="#mac73bd477f" y="276.229827"/>
     <use style="fill:#808080;fill-opacity:0.4;" x="198.304386" xlink:href="#mac73bd477f" y="172.218127"/>
     <use style="fill:#808080;fill-opacity:0.4;" x="242.79787" xlink:href="#mac73bd477f" y="112.791616"/>
     <use style="fill:#808080;fill-opacity:0.4;" x="234.996894" xlink:href="#mac73bd477f" y="145.465617"/>
     <use style="fill:#808080;fill-opacity:0.4;" x="247.162294" xlink:href="#mac73bd477f" y="111.660184"/>
     <use style="fill:#808080;fill-opacity:0.4;" x="174.468992" xlink:href="#mac73bd477f" y="227.689769"/>
     <use style="fill:#808080;fill-opacity:0.4;" x="222.671082" xlink:href="#mac73bd477f" y="177.055496"/>
     <use style="fill:#808080;fill-opacity:0.4;" x="250.903495" xlink:href="#mac73bd477f" y="125.793512"/>
     <use style="fill:#808080;fill-opacity:0.4;" x="267.218416" xlink:href="#mac73bd477f" y="106.812049"/>
     <use style="fill:#808080;fill-opacity:0.4;" x="166.422096" xlink:href="#mac73bd477f" y="233.041226"/>
     <use style="fill:#808080;fill-opacity:0.4;" x="147.636566" xlink:href="#mac73bd477f" y="218.592459"/>
     <use style="fill:#808080;fill-opacity:0.4;" x="105.158201" xlink:href="#mac73bd477f" y="221.206953"/>
     <use style="fill:#808080;fill-opacity:0.4;" x="137.952879" xlink:href="#mac73bd477f" y="210.210568"/>
     <use style="fill:#808080;fill-opacity:0.4;" x="152.525156" xlink:href="#mac73bd477f" y="230.353703"/>
     <use style="fill:#808080;fill-opacity:0.4;" x="169.395749" xlink:href="#mac73bd477f" y="220.022744"/>
     <use style="fill:#808080;fill-opacity:0.4;" x="165.071744" xlink:href="#mac73bd477f" y="264.973324"/>
     <use style="fill:#808080;fill-opacity:0.4;" x="112.028269" xlink:href="#mac73bd477f" y="228.842553"/>
     <use style="fill:#808080;fill-opacity:0.4;" x="136.35953" xlink:href="#mac73bd477f" y="224.992123"/>
     <use style="fill:#808080;fill-opacity:0.4;" x="149.636856" xlink:href="#mac73bd477f" y="234.133768"/>
     <use style="fill:#808080;fill-opacity:0.4;" x="147.149121" xlink:href="#mac73bd477f" y="221.898549"/>
     <use style="fill:#808080;fill-opacity:0.4;" x="167.06191" xlink:href="#mac73bd477f" y="243.111048"/>
     <use style="fill:#808080;fill-opacity:0.4;" x="146.445911" xlink:href="#mac73bd477f" y="188.80371"/>
     <use style="fill:#808080;fill-opacity:0.4;" x="127.262585" xlink:href="#mac73bd477f" y="217.420312"/>
     <use style="fill:#808080;fill-opacity:0.4;" x="130.00522" xlink:href="#mac73bd477f" y="224.163663"/>
     <use style="fill:#808080;fill-opacity:0.4;" x="138.083571" xlink:href="#mac73bd477f" y="224.625885"/>
     <use style="fill:#808080;fill-opacity:0.4;" x="174.076713" xlink:href="#mac73bd477f" y="232.018791"/>
     <use style="fill:#808080;fill-opacity:0.4;" x="150.248888" xlink:href="#mac73bd477f" y="230.521819"/>
     <use style="fill:#808080;fill-opacity:0.4;" x="168.358962" xlink:href="#mac73bd477f" y="251.859238"/>
     <use style="fill:#808080;fill-opacity:0.4;" x="172.494028" xlink:href="#mac73bd477f" y="198.176618"/>
     <use style="fill:#808080;fill-opacity:0.4;" x="155.597761" xlink:href="#mac73bd477f" y="245.352714"/>
     <use style="fill:#808080;fill-opacity:0.4;" x="168.523044" xlink:href="#mac73bd477f" y="206.11781"/>
     <use style="fill:#808080;fill-opacity:0.4;" x="137.861779" xlink:href="#mac73bd477f" y="211.041512"/>
     <use style="fill:#808080;fill-opacity:0.4;" x="168.659677" xlink:href="#mac73bd477f" y="196.60533"/>
     <use style="fill:#808080;fill-opacity:0.4;" x="177.337089" xlink:href="#mac73bd477f" y="225.826842"/>
     <use style="fill:#808080;fill-opacity:0.4;" x="170.336329" xlink:href="#mac73bd477f" y="198.176618"/>
     <use style="fill:#808080;fill-opacity:0.4;" x="176.063478" xlink:href="#mac73bd477f" y="245.268073"/>
     <use style="fill:#808080;fill-opacity:0.4;" x="164.371692" xlink:href="#mac73bd477f" y="196.57585"/>
     <use style="fill:#808080;fill-opacity:0.4;" x="173.786299" xlink:href="#mac73bd477f" y="214.026468"/>
     <use style="fill:#808080;fill-opacity:0.4;" x="180.355318" xlink:href="#mac73bd477f" y="242.400301"/>
     <use style="fill:#808080;fill-opacity:0.4;" x="215.303394" xlink:href="#mac73bd477f" y="230.048284"/>
     <use style="fill:#808080;fill-opacity:0.4;" x="175.494769" xlink:href="#mac73bd477f" y="182.005436"/>
     <use style="fill:#808080;fill-opacity:0.4;" x="173.989251" xlink:href="#mac73bd477f" y="176.060623"/>
     <use style="fill:#808080;fill-opacity:0.4;" x="148.518295" xlink:href="#mac73bd477f" y="217.476155"/>
     <use style="fill:#808080;fill-opacity:0.4;" x="194.808332" xlink:href="#mac73bd477f" y="255.135773"/>
     <use style="fill:#808080;fill-opacity:0.4;" x="165.786811" xlink:href="#mac73bd477f" y="169.508751"/>
     <use style="fill:#808080;fill-opacity:0.4;" x="188.962833" xlink:href="#mac73bd477f" y="184.093258"/>
     <use style="fill:#808080;fill-opacity:0.4;" x="175.389369" xlink:href="#mac73bd477f" y="163.666892"/>
     <use style="fill:#808080;fill-opacity:0.4;" x="77.655807" xlink:href="#mac73bd477f" y="219.870792"/>
     <use style="fill:#808080;fill-opacity:0.4;" x="150.276423" xlink:href="#mac73bd477f" y="196.76687"/>
     <use style="fill:#808080;fill-opacity:0.4;" x="191.820581" xlink:href="#mac73bd477f" y="182.949765"/>
     <use style="fill:#808080;fill-opacity:0.4;" x="82.636023" xlink:href="#mac73bd477f" y="188.353762"/>
     <use style="fill:#808080;fill-opacity:0.4;" x="144.24694" xlink:href="#mac73bd477f" y="257.131897"/>
     <use style="fill:#808080;fill-opacity:0.4;" x="129.754434" xlink:href="#mac73bd477f" y="199.142919"/>
     <use style="fill:#808080;fill-opacity:0.4;" x="111.134507" xlink:href="#mac73bd477f" y="191.92421"/>
     <use style="fill:#808080;fill-opacity:0.4;" x="163.129782" xlink:href="#mac73bd477f" y="259.181306"/>
     <use style="fill:#808080;fill-opacity:0.4;" x="152.698866" xlink:href="#mac73bd477f" y="203.021961"/>
     <use style="fill:#808080;fill-opacity:0.4;" x="120.112289" xlink:href="#mac73bd477f" y="219.717932"/>
     <use style="fill:#808080;fill-opacity:0.4;" x="142.591824" xlink:href="#mac73bd477f" y="183.490139"/>
     <use style="fill:#808080;fill-opacity:0.4;" x="130.108316" xlink:href="#mac73bd477f" y="225.029529"/>
     <use style="fill:#808080;fill-opacity:0.4;" x="158.020676" xlink:href="#mac73bd477f" y="262.845253"/>
     <use style="fill:#808080;fill-opacity:0.4;" x="151.807859" xlink:href="#mac73bd477f" y="209.792291"/>
     <use style="fill:#808080;fill-opacity:0.4;" x="136.522269" xlink:href="#mac73bd477f" y="223.44925"/>
     <use style="fill:#808080;fill-opacity:0.4;" x="133.372313" xlink:href="#mac73bd477f" y="216.136407"/>
     <use style="fill:#808080;fill-opacity:0.4;" x="188.868524" xlink:href="#mac73bd477f" y="219.564154"/>
     <use style="fill:#808080;fill-opacity:0.4;" x="116.49155" xlink:href="#mac73bd477f" y="256.042202"/>
     <use style="fill:#808080;fill-opacity:0.4;" x="184.598793" xlink:href="#mac73bd477f" y="255.365406"/>
     <use style="fill:#808080;fill-opacity:0.4;" x="180.606824" xlink:href="#mac73bd477f" y="210.607537"/>
     <use style="fill:#808080;fill-opacity:0.4;" x="162.212868" xlink:href="#mac73bd477f" y="177.267707"/>
     <use style="fill:#808080;fill-opacity:0.4;" x="160.342303" xlink:href="#mac73bd477f" y="246.58986"/>
     <use style="fill:#808080;fill-opacity:0.4;" x="134.594961" xlink:href="#mac73bd477f" y="190.977621"/>
     <use style="fill:#808080;fill-opacity:0.4;" x="137.207417" xlink:href="#mac73bd477f" y="222.060497"/>
     <use style="fill:#808080;fill-opacity:0.4;" x="140.120536" xlink:href="#mac73bd477f" y="202.453863"/>
     <use style="fill:#808080;fill-opacity:0.4;" x="135.216646" xlink:href="#mac73bd477f" y="159.848527"/>
     <use style="fill:#808080;fill-opacity:0.4;" x="271.514412" xlink:href="#mac73bd477f" y="86.219381"/>
     <use style="fill:#808080;fill-opacity:0.4;" x="263.988816" xlink:href="#mac73bd477f" y="83.268614"/>
     <use style="fill:#808080;fill-opacity:0.4;" x="267.184936" xlink:href="#mac73bd477f" y="82.801655"/>
     <use style="fill:#808080;fill-opacity:0.4;" x="242.55387" xlink:href="#mac73bd477f" y="83.930007"/>
     <use style="fill:#808080;fill-opacity:0.4;" x="258.036175" xlink:href="#mac73bd477f" y="82.181464"/>
     <use style="fill:#808080;fill-opacity:0.4;" x="264.829748" xlink:href="#mac73bd477f" y="73.83505"/>
     <use style="fill:#808080;fill-opacity:0.4;" x="261.338818" xlink:href="#mac73bd477f" y="78.525187"/>
     <use style="fill:#808080;fill-opacity:0.4;" x="260.658162" xlink:href="#mac73bd477f" y="81.003398"/>
     <use style="fill:#808080;fill-opacity:0.4;" x="250.098875" xlink:href="#mac73bd477f" y="84.073648"/>
     <use style="fill:#808080;fill-opacity:0.4;" x="272.404739" xlink:href="#mac73bd477f" y="68.880346"/>
     <use style="fill:#808080;fill-opacity:0.4;" x="264.631112" xlink:href="#mac73bd477f" y="78.836402"/>
     <use style="fill:#808080;fill-opacity:0.4;" x="267.162475" xlink:href="#mac73bd477f" y="77.064231"/>
     <use style="fill:#808080;fill-opacity:0.4;" x="267.431629" xlink:href="#mac73bd477f" y="63.863422"/>
     <use style="fill:#808080;fill-opacity:0.4;" x="263.037511" xlink:href="#mac73bd477f" y="79.759035"/>
     <use style="fill:#808080;fill-opacity:0.4;" x="233.172715" xlink:href="#mac73bd477f" y="71.728161"/>
    </g>
   </g>
   <g id="PolyCollection_1">
    <defs>
     <path d="M 63.217435 -73.377979 
L 63.217435 -45.948961 
L 65.667588 -48.439389 
L 68.11774 -50.920647 
L 70.567893 -53.399444 
L 73.018046 -55.878241 
L 75.468199 -58.357038 
L 77.918352 -60.835835 
L 80.368505 -63.314632 
L 82.818657 -65.793429 
L 85.26881 -68.272014 
L 87.718963 -70.721128 
L 90.169116 -73.1705 
L 92.619269 -75.619928 
L 95.069422 -78.069357 
L 97.519574 -80.537352 
L 99.969727 -82.983148 
L 102.41988 -85.455015 
L 104.870033 -87.8617 
L 107.320186 -90.309047 
L 109.770339 -92.756632 
L 112.220491 -95.204216 
L 114.670644 -97.6518 
L 117.120797 -100.099391 
L 119.57095 -102.525073 
L 122.021103 -104.941294 
L 124.471256 -107.345641 
L 126.921408 -109.754199 
L 129.371561 -112.164284 
L 131.821714 -114.674436 
L 134.271867 -117.059428 
L 136.72202 -119.468043 
L 139.172173 -121.956305 
L 141.622325 -124.447076 
L 144.072478 -126.931956 
L 146.522631 -129.385718 
L 148.972784 -131.831027 
L 151.422937 -134.260939 
L 153.87309 -136.690556 
L 156.323242 -139.120173 
L 158.773395 -141.520302 
L 161.223548 -143.973258 
L 163.673701 -146.316107 
L 166.123854 -148.839909 
L 168.574007 -151.272106 
L 171.024159 -153.5889 
L 173.474312 -155.984419 
L 175.924465 -158.361345 
L 178.374618 -160.701619 
L 180.824771 -163.125935 
L 183.274924 -165.496103 
L 185.725076 -167.812711 
L 188.175229 -170.127055 
L 190.625382 -172.502427 
L 193.075535 -174.809756 
L 195.525688 -177.004626 
L 197.975841 -179.232679 
L 200.425993 -181.478757 
L 202.876146 -183.803246 
L 205.326299 -186.007746 
L 207.776452 -188.204048 
L 210.226605 -190.426823 
L 212.676758 -192.632214 
L 215.12691 -194.827509 
L 217.577063 -196.978015 
L 220.027216 -199.144311 
L 222.477369 -201.232616 
L 224.927522 -203.382517 
L 227.377675 -205.536926 
L 229.827827 -207.699335 
L 232.27798 -209.85833 
L 234.728133 -211.960518 
L 237.178286 -214.030204 
L 239.628439 -216.055444 
L 242.078592 -218.080684 
L 244.528744 -220.105924 
L 246.978897 -222.131164 
L 249.42905 -224.15765 
L 251.879203 -226.243436 
L 254.329356 -228.299726 
L 256.779509 -230.431607 
L 259.229661 -232.499307 
L 261.679814 -234.647393 
L 264.129967 -236.762724 
L 266.58012 -238.80957 
L 269.030273 -240.857305 
L 271.480426 -242.905041 
L 273.930578 -245.027165 
L 276.380731 -247.153234 
L 278.830884 -249.276151 
L 281.281037 -251.399067 
L 283.73119 -253.452573 
L 286.181343 -255.480325 
L 288.631495 -257.502824 
L 291.081648 -259.525322 
L 293.531801 -261.548562 
L 295.981954 -263.57032 
L 298.432107 -265.619889 
L 300.88226 -267.669166 
L 303.332412 -269.680583 
L 305.782565 -271.71228 
L 305.782565 -292.668598 
L 305.782565 -292.668598 
L 303.332412 -290.228894 
L 300.88226 -287.788456 
L 298.432107 -285.347246 
L 295.981954 -282.906037 
L 293.531801 -280.464827 
L 291.081648 -278.00238 
L 288.631495 -275.491962 
L 286.181343 -273.039079 
L 283.73119 -270.57393 
L 281.281037 -268.123954 
L 278.830884 -265.673977 
L 276.380731 -263.223298 
L 273.930578 -260.725253 
L 271.480426 -258.256293 
L 269.030273 -255.767023 
L 266.58012 -253.265149 
L 264.129967 -250.761298 
L 261.679814 -248.280599 
L 259.229661 -245.817025 
L 256.779509 -243.312294 
L 254.329356 -240.918664 
L 251.879203 -238.531068 
L 249.42905 -236.122813 
L 246.978897 -233.747679 
L 244.528744 -231.277269 
L 242.078592 -228.888921 
L 239.628439 -226.469312 
L 237.178286 -224.055384 
L 234.728133 -221.666428 
L 232.27798 -219.350718 
L 229.827827 -216.904282 
L 227.377675 -214.557504 
L 224.927522 -212.155005 
L 222.477369 -209.852332 
L 220.027216 -207.550935 
L 217.577063 -205.247725 
L 215.12691 -202.94723 
L 212.676758 -200.67063 
L 210.226605 -198.359769 
L 207.776452 -196.064508 
L 205.326299 -193.910199 
L 202.876146 -191.696273 
L 200.425993 -189.462023 
L 197.975841 -187.266066 
L 195.525688 -185.13975 
L 193.075535 -182.958657 
L 190.625382 -180.757135 
L 188.175229 -178.593875 
L 185.725076 -176.413053 
L 183.274924 -174.350075 
L 180.824771 -172.234115 
L 178.374618 -170.115253 
L 175.924465 -167.974908 
L 173.474312 -165.961051 
L 171.024159 -163.946035 
L 168.574007 -161.933048 
L 166.123854 -159.775028 
L 163.673701 -157.759471 
L 161.223548 -155.682166 
L 158.773395 -153.55466 
L 156.323242 -151.430684 
L 153.87309 -149.306708 
L 151.422937 -147.21273 
L 148.972784 -145.198563 
L 146.522631 -143.156014 
L 144.072478 -141.058432 
L 141.622325 -138.972768 
L 139.172173 -136.98427 
L 136.72202 -134.905385 
L 134.271867 -132.820806 
L 131.821714 -130.774982 
L 129.371561 -128.758976 
L 126.921408 -126.704392 
L 124.471256 -124.6682 
L 122.021103 -122.623507 
L 119.57095 -120.550748 
L 117.120797 -118.477989 
L 114.670644 -116.404088 
L 112.220491 -114.329861 
L 109.770339 -112.255634 
L 107.320186 -110.181408 
L 104.870033 -108.105142 
L 102.41988 -106.011704 
L 99.969727 -103.918267 
L 97.519574 -101.886422 
L 95.069422 -99.831735 
L 92.619269 -97.797625 
L 90.169116 -95.788537 
L 87.718963 -93.72725 
L 85.26881 -91.691288 
L 82.818657 -89.655326 
L 80.368505 -87.611087 
L 77.918352 -85.540652 
L 75.468199 -83.470217 
L 73.018046 -81.432896 
L 70.567893 -79.455072 
L 68.11774 -77.445153 
L 65.667588 -75.411566 
L 63.217435 -73.377979 
z
" id="m0bbbd83a96"/>
    </defs>
    <g clip-path="url(#p9a79570d86)">
     <use style="fill:#808080;fill-opacity:0.15;" x="0" xlink:href="#m0bbbd83a96" y="360"/>
    </g>
   </g>
   <g id="line2d_15">
    <path clip-path="url(#p9a79570d86)" d="M 63.217435 300.203465 
L 65.667588 297.957544 
L 68.11774 295.711624 
L 70.567893 293.465704 
L 73.018046 291.219783 
L 75.468199 288.973863 
L 77.918352 286.727942 
L 80.368505 284.482022 
L 82.818657 282.236102 
L 85.26881 279.990181 
L 87.718963 277.744261 
L 90.169116 275.49834 
L 92.619269 273.25242 
L 95.069422 271.0065 
L 97.519574 268.760579 
L 99.969727 266.514659 
L 102.41988 264.268738 
L 104.870033 262.022818 
L 107.320186 259.776898 
L 109.770339 257.530977 
L 112.220491 255.285057 
L 114.670644 253.039136 
L 117.120797 250.793216 
L 119.57095 248.547296 
L 122.021103 246.301375 
L 124.471256 244.055455 
L 126.921408 241.809534 
L 129.371561 239.563614 
L 131.821714 237.317694 
L 134.271867 235.071773 
L 136.72202 232.825853 
L 139.172173 230.579932 
L 141.622325 228.334012 
L 144.072478 226.088091 
L 146.522631 223.842171 
L 148.972784 221.596251 
L 151.422937 219.35033 
L 153.87309 217.10441 
L 156.323242 214.858489 
L 158.773395 212.612569 
L 161.223548 210.366649 
L 163.673701 208.120728 
L 166.123854 205.874808 
L 168.574007 203.628887 
L 171.024159 201.382967 
L 173.474312 199.137047 
L 175.924465 196.891126 
L 178.374618 194.645206 
L 180.824771 192.399285 
L 183.274924 190.153365 
L 185.725076 187.907445 
L 188.175229 185.661524 
L 190.625382 183.415604 
L 193.075535 181.169683 
L 195.525688 178.923763 
L 197.975841 176.677843 
L 200.425993 174.431922 
L 202.876146 172.186002 
L 205.326299 169.940081 
L 207.776452 167.694161 
L 210.226605 165.448241 
L 212.676758 163.20232 
L 215.12691 160.9564 
L 217.577063 158.710479 
L 220.027216 156.464559 
L 222.477369 154.218639 
L 224.927522 151.972718 
L 227.377675 149.726798 
L 229.827827 147.480877 
L 232.27798 145.234957 
L 234.728133 142.989037 
L 237.178286 140.743116 
L 239.628439 138.497196 
L 242.078592 136.251275 
L 244.528744 134.005355 
L 246.978897 131.759434 
L 249.42905 129.513514 
L 251.879203 127.267594 
L 254.329356 125.021673 
L 256.779509 122.775753 
L 259.229661 120.529832 
L 261.679814 118.283912 
L 264.129967 116.037992 
L 266.58012 113.792071 
L 269.030273 111.546151 
L 271.480426 109.30023 
L 273.930578 107.05431 
L 276.380731 104.80839 
L 278.830884 102.562469 
L 281.281037 100.316549 
L 283.73119 98.070628 
L 286.181343 95.824708 
L 288.631495 93.578788 
L 291.081648 91.332867 
L 293.531801 89.086947 
L 295.981954 86.841026 
L 298.432107 84.595106 
L 300.88226 82.349186 
L 303.332412 80.103265 
L 305.782565 77.857345 
" style="fill:none;stroke:#808080;stroke-linecap:round;stroke-width:2.25;"/>
   </g>
   <g id="patch_3">
    <path d="M 45 315 
L 45 43.2 
" style="fill:none;stroke:#262626;stroke-linecap:square;stroke-linejoin:miter;stroke-width:2;"/>
   </g>
   <g id="patch_4">
    <path d="M 45 315 
L 324 315 
" style="fill:none;stroke:#262626;stroke-linecap:square;stroke-linejoin:miter;stroke-width:2;"/>
   </g>
   <g id="text_17">
    <text style="fill:#262626;font-family:Droid Sans;font-size:12px;font-style:normal;font-weight:normal;text-anchor:middle;" transform="rotate(-0, 184.5, 37.2)" x="184.5" y="37.2">AraC LOV Enrichment: 2</text>
   </g>
   <g id="legend_1">
    <g id="line2d_16">
     <path d="M 54.9 57.608281 
L 76.9 57.608281 
" style="fill:none;stroke:#808080;stroke-linecap:round;stroke-width:2.25;"/>
    </g>
    <g id="line2d_17"/>
    <g id="text_18">
     <text style="fill:#262626;font-family:Droid Sans;font-size:11px;font-style:normal;font-weight:normal;text-anchor:start;" transform="rotate(-0, 85.7, 61.458281)" x="85.7" y="61.458281">Pearson's r: 0.82</text>
    </g>
   </g>
  </g>
 </g>
 <defs>
  <clipPath id="p9a79570d86">
   <rect height="271.8" width="279" x="45" y="43.2"/>
  </clipPath>
 </defs>
</svg>
