<?xml version="1.0" encoding="utf-8" standalone="no"?>
<!DOCTYPE svg PUBLIC "-//W3C//DTD SVG 1.1//EN"
  "http://www.w3.org/Graphics/SVG/1.1/DTD/svg11.dtd">
<!-- Created with matplotlib (https://matplotlib.org/) -->
<svg height="360pt" version="1.1" viewBox="0 0 360 360" width="360pt" xmlns="http://www.w3.org/2000/svg" xmlns:xlink="http://www.w3.org/1999/xlink">
 <metadata>
  <rdf:RDF xmlns:cc="http://creativecommons.org/ns#" xmlns:dc="http://purl.org/dc/elements/1.1/" xmlns:rdf="http://www.w3.org/1999/02/22-rdf-syntax-ns#">
   <cc:Work>
    <dc:type rdf:resource="http://purl.org/dc/dcmitype/StillImage"/>
    <dc:date>2023-04-13T14:39:27.148570</dc:date>
    <dc:format>image/svg+xml</dc:format>
    <dc:creator>
     <cc:Agent>
      <dc:title>Matplotlib v3.3.3, https://matplotlib.org/</dc:title>
     </cc:Agent>
    </dc:creator>
   </cc:Work>
  </rdf:RDF>
 </metadata>
 <defs>
  <style type="text/css">*{stroke-linecap:butt;stroke-linejoin:round;}</style>
 </defs>
 <g id="figure_1">
  <g id="patch_1">
   <path d="M 0 360 
L 360 360 
L 360 0 
L 0 0 
z
" style="fill:#ffffff;"/>
  </g>
  <g id="axes_1">
   <g id="patch_2">
    <path d="M 45 315 
L 324 315 
L 324 43.2 
L 45 43.2 
z
" style="fill:#ffffff;"/>
   </g>
   <g id="matplotlib.axis_1">
    <g id="xtick_1">
     <g id="line2d_1">
      <defs>
       <path d="M 0 0 
L 0 3.5 
" id="m2a3204b6b6" style="stroke:#262626;stroke-width:2;"/>
      </defs>
      <g>
       <use style="fill:#262626;stroke:#262626;stroke-width:2;" x="91.5" xlink:href="#m2a3204b6b6" y="315"/>
      </g>
     </g>
     <g id="text_1">
      <text style="fill:#262626;font-family:Cantarell;font-size:14px;font-stretch:normal;font-style:normal;font-weight:normal;text-anchor:middle;" transform="rotate(-0, 91.5, 332.051562)" x="91.5" y="332.051562">Coil</text>
     </g>
    </g>
    <g id="xtick_2">
     <g id="line2d_2">
      <g>
       <use style="fill:#262626;stroke:#262626;stroke-width:2;" x="184.5" xlink:href="#m2a3204b6b6" y="315"/>
      </g>
     </g>
     <g id="text_2">
      <text style="fill:#262626;font-family:Cantarell;font-size:14px;font-stretch:normal;font-style:normal;font-weight:normal;text-anchor:middle;" transform="rotate(-0, 184.5, 332.051562)" x="184.5" y="332.051562">Helix</text>
     </g>
    </g>
    <g id="xtick_3">
     <g id="line2d_3">
      <g>
       <use style="fill:#262626;stroke:#262626;stroke-width:2;" x="277.5" xlink:href="#m2a3204b6b6" y="315"/>
      </g>
     </g>
     <g id="text_3">
      <text style="fill:#262626;font-family:Cantarell;font-size:14px;font-stretch:normal;font-style:normal;font-weight:normal;text-anchor:middle;" transform="rotate(-0, 277.5, 332.051562)" x="277.5" y="332.051562">Sheet</text>
     </g>
    </g>
    <g id="text_4">
     <text style="fill:#262626;font-family:Cantarell;font-size:14px;font-stretch:normal;font-style:normal;font-weight:normal;text-anchor:middle;" transform="rotate(-0, 184.5, 349.574687)" x="184.5" y="349.574687">Sec structure</text>
    </g>
   </g>
   <g id="matplotlib.axis_2">
    <g id="ytick_1">
     <g id="line2d_4">
      <defs>
       <path d="M 0 0 
L -3.5 0 
" id="md674d2973e" style="stroke:#262626;stroke-width:2;"/>
      </defs>
      <g>
       <use style="fill:#262626;stroke:#262626;stroke-width:2;" x="45" xlink:href="#md674d2973e" y="302.224169"/>
      </g>
     </g>
     <g id="text_5">
      <text style="fill:#262626;font-family:Cantarell;font-size:14px;font-stretch:normal;font-style:normal;font-weight:normal;text-anchor:end;" transform="rotate(-0, 38, 307.24995)" x="38" y="307.24995">−12.5</text>
     </g>
    </g>
    <g id="ytick_2">
     <g id="line2d_5">
      <g>
       <use style="fill:#262626;stroke:#262626;stroke-width:2;" x="45" xlink:href="#md674d2973e" y="271.288351"/>
      </g>
     </g>
     <g id="text_6">
      <text style="fill:#262626;font-family:Cantarell;font-size:14px;font-stretch:normal;font-style:normal;font-weight:normal;text-anchor:end;" transform="rotate(-0, 38, 276.314132)" x="38" y="276.314132">−10.0</text>
     </g>
    </g>
    <g id="ytick_3">
     <g id="line2d_6">
      <g>
       <use style="fill:#262626;stroke:#262626;stroke-width:2;" x="45" xlink:href="#md674d2973e" y="240.352533"/>
      </g>
     </g>
     <g id="text_7">
      <text style="fill:#262626;font-family:Cantarell;font-size:14px;font-stretch:normal;font-style:normal;font-weight:normal;text-anchor:end;" transform="rotate(-0, 38, 245.378314)" x="38" y="245.378314">−7.5</text>
     </g>
    </g>
    <g id="ytick_4">
     <g id="line2d_7">
      <g>
       <use style="fill:#262626;stroke:#262626;stroke-width:2;" x="45" xlink:href="#md674d2973e" y="209.416715"/>
      </g>
     </g>
     <g id="text_8">
      <text style="fill:#262626;font-family:Cantarell;font-size:14px;font-stretch:normal;font-style:normal;font-weight:normal;text-anchor:end;" transform="rotate(-0, 38, 214.442496)" x="38" y="214.442496">−5.0</text>
     </g>
    </g>
    <g id="ytick_5">
     <g id="line2d_8">
      <g>
       <use style="fill:#262626;stroke:#262626;stroke-width:2;" x="45" xlink:href="#md674d2973e" y="178.480896"/>
      </g>
     </g>
     <g id="text_9">
      <text style="fill:#262626;font-family:Cantarell;font-size:14px;font-stretch:normal;font-style:normal;font-weight:normal;text-anchor:end;" transform="rotate(-0, 38, 183.506678)" x="38" y="183.506678">−2.5</text>
     </g>
    </g>
    <g id="ytick_6">
     <g id="line2d_9">
      <g>
       <use style="fill:#262626;stroke:#262626;stroke-width:2;" x="45" xlink:href="#md674d2973e" y="147.545078"/>
      </g>
     </g>
     <g id="text_10">
      <text style="fill:#262626;font-family:Cantarell;font-size:14px;font-stretch:normal;font-style:normal;font-weight:normal;text-anchor:end;" transform="rotate(-0, 38, 152.570859)" x="38" y="152.570859">0.0</text>
     </g>
    </g>
    <g id="ytick_7">
     <g id="line2d_10">
      <g>
       <use style="fill:#262626;stroke:#262626;stroke-width:2;" x="45" xlink:href="#md674d2973e" y="116.60926"/>
      </g>
     </g>
     <g id="text_11">
      <text style="fill:#262626;font-family:Cantarell;font-size:14px;font-stretch:normal;font-style:normal;font-weight:normal;text-anchor:end;" transform="rotate(-0, 38, 121.635041)" x="38" y="121.635041">2.5</text>
     </g>
    </g>
    <g id="ytick_8">
     <g id="line2d_11">
      <g>
       <use style="fill:#262626;stroke:#262626;stroke-width:2;" x="45" xlink:href="#md674d2973e" y="85.673442"/>
      </g>
     </g>
     <g id="text_12">
      <text style="fill:#262626;font-family:Cantarell;font-size:14px;font-stretch:normal;font-style:normal;font-weight:normal;text-anchor:end;" transform="rotate(-0, 38, 90.699223)" x="38" y="90.699223">5.0</text>
     </g>
    </g>
    <g id="ytick_9">
     <g id="line2d_12">
      <g>
       <use style="fill:#262626;stroke:#262626;stroke-width:2;" x="45" xlink:href="#md674d2973e" y="54.737624"/>
      </g>
     </g>
     <g id="text_13">
      <text style="fill:#262626;font-family:Cantarell;font-size:14px;font-stretch:normal;font-style:normal;font-weight:normal;text-anchor:end;" transform="rotate(-0, 38, 59.763405)" x="38" y="59.763405">7.5</text>
     </g>
    </g>
    <g id="text_14">
     <text style="fill:#262626;font-family:Cantarell;font-size:14px;font-stretch:normal;font-style:normal;font-weight:normal;text-anchor:middle;" transform="rotate(-90, -6.812188, 179.1)" x="-6.812188" y="179.1">Log2 variant enrichment</text>
    </g>
   </g>
   <g id="PolyCollection_1">
    <defs>
     <path d="M 92.348112 -60.409401 
L 90.651888 -60.409401 
L 90.349367 -62.630966 
L 89.975652 -64.852531 
L 89.527567 -67.074096 
L 89.006363 -69.295661 
L 88.418479 -71.517226 
L 87.775674 -73.738791 
L 87.094331 -75.960356 
L 86.393833 -78.181921 
L 85.694081 -80.403486 
L 85.012393 -82.625051 
L 84.36021 -84.846616 
L 83.740128 -87.068181 
L 83.143816 -89.289746 
L 82.551298 -91.511311 
L 81.931895 -93.732875 
L 81.246888 -95.95444 
L 80.453683 -98.176005 
L 79.511023 -100.39757 
L 78.384612 -102.619135 
L 77.05244 -104.8407 
L 75.509121 -107.062265 
L 73.76868 -109.28383 
L 71.865404 -111.505395 
L 69.852588 -113.72696 
L 67.799241 -115.948525 
L 65.785039 -118.17009 
L 63.893986 -120.391655 
L 62.207407 -122.61322 
L 60.796966 -124.834785 
L 59.718462 -127.05635 
L 59.007063 -129.277915 
L 58.674524 -131.49948 
L 58.708699 -133.721045 
L 59.075397 -135.94261 
L 59.722309 -138.164175 
L 60.584511 -140.38574 
L 61.590807 -142.607305 
L 62.670151 -144.82887 
L 63.7574 -147.050435 
L 64.797824 -149.272 
L 65.750041 -151.493565 
L 66.587278 -153.71513 
L 67.297112 -155.936695 
L 67.87999 -158.15826 
L 68.346929 -160.379825 
L 68.716758 -162.60139 
L 69.013257 -164.822955 
L 69.262431 -167.04452 
L 69.490097 -169.266085 
L 69.719876 -171.48765 
L 69.97166 -173.709215 
L 70.260584 -175.93078 
L 70.596498 -178.152345 
L 70.983906 -180.37391 
L 71.422337 -182.595475 
L 71.907032 -184.81704 
L 72.429844 -187.038605 
L 72.980258 -189.26017 
L 73.546406 -191.481735 
L 74.116048 -193.7033 
L 74.677447 -195.924865 
L 75.220166 -198.14643 
L 75.735746 -200.367995 
L 76.218272 -202.589559 
L 76.664784 -204.811124 
L 77.075475 -207.032689 
L 77.453645 -209.254254 
L 77.805366 -211.475819 
L 78.138891 -213.697384 
L 78.463858 -215.918949 
L 78.790407 -218.140514 
L 79.128332 -220.362079 
L 79.486379 -222.583644 
L 79.871771 -224.805209 
L 80.289981 -227.026774 
L 80.744701 -229.248339 
L 81.237926 -231.469904 
L 81.770071 -233.691469 
L 82.34002 -235.913034 
L 82.945095 -238.134599 
L 83.580949 -240.356164 
L 84.241456 -242.577729 
L 84.918688 -244.799294 
L 85.603053 -247.020859 
L 86.283656 -249.242424 
L 86.948874 -251.463989 
L 87.587097 -253.685554 
L 88.187539 -255.907119 
L 88.741004 -258.128684 
L 89.24051 -260.350249 
L 89.68167 -262.571814 
L 90.062818 -264.793379 
L 90.384858 -267.014944 
L 90.650909 -269.236509 
L 90.865794 -271.458074 
L 91.035458 -273.679639 
L 91.166408 -275.901204 
L 91.265203 -278.122769 
L 91.338059 -280.344334 
L 91.661941 -280.344334 
L 91.661941 -280.344334 
L 91.734797 -278.122769 
L 91.833592 -275.901204 
L 91.964542 -273.679639 
L 92.134206 -271.458074 
L 92.349091 -269.236509 
L 92.615142 -267.014944 
L 92.937182 -264.793379 
L 93.31833 -262.571814 
L 93.75949 -260.350249 
L 94.258996 -258.128684 
L 94.812461 -255.907119 
L 95.412903 -253.685554 
L 96.051126 -251.463989 
L 96.716344 -249.242424 
L 97.396947 -247.020859 
L 98.081312 -244.799294 
L 98.758544 -242.577729 
L 99.419051 -240.356164 
L 100.054905 -238.134599 
L 100.65998 -235.913034 
L 101.229929 -233.691469 
L 101.762074 -231.469904 
L 102.255299 -229.248339 
L 102.710019 -227.026774 
L 103.128229 -224.805209 
L 103.513621 -222.583644 
L 103.871668 -220.362079 
L 104.209593 -218.140514 
L 104.536142 -215.918949 
L 104.861109 -213.697384 
L 105.194634 -211.475819 
L 105.546355 -209.254254 
L 105.924525 -207.032689 
L 106.335216 -204.811124 
L 106.781728 -202.589559 
L 107.264254 -200.367995 
L 107.779834 -198.14643 
L 108.322553 -195.924865 
L 108.883952 -193.7033 
L 109.453594 -191.481735 
L 110.019742 -189.26017 
L 110.570156 -187.038605 
L 111.092968 -184.81704 
L 111.577663 -182.595475 
L 112.016094 -180.37391 
L 112.403502 -178.152345 
L 112.739416 -175.93078 
L 113.02834 -173.709215 
L 113.280124 -171.48765 
L 113.509903 -169.266085 
L 113.737569 -167.04452 
L 113.986743 -164.822955 
L 114.283242 -162.60139 
L 114.653071 -160.379825 
L 115.12001 -158.15826 
L 115.702888 -155.936695 
L 116.412722 -153.71513 
L 117.249959 -151.493565 
L 118.202176 -149.272 
L 119.2426 -147.050435 
L 120.329849 -144.82887 
L 121.409193 -142.607305 
L 122.415489 -140.38574 
L 123.277691 -138.164175 
L 123.924603 -135.94261 
L 124.291301 -133.721045 
L 124.325476 -131.49948 
L 123.992937 -129.277915 
L 123.281538 -127.05635 
L 122.203034 -124.834785 
L 120.792593 -122.61322 
L 119.106014 -120.391655 
L 117.214961 -118.17009 
L 115.200759 -115.948525 
L 113.147412 -113.72696 
L 111.134596 -111.505395 
L 109.23132 -109.28383 
L 107.490879 -107.062265 
L 105.94756 -104.8407 
L 104.615388 -102.619135 
L 103.488977 -100.39757 
L 102.546317 -98.176005 
L 101.753112 -95.95444 
L 101.068105 -93.732875 
L 100.448702 -91.511311 
L 99.856184 -89.289746 
L 99.259872 -87.068181 
L 98.63979 -84.846616 
L 97.987607 -82.625051 
L 97.305919 -80.403486 
L 96.606167 -78.181921 
L 95.905669 -75.960356 
L 95.224326 -73.738791 
L 94.581521 -71.517226 
L 93.993637 -69.295661 
L 93.472433 -67.074096 
L 93.024348 -64.852531 
L 92.650633 -62.630966 
L 92.348112 -60.409401 
z
" id="m05027f0bf8" style="stroke:#4d4d4d;stroke-width:2;"/>
    </defs>
    <g clip-path="url(#p47e3626716)">
     <use style="fill:#808080;stroke:#4d4d4d;stroke-width:2;" x="0" xlink:href="#m05027f0bf8" y="360"/>
    </g>
   </g>
   <g id="PolyCollection_2">
    <defs>
     <path d="M 185.9846 -57.354545 
L 183.0154 -57.354545 
L 182.533226 -59.624282 
L 181.94717 -61.894019 
L 181.25309 -64.163756 
L 180.452606 -66.433493 
L 179.554213 -68.70323 
L 178.573795 -70.972967 
L 177.534316 -73.242703 
L 176.464558 -75.51244 
L 175.396872 -77.782177 
L 174.364095 -80.051914 
L 173.395941 -82.321651 
L 172.515297 -84.591388 
L 171.734952 -86.861124 
L 171.055267 -89.130861 
L 170.463233 -91.400598 
L 169.933165 -93.670335 
L 169.42907 -95.940072 
L 168.908489 -98.209809 
L 168.327387 -100.479546 
L 167.645487 -102.749282 
L 166.831385 -105.019019 
L 165.866794 -107.288756 
L 164.749379 -109.558493 
L 163.493803 -111.82823 
L 162.130883 -114.097967 
L 160.704938 -116.367703 
L 159.269671 -118.63744 
L 157.883072 -120.907177 
L 156.601953 -123.176914 
L 155.476739 -125.446651 
L 154.547093 -127.716388 
L 153.838829 -129.986124 
L 153.362398 -132.255861 
L 153.113028 -134.525598 
L 153.072394 -136.795335 
L 153.211516 -139.065072 
L 153.494474 -141.334809 
L 153.882434 -143.604546 
L 154.33753 -145.874282 
L 154.826182 -148.144019 
L 155.321584 -150.413756 
L 155.80519 -152.683493 
L 156.26723 -154.95323 
L 156.706334 -157.222967 
L 157.128475 -159.492703 
L 157.545453 -161.76244 
L 157.973139 -164.032177 
L 158.429659 -166.301914 
L 158.933684 -168.571651 
L 159.502878 -170.841388 
L 160.152583 -173.111125 
L 160.894736 -175.380861 
L 161.737023 -177.650598 
L 162.682282 -179.920335 
L 163.728138 -182.190072 
L 164.866909 -184.459809 
L 166.085767 -186.729546 
L 167.367183 -188.999282 
L 168.689652 -191.269019 
L 170.028662 -193.538756 
L 171.357872 -195.808493 
L 172.650426 -198.07823 
L 173.880317 -200.347967 
L 175.023704 -202.617704 
L 176.060084 -204.88744 
L 176.973248 -207.157177 
L 177.751949 -209.426914 
L 178.390278 -211.696651 
L 178.887738 -213.966388 
L 179.249054 -216.236125 
L 179.483763 -218.505861 
L 179.605648 -220.775598 
L 179.632044 -223.045335 
L 179.583052 -225.315072 
L 179.480682 -227.584809 
L 179.347921 -229.854546 
L 179.207736 -232.124283 
L 179.082023 -234.394019 
L 178.990548 -236.663756 
L 178.94993 -238.933493 
L 178.972759 -241.20323 
L 179.066929 -243.472967 
L 179.235278 -245.742704 
L 179.475594 -248.01244 
L 179.781007 -250.282177 
L 180.140736 -252.551914 
L 180.541135 -254.821651 
L 180.966907 -257.091388 
L 181.402373 -259.361125 
L 181.832659 -261.630862 
L 182.244689 -263.900598 
L 182.627895 -266.170335 
L 182.974617 -268.440072 
L 183.280197 -270.709809 
L 183.54279 -272.979546 
L 183.762975 -275.249283 
L 183.943238 -277.519019 
L 184.087401 -279.788756 
L 184.20007 -282.058493 
L 184.79993 -282.058493 
L 184.79993 -282.058493 
L 184.912599 -279.788756 
L 185.056762 -277.519019 
L 185.237025 -275.249283 
L 185.45721 -272.979546 
L 185.719803 -270.709809 
L 186.025383 -268.440072 
L 186.372105 -266.170335 
L 186.755311 -263.900598 
L 187.167341 -261.630862 
L 187.597627 -259.361125 
L 188.033093 -257.091388 
L 188.458865 -254.821651 
L 188.859264 -252.551914 
L 189.218993 -250.282177 
L 189.524406 -248.01244 
L 189.764722 -245.742704 
L 189.933071 -243.472967 
L 190.027241 -241.20323 
L 190.05007 -238.933493 
L 190.009452 -236.663756 
L 189.917977 -234.394019 
L 189.792264 -232.124283 
L 189.652079 -229.854546 
L 189.519318 -227.584809 
L 189.416948 -225.315072 
L 189.367956 -223.045335 
L 189.394352 -220.775598 
L 189.516237 -218.505861 
L 189.750946 -216.236125 
L 190.112262 -213.966388 
L 190.609722 -211.696651 
L 191.248051 -209.426914 
L 192.026752 -207.157177 
L 192.939916 -204.88744 
L 193.976296 -202.617704 
L 195.119683 -200.347967 
L 196.349574 -198.07823 
L 197.642128 -195.808493 
L 198.971338 -193.538756 
L 200.310348 -191.269019 
L 201.632817 -188.999282 
L 202.914233 -186.729546 
L 204.133091 -184.459809 
L 205.271862 -182.190072 
L 206.317718 -179.920335 
L 207.262977 -177.650598 
L 208.105264 -175.380861 
L 208.847417 -173.111125 
L 209.497122 -170.841388 
L 210.066316 -168.571651 
L 210.570341 -166.301914 
L 211.026861 -164.032177 
L 211.454547 -161.76244 
L 211.871525 -159.492703 
L 212.293666 -157.222967 
L 212.73277 -154.95323 
L 213.19481 -152.683493 
L 213.678416 -150.413756 
L 214.173818 -148.144019 
L 214.66247 -145.874282 
L 215.117566 -143.604546 
L 215.505526 -141.334809 
L 215.788484 -139.065072 
L 215.927606 -136.795335 
L 215.886972 -134.525598 
L 215.637602 -132.255861 
L 215.161171 -129.986124 
L 214.452907 -127.716388 
L 213.523261 -125.446651 
L 212.398047 -123.176914 
L 211.116928 -120.907177 
L 209.730329 -118.63744 
L 208.295062 -116.367703 
L 206.869117 -114.097967 
L 205.506197 -111.82823 
L 204.250621 -109.558493 
L 203.133206 -107.288756 
L 202.168615 -105.019019 
L 201.354513 -102.749282 
L 200.672613 -100.479546 
L 200.091511 -98.209809 
L 199.57093 -95.940072 
L 199.066835 -93.670335 
L 198.536767 -91.400598 
L 197.944733 -89.130861 
L 197.265048 -86.861124 
L 196.484703 -84.591388 
L 195.604059 -82.321651 
L 194.635905 -80.051914 
L 193.603128 -77.782177 
L 192.535442 -75.51244 
L 191.465684 -73.242703 
L 190.426205 -70.972967 
L 189.445787 -68.70323 
L 188.547394 -66.433493 
L 187.74691 -64.163756 
L 187.05283 -61.894019 
L 186.466774 -59.624282 
L 185.9846 -57.354545 
z
" id="ma9f4cbbfdc" style="stroke:#4d4d4d;stroke-width:2;"/>
    </defs>
    <g clip-path="url(#p47e3626716)">
     <use style="fill:#808080;stroke:#4d4d4d;stroke-width:2;" x="0" xlink:href="#ma9f4cbbfdc" y="360"/>
    </g>
   </g>
   <g id="PolyCollection_3">
    <defs>
     <path d="M 277.843385 -60.385595 
L 277.156615 -60.385595 
L 277.016496 -62.850846 
L 276.837726 -65.316097 
L 276.616791 -67.781348 
L 276.351946 -70.246599 
L 276.043297 -72.71185 
L 275.69233 -75.177101 
L 275.300791 -77.642352 
L 274.868916 -80.107603 
L 274.3932 -82.572855 
L 273.864082 -85.038106 
L 273.264009 -87.503357 
L 272.566455 -89.968608 
L 271.736365 -92.433859 
L 270.732384 -94.89911 
L 269.51093 -97.364361 
L 268.031899 -99.829612 
L 266.265446 -102.294863 
L 264.198993 -104.760115 
L 261.843431 -107.225366 
L 259.237395 -109.690617 
L 256.44858 -112.155868 
L 253.5714 -114.621119 
L 250.720709 -117.08637 
L 248.021982 -119.551621 
L 245.59895 -122.016872 
L 243.560302 -124.482123 
L 241.987351 -126.947375 
L 240.924629 -129.412626 
L 240.37497 -131.877877 
L 240.3 -134.343128 
L 240.626057 -136.808379 
L 241.254662 -139.27363 
L 242.075924 -141.738881 
L 242.982794 -144.204132 
L 243.884023 -146.669383 
L 244.714002 -149.134635 
L 245.438229 -151.599886 
L 246.053997 -154.065137 
L 246.586635 -156.530388 
L 247.082356 -158.995639 
L 247.599158 -161.46089 
L 248.197344 -163.926141 
L 248.931071 -166.391392 
L 249.841909 -168.856643 
L 250.954882 -171.321895 
L 252.276989 -173.787146 
L 253.797785 -176.252397 
L 255.491449 -178.717648 
L 257.319704 -181.182899 
L 259.235115 -183.64815 
L 261.184448 -186.113401 
L 263.111925 -188.578652 
L 264.962341 -191.043903 
L 266.683995 -193.509155 
L 268.231394 -195.974406 
L 269.567609 -198.439657 
L 270.666165 -200.904908 
L 271.512328 -203.370159 
L 272.103745 -205.83541 
L 272.450396 -208.300661 
L 272.573906 -210.765912 
L 272.506267 -213.231163 
L 272.287989 -215.696415 
L 271.965706 -218.161666 
L 271.589254 -220.626917 
L 271.208282 -223.092168 
L 270.868563 -225.557419 
L 270.608308 -228.02267 
L 270.454886 -230.487921 
L 270.422409 -232.953172 
L 270.510633 -235.418423 
L 270.705449 -237.883675 
L 270.981034 -240.348926 
L 271.303467 -242.814177 
L 271.635363 -245.279428 
L 271.940921 -247.744679 
L 272.190678 -250.20993 
L 272.365332 -252.675181 
L 272.458118 -255.140432 
L 272.475418 -257.605683 
L 272.435558 -260.070935 
L 272.365974 -262.536186 
L 272.299177 -265.001437 
L 272.268095 -267.466688 
L 272.301495 -269.931939 
L 272.420149 -272.39719 
L 272.634304 -274.862441 
L 272.94279 -277.327692 
L 273.333808 -279.792943 
L 273.78718 -282.258195 
L 274.277565 -284.723446 
L 274.778052 -287.188697 
L 275.263509 -289.653948 
L 275.713196 -292.119199 
L 276.112354 -294.58445 
L 276.452704 -297.049701 
L 276.73199 -299.514952 
L 276.952854 -301.980203 
L 277.121363 -304.445455 
L 277.878637 -304.445455 
L 277.878637 -304.445455 
L 278.047146 -301.980203 
L 278.26801 -299.514952 
L 278.547296 -297.049701 
L 278.887646 -294.58445 
L 279.286804 -292.119199 
L 279.736491 -289.653948 
L 280.221948 -287.188697 
L 280.722435 -284.723446 
L 281.21282 -282.258195 
L 281.666192 -279.792943 
L 282.05721 -277.327692 
L 282.365696 -274.862441 
L 282.579851 -272.39719 
L 282.698505 -269.931939 
L 282.731905 -267.466688 
L 282.700823 -265.001437 
L 282.634026 -262.536186 
L 282.564442 -260.070935 
L 282.524582 -257.605683 
L 282.541882 -255.140432 
L 282.634668 -252.675181 
L 282.809322 -250.20993 
L 283.059079 -247.744679 
L 283.364637 -245.279428 
L 283.696533 -242.814177 
L 284.018966 -240.348926 
L 284.294551 -237.883675 
L 284.489367 -235.418423 
L 284.577591 -232.953172 
L 284.545114 -230.487921 
L 284.391692 -228.02267 
L 284.131437 -225.557419 
L 283.791718 -223.092168 
L 283.410746 -220.626917 
L 283.034294 -218.161666 
L 282.712011 -215.696415 
L 282.493733 -213.231163 
L 282.426094 -210.765912 
L 282.549604 -208.300661 
L 282.896255 -205.83541 
L 283.487672 -203.370159 
L 284.333835 -200.904908 
L 285.432391 -198.439657 
L 286.768606 -195.974406 
L 288.316005 -193.509155 
L 290.037659 -191.043903 
L 291.888075 -188.578652 
L 293.815552 -186.113401 
L 295.764885 -183.64815 
L 297.680296 -181.182899 
L 299.508551 -178.717648 
L 301.202215 -176.252397 
L 302.723011 -173.787146 
L 304.045118 -171.321895 
L 305.158091 -168.856643 
L 306.068929 -166.391392 
L 306.802656 -163.926141 
L 307.400842 -161.46089 
L 307.917644 -158.995639 
L 308.413365 -156.530388 
L 308.946003 -154.065137 
L 309.561771 -151.599886 
L 310.285998 -149.134635 
L 311.115977 -146.669383 
L 312.017206 -144.204132 
L 312.924076 -141.738881 
L 313.745338 -139.27363 
L 314.373943 -136.808379 
L 314.7 -134.343128 
L 314.62503 -131.877877 
L 314.075371 -129.412626 
L 313.012649 -126.947375 
L 311.439698 -124.482123 
L 309.40105 -122.016872 
L 306.978018 -119.551621 
L 304.279291 -117.08637 
L 301.4286 -114.621119 
L 298.55142 -112.155868 
L 295.762605 -109.690617 
L 293.156569 -107.225366 
L 290.801007 -104.760115 
L 288.734554 -102.294863 
L 286.968101 -99.829612 
L 285.48907 -97.364361 
L 284.267616 -94.89911 
L 283.263635 -92.433859 
L 282.433545 -89.968608 
L 281.735991 -87.503357 
L 281.135918 -85.038106 
L 280.6068 -82.572855 
L 280.131084 -80.107603 
L 279.699209 -77.642352 
L 279.30767 -75.177101 
L 278.956703 -72.71185 
L 278.648054 -70.246599 
L 278.383209 -67.781348 
L 278.162274 -65.316097 
L 277.983504 -62.850846 
L 277.843385 -60.385595 
z
" id="m807b3650a8" style="stroke:#4d4d4d;stroke-width:2;"/>
    </defs>
    <g clip-path="url(#p47e3626716)">
     <use style="fill:#808080;stroke:#4d4d4d;stroke-width:2;" x="0" xlink:href="#m807b3650a8" y="360"/>
    </g>
   </g>
   <g id="line2d_13">
    <path clip-path="url(#p47e3626716)" d="M 91.5 271.288351 
L 91.5 107.957915 
" style="fill:none;stroke:#000000;stroke-linecap:round;stroke-width:2;"/>
   </g>
   <g id="line2d_14">
    <path clip-path="url(#p47e3626716)" d="M 91.5 231.944059 
L 91.5 173.792073 
" style="fill:none;stroke:#000000;stroke-linecap:round;stroke-width:6;"/>
   </g>
   <g id="line2d_15">
    <path clip-path="url(#p47e3626716)" d="M 184.5 271.288351 
L 184.5 109.298611 
" style="fill:none;stroke:#000000;stroke-linecap:round;stroke-width:2;"/>
   </g>
   <g id="line2d_16">
    <path clip-path="url(#p47e3626716)" d="M 184.5 234.137983 
L 184.5 183.736087 
" style="fill:none;stroke:#000000;stroke-linecap:round;stroke-width:6;"/>
   </g>
   <g id="line2d_17">
    <path clip-path="url(#p47e3626716)" d="M 277.5 271.288351 
L 277.5 116.873943 
" style="fill:none;stroke:#000000;stroke-linecap:round;stroke-width:2;"/>
   </g>
   <g id="line2d_18">
    <path clip-path="url(#p47e3626716)" d="M 277.5 231.237444 
L 277.5 183.430487 
" style="fill:none;stroke:#000000;stroke-linecap:round;stroke-width:6;"/>
   </g>
   <g id="patch_3">
    <path d="M 45 315 
L 45 43.2 
" style="fill:none;stroke:#262626;stroke-linecap:square;stroke-linejoin:miter;stroke-width:2;"/>
   </g>
   <g id="patch_4">
    <path d="M 45 315 
L 324 315 
" style="fill:none;stroke:#262626;stroke-linecap:square;stroke-linejoin:miter;stroke-width:2;"/>
   </g>
   <g id="PathCollection_1">
    <defs>
     <path d="M 0 2 
C 0.530406 2 1.03916 1.789267 1.414214 1.414214 
C 1.789267 1.03916 2 0.530406 2 0 
C 2 -0.530406 1.789267 -1.03916 1.414214 -1.414214 
C 1.03916 -1.789267 0.530406 -2 0 -2 
C -0.530406 -2 -1.03916 -1.789267 -1.414214 -1.414214 
C -1.789267 -1.03916 -2 -0.530406 -2 0 
C -2 0.530406 -1.789267 1.03916 -1.414214 1.414214 
C -1.03916 1.789267 -0.530406 2 0 2 
z
" id="mf5e792b374" style="stroke:#4d4d4d;"/>
    </defs>
    <g clip-path="url(#p47e3626716)">
     <use style="fill:#ffffff;stroke:#4d4d4d;" x="91.5" xlink:href="#mf5e792b374" y="208.153978"/>
    </g>
   </g>
   <g id="PathCollection_2">
    <g clip-path="url(#p47e3626716)">
     <use style="fill:#ffffff;stroke:#4d4d4d;" x="184.5" xlink:href="#mf5e792b374" y="214.000788"/>
    </g>
   </g>
   <g id="PathCollection_3">
    <g clip-path="url(#p47e3626716)">
     <use style="fill:#ffffff;stroke:#4d4d4d;" x="277.5" xlink:href="#mf5e792b374" y="209.376216"/>
    </g>
   </g>
   <g id="text_15">
    <text style="fill:#262626;font-family:Cantarell;font-size:16.8px;font-stretch:normal;font-style:normal;font-weight:normal;text-anchor:middle;" transform="rotate(-0, 184.5, 37.2)" x="184.5" y="37.2">AraC_eYFP</text>
   </g>
  </g>
 </g>
 <defs>
  <clipPath id="p47e3626716">
   <rect height="271.8" width="279" x="45" y="43.2"/>
  </clipPath>
 </defs>
</svg>
