<?xml version="1.0" encoding="utf-8" standalone="no"?>
<!DOCTYPE svg PUBLIC "-//W3C//DTD SVG 1.1//EN"
  "http://www.w3.org/Graphics/SVG/1.1/DTD/svg11.dtd">
<svg xmlns:xlink="http://www.w3.org/1999/xlink" width="360pt" height="360pt" viewBox="0 0 360 360" xmlns="http://www.w3.org/2000/svg" version="1.1">
 <metadata>
  <rdf:RDF xmlns:dc="http://purl.org/dc/elements/1.1/" xmlns:cc="http://creativecommons.org/ns#" xmlns:rdf="http://www.w3.org/1999/02/22-rdf-syntax-ns#">
   <cc:Work>
    <dc:type rdf:resource="http://purl.org/dc/dcmitype/StillImage"/>
    <dc:date>2023-12-05T10:52:05.005317</dc:date>
    <dc:format>image/svg+xml</dc:format>
    <dc:creator>
     <cc:Agent>
      <dc:title>Matplotlib v3.5.3, https://matplotlib.org/</dc:title>
     </cc:Agent>
    </dc:creator>
   </cc:Work>
  </rdf:RDF>
 </metadata>
 <defs>
  <style type="text/css">*{stroke-linejoin: round; stroke-linecap: butt}</style>
 </defs>
 <g id="figure_1">
  <g id="patch_1">
   <path d="M 0 360 
L 360 360 
L 360 0 
L 0 0 
z
" style="fill: #ffffff"/>
  </g>
  <g id="axes_1">
   <g id="patch_2">
    <path d="M 45 320.4 
L 324 320.4 
L 324 43.2 
L 45 43.2 
z
" style="fill: #ffffff"/>
   </g>
   <g id="matplotlib.axis_1">
    <g id="xtick_1">
     <g id="line2d_1">
      <defs>
       <path id="m9277b50089" d="M 0 0 
L 0 3.5 
" style="stroke: #262626; stroke-width: 2"/>
      </defs>
      <g>
       <use xlink:href="#m9277b50089" x="91.5" y="320.4" style="fill: #262626; stroke: #262626; stroke-width: 2"/>
      </g>
     </g>
     <g id="text_1">
      <text style="fill: #262626; font: 14px 'sans-serif'; text-anchor: middle" x="91.5" y="338.037813" transform="rotate(-0, 91.5, 338.037813)">Coil</text>
     </g>
    </g>
    <g id="xtick_2">
     <g id="line2d_2">
      <g>
       <use xlink:href="#m9277b50089" x="184.5" y="320.4" style="fill: #262626; stroke: #262626; stroke-width: 2"/>
      </g>
     </g>
     <g id="text_2">
      <text style="fill: #262626; font: 14px 'sans-serif'; text-anchor: middle" x="184.5" y="338.037813" transform="rotate(-0, 184.5, 338.037813)">Helix</text>
     </g>
    </g>
    <g id="xtick_3">
     <g id="line2d_3">
      <g>
       <use xlink:href="#m9277b50089" x="277.5" y="320.4" style="fill: #262626; stroke: #262626; stroke-width: 2"/>
      </g>
     </g>
     <g id="text_3">
      <text style="fill: #262626; font: 14px 'sans-serif'; text-anchor: middle" x="277.5" y="338.037813" transform="rotate(-0, 277.5, 338.037813)">Sheet</text>
     </g>
    </g>
    <g id="text_4">
     <text style="fill: #262626; font: 14px 'sans-serif'; text-anchor: middle" x="184.5" y="355.587188" transform="rotate(-0, 184.5, 355.587188)">Sec structure</text>
    </g>
   </g>
   <g id="matplotlib.axis_2">
    <g id="ytick_1">
     <g id="line2d_4">
      <defs>
       <path id="m3f46f1f047" d="M 0 0 
L -3.5 0 
" style="stroke: #262626; stroke-width: 2"/>
      </defs>
      <g>
       <use xlink:href="#m3f46f1f047" x="45" y="313.753428" style="fill: #262626; stroke: #262626; stroke-width: 2"/>
      </g>
     </g>
     <g id="text_5">
      <text style="fill: #262626; font: 14px 'sans-serif'; text-anchor: end" x="38" y="319.072334" transform="rotate(-0, 38, 319.072334)">−12.5</text>
     </g>
    </g>
    <g id="ytick_2">
     <g id="line2d_5">
      <g>
       <use xlink:href="#m3f46f1f047" x="45" y="281.724604" style="fill: #262626; stroke: #262626; stroke-width: 2"/>
      </g>
     </g>
     <g id="text_6">
      <text style="fill: #262626; font: 14px 'sans-serif'; text-anchor: end" x="38" y="287.043511" transform="rotate(-0, 38, 287.043511)">−10.0</text>
     </g>
    </g>
    <g id="ytick_3">
     <g id="line2d_6">
      <g>
       <use xlink:href="#m3f46f1f047" x="45" y="249.695781" style="fill: #262626; stroke: #262626; stroke-width: 2"/>
      </g>
     </g>
     <g id="text_7">
      <text style="fill: #262626; font: 14px 'sans-serif'; text-anchor: end" x="38" y="255.014687" transform="rotate(-0, 38, 255.014687)">−7.5</text>
     </g>
    </g>
    <g id="ytick_4">
     <g id="line2d_7">
      <g>
       <use xlink:href="#m3f46f1f047" x="45" y="217.666957" style="fill: #262626; stroke: #262626; stroke-width: 2"/>
      </g>
     </g>
     <g id="text_8">
      <text style="fill: #262626; font: 14px 'sans-serif'; text-anchor: end" x="38" y="222.985863" transform="rotate(-0, 38, 222.985863)">−5.0</text>
     </g>
    </g>
    <g id="ytick_5">
     <g id="line2d_8">
      <g>
       <use xlink:href="#m3f46f1f047" x="45" y="185.638133" style="fill: #262626; stroke: #262626; stroke-width: 2"/>
      </g>
     </g>
     <g id="text_9">
      <text style="fill: #262626; font: 14px 'sans-serif'; text-anchor: end" x="38" y="190.95704" transform="rotate(-0, 38, 190.95704)">−2.5</text>
     </g>
    </g>
    <g id="ytick_6">
     <g id="line2d_9">
      <g>
       <use xlink:href="#m3f46f1f047" x="45" y="153.60931" style="fill: #262626; stroke: #262626; stroke-width: 2"/>
      </g>
     </g>
     <g id="text_10">
      <text style="fill: #262626; font: 14px 'sans-serif'; text-anchor: end" x="38" y="158.928216" transform="rotate(-0, 38, 158.928216)">0.0</text>
     </g>
    </g>
    <g id="ytick_7">
     <g id="line2d_10">
      <g>
       <use xlink:href="#m3f46f1f047" x="45" y="121.580486" style="fill: #262626; stroke: #262626; stroke-width: 2"/>
      </g>
     </g>
     <g id="text_11">
      <text style="fill: #262626; font: 14px 'sans-serif'; text-anchor: end" x="38" y="126.899392" transform="rotate(-0, 38, 126.899392)">2.5</text>
     </g>
    </g>
    <g id="ytick_8">
     <g id="line2d_11">
      <g>
       <use xlink:href="#m3f46f1f047" x="45" y="89.551663" style="fill: #262626; stroke: #262626; stroke-width: 2"/>
      </g>
     </g>
     <g id="text_12">
      <text style="fill: #262626; font: 14px 'sans-serif'; text-anchor: end" x="38" y="94.870569" transform="rotate(-0, 38, 94.870569)">5.0</text>
     </g>
    </g>
    <g id="ytick_9">
     <g id="line2d_12">
      <g>
       <use xlink:href="#m3f46f1f047" x="45" y="57.522839" style="fill: #262626; stroke: #262626; stroke-width: 2"/>
      </g>
     </g>
     <g id="text_13">
      <text style="fill: #262626; font: 14px 'sans-serif'; text-anchor: end" x="38" y="62.841745" transform="rotate(-0, 38, 62.841745)">7.5</text>
     </g>
    </g>
    <g id="text_14">
     <text style="fill: #262626; font: 14px 'sans-serif'; text-anchor: middle" x="-11.815" y="181.8" transform="rotate(-90, -11.815, 181.8)">Log2 variant enrichment</text>
    </g>
   </g>
   <g id="PolyCollection_1">
    <defs>
     <path id="m8709516498" d="M 91.925207 -52.2 
L 91.074793 -52.2 
L 90.883473 -54.745455 
L 90.639445 -57.290909 
L 90.343623 -59.836364 
L 90.00395 -62.381818 
L 89.636326 -64.927273 
L 89.264075 -67.472727 
L 88.915663 -70.018182 
L 88.620738 -72.563636 
L 88.405118 -75.109091 
L 88.285711 -77.654545 
L 88.266517 -80.2 
L 88.336726 -82.745455 
L 88.471415 -85.290909 
L 88.634754 -87.836364 
L 88.784983 -90.381818 
L 88.880053 -92.927273 
L 88.882738 -95.472727 
L 88.764279 -98.018182 
L 88.506101 -100.563636 
L 88.099651 -103.109091 
L 87.544855 -105.654545 
L 86.84789 -108.2 
L 86.018944 -110.745455 
L 85.070403 -113.290909 
L 84.015568 -115.836364 
L 82.867732 -118.381818 
L 81.639308 -120.927273 
L 80.340774 -123.472727 
L 78.97948 -126.018182 
L 77.558653 -128.563636 
L 76.077235 -131.109091 
L 74.531161 -133.654545 
L 72.91642 -136.2 
L 71.233725 -138.745455 
L 69.493961 -141.290909 
L 67.723073 -143.836364 
L 65.964901 -146.381818 
L 64.2807 -148.927273 
L 62.744804 -151.472727 
L 61.436835 -154.018182 
L 60.431723 -156.563636 
L 59.789457 -159.109091 
L 59.546509 -161.654545 
L 59.710549 -164.2 
L 60.259221 -166.745455 
L 61.142972 -169.290909 
L 62.291124 -171.836364 
L 63.620031 -174.381818 
L 65.042022 -176.927273 
L 66.473993 -179.472727 
L 67.844739 -182.018182 
L 69.100395 -184.563636 
L 70.207574 -187.109091 
L 71.154038 -189.654545 
L 71.947001 -192.2 
L 72.609482 -194.745455 
L 73.175384 -197.290909 
L 73.684137 -199.836364 
L 74.175742 -202.381818 
L 74.686818 -204.927273 
L 75.247952 -207.472727 
L 75.882286 -210.018182 
L 76.60504 -212.563636 
L 77.423561 -215.109091 
L 78.337566 -217.654545 
L 79.339421 -220.2 
L 80.414469 -222.745455 
L 81.541608 -225.290909 
L 82.694327 -227.836364 
L 83.842363 -230.381818 
L 84.954008 -232.927273 
L 85.998869 -235.472727 
L 86.950727 -238.018182 
L 87.790033 -240.563636 
L 88.505574 -243.109091 
L 89.094985 -245.654545 
L 89.564027 -248.2 
L 89.92482 -250.745455 
L 90.193437 -253.290909 
L 90.387417 -255.836364 
L 90.523668 -258.381818 
L 90.617122 -260.927273 
L 90.680197 -263.472727 
L 90.722929 -266.018182 
L 90.753465 -268.563636 
L 90.77857 -271.109091 
L 90.803921 -273.654545 
L 90.834086 -276.2 
L 90.87227 -278.745455 
L 90.920023 -281.290909 
L 90.977083 -283.836364 
L 91.041511 -286.381818 
L 91.110121 -288.927273 
L 91.179112 -291.472727 
L 91.244763 -294.018182 
L 91.304018 -296.563636 
L 91.354848 -299.109091 
L 91.396364 -301.654545 
L 91.428699 -304.2 
L 91.571301 -304.2 
L 91.571301 -304.2 
L 91.603636 -301.654545 
L 91.645152 -299.109091 
L 91.695982 -296.563636 
L 91.755237 -294.018182 
L 91.820888 -291.472727 
L 91.889879 -288.927273 
L 91.958489 -286.381818 
L 92.022917 -283.836364 
L 92.079977 -281.290909 
L 92.12773 -278.745455 
L 92.165914 -276.2 
L 92.196079 -273.654545 
L 92.22143 -271.109091 
L 92.246535 -268.563636 
L 92.277071 -266.018182 
L 92.319803 -263.472727 
L 92.382878 -260.927273 
L 92.476332 -258.381818 
L 92.612583 -255.836364 
L 92.806563 -253.290909 
L 93.07518 -250.745455 
L 93.435973 -248.2 
L 93.905015 -245.654545 
L 94.494426 -243.109091 
L 95.209967 -240.563636 
L 96.049273 -238.018182 
L 97.001131 -235.472727 
L 98.045992 -232.927273 
L 99.157637 -230.381818 
L 100.305673 -227.836364 
L 101.458392 -225.290909 
L 102.585531 -222.745455 
L 103.660579 -220.2 
L 104.662434 -217.654545 
L 105.576439 -215.109091 
L 106.39496 -212.563636 
L 107.117714 -210.018182 
L 107.752048 -207.472727 
L 108.313182 -204.927273 
L 108.824258 -202.381818 
L 109.315863 -199.836364 
L 109.824616 -197.290909 
L 110.390518 -194.745455 
L 111.052999 -192.2 
L 111.845962 -189.654545 
L 112.792426 -187.109091 
L 113.899605 -184.563636 
L 115.155261 -182.018182 
L 116.526007 -179.472727 
L 117.957978 -176.927273 
L 119.379969 -174.381818 
L 120.708876 -171.836364 
L 121.857028 -169.290909 
L 122.740779 -166.745455 
L 123.289451 -164.2 
L 123.453491 -161.654545 
L 123.210543 -159.109091 
L 122.568277 -156.563636 
L 121.563165 -154.018182 
L 120.255196 -151.472727 
L 118.7193 -148.927273 
L 117.035099 -146.381818 
L 115.276927 -143.836364 
L 113.506039 -141.290909 
L 111.766275 -138.745455 
L 110.08358 -136.2 
L 108.468839 -133.654545 
L 106.922765 -131.109091 
L 105.441347 -128.563636 
L 104.02052 -126.018182 
L 102.659226 -123.472727 
L 101.360692 -120.927273 
L 100.132268 -118.381818 
L 98.984432 -115.836364 
L 97.929597 -113.290909 
L 96.981056 -110.745455 
L 96.15211 -108.2 
L 95.455145 -105.654545 
L 94.900349 -103.109091 
L 94.493899 -100.563636 
L 94.235721 -98.018182 
L 94.117262 -95.472727 
L 94.119947 -92.927273 
L 94.215017 -90.381818 
L 94.365246 -87.836364 
L 94.528585 -85.290909 
L 94.663274 -82.745455 
L 94.733483 -80.2 
L 94.714289 -77.654545 
L 94.594882 -75.109091 
L 94.379262 -72.563636 
L 94.084337 -70.018182 
L 93.735925 -67.472727 
L 93.363674 -64.927273 
L 92.99605 -62.381818 
L 92.656377 -59.836364 
L 92.360555 -57.290909 
L 92.116527 -54.745455 
L 91.925207 -52.2 
z
" style="stroke: #4d4d4d; stroke-width: 2"/>
    </defs>
    <g clip-path="url(#pdf3160e582)">
     <use xlink:href="#m8709516498" x="0" y="360" style="fill: #808080; stroke: #4d4d4d; stroke-width: 2"/>
    </g>
   </g>
   <g id="PolyCollection_2">
    <defs>
     <path id="mce8233770a" d="M 184.855843 -52.311259 
L 184.144157 -52.311259 
L 183.983442 -54.854466 
L 183.778333 -57.397673 
L 183.529653 -59.94088 
L 183.244212 -62.484087 
L 182.935593 -65.027293 
L 182.623698 -67.5705 
L 182.332774 -70.113707 
L 182.088023 -72.656914 
L 181.911285 -75.200121 
L 181.816646 -77.743328 
L 181.80693 -80.286535 
L 181.871923 -82.829742 
L 181.988749 -85.372949 
L 182.124326 -87.916155 
L 182.239344 -90.459362 
L 182.292916 -93.002569 
L 182.247026 -95.545776 
L 182.070125 -98.088983 
L 181.739557 -100.63219 
L 181.242841 -103.175397 
L 180.578058 -105.718604 
L 179.753572 -108.261811 
L 178.787219 -110.805017 
L 177.704862 -113.348224 
L 176.538034 -115.891431 
L 175.320432 -118.434638 
L 174.083211 -120.977845 
L 172.849493 -123.521052 
L 171.629028 -126.064259 
L 170.41439 -128.607466 
L 169.180224 -131.150673 
L 167.886755 -133.693879 
L 166.487941 -136.237086 
L 164.943468 -138.780293 
L 163.23252 -141.3235 
L 161.366301 -143.866707 
L 159.395966 -146.409914 
L 157.413247 -148.953121 
L 155.542481 -151.496328 
L 153.924756 -154.039535 
L 152.696901 -156.582741 
L 151.969532 -159.125948 
L 151.808791 -161.669155 
L 152.225674 -164.212362 
L 153.175072 -166.755569 
L 154.56434 -169.298776 
L 156.269075 -171.841983 
L 158.152369 -174.38519 
L 160.083444 -176.928397 
L 161.952285 -179.471603 
L 163.678342 -182.01481 
L 165.212968 -184.558017 
L 166.536669 -187.101224 
L 167.653029 -189.644431 
L 168.581295 -192.187638 
L 169.349296 -194.730845 
L 169.987731 -197.274052 
L 170.526255 -199.817259 
L 170.99132 -202.360465 
L 171.405464 -204.903672 
L 171.78762 -207.446879 
L 172.153999 -209.990086 
L 172.519127 -212.533293 
L 172.896625 -215.0765 
L 173.299377 -217.619707 
L 173.738871 -220.162914 
L 174.223679 -222.706121 
L 174.75737 -225.249327 
L 175.336388 -227.792534 
L 175.948633 -230.335741 
L 176.573455 -232.878948 
L 177.18351 -235.422155 
L 177.748479 -237.965362 
L 178.240087 -240.508569 
L 178.637415 -243.051776 
L 178.931269 -245.594983 
L 179.126517 -248.138189 
L 179.241739 -250.681396 
L 179.306201 -253.224603 
L 179.354836 -255.76781 
L 179.422362 -258.311017 
L 179.537827 -260.854224 
L 179.720648 -263.397431 
L 179.978761 -265.940638 
L 180.308923 -268.483845 
L 180.69875 -271.027051 
L 181.129778 -273.570258 
L 181.580785 -276.113465 
L 182.03078 -278.656672 
L 182.461264 -281.199879 
L 182.857647 -283.743086 
L 183.209886 -286.286293 
L 183.512473 -288.8295 
L 183.763985 -291.372707 
L 183.966338 -293.915913 
L 184.123911 -296.45912 
L 184.242629 -299.002327 
L 184.329125 -301.545534 
L 184.390031 -304.088741 
L 184.609969 -304.088741 
L 184.609969 -304.088741 
L 184.670875 -301.545534 
L 184.757371 -299.002327 
L 184.876089 -296.45912 
L 185.033662 -293.915913 
L 185.236015 -291.372707 
L 185.487527 -288.8295 
L 185.790114 -286.286293 
L 186.142353 -283.743086 
L 186.538736 -281.199879 
L 186.96922 -278.656672 
L 187.419215 -276.113465 
L 187.870222 -273.570258 
L 188.30125 -271.027051 
L 188.691077 -268.483845 
L 189.021239 -265.940638 
L 189.279352 -263.397431 
L 189.462173 -260.854224 
L 189.577638 -258.311017 
L 189.645164 -255.76781 
L 189.693799 -253.224603 
L 189.758261 -250.681396 
L 189.873483 -248.138189 
L 190.068731 -245.594983 
L 190.362585 -243.051776 
L 190.759913 -240.508569 
L 191.251521 -237.965362 
L 191.81649 -235.422155 
L 192.426545 -232.878948 
L 193.051367 -230.335741 
L 193.663612 -227.792534 
L 194.24263 -225.249327 
L 194.776321 -222.706121 
L 195.261129 -220.162914 
L 195.700623 -217.619707 
L 196.103375 -215.0765 
L 196.480873 -212.533293 
L 196.846001 -209.990086 
L 197.21238 -207.446879 
L 197.594536 -204.903672 
L 198.00868 -202.360465 
L 198.473745 -199.817259 
L 199.012269 -197.274052 
L 199.650704 -194.730845 
L 200.418705 -192.187638 
L 201.346971 -189.644431 
L 202.463331 -187.101224 
L 203.787032 -184.558017 
L 205.321658 -182.01481 
L 207.047715 -179.471603 
L 208.916556 -176.928397 
L 210.847631 -174.38519 
L 212.730925 -171.841983 
L 214.43566 -169.298776 
L 215.824928 -166.755569 
L 216.774326 -164.212362 
L 217.191209 -161.669155 
L 217.030468 -159.125948 
L 216.303099 -156.582741 
L 215.075244 -154.039535 
L 213.457519 -151.496328 
L 211.586753 -148.953121 
L 209.604034 -146.409914 
L 207.633699 -143.866707 
L 205.76748 -141.3235 
L 204.056532 -138.780293 
L 202.512059 -136.237086 
L 201.113245 -133.693879 
L 199.819776 -131.150673 
L 198.58561 -128.607466 
L 197.370972 -126.064259 
L 196.150507 -123.521052 
L 194.916789 -120.977845 
L 193.679568 -118.434638 
L 192.461966 -115.891431 
L 191.295138 -113.348224 
L 190.212781 -110.805017 
L 189.246428 -108.261811 
L 188.421942 -105.718604 
L 187.757159 -103.175397 
L 187.260443 -100.63219 
L 186.929875 -98.088983 
L 186.752974 -95.545776 
L 186.707084 -93.002569 
L 186.760656 -90.459362 
L 186.875674 -87.916155 
L 187.011251 -85.372949 
L 187.128077 -82.829742 
L 187.19307 -80.286535 
L 187.183354 -77.743328 
L 187.088715 -75.200121 
L 186.911977 -72.656914 
L 186.667226 -70.113707 
L 186.376302 -67.5705 
L 186.064407 -65.027293 
L 185.755788 -62.484087 
L 185.470347 -59.94088 
L 185.221667 -57.397673 
L 185.016558 -54.854466 
L 184.855843 -52.311259 
z
" style="stroke: #4d4d4d; stroke-width: 2"/>
    </defs>
    <g clip-path="url(#pdf3160e582)">
     <use xlink:href="#mce8233770a" x="0" y="360" style="fill: #808080; stroke: #4d4d4d; stroke-width: 2"/>
    </g>
   </g>
   <g id="PolyCollection_3">
    <defs>
     <path id="mdb1b49d0e9" d="M 279.890533 -117.992774 
L 275.109467 -117.992774 
L 274.616835 -119.55006 
L 274.046265 -121.107345 
L 273.390778 -122.664631 
L 272.643898 -124.221917 
L 271.799928 -125.779203 
L 270.854246 -127.336488 
L 269.803612 -128.893774 
L 268.646474 -130.45106 
L 267.383268 -132.008346 
L 266.016682 -133.565632 
L 264.551884 -135.122917 
L 262.996694 -136.680203 
L 261.361675 -138.237489 
L 259.660156 -139.794775 
L 257.90815 -141.35206 
L 256.124177 -142.909346 
L 254.328984 -144.466632 
L 252.545168 -146.023918 
L 250.796708 -147.581203 
L 249.10841 -149.138489 
L 247.505296 -150.695775 
L 246.011943 -152.253061 
L 244.651806 -153.810347 
L 243.446543 -155.367632 
L 242.415372 -156.924918 
L 241.574481 -158.482204 
L 240.936523 -160.03949 
L 240.510205 -161.596775 
L 240.3 -163.154061 
L 240.305985 -164.711347 
L 240.523819 -166.268633 
L 240.944852 -167.825918 
L 241.556376 -169.383204 
L 242.341994 -170.94049 
L 243.2821 -172.497776 
L 244.354449 -174.055062 
L 245.534799 -175.612347 
L 246.7976 -177.169633 
L 248.116702 -178.726919 
L 249.466062 -180.284205 
L 250.820424 -181.84149 
L 252.155954 -183.398776 
L 253.450807 -184.956062 
L 254.685608 -186.513348 
L 255.843838 -188.070634 
L 256.912127 -189.627919 
L 257.880419 -191.185205 
L 258.742049 -192.742491 
L 259.493698 -194.299777 
L 260.135264 -195.857062 
L 260.669631 -197.414348 
L 261.102374 -198.971634 
L 261.441394 -200.52892 
L 261.696516 -202.086205 
L 261.879053 -203.643491 
L 262.00136 -205.200777 
L 262.076394 -206.758063 
L 262.117292 -208.315349 
L 262.136978 -209.872634 
L 262.14782 -211.42992 
L 262.161332 -212.987206 
L 262.18793 -214.544492 
L 262.236752 -216.101777 
L 262.315534 -217.659063 
L 262.430537 -219.216349 
L 262.586533 -220.773635 
L 262.786826 -222.33092 
L 263.033323 -223.888206 
L 263.326621 -225.445492 
L 263.666126 -227.002778 
L 264.050185 -228.560064 
L 264.476225 -230.117349 
L 264.940892 -231.674635 
L 265.440196 -233.231921 
L 265.969644 -234.789207 
L 266.524371 -236.346492 
L 267.099258 -237.903778 
L 267.689044 -239.461064 
L 268.28843 -241.01835 
L 268.892173 -242.575635 
L 269.495172 -244.132921 
L 270.092546 -245.690207 
L 270.679703 -247.247493 
L 271.252406 -248.804779 
L 271.80682 -250.362064 
L 272.339563 -251.91935 
L 272.847736 -253.476636 
L 273.328948 -255.033922 
L 273.78133 -256.591207 
L 274.203532 -258.148493 
L 274.594716 -259.705779 
L 274.954535 -261.263065 
L 275.283098 -262.820351 
L 275.580934 -264.377636 
L 275.848942 -265.934922 
L 276.08834 -267.492208 
L 276.300606 -269.049494 
L 276.487425 -270.606779 
L 276.650627 -272.164065 
L 278.349373 -272.164065 
L 278.349373 -272.164065 
L 278.512575 -270.606779 
L 278.699394 -269.049494 
L 278.91166 -267.492208 
L 279.151058 -265.934922 
L 279.419066 -264.377636 
L 279.716902 -262.820351 
L 280.045465 -261.263065 
L 280.405284 -259.705779 
L 280.796468 -258.148493 
L 281.21867 -256.591207 
L 281.671052 -255.033922 
L 282.152264 -253.476636 
L 282.660437 -251.91935 
L 283.19318 -250.362064 
L 283.747594 -248.804779 
L 284.320297 -247.247493 
L 284.907454 -245.690207 
L 285.504828 -244.132921 
L 286.107827 -242.575635 
L 286.71157 -241.01835 
L 287.310956 -239.461064 
L 287.900742 -237.903778 
L 288.475629 -236.346492 
L 289.030356 -234.789207 
L 289.559804 -233.231921 
L 290.059108 -231.674635 
L 290.523775 -230.117349 
L 290.949815 -228.560064 
L 291.333874 -227.002778 
L 291.673379 -225.445492 
L 291.966677 -223.888206 
L 292.213174 -222.33092 
L 292.413467 -220.773635 
L 292.569463 -219.216349 
L 292.684466 -217.659063 
L 292.763248 -216.101777 
L 292.81207 -214.544492 
L 292.838668 -212.987206 
L 292.85218 -211.42992 
L 292.863022 -209.872634 
L 292.882708 -208.315349 
L 292.923606 -206.758063 
L 292.99864 -205.200777 
L 293.120947 -203.643491 
L 293.303484 -202.086205 
L 293.558606 -200.52892 
L 293.897626 -198.971634 
L 294.330369 -197.414348 
L 294.864736 -195.857062 
L 295.506302 -194.299777 
L 296.257951 -192.742491 
L 297.119581 -191.185205 
L 298.087873 -189.627919 
L 299.156162 -188.070634 
L 300.314392 -186.513348 
L 301.549193 -184.956062 
L 302.844046 -183.398776 
L 304.179576 -181.84149 
L 305.533938 -180.284205 
L 306.883298 -178.726919 
L 308.2024 -177.169633 
L 309.465201 -175.612347 
L 310.645551 -174.055062 
L 311.7179 -172.497776 
L 312.658006 -170.94049 
L 313.443624 -169.383204 
L 314.055148 -167.825918 
L 314.476181 -166.268633 
L 314.694015 -164.711347 
L 314.7 -163.154061 
L 314.489795 -161.596775 
L 314.063477 -160.03949 
L 313.425519 -158.482204 
L 312.584628 -156.924918 
L 311.553457 -155.367632 
L 310.348194 -153.810347 
L 308.988057 -152.253061 
L 307.494704 -150.695775 
L 305.89159 -149.138489 
L 304.203292 -147.581203 
L 302.454832 -146.023918 
L 300.671016 -144.466632 
L 298.875823 -142.909346 
L 297.09185 -141.35206 
L 295.339844 -139.794775 
L 293.638325 -138.237489 
L 292.003306 -136.680203 
L 290.448116 -135.122917 
L 288.983318 -133.565632 
L 287.616732 -132.008346 
L 286.353526 -130.45106 
L 285.196388 -128.893774 
L 284.145754 -127.336488 
L 283.200072 -125.779203 
L 282.356102 -124.221917 
L 281.609222 -122.664631 
L 280.953735 -121.107345 
L 280.383165 -119.55006 
L 279.890533 -117.992774 
z
" style="stroke: #4d4d4d; stroke-width: 2"/>
    </defs>
    <g clip-path="url(#pdf3160e582)">
     <use xlink:href="#mdb1b49d0e9" x="0" y="360" style="fill: #808080; stroke: #4d4d4d; stroke-width: 2"/>
    </g>
   </g>
   <g id="line2d_13">
    <path d="M 91.5 250.132349 
L 91.5 104.82976 
" clip-path="url(#pdf3160e582)" style="fill: none; stroke: #000000; stroke-width: 2; stroke-linecap: round"/>
   </g>
   <g id="line2d_14">
    <path d="M 91.5 210.352106 
L 91.5 165.700475 
" clip-path="url(#pdf3160e582)" style="fill: none; stroke: #000000; stroke-width: 6; stroke-linecap: round"/>
   </g>
   <g id="line2d_15">
    <path d="M 184.5 250.132349 
L 184.5 96.794331 
" clip-path="url(#pdf3160e582)" style="fill: none; stroke: #000000; stroke-width: 2; stroke-linecap: round"/>
   </g>
   <g id="line2d_16">
    <path d="M 184.5 207.94678 
L 184.5 163.103862 
" clip-path="url(#pdf3160e582)" style="fill: none; stroke: #000000; stroke-width: 6; stroke-linecap: round"/>
   </g>
   <g id="line2d_17">
    <path d="M 277.5 205.406633 
L 277.5 124.436528 
" clip-path="url(#pdf3160e582)" style="fill: none; stroke: #000000; stroke-width: 2; stroke-linecap: round"/>
   </g>
   <g id="line2d_18">
    <path d="M 277.5 199.175385 
L 277.5 159.381307 
" clip-path="url(#pdf3160e582)" style="fill: none; stroke: #000000; stroke-width: 6; stroke-linecap: round"/>
   </g>
   <g id="patch_3">
    <path d="M 45 320.4 
L 45 43.2 
" style="fill: none; stroke: #262626; stroke-width: 2; stroke-linejoin: miter; stroke-linecap: square"/>
   </g>
   <g id="patch_4">
    <path d="M 45 320.4 
L 324 320.4 
" style="fill: none; stroke: #262626; stroke-width: 2; stroke-linejoin: miter; stroke-linecap: square"/>
   </g>
   <g id="PathCollection_1">
    <defs>
     <path id="m1a1f2c0d8a" d="M 0 2 
C 0.530406 2 1.03916 1.789267 1.414214 1.414214 
C 1.789267 1.03916 2 0.530406 2 0 
C 2 -0.530406 1.789267 -1.03916 1.414214 -1.414214 
C 1.03916 -1.789267 0.530406 -2 0 -2 
C -0.530406 -2 -1.03916 -1.789267 -1.414214 -1.414214 
C -1.789267 -1.03916 -2 -0.530406 -2 0 
C -2 0.530406 -1.789267 1.03916 -1.414214 1.414214 
C -1.03916 1.789267 -0.530406 2 0 2 
z
" style="stroke: #4d4d4d"/>
    </defs>
    <g clip-path="url(#pdf3160e582)">
     <use xlink:href="#m1a1f2c0d8a" x="91.5" y="194.257375" style="fill: #ffffff; stroke: #4d4d4d"/>
    </g>
   </g>
   <g id="PathCollection_2">
    <g clip-path="url(#pdf3160e582)">
     <use xlink:href="#m1a1f2c0d8a" x="184.5" y="195.607346" style="fill: #ffffff; stroke: #4d4d4d"/>
    </g>
   </g>
   <g id="PathCollection_3">
    <g clip-path="url(#pdf3160e582)">
     <use xlink:href="#m1a1f2c0d8a" x="277.5" y="191.301566" style="fill: #ffffff; stroke: #4d4d4d"/>
    </g>
   </g>
   <g id="text_15">
    <text style="fill: #262626; font: 16.8px 'sans-serif'; text-anchor: middle" x="184.5" y="37.2" transform="rotate(-0, 184.5, 37.2)">SigF_PDZ</text>
   </g>
  </g>
 </g>
 <defs>
  <clipPath id="pdf3160e582">
   <rect x="45" y="43.2" width="279" height="277.2"/>
  </clipPath>
 </defs>
</svg>
