<?xml version="1.0" encoding="utf-8" standalone="no"?>
<!DOCTYPE svg PUBLIC "-//W3C//DTD SVG 1.1//EN"
  "http://www.w3.org/Graphics/SVG/1.1/DTD/svg11.dtd">
<!-- Created with matplotlib (https://matplotlib.org/) -->
<svg height="360pt" version="1.1" viewBox="0 0 360 360" width="360pt" xmlns="http://www.w3.org/2000/svg" xmlns:xlink="http://www.w3.org/1999/xlink">
 <metadata>
  <rdf:RDF xmlns:cc="http://creativecommons.org/ns#" xmlns:dc="http://purl.org/dc/elements/1.1/" xmlns:rdf="http://www.w3.org/1999/02/22-rdf-syntax-ns#">
   <cc:Work>
    <dc:type rdf:resource="http://purl.org/dc/dcmitype/StillImage"/>
    <dc:date>2023-04-13T14:39:30.388153</dc:date>
    <dc:format>image/svg+xml</dc:format>
    <dc:creator>
     <cc:Agent>
      <dc:title>Matplotlib v3.3.3, https://matplotlib.org/</dc:title>
     </cc:Agent>
    </dc:creator>
   </cc:Work>
  </rdf:RDF>
 </metadata>
 <defs>
  <style type="text/css">*{stroke-linecap:butt;stroke-linejoin:round;}</style>
 </defs>
 <g id="figure_1">
  <g id="patch_1">
   <path d="M 0 360 
L 360 360 
L 360 0 
L 0 0 
z
" style="fill:#ffffff;"/>
  </g>
  <g id="axes_1">
   <g id="patch_2">
    <path d="M 45 315 
L 324 315 
L 324 43.2 
L 45 43.2 
z
" style="fill:#ffffff;"/>
   </g>
   <g id="matplotlib.axis_1">
    <g id="xtick_1">
     <g id="line2d_1">
      <defs>
       <path d="M 0 0 
L 0 3.5 
" id="m7ea0c123c1" style="stroke:#262626;stroke-width:2;"/>
      </defs>
      <g>
       <use style="fill:#262626;stroke:#262626;stroke-width:2;" x="91.5" xlink:href="#m7ea0c123c1" y="315"/>
      </g>
     </g>
     <g id="text_1">
      <text style="fill:#262626;font-family:Cantarell;font-size:14px;font-stretch:normal;font-style:normal;font-weight:normal;text-anchor:middle;" transform="rotate(-0, 91.5, 332.051562)" x="91.5" y="332.051562">Coil</text>
     </g>
    </g>
    <g id="xtick_2">
     <g id="line2d_2">
      <g>
       <use style="fill:#262626;stroke:#262626;stroke-width:2;" x="184.5" xlink:href="#m7ea0c123c1" y="315"/>
      </g>
     </g>
     <g id="text_2">
      <text style="fill:#262626;font-family:Cantarell;font-size:14px;font-stretch:normal;font-style:normal;font-weight:normal;text-anchor:middle;" transform="rotate(-0, 184.5, 332.051562)" x="184.5" y="332.051562">Helix</text>
     </g>
    </g>
    <g id="xtick_3">
     <g id="line2d_3">
      <g>
       <use style="fill:#262626;stroke:#262626;stroke-width:2;" x="277.5" xlink:href="#m7ea0c123c1" y="315"/>
      </g>
     </g>
     <g id="text_3">
      <text style="fill:#262626;font-family:Cantarell;font-size:14px;font-stretch:normal;font-style:normal;font-weight:normal;text-anchor:middle;" transform="rotate(-0, 277.5, 332.051562)" x="277.5" y="332.051562">Sheet</text>
     </g>
    </g>
    <g id="text_4">
     <text style="fill:#262626;font-family:Cantarell;font-size:14px;font-stretch:normal;font-style:normal;font-weight:normal;text-anchor:middle;" transform="rotate(-0, 184.5, 349.574687)" x="184.5" y="349.574687">Sec structure</text>
    </g>
   </g>
   <g id="matplotlib.axis_2">
    <g id="ytick_1">
     <g id="line2d_4">
      <defs>
       <path d="M 0 0 
L -3.5 0 
" id="m36dc11267d" style="stroke:#262626;stroke-width:2;"/>
      </defs>
      <g>
       <use style="fill:#262626;stroke:#262626;stroke-width:2;" x="45" xlink:href="#m36dc11267d" y="287.244498"/>
      </g>
     </g>
     <g id="text_5">
      <text style="fill:#262626;font-family:Cantarell;font-size:14px;font-stretch:normal;font-style:normal;font-weight:normal;text-anchor:end;" transform="rotate(-0, 38, 292.270279)" x="38" y="292.270279">−10.0</text>
     </g>
    </g>
    <g id="ytick_2">
     <g id="line2d_5">
      <g>
       <use style="fill:#262626;stroke:#262626;stroke-width:2;" x="45" xlink:href="#m36dc11267d" y="249.687992"/>
      </g>
     </g>
     <g id="text_6">
      <text style="fill:#262626;font-family:Cantarell;font-size:14px;font-stretch:normal;font-style:normal;font-weight:normal;text-anchor:end;" transform="rotate(-0, 38, 254.713773)" x="38" y="254.713773">−7.5</text>
     </g>
    </g>
    <g id="ytick_3">
     <g id="line2d_6">
      <g>
       <use style="fill:#262626;stroke:#262626;stroke-width:2;" x="45" xlink:href="#m36dc11267d" y="212.131486"/>
      </g>
     </g>
     <g id="text_7">
      <text style="fill:#262626;font-family:Cantarell;font-size:14px;font-stretch:normal;font-style:normal;font-weight:normal;text-anchor:end;" transform="rotate(-0, 38, 217.157267)" x="38" y="217.157267">−5.0</text>
     </g>
    </g>
    <g id="ytick_4">
     <g id="line2d_7">
      <g>
       <use style="fill:#262626;stroke:#262626;stroke-width:2;" x="45" xlink:href="#m36dc11267d" y="174.57498"/>
      </g>
     </g>
     <g id="text_8">
      <text style="fill:#262626;font-family:Cantarell;font-size:14px;font-stretch:normal;font-style:normal;font-weight:normal;text-anchor:end;" transform="rotate(-0, 38, 179.600762)" x="38" y="179.600762">−2.5</text>
     </g>
    </g>
    <g id="ytick_5">
     <g id="line2d_8">
      <g>
       <use style="fill:#262626;stroke:#262626;stroke-width:2;" x="45" xlink:href="#m36dc11267d" y="137.018474"/>
      </g>
     </g>
     <g id="text_9">
      <text style="fill:#262626;font-family:Cantarell;font-size:14px;font-stretch:normal;font-style:normal;font-weight:normal;text-anchor:end;" transform="rotate(-0, 38, 142.044256)" x="38" y="142.044256">0.0</text>
     </g>
    </g>
    <g id="ytick_6">
     <g id="line2d_9">
      <g>
       <use style="fill:#262626;stroke:#262626;stroke-width:2;" x="45" xlink:href="#m36dc11267d" y="99.461969"/>
      </g>
     </g>
     <g id="text_10">
      <text style="fill:#262626;font-family:Cantarell;font-size:14px;font-stretch:normal;font-style:normal;font-weight:normal;text-anchor:end;" transform="rotate(-0, 38, 104.48775)" x="38" y="104.48775">2.5</text>
     </g>
    </g>
    <g id="ytick_7">
     <g id="line2d_10">
      <g>
       <use style="fill:#262626;stroke:#262626;stroke-width:2;" x="45" xlink:href="#m36dc11267d" y="61.905463"/>
      </g>
     </g>
     <g id="text_11">
      <text style="fill:#262626;font-family:Cantarell;font-size:14px;font-stretch:normal;font-style:normal;font-weight:normal;text-anchor:end;" transform="rotate(-0, 38, 66.931244)" x="38" y="66.931244">5.0</text>
     </g>
    </g>
    <g id="text_12">
     <text style="fill:#262626;font-family:Cantarell;font-size:14px;font-stretch:normal;font-style:normal;font-weight:normal;text-anchor:middle;" transform="rotate(-90, -6.812188, 179.1)" x="-6.812188" y="179.1">Log2 variant enrichment</text>
    </g>
   </g>
   <g id="PolyCollection_1">
    <defs>
     <path d="M 91.579349 -111.101845 
L 91.420651 -111.101845 
L 91.36942 -113.054811 
L 91.29988 -115.007777 
L 91.214373 -116.960742 
L 91.120307 -118.913708 
L 91.029829 -120.866674 
L 90.957465 -122.81964 
L 90.916129 -124.772605 
L 90.912805 -126.725571 
L 90.945623 -128.678537 
L 91.003571 -130.631503 
L 91.069013 -132.584468 
L 91.122036 -134.537434 
L 91.145153 -136.4904 
L 91.127064 -138.443366 
L 91.064798 -140.396331 
L 90.964111 -142.349297 
L 90.8383 -144.302263 
L 90.705688 -146.255229 
L 90.586152 -148.208194 
L 90.497234 -150.16116 
L 90.4505 -152.114126 
L 90.448815 -154.067092 
L 90.485028 -156.020057 
L 90.542352 -157.973023 
L 90.596362 -159.925989 
L 90.618121 -161.878955 
L 90.577565 -163.83192 
L 90.4463 -165.784886 
L 90.199536 -167.737852 
L 89.817732 -169.690818 
L 89.288832 -171.643783 
L 88.611025 -173.596749 
L 87.794132 -175.549715 
L 86.85641 -177.502681 
L 85.81469 -179.455646 
L 84.669613 -181.408612 
L 83.392491 -183.361578 
L 81.922354 -185.314544 
L 80.178726 -187.267509 
L 78.088399 -189.220475 
L 75.617152 -191.173441 
L 72.794649 -193.126407 
L 69.724185 -195.079372 
L 66.575986 -197.032338 
L 63.568571 -198.985304 
L 60.943998 -200.93827 
L 58.940464 -202.891235 
L 57.763109 -204.844201 
L 57.554248 -206.797167 
L 58.367495 -208.750133 
L 60.153118 -210.703098 
L 62.761169 -212.656064 
L 65.963835 -214.60903 
L 69.49174 -216.561996 
L 73.074645 -218.514961 
L 76.476973 -220.467927 
L 79.522123 -222.420893 
L 82.103721 -224.373859 
L 84.184877 -226.326824 
L 85.787678 -228.27979 
L 86.975657 -230.232756 
L 87.832627 -232.185722 
L 88.442158 -234.138687 
L 88.872133 -236.091653 
L 89.167562 -238.044619 
L 89.352212 -239.997585 
L 89.436742 -241.95055 
L 89.429111 -243.903516 
L 89.34299 -245.856482 
L 89.201439 -247.809448 
L 89.035444 -249.762413 
L 88.878932 -251.715379 
L 88.762796 -253.668345 
L 88.710188 -255.621311 
L 88.734163 -257.574276 
L 88.837491 -259.527242 
L 89.013816 -261.480208 
L 89.249384 -263.433174 
L 89.525127 -265.38614 
L 89.819124 -267.339105 
L 90.109355 -269.292071 
L 90.376233 -271.245037 
L 90.604352 -273.198003 
L 90.783236 -275.150968 
L 90.907512 -277.103934 
L 90.977119 -279.0569 
L 90.997819 -281.009866 
L 90.981515 -282.962831 
L 90.945419 -284.915797 
L 90.909392 -286.868763 
L 90.89173 -288.821729 
L 90.904709 -290.774694 
L 90.951708 -292.72766 
L 91.027131 -294.680626 
L 91.119132 -296.633592 
L 91.213897 -298.586557 
L 91.299701 -300.539523 
L 91.369358 -302.492489 
L 91.42063 -304.445455 
L 91.57937 -304.445455 
L 91.57937 -304.445455 
L 91.630642 -302.492489 
L 91.700299 -300.539523 
L 91.786103 -298.586557 
L 91.880868 -296.633592 
L 91.972869 -294.680626 
L 92.048292 -292.72766 
L 92.095291 -290.774694 
L 92.10827 -288.821729 
L 92.090608 -286.868763 
L 92.054581 -284.915797 
L 92.018485 -282.962831 
L 92.002181 -281.009866 
L 92.022881 -279.0569 
L 92.092488 -277.103934 
L 92.216764 -275.150968 
L 92.395648 -273.198003 
L 92.623767 -271.245037 
L 92.890645 -269.292071 
L 93.180876 -267.339105 
L 93.474873 -265.38614 
L 93.750616 -263.433174 
L 93.986184 -261.480208 
L 94.162509 -259.527242 
L 94.265837 -257.574276 
L 94.289812 -255.621311 
L 94.237204 -253.668345 
L 94.121068 -251.715379 
L 93.964556 -249.762413 
L 93.798561 -247.809448 
L 93.65701 -245.856482 
L 93.570889 -243.903516 
L 93.563258 -241.95055 
L 93.647788 -239.997585 
L 93.832438 -238.044619 
L 94.127867 -236.091653 
L 94.557842 -234.138687 
L 95.167373 -232.185722 
L 96.024343 -230.232756 
L 97.212322 -228.27979 
L 98.815123 -226.326824 
L 100.896279 -224.373859 
L 103.477877 -222.420893 
L 106.523027 -220.467927 
L 109.925355 -218.514961 
L 113.50826 -216.561996 
L 117.036165 -214.60903 
L 120.238831 -212.656064 
L 122.846882 -210.703098 
L 124.632505 -208.750133 
L 125.445752 -206.797167 
L 125.236891 -204.844201 
L 124.059536 -202.891235 
L 122.056002 -200.93827 
L 119.431429 -198.985304 
L 116.424014 -197.032338 
L 113.275815 -195.079372 
L 110.205351 -193.126407 
L 107.382848 -191.173441 
L 104.911601 -189.220475 
L 102.821274 -187.267509 
L 101.077646 -185.314544 
L 99.607509 -183.361578 
L 98.330387 -181.408612 
L 97.18531 -179.455646 
L 96.14359 -177.502681 
L 95.205868 -175.549715 
L 94.388975 -173.596749 
L 93.711168 -171.643783 
L 93.182268 -169.690818 
L 92.800464 -167.737852 
L 92.5537 -165.784886 
L 92.422435 -163.83192 
L 92.381879 -161.878955 
L 92.403638 -159.925989 
L 92.457648 -157.973023 
L 92.514972 -156.020057 
L 92.551185 -154.067092 
L 92.5495 -152.114126 
L 92.502766 -150.16116 
L 92.413848 -148.208194 
L 92.294312 -146.255229 
L 92.1617 -144.302263 
L 92.035889 -142.349297 
L 91.935202 -140.396331 
L 91.872936 -138.443366 
L 91.854847 -136.4904 
L 91.877964 -134.537434 
L 91.930987 -132.584468 
L 91.996429 -130.631503 
L 92.054377 -128.678537 
L 92.087195 -126.725571 
L 92.083871 -124.772605 
L 92.042535 -122.81964 
L 91.970171 -120.866674 
L 91.879693 -118.913708 
L 91.785627 -116.960742 
L 91.70012 -115.007777 
L 91.63058 -113.054811 
L 91.579349 -111.101845 
z
" id="m6d53fad216" style="stroke:#4d4d4d;stroke-width:2;"/>
    </defs>
    <g clip-path="url(#p81ba0529d3)">
     <use style="fill:#808080;stroke:#4d4d4d;stroke-width:2;" x="0" xlink:href="#m6d53fad216" y="360"/>
    </g>
   </g>
   <g id="PolyCollection_2">
    <defs>
     <path d="M 185.000257 -171.161189 
L 183.999743 -171.161189 
L 183.841295 -172.060844 
L 183.645168 -172.960499 
L 183.406356 -173.860155 
L 183.120247 -174.75981 
L 182.782891 -175.659466 
L 182.391276 -176.559121 
L 181.943547 -177.458777 
L 181.439174 -178.358432 
L 180.87903 -179.258087 
L 180.265364 -180.157743 
L 179.601682 -181.057398 
L 178.892516 -181.957054 
L 178.143121 -182.856709 
L 177.359102 -183.756365 
L 176.546012 -184.65602 
L 175.708936 -185.555675 
L 174.852099 -186.455331 
L 173.978501 -187.354986 
L 173.089615 -188.254642 
L 172.185164 -189.154297 
L 171.262984 -190.053953 
L 170.319013 -190.953608 
L 169.347418 -191.853264 
L 168.340899 -192.752919 
L 167.291172 -193.652574 
L 166.189669 -194.55223 
L 165.028429 -195.451885 
L 163.801155 -196.351541 
L 162.504384 -197.251196 
L 161.138688 -198.150852 
L 159.709791 -199.050507 
L 158.229493 -199.950162 
L 156.716271 -200.849818 
L 155.195451 -201.749473 
L 153.69887 -202.649129 
L 152.26398 -203.548784 
L 150.932396 -204.44844 
L 149.747949 -205.348095 
L 148.75435 -206.24775 
L 147.992626 -207.147406 
L 147.498509 -208.047061 
L 147.3 -208.946717 
L 147.415319 -209.846372 
L 147.851421 -210.746028 
L 148.603226 -211.645683 
L 149.653658 -212.545339 
L 150.974494 -213.444994 
L 152.527953 -214.344649 
L 154.268905 -215.244305 
L 156.147488 -216.14396 
L 158.111913 -217.043616 
L 160.111199 -217.943271 
L 162.097645 -218.842927 
L 164.02883 -219.742582 
L 165.869047 -220.642237 
L 167.590124 -221.541893 
L 169.17165 -222.441548 
L 170.600704 -223.341204 
L 171.871201 -224.240859 
L 172.983003 -225.140515 
L 173.940925 -226.04017 
L 174.753738 -226.939825 
L 175.433247 -227.839481 
L 175.993476 -228.739136 
L 176.449947 -229.638792 
L 176.819043 -230.538447 
L 177.117417 -231.438103 
L 177.361427 -232.337758 
L 177.56659 -233.237413 
L 177.747063 -234.137069 
L 177.915205 -235.036724 
L 178.081225 -235.93638 
L 178.252987 -236.836035 
L 178.435981 -237.735691 
L 178.633468 -238.635346 
L 178.846778 -239.535002 
L 179.075719 -240.434657 
L 179.319028 -241.334312 
L 179.574826 -242.233968 
L 179.840985 -243.133623 
L 180.115396 -244.033279 
L 180.396108 -244.932934 
L 180.681343 -245.83259 
L 180.969424 -246.732245 
L 181.25865 -247.6319 
L 181.547154 -248.531556 
L 181.832816 -249.431211 
L 182.113213 -250.330867 
L 182.38567 -251.230522 
L 182.647358 -252.130178 
L 182.895465 -253.029833 
L 183.127382 -253.929488 
L 183.34089 -254.829144 
L 183.534317 -255.728799 
L 183.706642 -256.628455 
L 183.857542 -257.52811 
L 183.98737 -258.427766 
L 184.097086 -259.327421 
L 184.188144 -260.227076 
L 184.811856 -260.227076 
L 184.811856 -260.227076 
L 184.902914 -259.327421 
L 185.01263 -258.427766 
L 185.142458 -257.52811 
L 185.293358 -256.628455 
L 185.465683 -255.728799 
L 185.65911 -254.829144 
L 185.872618 -253.929488 
L 186.104535 -253.029833 
L 186.352642 -252.130178 
L 186.61433 -251.230522 
L 186.886787 -250.330867 
L 187.167184 -249.431211 
L 187.452846 -248.531556 
L 187.74135 -247.6319 
L 188.030576 -246.732245 
L 188.318657 -245.83259 
L 188.603892 -244.932934 
L 188.884604 -244.033279 
L 189.159015 -243.133623 
L 189.425174 -242.233968 
L 189.680972 -241.334312 
L 189.924281 -240.434657 
L 190.153222 -239.535002 
L 190.366532 -238.635346 
L 190.564019 -237.735691 
L 190.747013 -236.836035 
L 190.918775 -235.93638 
L 191.084795 -235.036724 
L 191.252937 -234.137069 
L 191.43341 -233.237413 
L 191.638573 -232.337758 
L 191.882583 -231.438103 
L 192.180957 -230.538447 
L 192.550053 -229.638792 
L 193.006524 -228.739136 
L 193.566753 -227.839481 
L 194.246262 -226.939825 
L 195.059075 -226.04017 
L 196.016997 -225.140515 
L 197.128799 -224.240859 
L 198.399296 -223.341204 
L 199.82835 -222.441548 
L 201.409876 -221.541893 
L 203.130953 -220.642237 
L 204.97117 -219.742582 
L 206.902355 -218.842927 
L 208.888801 -217.943271 
L 210.888087 -217.043616 
L 212.852512 -216.14396 
L 214.731095 -215.244305 
L 216.472047 -214.344649 
L 218.025506 -213.444994 
L 219.346342 -212.545339 
L 220.396774 -211.645683 
L 221.148579 -210.746028 
L 221.584681 -209.846372 
L 221.7 -208.946717 
L 221.501491 -208.047061 
L 221.007374 -207.147406 
L 220.24565 -206.24775 
L 219.252051 -205.348095 
L 218.067604 -204.44844 
L 216.73602 -203.548784 
L 215.30113 -202.649129 
L 213.804549 -201.749473 
L 212.283729 -200.849818 
L 210.770507 -199.950162 
L 209.290209 -199.050507 
L 207.861312 -198.150852 
L 206.495616 -197.251196 
L 205.198845 -196.351541 
L 203.971571 -195.451885 
L 202.810331 -194.55223 
L 201.708828 -193.652574 
L 200.659101 -192.752919 
L 199.652582 -191.853264 
L 198.680987 -190.953608 
L 197.737016 -190.053953 
L 196.814836 -189.154297 
L 195.910385 -188.254642 
L 195.021499 -187.354986 
L 194.147901 -186.455331 
L 193.291064 -185.555675 
L 192.453988 -184.65602 
L 191.640898 -183.756365 
L 190.856879 -182.856709 
L 190.107484 -181.957054 
L 189.398318 -181.057398 
L 188.734636 -180.157743 
L 188.12097 -179.258087 
L 187.560826 -178.358432 
L 187.056453 -177.458777 
L 186.608724 -176.559121 
L 186.217109 -175.659466 
L 185.879753 -174.75981 
L 185.593644 -173.860155 
L 185.354832 -172.960499 
L 185.158705 -172.060844 
L 185.000257 -171.161189 
z
" id="m62516b1303" style="stroke:#4d4d4d;stroke-width:2;"/>
    </defs>
    <g clip-path="url(#p81ba0529d3)">
     <use style="fill:#808080;stroke:#4d4d4d;stroke-width:2;" x="0" xlink:href="#m62516b1303" y="360"/>
    </g>
   </g>
   <g id="PolyCollection_3">
    <defs>
     <path d="M 277.592357 -57.354545 
L 277.407643 -57.354545 
L 277.3426 -59.565982 
L 277.252987 -61.777419 
L 277.143041 -63.988856 
L 277.024993 -66.200293 
L 276.917947 -68.411729 
L 276.843238 -70.623166 
L 276.817605 -72.834603 
L 276.847101 -75.04604 
L 276.924775 -77.257477 
L 277.033327 -79.468913 
L 277.151366 -81.68035 
L 277.260167 -83.891787 
L 277.348075 -86.103224 
L 277.41138 -88.314661 
L 277.452399 -90.526097 
L 277.476456 -92.737534 
L 277.489276 -94.948971 
L 277.495503 -97.160408 
L 277.498263 -99.371844 
L 277.499382 -101.583281 
L 277.499798 -103.794718 
L 277.499938 -106.006155 
L 277.49998 -108.217592 
L 277.499985 -110.429028 
L 277.499959 -112.640465 
L 277.499863 -114.851902 
L 277.499572 -117.063339 
L 277.498762 -119.274776 
L 277.496705 -121.486212 
L 277.491923 -123.697649 
L 277.481767 -125.909086 
L 277.462099 -128.120523 
L 277.427451 -130.331959 
L 277.372123 -132.543396 
L 277.292445 -134.754833 
L 277.18979 -136.96627 
L 277.073064 -139.177707 
L 276.958934 -141.389143 
L 276.868574 -143.60058 
L 276.821454 -145.812017 
L 276.82852 -148.023454 
L 276.888036 -150.234891 
L 276.986158 -152.446327 
L 277.101856 -154.657764 
L 277.213477 -156.869201 
L 277.303593 -159.080638 
L 277.360017 -161.292075 
L 277.372993 -163.503511 
L 277.330399 -165.714948 
L 277.21361 -167.926385 
L 276.996457 -170.137822 
L 276.648569 -172.349258 
L 276.142459 -174.560695 
L 275.461282 -176.772132 
L 274.602599 -178.983569 
L 273.574044 -181.195006 
L 272.380431 -183.406442 
L 271.007062 -185.617879 
L 269.407978 -187.829316 
L 267.507918 -190.040753 
L 265.222305 -192.25219 
L 262.492484 -194.463626 
L 259.326655 -196.675063 
L 255.832911 -198.8865 
L 252.230932 -201.097937 
L 248.833731 -203.309374 
L 245.999678 -205.52081 
L 244.065317 -207.732247 
L 243.277242 -209.943684 
L 243.742563 -212.155121 
L 245.411013 -214.366557 
L 248.090443 -216.577994 
L 251.487038 -218.789431 
L 255.256866 -221.000868 
L 259.057181 -223.212305 
L 262.590621 -225.423741 
L 265.639021 -227.635178 
L 268.08403 -229.846615 
L 269.911131 -232.058052 
L 271.194661 -234.269489 
L 272.065736 -236.480925 
L 272.67102 -238.692362 
L 273.134713 -240.903799 
L 273.535659 -243.115236 
L 273.90533 -245.326673 
L 274.243379 -247.538109 
L 274.540412 -249.749546 
L 274.796162 -251.960983 
L 275.025799 -254.17242 
L 275.254293 -256.383856 
L 275.50454 -258.595293 
L 275.786719 -260.80673 
L 276.094151 -263.018167 
L 276.406713 -265.229604 
L 276.699133 -267.44104 
L 276.949839 -269.652477 
L 277.146739 -271.863914 
L 277.288515 -274.075351 
L 277.382194 -276.286788 
L 277.617806 -276.286788 
L 277.617806 -276.286788 
L 277.711485 -274.075351 
L 277.853261 -271.863914 
L 278.050161 -269.652477 
L 278.300867 -267.44104 
L 278.593287 -265.229604 
L 278.905849 -263.018167 
L 279.213281 -260.80673 
L 279.49546 -258.595293 
L 279.745707 -256.383856 
L 279.974201 -254.17242 
L 280.203838 -251.960983 
L 280.459588 -249.749546 
L 280.756621 -247.538109 
L 281.09467 -245.326673 
L 281.464341 -243.115236 
L 281.865287 -240.903799 
L 282.32898 -238.692362 
L 282.934264 -236.480925 
L 283.805339 -234.269489 
L 285.088869 -232.058052 
L 286.91597 -229.846615 
L 289.360979 -227.635178 
L 292.409379 -225.423741 
L 295.942819 -223.212305 
L 299.743134 -221.000868 
L 303.512962 -218.789431 
L 306.909557 -216.577994 
L 309.588987 -214.366557 
L 311.257437 -212.155121 
L 311.722758 -209.943684 
L 310.934683 -207.732247 
L 309.000322 -205.52081 
L 306.166269 -203.309374 
L 302.769068 -201.097937 
L 299.167089 -198.8865 
L 295.673345 -196.675063 
L 292.507516 -194.463626 
L 289.777695 -192.25219 
L 287.492082 -190.040753 
L 285.592022 -187.829316 
L 283.992938 -185.617879 
L 282.619569 -183.406442 
L 281.425956 -181.195006 
L 280.397401 -178.983569 
L 279.538718 -176.772132 
L 278.857541 -174.560695 
L 278.351431 -172.349258 
L 278.003543 -170.137822 
L 277.78639 -167.926385 
L 277.669601 -165.714948 
L 277.627007 -163.503511 
L 277.639983 -161.292075 
L 277.696407 -159.080638 
L 277.786523 -156.869201 
L 277.898144 -154.657764 
L 278.013842 -152.446327 
L 278.111964 -150.234891 
L 278.17148 -148.023454 
L 278.178546 -145.812017 
L 278.131426 -143.60058 
L 278.041066 -141.389143 
L 277.926936 -139.177707 
L 277.81021 -136.96627 
L 277.707555 -134.754833 
L 277.627877 -132.543396 
L 277.572549 -130.331959 
L 277.537901 -128.120523 
L 277.518233 -125.909086 
L 277.508077 -123.697649 
L 277.503295 -121.486212 
L 277.501238 -119.274776 
L 277.500428 -117.063339 
L 277.500137 -114.851902 
L 277.500041 -112.640465 
L 277.500015 -110.429028 
L 277.50002 -108.217592 
L 277.500062 -106.006155 
L 277.500202 -103.794718 
L 277.500618 -101.583281 
L 277.501737 -99.371844 
L 277.504497 -97.160408 
L 277.510724 -94.948971 
L 277.523544 -92.737534 
L 277.547601 -90.526097 
L 277.58862 -88.314661 
L 277.651925 -86.103224 
L 277.739833 -83.891787 
L 277.848634 -81.68035 
L 277.966673 -79.468913 
L 278.075225 -77.257477 
L 278.152899 -75.04604 
L 278.182395 -72.834603 
L 278.156762 -70.623166 
L 278.082053 -68.411729 
L 277.975007 -66.200293 
L 277.856959 -63.988856 
L 277.747013 -61.777419 
L 277.6574 -59.565982 
L 277.592357 -57.354545 
z
" id="m3a00ab16c3" style="stroke:#4d4d4d;stroke-width:2;"/>
    </defs>
    <g clip-path="url(#p81ba0529d3)">
     <use style="fill:#808080;stroke:#4d4d4d;stroke-width:2;" x="0" xlink:href="#m3a00ab16c3" y="360"/>
    </g>
   </g>
   <g id="line2d_11">
    <path clip-path="url(#p81ba0529d3)" d="M 91.5 180.291869 
L 91.5 125.526345 
" style="fill:none;stroke:#000000;stroke-linecap:round;stroke-width:2;"/>
   </g>
   <g id="line2d_12">
    <path clip-path="url(#p81ba0529d3)" d="M 91.5 161.77396 
L 91.5 146.972838 
" style="fill:none;stroke:#000000;stroke-linecap:round;stroke-width:6;"/>
   </g>
   <g id="line2d_13">
    <path clip-path="url(#p81ba0529d3)" d="M 184.5 172.851917 
L 184.5 135.893988 
" style="fill:none;stroke:#000000;stroke-linecap:round;stroke-width:2;"/>
   </g>
   <g id="line2d_14">
    <path clip-path="url(#p81ba0529d3)" d="M 184.5 157.317099 
L 184.5 146.114109 
" style="fill:none;stroke:#000000;stroke-linecap:round;stroke-width:6;"/>
   </g>
   <g id="line2d_15">
    <path clip-path="url(#p81ba0529d3)" d="M 277.5 175.619515 
L 277.5 120.977378 
" style="fill:none;stroke:#000000;stroke-linecap:round;stroke-width:2;"/>
   </g>
   <g id="line2d_16">
    <path clip-path="url(#p81ba0529d3)" d="M 277.5 155.722794 
L 277.5 141.714594 
" style="fill:none;stroke:#000000;stroke-linecap:round;stroke-width:6;"/>
   </g>
   <g id="patch_3">
    <path d="M 45 315 
L 45 43.2 
" style="fill:none;stroke:#262626;stroke-linecap:square;stroke-linejoin:miter;stroke-width:2;"/>
   </g>
   <g id="patch_4">
    <path d="M 45 315 
L 324 315 
" style="fill:none;stroke:#262626;stroke-linecap:square;stroke-linejoin:miter;stroke-width:2;"/>
   </g>
   <g id="PathCollection_1">
    <defs>
     <path d="M 0 2 
C 0.530406 2 1.03916 1.789267 1.414214 1.414214 
C 1.789267 1.03916 2 0.530406 2 0 
C 2 -0.530406 1.789267 -1.03916 1.414214 -1.414214 
C 1.03916 -1.789267 0.530406 -2 0 -2 
C -0.530406 -2 -1.03916 -1.789267 -1.414214 -1.414214 
C -1.789267 -1.03916 -2 -0.530406 -2 0 
C -2 0.530406 -1.789267 1.03916 -1.414214 1.414214 
C -1.03916 1.789267 -0.530406 2 0 2 
z
" id="mc100a40735" style="stroke:#4d4d4d;"/>
    </defs>
    <g clip-path="url(#p81ba0529d3)">
     <use style="fill:#ffffff;stroke:#4d4d4d;" x="91.5" xlink:href="#mc100a40735" y="153.71826"/>
    </g>
   </g>
   <g id="PathCollection_2">
    <g clip-path="url(#p81ba0529d3)">
     <use style="fill:#ffffff;stroke:#4d4d4d;" x="184.5" xlink:href="#mc100a40735" y="150.948694"/>
    </g>
   </g>
   <g id="PathCollection_3">
    <g clip-path="url(#p81ba0529d3)">
     <use style="fill:#ffffff;stroke:#4d4d4d;" x="277.5" xlink:href="#mc100a40735" y="149.80756"/>
    </g>
   </g>
   <g id="text_13">
    <text style="fill:#262626;font-family:Cantarell;font-size:16.8px;font-stretch:normal;font-style:normal;font-weight:normal;text-anchor:middle;" transform="rotate(-0, 184.5, 37.2)" x="184.5" y="37.2">TVMV_PDZ</text>
   </g>
  </g>
 </g>
 <defs>
  <clipPath id="p81ba0529d3">
   <rect height="271.8" width="279" x="45" y="43.2"/>
  </clipPath>
 </defs>
</svg>
