<?xml version="1.0" encoding="utf-8" standalone="no"?>
<!DOCTYPE svg PUBLIC "-//W3C//DTD SVG 1.1//EN"
  "http://www.w3.org/Graphics/SVG/1.1/DTD/svg11.dtd">
<svg xmlns:xlink="http://www.w3.org/1999/xlink" width="360pt" height="360pt" viewBox="0 0 360 360" xmlns="http://www.w3.org/2000/svg" version="1.1">
 <metadata>
  <rdf:RDF xmlns:dc="http://purl.org/dc/elements/1.1/" xmlns:cc="http://creativecommons.org/ns#" xmlns:rdf="http://www.w3.org/1999/02/22-rdf-syntax-ns#">
   <cc:Work>
    <dc:type rdf:resource="http://purl.org/dc/dcmitype/StillImage"/>
    <dc:date>2023-12-01T16:47:12.910953</dc:date>
    <dc:format>image/svg+xml</dc:format>
    <dc:creator>
     <cc:Agent>
      <dc:title>Matplotlib v3.5.3, https://matplotlib.org/</dc:title>
     </cc:Agent>
    </dc:creator>
   </cc:Work>
  </rdf:RDF>
 </metadata>
 <defs>
  <style type="text/css">*{stroke-linejoin: round; stroke-linecap: butt}</style>
 </defs>
 <g id="figure_1">
  <g id="patch_1">
   <path d="M 0 360 
L 360 360 
L 360 0 
L 0 0 
z
" style="fill: #ffffff"/>
  </g>
  <g id="axes_1">
   <g id="patch_2">
    <path d="M 45 320.4 
L 324 320.4 
L 324 43.2 
L 45 43.2 
z
" style="fill: #ffffff"/>
   </g>
   <g id="matplotlib.axis_1">
    <g id="xtick_1">
     <g id="line2d_1">
      <defs>
       <path id="m0d0338cd35" d="M 0 0 
L 0 3.5 
" style="stroke: #262626; stroke-width: 2"/>
      </defs>
      <g>
       <use xlink:href="#m0d0338cd35" x="114.806172" y="320.4" style="fill: #262626; stroke: #262626; stroke-width: 2"/>
      </g>
     </g>
     <g id="text_1">
      <text style="fill: #262626; font: 14px 'sans-serif'; text-anchor: middle" x="114.806172" y="338.037813" transform="rotate(-0, 114.806172, 338.037813)">−5</text>
     </g>
    </g>
    <g id="xtick_2">
     <g id="line2d_2">
      <g>
       <use xlink:href="#m0d0338cd35" x="196.924918" y="320.4" style="fill: #262626; stroke: #262626; stroke-width: 2"/>
      </g>
     </g>
     <g id="text_2">
      <text style="fill: #262626; font: 14px 'sans-serif'; text-anchor: middle" x="196.924918" y="338.037813" transform="rotate(-0, 196.924918, 338.037813)">0</text>
     </g>
    </g>
    <g id="xtick_3">
     <g id="line2d_3">
      <g>
       <use xlink:href="#m0d0338cd35" x="279.043664" y="320.4" style="fill: #262626; stroke: #262626; stroke-width: 2"/>
      </g>
     </g>
     <g id="text_3">
      <text style="fill: #262626; font: 14px 'sans-serif'; text-anchor: middle" x="279.043664" y="338.037813" transform="rotate(-0, 279.043664, 338.037813)">5</text>
     </g>
    </g>
    <g id="text_4">
     <text style="fill: #262626; font: 14px 'sans-serif'; text-anchor: middle" x="184.5" y="355.587188" transform="rotate(-0, 184.5, 355.587188)">Rep-2 log2 enriched read counts</text>
    </g>
   </g>
   <g id="matplotlib.axis_2">
    <g id="ytick_1">
     <g id="line2d_4">
      <defs>
       <path id="m1cbf061794" d="M 0 0 
L -3.5 0 
" style="stroke: #262626; stroke-width: 2"/>
      </defs>
      <g>
       <use xlink:href="#m1cbf061794" x="45" y="299.997559" style="fill: #262626; stroke: #262626; stroke-width: 2"/>
      </g>
     </g>
     <g id="text_5">
      <text style="fill: #262626; font: 14px 'sans-serif'; text-anchor: end" x="38" y="305.316465" transform="rotate(-0, 38, 305.316465)">−8</text>
     </g>
    </g>
    <g id="ytick_2">
     <g id="line2d_5">
      <g>
       <use xlink:href="#m1cbf061794" x="45" y="267.36198" style="fill: #262626; stroke: #262626; stroke-width: 2"/>
      </g>
     </g>
     <g id="text_6">
      <text style="fill: #262626; font: 14px 'sans-serif'; text-anchor: end" x="38" y="272.680886" transform="rotate(-0, 38, 272.680886)">−6</text>
     </g>
    </g>
    <g id="ytick_3">
     <g id="line2d_6">
      <g>
       <use xlink:href="#m1cbf061794" x="45" y="234.726401" style="fill: #262626; stroke: #262626; stroke-width: 2"/>
      </g>
     </g>
     <g id="text_7">
      <text style="fill: #262626; font: 14px 'sans-serif'; text-anchor: end" x="38" y="240.045307" transform="rotate(-0, 38, 240.045307)">−4</text>
     </g>
    </g>
    <g id="ytick_4">
     <g id="line2d_7">
      <g>
       <use xlink:href="#m1cbf061794" x="45" y="202.090822" style="fill: #262626; stroke: #262626; stroke-width: 2"/>
      </g>
     </g>
     <g id="text_8">
      <text style="fill: #262626; font: 14px 'sans-serif'; text-anchor: end" x="38" y="207.409728" transform="rotate(-0, 38, 207.409728)">−2</text>
     </g>
    </g>
    <g id="ytick_5">
     <g id="line2d_8">
      <g>
       <use xlink:href="#m1cbf061794" x="45" y="169.455243" style="fill: #262626; stroke: #262626; stroke-width: 2"/>
      </g>
     </g>
     <g id="text_9">
      <text style="fill: #262626; font: 14px 'sans-serif'; text-anchor: end" x="38" y="174.774149" transform="rotate(-0, 38, 174.774149)">0</text>
     </g>
    </g>
    <g id="ytick_6">
     <g id="line2d_9">
      <g>
       <use xlink:href="#m1cbf061794" x="45" y="136.819663" style="fill: #262626; stroke: #262626; stroke-width: 2"/>
      </g>
     </g>
     <g id="text_10">
      <text style="fill: #262626; font: 14px 'sans-serif'; text-anchor: end" x="38" y="142.13857" transform="rotate(-0, 38, 142.13857)">2</text>
     </g>
    </g>
    <g id="ytick_7">
     <g id="line2d_10">
      <g>
       <use xlink:href="#m1cbf061794" x="45" y="104.184084" style="fill: #262626; stroke: #262626; stroke-width: 2"/>
      </g>
     </g>
     <g id="text_11">
      <text style="fill: #262626; font: 14px 'sans-serif'; text-anchor: end" x="38" y="109.502991" transform="rotate(-0, 38, 109.502991)">4</text>
     </g>
    </g>
    <g id="ytick_8">
     <g id="line2d_11">
      <g>
       <use xlink:href="#m1cbf061794" x="45" y="71.548505" style="fill: #262626; stroke: #262626; stroke-width: 2"/>
      </g>
     </g>
     <g id="text_12">
      <text style="fill: #262626; font: 14px 'sans-serif'; text-anchor: end" x="38" y="76.867411" transform="rotate(-0, 38, 76.867411)">6</text>
     </g>
    </g>
    <g id="text_13">
     <text style="fill: #262626; font: 14px 'sans-serif'; text-anchor: middle" x="10.449375" y="181.8" transform="rotate(-90, 10.449375, 181.8)">Rep-1 log2 enriched read counts</text>
    </g>
   </g>
   <g id="PathCollection_1">
    <defs>
     <path id="m18db80c895" d="M 0 3 
C 0.795609 3 1.55874 2.683901 2.12132 2.12132 
C 2.683901 1.55874 3 0.795609 3 0 
C 3 -0.795609 2.683901 -1.55874 2.12132 -2.12132 
C 1.55874 -2.683901 0.795609 -3 0 -3 
C -0.795609 -3 -1.55874 -2.683901 -2.12132 -2.12132 
C -2.683901 -1.55874 -3 -0.795609 -3 0 
C -3 0.795609 -2.683901 1.55874 -2.12132 2.12132 
C -1.55874 2.683901 -0.795609 3 0 3 
z
"/>
    </defs>
    <g clip-path="url(#p96ed792116)">
     <use xlink:href="#m18db80c895" x="246.380285" y="150.537849" style="fill: #808080; fill-opacity: 0.4"/>
     <use xlink:href="#m18db80c895" x="221.176242" y="143.969723" style="fill: #808080; fill-opacity: 0.4"/>
     <use xlink:href="#m18db80c895" x="158.968206" y="229.312513" style="fill: #808080; fill-opacity: 0.4"/>
     <use xlink:href="#m18db80c895" x="215.222815" y="155.903029" style="fill: #808080; fill-opacity: 0.4"/>
     <use xlink:href="#m18db80c895" x="181.528747" y="223.215313" style="fill: #808080; fill-opacity: 0.4"/>
     <use xlink:href="#m18db80c895" x="191.470513" y="217.718832" style="fill: #808080; fill-opacity: 0.4"/>
     <use xlink:href="#m18db80c895" x="231.164671" y="193.692997" style="fill: #808080; fill-opacity: 0.4"/>
     <use xlink:href="#m18db80c895" x="216.960853" y="157.856576" style="fill: #808080; fill-opacity: 0.4"/>
     <use xlink:href="#m18db80c895" x="237.337558" y="152.672574" style="fill: #808080; fill-opacity: 0.4"/>
     <use xlink:href="#m18db80c895" x="249.591962" y="168.145912" style="fill: #808080; fill-opacity: 0.4"/>
     <use xlink:href="#m18db80c895" x="300.530845" y="96.368138" style="fill: #808080; fill-opacity: 0.4"/>
     <use xlink:href="#m18db80c895" x="211.891971" y="111.459033" style="fill: #808080; fill-opacity: 0.4"/>
     <use xlink:href="#m18db80c895" x="269.568463" y="110.860848" style="fill: #808080; fill-opacity: 0.4"/>
     <use xlink:href="#m18db80c895" x="296.966641" y="117.343061" style="fill: #808080; fill-opacity: 0.4"/>
     <use xlink:href="#m18db80c895" x="234.97783" y="156.544446" style="fill: #808080; fill-opacity: 0.4"/>
     <use xlink:href="#m18db80c895" x="174.128391" y="221.940803" style="fill: #808080; fill-opacity: 0.4"/>
     <use xlink:href="#m18db80c895" x="148.420532" y="292.221093" style="fill: #808080; fill-opacity: 0.4"/>
     <use xlink:href="#m18db80c895" x="178.337569" y="227.745217" style="fill: #808080; fill-opacity: 0.4"/>
     <use xlink:href="#m18db80c895" x="194.285234" y="220.894338" style="fill: #808080; fill-opacity: 0.4"/>
     <use xlink:href="#m18db80c895" x="169.939319" y="265.48679" style="fill: #808080; fill-opacity: 0.4"/>
     <use xlink:href="#m18db80c895" x="199.29304" y="185.863439" style="fill: #808080; fill-opacity: 0.4"/>
     <use xlink:href="#m18db80c895" x="156.697554" y="242.402725" style="fill: #808080; fill-opacity: 0.4"/>
     <use xlink:href="#m18db80c895" x="160.588119" y="270.167562" style="fill: #808080; fill-opacity: 0.4"/>
     <use xlink:href="#m18db80c895" x="172.945375" y="231.62411" style="fill: #808080; fill-opacity: 0.4"/>
     <use xlink:href="#m18db80c895" x="147.7026" y="237.149275" style="fill: #808080; fill-opacity: 0.4"/>
     <use xlink:href="#m18db80c895" x="147.729836" y="256.071753" style="fill: #808080; fill-opacity: 0.4"/>
     <use xlink:href="#m18db80c895" x="151.055035" y="295.850968" style="fill: #808080; fill-opacity: 0.4"/>
     <use xlink:href="#m18db80c895" x="158.374873" y="239.683914" style="fill: #808080; fill-opacity: 0.4"/>
     <use xlink:href="#m18db80c895" x="163.91537" y="207.73911" style="fill: #808080; fill-opacity: 0.4"/>
     <use xlink:href="#m18db80c895" x="137.415273" y="223.92776" style="fill: #808080; fill-opacity: 0.4"/>
     <use xlink:href="#m18db80c895" x="152.556944" y="225.922123" style="fill: #808080; fill-opacity: 0.4"/>
     <use xlink:href="#m18db80c895" x="148.576157" y="245.978043" style="fill: #808080; fill-opacity: 0.4"/>
     <use xlink:href="#m18db80c895" x="145.152009" y="232.65641" style="fill: #808080; fill-opacity: 0.4"/>
     <use xlink:href="#m18db80c895" x="139.798247" y="235.887333" style="fill: #808080; fill-opacity: 0.4"/>
     <use xlink:href="#m18db80c895" x="149.954158" y="261.756585" style="fill: #808080; fill-opacity: 0.4"/>
     <use xlink:href="#m18db80c895" x="213.600118" y="154.720721" style="fill: #808080; fill-opacity: 0.4"/>
     <use xlink:href="#m18db80c895" x="211.796888" y="240.690344" style="fill: #808080; fill-opacity: 0.4"/>
     <use xlink:href="#m18db80c895" x="221.168856" y="154.574142" style="fill: #808080; fill-opacity: 0.4"/>
     <use xlink:href="#m18db80c895" x="156.823412" y="215.12568" style="fill: #808080; fill-opacity: 0.4"/>
     <use xlink:href="#m18db80c895" x="178.609699" y="257.515405" style="fill: #808080; fill-opacity: 0.4"/>
     <use xlink:href="#m18db80c895" x="159.88777" y="195.331334" style="fill: #808080; fill-opacity: 0.4"/>
     <use xlink:href="#m18db80c895" x="137.836732" y="304.08221" style="fill: #808080; fill-opacity: 0.4"/>
     <use xlink:href="#m18db80c895" x="152.655478" y="231.792868" style="fill: #808080; fill-opacity: 0.4"/>
     <use xlink:href="#m18db80c895" x="152.178756" y="244.38341" style="fill: #808080; fill-opacity: 0.4"/>
     <use xlink:href="#m18db80c895" x="131.978428" y="289.810207" style="fill: #808080; fill-opacity: 0.4"/>
     <use xlink:href="#m18db80c895" x="180.534619" y="214.976585" style="fill: #808080; fill-opacity: 0.4"/>
     <use xlink:href="#m18db80c895" x="148.225775" y="229.820791" style="fill: #808080; fill-opacity: 0.4"/>
     <use xlink:href="#m18db80c895" x="154.312985" y="245.05959" style="fill: #808080; fill-opacity: 0.4"/>
     <use xlink:href="#m18db80c895" x="163.985163" y="205.581012" style="fill: #808080; fill-opacity: 0.4"/>
     <use xlink:href="#m18db80c895" x="148.769348" y="232.965005" style="fill: #808080; fill-opacity: 0.4"/>
     <use xlink:href="#m18db80c895" x="142.611016" y="226.204533" style="fill: #808080; fill-opacity: 0.4"/>
     <use xlink:href="#m18db80c895" x="159.641323" y="260.738108" style="fill: #808080; fill-opacity: 0.4"/>
     <use xlink:href="#m18db80c895" x="164.898213" y="262.39687" style="fill: #808080; fill-opacity: 0.4"/>
     <use xlink:href="#m18db80c895" x="161.915595" y="200.012028" style="fill: #808080; fill-opacity: 0.4"/>
     <use xlink:href="#m18db80c895" x="152.875025" y="225.954468" style="fill: #808080; fill-opacity: 0.4"/>
     <use xlink:href="#m18db80c895" x="155.064562" y="224.316969" style="fill: #808080; fill-opacity: 0.4"/>
     <use xlink:href="#m18db80c895" x="176.445902" y="177.41445" style="fill: #808080; fill-opacity: 0.4"/>
     <use xlink:href="#m18db80c895" x="216.735352" y="207.563038" style="fill: #808080; fill-opacity: 0.4"/>
     <use xlink:href="#m18db80c895" x="176.279542" y="220.070985" style="fill: #808080; fill-opacity: 0.4"/>
     <use xlink:href="#m18db80c895" x="164.06354" y="228.182771" style="fill: #808080; fill-opacity: 0.4"/>
     <use xlink:href="#m18db80c895" x="189.408825" y="182.909668" style="fill: #808080; fill-opacity: 0.4"/>
     <use xlink:href="#m18db80c895" x="187.055452" y="270.420958" style="fill: #808080; fill-opacity: 0.4"/>
     <use xlink:href="#m18db80c895" x="205.946963" y="199.690368" style="fill: #808080; fill-opacity: 0.4"/>
     <use xlink:href="#m18db80c895" x="201.813725" y="238.776705" style="fill: #808080; fill-opacity: 0.4"/>
     <use xlink:href="#m18db80c895" x="247.296691" y="154.354144" style="fill: #808080; fill-opacity: 0.4"/>
     <use xlink:href="#m18db80c895" x="267.834594" y="81.107734" style="fill: #808080; fill-opacity: 0.4"/>
     <use xlink:href="#m18db80c895" x="252.142026" y="94.581457" style="fill: #808080; fill-opacity: 0.4"/>
     <use xlink:href="#m18db80c895" x="231.834385" y="123.884031" style="fill: #808080; fill-opacity: 0.4"/>
     <use xlink:href="#m18db80c895" x="249.545799" y="100.342034" style="fill: #808080; fill-opacity: 0.4"/>
     <use xlink:href="#m18db80c895" x="243.371898" y="92.195977" style="fill: #808080; fill-opacity: 0.4"/>
     <use xlink:href="#m18db80c895" x="259.29658" y="86.696296" style="fill: #808080; fill-opacity: 0.4"/>
     <use xlink:href="#m18db80c895" x="262.071598" y="96.534542" style="fill: #808080; fill-opacity: 0.4"/>
     <use xlink:href="#m18db80c895" x="219.350876" y="161.451758" style="fill: #808080; fill-opacity: 0.4"/>
     <use xlink:href="#m18db80c895" x="227.539029" y="134.234398" style="fill: #808080; fill-opacity: 0.4"/>
     <use xlink:href="#m18db80c895" x="191.08223" y="168.030793" style="fill: #808080; fill-opacity: 0.4"/>
     <use xlink:href="#m18db80c895" x="218.185027" y="133.031419" style="fill: #808080; fill-opacity: 0.4"/>
     <use xlink:href="#m18db80c895" x="171.383259" y="253.99428" style="fill: #808080; fill-opacity: 0.4"/>
     <use xlink:href="#m18db80c895" x="186.206117" y="198.382374" style="fill: #808080; fill-opacity: 0.4"/>
     <use xlink:href="#m18db80c895" x="171.832751" y="233.377801" style="fill: #808080; fill-opacity: 0.4"/>
     <use xlink:href="#m18db80c895" x="209.120286" y="184.620124" style="fill: #808080; fill-opacity: 0.4"/>
     <use xlink:href="#m18db80c895" x="167.395402" y="212.235251" style="fill: #808080; fill-opacity: 0.4"/>
     <use xlink:href="#m18db80c895" x="161.876214" y="229.744481" style="fill: #808080; fill-opacity: 0.4"/>
     <use xlink:href="#m18db80c895" x="194.909068" y="157.973802" style="fill: #808080; fill-opacity: 0.4"/>
     <use xlink:href="#m18db80c895" x="199.032087" y="194.831493" style="fill: #808080; fill-opacity: 0.4"/>
     <use xlink:href="#m18db80c895" x="216.757472" y="156.246647" style="fill: #808080; fill-opacity: 0.4"/>
     <use xlink:href="#m18db80c895" x="196.585782" y="167.555638" style="fill: #808080; fill-opacity: 0.4"/>
     <use xlink:href="#m18db80c895" x="195.114826" y="191.837756" style="fill: #808080; fill-opacity: 0.4"/>
     <use xlink:href="#m18db80c895" x="190.585876" y="143.025146" style="fill: #808080; fill-opacity: 0.4"/>
     <use xlink:href="#m18db80c895" x="188.177354" y="155.60597" style="fill: #808080; fill-opacity: 0.4"/>
     <use xlink:href="#m18db80c895" x="163.175654" y="210.862807" style="fill: #808080; fill-opacity: 0.4"/>
     <use xlink:href="#m18db80c895" x="190.979371" y="184.09462" style="fill: #808080; fill-opacity: 0.4"/>
     <use xlink:href="#m18db80c895" x="189.716714" y="155.775856" style="fill: #808080; fill-opacity: 0.4"/>
     <use xlink:href="#m18db80c895" x="190.233128" y="217.020677" style="fill: #808080; fill-opacity: 0.4"/>
     <use xlink:href="#m18db80c895" x="167.262597" y="179.630943" style="fill: #808080; fill-opacity: 0.4"/>
     <use xlink:href="#m18db80c895" x="214.565843" y="139.287595" style="fill: #808080; fill-opacity: 0.4"/>
     <use xlink:href="#m18db80c895" x="220.992937" y="187.685584" style="fill: #808080; fill-opacity: 0.4"/>
     <use xlink:href="#m18db80c895" x="166.603478" y="189.515106" style="fill: #808080; fill-opacity: 0.4"/>
     <use xlink:href="#m18db80c895" x="179.292876" y="227.238635" style="fill: #808080; fill-opacity: 0.4"/>
     <use xlink:href="#m18db80c895" x="220.273121" y="168.329199" style="fill: #808080; fill-opacity: 0.4"/>
     <use xlink:href="#m18db80c895" x="191.521856" y="201.350031" style="fill: #808080; fill-opacity: 0.4"/>
     <use xlink:href="#m18db80c895" x="213.111187" y="180.407003" style="fill: #808080; fill-opacity: 0.4"/>
     <use xlink:href="#m18db80c895" x="131.68055" y="266.6722" style="fill: #808080; fill-opacity: 0.4"/>
     <use xlink:href="#m18db80c895" x="204.909845" y="180.803339" style="fill: #808080; fill-opacity: 0.4"/>
     <use xlink:href="#m18db80c895" x="256.869006" y="104.753514" style="fill: #808080; fill-opacity: 0.4"/>
     <use xlink:href="#m18db80c895" x="201.538532" y="160.620249" style="fill: #808080; fill-opacity: 0.4"/>
     <use xlink:href="#m18db80c895" x="307.576251" y="96.660584" style="fill: #808080; fill-opacity: 0.4"/>
     <use xlink:href="#m18db80c895" x="228.466773" y="133.691351" style="fill: #808080; fill-opacity: 0.4"/>
     <use xlink:href="#m18db80c895" x="243.706042" y="141.620971" style="fill: #808080; fill-opacity: 0.4"/>
     <use xlink:href="#m18db80c895" x="231.16851" y="175.018371" style="fill: #808080; fill-opacity: 0.4"/>
     <use xlink:href="#m18db80c895" x="225.184479" y="189.77955" style="fill: #808080; fill-opacity: 0.4"/>
     <use xlink:href="#m18db80c895" x="232.54454" y="174.336204" style="fill: #808080; fill-opacity: 0.4"/>
     <use xlink:href="#m18db80c895" x="226.673703" y="218.849799" style="fill: #808080; fill-opacity: 0.4"/>
     <use xlink:href="#m18db80c895" x="180.070737" y="198.063277" style="fill: #808080; fill-opacity: 0.4"/>
     <use xlink:href="#m18db80c895" x="180.798435" y="234.188994" style="fill: #808080; fill-opacity: 0.4"/>
     <use xlink:href="#m18db80c895" x="202.76827" y="220.674362" style="fill: #808080; fill-opacity: 0.4"/>
     <use xlink:href="#m18db80c895" x="200.869979" y="250.976692" style="fill: #808080; fill-opacity: 0.4"/>
     <use xlink:href="#m18db80c895" x="172.013741" y="254.66406" style="fill: #808080; fill-opacity: 0.4"/>
     <use xlink:href="#m18db80c895" x="164.250187" y="219.063538" style="fill: #808080; fill-opacity: 0.4"/>
     <use xlink:href="#m18db80c895" x="179.550592" y="267.182556" style="fill: #808080; fill-opacity: 0.4"/>
     <use xlink:href="#m18db80c895" x="159.846174" y="249.050138" style="fill: #808080; fill-opacity: 0.4"/>
     <use xlink:href="#m18db80c895" x="146.879959" y="239.545203" style="fill: #808080; fill-opacity: 0.4"/>
     <use xlink:href="#m18db80c895" x="170.811097" y="231.064249" style="fill: #808080; fill-opacity: 0.4"/>
     <use xlink:href="#m18db80c895" x="173.744826" y="227.715379" style="fill: #808080; fill-opacity: 0.4"/>
     <use xlink:href="#m18db80c895" x="135.543037" y="261.111308" style="fill: #808080; fill-opacity: 0.4"/>
     <use xlink:href="#m18db80c895" x="151.765934" y="248.432741" style="fill: #808080; fill-opacity: 0.4"/>
     <use xlink:href="#m18db80c895" x="157.0216" y="261.7558" style="fill: #808080; fill-opacity: 0.4"/>
     <use xlink:href="#m18db80c895" x="147.329348" y="249.563022" style="fill: #808080; fill-opacity: 0.4"/>
     <use xlink:href="#m18db80c895" x="177.353708" y="212.407621" style="fill: #808080; fill-opacity: 0.4"/>
     <use xlink:href="#m18db80c895" x="157.743865" y="241.169405" style="fill: #808080; fill-opacity: 0.4"/>
     <use xlink:href="#m18db80c895" x="133.865848" y="232.547835" style="fill: #808080; fill-opacity: 0.4"/>
     <use xlink:href="#m18db80c895" x="155.726641" y="264.259689" style="fill: #808080; fill-opacity: 0.4"/>
     <use xlink:href="#m18db80c895" x="166.639889" y="235.76436" style="fill: #808080; fill-opacity: 0.4"/>
     <use xlink:href="#m18db80c895" x="148.992922" y="259.83337" style="fill: #808080; fill-opacity: 0.4"/>
     <use xlink:href="#m18db80c895" x="175.209253" y="243.860518" style="fill: #808080; fill-opacity: 0.4"/>
     <use xlink:href="#m18db80c895" x="123.970415" y="278.739851" style="fill: #808080; fill-opacity: 0.4"/>
     <use xlink:href="#m18db80c895" x="165.380696" y="262.349467" style="fill: #808080; fill-opacity: 0.4"/>
     <use xlink:href="#m18db80c895" x="153.111155" y="276.217495" style="fill: #808080; fill-opacity: 0.4"/>
     <use xlink:href="#m18db80c895" x="161.974604" y="274.874143" style="fill: #808080; fill-opacity: 0.4"/>
     <use xlink:href="#m18db80c895" x="162.003901" y="241.394147" style="fill: #808080; fill-opacity: 0.4"/>
     <use xlink:href="#m18db80c895" x="165.724975" y="267.946035" style="fill: #808080; fill-opacity: 0.4"/>
     <use xlink:href="#m18db80c895" x="163.369362" y="247.96306" style="fill: #808080; fill-opacity: 0.4"/>
     <use xlink:href="#m18db80c895" x="150.737998" y="254.020459" style="fill: #808080; fill-opacity: 0.4"/>
     <use xlink:href="#m18db80c895" x="160.181923" y="244.424416" style="fill: #808080; fill-opacity: 0.4"/>
     <use xlink:href="#m18db80c895" x="169.309482" y="239.187643" style="fill: #808080; fill-opacity: 0.4"/>
     <use xlink:href="#m18db80c895" x="205.554579" y="264.227912" style="fill: #808080; fill-opacity: 0.4"/>
     <use xlink:href="#m18db80c895" x="245.523705" y="184.430637" style="fill: #808080; fill-opacity: 0.4"/>
     <use xlink:href="#m18db80c895" x="208.714115" y="188.755841" style="fill: #808080; fill-opacity: 0.4"/>
     <use xlink:href="#m18db80c895" x="219.922919" y="181.693303" style="fill: #808080; fill-opacity: 0.4"/>
     <use xlink:href="#m18db80c895" x="202.309496" y="199.073061" style="fill: #808080; fill-opacity: 0.4"/>
     <use xlink:href="#m18db80c895" x="236.461578" y="147.328804" style="fill: #808080; fill-opacity: 0.4"/>
     <use xlink:href="#m18db80c895" x="191.508423" y="264.906993" style="fill: #808080; fill-opacity: 0.4"/>
     <use xlink:href="#m18db80c895" x="120.612395" y="266.325711" style="fill: #808080; fill-opacity: 0.4"/>
     <use xlink:href="#m18db80c895" x="135.847581" y="243.267724" style="fill: #808080; fill-opacity: 0.4"/>
     <use xlink:href="#m18db80c895" x="137.515322" y="242.128161" style="fill: #808080; fill-opacity: 0.4"/>
     <use xlink:href="#m18db80c895" x="130.09072" y="274.321482" style="fill: #808080; fill-opacity: 0.4"/>
     <use xlink:href="#m18db80c895" x="154.187531" y="223.421895" style="fill: #808080; fill-opacity: 0.4"/>
     <use xlink:href="#m18db80c895" x="146.102629" y="257.596322" style="fill: #808080; fill-opacity: 0.4"/>
     <use xlink:href="#m18db80c895" x="143.524336" y="234.619958" style="fill: #808080; fill-opacity: 0.4"/>
     <use xlink:href="#m18db80c895" x="157.947734" y="251.114004" style="fill: #808080; fill-opacity: 0.4"/>
     <use xlink:href="#m18db80c895" x="148.771035" y="250.23948" style="fill: #808080; fill-opacity: 0.4"/>
     <use xlink:href="#m18db80c895" x="159.535068" y="258.545112" style="fill: #808080; fill-opacity: 0.4"/>
     <use xlink:href="#m18db80c895" x="146.27786" y="248.261512" style="fill: #808080; fill-opacity: 0.4"/>
     <use xlink:href="#m18db80c895" x="149.196632" y="229.368498" style="fill: #808080; fill-opacity: 0.4"/>
     <use xlink:href="#m18db80c895" x="112.20953" y="238.409832" style="fill: #808080; fill-opacity: 0.4"/>
     <use xlink:href="#m18db80c895" x="165.874695" y="262.387702" style="fill: #808080; fill-opacity: 0.4"/>
     <use xlink:href="#m18db80c895" x="162.242885" y="241.094011" style="fill: #808080; fill-opacity: 0.4"/>
     <use xlink:href="#m18db80c895" x="154.084577" y="266.621189" style="fill: #808080; fill-opacity: 0.4"/>
     <use xlink:href="#m18db80c895" x="165.093958" y="249.930226" style="fill: #808080; fill-opacity: 0.4"/>
     <use xlink:href="#m18db80c895" x="156.098378" y="247.665062" style="fill: #808080; fill-opacity: 0.4"/>
     <use xlink:href="#m18db80c895" x="212.915333" y="190.543889" style="fill: #808080; fill-opacity: 0.4"/>
     <use xlink:href="#m18db80c895" x="241.62845" y="156.8684" style="fill: #808080; fill-opacity: 0.4"/>
     <use xlink:href="#m18db80c895" x="196.478357" y="265.166445" style="fill: #808080; fill-opacity: 0.4"/>
     <use xlink:href="#m18db80c895" x="170.374785" y="227.435477" style="fill: #808080; fill-opacity: 0.4"/>
     <use xlink:href="#m18db80c895" x="161.767607" y="240.605208" style="fill: #808080; fill-opacity: 0.4"/>
     <use xlink:href="#m18db80c895" x="163.989083" y="244.901509" style="fill: #808080; fill-opacity: 0.4"/>
     <use xlink:href="#m18db80c895" x="154.162447" y="260.068949" style="fill: #808080; fill-opacity: 0.4"/>
     <use xlink:href="#m18db80c895" x="154.296531" y="260.519919" style="fill: #808080; fill-opacity: 0.4"/>
     <use xlink:href="#m18db80c895" x="158.48588" y="280.793482" style="fill: #808080; fill-opacity: 0.4"/>
     <use xlink:href="#m18db80c895" x="160.165" y="239.105617" style="fill: #808080; fill-opacity: 0.4"/>
     <use xlink:href="#m18db80c895" x="149.267089" y="260.521987" style="fill: #808080; fill-opacity: 0.4"/>
     <use xlink:href="#m18db80c895" x="152.825676" y="247.009095" style="fill: #808080; fill-opacity: 0.4"/>
     <use xlink:href="#m18db80c895" x="154.384707" y="227.796732" style="fill: #808080; fill-opacity: 0.4"/>
     <use xlink:href="#m18db80c895" x="166.29268" y="256.578711" style="fill: #808080; fill-opacity: 0.4"/>
     <use xlink:href="#m18db80c895" x="201.50847" y="204.375016" style="fill: #808080; fill-opacity: 0.4"/>
     <use xlink:href="#m18db80c895" x="199.577109" y="205.068399" style="fill: #808080; fill-opacity: 0.4"/>
     <use xlink:href="#m18db80c895" x="207.335967" y="209.345946" style="fill: #808080; fill-opacity: 0.4"/>
     <use xlink:href="#m18db80c895" x="177.629223" y="194.914811" style="fill: #808080; fill-opacity: 0.4"/>
     <use xlink:href="#m18db80c895" x="204.833003" y="201.799474" style="fill: #808080; fill-opacity: 0.4"/>
     <use xlink:href="#m18db80c895" x="206.665052" y="176.370111" style="fill: #808080; fill-opacity: 0.4"/>
     <use xlink:href="#m18db80c895" x="193.302636" y="202.593276" style="fill: #808080; fill-opacity: 0.4"/>
     <use xlink:href="#m18db80c895" x="193.067607" y="193.108036" style="fill: #808080; fill-opacity: 0.4"/>
     <use xlink:href="#m18db80c895" x="142.450617" y="251.400876" style="fill: #808080; fill-opacity: 0.4"/>
     <use xlink:href="#m18db80c895" x="132.199705" y="215.775826" style="fill: #808080; fill-opacity: 0.4"/>
     <use xlink:href="#m18db80c895" x="185.700927" y="212.475229" style="fill: #808080; fill-opacity: 0.4"/>
     <use xlink:href="#m18db80c895" x="166.626508" y="247.920719" style="fill: #808080; fill-opacity: 0.4"/>
    </g>
   </g>
   <g id="PolyCollection_1">
    <defs>
     <path id="mb6653f68a4" d="M 112.20953 -77.569165 
L 112.20953 -62.440364 
L 114.182931 -64.752605 
L 116.156333 -66.9936 
L 118.129734 -69.260053 
L 120.103135 -71.533119 
L 122.076536 -73.831727 
L 124.049938 -76.236897 
L 126.023339 -78.643116 
L 127.99674 -81.050499 
L 129.970141 -83.395544 
L 131.943542 -85.826158 
L 133.916944 -88.203237 
L 135.890345 -90.578023 
L 137.863746 -92.829162 
L 139.837147 -95.060366 
L 141.810548 -97.334172 
L 143.78395 -99.580568 
L 145.757351 -101.854809 
L 147.730752 -104.085644 
L 149.704153 -106.368676 
L 151.677555 -108.646969 
L 153.650956 -110.962237 
L 155.624357 -113.174259 
L 157.597758 -115.388203 
L 159.571159 -117.643816 
L 161.544561 -119.882752 
L 163.517962 -122.09689 
L 165.491363 -124.375643 
L 167.464764 -126.640616 
L 169.438166 -128.930899 
L 171.411567 -131.139811 
L 173.384968 -133.269786 
L 175.358369 -135.455898 
L 177.33177 -137.565446 
L 179.305172 -139.692292 
L 181.278573 -141.978981 
L 183.251974 -144.120423 
L 185.225375 -146.234345 
L 187.198776 -148.18646 
L 189.172178 -150.313108 
L 191.145579 -152.351443 
L 193.11898 -154.443501 
L 195.092381 -156.534285 
L 197.065783 -158.545754 
L 199.039184 -160.63682 
L 201.012585 -162.661176 
L 202.985986 -164.64631 
L 204.959387 -166.646944 
L 206.932789 -168.653352 
L 208.90619 -170.647356 
L 210.879591 -172.592218 
L 212.852992 -174.546591 
L 214.826394 -176.515649 
L 216.799795 -178.449589 
L 218.773196 -180.395879 
L 220.746597 -182.364497 
L 222.719998 -184.369589 
L 224.6934 -186.39982 
L 226.666801 -188.430052 
L 228.640202 -190.392644 
L 230.613603 -192.36917 
L 232.587004 -194.376327 
L 234.560406 -196.383484 
L 236.533807 -198.288203 
L 238.507208 -200.279983 
L 240.480609 -202.273133 
L 242.454011 -204.262999 
L 244.427412 -206.225024 
L 246.400813 -208.171804 
L 248.374214 -210.11207 
L 250.347615 -212.056818 
L 252.321017 -214.021912 
L 254.294418 -215.985452 
L 256.267819 -217.889198 
L 258.24122 -219.832796 
L 260.214622 -221.775515 
L 262.188023 -223.70707 
L 264.161424 -225.664402 
L 266.134825 -227.608426 
L 268.108226 -229.611819 
L 270.081628 -231.55959 
L 272.055029 -233.506373 
L 274.02843 -235.453155 
L 276.001831 -237.399937 
L 277.975232 -239.346719 
L 279.948634 -241.293502 
L 281.922035 -243.240284 
L 283.895436 -245.187066 
L 285.868837 -247.133849 
L 287.842239 -249.080631 
L 289.81564 -251.027413 
L 291.789041 -252.974195 
L 293.762442 -254.920978 
L 295.735843 -256.844117 
L 297.709245 -258.765827 
L 299.682646 -260.687537 
L 301.656047 -262.609247 
L 303.629448 -264.545158 
L 305.60285 -266.488589 
L 307.576251 -268.432019 
L 307.576251 -297.70155 
L 307.576251 -297.70155 
L 305.60285 -295.371761 
L 303.629448 -293.055682 
L 301.656047 -290.739603 
L 299.682646 -288.423525 
L 297.709245 -286.107446 
L 295.735843 -283.786002 
L 293.762442 -281.44715 
L 291.789041 -279.108298 
L 289.81564 -276.775299 
L 287.842239 -274.42976 
L 285.868837 -272.091742 
L 283.895436 -269.75289 
L 281.922035 -267.413896 
L 279.948634 -265.074403 
L 277.975232 -262.734223 
L 276.001831 -260.393946 
L 274.02843 -258.052665 
L 272.055029 -255.654606 
L 270.081628 -253.227362 
L 268.108226 -250.80979 
L 266.134825 -248.473483 
L 264.161424 -246.136887 
L 262.188023 -243.775371 
L 260.214622 -241.386249 
L 258.24122 -239.040117 
L 256.267819 -236.693326 
L 254.294418 -234.346248 
L 252.321017 -231.99917 
L 250.347615 -229.602552 
L 248.374214 -227.168262 
L 246.400813 -224.76393 
L 244.427412 -222.517071 
L 242.454011 -220.165166 
L 240.480609 -217.824152 
L 238.507208 -215.463721 
L 236.533807 -213.082189 
L 234.560406 -210.701237 
L 232.587004 -208.428758 
L 230.613603 -206.15628 
L 228.640202 -203.799645 
L 226.666801 -201.495142 
L 224.6934 -199.14881 
L 222.719998 -196.887244 
L 220.746597 -194.613858 
L 218.773196 -192.358398 
L 216.799795 -190.072287 
L 214.826394 -187.78525 
L 212.852992 -185.490388 
L 210.879591 -183.171516 
L 208.90619 -180.851578 
L 206.932789 -178.528121 
L 204.959387 -176.240098 
L 202.985986 -173.97551 
L 201.012585 -171.746618 
L 199.039184 -169.434757 
L 197.065783 -167.158365 
L 195.092381 -164.958155 
L 193.11898 -162.776859 
L 191.145579 -160.508531 
L 189.172178 -158.235147 
L 187.198776 -156.021665 
L 185.225375 -153.81644 
L 183.251974 -151.56614 
L 181.278573 -149.385163 
L 179.305172 -147.178723 
L 177.33177 -145.013312 
L 175.358369 -142.855911 
L 173.384968 -140.737626 
L 171.411567 -138.577261 
L 169.438166 -136.438252 
L 167.464764 -134.253767 
L 165.491363 -132.119355 
L 163.517962 -130.089718 
L 161.544561 -127.930162 
L 159.571159 -125.847499 
L 157.597758 -123.783881 
L 155.624357 -121.738469 
L 153.650956 -119.617886 
L 151.677555 -117.668533 
L 149.704153 -115.567021 
L 147.730752 -113.509251 
L 145.757351 -111.5593 
L 143.78395 -109.571436 
L 141.810548 -107.560528 
L 139.837147 -105.440953 
L 137.863746 -103.455059 
L 135.890345 -101.41967 
L 133.916944 -99.400105 
L 131.943542 -97.398059 
L 129.970141 -95.387746 
L 127.99674 -93.377453 
L 126.023339 -91.368249 
L 124.049938 -89.440207 
L 122.076536 -87.474978 
L 120.103135 -85.542164 
L 118.129734 -83.559309 
L 116.156333 -81.564181 
L 114.182931 -79.574045 
L 112.20953 -77.569165 
z
"/>
    </defs>
    <g clip-path="url(#p96ed792116)">
     <use xlink:href="#mb6653f68a4" x="0" y="360" style="fill: #808080; fill-opacity: 0.15"/>
    </g>
   </g>
   <g id="line2d_12">
    <path d="M 112.20953 289.737211 
L 114.182931 287.586835 
L 116.156333 285.436458 
L 118.129734 283.286081 
L 120.103135 281.135704 
L 122.076536 278.985327 
L 124.049938 276.83495 
L 126.023339 274.684574 
L 127.99674 272.534197 
L 129.970141 270.38382 
L 131.943542 268.233443 
L 133.916944 266.083066 
L 135.890345 263.932689 
L 137.863746 261.782313 
L 139.837147 259.631936 
L 141.810548 257.481559 
L 143.78395 255.331182 
L 145.757351 253.180805 
L 147.730752 251.030429 
L 149.704153 248.880052 
L 151.677555 246.729675 
L 153.650956 244.579298 
L 155.624357 242.428921 
L 157.597758 240.278544 
L 159.571159 238.128168 
L 161.544561 235.977791 
L 163.517962 233.827414 
L 165.491363 231.677037 
L 167.464764 229.52666 
L 169.438166 227.376283 
L 171.411567 225.225907 
L 173.384968 223.07553 
L 175.358369 220.925153 
L 177.33177 218.774776 
L 179.305172 216.624399 
L 181.278573 214.474023 
L 183.251974 212.323646 
L 185.225375 210.173269 
L 187.198776 208.022892 
L 189.172178 205.872515 
L 191.145579 203.722138 
L 193.11898 201.571762 
L 195.092381 199.421385 
L 197.065783 197.271008 
L 199.039184 195.120631 
L 201.012585 192.970254 
L 202.985986 190.819878 
L 204.959387 188.669501 
L 206.932789 186.519124 
L 208.90619 184.368747 
L 210.879591 182.21837 
L 212.852992 180.067993 
L 214.826394 177.917617 
L 216.799795 175.76724 
L 218.773196 173.616863 
L 220.746597 171.466486 
L 222.719998 169.316109 
L 224.6934 167.165732 
L 226.666801 165.015356 
L 228.640202 162.864979 
L 230.613603 160.714602 
L 232.587004 158.564225 
L 234.560406 156.413848 
L 236.533807 154.263472 
L 238.507208 152.113095 
L 240.480609 149.962718 
L 242.454011 147.812341 
L 244.427412 145.661964 
L 246.400813 143.511587 
L 248.374214 141.361211 
L 250.347615 139.210834 
L 252.321017 137.060457 
L 254.294418 134.91008 
L 256.267819 132.759703 
L 258.24122 130.609327 
L 260.214622 128.45895 
L 262.188023 126.308573 
L 264.161424 124.158196 
L 266.134825 122.007819 
L 268.108226 119.857442 
L 270.081628 117.707066 
L 272.055029 115.556689 
L 274.02843 113.406312 
L 276.001831 111.255935 
L 277.975232 109.105558 
L 279.948634 106.955181 
L 281.922035 104.804805 
L 283.895436 102.654428 
L 285.868837 100.504051 
L 287.842239 98.353674 
L 289.81564 96.203297 
L 291.789041 94.052921 
L 293.762442 91.902544 
L 295.735843 89.752167 
L 297.709245 87.60179 
L 299.682646 85.451413 
L 301.656047 83.301036 
L 303.629448 81.15066 
L 305.60285 79.000283 
L 307.576251 76.849906 
" clip-path="url(#p96ed792116)" style="fill: none; stroke: #808080; stroke-width: 2.25; stroke-linecap: round"/>
   </g>
   <g id="patch_3">
    <path d="M 45 320.4 
L 45 43.2 
" style="fill: none; stroke: #262626; stroke-width: 2; stroke-linejoin: miter; stroke-linecap: square"/>
   </g>
   <g id="patch_4">
    <path d="M 45 320.4 
L 324 320.4 
" style="fill: none; stroke: #262626; stroke-width: 2; stroke-linejoin: miter; stroke-linecap: square"/>
   </g>
   <g id="text_14">
    <text style="fill: #262626; font: 16.8px 'sans-serif'; text-anchor: middle" x="184.5" y="37.2" transform="rotate(-0, 184.5, 37.2)">SigF PDZ Enrichment: 2</text>
   </g>
   <g id="legend_1">
    <g id="line2d_13">
     <path d="M 155.146875 61.537812 
L 169.146875 61.537812 
L 183.146875 61.537812 
" style="fill: none; stroke: #808080; stroke-width: 2.25; stroke-linecap: round"/>
    </g>
    <g id="text_15">
     <text style="fill: #262626; font: 14px 'sans-serif'; text-anchor: start" x="194.346875" y="66.437812" transform="rotate(-0, 194.346875, 66.437812)">Pearson's r: 0.83</text>
    </g>
   </g>
  </g>
 </g>
 <defs>
  <clipPath id="p96ed792116">
   <rect x="45" y="43.2" width="279" height="277.2"/>
  </clipPath>
 </defs>
</svg>
