<?xml version="1.0" encoding="utf-8" standalone="no"?>
<!DOCTYPE svg PUBLIC "-//W3C//DTD SVG 1.1//EN"
  "http://www.w3.org/Graphics/SVG/1.1/DTD/svg11.dtd">
<!-- Created with matplotlib (https://matplotlib.org/) -->
<svg height="360pt" version="1.1" viewBox="0 0 360 360" width="360pt" xmlns="http://www.w3.org/2000/svg" xmlns:xlink="http://www.w3.org/1999/xlink">
 <defs>
  <style type="text/css">
*{stroke-linecap:butt;stroke-linejoin:round;}
  </style>
 </defs>
 <g id="figure_1">
  <g id="patch_1">
   <path d="M 0 360 
L 360 360 
L 360 0 
L 0 0 
z
" style="fill:#ffffff;"/>
  </g>
  <g id="axes_1">
   <g id="patch_2">
    <path d="M 45 315 
L 324 315 
L 324 43.2 
L 45 43.2 
z
" style="fill:#ffffff;"/>
   </g>
   <g id="matplotlib.axis_1">
    <g id="xtick_1">
     <g id="line2d_1">
      <defs>
       <path d="M 0 0 
L 0 6 
" id="m76a861fca2" style="stroke:#262626;stroke-width:2;"/>
      </defs>
      <g>
       <use style="fill:#262626;stroke:#262626;stroke-width:2;" x="74.100709" xlink:href="#m76a861fca2" y="315"/>
      </g>
     </g>
     <g id="text_1">
      <text style="fill:#262626;font-family:Droid Sans;font-size:11px;font-style:normal;font-weight:normal;text-anchor:middle;" transform="rotate(-0, 74.100709, 332.858281)" x="74.100709" y="332.858281">−10.0</text>
     </g>
    </g>
    <g id="xtick_2">
     <g id="line2d_2">
      <g>
       <use style="fill:#262626;stroke:#262626;stroke-width:2;" x="115.336542" xlink:href="#m76a861fca2" y="315"/>
      </g>
     </g>
     <g id="text_2">
      <text style="fill:#262626;font-family:Droid Sans;font-size:11px;font-style:normal;font-weight:normal;text-anchor:middle;" transform="rotate(-0, 115.336542, 332.858281)" x="115.336542" y="332.858281">−7.5</text>
     </g>
    </g>
    <g id="xtick_3">
     <g id="line2d_3">
      <g>
       <use style="fill:#262626;stroke:#262626;stroke-width:2;" x="156.572375" xlink:href="#m76a861fca2" y="315"/>
      </g>
     </g>
     <g id="text_3">
      <text style="fill:#262626;font-family:Droid Sans;font-size:11px;font-style:normal;font-weight:normal;text-anchor:middle;" transform="rotate(-0, 156.572375, 332.858281)" x="156.572375" y="332.858281">−5.0</text>
     </g>
    </g>
    <g id="xtick_4">
     <g id="line2d_4">
      <g>
       <use style="fill:#262626;stroke:#262626;stroke-width:2;" x="197.808207" xlink:href="#m76a861fca2" y="315"/>
      </g>
     </g>
     <g id="text_4">
      <text style="fill:#262626;font-family:Droid Sans;font-size:11px;font-style:normal;font-weight:normal;text-anchor:middle;" transform="rotate(-0, 197.808207, 332.858281)" x="197.808207" y="332.858281">−2.5</text>
     </g>
    </g>
    <g id="xtick_5">
     <g id="line2d_5">
      <g>
       <use style="fill:#262626;stroke:#262626;stroke-width:2;" x="239.04404" xlink:href="#m76a861fca2" y="315"/>
      </g>
     </g>
     <g id="text_5">
      <text style="fill:#262626;font-family:Droid Sans;font-size:11px;font-style:normal;font-weight:normal;text-anchor:middle;" transform="rotate(-0, 239.04404, 332.858281)" x="239.04404" y="332.858281">0.0</text>
     </g>
    </g>
    <g id="xtick_6">
     <g id="line2d_6">
      <g>
       <use style="fill:#262626;stroke:#262626;stroke-width:2;" x="280.279872" xlink:href="#m76a861fca2" y="315"/>
      </g>
     </g>
     <g id="text_6">
      <text style="fill:#262626;font-family:Droid Sans;font-size:11px;font-style:normal;font-weight:normal;text-anchor:middle;" transform="rotate(-0, 280.279872, 332.858281)" x="280.279872" y="332.858281">2.5</text>
     </g>
    </g>
    <g id="xtick_7">
     <g id="line2d_7">
      <g>
       <use style="fill:#262626;stroke:#262626;stroke-width:2;" x="321.515705" xlink:href="#m76a861fca2" y="315"/>
      </g>
     </g>
     <g id="text_7">
      <text style="fill:#262626;font-family:Droid Sans;font-size:11px;font-style:normal;font-weight:normal;text-anchor:middle;" transform="rotate(-0, 321.515705, 332.858281)" x="321.515705" y="332.858281">5.0</text>
     </g>
    </g>
    <g id="text_8">
     <text style="fill:#262626;font-family:Droid Sans;font-size:12px;font-style:normal;font-weight:normal;text-anchor:middle;" transform="rotate(-0, 184.5, 348.619844)" x="184.5" y="348.619844">Rep-2 log2 enriched read counts</text>
    </g>
   </g>
   <g id="matplotlib.axis_2">
    <g id="ytick_1">
     <g id="line2d_8">
      <defs>
       <path d="M 0 0 
L -6 0 
" id="mfa80cc5f27" style="stroke:#262626;stroke-width:2;"/>
      </defs>
      <g>
       <use style="fill:#262626;stroke:#262626;stroke-width:2;" x="45" xlink:href="#mfa80cc5f27" y="286.650277"/>
      </g>
     </g>
     <g id="text_9">
      <text style="fill:#262626;font-family:Droid Sans;font-size:11px;font-style:normal;font-weight:normal;text-anchor:end;" transform="rotate(-0, 35.5, 290.829417)" x="35.5" y="290.829417">−10</text>
     </g>
    </g>
    <g id="ytick_2">
     <g id="line2d_9">
      <g>
       <use style="fill:#262626;stroke:#262626;stroke-width:2;" x="45" xlink:href="#mfa80cc5f27" y="254.512931"/>
      </g>
     </g>
     <g id="text_10">
      <text style="fill:#262626;font-family:Droid Sans;font-size:11px;font-style:normal;font-weight:normal;text-anchor:end;" transform="rotate(-0, 35.5, 258.692072)" x="35.5" y="258.692072">−8</text>
     </g>
    </g>
    <g id="ytick_3">
     <g id="line2d_10">
      <g>
       <use style="fill:#262626;stroke:#262626;stroke-width:2;" x="45" xlink:href="#mfa80cc5f27" y="222.375585"/>
      </g>
     </g>
     <g id="text_11">
      <text style="fill:#262626;font-family:Droid Sans;font-size:11px;font-style:normal;font-weight:normal;text-anchor:end;" transform="rotate(-0, 35.5, 226.554726)" x="35.5" y="226.554726">−6</text>
     </g>
    </g>
    <g id="ytick_4">
     <g id="line2d_11">
      <g>
       <use style="fill:#262626;stroke:#262626;stroke-width:2;" x="45" xlink:href="#mfa80cc5f27" y="190.23824"/>
      </g>
     </g>
     <g id="text_12">
      <text style="fill:#262626;font-family:Droid Sans;font-size:11px;font-style:normal;font-weight:normal;text-anchor:end;" transform="rotate(-0, 35.5, 194.41738)" x="35.5" y="194.41738">−4</text>
     </g>
    </g>
    <g id="ytick_5">
     <g id="line2d_12">
      <g>
       <use style="fill:#262626;stroke:#262626;stroke-width:2;" x="45" xlink:href="#mfa80cc5f27" y="158.100894"/>
      </g>
     </g>
     <g id="text_13">
      <text style="fill:#262626;font-family:Droid Sans;font-size:11px;font-style:normal;font-weight:normal;text-anchor:end;" transform="rotate(-0, 35.5, 162.280035)" x="35.5" y="162.280035">−2</text>
     </g>
    </g>
    <g id="ytick_6">
     <g id="line2d_13">
      <g>
       <use style="fill:#262626;stroke:#262626;stroke-width:2;" x="45" xlink:href="#mfa80cc5f27" y="125.963548"/>
      </g>
     </g>
     <g id="text_14">
      <text style="fill:#262626;font-family:Droid Sans;font-size:11px;font-style:normal;font-weight:normal;text-anchor:end;" transform="rotate(-0, 35.5, 130.142689)" x="35.5" y="130.142689">0</text>
     </g>
    </g>
    <g id="ytick_7">
     <g id="line2d_14">
      <g>
       <use style="fill:#262626;stroke:#262626;stroke-width:2;" x="45" xlink:href="#mfa80cc5f27" y="93.826203"/>
      </g>
     </g>
     <g id="text_15">
      <text style="fill:#262626;font-family:Droid Sans;font-size:11px;font-style:normal;font-weight:normal;text-anchor:end;" transform="rotate(-0, 35.5, 98.005343)" x="35.5" y="98.005343">2</text>
     </g>
    </g>
    <g id="ytick_8">
     <g id="line2d_15">
      <g>
       <use style="fill:#262626;stroke:#262626;stroke-width:2;" x="45" xlink:href="#mfa80cc5f27" y="61.688857"/>
      </g>
     </g>
     <g id="text_16">
      <text style="fill:#262626;font-family:Droid Sans;font-size:11px;font-style:normal;font-weight:normal;text-anchor:end;" transform="rotate(-0, 35.5, 65.867998)" x="35.5" y="65.867998">4</text>
     </g>
    </g>
    <g id="text_17">
     <text style="fill:#262626;font-family:Droid Sans;font-size:12px;font-style:normal;font-weight:normal;text-anchor:middle;" transform="rotate(-90, 10.440469, 179.1)" x="10.440469" y="179.1">Rep-1 log2 enriched read counts</text>
    </g>
   </g>
   <g id="PathCollection_1">
    <defs>
     <path d="M 0 3 
C 0.795609 3 1.55874 2.683901 2.12132 2.12132 
C 2.683901 1.55874 3 0.795609 3 0 
C 3 -0.795609 2.683901 -1.55874 2.12132 -2.12132 
C 1.55874 -2.683901 0.795609 -3 0 -3 
C -0.795609 -3 -1.55874 -2.683901 -2.12132 -2.12132 
C -2.683901 -1.55874 -3 -0.795609 -3 0 
C -3 0.795609 -2.683901 1.55874 -2.12132 2.12132 
C -1.55874 2.683901 -0.795609 3 0 3 
z
" id="m000015c88e"/>
    </defs>
    <g clip-path="url(#pd0c63325b7)">
     <use style="fill:#808080;fill-opacity:0.4;" x="207.600304" xlink:href="#m000015c88e" y="165.657011"/>
     <use style="fill:#808080;fill-opacity:0.4;" x="224.094637" xlink:href="#m000015c88e" y="146.014787"/>
     <use style="fill:#808080;fill-opacity:0.4;" x="209.136081" xlink:href="#m000015c88e" y="161.145949"/>
     <use style="fill:#808080;fill-opacity:0.4;" x="201.12929" xlink:href="#m000015c88e" y="222.897519"/>
     <use style="fill:#808080;fill-opacity:0.4;" x="197.951737" xlink:href="#m000015c88e" y="175.056582"/>
     <use style="fill:#808080;fill-opacity:0.4;" x="226.165185" xlink:href="#m000015c88e" y="168.38748"/>
     <use style="fill:#808080;fill-opacity:0.4;" x="212.541351" xlink:href="#m000015c88e" y="197.728404"/>
     <use style="fill:#808080;fill-opacity:0.4;" x="233.515486" xlink:href="#m000015c88e" y="142.052511"/>
     <use style="fill:#808080;fill-opacity:0.4;" x="242.352465" xlink:href="#m000015c88e" y="165.070088"/>
     <use style="fill:#808080;fill-opacity:0.4;" x="217.749863" xlink:href="#m000015c88e" y="209.436332"/>
     <use style="fill:#808080;fill-opacity:0.4;" x="216.95326" xlink:href="#m000015c88e" y="183.613071"/>
     <use style="fill:#808080;fill-opacity:0.4;" x="193.176519" xlink:href="#m000015c88e" y="209.714601"/>
     <use style="fill:#808080;fill-opacity:0.4;" x="196.980325" xlink:href="#m000015c88e" y="202.796226"/>
     <use style="fill:#808080;fill-opacity:0.4;" x="202.03671" xlink:href="#m000015c88e" y="199.172479"/>
     <use style="fill:#808080;fill-opacity:0.4;" x="158.492057" xlink:href="#m000015c88e" y="209.378908"/>
     <use style="fill:#808080;fill-opacity:0.4;" x="182.701199" xlink:href="#m000015c88e" y="184.343344"/>
     <use style="fill:#808080;fill-opacity:0.4;" x="213.886132" xlink:href="#m000015c88e" y="205.968923"/>
     <use style="fill:#808080;fill-opacity:0.4;" x="178.217963" xlink:href="#m000015c88e" y="256.1133"/>
     <use style="fill:#808080;fill-opacity:0.4;" x="182.618429" xlink:href="#m000015c88e" y="211.420541"/>
     <use style="fill:#808080;fill-opacity:0.4;" x="191.816361" xlink:href="#m000015c88e" y="185.351329"/>
     <use style="fill:#808080;fill-opacity:0.4;" x="179.81563" xlink:href="#m000015c88e" y="193.472538"/>
     <use style="fill:#808080;fill-opacity:0.4;" x="194.953885" xlink:href="#m000015c88e" y="204.770371"/>
     <use style="fill:#808080;fill-opacity:0.4;" x="200.203247" xlink:href="#m000015c88e" y="198.984482"/>
     <use style="fill:#808080;fill-opacity:0.4;" x="163.754878" xlink:href="#m000015c88e" y="209.695999"/>
     <use style="fill:#808080;fill-opacity:0.4;" x="214.32619" xlink:href="#m000015c88e" y="190.701999"/>
     <use style="fill:#808080;fill-opacity:0.4;" x="206.392111" xlink:href="#m000015c88e" y="202.189904"/>
     <use style="fill:#808080;fill-opacity:0.4;" x="193.530677" xlink:href="#m000015c88e" y="231.489129"/>
     <use style="fill:#808080;fill-opacity:0.4;" x="183.137841" xlink:href="#m000015c88e" y="184.456153"/>
     <use style="fill:#808080;fill-opacity:0.4;" x="187.86653" xlink:href="#m000015c88e" y="189.280499"/>
     <use style="fill:#808080;fill-opacity:0.4;" x="193.766192" xlink:href="#m000015c88e" y="214.001928"/>
     <use style="fill:#808080;fill-opacity:0.4;" x="140.532874" xlink:href="#m000015c88e" y="198.221153"/>
     <use style="fill:#808080;fill-opacity:0.4;" x="178.654605" xlink:href="#m000015c88e" y="216.121339"/>
     <use style="fill:#808080;fill-opacity:0.4;" x="216.720297" xlink:href="#m000015c88e" y="184.656288"/>
     <use style="fill:#808080;fill-opacity:0.4;" x="203.006046" xlink:href="#m000015c88e" y="197.696251"/>
     <use style="fill:#808080;fill-opacity:0.4;" x="203.456513" xlink:href="#m000015c88e" y="192.922086"/>
     <use style="fill:#808080;fill-opacity:0.4;" x="202.378613" xlink:href="#m000015c88e" y="195.646745"/>
     <use style="fill:#808080;fill-opacity:0.4;" x="178.266085" xlink:href="#m000015c88e" y="196.329518"/>
     <use style="fill:#808080;fill-opacity:0.4;" x="207.668003" xlink:href="#m000015c88e" y="189.366419"/>
     <use style="fill:#808080;fill-opacity:0.4;" x="155.535868" xlink:href="#m000015c88e" y="215.534767"/>
     <use style="fill:#808080;fill-opacity:0.4;" x="175.148823" xlink:href="#m000015c88e" y="188.493007"/>
     <use style="fill:#808080;fill-opacity:0.4;" x="190.737029" xlink:href="#m000015c88e" y="242.421163"/>
     <use style="fill:#808080;fill-opacity:0.4;" x="182.29835" xlink:href="#m000015c88e" y="218.504723"/>
     <use style="fill:#808080;fill-opacity:0.4;" x="174.718109" xlink:href="#m000015c88e" y="218.20776"/>
     <use style="fill:#808080;fill-opacity:0.4;" x="183.197443" xlink:href="#m000015c88e" y="184.138583"/>
     <use style="fill:#808080;fill-opacity:0.4;" x="222.578437" xlink:href="#m000015c88e" y="187.186622"/>
     <use style="fill:#808080;fill-opacity:0.4;" x="186.09531" xlink:href="#m000015c88e" y="201.422313"/>
     <use style="fill:#808080;fill-opacity:0.4;" x="181.175788" xlink:href="#m000015c88e" y="176.461993"/>
     <use style="fill:#808080;fill-opacity:0.4;" x="151.252954" xlink:href="#m000015c88e" y="235.122763"/>
     <use style="fill:#808080;fill-opacity:0.4;" x="168.908312" xlink:href="#m000015c88e" y="218.57609"/>
     <use style="fill:#808080;fill-opacity:0.4;" x="188.004594" xlink:href="#m000015c88e" y="191.183138"/>
     <use style="fill:#808080;fill-opacity:0.4;" x="193.654509" xlink:href="#m000015c88e" y="193.75515"/>
     <use style="fill:#808080;fill-opacity:0.4;" x="186.947093" xlink:href="#m000015c88e" y="212.120382"/>
     <use style="fill:#808080;fill-opacity:0.4;" x="182.677995" xlink:href="#m000015c88e" y="192.474248"/>
     <use style="fill:#808080;fill-opacity:0.4;" x="145.373956" xlink:href="#m000015c88e" y="202.286346"/>
     <use style="fill:#808080;fill-opacity:0.4;" x="180.934388" xlink:href="#m000015c88e" y="233.692661"/>
     <use style="fill:#808080;fill-opacity:0.4;" x="201.094976" xlink:href="#m000015c88e" y="201.271608"/>
     <use style="fill:#808080;fill-opacity:0.4;" x="192.641748" xlink:href="#m000015c88e" y="196.865042"/>
     <use style="fill:#808080;fill-opacity:0.4;" x="181.391395" xlink:href="#m000015c88e" y="222.483824"/>
     <use style="fill:#808080;fill-opacity:0.4;" x="172.394365" xlink:href="#m000015c88e" y="214.769685"/>
     <use style="fill:#808080;fill-opacity:0.4;" x="191.28159" xlink:href="#m000015c88e" y="236.992047"/>
     <use style="fill:#808080;fill-opacity:0.4;" x="185.291448" xlink:href="#m000015c88e" y="208.816504"/>
     <use style="fill:#808080;fill-opacity:0.4;" x="197.299743" xlink:href="#m000015c88e" y="202.94412"/>
     <use style="fill:#808080;fill-opacity:0.4;" x="197.192794" xlink:href="#m000015c88e" y="201.917246"/>
     <use style="fill:#808080;fill-opacity:0.4;" x="178.508166" xlink:href="#m000015c88e" y="211.851182"/>
     <use style="fill:#808080;fill-opacity:0.4;" x="220.119369" xlink:href="#m000015c88e" y="204.397506"/>
     <use style="fill:#808080;fill-opacity:0.4;" x="194.041934" xlink:href="#m000015c88e" y="237.602139"/>
     <use style="fill:#808080;fill-opacity:0.4;" x="196.551552" xlink:href="#m000015c88e" y="192.256317"/>
     <use style="fill:#808080;fill-opacity:0.4;" x="208.202774" xlink:href="#m000015c88e" y="218.449064"/>
     <use style="fill:#808080;fill-opacity:0.4;" x="176.954146" xlink:href="#m000015c88e" y="233.475665"/>
     <use style="fill:#808080;fill-opacity:0.4;" x="197.171461" xlink:href="#m000015c88e" y="174.320577"/>
     <use style="fill:#808080;fill-opacity:0.4;" x="202.771064" xlink:href="#m000015c88e" y="201.989451"/>
     <use style="fill:#808080;fill-opacity:0.4;" x="190.684786" xlink:href="#m000015c88e" y="212.502851"/>
     <use style="fill:#808080;fill-opacity:0.4;" x="188.083849" xlink:href="#m000015c88e" y="194.722449"/>
     <use style="fill:#808080;fill-opacity:0.4;" x="145.887301" xlink:href="#m000015c88e" y="221.125432"/>
     <use style="fill:#808080;fill-opacity:0.4;" x="215.379378" xlink:href="#m000015c88e" y="217.539842"/>
     <use style="fill:#808080;fill-opacity:0.4;" x="197.349267" xlink:href="#m000015c88e" y="217.782589"/>
     <use style="fill:#808080;fill-opacity:0.4;" x="196.251279" xlink:href="#m000015c88e" y="210.327575"/>
     <use style="fill:#808080;fill-opacity:0.4;" x="175.367139" xlink:href="#m000015c88e" y="199.788821"/>
     <use style="fill:#808080;fill-opacity:0.4;" x="169.904118" xlink:href="#m000015c88e" y="209.924396"/>
     <use style="fill:#808080;fill-opacity:0.4;" x="214.80938" xlink:href="#m000015c88e" y="191.484675"/>
     <use style="fill:#808080;fill-opacity:0.4;" x="171.156844" xlink:href="#m000015c88e" y="203.890463"/>
     <use style="fill:#808080;fill-opacity:0.4;" x="202.290315" xlink:href="#m000015c88e" y="247.234699"/>
     <use style="fill:#808080;fill-opacity:0.4;" x="150.270399" xlink:href="#m000015c88e" y="246.975678"/>
     <use style="fill:#808080;fill-opacity:0.4;" x="211.245995" xlink:href="#m000015c88e" y="217.693877"/>
     <use style="fill:#808080;fill-opacity:0.4;" x="158.303943" xlink:href="#m000015c88e" y="202.62506"/>
     <use style="fill:#808080;fill-opacity:0.4;" x="186.311445" xlink:href="#m000015c88e" y="205.195622"/>
     <use style="fill:#808080;fill-opacity:0.4;" x="146.110742" xlink:href="#m000015c88e" y="209.924396"/>
     <use style="fill:#808080;fill-opacity:0.4;" x="164.265183" xlink:href="#m000015c88e" y="199.349138"/>
     <use style="fill:#808080;fill-opacity:0.4;" x="195.786946" xlink:href="#m000015c88e" y="212.591956"/>
     <use style="fill:#808080;fill-opacity:0.4;" x="165.718573" xlink:href="#m000015c88e" y="298.931327"/>
     <use style="fill:#808080;fill-opacity:0.4;" x="155.900032" xlink:href="#m000015c88e" y="214.769685"/>
     <use style="fill:#808080;fill-opacity:0.4;" x="162.982204" xlink:href="#m000015c88e" y="218.523247"/>
     <use style="fill:#808080;fill-opacity:0.4;" x="125.78838" xlink:href="#m000015c88e" y="214.545371"/>
     <use style="fill:#808080;fill-opacity:0.4;" x="156.5583" xlink:href="#m000015c88e" y="209.365762"/>
     <use style="fill:#808080;fill-opacity:0.4;" x="170.522239" xlink:href="#m000015c88e" y="214.831978"/>
     <use style="fill:#808080;fill-opacity:0.4;" x="179.719677" xlink:href="#m000015c88e" y="223.813272"/>
     <use style="fill:#808080;fill-opacity:0.4;" x="131.483743" xlink:href="#m000015c88e" y="221.298112"/>
     <use style="fill:#808080;fill-opacity:0.4;" x="189.25515" xlink:href="#m000015c88e" y="229.56662"/>
     <use style="fill:#808080;fill-opacity:0.4;" x="171.049894" xlink:href="#m000015c88e" y="196.96613"/>
     <use style="fill:#808080;fill-opacity:0.4;" x="162.160272" xlink:href="#m000015c88e" y="225.993069"/>
     <use style="fill:#808080;fill-opacity:0.4;" x="174.334396" xlink:href="#m000015c88e" y="236.027809"/>
     <use style="fill:#808080;fill-opacity:0.4;" x="145.776363" xlink:href="#m000015c88e" y="201.292155"/>
     <use style="fill:#808080;fill-opacity:0.4;" x="172.821599" xlink:href="#m000015c88e" y="220.77983"/>
     <use style="fill:#808080;fill-opacity:0.4;" x="130.184367" xlink:href="#m000015c88e" y="207.082206"/>
     <use style="fill:#808080;fill-opacity:0.4;" x="200.79832" xlink:href="#m000015c88e" y="223.219947"/>
     <use style="fill:#808080;fill-opacity:0.4;" x="168.714056" xlink:href="#m000015c88e" y="198.887755"/>
     <use style="fill:#808080;fill-opacity:0.4;" x="188.040226" xlink:href="#m000015c88e" y="242.838872"/>
     <use style="fill:#808080;fill-opacity:0.4;" x="124.396387" xlink:href="#m000015c88e" y="252.539749"/>
     <use style="fill:#808080;fill-opacity:0.4;" x="195.060966" xlink:href="#m000015c88e" y="197.557946"/>
     <use style="fill:#808080;fill-opacity:0.4;" x="179.249543" xlink:href="#m000015c88e" y="253.612197"/>
     <use style="fill:#808080;fill-opacity:0.4;" x="132.223583" xlink:href="#m000015c88e" y="228.845872"/>
     <use style="fill:#808080;fill-opacity:0.4;" x="161.013241" xlink:href="#m000015c88e" y="231.858084"/>
     <use style="fill:#808080;fill-opacity:0.4;" x="158.872806" xlink:href="#m000015c88e" y="199.4294"/>
     <use style="fill:#808080;fill-opacity:0.4;" x="170.522239" xlink:href="#m000015c88e" y="268.783383"/>
     <use style="fill:#808080;fill-opacity:0.4;" x="171.677002" xlink:href="#m000015c88e" y="177.532299"/>
     <use style="fill:#808080;fill-opacity:0.4;" x="181.129174" xlink:href="#m000015c88e" y="248.207522"/>
     <use style="fill:#808080;fill-opacity:0.4;" x="179.667366" xlink:href="#m000015c88e" y="199.5382"/>
     <use style="fill:#808080;fill-opacity:0.4;" x="185.795982" xlink:href="#m000015c88e" y="186.898641"/>
     <use style="fill:#808080;fill-opacity:0.4;" x="187.437756" xlink:href="#m000015c88e" y="198.165279"/>
     <use style="fill:#808080;fill-opacity:0.4;" x="202.290315" xlink:href="#m000015c88e" y="225.993069"/>
     <use style="fill:#808080;fill-opacity:0.4;" x="183.924567" xlink:href="#m000015c88e" y="203.648223"/>
     <use style="fill:#808080;fill-opacity:0.4;" x="163.872974" xlink:href="#m000015c88e" y="208.255893"/>
     <use style="fill:#808080;fill-opacity:0.4;" x="143.659742" xlink:href="#m000015c88e" y="188.194702"/>
     <use style="fill:#808080;fill-opacity:0.4;" x="128.094667" xlink:href="#m000015c88e" y="200.320576"/>
     <use style="fill:#808080;fill-opacity:0.4;" x="202.771064" xlink:href="#m000015c88e" y="194.333724"/>
     <use style="fill:#808080;fill-opacity:0.4;" x="178.131588" xlink:href="#m000015c88e" y="216.93193"/>
     <use style="fill:#808080;fill-opacity:0.4;" x="182.212906" xlink:href="#m000015c88e" y="197.933255"/>
     <use style="fill:#808080;fill-opacity:0.4;" x="161.61571" xlink:href="#m000015c88e" y="207.439988"/>
     <use style="fill:#808080;fill-opacity:0.4;" x="142.571157" xlink:href="#m000015c88e" y="222.338884"/>
     <use style="fill:#808080;fill-opacity:0.4;" x="176.592219" xlink:href="#m000015c88e" y="205.697783"/>
     <use style="fill:#808080;fill-opacity:0.4;" x="195.325863" xlink:href="#m000015c88e" y="227.055035"/>
     <use style="fill:#808080;fill-opacity:0.4;" x="166.604846" xlink:href="#m000015c88e" y="228.161209"/>
     <use style="fill:#808080;fill-opacity:0.4;" x="207.289237" xlink:href="#m000015c88e" y="214.576384"/>
     <use style="fill:#808080;fill-opacity:0.4;" x="160.053029" xlink:href="#m000015c88e" y="220.123433"/>
     <use style="fill:#808080;fill-opacity:0.4;" x="170.731899" xlink:href="#m000015c88e" y="207.399993"/>
     <use style="fill:#808080;fill-opacity:0.4;" x="182.212906" xlink:href="#m000015c88e" y="189.135853"/>
     <use style="fill:#808080;fill-opacity:0.4;" x="199.753398" xlink:href="#m000015c88e" y="195.613817"/>
     <use style="fill:#808080;fill-opacity:0.4;" x="185.677297" xlink:href="#m000015c88e" y="211.722367"/>
     <use style="fill:#808080;fill-opacity:0.4;" x="203.000704" xlink:href="#m000015c88e" y="213.080239"/>
     <use style="fill:#808080;fill-opacity:0.4;" x="194.142298" xlink:href="#m000015c88e" y="176.912147"/>
     <use style="fill:#808080;fill-opacity:0.4;" x="193.766192" xlink:href="#m000015c88e" y="183.479916"/>
     <use style="fill:#808080;fill-opacity:0.4;" x="165.295892" xlink:href="#m000015c88e" y="176.984819"/>
     <use style="fill:#808080;fill-opacity:0.4;" x="196.790712" xlink:href="#m000015c88e" y="214.15101"/>
     <use style="fill:#808080;fill-opacity:0.4;" x="154.343093" xlink:href="#m000015c88e" y="196.819182"/>
     <use style="fill:#808080;fill-opacity:0.4;" x="163.211383" xlink:href="#m000015c88e" y="208.057329"/>
     <use style="fill:#808080;fill-opacity:0.4;" x="200.14988" xlink:href="#m000015c88e" y="191.714307"/>
     <use style="fill:#808080;fill-opacity:0.4;" x="147.026097" xlink:href="#m000015c88e" y="186.104312"/>
     <use style="fill:#808080;fill-opacity:0.4;" x="178.217963" xlink:href="#m000015c88e" y="219.749341"/>
     <use style="fill:#808080;fill-opacity:0.4;" x="207.600304" xlink:href="#m000015c88e" y="196.951274"/>
     <use style="fill:#808080;fill-opacity:0.4;" x="192.444268" xlink:href="#m000015c88e" y="168.38748"/>
     <use style="fill:#808080;fill-opacity:0.4;" x="183.527953" xlink:href="#m000015c88e" y="206.776219"/>
     <use style="fill:#808080;fill-opacity:0.4;" x="182.767623" xlink:href="#m000015c88e" y="215.317092"/>
     <use style="fill:#808080;fill-opacity:0.4;" x="189.315932" xlink:href="#m000015c88e" y="213.164385"/>
     <use style="fill:#808080;fill-opacity:0.4;" x="164.472409" xlink:href="#m000015c88e" y="167.009914"/>
     <use style="fill:#808080;fill-opacity:0.4;" x="214.890874" xlink:href="#m000015c88e" y="154.375719"/>
     <use style="fill:#808080;fill-opacity:0.4;" x="198.52517" xlink:href="#m000015c88e" y="193.29709"/>
     <use style="fill:#808080;fill-opacity:0.4;" x="174.365042" xlink:href="#m000015c88e" y="158.436863"/>
     <use style="fill:#808080;fill-opacity:0.4;" x="213.611027" xlink:href="#m000015c88e" y="179.876951"/>
     <use style="fill:#808080;fill-opacity:0.4;" x="172.859949" xlink:href="#m000015c88e" y="188.893105"/>
     <use style="fill:#808080;fill-opacity:0.4;" x="167.111006" xlink:href="#m000015c88e" y="175.182778"/>
     <use style="fill:#808080;fill-opacity:0.4;" x="181.386687" xlink:href="#m000015c88e" y="204.820331"/>
     <use style="fill:#808080;fill-opacity:0.4;" x="165.975832" xlink:href="#m000015c88e" y="242.793102"/>
     <use style="fill:#808080;fill-opacity:0.4;" x="163.637365" xlink:href="#m000015c88e" y="194.085252"/>
     <use style="fill:#808080;fill-opacity:0.4;" x="178.178663" xlink:href="#m000015c88e" y="230.265634"/>
     <use style="fill:#808080;fill-opacity:0.4;" x="177.487585" xlink:href="#m000015c88e" y="195.740504"/>
     <use style="fill:#808080;fill-opacity:0.4;" x="207.600304" xlink:href="#m000015c88e" y="286.041147"/>
     <use style="fill:#808080;fill-opacity:0.4;" x="162.160272" xlink:href="#m000015c88e" y="224.336494"/>
     <use style="fill:#808080;fill-opacity:0.4;" x="161.294857" xlink:href="#m000015c88e" y="268.373068"/>
     <use style="fill:#808080;fill-opacity:0.4;" x="183.332097" xlink:href="#m000015c88e" y="181.767948"/>
     <use style="fill:#808080;fill-opacity:0.4;" x="161.72363" xlink:href="#m000015c88e" y="216.17579"/>
     <use style="fill:#808080;fill-opacity:0.4;" x="175.282" xlink:href="#m000015c88e" y="208.32499"/>
     <use style="fill:#808080;fill-opacity:0.4;" x="178.654605" xlink:href="#m000015c88e" y="176.130475"/>
     <use style="fill:#808080;fill-opacity:0.4;" x="158.567721" xlink:href="#m000015c88e" y="220.614308"/>
     <use style="fill:#808080;fill-opacity:0.4;" x="189.093818" xlink:href="#m000015c88e" y="213.109627"/>
     <use style="fill:#808080;fill-opacity:0.4;" x="171.264277" xlink:href="#m000015c88e" y="175.58709"/>
     <use style="fill:#808080;fill-opacity:0.4;" x="143.829112" xlink:href="#m000015c88e" y="190.644551"/>
     <use style="fill:#808080;fill-opacity:0.4;" x="176.034368" xlink:href="#m000015c88e" y="201.766018"/>
     <use style="fill:#808080;fill-opacity:0.4;" x="219.104066" xlink:href="#m000015c88e" y="167.266364"/>
     <use style="fill:#808080;fill-opacity:0.4;" x="168.521372" xlink:href="#m000015c88e" y="202.070878"/>
     <use style="fill:#808080;fill-opacity:0.4;" x="141.685022" xlink:href="#m000015c88e" y="239.270824"/>
     <use style="fill:#808080;fill-opacity:0.4;" x="144.483939" xlink:href="#m000015c88e" y="209.822497"/>
     <use style="fill:#808080;fill-opacity:0.4;" x="118.5164" xlink:href="#m000015c88e" y="183.647389"/>
     <use style="fill:#808080;fill-opacity:0.4;" x="160.596968" xlink:href="#m000015c88e" y="224.313402"/>
     <use style="fill:#808080;fill-opacity:0.4;" x="188.837942" xlink:href="#m000015c88e" y="175.056582"/>
     <use style="fill:#808080;fill-opacity:0.4;" x="186.25806" xlink:href="#m000015c88e" y="175.33093"/>
     <use style="fill:#808080;fill-opacity:0.4;" x="179.412293" xlink:href="#m000015c88e" y="177.804103"/>
     <use style="fill:#808080;fill-opacity:0.4;" x="115.253929" xlink:href="#m000015c88e" y="186.215575"/>
     <use style="fill:#808080;fill-opacity:0.4;" x="190.270927" xlink:href="#m000015c88e" y="135.17624"/>
     <use style="fill:#808080;fill-opacity:0.4;" x="246.009383" xlink:href="#m000015c88e" y="104.431706"/>
     <use style="fill:#808080;fill-opacity:0.4;" x="160.528292" xlink:href="#m000015c88e" y="182.107384"/>
     <use style="fill:#808080;fill-opacity:0.4;" x="281.456518" xlink:href="#m000015c88e" y="94.390237"/>
     <use style="fill:#808080;fill-opacity:0.4;" x="298.988284" xlink:href="#m000015c88e" y="59.268673"/>
     <use style="fill:#808080;fill-opacity:0.4;" x="288.066102" xlink:href="#m000015c88e" y="74.991806"/>
     <use style="fill:#808080;fill-opacity:0.4;" x="296.145264" xlink:href="#m000015c88e" y="70.246453"/>
     <use style="fill:#808080;fill-opacity:0.4;" x="289.212371" xlink:href="#m000015c88e" y="68.459345"/>
     <use style="fill:#808080;fill-opacity:0.4;" x="279.173668" xlink:href="#m000015c88e" y="78.458844"/>
     <use style="fill:#808080;fill-opacity:0.4;" x="284.772306" xlink:href="#m000015c88e" y="82.01773"/>
     <use style="fill:#808080;fill-opacity:0.4;" x="280.096214" xlink:href="#m000015c88e" y="79.30735"/>
     <use style="fill:#808080;fill-opacity:0.4;" x="293.042054" xlink:href="#m000015c88e" y="74.765821"/>
     <use style="fill:#808080;fill-opacity:0.4;" x="288.536191" xlink:href="#m000015c88e" y="80.013799"/>
     <use style="fill:#808080;fill-opacity:0.4;" x="282.422109" xlink:href="#m000015c88e" y="80.717632"/>
     <use style="fill:#808080;fill-opacity:0.4;" x="279.740896" xlink:href="#m000015c88e" y="81.589455"/>
     <use style="fill:#808080;fill-opacity:0.4;" x="288.322422" xlink:href="#m000015c88e" y="87.285828"/>
     <use style="fill:#808080;fill-opacity:0.4;" x="290.913228" xlink:href="#m000015c88e" y="84.341559"/>
     <use style="fill:#808080;fill-opacity:0.4;" x="287.76226" xlink:href="#m000015c88e" y="79.89982"/>
     <use style="fill:#808080;fill-opacity:0.4;" x="288.341374" xlink:href="#m000015c88e" y="79.578658"/>
     <use style="fill:#808080;fill-opacity:0.4;" x="298.034427" xlink:href="#m000015c88e" y="69.643774"/>
     <use style="fill:#808080;fill-opacity:0.4;" x="300.351259" xlink:href="#m000015c88e" y="64.837018"/>
     <use style="fill:#808080;fill-opacity:0.4;" x="300.171358" xlink:href="#m000015c88e" y="69.842455"/>
     <use style="fill:#808080;fill-opacity:0.4;" x="286.697481" xlink:href="#m000015c88e" y="76.643689"/>
     <use style="fill:#808080;fill-opacity:0.4;" x="285.083453" xlink:href="#m000015c88e" y="75.836353"/>
     <use style="fill:#808080;fill-opacity:0.4;" x="286.360262" xlink:href="#m000015c88e" y="76.612042"/>
     <use style="fill:#808080;fill-opacity:0.4;" x="274.652038" xlink:href="#m000015c88e" y="97.032759"/>
     <use style="fill:#808080;fill-opacity:0.4;" x="275.224049" xlink:href="#m000015c88e" y="92.536607"/>
     <use style="fill:#808080;fill-opacity:0.4;" x="270.092148" xlink:href="#m000015c88e" y="110.157689"/>
     <use style="fill:#808080;fill-opacity:0.4;" x="263.666124" xlink:href="#m000015c88e" y="132.914351"/>
     <use style="fill:#808080;fill-opacity:0.4;" x="200.431401" xlink:href="#m000015c88e" y="193.325822"/>
     <use style="fill:#808080;fill-opacity:0.4;" x="153.106644" xlink:href="#m000015c88e" y="171.863421"/>
     <use style="fill:#808080;fill-opacity:0.4;" x="214.980841" xlink:href="#m000015c88e" y="169.282656"/>
     <use style="fill:#808080;fill-opacity:0.4;" x="182.861346" xlink:href="#m000015c88e" y="169.569831"/>
     <use style="fill:#808080;fill-opacity:0.4;" x="187.173644" xlink:href="#m000015c88e" y="156.059276"/>
     <use style="fill:#808080;fill-opacity:0.4;" x="154.184977" xlink:href="#m000015c88e" y="205.091678"/>
     <use style="fill:#808080;fill-opacity:0.4;" x="177.284656" xlink:href="#m000015c88e" y="227.848635"/>
     <use style="fill:#808080;fill-opacity:0.4;" x="161.94095" xlink:href="#m000015c88e" y="187.643032"/>
     <use style="fill:#808080;fill-opacity:0.4;" x="147.378641" xlink:href="#m000015c88e" y="198.856322"/>
     <use style="fill:#808080;fill-opacity:0.4;" x="214.220512" xlink:href="#m000015c88e" y="175.647243"/>
     <use style="fill:#808080;fill-opacity:0.4;" x="160.562605" xlink:href="#m000015c88e" y="182.809961"/>
     <use style="fill:#808080;fill-opacity:0.4;" x="201.216615" xlink:href="#m000015c88e" y="160.153088"/>
     <use style="fill:#808080;fill-opacity:0.4;" x="179.705716" xlink:href="#m000015c88e" y="221.030451"/>
     <use style="fill:#808080;fill-opacity:0.4;" x="218.434696" xlink:href="#m000015c88e" y="197.514036"/>
     <use style="fill:#808080;fill-opacity:0.4;" x="247.93573" xlink:href="#m000015c88e" y="137.473864"/>
     <use style="fill:#808080;fill-opacity:0.4;" x="283.041016" xlink:href="#m000015c88e" y="87.151747"/>
     <use style="fill:#808080;fill-opacity:0.4;" x="291.40028" xlink:href="#m000015c88e" y="84.902327"/>
     <use style="fill:#808080;fill-opacity:0.4;" x="293.276065" xlink:href="#m000015c88e" y="60.833171"/>
     <use style="fill:#808080;fill-opacity:0.4;" x="288.611616" xlink:href="#m000015c88e" y="66.794602"/>
    </g>
   </g>
   <g id="PolyCollection_1">
    <defs>
     <path d="M 115.253929 -106.11681 
L 115.253929 -89.489379 
L 117.123599 -91.33708 
L 118.993269 -93.236289 
L 120.862939 -95.150112 
L 122.732609 -97.025907 
L 124.602279 -98.890858 
L 126.471949 -100.780844 
L 128.341619 -102.672416 
L 130.211289 -104.564177 
L 132.080959 -106.455938 
L 133.950629 -108.341387 
L 135.820299 -110.238659 
L 137.689969 -112.130538 
L 139.559639 -114.027492 
L 141.429309 -115.913936 
L 143.298979 -117.833156 
L 145.168649 -119.731556 
L 147.038319 -121.630048 
L 148.907989 -123.51871 
L 150.777659 -125.417078 
L 152.647329 -127.30628 
L 154.516999 -129.196501 
L 156.386669 -131.095108 
L 158.256339 -132.993715 
L 160.126009 -134.82994 
L 161.995679 -136.702203 
L 163.865349 -138.581385 
L 165.735019 -140.422697 
L 167.604689 -142.204838 
L 169.474359 -143.994288 
L 171.344029 -145.833072 
L 173.213699 -147.738836 
L 175.083369 -149.573361 
L 176.953039 -151.436376 
L 178.822709 -153.243097 
L 180.692379 -155.134942 
L 182.562049 -157.051692 
L 184.431719 -158.891751 
L 186.301389 -160.653772 
L 188.171059 -162.414585 
L 190.040729 -164.254821 
L 191.910399 -166.013354 
L 193.780069 -167.756454 
L 195.649739 -169.4965 
L 197.519409 -171.222415 
L 199.389079 -172.962107 
L 201.258749 -174.617887 
L 203.128419 -176.316016 
L 204.998089 -178.095931 
L 206.867759 -179.752452 
L 208.737429 -181.406447 
L 210.607099 -182.981426 
L 212.476769 -184.6848 
L 214.346439 -186.349009 
L 216.216109 -188.025234 
L 218.085779 -189.679398 
L 219.955449 -191.337996 
L 221.825119 -193.038096 
L 223.694789 -194.646527 
L 225.564459 -196.306587 
L 227.434129 -197.957734 
L 229.303799 -199.612704 
L 231.173469 -201.266607 
L 233.043139 -202.901504 
L 234.912809 -204.516084 
L 236.782479 -206.0627 
L 238.652149 -207.631666 
L 240.521819 -209.342895 
L 242.391489 -211.026226 
L 244.261159 -212.651886 
L 246.130829 -214.290486 
L 248.000499 -215.954215 
L 249.870169 -217.545453 
L 251.739839 -219.17944 
L 253.609509 -220.775118 
L 255.479179 -222.398178 
L 257.348849 -223.992537 
L 259.218519 -225.604271 
L 261.088189 -227.244044 
L 262.957859 -228.884086 
L 264.827529 -230.495327 
L 266.697199 -232.136103 
L 268.566869 -233.752515 
L 270.436539 -235.283798 
L 272.306209 -236.814141 
L 274.175879 -238.345082 
L 276.045549 -239.955848 
L 277.915219 -241.557048 
L 279.784889 -243.154117 
L 281.654559 -244.82236 
L 283.524229 -246.407753 
L 285.393899 -247.978079 
L 287.263569 -249.548405 
L 289.133239 -251.119377 
L 291.002909 -252.688081 
L 292.872579 -254.24983 
L 294.742249 -255.835671 
L 296.611919 -257.406058 
L 298.481589 -258.976444 
L 300.351259 -260.546831 
L 300.351259 -279.167199 
L 300.351259 -279.167199 
L 298.481589 -277.292293 
L 296.611919 -275.416525 
L 294.742249 -273.540758 
L 292.872579 -271.664721 
L 291.002909 -269.78846 
L 289.133239 -267.915608 
L 287.263569 -266.037239 
L 285.393899 -264.160582 
L 283.524229 -262.285453 
L 281.654559 -260.410325 
L 279.784889 -258.534617 
L 277.915219 -256.660493 
L 276.045549 -254.827714 
L 274.175879 -252.975148 
L 272.306209 -251.152904 
L 270.436539 -249.265157 
L 268.566869 -247.355963 
L 266.697199 -245.496372 
L 264.827529 -243.603838 
L 262.957859 -241.73162 
L 261.088189 -239.879587 
L 259.218519 -238.040043 
L 257.348849 -236.134084 
L 255.479179 -234.235061 
L 253.609509 -232.363406 
L 251.739839 -230.491001 
L 249.870169 -228.6204 
L 248.000499 -226.773472 
L 246.130829 -225.004001 
L 244.261159 -223.215668 
L 242.391489 -221.389242 
L 240.521819 -219.490723 
L 238.652149 -217.629848 
L 236.782479 -215.79052 
L 234.912809 -213.925227 
L 233.043139 -212.067288 
L 231.173469 -210.296825 
L 229.303799 -208.509813 
L 227.434129 -206.73526 
L 225.564459 -204.920377 
L 223.694789 -203.062286 
L 221.825119 -201.219292 
L 219.955449 -199.469026 
L 218.085779 -197.620982 
L 216.216109 -195.77222 
L 214.346439 -193.924654 
L 212.476769 -192.103925 
L 210.607099 -190.343958 
L 208.737429 -188.579553 
L 206.867759 -186.8537 
L 204.998089 -185.078229 
L 203.128419 -183.360929 
L 201.258749 -181.569394 
L 199.389079 -179.874615 
L 197.519409 -178.202009 
L 195.649739 -176.529403 
L 193.780069 -174.856685 
L 191.910399 -173.176606 
L 190.040729 -171.443727 
L 188.171059 -169.697118 
L 186.301389 -167.96236 
L 184.431719 -166.241072 
L 182.562049 -164.529683 
L 180.692379 -162.902357 
L 178.822709 -161.2203 
L 176.953039 -159.535941 
L 175.083369 -157.922748 
L 173.213699 -156.231285 
L 171.344029 -154.527409 
L 169.474359 -152.821598 
L 167.604689 -151.239781 
L 165.735019 -149.484385 
L 163.865349 -147.858064 
L 161.995679 -146.300632 
L 160.126009 -144.699614 
L 158.256339 -142.973308 
L 156.386669 -141.256785 
L 154.516999 -139.637902 
L 152.647329 -138.071459 
L 150.777659 -136.400503 
L 148.907989 -134.773395 
L 147.038319 -133.133479 
L 145.168649 -131.478235 
L 143.298979 -129.887585 
L 141.429309 -128.306411 
L 139.559639 -126.725237 
L 137.689969 -125.144063 
L 135.820299 -123.562889 
L 133.950629 -121.981715 
L 132.080959 -120.400542 
L 130.211289 -118.819368 
L 128.341619 -117.238194 
L 126.471949 -115.616051 
L 124.602279 -114.005201 
L 122.732609 -112.390349 
L 120.862939 -110.794671 
L 118.993269 -109.235764 
L 117.123599 -107.676907 
L 115.253929 -106.11681 
z
" id="mf9f228cf23"/>
    </defs>
    <g clip-path="url(#pd0c63325b7)">
     <use style="fill:#808080;fill-opacity:0.15;" x="0" xlink:href="#mf9f228cf23" y="360"/>
    </g>
   </g>
   <g id="line2d_16">
    <path clip-path="url(#pd0c63325b7)" d="M 115.253929 262.172075 
L 117.123599 260.424507 
L 118.993269 258.676939 
L 120.862939 256.92937 
L 122.732609 255.181802 
L 124.602279 253.434234 
L 126.471949 251.686665 
L 128.341619 249.939097 
L 130.211289 248.191529 
L 132.080959 246.44396 
L 133.950629 244.696392 
L 135.820299 242.948824 
L 137.689969 241.201256 
L 139.559639 239.453687 
L 141.429309 237.706119 
L 143.298979 235.958551 
L 145.168649 234.210982 
L 147.038319 232.463414 
L 148.907989 230.715846 
L 150.777659 228.968277 
L 152.647329 227.220709 
L 154.516999 225.473141 
L 156.386669 223.725573 
L 158.256339 221.978004 
L 160.126009 220.230436 
L 161.995679 218.482868 
L 163.865349 216.735299 
L 165.735019 214.987731 
L 167.604689 213.240163 
L 169.474359 211.492594 
L 171.344029 209.745026 
L 173.213699 207.997458 
L 175.083369 206.24989 
L 176.953039 204.502321 
L 178.822709 202.754753 
L 180.692379 201.007185 
L 182.562049 199.259616 
L 184.431719 197.512048 
L 186.301389 195.76448 
L 188.171059 194.016912 
L 190.040729 192.269343 
L 191.910399 190.521775 
L 193.780069 188.774207 
L 195.649739 187.026638 
L 197.519409 185.27907 
L 199.389079 183.531502 
L 201.258749 181.783933 
L 203.128419 180.036365 
L 204.998089 178.288797 
L 206.867759 176.541229 
L 208.737429 174.79366 
L 210.607099 173.046092 
L 212.476769 171.298524 
L 214.346439 169.550955 
L 216.216109 167.803387 
L 218.085779 166.055819 
L 219.955449 164.30825 
L 221.825119 162.560682 
L 223.694789 160.813114 
L 225.564459 159.065546 
L 227.434129 157.317977 
L 229.303799 155.570409 
L 231.173469 153.822841 
L 233.043139 152.075272 
L 234.912809 150.327704 
L 236.782479 148.580136 
L 238.652149 146.832567 
L 240.521819 145.084999 
L 242.391489 143.337431 
L 244.261159 141.589863 
L 246.130829 139.842294 
L 248.000499 138.094726 
L 249.870169 136.347158 
L 251.739839 134.599589 
L 253.609509 132.852021 
L 255.479179 131.104453 
L 257.348849 129.356884 
L 259.218519 127.609316 
L 261.088189 125.861748 
L 262.957859 124.11418 
L 264.827529 122.366611 
L 266.697199 120.619043 
L 268.566869 118.871475 
L 270.436539 117.123906 
L 272.306209 115.376338 
L 274.175879 113.62877 
L 276.045549 111.881201 
L 277.915219 110.133633 
L 279.784889 108.386065 
L 281.654559 106.638497 
L 283.524229 104.890928 
L 285.393899 103.14336 
L 287.263569 101.395792 
L 289.133239 99.648223 
L 291.002909 97.900655 
L 292.872579 96.153087 
L 294.742249 94.405518 
L 296.611919 92.65795 
L 298.481589 90.910382 
L 300.351259 89.162814 
" style="fill:none;stroke:#808080;stroke-linecap:round;stroke-width:2.25;"/>
   </g>
   <g id="patch_3">
    <path d="M 45 315 
L 45 43.2 
" style="fill:none;stroke:#262626;stroke-linecap:square;stroke-linejoin:miter;stroke-width:2;"/>
   </g>
   <g id="patch_4">
    <path d="M 45 315 
L 324 315 
" style="fill:none;stroke:#262626;stroke-linecap:square;stroke-linejoin:miter;stroke-width:2;"/>
   </g>
   <g id="text_18">
    <text style="fill:#262626;font-family:Droid Sans;font-size:12px;font-style:normal;font-weight:normal;text-anchor:middle;" transform="rotate(-0, 184.5, 37.2)" x="184.5" y="37.2">Flp PDZ Enrichment: 2</text>
   </g>
   <g id="legend_1">
    <g id="line2d_17">
     <path d="M 54.9 57.608281 
L 76.9 57.608281 
" style="fill:none;stroke:#808080;stroke-linecap:round;stroke-width:2.25;"/>
    </g>
    <g id="line2d_18"/>
    <g id="text_19">
     <text style="fill:#262626;font-family:Droid Sans;font-size:11px;font-style:normal;font-weight:normal;text-anchor:start;" transform="rotate(-0, 85.7, 61.458281)" x="85.7" y="61.458281">Pearson's r: 0.82</text>
    </g>
   </g>
  </g>
 </g>
 <defs>
  <clipPath id="pd0c63325b7">
   <rect height="271.8" width="279" x="45" y="43.2"/>
  </clipPath>
 </defs>
</svg>
