<?xml version="1.0" encoding="utf-8" standalone="no"?>
<!DOCTYPE svg PUBLIC "-//W3C//DTD SVG 1.1//EN"
  "http://www.w3.org/Graphics/SVG/1.1/DTD/svg11.dtd">
<svg xmlns:xlink="http://www.w3.org/1999/xlink" width="360pt" height="360pt" viewBox="0 0 360 360" xmlns="http://www.w3.org/2000/svg" version="1.1">
 <metadata>
  <rdf:RDF xmlns:dc="http://purl.org/dc/elements/1.1/" xmlns:cc="http://creativecommons.org/ns#" xmlns:rdf="http://www.w3.org/1999/02/22-rdf-syntax-ns#">
   <cc:Work>
    <dc:type rdf:resource="http://purl.org/dc/dcmitype/StillImage"/>
    <dc:date>2023-12-05T10:52:04.039563</dc:date>
    <dc:format>image/svg+xml</dc:format>
    <dc:creator>
     <cc:Agent>
      <dc:title>Matplotlib v3.5.3, https://matplotlib.org/</dc:title>
     </cc:Agent>
    </dc:creator>
   </cc:Work>
  </rdf:RDF>
 </metadata>
 <defs>
  <style type="text/css">*{stroke-linejoin: round; stroke-linecap: butt}</style>
 </defs>
 <g id="figure_1">
  <g id="patch_1">
   <path d="M 0 360 
L 360 360 
L 360 0 
L 0 0 
z
" style="fill: #ffffff"/>
  </g>
  <g id="axes_1">
   <g id="patch_2">
    <path d="M 45 320.4 
L 324 320.4 
L 324 43.2 
L 45 43.2 
z
" style="fill: #ffffff"/>
   </g>
   <g id="matplotlib.axis_1">
    <g id="xtick_1">
     <g id="line2d_1">
      <defs>
       <path id="mc4672ebe7c" d="M 0 0 
L 0 3.5 
" style="stroke: #262626; stroke-width: 2"/>
      </defs>
      <g>
       <use xlink:href="#mc4672ebe7c" x="91.5" y="320.4" style="fill: #262626; stroke: #262626; stroke-width: 2"/>
      </g>
     </g>
     <g id="text_1">
      <text style="fill: #262626; font: 14px 'sans-serif'; text-anchor: middle" x="91.5" y="338.037813" transform="rotate(-0, 91.5, 338.037813)">Coil</text>
     </g>
    </g>
    <g id="xtick_2">
     <g id="line2d_2">
      <g>
       <use xlink:href="#mc4672ebe7c" x="184.5" y="320.4" style="fill: #262626; stroke: #262626; stroke-width: 2"/>
      </g>
     </g>
     <g id="text_2">
      <text style="fill: #262626; font: 14px 'sans-serif'; text-anchor: middle" x="184.5" y="338.037813" transform="rotate(-0, 184.5, 338.037813)">Helix</text>
     </g>
    </g>
    <g id="xtick_3">
     <g id="line2d_3">
      <g>
       <use xlink:href="#mc4672ebe7c" x="277.5" y="320.4" style="fill: #262626; stroke: #262626; stroke-width: 2"/>
      </g>
     </g>
     <g id="text_3">
      <text style="fill: #262626; font: 14px 'sans-serif'; text-anchor: middle" x="277.5" y="338.037813" transform="rotate(-0, 277.5, 338.037813)">Sheet</text>
     </g>
    </g>
    <g id="text_4">
     <text style="fill: #262626; font: 14px 'sans-serif'; text-anchor: middle" x="184.5" y="355.587188" transform="rotate(-0, 184.5, 355.587188)">Sec structure</text>
    </g>
   </g>
   <g id="matplotlib.axis_2">
    <g id="ytick_1">
     <g id="line2d_4">
      <defs>
       <path id="mf18d591d08" d="M 0 0 
L -3.5 0 
" style="stroke: #262626; stroke-width: 2"/>
      </defs>
      <g>
       <use xlink:href="#mf18d591d08" x="45" y="307.229716" style="fill: #262626; stroke: #262626; stroke-width: 2"/>
      </g>
     </g>
     <g id="text_5">
      <text style="fill: #262626; font: 14px 'sans-serif'; text-anchor: end" x="38" y="312.548622" transform="rotate(-0, 38, 312.548622)">−12.5</text>
     </g>
    </g>
    <g id="ytick_2">
     <g id="line2d_5">
      <g>
       <use xlink:href="#mf18d591d08" x="45" y="273.687272" style="fill: #262626; stroke: #262626; stroke-width: 2"/>
      </g>
     </g>
     <g id="text_6">
      <text style="fill: #262626; font: 14px 'sans-serif'; text-anchor: end" x="38" y="279.006178" transform="rotate(-0, 38, 279.006178)">−10.0</text>
     </g>
    </g>
    <g id="ytick_3">
     <g id="line2d_6">
      <g>
       <use xlink:href="#mf18d591d08" x="45" y="240.144829" style="fill: #262626; stroke: #262626; stroke-width: 2"/>
      </g>
     </g>
     <g id="text_7">
      <text style="fill: #262626; font: 14px 'sans-serif'; text-anchor: end" x="38" y="245.463735" transform="rotate(-0, 38, 245.463735)">−7.5</text>
     </g>
    </g>
    <g id="ytick_4">
     <g id="line2d_7">
      <g>
       <use xlink:href="#mf18d591d08" x="45" y="206.602385" style="fill: #262626; stroke: #262626; stroke-width: 2"/>
      </g>
     </g>
     <g id="text_8">
      <text style="fill: #262626; font: 14px 'sans-serif'; text-anchor: end" x="38" y="211.921291" transform="rotate(-0, 38, 211.921291)">−5.0</text>
     </g>
    </g>
    <g id="ytick_5">
     <g id="line2d_8">
      <g>
       <use xlink:href="#mf18d591d08" x="45" y="173.059941" style="fill: #262626; stroke: #262626; stroke-width: 2"/>
      </g>
     </g>
     <g id="text_9">
      <text style="fill: #262626; font: 14px 'sans-serif'; text-anchor: end" x="38" y="178.378848" transform="rotate(-0, 38, 178.378848)">−2.5</text>
     </g>
    </g>
    <g id="ytick_6">
     <g id="line2d_9">
      <g>
       <use xlink:href="#mf18d591d08" x="45" y="139.517498" style="fill: #262626; stroke: #262626; stroke-width: 2"/>
      </g>
     </g>
     <g id="text_10">
      <text style="fill: #262626; font: 14px 'sans-serif'; text-anchor: end" x="38" y="144.836404" transform="rotate(-0, 38, 144.836404)">0.0</text>
     </g>
    </g>
    <g id="ytick_7">
     <g id="line2d_10">
      <g>
       <use xlink:href="#mf18d591d08" x="45" y="105.975054" style="fill: #262626; stroke: #262626; stroke-width: 2"/>
      </g>
     </g>
     <g id="text_11">
      <text style="fill: #262626; font: 14px 'sans-serif'; text-anchor: end" x="38" y="111.29396" transform="rotate(-0, 38, 111.29396)">2.5</text>
     </g>
    </g>
    <g id="ytick_8">
     <g id="line2d_11">
      <g>
       <use xlink:href="#mf18d591d08" x="45" y="72.432611" style="fill: #262626; stroke: #262626; stroke-width: 2"/>
      </g>
     </g>
     <g id="text_12">
      <text style="fill: #262626; font: 14px 'sans-serif'; text-anchor: end" x="38" y="77.751517" transform="rotate(-0, 38, 77.751517)">5.0</text>
     </g>
    </g>
    <g id="text_13">
     <text style="fill: #262626; font: 14px 'sans-serif'; text-anchor: middle" x="-11.815" y="181.8" transform="rotate(-90, -11.815, 181.8)">Log2 variant enrichment</text>
    </g>
   </g>
   <g id="PolyCollection_1">
    <defs>
     <path id="ma1bdcfbd82" d="M 91.84596 -54.239585 
L 91.15404 -54.239585 
L 91.033104 -56.70137 
L 90.883696 -59.163154 
L 90.703938 -61.624938 
L 90.49322 -64.086723 
L 90.252336 -66.548507 
L 89.983369 -69.010292 
L 89.689267 -71.472076 
L 89.373077 -73.93386 
L 89.036889 -76.395645 
L 88.680593 -78.857429 
L 88.300629 -81.319213 
L 87.888947 -83.780998 
L 87.432428 -86.242782 
L 86.912945 -88.704567 
L 86.308232 -91.166351 
L 85.593561 -93.628135 
L 84.744156 -96.08992 
L 83.73811 -98.551704 
L 82.559504 -101.013488 
L 81.201322 -103.475273 
L 79.667786 -105.937057 
L 77.975719 -108.398841 
L 76.154692 -110.860626 
L 74.245791 -113.32241 
L 72.299033 -115.784195 
L 70.369646 -118.245979 
L 68.513566 -120.707763 
L 66.782676 -123.169548 
L 65.220379 -125.631332 
L 63.858081 -128.093116 
L 62.713101 -130.554901 
L 61.788315 -133.016685 
L 61.073623 -135.47847 
L 60.54902 -137.940254 
L 60.188828 -140.402038 
L 59.966422 -142.863823 
L 59.858717 -145.325607 
L 59.849715 -147.787391 
L 59.932573 -150.249176 
L 60.109915 -152.71096 
L 60.392407 -155.172745 
L 60.795891 -157.634529 
L 61.337619 -160.096313 
L 62.032212 -162.558098 
L 62.888012 -165.019882 
L 63.90435 -167.481666 
L 65.070108 -169.943451 
L 66.363684 -172.405235 
L 67.754308 -174.86702 
L 69.204398 -177.328804 
L 70.672601 -179.790588 
L 72.117054 -182.252373 
L 73.498453 -184.714157 
L 74.782581 -187.175941 
L 75.942067 -189.637726 
L 76.957287 -192.09951 
L 77.816414 -194.561295 
L 78.514779 -197.023079 
L 79.053737 -199.484863 
L 79.43928 -201.946648 
L 79.680638 -204.408432 
L 79.789058 -206.870216 
L 79.776886 -209.332001 
L 79.65703 -211.793785 
L 79.442777 -214.25557 
L 79.14791 -216.717354 
L 78.78704 -219.179138 
L 78.376023 -221.640923 
L 77.932358 -224.102707 
L 77.475463 -226.564491 
L 77.026747 -229.026276 
L 76.609405 -231.48806 
L 76.247896 -233.949845 
L 75.967092 -236.411629 
L 75.791125 -238.873413 
L 75.741979 -241.335198 
L 75.837952 -243.796982 
L 76.092124 -246.258766 
L 76.511011 -248.720551 
L 77.093589 -251.182335 
L 77.830844 -253.644119 
L 78.705959 -256.105904 
L 79.695175 -258.567688 
L 80.769268 -261.029473 
L 81.895515 -263.491257 
L 83.039938 -265.953041 
L 84.169588 -268.414826 
L 85.254633 -270.87661 
L 86.270043 -273.338394 
L 87.196724 -275.800179 
L 88.022043 -278.261963 
L 88.739759 -280.723748 
L 89.349446 -283.185532 
L 89.855533 -285.647316 
L 90.266132 -288.109101 
L 90.591794 -290.570885 
L 90.84434 -293.032669 
L 91.035843 -295.494454 
L 91.177851 -297.956238 
L 91.822149 -297.956238 
L 91.822149 -297.956238 
L 91.964157 -295.494454 
L 92.15566 -293.032669 
L 92.408206 -290.570885 
L 92.733868 -288.109101 
L 93.144467 -285.647316 
L 93.650554 -283.185532 
L 94.260241 -280.723748 
L 94.977957 -278.261963 
L 95.803276 -275.800179 
L 96.729957 -273.338394 
L 97.745367 -270.87661 
L 98.830412 -268.414826 
L 99.960062 -265.953041 
L 101.104485 -263.491257 
L 102.230732 -261.029473 
L 103.304825 -258.567688 
L 104.294041 -256.105904 
L 105.169156 -253.644119 
L 105.906411 -251.182335 
L 106.488989 -248.720551 
L 106.907876 -246.258766 
L 107.162048 -243.796982 
L 107.258021 -241.335198 
L 107.208875 -238.873413 
L 107.032908 -236.411629 
L 106.752104 -233.949845 
L 106.390595 -231.48806 
L 105.973253 -229.026276 
L 105.524537 -226.564491 
L 105.067642 -224.102707 
L 104.623977 -221.640923 
L 104.21296 -219.179138 
L 103.85209 -216.717354 
L 103.557223 -214.25557 
L 103.34297 -211.793785 
L 103.223114 -209.332001 
L 103.210942 -206.870216 
L 103.319362 -204.408432 
L 103.56072 -201.946648 
L 103.946263 -199.484863 
L 104.485221 -197.023079 
L 105.183586 -194.561295 
L 106.042713 -192.09951 
L 107.057933 -189.637726 
L 108.217419 -187.175941 
L 109.501547 -184.714157 
L 110.882946 -182.252373 
L 112.327399 -179.790588 
L 113.795602 -177.328804 
L 115.245692 -174.86702 
L 116.636316 -172.405235 
L 117.929892 -169.943451 
L 119.09565 -167.481666 
L 120.111988 -165.019882 
L 120.967788 -162.558098 
L 121.662381 -160.096313 
L 122.204109 -157.634529 
L 122.607593 -155.172745 
L 122.890085 -152.71096 
L 123.067427 -150.249176 
L 123.150285 -147.787391 
L 123.141283 -145.325607 
L 123.033578 -142.863823 
L 122.811172 -140.402038 
L 122.45098 -137.940254 
L 121.926377 -135.47847 
L 121.211685 -133.016685 
L 120.286899 -130.554901 
L 119.141919 -128.093116 
L 117.779621 -125.631332 
L 116.217324 -123.169548 
L 114.486434 -120.707763 
L 112.630354 -118.245979 
L 110.700967 -115.784195 
L 108.754209 -113.32241 
L 106.845308 -110.860626 
L 105.024281 -108.398841 
L 103.332214 -105.937057 
L 101.798678 -103.475273 
L 100.440496 -101.013488 
L 99.26189 -98.551704 
L 98.255844 -96.08992 
L 97.406439 -93.628135 
L 96.691768 -91.166351 
L 96.087055 -88.704567 
L 95.567572 -86.242782 
L 95.111053 -83.780998 
L 94.699371 -81.319213 
L 94.319407 -78.857429 
L 93.963111 -76.395645 
L 93.626923 -73.93386 
L 93.310733 -71.472076 
L 93.016631 -69.010292 
L 92.747664 -66.548507 
L 92.50678 -64.086723 
L 92.296062 -61.624938 
L 92.116304 -59.163154 
L 91.966896 -56.70137 
L 91.84596 -54.239585 
z
" style="stroke: #4d4d4d; stroke-width: 2"/>
    </defs>
    <g clip-path="url(#pfe0c467e11)">
     <use xlink:href="#ma1bdcfbd82" x="0" y="360" style="fill: #808080; stroke: #4d4d4d; stroke-width: 2"/>
    </g>
   </g>
   <g id="PolyCollection_2">
    <defs>
     <path id="m03c7d3f8e1" d="M 185.184297 -52.2 
L 183.815703 -52.2 
L 183.58648 -54.745455 
L 183.306711 -57.290909 
L 182.974525 -59.836364 
L 182.591016 -62.381818 
L 182.160733 -64.927273 
L 181.691777 -67.472727 
L 181.1954 -70.018182 
L 180.68501 -72.563636 
L 180.17461 -75.109091 
L 179.676797 -77.654545 
L 179.200524 -80.2 
L 178.74896 -82.745455 
L 178.317783 -85.290909 
L 177.894249 -87.836364 
L 177.457307 -90.381818 
L 176.97888 -92.927273 
L 176.426298 -95.472727 
L 175.765665 -98.018182 
L 174.965804 -100.563636 
L 174.002306 -103.109091 
L 172.861157 -105.654545 
L 171.541462 -108.2 
L 170.056858 -110.745455 
L 168.435377 -113.290909 
L 166.717711 -115.836364 
L 164.954034 -118.381818 
L 163.199713 -120.927273 
L 161.510391 -123.472727 
L 159.937031 -126.018182 
L 158.52148 -128.563636 
L 157.293094 -131.109091 
L 156.266802 -133.654545 
L 155.442829 -136.2 
L 154.808069 -138.745455 
L 154.338898 -141.290909 
L 154.005048 -143.836364 
L 153.774029 -146.381818 
L 153.615536 -148.927273 
L 153.505296 -151.472727 
L 153.427921 -154.018182 
L 153.378451 -156.563636 
L 153.362462 -159.109091 
L 153.394808 -161.654545 
L 153.497211 -164.2 
L 153.695048 -166.745455 
L 154.013779 -169.290909 
L 154.475446 -171.836364 
L 155.095661 -174.381818 
L 155.881416 -176.927273 
L 156.829908 -179.472727 
L 157.928472 -182.018182 
L 159.155531 -184.563636 
L 160.482415 -187.109091 
L 161.875745 -189.654545 
L 163.300102 -192.2 
L 164.720647 -194.745455 
L 166.10542 -197.290909 
L 167.427122 -199.836364 
L 168.664236 -202.381818 
L 169.801492 -204.927273 
L 170.829698 -207.472727 
L 171.745081 -210.018182 
L 172.548277 -212.563636 
L 173.243175 -215.109091 
L 173.835762 -217.654545 
L 174.333139 -220.2 
L 174.742813 -222.745455 
L 175.072339 -225.290909 
L 175.329301 -227.836364 
L 175.52161 -230.381818 
L 175.657992 -232.927273 
L 175.748545 -235.472727 
L 175.805193 -238.018182 
L 175.841881 -240.563636 
L 175.874414 -243.109091 
L 175.919858 -245.654545 
L 175.995555 -248.2 
L 176.117825 -250.745455 
L 176.300551 -253.290909 
L 176.553831 -255.836364 
L 176.882914 -258.381818 
L 177.287577 -260.927273 
L 177.762065 -263.472727 
L 178.295595 -266.018182 
L 178.873356 -268.563636 
L 179.477887 -271.109091 
L 180.090628 -273.654545 
L 180.693464 -276.2 
L 181.270081 -278.745455 
L 181.807001 -281.290909 
L 182.29423 -283.836364 
L 182.725494 -286.381818 
L 183.098108 -288.927273 
L 183.412554 -291.472727 
L 183.671868 -294.018182 
L 183.880933 -296.563636 
L 184.045775 -299.109091 
L 184.172922 -301.654545 
L 184.268883 -304.2 
L 184.731117 -304.2 
L 184.731117 -304.2 
L 184.827078 -301.654545 
L 184.954225 -299.109091 
L 185.119067 -296.563636 
L 185.328132 -294.018182 
L 185.587446 -291.472727 
L 185.901892 -288.927273 
L 186.274506 -286.381818 
L 186.70577 -283.836364 
L 187.192999 -281.290909 
L 187.729919 -278.745455 
L 188.306536 -276.2 
L 188.909372 -273.654545 
L 189.522113 -271.109091 
L 190.126644 -268.563636 
L 190.704405 -266.018182 
L 191.237935 -263.472727 
L 191.712423 -260.927273 
L 192.117086 -258.381818 
L 192.446169 -255.836364 
L 192.699449 -253.290909 
L 192.882175 -250.745455 
L 193.004445 -248.2 
L 193.080142 -245.654545 
L 193.125586 -243.109091 
L 193.158119 -240.563636 
L 193.194807 -238.018182 
L 193.251455 -235.472727 
L 193.342008 -232.927273 
L 193.47839 -230.381818 
L 193.670699 -227.836364 
L 193.927661 -225.290909 
L 194.257187 -222.745455 
L 194.666861 -220.2 
L 195.164238 -217.654545 
L 195.756825 -215.109091 
L 196.451723 -212.563636 
L 197.254919 -210.018182 
L 198.170302 -207.472727 
L 199.198508 -204.927273 
L 200.335764 -202.381818 
L 201.572878 -199.836364 
L 202.89458 -197.290909 
L 204.279353 -194.745455 
L 205.699898 -192.2 
L 207.124255 -189.654545 
L 208.517585 -187.109091 
L 209.844469 -184.563636 
L 211.071528 -182.018182 
L 212.170092 -179.472727 
L 213.118584 -176.927273 
L 213.904339 -174.381818 
L 214.524554 -171.836364 
L 214.986221 -169.290909 
L 215.304952 -166.745455 
L 215.502789 -164.2 
L 215.605192 -161.654545 
L 215.637538 -159.109091 
L 215.621549 -156.563636 
L 215.572079 -154.018182 
L 215.494704 -151.472727 
L 215.384464 -148.927273 
L 215.225971 -146.381818 
L 214.994952 -143.836364 
L 214.661102 -141.290909 
L 214.191931 -138.745455 
L 213.557171 -136.2 
L 212.733198 -133.654545 
L 211.706906 -131.109091 
L 210.47852 -128.563636 
L 209.062969 -126.018182 
L 207.489609 -123.472727 
L 205.800287 -120.927273 
L 204.045966 -118.381818 
L 202.282289 -115.836364 
L 200.564623 -113.290909 
L 198.943142 -110.745455 
L 197.458538 -108.2 
L 196.138843 -105.654545 
L 194.997694 -103.109091 
L 194.034196 -100.563636 
L 193.234335 -98.018182 
L 192.573702 -95.472727 
L 192.02112 -92.927273 
L 191.542693 -90.381818 
L 191.105751 -87.836364 
L 190.682217 -85.290909 
L 190.25104 -82.745455 
L 189.799476 -80.2 
L 189.323203 -77.654545 
L 188.82539 -75.109091 
L 188.31499 -72.563636 
L 187.8046 -70.018182 
L 187.308223 -67.472727 
L 186.839267 -64.927273 
L 186.408984 -62.381818 
L 186.025475 -59.836364 
L 185.693289 -57.290909 
L 185.41352 -54.745455 
L 185.184297 -52.2 
z
" style="stroke: #4d4d4d; stroke-width: 2"/>
    </defs>
    <g clip-path="url(#pfe0c467e11)">
     <use xlink:href="#m03c7d3f8e1" x="0" y="360" style="fill: #808080; stroke: #4d4d4d; stroke-width: 2"/>
    </g>
   </g>
   <g id="PolyCollection_3">
    <defs>
     <path id="m5ba5687336" d="M 277.749086 -56.40315 
L 277.250914 -56.40315 
L 277.155972 -58.860067 
L 277.036342 -61.316983 
L 276.889731 -63.773899 
L 276.714693 -66.230815 
L 276.51058 -68.687731 
L 276.277184 -71.144647 
L 276.013989 -73.601563 
L 275.719039 -76.058479 
L 275.38752 -78.515395 
L 275.010228 -80.972312 
L 274.572215 -83.429228 
L 274.051932 -85.886144 
L 273.421214 -88.34306 
L 272.646367 -90.799976 
L 271.69051 -93.256892 
L 270.517136 -95.713808 
L 269.09467 -98.170724 
L 267.401556 -100.62764 
L 265.431272 -103.084557 
L 263.196525 -105.541473 
L 260.731898 -107.998389 
L 258.094284 -110.455305 
L 255.360698 -112.912221 
L 252.62339 -115.369137 
L 249.982558 -117.826053 
L 247.537415 -120.282969 
L 245.376677 -122.739885 
L 243.569757 -125.196802 
L 242.159935 -127.653718 
L 241.160572 -130.110634 
L 240.554977 -132.56755 
L 240.3 -135.024466 
L 240.332834 -137.481382 
L 240.580012 -139.938298 
L 240.967242 -142.395214 
L 241.428689 -144.852131 
L 241.914411 -147.309047 
L 242.39507 -149.765963 
L 242.863489 -152.222879 
L 243.333128 -154.679795 
L 243.833974 -157.136711 
L 244.406662 -159.593627 
L 245.095748 -162.050543 
L 245.943066 -164.507459 
L 246.981947 -166.964376 
L 248.232871 -169.421292 
L 249.700888 -171.878208 
L 251.37486 -174.335124 
L 253.228433 -176.79204 
L 255.222407 -179.248956 
L 257.308125 -181.705872 
L 259.431403 -184.162788 
L 261.536543 -186.619704 
L 263.570016 -189.076621 
L 265.483498 -191.533537 
L 267.23605 -193.990453 
L 268.795365 -196.447369 
L 270.138146 -198.904285 
L 271.249731 -201.361201 
L 272.123209 -203.818117 
L 272.758227 -206.275033 
L 273.159759 -208.731949 
L 273.336996 -211.188866 
L 273.302533 -213.645782 
L 273.071895 -216.102698 
L 272.663423 -218.559614 
L 272.098429 -221.01653 
L 271.401493 -223.473446 
L 270.600731 -225.930362 
L 269.727849 -228.387278 
L 268.817842 -230.844194 
L 267.908231 -233.301111 
L 267.037841 -235.758027 
L 266.245179 -238.214943 
L 265.566556 -240.671859 
L 265.034134 -243.128775 
L 264.674098 -245.585691 
L 264.505122 -248.042607 
L 264.537266 -250.499523 
L 264.771398 -252.956439 
L 265.199173 -255.413356 
L 265.80359 -257.870272 
L 266.56008 -260.327188 
L 267.43807 -262.784104 
L 268.402933 -265.24102 
L 269.41817 -267.697936 
L 270.447674 -270.154852 
L 271.457873 -272.611768 
L 272.419574 -275.068684 
L 273.309354 -277.525601 
L 274.110367 -279.982517 
L 274.812554 -282.439433 
L 275.412284 -284.896349 
L 275.911512 -287.353265 
L 276.316634 -289.810181 
L 276.637169 -292.267097 
L 276.884454 -294.724013 
L 277.070478 -297.18093 
L 277.206931 -299.637846 
L 277.793069 -299.637846 
L 277.793069 -299.637846 
L 277.929522 -297.18093 
L 278.115546 -294.724013 
L 278.362831 -292.267097 
L 278.683366 -289.810181 
L 279.088488 -287.353265 
L 279.587716 -284.896349 
L 280.187446 -282.439433 
L 280.889633 -279.982517 
L 281.690646 -277.525601 
L 282.580426 -275.068684 
L 283.542127 -272.611768 
L 284.552326 -270.154852 
L 285.58183 -267.697936 
L 286.597067 -265.24102 
L 287.56193 -262.784104 
L 288.43992 -260.327188 
L 289.19641 -257.870272 
L 289.800827 -255.413356 
L 290.228602 -252.956439 
L 290.462734 -250.499523 
L 290.494878 -248.042607 
L 290.325902 -245.585691 
L 289.965866 -243.128775 
L 289.433444 -240.671859 
L 288.754821 -238.214943 
L 287.962159 -235.758027 
L 287.091769 -233.301111 
L 286.182158 -230.844194 
L 285.272151 -228.387278 
L 284.399269 -225.930362 
L 283.598507 -223.473446 
L 282.901571 -221.01653 
L 282.336577 -218.559614 
L 281.928105 -216.102698 
L 281.697467 -213.645782 
L 281.663004 -211.188866 
L 281.840241 -208.731949 
L 282.241773 -206.275033 
L 282.876791 -203.818117 
L 283.750269 -201.361201 
L 284.861854 -198.904285 
L 286.204635 -196.447369 
L 287.76395 -193.990453 
L 289.516502 -191.533537 
L 291.429984 -189.076621 
L 293.463457 -186.619704 
L 295.568597 -184.162788 
L 297.691875 -181.705872 
L 299.777593 -179.248956 
L 301.771567 -176.79204 
L 303.62514 -174.335124 
L 305.299112 -171.878208 
L 306.767129 -169.421292 
L 308.018053 -166.964376 
L 309.056934 -164.507459 
L 309.904252 -162.050543 
L 310.593338 -159.593627 
L 311.166026 -157.136711 
L 311.666872 -154.679795 
L 312.136511 -152.222879 
L 312.60493 -149.765963 
L 313.085589 -147.309047 
L 313.571311 -144.852131 
L 314.032758 -142.395214 
L 314.419988 -139.938298 
L 314.667166 -137.481382 
L 314.7 -135.024466 
L 314.445023 -132.56755 
L 313.839428 -130.110634 
L 312.840065 -127.653718 
L 311.430243 -125.196802 
L 309.623323 -122.739885 
L 307.462585 -120.282969 
L 305.017442 -117.826053 
L 302.37661 -115.369137 
L 299.639302 -112.912221 
L 296.905716 -110.455305 
L 294.268102 -107.998389 
L 291.803475 -105.541473 
L 289.568728 -103.084557 
L 287.598444 -100.62764 
L 285.90533 -98.170724 
L 284.482864 -95.713808 
L 283.30949 -93.256892 
L 282.353633 -90.799976 
L 281.578786 -88.34306 
L 280.948068 -85.886144 
L 280.427785 -83.429228 
L 279.989772 -80.972312 
L 279.61248 -78.515395 
L 279.280961 -76.058479 
L 278.986011 -73.601563 
L 278.722816 -71.144647 
L 278.48942 -68.687731 
L 278.285307 -66.230815 
L 278.110269 -63.773899 
L 277.963658 -61.316983 
L 277.844028 -58.860067 
L 277.749086 -56.40315 
z
" style="stroke: #4d4d4d; stroke-width: 2"/>
    </defs>
    <g clip-path="url(#pfe0c467e11)">
     <use xlink:href="#m5ba5687336" x="0" y="360" style="fill: #808080; stroke: #4d4d4d; stroke-width: 2"/>
    </g>
   </g>
   <g id="line2d_12">
    <path d="M 91.5 273.687272 
L 91.5 94.116904 
" clip-path="url(#pfe0c467e11)" style="fill: none; stroke: #000000; stroke-width: 2; stroke-linecap: round"/>
   </g>
   <g id="line2d_13">
    <path d="M 91.5 225.491549 
L 91.5 151.809336 
" clip-path="url(#pfe0c467e11)" style="fill: none; stroke: #000000; stroke-width: 6; stroke-linecap: round"/>
   </g>
   <g id="line2d_14">
    <path d="M 184.5 273.687272 
L 184.5 98.048416 
" clip-path="url(#pfe0c467e11)" style="fill: none; stroke: #000000; stroke-width: 2; stroke-linecap: round"/>
   </g>
   <g id="line2d_15">
    <path d="M 184.5 225.765277 
L 184.5 172.987727 
" clip-path="url(#pfe0c467e11)" style="fill: none; stroke: #000000; stroke-width: 6; stroke-linecap: round"/>
   </g>
   <g id="line2d_16">
    <path d="M 277.5 273.687272 
L 277.5 108.907545 
" clip-path="url(#pfe0c467e11)" style="fill: none; stroke: #000000; stroke-width: 2; stroke-linecap: round"/>
   </g>
   <g id="line2d_17">
    <path d="M 277.5 230.261711 
L 277.5 181.469607 
" clip-path="url(#pfe0c467e11)" style="fill: none; stroke: #000000; stroke-width: 6; stroke-linecap: round"/>
   </g>
   <g id="patch_3">
    <path d="M 45 320.4 
L 45 43.2 
" style="fill: none; stroke: #262626; stroke-width: 2; stroke-linejoin: miter; stroke-linecap: square"/>
   </g>
   <g id="patch_4">
    <path d="M 45 320.4 
L 324 320.4 
" style="fill: none; stroke: #262626; stroke-width: 2; stroke-linejoin: miter; stroke-linecap: square"/>
   </g>
   <g id="PathCollection_1">
    <defs>
     <path id="mb032052d13" d="M 0 2 
C 0.530406 2 1.03916 1.789267 1.414214 1.414214 
C 1.789267 1.03916 2 0.530406 2 0 
C 2 -0.530406 1.789267 -1.03916 1.414214 -1.414214 
C 1.03916 -1.789267 0.530406 -2 0 -2 
C -0.530406 -2 -1.03916 -1.789267 -1.414214 -1.414214 
C -1.789267 -1.03916 -2 -0.530406 -2 0 
C -2 0.530406 -1.789267 1.03916 -1.414214 1.414214 
C -1.03916 1.789267 -0.530406 2 0 2 
z
" style="stroke: #4d4d4d"/>
    </defs>
    <g clip-path="url(#pfe0c467e11)">
     <use xlink:href="#mb032052d13" x="91.5" y="197.971813" style="fill: #ffffff; stroke: #4d4d4d"/>
    </g>
   </g>
   <g id="PathCollection_2">
    <g clip-path="url(#pfe0c467e11)">
     <use xlink:href="#mb032052d13" x="184.5" y="195.519935" style="fill: #ffffff; stroke: #4d4d4d"/>
    </g>
   </g>
   <g id="PathCollection_3">
    <g clip-path="url(#pfe0c467e11)">
     <use xlink:href="#mb032052d13" x="277.5" y="205.268675" style="fill: #ffffff; stroke: #4d4d4d"/>
    </g>
   </g>
   <g id="text_14">
    <text style="fill: #262626; font: 16.8px 'sans-serif'; text-anchor: middle" x="184.5" y="37.2" transform="rotate(-0, 184.5, 37.2)">AraC_LOV</text>
   </g>
  </g>
 </g>
 <defs>
  <clipPath id="pfe0c467e11">
   <rect x="45" y="43.2" width="279" height="277.2"/>
  </clipPath>
 </defs>
</svg>
