<?xml version="1.0" encoding="utf-8" standalone="no"?>
<!DOCTYPE svg PUBLIC "-//W3C//DTD SVG 1.1//EN"
  "http://www.w3.org/Graphics/SVG/1.1/DTD/svg11.dtd">
<svg xmlns:xlink="http://www.w3.org/1999/xlink" width="360pt" height="360pt" viewBox="0 0 360 360" xmlns="http://www.w3.org/2000/svg" version="1.1">
 <metadata>
  <rdf:RDF xmlns:dc="http://purl.org/dc/elements/1.1/" xmlns:cc="http://creativecommons.org/ns#" xmlns:rdf="http://www.w3.org/1999/02/22-rdf-syntax-ns#">
   <cc:Work>
    <dc:type rdf:resource="http://purl.org/dc/dcmitype/StillImage"/>
    <dc:date>2023-12-01T16:46:59.610122</dc:date>
    <dc:format>image/svg+xml</dc:format>
    <dc:creator>
     <cc:Agent>
      <dc:title>Matplotlib v3.5.3, https://matplotlib.org/</dc:title>
     </cc:Agent>
    </dc:creator>
   </cc:Work>
  </rdf:RDF>
 </metadata>
 <defs>
  <style type="text/css">*{stroke-linejoin: round; stroke-linecap: butt}</style>
 </defs>
 <g id="figure_1">
  <g id="patch_1">
   <path d="M 0 360 
L 360 360 
L 360 0 
L 0 0 
z
" style="fill: #ffffff"/>
  </g>
  <g id="axes_1">
   <g id="patch_2">
    <path d="M 45 320.4 
L 324 320.4 
L 324 43.2 
L 45 43.2 
z
" style="fill: #ffffff"/>
   </g>
   <g id="matplotlib.axis_1">
    <g id="xtick_1">
     <g id="line2d_1">
      <defs>
       <path id="m559dba2f2f" d="M 0 0 
L 0 3.5 
" style="stroke: #262626; stroke-width: 2"/>
      </defs>
      <g>
       <use xlink:href="#m559dba2f2f" x="132.076128" y="320.4" style="fill: #262626; stroke: #262626; stroke-width: 2"/>
      </g>
     </g>
     <g id="text_1">
      <text style="fill: #262626; font: 14px 'sans-serif'; text-anchor: middle" x="132.076128" y="338.037813" transform="rotate(-0, 132.076128, 338.037813)">−5</text>
     </g>
    </g>
    <g id="xtick_2">
     <g id="line2d_2">
      <g>
       <use xlink:href="#m559dba2f2f" x="223.163301" y="320.4" style="fill: #262626; stroke: #262626; stroke-width: 2"/>
      </g>
     </g>
     <g id="text_2">
      <text style="fill: #262626; font: 14px 'sans-serif'; text-anchor: middle" x="223.163301" y="338.037813" transform="rotate(-0, 223.163301, 338.037813)">0</text>
     </g>
    </g>
    <g id="xtick_3">
     <g id="line2d_3">
      <g>
       <use xlink:href="#m559dba2f2f" x="314.250475" y="320.4" style="fill: #262626; stroke: #262626; stroke-width: 2"/>
      </g>
     </g>
     <g id="text_3">
      <text style="fill: #262626; font: 14px 'sans-serif'; text-anchor: middle" x="314.250475" y="338.037813" transform="rotate(-0, 314.250475, 338.037813)">5</text>
     </g>
    </g>
    <g id="text_4">
     <text style="fill: #262626; font: 14px 'sans-serif'; text-anchor: middle" x="184.5" y="355.587188" transform="rotate(-0, 184.5, 355.587188)">Rep-2 log2 enriched read counts</text>
    </g>
   </g>
   <g id="matplotlib.axis_2">
    <g id="ytick_1">
     <g id="line2d_4">
      <defs>
       <path id="m08a6b7a424" d="M 0 0 
L -3.5 0 
" style="stroke: #262626; stroke-width: 2"/>
      </defs>
      <g>
       <use xlink:href="#m08a6b7a424" x="45" y="288.185362" style="fill: #262626; stroke: #262626; stroke-width: 2"/>
      </g>
     </g>
     <g id="text_5">
      <text style="fill: #262626; font: 14px 'sans-serif'; text-anchor: end" x="38" y="293.504268" transform="rotate(-0, 38, 293.504268)">−8</text>
     </g>
    </g>
    <g id="ytick_2">
     <g id="line2d_5">
      <g>
       <use xlink:href="#m08a6b7a424" x="45" y="251.985556" style="fill: #262626; stroke: #262626; stroke-width: 2"/>
      </g>
     </g>
     <g id="text_6">
      <text style="fill: #262626; font: 14px 'sans-serif'; text-anchor: end" x="38" y="257.304463" transform="rotate(-0, 38, 257.304463)">−6</text>
     </g>
    </g>
    <g id="ytick_3">
     <g id="line2d_6">
      <g>
       <use xlink:href="#m08a6b7a424" x="45" y="215.785751" style="fill: #262626; stroke: #262626; stroke-width: 2"/>
      </g>
     </g>
     <g id="text_7">
      <text style="fill: #262626; font: 14px 'sans-serif'; text-anchor: end" x="38" y="221.104657" transform="rotate(-0, 38, 221.104657)">−4</text>
     </g>
    </g>
    <g id="ytick_4">
     <g id="line2d_7">
      <g>
       <use xlink:href="#m08a6b7a424" x="45" y="179.585945" style="fill: #262626; stroke: #262626; stroke-width: 2"/>
      </g>
     </g>
     <g id="text_8">
      <text style="fill: #262626; font: 14px 'sans-serif'; text-anchor: end" x="38" y="184.904851" transform="rotate(-0, 38, 184.904851)">−2</text>
     </g>
    </g>
    <g id="ytick_5">
     <g id="line2d_8">
      <g>
       <use xlink:href="#m08a6b7a424" x="45" y="143.386139" style="fill: #262626; stroke: #262626; stroke-width: 2"/>
      </g>
     </g>
     <g id="text_9">
      <text style="fill: #262626; font: 14px 'sans-serif'; text-anchor: end" x="38" y="148.705046" transform="rotate(-0, 38, 148.705046)">0</text>
     </g>
    </g>
    <g id="ytick_6">
     <g id="line2d_9">
      <g>
       <use xlink:href="#m08a6b7a424" x="45" y="107.186334" style="fill: #262626; stroke: #262626; stroke-width: 2"/>
      </g>
     </g>
     <g id="text_10">
      <text style="fill: #262626; font: 14px 'sans-serif'; text-anchor: end" x="38" y="112.50524" transform="rotate(-0, 38, 112.50524)">2</text>
     </g>
    </g>
    <g id="ytick_7">
     <g id="line2d_10">
      <g>
       <use xlink:href="#m08a6b7a424" x="45" y="70.986528" style="fill: #262626; stroke: #262626; stroke-width: 2"/>
      </g>
     </g>
     <g id="text_11">
      <text style="fill: #262626; font: 14px 'sans-serif'; text-anchor: end" x="38" y="76.305434" transform="rotate(-0, 38, 76.305434)">4</text>
     </g>
    </g>
    <g id="text_12">
     <text style="fill: #262626; font: 14px 'sans-serif'; text-anchor: middle" x="10.449375" y="181.8" transform="rotate(-90, 10.449375, 181.8)">Rep-1 log2 enriched read counts</text>
    </g>
   </g>
   <g id="PathCollection_1">
    <defs>
     <path id="mec61f6ba69" d="M 0 3 
C 0.795609 3 1.55874 2.683901 2.12132 2.12132 
C 2.683901 1.55874 3 0.795609 3 0 
C 3 -0.795609 2.683901 -1.55874 2.12132 -2.12132 
C 1.55874 -2.683901 0.795609 -3 0 -3 
C -0.795609 -3 -1.55874 -2.683901 -2.12132 -2.12132 
C -2.683901 -1.55874 -3 -0.795609 -3 0 
C -3 0.795609 -2.683901 1.55874 -2.12132 2.12132 
C -1.55874 2.683901 -0.795609 3 0 3 
z
"/>
    </defs>
    <g clip-path="url(#p766ff123bb)">
     <use xlink:href="#mec61f6ba69" x="298.455449" y="100.168345" style="fill: #808080; fill-opacity: 0.4"/>
     <use xlink:href="#mec61f6ba69" x="243.674265" y="105.221006" style="fill: #808080; fill-opacity: 0.4"/>
     <use xlink:href="#mec61f6ba69" x="246.935002" y="111.319424" style="fill: #808080; fill-opacity: 0.4"/>
     <use xlink:href="#mec61f6ba69" x="254.793458" y="111.612338" style="fill: #808080; fill-opacity: 0.4"/>
     <use xlink:href="#mec61f6ba69" x="220.776793" y="117.382989" style="fill: #808080; fill-opacity: 0.4"/>
     <use xlink:href="#mec61f6ba69" x="195.225992" y="143.504561" style="fill: #808080; fill-opacity: 0.4"/>
     <use xlink:href="#mec61f6ba69" x="163.31422" y="142.565416" style="fill: #808080; fill-opacity: 0.4"/>
     <use xlink:href="#mec61f6ba69" x="223.115819" y="144.834904" style="fill: #808080; fill-opacity: 0.4"/>
     <use xlink:href="#mec61f6ba69" x="272.176467" y="105.995212" style="fill: #808080; fill-opacity: 0.4"/>
     <use xlink:href="#mec61f6ba69" x="247.907265" y="124.870446" style="fill: #808080; fill-opacity: 0.4"/>
     <use xlink:href="#mec61f6ba69" x="277.467868" y="104.441141" style="fill: #808080; fill-opacity: 0.4"/>
     <use xlink:href="#mec61f6ba69" x="305.782565" y="102.978866" style="fill: #808080; fill-opacity: 0.4"/>
     <use xlink:href="#mec61f6ba69" x="288.345244" y="105.476906" style="fill: #808080; fill-opacity: 0.4"/>
     <use xlink:href="#mec61f6ba69" x="275.403663" y="104.375596" style="fill: #808080; fill-opacity: 0.4"/>
     <use xlink:href="#mec61f6ba69" x="211.29406" y="176.930179" style="fill: #808080; fill-opacity: 0.4"/>
     <use xlink:href="#mec61f6ba69" x="118.386583" y="211.600478" style="fill: #808080; fill-opacity: 0.4"/>
     <use xlink:href="#mec61f6ba69" x="184.259663" y="154.468053" style="fill: #808080; fill-opacity: 0.4"/>
     <use xlink:href="#mec61f6ba69" x="219.128321" y="166.270578" style="fill: #808080; fill-opacity: 0.4"/>
     <use xlink:href="#mec61f6ba69" x="247.106222" y="166.361722" style="fill: #808080; fill-opacity: 0.4"/>
     <use xlink:href="#mec61f6ba69" x="276.820991" y="117.042077" style="fill: #808080; fill-opacity: 0.4"/>
     <use xlink:href="#mec61f6ba69" x="265.667466" y="103.655202" style="fill: #808080; fill-opacity: 0.4"/>
     <use xlink:href="#mec61f6ba69" x="216.25489" y="171.738914" style="fill: #808080; fill-opacity: 0.4"/>
     <use xlink:href="#mec61f6ba69" x="230.542301" y="185.644521" style="fill: #808080; fill-opacity: 0.4"/>
     <use xlink:href="#mec61f6ba69" x="211.042554" y="215.868669" style="fill: #808080; fill-opacity: 0.4"/>
     <use xlink:href="#mec61f6ba69" x="252.203447" y="141.550228" style="fill: #808080; fill-opacity: 0.4"/>
     <use xlink:href="#mec61f6ba69" x="229.296466" y="138.905352" style="fill: #808080; fill-opacity: 0.4"/>
     <use xlink:href="#mec61f6ba69" x="217.402358" y="162.998641" style="fill: #808080; fill-opacity: 0.4"/>
     <use xlink:href="#mec61f6ba69" x="219.332455" y="159.228951" style="fill: #808080; fill-opacity: 0.4"/>
     <use xlink:href="#mec61f6ba69" x="155.859278" y="243.282296" style="fill: #808080; fill-opacity: 0.4"/>
     <use xlink:href="#mec61f6ba69" x="153.999311" y="236.344085" style="fill: #808080; fill-opacity: 0.4"/>
     <use xlink:href="#mec61f6ba69" x="209.317911" y="179.845899" style="fill: #808080; fill-opacity: 0.4"/>
     <use xlink:href="#mec61f6ba69" x="147.016046" y="211.843388" style="fill: #808080; fill-opacity: 0.4"/>
     <use xlink:href="#mec61f6ba69" x="177.586212" y="184.957307" style="fill: #808080; fill-opacity: 0.4"/>
     <use xlink:href="#mec61f6ba69" x="165.233481" y="167.327915" style="fill: #808080; fill-opacity: 0.4"/>
     <use xlink:href="#mec61f6ba69" x="178.02794" y="224.743515" style="fill: #808080; fill-opacity: 0.4"/>
     <use xlink:href="#mec61f6ba69" x="223.438476" y="127.192224" style="fill: #808080; fill-opacity: 0.4"/>
     <use xlink:href="#mec61f6ba69" x="200.042129" y="231.009261" style="fill: #808080; fill-opacity: 0.4"/>
     <use xlink:href="#mec61f6ba69" x="179.570717" y="249.626262" style="fill: #808080; fill-opacity: 0.4"/>
     <use xlink:href="#mec61f6ba69" x="150.238305" y="204.905177" style="fill: #808080; fill-opacity: 0.4"/>
     <use xlink:href="#mec61f6ba69" x="160.75237" y="254.58552" style="fill: #808080; fill-opacity: 0.4"/>
     <use xlink:href="#mec61f6ba69" x="145.047475" y="245.238167" style="fill: #808080; fill-opacity: 0.4"/>
     <use xlink:href="#mec61f6ba69" x="164.065191" y="233.592844" style="fill: #808080; fill-opacity: 0.4"/>
     <use xlink:href="#mec61f6ba69" x="182.589127" y="200.837812" style="fill: #808080; fill-opacity: 0.4"/>
     <use xlink:href="#mec61f6ba69" x="303.104837" y="88.975293" style="fill: #808080; fill-opacity: 0.4"/>
     <use xlink:href="#mec61f6ba69" x="186.584742" y="220.881643" style="fill: #808080; fill-opacity: 0.4"/>
     <use xlink:href="#mec61f6ba69" x="71.418299" y="247.677976" style="fill: #808080; fill-opacity: 0.4"/>
     <use xlink:href="#mec61f6ba69" x="166.501514" y="219.256427" style="fill: #808080; fill-opacity: 0.4"/>
     <use xlink:href="#mec61f6ba69" x="163.582935" y="227.557907" style="fill: #808080; fill-opacity: 0.4"/>
     <use xlink:href="#mec61f6ba69" x="162.173961" y="199.858893" style="fill: #808080; fill-opacity: 0.4"/>
     <use xlink:href="#mec61f6ba69" x="174.659168" y="231.52636" style="fill: #808080; fill-opacity: 0.4"/>
     <use xlink:href="#mec61f6ba69" x="193.370007" y="244.659753" style="fill: #808080; fill-opacity: 0.4"/>
     <use xlink:href="#mec61f6ba69" x="168.864376" y="206.603346" style="fill: #808080; fill-opacity: 0.4"/>
     <use xlink:href="#mec61f6ba69" x="162.924291" y="224.460339" style="fill: #808080; fill-opacity: 0.4"/>
     <use xlink:href="#mec61f6ba69" x="171.220145" y="211.413186" style="fill: #808080; fill-opacity: 0.4"/>
     <use xlink:href="#mec61f6ba69" x="165.058848" y="267.382573" style="fill: #808080; fill-opacity: 0.4"/>
     <use xlink:href="#mec61f6ba69" x="179.300876" y="217.378491" style="fill: #808080; fill-opacity: 0.4"/>
     <use xlink:href="#mec61f6ba69" x="157.583921" y="248.846723" style="fill: #808080; fill-opacity: 0.4"/>
     <use xlink:href="#mec61f6ba69" x="155.491221" y="225.885018" style="fill: #808080; fill-opacity: 0.4"/>
     <use xlink:href="#mec61f6ba69" x="170.594605" y="282.941744" style="fill: #808080; fill-opacity: 0.4"/>
     <use xlink:href="#mec61f6ba69" x="223.741237" y="156.195138" style="fill: #808080; fill-opacity: 0.4"/>
     <use xlink:href="#mec61f6ba69" x="180.708918" y="240.450336" style="fill: #808080; fill-opacity: 0.4"/>
     <use xlink:href="#mec61f6ba69" x="155.600472" y="225.850761" style="fill: #808080; fill-opacity: 0.4"/>
     <use xlink:href="#mec61f6ba69" x="174.215405" y="228.993636" style="fill: #808080; fill-opacity: 0.4"/>
     <use xlink:href="#mec61f6ba69" x="190.517926" y="221.077863" style="fill: #808080; fill-opacity: 0.4"/>
     <use xlink:href="#mec61f6ba69" x="144.47648" y="218.677238" style="fill: #808080; fill-opacity: 0.4"/>
     <use xlink:href="#mec61f6ba69" x="155.385712" y="273.655235" style="fill: #808080; fill-opacity: 0.4"/>
     <use xlink:href="#mec61f6ba69" x="166.006543" y="253.675914" style="fill: #808080; fill-opacity: 0.4"/>
     <use xlink:href="#mec61f6ba69" x="165.310442" y="288.653999" style="fill: #808080; fill-opacity: 0.4"/>
     <use xlink:href="#mec61f6ba69" x="140.423761" y="227.317119" style="fill: #808080; fill-opacity: 0.4"/>
     <use xlink:href="#mec61f6ba69" x="161.687504" y="249.881022" style="fill: #808080; fill-opacity: 0.4"/>
     <use xlink:href="#mec61f6ba69" x="73.337561" y="193.743485" style="fill: #808080; fill-opacity: 0.4"/>
     <use xlink:href="#mec61f6ba69" x="174.667349" y="235.183332" style="fill: #808080; fill-opacity: 0.4"/>
     <use xlink:href="#mec61f6ba69" x="154.903456" y="205.499422" style="fill: #808080; fill-opacity: 0.4"/>
     <use xlink:href="#mec61f6ba69" x="150.718798" y="231.841412" style="fill: #808080; fill-opacity: 0.4"/>
     <use xlink:href="#mec61f6ba69" x="164.650334" y="250.712705" style="fill: #808080; fill-opacity: 0.4"/>
     <use xlink:href="#mec61f6ba69" x="144.777912" y="215.406486" style="fill: #808080; fill-opacity: 0.4"/>
     <use xlink:href="#mec61f6ba69" x="143.342795" y="228.831947" style="fill: #808080; fill-opacity: 0.4"/>
     <use xlink:href="#mec61f6ba69" x="114.884761" y="269.379416" style="fill: #808080; fill-opacity: 0.4"/>
     <use xlink:href="#mec61f6ba69" x="158.791123" y="220.045768" style="fill: #808080; fill-opacity: 0.4"/>
     <use xlink:href="#mec61f6ba69" x="144.059877" y="255.005572" style="fill: #808080; fill-opacity: 0.4"/>
     <use xlink:href="#mec61f6ba69" x="161.886721" y="272.543891" style="fill: #808080; fill-opacity: 0.4"/>
     <use xlink:href="#mec61f6ba69" x="248.488317" y="133.652705" style="fill: #808080; fill-opacity: 0.4"/>
     <use xlink:href="#mec61f6ba69" x="281.593743" y="89.846225" style="fill: #808080; fill-opacity: 0.4"/>
     <use xlink:href="#mec61f6ba69" x="200.595459" y="165.476999" style="fill: #808080; fill-opacity: 0.4"/>
     <use xlink:href="#mec61f6ba69" x="161.891563" y="246.163775" style="fill: #808080; fill-opacity: 0.4"/>
     <use xlink:href="#mec61f6ba69" x="168.669464" y="215.941711" style="fill: #808080; fill-opacity: 0.4"/>
     <use xlink:href="#mec61f6ba69" x="194.526615" y="171.178223" style="fill: #808080; fill-opacity: 0.4"/>
     <use xlink:href="#mec61f6ba69" x="144.912348" y="205.721263" style="fill: #808080; fill-opacity: 0.4"/>
     <use xlink:href="#mec61f6ba69" x="169.477727" y="209.038362" style="fill: #808080; fill-opacity: 0.4"/>
     <use xlink:href="#mec61f6ba69" x="164.550788" y="192.437581" style="fill: #808080; fill-opacity: 0.4"/>
     <use xlink:href="#mec61f6ba69" x="191.267864" y="245.928878" style="fill: #808080; fill-opacity: 0.4"/>
     <use xlink:href="#mec61f6ba69" x="289.663911" y="92.585344" style="fill: #808080; fill-opacity: 0.4"/>
     <use xlink:href="#mec61f6ba69" x="266.672303" y="110.931559" style="fill: #808080; fill-opacity: 0.4"/>
     <use xlink:href="#mec61f6ba69" x="247.527113" y="118.009448" style="fill: #808080; fill-opacity: 0.4"/>
     <use xlink:href="#mec61f6ba69" x="245.611097" y="116.925016" style="fill: #808080; fill-opacity: 0.4"/>
     <use xlink:href="#mec61f6ba69" x="254.293842" y="111.427688" style="fill: #808080; fill-opacity: 0.4"/>
     <use xlink:href="#mec61f6ba69" x="248.808362" y="115.662481" style="fill: #808080; fill-opacity: 0.4"/>
     <use xlink:href="#mec61f6ba69" x="271.467661" y="99.102375" style="fill: #808080; fill-opacity: 0.4"/>
     <use xlink:href="#mec61f6ba69" x="278.88031" y="96.089965" style="fill: #808080; fill-opacity: 0.4"/>
     <use xlink:href="#mec61f6ba69" x="287.19307" y="86.458941" style="fill: #808080; fill-opacity: 0.4"/>
     <use xlink:href="#mec61f6ba69" x="181.071182" y="241.402878" style="fill: #808080; fill-opacity: 0.4"/>
     <use xlink:href="#mec61f6ba69" x="104.54184" y="234.669625" style="fill: #808080; fill-opacity: 0.4"/>
     <use xlink:href="#mec61f6ba69" x="197.329691" y="220.334309" style="fill: #808080; fill-opacity: 0.4"/>
     <use xlink:href="#mec61f6ba69" x="156.843402" y="200.14428" style="fill: #808080; fill-opacity: 0.4"/>
     <use xlink:href="#mec61f6ba69" x="164.615048" y="218.755209" style="fill: #808080; fill-opacity: 0.4"/>
     <use xlink:href="#mec61f6ba69" x="179.331319" y="222.978034" style="fill: #808080; fill-opacity: 0.4"/>
     <use xlink:href="#mec61f6ba69" x="178.348068" y="210.350831" style="fill: #808080; fill-opacity: 0.4"/>
     <use xlink:href="#mec61f6ba69" x="172.085942" y="187.366858" style="fill: #808080; fill-opacity: 0.4"/>
     <use xlink:href="#mec61f6ba69" x="266.575908" y="103.931185" style="fill: #808080; fill-opacity: 0.4"/>
     <use xlink:href="#mec61f6ba69" x="261.564839" y="95.47662" style="fill: #808080; fill-opacity: 0.4"/>
     <use xlink:href="#mec61f6ba69" x="255.906753" y="91.571591" style="fill: #808080; fill-opacity: 0.4"/>
     <use xlink:href="#mec61f6ba69" x="257.975771" y="92.163119" style="fill: #808080; fill-opacity: 0.4"/>
     <use xlink:href="#mec61f6ba69" x="275.296167" y="94.231065" style="fill: #808080; fill-opacity: 0.4"/>
     <use xlink:href="#mec61f6ba69" x="240.8861" y="109.123538" style="fill: #808080; fill-opacity: 0.4"/>
     <use xlink:href="#mec61f6ba69" x="269.797559" y="85.672134" style="fill: #808080; fill-opacity: 0.4"/>
     <use xlink:href="#mec61f6ba69" x="190.554741" y="216.784996" style="fill: #808080; fill-opacity: 0.4"/>
     <use xlink:href="#mec61f6ba69" x="168.077572" y="176.593237" style="fill: #808080; fill-opacity: 0.4"/>
     <use xlink:href="#mec61f6ba69" x="167.420966" y="219.454251" style="fill: #808080; fill-opacity: 0.4"/>
     <use xlink:href="#mec61f6ba69" x="150.238305" y="254.443988" style="fill: #808080; fill-opacity: 0.4"/>
     <use xlink:href="#mec61f6ba69" x="140.630886" y="267.726165" style="fill: #808080; fill-opacity: 0.4"/>
     <use xlink:href="#mec61f6ba69" x="139.785726" y="257.978108" style="fill: #808080; fill-opacity: 0.4"/>
     <use xlink:href="#mec61f6ba69" x="63.217435" y="198.450597" style="fill: #808080; fill-opacity: 0.4"/>
     <use xlink:href="#mec61f6ba69" x="182.32801" y="227.572095" style="fill: #808080; fill-opacity: 0.4"/>
     <use xlink:href="#mec61f6ba69" x="162.937941" y="210.637261" style="fill: #808080; fill-opacity: 0.4"/>
     <use xlink:href="#mec61f6ba69" x="158.608923" y="237.59108" style="fill: #808080; fill-opacity: 0.4"/>
     <use xlink:href="#mec61f6ba69" x="162.04385" y="239.795439" style="fill: #808080; fill-opacity: 0.4"/>
     <use xlink:href="#mec61f6ba69" x="171.078637" y="231.647984" style="fill: #808080; fill-opacity: 0.4"/>
     <use xlink:href="#mec61f6ba69" x="177.793159" y="280.859559" style="fill: #808080; fill-opacity: 0.4"/>
     <use xlink:href="#mec61f6ba69" x="198.304386" y="174.781401" style="fill: #808080; fill-opacity: 0.4"/>
     <use xlink:href="#mec61f6ba69" x="242.79787" y="114.174231" style="fill: #808080; fill-opacity: 0.4"/>
     <use xlink:href="#mec61f6ba69" x="234.996894" y="147.497384" style="fill: #808080; fill-opacity: 0.4"/>
     <use xlink:href="#mec61f6ba69" x="247.162294" y="113.020321" style="fill: #808080; fill-opacity: 0.4"/>
     <use xlink:href="#mec61f6ba69" x="174.468992" y="231.355129" style="fill: #808080; fill-opacity: 0.4"/>
     <use xlink:href="#mec61f6ba69" x="222.671082" y="179.714877" style="fill: #808080; fill-opacity: 0.4"/>
     <use xlink:href="#mec61f6ba69" x="250.903495" y="127.434443" style="fill: #808080; fill-opacity: 0.4"/>
     <use xlink:href="#mec61f6ba69" x="267.218416" y="108.075865" style="fill: #808080; fill-opacity: 0.4"/>
     <use xlink:href="#mec61f6ba69" x="166.422096" y="236.812906" style="fill: #808080; fill-opacity: 0.4"/>
     <use xlink:href="#mec61f6ba69" x="147.636566" y="222.077077" style="fill: #808080; fill-opacity: 0.4"/>
     <use xlink:href="#mec61f6ba69" x="105.158201" y="224.743515" style="fill: #808080; fill-opacity: 0.4"/>
     <use xlink:href="#mec61f6ba69" x="137.952879" y="213.528659" style="fill: #808080; fill-opacity: 0.4"/>
     <use xlink:href="#mec61f6ba69" x="152.525156" y="234.071988" style="fill: #808080; fill-opacity: 0.4"/>
     <use xlink:href="#mec61f6ba69" x="169.395749" y="223.535779" style="fill: #808080; fill-opacity: 0.4"/>
     <use xlink:href="#mec61f6ba69" x="165.071744" y="269.379416" style="fill: #808080; fill-opacity: 0.4"/>
     <use xlink:href="#mec61f6ba69" x="112.028269" y="232.530816" style="fill: #808080; fill-opacity: 0.4"/>
     <use xlink:href="#mec61f6ba69" x="136.35953" y="228.603887" style="fill: #808080; fill-opacity: 0.4"/>
     <use xlink:href="#mec61f6ba69" x="149.636856" y="237.927154" style="fill: #808080; fill-opacity: 0.4"/>
     <use xlink:href="#mec61f6ba69" x="147.149121" y="225.448851" style="fill: #808080; fill-opacity: 0.4"/>
     <use xlink:href="#mec61f6ba69" x="167.06191" y="247.08279" style="fill: #808080; fill-opacity: 0.4"/>
     <use xlink:href="#mec61f6ba69" x="146.445911" y="191.696499" style="fill: #808080; fill-opacity: 0.4"/>
     <use xlink:href="#mec61f6ba69" x="127.262585" y="220.881643" style="fill: #808080; fill-opacity: 0.4"/>
     <use xlink:href="#mec61f6ba69" x="130.00522" y="227.758968" style="fill: #808080; fill-opacity: 0.4"/>
     <use xlink:href="#mec61f6ba69" x="138.083571" y="228.230372" style="fill: #808080; fill-opacity: 0.4"/>
     <use xlink:href="#mec61f6ba69" x="174.076713" y="235.770158" style="fill: #808080; fill-opacity: 0.4"/>
     <use xlink:href="#mec61f6ba69" x="150.248888" y="234.243444" style="fill: #808080; fill-opacity: 0.4"/>
     <use xlink:href="#mec61f6ba69" x="168.358962" y="256.004786" style="fill: #808080; fill-opacity: 0.4"/>
     <use xlink:href="#mec61f6ba69" x="172.494028" y="201.255623" style="fill: #808080; fill-opacity: 0.4"/>
     <use xlink:href="#mec61f6ba69" x="155.597761" y="249.368993" style="fill: #808080; fill-opacity: 0.4"/>
     <use xlink:href="#mec61f6ba69" x="168.523044" y="209.354587" style="fill: #808080; fill-opacity: 0.4"/>
     <use xlink:href="#mec61f6ba69" x="137.861779" y="214.376112" style="fill: #808080; fill-opacity: 0.4"/>
     <use xlink:href="#mec61f6ba69" x="168.659677" y="199.653118" style="fill: #808080; fill-opacity: 0.4"/>
     <use xlink:href="#mec61f6ba69" x="177.337089" y="229.45519" style="fill: #808080; fill-opacity: 0.4"/>
     <use xlink:href="#mec61f6ba69" x="170.336329" y="201.255623" style="fill: #808080; fill-opacity: 0.4"/>
     <use xlink:href="#mec61f6ba69" x="176.063478" y="249.28267" style="fill: #808080; fill-opacity: 0.4"/>
     <use xlink:href="#mec61f6ba69" x="164.371692" y="199.623052" style="fill: #808080; fill-opacity: 0.4"/>
     <use xlink:href="#mec61f6ba69" x="173.786299" y="217.420371" style="fill: #808080; fill-opacity: 0.4"/>
     <use xlink:href="#mec61f6ba69" x="180.355318" y="246.357922" style="fill: #808080; fill-opacity: 0.4"/>
     <use xlink:href="#mec61f6ba69" x="215.303394" y="233.760502" style="fill: #808080; fill-opacity: 0.4"/>
     <use xlink:href="#mec61f6ba69" x="175.494769" y="184.76316" style="fill: #808080; fill-opacity: 0.4"/>
     <use xlink:href="#mec61f6ba69" x="173.989251" y="178.700238" style="fill: #808080; fill-opacity: 0.4"/>
     <use xlink:href="#mec61f6ba69" x="148.518295" y="220.938595" style="fill: #808080; fill-opacity: 0.4"/>
     <use xlink:href="#mec61f6ba69" x="194.808332" y="259.346418" style="fill: #808080; fill-opacity: 0.4"/>
     <use xlink:href="#mec61f6ba69" x="165.786811" y="172.018196" style="fill: #808080; fill-opacity: 0.4"/>
     <use xlink:href="#mec61f6ba69" x="188.962833" y="186.892461" style="fill: #808080; fill-opacity: 0.4"/>
     <use xlink:href="#mec61f6ba69" x="175.389369" y="166.060274" style="fill: #808080; fill-opacity: 0.4"/>
     <use xlink:href="#mec61f6ba69" x="77.655807" y="223.380808" style="fill: #808080; fill-opacity: 0.4"/>
     <use xlink:href="#mec61f6ba69" x="150.276423" y="199.817867" style="fill: #808080; fill-opacity: 0.4"/>
     <use xlink:href="#mec61f6ba69" x="191.820581" y="185.726251" style="fill: #808080; fill-opacity: 0.4"/>
     <use xlink:href="#mec61f6ba69" x="82.636023" y="191.237612" style="fill: #808080; fill-opacity: 0.4"/>
     <use xlink:href="#mec61f6ba69" x="144.24694" y="261.382199" style="fill: #808080; fill-opacity: 0.4"/>
     <use xlink:href="#mec61f6ba69" x="129.754434" y="202.241123" style="fill: #808080; fill-opacity: 0.4"/>
     <use xlink:href="#mec61f6ba69" x="111.134507" y="194.878996" style="fill: #808080; fill-opacity: 0.4"/>
     <use xlink:href="#mec61f6ba69" x="163.129782" y="263.472326" style="fill: #808080; fill-opacity: 0.4"/>
     <use xlink:href="#mec61f6ba69" x="152.698866" y="206.197232" style="fill: #808080; fill-opacity: 0.4"/>
     <use xlink:href="#mec61f6ba69" x="120.112289" y="223.224911" style="fill: #808080; fill-opacity: 0.4"/>
     <use xlink:href="#mec61f6ba69" x="142.591824" y="186.27736" style="fill: #808080; fill-opacity: 0.4"/>
     <use xlink:href="#mec61f6ba69" x="130.108316" y="228.642036" style="fill: #808080; fill-opacity: 0.4"/>
     <use xlink:href="#mec61f6ba69" x="158.020676" y="267.209066" style="fill: #808080; fill-opacity: 0.4"/>
     <use xlink:href="#mec61f6ba69" x="151.807859" y="213.102072" style="fill: #808080; fill-opacity: 0.4"/>
     <use xlink:href="#mec61f6ba69" x="136.522269" y="227.030361" style="fill: #808080; fill-opacity: 0.4"/>
     <use xlink:href="#mec61f6ba69" x="133.372313" y="219.57223" style="fill: #808080; fill-opacity: 0.4"/>
     <use xlink:href="#mec61f6ba69" x="188.868524" y="223.068078" style="fill: #808080; fill-opacity: 0.4"/>
     <use xlink:href="#mec61f6ba69" x="116.49155" y="260.270855" style="fill: #808080; fill-opacity: 0.4"/>
     <use xlink:href="#mec61f6ba69" x="184.598793" y="259.580613" style="fill: #808080; fill-opacity: 0.4"/>
     <use xlink:href="#mec61f6ba69" x="180.606824" y="213.933514" style="fill: #808080; fill-opacity: 0.4"/>
     <use xlink:href="#mec61f6ba69" x="162.212868" y="179.931304" style="fill: #808080; fill-opacity: 0.4"/>
     <use xlink:href="#mec61f6ba69" x="160.342303" y="250.630719" style="fill: #808080; fill-opacity: 0.4"/>
     <use xlink:href="#mec61f6ba69" x="134.594961" y="193.913601" style="fill: #808080; fill-opacity: 0.4"/>
     <use xlink:href="#mec61f6ba69" x="137.207417" y="225.614017" style="fill: #808080; fill-opacity: 0.4"/>
     <use xlink:href="#mec61f6ba69" x="140.120536" y="205.617847" style="fill: #808080; fill-opacity: 0.4"/>
     <use xlink:href="#mec61f6ba69" x="135.216646" y="162.166048" style="fill: #808080; fill-opacity: 0.4"/>
     <use xlink:href="#mec61f6ba69" x="271.514412" y="87.07407" style="fill: #808080; fill-opacity: 0.4"/>
     <use xlink:href="#mec61f6ba69" x="263.988816" y="84.064679" style="fill: #808080; fill-opacity: 0.4"/>
     <use xlink:href="#mec61f6ba69" x="267.184936" y="83.588443" style="fill: #808080; fill-opacity: 0.4"/>
     <use xlink:href="#mec61f6ba69" x="242.55387" y="84.739213" style="fill: #808080; fill-opacity: 0.4"/>
     <use xlink:href="#mec61f6ba69" x="258.036175" y="82.95593" style="fill: #808080; fill-opacity: 0.4"/>
     <use xlink:href="#mec61f6ba69" x="264.829748" y="74.443693" style="fill: #808080; fill-opacity: 0.4"/>
     <use xlink:href="#mec61f6ba69" x="261.338818" y="79.227012" style="fill: #808080; fill-opacity: 0.4"/>
     <use xlink:href="#mec61f6ba69" x="260.658162" y="81.754459" style="fill: #808080; fill-opacity: 0.4"/>
     <use xlink:href="#mec61f6ba69" x="250.098875" y="84.885708" style="fill: #808080; fill-opacity: 0.4"/>
     <use xlink:href="#mec61f6ba69" x="272.404739" y="69.390551" style="fill: #808080; fill-opacity: 0.4"/>
     <use xlink:href="#mec61f6ba69" x="264.631112" y="79.54441" style="fill: #808080; fill-opacity: 0.4"/>
     <use xlink:href="#mec61f6ba69" x="267.162475" y="77.73703" style="fill: #808080; fill-opacity: 0.4"/>
     <use xlink:href="#mec61f6ba69" x="267.431629" y="64.273954" style="fill: #808080; fill-opacity: 0.4"/>
     <use xlink:href="#mec61f6ba69" x="263.037511" y="80.485373" style="fill: #808080; fill-opacity: 0.4"/>
     <use xlink:href="#mec61f6ba69" x="233.172715" y="72.294946" style="fill: #808080; fill-opacity: 0.4"/>
    </g>
   </g>
   <g id="PolyCollection_1">
    <defs>
     <path id="m775a1da9ea" d="M 63.217435 -69.519635 
L 63.217435 -38.951252 
L 65.667588 -41.508734 
L 68.11774 -44.066215 
L 70.567893 -46.623696 
L 73.018046 -49.181177 
L 75.468199 -51.738658 
L 77.918352 -54.29614 
L 80.368505 -56.853621 
L 82.818657 -59.411102 
L 85.26881 -61.968583 
L 87.718963 -64.526064 
L 90.169116 -67.083546 
L 92.619269 -69.639816 
L 95.069422 -72.133022 
L 97.519574 -74.628073 
L 99.969727 -77.141555 
L 102.41988 -79.655037 
L 104.870033 -82.168519 
L 107.320186 -84.6842 
L 109.770339 -87.272051 
L 112.220491 -89.829232 
L 114.670644 -92.366592 
L 117.120797 -94.858868 
L 119.57095 -97.404332 
L 122.021103 -99.873815 
L 124.471256 -102.369015 
L 126.921408 -104.930249 
L 129.371561 -107.478712 
L 131.821714 -110.044223 
L 134.271867 -112.613951 
L 136.72202 -115.180306 
L 139.172173 -117.736419 
L 141.622325 -120.292481 
L 144.072478 -122.852942 
L 146.522631 -125.389197 
L 148.972784 -127.868578 
L 151.422937 -130.360894 
L 153.87309 -132.757997 
L 156.323242 -135.12548 
L 158.773395 -137.651433 
L 161.223548 -140.103356 
L 163.673701 -142.542735 
L 166.123854 -145.146419 
L 168.574007 -147.568634 
L 171.024159 -150.068217 
L 173.474312 -152.613377 
L 175.924465 -155.046313 
L 178.374618 -157.4297 
L 180.824771 -159.71267 
L 183.274924 -162.197827 
L 185.725076 -164.619651 
L 188.175229 -166.98375 
L 190.625382 -169.331024 
L 193.075535 -171.731187 
L 195.525688 -173.956693 
L 197.975841 -176.385389 
L 200.425993 -178.588843 
L 202.876146 -180.856102 
L 205.326299 -183.118433 
L 207.776452 -185.37284 
L 210.226605 -187.704845 
L 212.676758 -189.848916 
L 215.12691 -192.13506 
L 217.577063 -194.385408 
L 220.027216 -196.598439 
L 222.477369 -198.771043 
L 224.927522 -200.98471 
L 227.377675 -203.07263 
L 229.827827 -205.093453 
L 232.27798 -207.19349 
L 234.728133 -209.301087 
L 237.178286 -211.409461 
L 239.628439 -213.513487 
L 242.078592 -215.593443 
L 244.528744 -217.650152 
L 246.978897 -219.755846 
L 249.42905 -221.810668 
L 251.879203 -223.984946 
L 254.329356 -225.946863 
L 256.779509 -228.015485 
L 259.229661 -230.186002 
L 261.679814 -232.25302 
L 264.129967 -234.320039 
L 266.58012 -236.387057 
L 269.030273 -238.358681 
L 271.480426 -240.422669 
L 273.930578 -242.486016 
L 276.380731 -244.560047 
L 278.830884 -246.628736 
L 281.281037 -248.731634 
L 283.73119 -250.80588 
L 286.181343 -252.92357 
L 288.631495 -254.971284 
L 291.081648 -257.020635 
L 293.531801 -259.038909 
L 295.981954 -261.106154 
L 298.432107 -263.173398 
L 300.88226 -265.241995 
L 303.332412 -267.300846 
L 305.782565 -269.353087 
L 305.782565 -292.32155 
L 305.782565 -292.32155 
L 303.332412 -289.886463 
L 300.88226 -287.449042 
L 298.432107 -284.925895 
L 295.981954 -282.400153 
L 293.531801 -279.909004 
L 291.081648 -277.350237 
L 288.631495 -274.82635 
L 286.181343 -272.302462 
L 283.73119 -269.775308 
L 281.281037 -267.248128 
L 278.830884 -264.720948 
L 276.380731 -262.172013 
L 273.930578 -259.650424 
L 271.480426 -257.143611 
L 269.030273 -254.653063 
L 266.58012 -252.155327 
L 264.129967 -249.657591 
L 261.679814 -247.223345 
L 259.229661 -244.709404 
L 256.779509 -242.20505 
L 254.329356 -239.736661 
L 251.879203 -237.229845 
L 249.42905 -234.675962 
L 246.978897 -232.169916 
L 244.528744 -229.780307 
L 242.078592 -227.280186 
L 239.628439 -224.870146 
L 237.178286 -222.36152 
L 234.728133 -219.887283 
L 232.27798 -217.46617 
L 229.827827 -215.044628 
L 227.377675 -212.677428 
L 224.927522 -210.331782 
L 222.477369 -207.944734 
L 220.027216 -205.56267 
L 217.577063 -203.11252 
L 215.12691 -200.784183 
L 212.676758 -198.501591 
L 210.226605 -196.165753 
L 207.776452 -193.912746 
L 205.326299 -191.608511 
L 202.876146 -189.403962 
L 200.425993 -187.071038 
L 197.975841 -184.811734 
L 195.525688 -182.561114 
L 193.075535 -180.299416 
L 190.625382 -178.058683 
L 188.175229 -175.876378 
L 185.725076 -173.695416 
L 183.274924 -171.410697 
L 180.824771 -169.247729 
L 178.374618 -167.065714 
L 175.924465 -164.871529 
L 173.474312 -162.804478 
L 171.024159 -160.705238 
L 168.574007 -158.644118 
L 166.123854 -156.538947 
L 163.673701 -154.455801 
L 161.223548 -152.372655 
L 158.773395 -150.325221 
L 156.323242 -148.307076 
L 153.87309 -146.189827 
L 151.422937 -144.161939 
L 148.972784 -142.093752 
L 146.522631 -140.038785 
L 144.072478 -137.916282 
L 141.622325 -135.827208 
L 139.172173 -133.686382 
L 136.72202 -131.651477 
L 134.271867 -129.563611 
L 131.821714 -127.475746 
L 129.371561 -125.38788 
L 126.921408 -123.300014 
L 124.471256 -121.212148 
L 122.021103 -119.183422 
L 119.57095 -117.168361 
L 117.120797 -115.153299 
L 114.670644 -113.074801 
L 112.220491 -110.971234 
L 109.770339 -108.866353 
L 107.320186 -106.760073 
L 104.870033 -104.653793 
L 102.41988 -102.547513 
L 99.969727 -100.441233 
L 97.519574 -98.456605 
L 95.069422 -96.340314 
L 92.619269 -94.272513 
L 90.169116 -92.256129 
L 87.718963 -90.239745 
L 85.26881 -88.223361 
L 82.818657 -86.206977 
L 80.368505 -84.128857 
L 77.918352 -82.041894 
L 75.468199 -79.95493 
L 73.018046 -77.867966 
L 70.567893 -75.781002 
L 68.11774 -73.694039 
L 65.667588 -71.607075 
L 63.217435 -69.519635 
z
"/>
    </defs>
    <g clip-path="url(#p766ff123bb)">
     <use xlink:href="#m775a1da9ea" x="0" y="360" style="fill: #808080; fill-opacity: 0.15"/>
    </g>
   </g>
   <g id="line2d_11">
    <path d="M 63.217435 305.309494 
L 65.667588 303.018953 
L 68.11774 300.728411 
L 70.567893 298.43787 
L 73.018046 296.147329 
L 75.468199 293.856787 
L 77.918352 291.566246 
L 80.368505 289.275705 
L 82.818657 286.985163 
L 85.26881 284.694622 
L 87.718963 282.404081 
L 90.169116 280.113539 
L 92.619269 277.822998 
L 95.069422 275.532457 
L 97.519574 273.241915 
L 99.969727 270.951374 
L 102.41988 268.660832 
L 104.870033 266.370291 
L 107.320186 264.07975 
L 109.770339 261.789208 
L 112.220491 259.498667 
L 114.670644 257.208126 
L 117.120797 254.917584 
L 119.57095 252.627043 
L 122.021103 250.336502 
L 124.471256 248.04596 
L 126.921408 245.755419 
L 129.371561 243.464878 
L 131.821714 241.174336 
L 134.271867 238.883795 
L 136.72202 236.593254 
L 139.172173 234.302712 
L 141.622325 232.012171 
L 144.072478 229.72163 
L 146.522631 227.431088 
L 148.972784 225.140547 
L 151.422937 222.850006 
L 153.87309 220.559464 
L 156.323242 218.268923 
L 158.773395 215.978382 
L 161.223548 213.68784 
L 163.673701 211.397299 
L 166.123854 209.106758 
L 168.574007 206.816216 
L 171.024159 204.525675 
L 173.474312 202.235134 
L 175.924465 199.944592 
L 178.374618 197.654051 
L 180.824771 195.36351 
L 183.274924 193.072968 
L 185.725076 190.782427 
L 188.175229 188.491886 
L 190.625382 186.201344 
L 193.075535 183.910803 
L 195.525688 181.620262 
L 197.975841 179.32972 
L 200.425993 177.039179 
L 202.876146 174.748638 
L 205.326299 172.458096 
L 207.776452 170.167555 
L 210.226605 167.877014 
L 212.676758 165.586472 
L 215.12691 163.295931 
L 217.577063 161.00539 
L 220.027216 158.714848 
L 222.477369 156.424307 
L 224.927522 154.133766 
L 227.377675 151.843224 
L 229.827827 149.552683 
L 232.27798 147.262141 
L 234.728133 144.9716 
L 237.178286 142.681059 
L 239.628439 140.390517 
L 242.078592 138.099976 
L 244.528744 135.809435 
L 246.978897 133.518893 
L 249.42905 131.228352 
L 251.879203 128.937811 
L 254.329356 126.647269 
L 256.779509 124.356728 
L 259.229661 122.066187 
L 261.679814 119.775645 
L 264.129967 117.485104 
L 266.58012 115.194563 
L 269.030273 112.904021 
L 271.480426 110.61348 
L 273.930578 108.322939 
L 276.380731 106.032397 
L 278.830884 103.741856 
L 281.281037 101.451315 
L 283.73119 99.160773 
L 286.181343 96.870232 
L 288.631495 94.579691 
L 291.081648 92.289149 
L 293.531801 89.998608 
L 295.981954 87.708067 
L 298.432107 85.417525 
L 300.88226 83.126984 
L 303.332412 80.836443 
L 305.782565 78.545901 
" clip-path="url(#p766ff123bb)" style="fill: none; stroke: #808080; stroke-width: 2.25; stroke-linecap: round"/>
   </g>
   <g id="patch_3">
    <path d="M 45 320.4 
L 45 43.2 
" style="fill: none; stroke: #262626; stroke-width: 2; stroke-linejoin: miter; stroke-linecap: square"/>
   </g>
   <g id="patch_4">
    <path d="M 45 320.4 
L 324 320.4 
" style="fill: none; stroke: #262626; stroke-width: 2; stroke-linejoin: miter; stroke-linecap: square"/>
   </g>
   <g id="text_13">
    <text style="fill: #262626; font: 16.8px 'sans-serif'; text-anchor: middle" x="184.5" y="37.2" transform="rotate(-0, 184.5, 37.2)">AraC LOV Enrichment: 2</text>
   </g>
   <g id="legend_1">
    <g id="line2d_12">
     <path d="M 57.6 61.537812 
L 71.6 61.537812 
L 85.6 61.537812 
" style="fill: none; stroke: #808080; stroke-width: 2.25; stroke-linecap: round"/>
    </g>
    <g id="text_14">
     <text style="fill: #262626; font: 14px 'sans-serif'; text-anchor: start" x="96.8" y="66.437812" transform="rotate(-0, 96.8, 66.437812)">Pearson's r: 0.82</text>
    </g>
   </g>
  </g>
 </g>
 <defs>
  <clipPath id="p766ff123bb">
   <rect x="45" y="43.2" width="279" height="277.2"/>
  </clipPath>
 </defs>
</svg>
