<?xml version="1.0" encoding="utf-8" standalone="no"?>
<!DOCTYPE svg PUBLIC "-//W3C//DTD SVG 1.1//EN"
  "http://www.w3.org/Graphics/SVG/1.1/DTD/svg11.dtd">
<!-- Created with matplotlib (https://matplotlib.org/) -->
<svg height="360pt" version="1.1" viewBox="0 0 360 360" width="360pt" xmlns="http://www.w3.org/2000/svg" xmlns:xlink="http://www.w3.org/1999/xlink">
 <metadata>
  <rdf:RDF xmlns:cc="http://creativecommons.org/ns#" xmlns:dc="http://purl.org/dc/elements/1.1/" xmlns:rdf="http://www.w3.org/1999/02/22-rdf-syntax-ns#">
   <cc:Work>
    <dc:type rdf:resource="http://purl.org/dc/dcmitype/StillImage"/>
    <dc:date>2023-04-13T14:39:26.519073</dc:date>
    <dc:format>image/svg+xml</dc:format>
    <dc:creator>
     <cc:Agent>
      <dc:title>Matplotlib v3.3.3, https://matplotlib.org/</dc:title>
     </cc:Agent>
    </dc:creator>
   </cc:Work>
  </rdf:RDF>
 </metadata>
 <defs>
  <style type="text/css">*{stroke-linecap:butt;stroke-linejoin:round;}</style>
 </defs>
 <g id="figure_1">
  <g id="patch_1">
   <path d="M 0 360 
L 360 360 
L 360 0 
L 0 0 
z
" style="fill:#ffffff;"/>
  </g>
  <g id="axes_1">
   <g id="patch_2">
    <path d="M 45 315 
L 324 315 
L 324 43.2 
L 45 43.2 
z
" style="fill:#ffffff;"/>
   </g>
   <g id="matplotlib.axis_1">
    <g id="xtick_1">
     <g id="line2d_1">
      <defs>
       <path d="M 0 0 
L 0 3.5 
" id="mf183549e9f" style="stroke:#262626;stroke-width:2;"/>
      </defs>
      <g>
       <use style="fill:#262626;stroke:#262626;stroke-width:2;" x="91.5" xlink:href="#mf183549e9f" y="315"/>
      </g>
     </g>
     <g id="text_1">
      <text style="fill:#262626;font-family:Cantarell;font-size:14px;font-stretch:normal;font-style:normal;font-weight:normal;text-anchor:middle;" transform="rotate(-0, 91.5, 332.051562)" x="91.5" y="332.051562">Coil</text>
     </g>
    </g>
    <g id="xtick_2">
     <g id="line2d_2">
      <g>
       <use style="fill:#262626;stroke:#262626;stroke-width:2;" x="184.5" xlink:href="#mf183549e9f" y="315"/>
      </g>
     </g>
     <g id="text_2">
      <text style="fill:#262626;font-family:Cantarell;font-size:14px;font-stretch:normal;font-style:normal;font-weight:normal;text-anchor:middle;" transform="rotate(-0, 184.5, 332.051562)" x="184.5" y="332.051562">Helix</text>
     </g>
    </g>
    <g id="xtick_3">
     <g id="line2d_3">
      <g>
       <use style="fill:#262626;stroke:#262626;stroke-width:2;" x="277.5" xlink:href="#mf183549e9f" y="315"/>
      </g>
     </g>
     <g id="text_3">
      <text style="fill:#262626;font-family:Cantarell;font-size:14px;font-stretch:normal;font-style:normal;font-weight:normal;text-anchor:middle;" transform="rotate(-0, 277.5, 332.051562)" x="277.5" y="332.051562">Sheet</text>
     </g>
    </g>
    <g id="text_4">
     <text style="fill:#262626;font-family:Cantarell;font-size:14px;font-stretch:normal;font-style:normal;font-weight:normal;text-anchor:middle;" transform="rotate(-0, 184.5, 349.574687)" x="184.5" y="349.574687">Sec structure</text>
    </g>
   </g>
   <g id="matplotlib.axis_2">
    <g id="ytick_1">
     <g id="line2d_4">
      <defs>
       <path d="M 0 0 
L -3.5 0 
" id="mbe6b7fe608" style="stroke:#262626;stroke-width:2;"/>
      </defs>
      <g>
       <use style="fill:#262626;stroke:#262626;stroke-width:2;" x="45" xlink:href="#mbe6b7fe608" y="306.353361"/>
      </g>
     </g>
     <g id="text_5">
      <text style="fill:#262626;font-family:Cantarell;font-size:14px;font-stretch:normal;font-style:normal;font-weight:normal;text-anchor:end;" transform="rotate(-0, 38, 311.379142)" x="38" y="311.379142">−12.5</text>
     </g>
    </g>
    <g id="ytick_2">
     <g id="line2d_5">
      <g>
       <use style="fill:#262626;stroke:#262626;stroke-width:2;" x="45" xlink:href="#mbe6b7fe608" y="274.67612"/>
      </g>
     </g>
     <g id="text_6">
      <text style="fill:#262626;font-family:Cantarell;font-size:14px;font-stretch:normal;font-style:normal;font-weight:normal;text-anchor:end;" transform="rotate(-0, 38, 279.701901)" x="38" y="279.701901">−10.0</text>
     </g>
    </g>
    <g id="ytick_3">
     <g id="line2d_6">
      <g>
       <use style="fill:#262626;stroke:#262626;stroke-width:2;" x="45" xlink:href="#mbe6b7fe608" y="242.998879"/>
      </g>
     </g>
     <g id="text_7">
      <text style="fill:#262626;font-family:Cantarell;font-size:14px;font-stretch:normal;font-style:normal;font-weight:normal;text-anchor:end;" transform="rotate(-0, 38, 248.02466)" x="38" y="248.02466">−7.5</text>
     </g>
    </g>
    <g id="ytick_4">
     <g id="line2d_7">
      <g>
       <use style="fill:#262626;stroke:#262626;stroke-width:2;" x="45" xlink:href="#mbe6b7fe608" y="211.321638"/>
      </g>
     </g>
     <g id="text_8">
      <text style="fill:#262626;font-family:Cantarell;font-size:14px;font-stretch:normal;font-style:normal;font-weight:normal;text-anchor:end;" transform="rotate(-0, 38, 216.347419)" x="38" y="216.347419">−5.0</text>
     </g>
    </g>
    <g id="ytick_5">
     <g id="line2d_8">
      <g>
       <use style="fill:#262626;stroke:#262626;stroke-width:2;" x="45" xlink:href="#mbe6b7fe608" y="179.644397"/>
      </g>
     </g>
     <g id="text_9">
      <text style="fill:#262626;font-family:Cantarell;font-size:14px;font-stretch:normal;font-style:normal;font-weight:normal;text-anchor:end;" transform="rotate(-0, 38, 184.670178)" x="38" y="184.670178">−2.5</text>
     </g>
    </g>
    <g id="ytick_6">
     <g id="line2d_9">
      <g>
       <use style="fill:#262626;stroke:#262626;stroke-width:2;" x="45" xlink:href="#mbe6b7fe608" y="147.967156"/>
      </g>
     </g>
     <g id="text_10">
      <text style="fill:#262626;font-family:Cantarell;font-size:14px;font-stretch:normal;font-style:normal;font-weight:normal;text-anchor:end;" transform="rotate(-0, 38, 152.992938)" x="38" y="152.992938">0.0</text>
     </g>
    </g>
    <g id="ytick_7">
     <g id="line2d_10">
      <g>
       <use style="fill:#262626;stroke:#262626;stroke-width:2;" x="45" xlink:href="#mbe6b7fe608" y="116.289915"/>
      </g>
     </g>
     <g id="text_11">
      <text style="fill:#262626;font-family:Cantarell;font-size:14px;font-stretch:normal;font-style:normal;font-weight:normal;text-anchor:end;" transform="rotate(-0, 38, 121.315697)" x="38" y="121.315697">2.5</text>
     </g>
    </g>
    <g id="ytick_8">
     <g id="line2d_11">
      <g>
       <use style="fill:#262626;stroke:#262626;stroke-width:2;" x="45" xlink:href="#mbe6b7fe608" y="84.612675"/>
      </g>
     </g>
     <g id="text_12">
      <text style="fill:#262626;font-family:Cantarell;font-size:14px;font-stretch:normal;font-style:normal;font-weight:normal;text-anchor:end;" transform="rotate(-0, 38, 89.638456)" x="38" y="89.638456">5.0</text>
     </g>
    </g>
    <g id="ytick_9">
     <g id="line2d_12">
      <g>
       <use style="fill:#262626;stroke:#262626;stroke-width:2;" x="45" xlink:href="#mbe6b7fe608" y="52.935434"/>
      </g>
     </g>
     <g id="text_13">
      <text style="fill:#262626;font-family:Cantarell;font-size:14px;font-stretch:normal;font-style:normal;font-weight:normal;text-anchor:end;" transform="rotate(-0, 38, 57.961215)" x="38" y="57.961215">7.5</text>
     </g>
    </g>
    <g id="text_14">
     <text style="fill:#262626;font-family:Cantarell;font-size:14px;font-stretch:normal;font-style:normal;font-weight:normal;text-anchor:middle;" transform="rotate(-90, -6.812188, 179.1)" x="-6.812188" y="179.1">Log2 variant enrichment</text>
    </g>
   </g>
   <g id="PolyCollection_1">
    <defs>
     <path d="M 91.742088 -60.808842 
L 91.257912 -60.808842 
L 91.159001 -62.993437 
L 91.034281 -65.178033 
L 90.883036 -67.362629 
L 90.706739 -69.547224 
L 90.509258 -71.73182 
L 90.296554 -73.916416 
L 90.075768 -76.101011 
L 89.853697 -78.285607 
L 89.634817 -80.470203 
L 89.419141 -82.654798 
L 89.200334 -84.839394 
L 88.964493 -87.02399 
L 88.689912 -89.208585 
L 88.347999 -91.393181 
L 87.905243 -93.577776 
L 87.325958 -95.762372 
L 86.575357 -97.946968 
L 85.622495 -100.131563 
L 84.442747 -102.316159 
L 83.019642 -104.500755 
L 81.346125 -106.68535 
L 79.425498 -108.869946 
L 77.272303 -111.054542 
L 74.913367 -113.239137 
L 72.388958 -115.423733 
L 69.753718 -117.608329 
L 67.076776 -119.792924 
L 64.44035 -121.97752 
L 61.936262 -124.162116 
L 59.660152 -126.346711 
L 57.703735 -128.531307 
L 56.146014 -130.715902 
L 55.044789 -132.900498 
L 54.429974 -135.085094 
L 54.3 -137.269689 
L 54.622049 -139.454285 
L 55.336112 -141.638881 
L 56.362146 -143.823476 
L 57.609077 -146.008072 
L 58.984186 -148.192668 
L 60.401564 -150.377263 
L 61.788706 -152.561859 
L 63.0908 -154.746455 
L 64.272692 -156.93105 
L 65.318801 -159.115646 
L 66.231327 -161.300241 
L 67.027159 -163.484837 
L 67.733828 -165.669433 
L 68.384879 -167.854028 
L 69.015141 -170.038624 
L 69.656383 -172.22322 
L 70.333903 -174.407815 
L 71.064422 -176.592411 
L 71.85544 -178.777007 
L 72.705918 -180.961602 
L 73.607855 -183.146198 
L 74.548239 -185.330794 
L 75.510866 -187.515389 
L 76.477732 -189.699985 
L 77.429969 -191.884581 
L 78.348516 -194.069176 
L 79.214841 -196.253772 
L 80.011962 -198.438367 
L 80.72582 -200.622963 
L 81.346839 -202.807559 
L 81.871279 -204.992154 
L 82.301965 -207.17675 
L 82.648045 -209.361346 
L 82.923697 -211.545941 
L 83.145979 -213.730537 
L 83.332296 -215.915133 
L 83.498057 -218.099728 
L 83.655097 -220.284324 
L 83.811174 -222.46892 
L 83.970617 -224.653515 
L 84.135817 -226.838111 
L 84.309076 -229.022706 
L 84.4942 -231.207302 
L 84.697355 -233.391898 
L 84.926897 -235.576493 
L 85.192202 -237.761089 
L 85.50181 -239.945685 
L 85.86138 -242.13028 
L 86.271979 -244.314876 
L 86.729144 -246.499472 
L 87.222944 -248.684067 
L 87.738999 -250.868663 
L 88.260234 -253.053259 
L 88.768964 -255.237854 
L 89.24893 -257.42245 
L 89.686918 -259.607045 
L 90.073772 -261.791641 
L 90.404729 -263.976237 
L 90.679153 -266.160832 
L 90.899828 -268.345428 
L 91.072006 -270.530024 
L 91.202404 -272.714619 
L 91.298291 -274.899215 
L 91.366768 -277.083811 
L 91.633232 -277.083811 
L 91.633232 -277.083811 
L 91.701709 -274.899215 
L 91.797596 -272.714619 
L 91.927994 -270.530024 
L 92.100172 -268.345428 
L 92.320847 -266.160832 
L 92.595271 -263.976237 
L 92.926228 -261.791641 
L 93.313082 -259.607045 
L 93.75107 -257.42245 
L 94.231036 -255.237854 
L 94.739766 -253.053259 
L 95.261001 -250.868663 
L 95.777056 -248.684067 
L 96.270856 -246.499472 
L 96.728021 -244.314876 
L 97.13862 -242.13028 
L 97.49819 -239.945685 
L 97.807798 -237.761089 
L 98.073103 -235.576493 
L 98.302645 -233.391898 
L 98.5058 -231.207302 
L 98.690924 -229.022706 
L 98.864183 -226.838111 
L 99.029383 -224.653515 
L 99.188826 -222.46892 
L 99.344903 -220.284324 
L 99.501943 -218.099728 
L 99.667704 -215.915133 
L 99.854021 -213.730537 
L 100.076303 -211.545941 
L 100.351955 -209.361346 
L 100.698035 -207.17675 
L 101.128721 -204.992154 
L 101.653161 -202.807559 
L 102.27418 -200.622963 
L 102.988038 -198.438367 
L 103.785159 -196.253772 
L 104.651484 -194.069176 
L 105.570031 -191.884581 
L 106.522268 -189.699985 
L 107.489134 -187.515389 
L 108.451761 -185.330794 
L 109.392145 -183.146198 
L 110.294082 -180.961602 
L 111.14456 -178.777007 
L 111.935578 -176.592411 
L 112.666097 -174.407815 
L 113.343617 -172.22322 
L 113.984859 -170.038624 
L 114.615121 -167.854028 
L 115.266172 -165.669433 
L 115.972841 -163.484837 
L 116.768673 -161.300241 
L 117.681199 -159.115646 
L 118.727308 -156.93105 
L 119.9092 -154.746455 
L 121.211294 -152.561859 
L 122.598436 -150.377263 
L 124.015814 -148.192668 
L 125.390923 -146.008072 
L 126.637854 -143.823476 
L 127.663888 -141.638881 
L 128.377951 -139.454285 
L 128.7 -137.269689 
L 128.570026 -135.085094 
L 127.955211 -132.900498 
L 126.853986 -130.715902 
L 125.296265 -128.531307 
L 123.339848 -126.346711 
L 121.063738 -124.162116 
L 118.55965 -121.97752 
L 115.923224 -119.792924 
L 113.246282 -117.608329 
L 110.611042 -115.423733 
L 108.086633 -113.239137 
L 105.727697 -111.054542 
L 103.574502 -108.869946 
L 101.653875 -106.68535 
L 99.980358 -104.500755 
L 98.557253 -102.316159 
L 97.377505 -100.131563 
L 96.424643 -97.946968 
L 95.674042 -95.762372 
L 95.094757 -93.577776 
L 94.652001 -91.393181 
L 94.310088 -89.208585 
L 94.035507 -87.02399 
L 93.799666 -84.839394 
L 93.580859 -82.654798 
L 93.365183 -80.470203 
L 93.146303 -78.285607 
L 92.924232 -76.101011 
L 92.703446 -73.916416 
L 92.490742 -71.73182 
L 92.293261 -69.547224 
L 92.116964 -67.362629 
L 91.965719 -65.178033 
L 91.840999 -62.993437 
L 91.742088 -60.808842 
z
" id="mdf2f7e74b9" style="stroke:#4d4d4d;stroke-width:2;"/>
    </defs>
    <g clip-path="url(#p041792cfa2)">
     <use style="fill:#808080;stroke:#4d4d4d;stroke-width:2;" x="0" xlink:href="#mdf2f7e74b9" y="360"/>
    </g>
   </g>
   <g id="PolyCollection_2">
    <defs>
     <path d="M 185.104614 -58.331264 
L 183.895386 -58.331264 
L 183.670613 -60.552044 
L 183.39242 -62.772825 
L 183.05996 -64.993606 
L 182.676872 -67.214387 
L 182.252018 -69.435167 
L 181.799568 -71.655948 
L 181.338222 -73.876729 
L 180.889474 -76.09751 
L 180.474997 -78.318291 
L 180.113418 -80.539071 
L 179.816911 -82.759852 
L 179.588142 -84.980633 
L 179.41809 -87.201414 
L 179.28517 -89.422195 
L 179.155867 -91.642975 
L 178.986891 -93.863756 
L 178.728579 -96.084537 
L 178.329132 -98.305318 
L 177.739182 -100.526098 
L 176.916189 -102.746879 
L 175.828286 -104.96766 
L 174.457317 -107.188441 
L 172.800958 -109.409222 
L 170.873918 -111.630002 
L 168.708264 -113.850783 
L 166.352848 -116.071564 
L 163.871798 -118.292345 
L 161.341924 -120.513125 
L 158.84889 -122.733906 
L 156.482081 -124.954687 
L 154.32825 -127.175468 
L 152.464336 -129.396249 
L 150.95014 -131.617029 
L 149.821828 -133.83781 
L 149.087358 -136.058591 
L 148.724859 -138.279372 
L 148.684649 -140.500153 
L 148.89506 -142.720933 
L 149.271552 -144.941714 
L 149.727967 -147.162495 
L 150.188273 -149.383276 
L 150.596974 -151.604056 
L 150.926489 -153.824837 
L 151.180316 -156.045618 
L 151.391478 -158.266399 
L 151.616592 -160.48718 
L 151.926606 -162.70796 
L 152.395779 -164.928741 
L 153.090662 -167.149522 
L 154.060727 -169.370303 
L 155.331902 -171.591084 
L 156.903648 -173.811864 
L 158.749637 -176.032645 
L 160.821505 -178.253426 
L 163.054777 -180.474207 
L 165.375876 -182.694987 
L 167.709169 -184.915768 
L 169.983194 -187.136549 
L 172.135495 -189.35733 
L 174.115805 -191.578111 
L 175.88761 -193.798891 
L 177.428281 -196.019672 
L 178.728116 -198.240453 
L 179.788613 -200.461234 
L 180.620308 -202.682015 
L 181.240429 -204.902795 
L 181.670574 -207.123576 
L 181.934566 -209.344357 
L 182.056621 -211.565138 
L 182.05992 -213.785918 
L 181.965682 -216.006699 
L 181.792772 -218.22748 
L 181.557828 -220.448261 
L 181.275857 -222.669042 
L 180.961105 -224.889822 
L 180.628021 -227.110603 
L 180.292054 -229.331384 
L 179.970041 -231.552165 
L 179.68005 -233.772946 
L 179.440592 -235.993726 
L 179.269301 -238.214507 
L 179.18128 -240.435288 
L 179.187383 -242.656069 
L 179.292791 -244.876849 
L 179.49613 -247.09763 
L 179.789341 -249.318411 
L 180.158353 -251.539192 
L 180.584458 -253.759973 
L 181.046195 -255.980753 
L 181.521442 -258.201534 
L 181.989417 -260.422315 
L 182.432335 -262.643096 
L 182.836533 -264.863876 
L 183.192988 -267.084657 
L 183.49726 -269.305438 
L 183.748966 -271.526219 
L 183.950943 -273.747 
L 184.108265 -275.96778 
L 184.227279 -278.188561 
L 184.772721 -278.188561 
L 184.772721 -278.188561 
L 184.891735 -275.96778 
L 185.049057 -273.747 
L 185.251034 -271.526219 
L 185.50274 -269.305438 
L 185.807012 -267.084657 
L 186.163467 -264.863876 
L 186.567665 -262.643096 
L 187.010583 -260.422315 
L 187.478558 -258.201534 
L 187.953805 -255.980753 
L 188.415542 -253.759973 
L 188.841647 -251.539192 
L 189.210659 -249.318411 
L 189.50387 -247.09763 
L 189.707209 -244.876849 
L 189.812617 -242.656069 
L 189.81872 -240.435288 
L 189.730699 -238.214507 
L 189.559408 -235.993726 
L 189.31995 -233.772946 
L 189.029959 -231.552165 
L 188.707946 -229.331384 
L 188.371979 -227.110603 
L 188.038895 -224.889822 
L 187.724143 -222.669042 
L 187.442172 -220.448261 
L 187.207228 -218.22748 
L 187.034318 -216.006699 
L 186.94008 -213.785918 
L 186.943379 -211.565138 
L 187.065434 -209.344357 
L 187.329426 -207.123576 
L 187.759571 -204.902795 
L 188.379692 -202.682015 
L 189.211387 -200.461234 
L 190.271884 -198.240453 
L 191.571719 -196.019672 
L 193.11239 -193.798891 
L 194.884195 -191.578111 
L 196.864505 -189.35733 
L 199.016806 -187.136549 
L 201.290831 -184.915768 
L 203.624124 -182.694987 
L 205.945223 -180.474207 
L 208.178495 -178.253426 
L 210.250363 -176.032645 
L 212.096352 -173.811864 
L 213.668098 -171.591084 
L 214.939273 -169.370303 
L 215.909338 -167.149522 
L 216.604221 -164.928741 
L 217.073394 -162.70796 
L 217.383408 -160.48718 
L 217.608522 -158.266399 
L 217.819684 -156.045618 
L 218.073511 -153.824837 
L 218.403026 -151.604056 
L 218.811727 -149.383276 
L 219.272033 -147.162495 
L 219.728448 -144.941714 
L 220.10494 -142.720933 
L 220.315351 -140.500153 
L 220.275141 -138.279372 
L 219.912642 -136.058591 
L 219.178172 -133.83781 
L 218.04986 -131.617029 
L 216.535664 -129.396249 
L 214.67175 -127.175468 
L 212.517919 -124.954687 
L 210.15111 -122.733906 
L 207.658076 -120.513125 
L 205.128202 -118.292345 
L 202.647152 -116.071564 
L 200.291736 -113.850783 
L 198.126082 -111.630002 
L 196.199042 -109.409222 
L 194.542683 -107.188441 
L 193.171714 -104.96766 
L 192.083811 -102.746879 
L 191.260818 -100.526098 
L 190.670868 -98.305318 
L 190.271421 -96.084537 
L 190.013109 -93.863756 
L 189.844133 -91.642975 
L 189.71483 -89.422195 
L 189.58191 -87.201414 
L 189.411858 -84.980633 
L 189.183089 -82.759852 
L 188.886582 -80.539071 
L 188.525003 -78.318291 
L 188.110526 -76.09751 
L 187.661778 -73.876729 
L 187.200432 -71.655948 
L 186.747982 -69.435167 
L 186.323128 -67.214387 
L 185.94004 -64.993606 
L 185.60758 -62.772825 
L 185.329387 -60.552044 
L 185.104614 -58.331264 
z
" id="m028ff55c48" style="stroke:#4d4d4d;stroke-width:2;"/>
    </defs>
    <g clip-path="url(#p041792cfa2)">
     <use style="fill:#808080;stroke:#4d4d4d;stroke-width:2;" x="0" xlink:href="#m028ff55c48" y="360"/>
    </g>
   </g>
   <g id="PolyCollection_3">
    <defs>
     <path d="M 277.674414 -57.354545 
L 277.325586 -57.354545 
L 277.252687 -59.850413 
L 277.15938 -62.346281 
L 277.043894 -64.842149 
L 276.905436 -67.338017 
L 276.744166 -69.833884 
L 276.560802 -72.329752 
L 276.355797 -74.82562 
L 276.128103 -77.321488 
L 275.873648 -79.817355 
L 275.583776 -82.313223 
L 275.243957 -84.809091 
L 274.833124 -87.304959 
L 274.323925 -89.800826 
L 273.684104 -92.296694 
L 272.879032 -94.792562 
L 271.875275 -97.28843 
L 270.644866 -99.784298 
L 269.169835 -102.280165 
L 267.446425 -104.776033 
L 265.488378 -107.271901 
L 263.328741 -109.767769 
L 261.019724 -112.263636 
L 258.630389 -114.759504 
L 256.242237 -117.255372 
L 253.943046 -119.75124 
L 251.819636 -122.247107 
L 249.950409 -124.742975 
L 248.398585 -127.238843 
L 247.206978 -129.734711 
L 246.394928 -132.230579 
L 245.957692 -134.726446 
L 245.868307 -137.222314 
L 246.08157 -139.718182 
L 246.539595 -142.21405 
L 247.178213 -144.709917 
L 247.933434 -147.205785 
L 248.747221 -149.701653 
L 249.571978 -152.197521 
L 250.37334 -154.693388 
L 251.131159 -157.189256 
L 251.838839 -159.685124 
L 252.501408 -162.180992 
L 253.132834 -164.67686 
L 253.753093 -167.172727 
L 254.385364 -169.668595 
L 255.053551 -172.164463 
L 255.780126 -174.660331 
L 256.584218 -177.156198 
L 257.479827 -179.652066 
L 258.474153 -182.147934 
L 259.566181 -184.643802 
L 260.745726 -187.139669 
L 261.993242 -189.635537 
L 263.280579 -192.131405 
L 264.572758 -194.627273 
L 265.830644 -197.12314 
L 267.014228 -199.619008 
L 268.086143 -202.114876 
L 269.015029 -204.610744 
L 269.778379 -207.106612 
L 270.364641 -209.602479 
L 270.774378 -212.098347 
L 271.020378 -214.594215 
L 271.126679 -217.090083 
L 271.126482 -219.58595 
L 271.059038 -222.081818 
L 270.965726 -224.577686 
L 270.885682 -227.073554 
L 270.851488 -229.569421 
L 270.885535 -232.065289 
L 270.997644 -234.561157 
L 271.184399 -237.057025 
L 271.430376 -239.552893 
L 271.71115 -242.04876 
L 271.997616 -244.544628 
L 272.260957 -247.040496 
L 272.477423 -249.536364 
L 272.632183 -252.032231 
L 272.721625 -254.528099 
L 272.753787 -257.023967 
L 272.746913 -259.519835 
L 272.726426 -262.015702 
L 272.720864 -264.51157 
L 272.75748 -267.007438 
L 272.858205 -269.503306 
L 273.036626 -271.999174 
L 273.296387 -274.495041 
L 273.631183 -276.990909 
L 274.026231 -279.486777 
L 274.460842 -281.982645 
L 274.911577 -284.478512 
L 275.355408 -286.97438 
L 275.772377 -289.470248 
L 276.147415 -291.966116 
L 276.471171 -294.461983 
L 276.739913 -296.957851 
L 276.954719 -299.453719 
L 277.120225 -301.949587 
L 277.243254 -304.445455 
L 277.756746 -304.445455 
L 277.756746 -304.445455 
L 277.879775 -301.949587 
L 278.045281 -299.453719 
L 278.260087 -296.957851 
L 278.528829 -294.461983 
L 278.852585 -291.966116 
L 279.227623 -289.470248 
L 279.644592 -286.97438 
L 280.088423 -284.478512 
L 280.539158 -281.982645 
L 280.973769 -279.486777 
L 281.368817 -276.990909 
L 281.703613 -274.495041 
L 281.963374 -271.999174 
L 282.141795 -269.503306 
L 282.24252 -267.007438 
L 282.279136 -264.51157 
L 282.273574 -262.015702 
L 282.253087 -259.519835 
L 282.246213 -257.023967 
L 282.278375 -254.528099 
L 282.367817 -252.032231 
L 282.522577 -249.536364 
L 282.739043 -247.040496 
L 283.002384 -244.544628 
L 283.28885 -242.04876 
L 283.569624 -239.552893 
L 283.815601 -237.057025 
L 284.002356 -234.561157 
L 284.114465 -232.065289 
L 284.148512 -229.569421 
L 284.114318 -227.073554 
L 284.034274 -224.577686 
L 283.940962 -222.081818 
L 283.873518 -219.58595 
L 283.873321 -217.090083 
L 283.979622 -214.594215 
L 284.225622 -212.098347 
L 284.635359 -209.602479 
L 285.221621 -207.106612 
L 285.984971 -204.610744 
L 286.913857 -202.114876 
L 287.985772 -199.619008 
L 289.169356 -197.12314 
L 290.427242 -194.627273 
L 291.719421 -192.131405 
L 293.006758 -189.635537 
L 294.254274 -187.139669 
L 295.433819 -184.643802 
L 296.525847 -182.147934 
L 297.520173 -179.652066 
L 298.415782 -177.156198 
L 299.219874 -174.660331 
L 299.946449 -172.164463 
L 300.614636 -169.668595 
L 301.246907 -167.172727 
L 301.867166 -164.67686 
L 302.498592 -162.180992 
L 303.161161 -159.685124 
L 303.868841 -157.189256 
L 304.62666 -154.693388 
L 305.428022 -152.197521 
L 306.252779 -149.701653 
L 307.066566 -147.205785 
L 307.821787 -144.709917 
L 308.460405 -142.21405 
L 308.91843 -139.718182 
L 309.131693 -137.222314 
L 309.042308 -134.726446 
L 308.605072 -132.230579 
L 307.793022 -129.734711 
L 306.601415 -127.238843 
L 305.049591 -124.742975 
L 303.180364 -122.247107 
L 301.056954 -119.75124 
L 298.757763 -117.255372 
L 296.369611 -114.759504 
L 293.980276 -112.263636 
L 291.671259 -109.767769 
L 289.511622 -107.271901 
L 287.553575 -104.776033 
L 285.830165 -102.280165 
L 284.355134 -99.784298 
L 283.124725 -97.28843 
L 282.120968 -94.792562 
L 281.315896 -92.296694 
L 280.676075 -89.800826 
L 280.166876 -87.304959 
L 279.756043 -84.809091 
L 279.416224 -82.313223 
L 279.126352 -79.817355 
L 278.871897 -77.321488 
L 278.644203 -74.82562 
L 278.439198 -72.329752 
L 278.255834 -69.833884 
L 278.094564 -67.338017 
L 277.956106 -64.842149 
L 277.84062 -62.346281 
L 277.747313 -59.850413 
L 277.674414 -57.354545 
z
" id="m93c154f350" style="stroke:#4d4d4d;stroke-width:2;"/>
    </defs>
    <g clip-path="url(#p041792cfa2)">
     <use style="fill:#808080;stroke:#4d4d4d;stroke-width:2;" x="0" xlink:href="#m93c154f350" y="360"/>
    </g>
   </g>
   <g id="line2d_13">
    <path clip-path="url(#p041792cfa2)" d="M 91.5 274.67612 
L 91.5 117.358062 
" style="fill:none;stroke:#000000;stroke-linecap:round;stroke-width:2;"/>
   </g>
   <g id="line2d_14">
    <path clip-path="url(#p041792cfa2)" d="M 91.5 226.803148 
L 91.5 182.277535 
" style="fill:none;stroke:#000000;stroke-linecap:round;stroke-width:6;"/>
   </g>
   <g id="line2d_15">
    <path clip-path="url(#p041792cfa2)" d="M 184.5 274.67612 
L 184.5 142.447638 
" style="fill:none;stroke:#000000;stroke-linecap:round;stroke-width:2;"/>
   </g>
   <g id="line2d_16">
    <path clip-path="url(#p041792cfa2)" d="M 184.5 226.472038 
L 184.5 190.177349 
" style="fill:none;stroke:#000000;stroke-linecap:round;stroke-width:6;"/>
   </g>
   <g id="line2d_17">
    <path clip-path="url(#p041792cfa2)" d="M 277.5 274.67612 
L 277.5 101.459811 
" style="fill:none;stroke:#000000;stroke-linecap:round;stroke-width:2;"/>
   </g>
   <g id="line2d_18">
    <path clip-path="url(#p041792cfa2)" d="M 277.5 228.156796 
L 277.5 176.398572 
" style="fill:none;stroke:#000000;stroke-linecap:round;stroke-width:6;"/>
   </g>
   <g id="patch_3">
    <path d="M 45 315 
L 45 43.2 
" style="fill:none;stroke:#262626;stroke-linecap:square;stroke-linejoin:miter;stroke-width:2;"/>
   </g>
   <g id="patch_4">
    <path d="M 45 315 
L 324 315 
" style="fill:none;stroke:#262626;stroke-linecap:square;stroke-linejoin:miter;stroke-width:2;"/>
   </g>
   <g id="PathCollection_1">
    <defs>
     <path d="M 0 2 
C 0.530406 2 1.03916 1.789267 1.414214 1.414214 
C 1.789267 1.03916 2 0.530406 2 0 
C 2 -0.530406 1.789267 -1.03916 1.414214 -1.414214 
C 1.03916 -1.789267 0.530406 -2 0 -2 
C -0.530406 -2 -1.03916 -1.789267 -1.414214 -1.414214 
C -1.789267 -1.03916 -2 -0.530406 -2 0 
C -2 0.530406 -1.789267 1.03916 -1.414214 1.414214 
C -1.03916 1.789267 -0.530406 2 0 2 
z
" id="mc76c9c9fc0" style="stroke:#4d4d4d;"/>
    </defs>
    <g clip-path="url(#p041792cfa2)">
     <use style="fill:#ffffff;stroke:#4d4d4d;" x="91.5" xlink:href="#mc76c9c9fc0" y="209.845007"/>
    </g>
   </g>
   <g id="PathCollection_2">
    <g clip-path="url(#p041792cfa2)">
     <use style="fill:#ffffff;stroke:#4d4d4d;" x="184.5" xlink:href="#mc76c9c9fc0" y="213.582037"/>
    </g>
   </g>
   <g id="PathCollection_3">
    <g clip-path="url(#p041792cfa2)">
     <use style="fill:#ffffff;stroke:#4d4d4d;" x="277.5" xlink:href="#mc76c9c9fc0" y="207.160546"/>
    </g>
   </g>
   <g id="text_15">
    <text style="fill:#262626;font-family:Cantarell;font-size:16.8px;font-stretch:normal;font-style:normal;font-weight:normal;text-anchor:middle;" transform="rotate(-0, 184.5, 37.2)" x="184.5" y="37.2">AraC_ERD</text>
   </g>
  </g>
 </g>
 <defs>
  <clipPath id="p041792cfa2">
   <rect height="271.8" width="279" x="45" y="43.2"/>
  </clipPath>
 </defs>
</svg>
