<?xml version="1.0" encoding="utf-8" standalone="no"?>
<!DOCTYPE svg PUBLIC "-//W3C//DTD SVG 1.1//EN"
  "http://www.w3.org/Graphics/SVG/1.1/DTD/svg11.dtd">
<svg xmlns:xlink="http://www.w3.org/1999/xlink" width="360pt" height="360pt" viewBox="0 0 360 360" xmlns="http://www.w3.org/2000/svg" version="1.1">
 <metadata>
  <rdf:RDF xmlns:dc="http://purl.org/dc/elements/1.1/" xmlns:cc="http://creativecommons.org/ns#" xmlns:rdf="http://www.w3.org/1999/02/22-rdf-syntax-ns#">
   <cc:Work>
    <dc:type rdf:resource="http://purl.org/dc/dcmitype/StillImage"/>
    <dc:date>2023-12-05T10:52:04.281079</dc:date>
    <dc:format>image/svg+xml</dc:format>
    <dc:creator>
     <cc:Agent>
      <dc:title>Matplotlib v3.5.3, https://matplotlib.org/</dc:title>
     </cc:Agent>
    </dc:creator>
   </cc:Work>
  </rdf:RDF>
 </metadata>
 <defs>
  <style type="text/css">*{stroke-linejoin: round; stroke-linecap: butt}</style>
 </defs>
 <g id="figure_1">
  <g id="patch_1">
   <path d="M 0 360 
L 360 360 
L 360 0 
L 0 0 
z
" style="fill: #ffffff"/>
  </g>
  <g id="axes_1">
   <g id="patch_2">
    <path d="M 45 320.4 
L 324 320.4 
L 324 43.2 
L 45 43.2 
z
" style="fill: #ffffff"/>
   </g>
   <g id="matplotlib.axis_1">
    <g id="xtick_1">
     <g id="line2d_1">
      <defs>
       <path id="m1cac247307" d="M 0 0 
L 0 3.5 
" style="stroke: #262626; stroke-width: 2"/>
      </defs>
      <g>
       <use xlink:href="#m1cac247307" x="91.5" y="320.4" style="fill: #262626; stroke: #262626; stroke-width: 2"/>
      </g>
     </g>
     <g id="text_1">
      <text style="fill: #262626; font: 14px 'sans-serif'; text-anchor: middle" x="91.5" y="338.037813" transform="rotate(-0, 91.5, 338.037813)">Coil</text>
     </g>
    </g>
    <g id="xtick_2">
     <g id="line2d_2">
      <g>
       <use xlink:href="#m1cac247307" x="184.5" y="320.4" style="fill: #262626; stroke: #262626; stroke-width: 2"/>
      </g>
     </g>
     <g id="text_2">
      <text style="fill: #262626; font: 14px 'sans-serif'; text-anchor: middle" x="184.5" y="338.037813" transform="rotate(-0, 184.5, 338.037813)">Helix</text>
     </g>
    </g>
    <g id="xtick_3">
     <g id="line2d_3">
      <g>
       <use xlink:href="#m1cac247307" x="277.5" y="320.4" style="fill: #262626; stroke: #262626; stroke-width: 2"/>
      </g>
     </g>
     <g id="text_3">
      <text style="fill: #262626; font: 14px 'sans-serif'; text-anchor: middle" x="277.5" y="338.037813" transform="rotate(-0, 277.5, 338.037813)">Sheet</text>
     </g>
    </g>
    <g id="text_4">
     <text style="fill: #262626; font: 14px 'sans-serif'; text-anchor: middle" x="184.5" y="355.587188" transform="rotate(-0, 184.5, 355.587188)">Sec structure</text>
    </g>
   </g>
   <g id="matplotlib.axis_2">
    <g id="ytick_1">
     <g id="line2d_4">
      <defs>
       <path id="m9f7bf3e7d8" d="M 0 0 
L -3.5 0 
" style="stroke: #262626; stroke-width: 2"/>
      </defs>
      <g>
       <use xlink:href="#m9f7bf3e7d8" x="45" y="303.593849" style="fill: #262626; stroke: #262626; stroke-width: 2"/>
      </g>
     </g>
     <g id="text_5">
      <text style="fill: #262626; font: 14px 'sans-serif'; text-anchor: end" x="38" y="308.912755" transform="rotate(-0, 38, 308.912755)">−12.5</text>
     </g>
    </g>
    <g id="ytick_2">
     <g id="line2d_5">
      <g>
       <use xlink:href="#m9f7bf3e7d8" x="45" y="269.932014" style="fill: #262626; stroke: #262626; stroke-width: 2"/>
      </g>
     </g>
     <g id="text_6">
      <text style="fill: #262626; font: 14px 'sans-serif'; text-anchor: end" x="38" y="275.25092" transform="rotate(-0, 38, 275.25092)">−10.0</text>
     </g>
    </g>
    <g id="ytick_3">
     <g id="line2d_6">
      <g>
       <use xlink:href="#m9f7bf3e7d8" x="45" y="236.270179" style="fill: #262626; stroke: #262626; stroke-width: 2"/>
      </g>
     </g>
     <g id="text_7">
      <text style="fill: #262626; font: 14px 'sans-serif'; text-anchor: end" x="38" y="241.589085" transform="rotate(-0, 38, 241.589085)">−7.5</text>
     </g>
    </g>
    <g id="ytick_4">
     <g id="line2d_7">
      <g>
       <use xlink:href="#m9f7bf3e7d8" x="45" y="202.608344" style="fill: #262626; stroke: #262626; stroke-width: 2"/>
      </g>
     </g>
     <g id="text_8">
      <text style="fill: #262626; font: 14px 'sans-serif'; text-anchor: end" x="38" y="207.92725" transform="rotate(-0, 38, 207.92725)">−5.0</text>
     </g>
    </g>
    <g id="ytick_5">
     <g id="line2d_8">
      <g>
       <use xlink:href="#m9f7bf3e7d8" x="45" y="168.946509" style="fill: #262626; stroke: #262626; stroke-width: 2"/>
      </g>
     </g>
     <g id="text_9">
      <text style="fill: #262626; font: 14px 'sans-serif'; text-anchor: end" x="38" y="174.265415" transform="rotate(-0, 38, 174.265415)">−2.5</text>
     </g>
    </g>
    <g id="ytick_6">
     <g id="line2d_9">
      <g>
       <use xlink:href="#m9f7bf3e7d8" x="45" y="135.284674" style="fill: #262626; stroke: #262626; stroke-width: 2"/>
      </g>
     </g>
     <g id="text_10">
      <text style="fill: #262626; font: 14px 'sans-serif'; text-anchor: end" x="38" y="140.60358" transform="rotate(-0, 38, 140.60358)">0.0</text>
     </g>
    </g>
    <g id="ytick_7">
     <g id="line2d_10">
      <g>
       <use xlink:href="#m9f7bf3e7d8" x="45" y="101.622839" style="fill: #262626; stroke: #262626; stroke-width: 2"/>
      </g>
     </g>
     <g id="text_11">
      <text style="fill: #262626; font: 14px 'sans-serif'; text-anchor: end" x="38" y="106.941745" transform="rotate(-0, 38, 106.941745)">2.5</text>
     </g>
    </g>
    <g id="ytick_8">
     <g id="line2d_11">
      <g>
       <use xlink:href="#m9f7bf3e7d8" x="45" y="67.961004" style="fill: #262626; stroke: #262626; stroke-width: 2"/>
      </g>
     </g>
     <g id="text_12">
      <text style="fill: #262626; font: 14px 'sans-serif'; text-anchor: end" x="38" y="73.27991" transform="rotate(-0, 38, 73.27991)">5.0</text>
     </g>
    </g>
    <g id="text_13">
     <text style="fill: #262626; font: 14px 'sans-serif'; text-anchor: middle" x="-11.815" y="181.8" transform="rotate(-90, -11.815, 181.8)">Log2 variant enrichment</text>
    </g>
   </g>
   <g id="PolyCollection_1">
    <defs>
     <path id="m4fe27abd7c" d="M 91.936623 -56.730348 
L 91.063377 -56.730348 
L 90.91565 -59.199016 
L 90.733559 -61.667684 
L 90.514303 -64.136352 
L 90.25621 -66.60502 
L 89.95885 -69.073688 
L 89.622917 -71.542356 
L 89.249821 -74.011025 
L 88.840985 -76.479693 
L 88.396886 -78.948361 
L 87.915949 -81.417029 
L 87.39348 -83.885697 
L 86.820841 -86.354365 
L 86.185091 -88.823033 
L 85.469296 -91.291701 
L 84.653606 -93.760369 
L 83.717122 -96.229037 
L 82.640423 -98.697705 
L 81.408509 -101.166373 
L 80.013803 -103.635042 
L 78.45881 -106.10371 
L 76.758032 -108.572378 
L 74.938792 -111.041046 
L 73.040749 -113.509714 
L 71.114051 -115.978382 
L 69.216237 -118.44705 
L 67.408193 -120.915718 
L 65.749574 -123.384386 
L 64.294229 -125.853054 
L 63.086138 -128.321722 
L 62.156348 -130.79039 
L 61.521247 -133.259059 
L 61.18235 -135.727727 
L 61.127549 -138.196395 
L 61.333609 -140.665063 
L 61.7695 -143.133731 
L 62.400078 -145.602399 
L 63.189606 -148.071067 
L 64.10466 -150.539735 
L 65.116117 -153.008403 
L 66.200087 -155.477071 
L 67.337834 -157.945739 
L 68.514887 -160.414407 
L 69.719661 -162.883076 
L 70.94191 -165.351744 
L 72.171339 -167.820412 
L 73.396587 -170.28908 
L 74.604703 -172.757748 
L 75.781123 -175.226416 
L 76.91005 -177.695084 
L 77.975112 -180.163752 
L 78.960142 -182.63242 
L 79.849951 -185.101088 
L 80.630997 -187.569756 
L 81.291915 -190.038424 
L 81.823924 -192.507092 
L 82.221114 -194.975761 
L 82.480688 -197.444429 
L 82.603183 -199.913097 
L 82.592682 -202.381765 
L 82.457001 -204.850433 
L 82.207811 -207.319101 
L 81.860606 -209.787769 
L 81.434448 -212.256437 
L 80.951427 -214.725105 
L 80.435806 -217.193773 
L 79.91288 -219.662441 
L 79.407648 -222.131109 
L 78.943442 -224.599778 
L 78.54069 -227.068446 
L 78.215978 -229.537114 
L 77.98156 -232.005782 
L 77.84534 -234.47445 
L 77.811317 -236.943118 
L 77.880353 -239.411786 
L 78.051076 -241.880454 
L 78.320719 -244.349122 
L 78.685709 -246.81779 
L 79.141896 -249.286458 
L 79.68441 -251.755126 
L 80.307219 -254.223795 
L 81.002545 -256.692463 
L 81.760333 -259.161131 
L 82.567943 -261.629799 
L 83.410213 -264.098467 
L 84.269924 -266.567135 
L 85.128643 -269.035803 
L 85.967835 -271.504471 
L 86.770069 -273.973139 
L 87.520156 -276.441807 
L 88.206056 -278.910475 
L 88.819458 -281.379143 
L 89.355977 -283.847812 
L 89.814979 -286.31648 
L 90.199114 -288.785148 
L 90.513637 -291.253816 
L 90.765624 -293.722484 
L 90.963196 -296.191152 
L 91.114816 -298.65982 
L 91.228716 -301.128488 
L 91.771284 -301.128488 
L 91.771284 -301.128488 
L 91.885184 -298.65982 
L 92.036804 -296.191152 
L 92.234376 -293.722484 
L 92.486363 -291.253816 
L 92.800886 -288.785148 
L 93.185021 -286.31648 
L 93.644023 -283.847812 
L 94.180542 -281.379143 
L 94.793944 -278.910475 
L 95.479844 -276.441807 
L 96.229931 -273.973139 
L 97.032165 -271.504471 
L 97.871357 -269.035803 
L 98.730076 -266.567135 
L 99.589787 -264.098467 
L 100.432057 -261.629799 
L 101.239667 -259.161131 
L 101.997455 -256.692463 
L 102.692781 -254.223795 
L 103.31559 -251.755126 
L 103.858104 -249.286458 
L 104.314291 -246.81779 
L 104.679281 -244.349122 
L 104.948924 -241.880454 
L 105.119647 -239.411786 
L 105.188683 -236.943118 
L 105.15466 -234.47445 
L 105.01844 -232.005782 
L 104.784022 -229.537114 
L 104.45931 -227.068446 
L 104.056558 -224.599778 
L 103.592352 -222.131109 
L 103.08712 -219.662441 
L 102.564194 -217.193773 
L 102.048573 -214.725105 
L 101.565552 -212.256437 
L 101.139394 -209.787769 
L 100.792189 -207.319101 
L 100.542999 -204.850433 
L 100.407318 -202.381765 
L 100.396817 -199.913097 
L 100.519312 -197.444429 
L 100.778886 -194.975761 
L 101.176076 -192.507092 
L 101.708085 -190.038424 
L 102.369003 -187.569756 
L 103.150049 -185.101088 
L 104.039858 -182.63242 
L 105.024888 -180.163752 
L 106.08995 -177.695084 
L 107.218877 -175.226416 
L 108.395297 -172.757748 
L 109.603413 -170.28908 
L 110.828661 -167.820412 
L 112.05809 -165.351744 
L 113.280339 -162.883076 
L 114.485113 -160.414407 
L 115.662166 -157.945739 
L 116.799913 -155.477071 
L 117.883883 -153.008403 
L 118.89534 -150.539735 
L 119.810394 -148.071067 
L 120.599922 -145.602399 
L 121.2305 -143.133731 
L 121.666391 -140.665063 
L 121.872451 -138.196395 
L 121.81765 -135.727727 
L 121.478753 -133.259059 
L 120.843652 -130.79039 
L 119.913862 -128.321722 
L 118.705771 -125.853054 
L 117.250426 -123.384386 
L 115.591807 -120.915718 
L 113.783763 -118.44705 
L 111.885949 -115.978382 
L 109.959251 -113.509714 
L 108.061208 -111.041046 
L 106.241968 -108.572378 
L 104.54119 -106.10371 
L 102.986197 -103.635042 
L 101.591491 -101.166373 
L 100.359577 -98.697705 
L 99.282878 -96.229037 
L 98.346394 -93.760369 
L 97.530704 -91.291701 
L 96.814909 -88.823033 
L 96.179159 -86.354365 
L 95.60652 -83.885697 
L 95.084051 -81.417029 
L 94.603114 -78.948361 
L 94.159015 -76.479693 
L 93.750179 -74.011025 
L 93.377083 -71.542356 
L 93.04115 -69.073688 
L 92.74379 -66.60502 
L 92.485697 -64.136352 
L 92.266441 -61.667684 
L 92.08435 -59.199016 
L 91.936623 -56.730348 
z
" style="stroke: #4d4d4d; stroke-width: 2"/>
    </defs>
    <g clip-path="url(#pd125e263c4)">
     <use xlink:href="#m4fe27abd7c" x="0" y="360" style="fill: #808080; stroke: #4d4d4d; stroke-width: 2"/>
    </g>
   </g>
   <g id="PolyCollection_2">
    <defs>
     <path id="m579299cdd9" d="M 185.276924 -52.2 
L 183.723076 -52.2 
L 183.489692 -54.745455 
L 183.208775 -57.290909 
L 182.877778 -59.836364 
L 182.496038 -62.381818 
L 182.065102 -64.927273 
L 181.588865 -67.472727 
L 181.073428 -70.018182 
L 180.526659 -72.563636 
L 179.957426 -75.109091 
L 179.374561 -77.654545 
L 178.785645 -80.2 
L 178.195756 -82.745455 
L 177.606348 -85.290909 
L 177.014468 -87.836364 
L 176.412456 -90.381818 
L 175.788264 -92.927273 
L 175.12644 -95.472727 
L 174.409734 -98.018182 
L 173.621198 -100.563636 
L 172.746553 -103.109091 
L 171.776553 -105.654545 
L 170.70905 -108.2 
L 169.550451 -110.745455 
L 168.316372 -113.290909 
L 167.031324 -115.836364 
L 165.727426 -118.381818 
L 164.442238 -120.927273 
L 163.215921 -123.472727 
L 162.088026 -126.018182 
L 161.094244 -128.563636 
L 160.263487 -131.109091 
L 159.615581 -133.654545 
L 159.159838 -136.2 
L 158.894617 -138.745455 
L 158.807906 -141.290909 
L 158.878828 -143.836364 
L 159.079891 -146.381818 
L 159.379723 -148.927273 
L 159.746003 -151.472727 
L 160.148308 -154.018182 
L 160.560604 -156.563636 
L 160.963189 -159.109091 
L 161.343933 -161.654545 
L 161.698761 -164.2 
L 162.031388 -166.745455 
L 162.352364 -169.290909 
L 162.677562 -171.836364 
L 163.026262 -174.381818 
L 163.419012 -176.927273 
L 163.875445 -179.472727 
L 164.412245 -182.018182 
L 165.041411 -184.563636 
L 165.768944 -187.109091 
L 166.594063 -189.654545 
L 167.508981 -192.2 
L 168.499245 -194.745455 
L 169.544589 -197.290909 
L 170.620209 -199.836364 
L 171.698346 -202.381818 
L 172.750023 -204.927273 
L 173.746799 -207.472727 
L 174.662412 -210.018182 
L 175.474186 -212.563636 
L 176.164135 -215.109091 
L 176.71972 -217.654545 
L 177.134256 -220.2 
L 177.406986 -222.745455 
L 177.54289 -225.290909 
L 177.55226 -227.836364 
L 177.450115 -230.381818 
L 177.255492 -232.927273 
L 176.990641 -235.472727 
L 176.680148 -238.018182 
L 176.349979 -240.563636 
L 176.026449 -243.109091 
L 175.735138 -245.654545 
L 175.499768 -248.2 
L 175.341085 -250.745455 
L 175.27583 -253.290909 
L 175.315857 -255.836364 
L 175.467504 -258.381818 
L 175.73128 -260.927273 
L 176.101922 -263.472727 
L 176.568844 -266.018182 
L 177.116951 -268.563636 
L 177.727754 -271.109091 
L 178.380689 -273.654545 
L 179.054515 -276.2 
L 179.728665 -278.745455 
L 180.384443 -281.290909 
L 181.005955 -283.836364 
L 181.580739 -286.381818 
L 182.100047 -288.927273 
L 182.558825 -291.472727 
L 182.955421 -294.018182 
L 183.291085 -296.563636 
L 183.569361 -299.109091 
L 183.795419 -301.654545 
L 183.97542 -304.2 
L 185.02458 -304.2 
L 185.02458 -304.2 
L 185.204581 -301.654545 
L 185.430639 -299.109091 
L 185.708915 -296.563636 
L 186.044579 -294.018182 
L 186.441175 -291.472727 
L 186.899953 -288.927273 
L 187.419261 -286.381818 
L 187.994045 -283.836364 
L 188.615557 -281.290909 
L 189.271335 -278.745455 
L 189.945485 -276.2 
L 190.619311 -273.654545 
L 191.272246 -271.109091 
L 191.883049 -268.563636 
L 192.431156 -266.018182 
L 192.898078 -263.472727 
L 193.26872 -260.927273 
L 193.532496 -258.381818 
L 193.684143 -255.836364 
L 193.72417 -253.290909 
L 193.658915 -250.745455 
L 193.500232 -248.2 
L 193.264862 -245.654545 
L 192.973551 -243.109091 
L 192.650021 -240.563636 
L 192.319852 -238.018182 
L 192.009359 -235.472727 
L 191.744508 -232.927273 
L 191.549885 -230.381818 
L 191.44774 -227.836364 
L 191.45711 -225.290909 
L 191.593014 -222.745455 
L 191.865744 -220.2 
L 192.28028 -217.654545 
L 192.835865 -215.109091 
L 193.525814 -212.563636 
L 194.337588 -210.018182 
L 195.253201 -207.472727 
L 196.249977 -204.927273 
L 197.301654 -202.381818 
L 198.379791 -199.836364 
L 199.455411 -197.290909 
L 200.500755 -194.745455 
L 201.491019 -192.2 
L 202.405937 -189.654545 
L 203.231056 -187.109091 
L 203.958589 -184.563636 
L 204.587755 -182.018182 
L 205.124555 -179.472727 
L 205.580988 -176.927273 
L 205.973738 -174.381818 
L 206.322438 -171.836364 
L 206.647636 -169.290909 
L 206.968612 -166.745455 
L 207.301239 -164.2 
L 207.656067 -161.654545 
L 208.036811 -159.109091 
L 208.439396 -156.563636 
L 208.851692 -154.018182 
L 209.253997 -151.472727 
L 209.620277 -148.927273 
L 209.920109 -146.381818 
L 210.121172 -143.836364 
L 210.192094 -141.290909 
L 210.105383 -138.745455 
L 209.840162 -136.2 
L 209.384419 -133.654545 
L 208.736513 -131.109091 
L 207.905756 -128.563636 
L 206.911974 -126.018182 
L 205.784079 -123.472727 
L 204.557762 -120.927273 
L 203.272574 -118.381818 
L 201.968676 -115.836364 
L 200.683628 -113.290909 
L 199.449549 -110.745455 
L 198.29095 -108.2 
L 197.223447 -105.654545 
L 196.253447 -103.109091 
L 195.378802 -100.563636 
L 194.590266 -98.018182 
L 193.87356 -95.472727 
L 193.211736 -92.927273 
L 192.587544 -90.381818 
L 191.985532 -87.836364 
L 191.393652 -85.290909 
L 190.804244 -82.745455 
L 190.214355 -80.2 
L 189.625439 -77.654545 
L 189.042574 -75.109091 
L 188.473341 -72.563636 
L 187.926572 -70.018182 
L 187.411135 -67.472727 
L 186.934898 -64.927273 
L 186.503962 -62.381818 
L 186.122222 -59.836364 
L 185.791225 -57.290909 
L 185.510308 -54.745455 
L 185.276924 -52.2 
z
" style="stroke: #4d4d4d; stroke-width: 2"/>
    </defs>
    <g clip-path="url(#pd125e263c4)">
     <use xlink:href="#m579299cdd9" x="0" y="360" style="fill: #808080; stroke: #4d4d4d; stroke-width: 2"/>
    </g>
   </g>
   <g id="PolyCollection_3">
    <defs>
     <path id="m17fe74a50d" d="M 277.806338 -60.076996 
L 277.193662 -60.076996 
L 277.076447 -62.542152 
L 276.928515 -65.007307 
L 276.746924 -67.472462 
L 276.529797 -69.937617 
L 276.276324 -72.402773 
L 275.986422 -74.867928 
L 275.659951 -77.333083 
L 275.295505 -79.798238 
L 274.888876 -82.263394 
L 274.431387 -84.728549 
L 273.908404 -87.193704 
L 273.298389 -89.65886 
L 272.572835 -92.124015 
L 271.697387 -94.58917 
L 270.6343 -97.054325 
L 269.346215 -99.519481 
L 267.801028 -101.984636 
L 265.977397 -104.449791 
L 263.870266 -106.914946 
L 261.495631 -109.380102 
L 258.893742 -111.845257 
L 256.129979 -114.310412 
L 253.29287 -116.775568 
L 250.489016 -119.240723 
L 247.835159 -121.705878 
L 245.448095 -124.171033 
L 243.433587 -126.636189 
L 241.875721 -129.101344 
L 240.828252 -131.566499 
L 240.309258 -134.031654 
L 240.3 -136.49681 
L 240.748196 -138.961965 
L 241.575262 -141.42712 
L 242.686412 -143.892276 
L 243.982077 -146.357431 
L 245.36901 -148.822586 
L 246.769531 -151.287741 
L 248.127825 -153.752897 
L 249.412715 -156.218052 
L 250.616939 -158.683207 
L 251.753444 -161.148362 
L 252.84958 -163.613518 
L 253.940253 -166.078673 
L 255.061063 -168.543828 
L 256.242334 -171.008984 
L 257.504649 -173.474139 
L 258.856254 -175.939294 
L 260.292351 -178.404449 
L 261.796095 -180.869605 
L 263.340895 -183.33476 
L 264.893523 -185.799915 
L 266.417514 -188.26507 
L 267.876389 -190.730226 
L 269.23632 -193.195381 
L 270.468036 -195.660536 
L 271.547871 -198.125691 
L 272.458023 -200.590847 
L 273.186207 -203.056002 
L 273.724903 -205.521157 
L 274.070506 -207.986313 
L 274.222584 -210.451468 
L 274.183474 -212.916623 
L 273.958326 -215.381778 
L 273.555633 -217.846934 
L 272.988181 -220.312089 
L 272.274228 -222.777244 
L 271.438648 -225.242399 
L 270.513711 -227.707555 
L 269.539144 -230.17271 
L 268.561197 -232.637865 
L 267.630571 -235.103021 
L 266.799247 -237.568176 
L 266.116489 -240.033331 
L 265.624498 -242.498486 
L 265.354339 -244.963642 
L 265.322773 -247.428797 
L 265.530557 -249.893952 
L 265.962512 -252.359107 
L 266.589421 -254.824263 
L 267.371449 -257.289418 
L 268.262571 -259.754573 
L 269.215321 -262.219729 
L 270.185169 -264.684884 
L 271.133953 -267.150039 
L 272.032027 -269.615194 
L 272.859017 -272.08035 
L 273.603361 -274.545505 
L 274.260939 -277.01066 
L 274.833225 -279.475815 
L 275.325353 -281.940971 
L 275.744415 -284.406126 
L 276.098163 -286.871281 
L 276.394196 -289.336437 
L 276.639547 -291.801592 
L 276.840587 -294.266747 
L 277.003087 -296.731902 
L 277.132349 -299.197058 
L 277.233301 -301.662213 
L 277.310547 -304.127368 
L 277.689453 -304.127368 
L 277.689453 -304.127368 
L 277.766699 -301.662213 
L 277.867651 -299.197058 
L 277.996913 -296.731902 
L 278.159413 -294.266747 
L 278.360453 -291.801592 
L 278.605804 -289.336437 
L 278.901837 -286.871281 
L 279.255585 -284.406126 
L 279.674647 -281.940971 
L 280.166775 -279.475815 
L 280.739061 -277.01066 
L 281.396639 -274.545505 
L 282.140983 -272.08035 
L 282.967973 -269.615194 
L 283.866047 -267.150039 
L 284.814831 -264.684884 
L 285.784679 -262.219729 
L 286.737429 -259.754573 
L 287.628551 -257.289418 
L 288.410579 -254.824263 
L 289.037488 -252.359107 
L 289.469443 -249.893952 
L 289.677227 -247.428797 
L 289.645661 -244.963642 
L 289.375502 -242.498486 
L 288.883511 -240.033331 
L 288.200753 -237.568176 
L 287.369429 -235.103021 
L 286.438803 -232.637865 
L 285.460856 -230.17271 
L 284.486289 -227.707555 
L 283.561352 -225.242399 
L 282.725772 -222.777244 
L 282.011819 -220.312089 
L 281.444367 -217.846934 
L 281.041674 -215.381778 
L 280.816526 -212.916623 
L 280.777416 -210.451468 
L 280.929494 -207.986313 
L 281.275097 -205.521157 
L 281.813793 -203.056002 
L 282.541977 -200.590847 
L 283.452129 -198.125691 
L 284.531964 -195.660536 
L 285.76368 -193.195381 
L 287.123611 -190.730226 
L 288.582486 -188.26507 
L 290.106477 -185.799915 
L 291.659105 -183.33476 
L 293.203905 -180.869605 
L 294.707649 -178.404449 
L 296.143746 -175.939294 
L 297.495351 -173.474139 
L 298.757666 -171.008984 
L 299.938937 -168.543828 
L 301.059747 -166.078673 
L 302.15042 -163.613518 
L 303.246556 -161.148362 
L 304.383061 -158.683207 
L 305.587285 -156.218052 
L 306.872175 -153.752897 
L 308.230469 -151.287741 
L 309.63099 -148.822586 
L 311.017923 -146.357431 
L 312.313588 -143.892276 
L 313.424738 -141.42712 
L 314.251804 -138.961965 
L 314.7 -136.49681 
L 314.690742 -134.031654 
L 314.171748 -131.566499 
L 313.124279 -129.101344 
L 311.566413 -126.636189 
L 309.551905 -124.171033 
L 307.164841 -121.705878 
L 304.510984 -119.240723 
L 301.70713 -116.775568 
L 298.870021 -114.310412 
L 296.106258 -111.845257 
L 293.504369 -109.380102 
L 291.129734 -106.914946 
L 289.022603 -104.449791 
L 287.198972 -101.984636 
L 285.653785 -99.519481 
L 284.3657 -97.054325 
L 283.302613 -94.58917 
L 282.427165 -92.124015 
L 281.701611 -89.65886 
L 281.091596 -87.193704 
L 280.568613 -84.728549 
L 280.111124 -82.263394 
L 279.704495 -79.798238 
L 279.340049 -77.333083 
L 279.013578 -74.867928 
L 278.723676 -72.402773 
L 278.470203 -69.937617 
L 278.253076 -67.472462 
L 278.071485 -65.007307 
L 277.923553 -62.542152 
L 277.806338 -60.076996 
z
" style="stroke: #4d4d4d; stroke-width: 2"/>
    </defs>
    <g clip-path="url(#pd125e263c4)">
     <use xlink:href="#m17fe74a50d" x="0" y="360" style="fill: #808080; stroke: #4d4d4d; stroke-width: 2"/>
    </g>
   </g>
   <g id="line2d_12">
    <path d="M 91.5 269.932014 
L 91.5 92.20915 
" clip-path="url(#pd125e263c4)" style="fill: none; stroke: #000000; stroke-width: 2; stroke-linecap: round"/>
   </g>
   <g id="line2d_13">
    <path d="M 91.5 229.204059 
L 91.5 143.87149 
" clip-path="url(#pd125e263c4)" style="fill: none; stroke: #000000; stroke-width: 6; stroke-linecap: round"/>
   </g>
   <g id="line2d_14">
    <path d="M 184.5 269.932014 
L 184.5 93.667986 
" clip-path="url(#pd125e263c4)" style="fill: none; stroke: #000000; stroke-width: 2; stroke-linecap: round"/>
   </g>
   <g id="line2d_15">
    <path d="M 184.5 226.741682 
L 184.5 171.223065 
" clip-path="url(#pd125e263c4)" style="fill: none; stroke: #000000; stroke-width: 6; stroke-linecap: round"/>
   </g>
   <g id="line2d_16">
    <path d="M 277.5 269.932014 
L 277.5 115.032782 
" clip-path="url(#pd125e263c4)" style="fill: none; stroke: #000000; stroke-width: 2; stroke-linecap: round"/>
   </g>
   <g id="line2d_17">
    <path d="M 277.5 229.061416 
L 277.5 183.422774 
" clip-path="url(#pd125e263c4)" style="fill: none; stroke: #000000; stroke-width: 6; stroke-linecap: round"/>
   </g>
   <g id="patch_3">
    <path d="M 45 320.4 
L 45 43.2 
" style="fill: none; stroke: #262626; stroke-width: 2; stroke-linejoin: miter; stroke-linecap: square"/>
   </g>
   <g id="patch_4">
    <path d="M 45 320.4 
L 324 320.4 
" style="fill: none; stroke: #262626; stroke-width: 2; stroke-linejoin: miter; stroke-linecap: square"/>
   </g>
   <g id="PathCollection_1">
    <defs>
     <path id="m8ca32140c1" d="M 0 2 
C 0.530406 2 1.03916 1.789267 1.414214 1.414214 
C 1.789267 1.03916 2 0.530406 2 0 
C 2 -0.530406 1.789267 -1.03916 1.414214 -1.414214 
C 1.03916 -1.789267 0.530406 -2 0 -2 
C -0.530406 -2 -1.03916 -1.789267 -1.414214 -1.414214 
C -1.789267 -1.03916 -2 -0.530406 -2 0 
C -2 0.530406 -1.789267 1.03916 -1.414214 1.414214 
C -1.03916 1.789267 -0.530406 2 0 2 
z
" style="stroke: #4d4d4d"/>
    </defs>
    <g clip-path="url(#pd125e263c4)">
     <use xlink:href="#m8ca32140c1" x="91.5" y="203.526514" style="fill: #ffffff; stroke: #4d4d4d"/>
    </g>
   </g>
   <g id="PathCollection_2">
    <g clip-path="url(#pd125e263c4)">
     <use xlink:href="#m8ca32140c1" x="184.5" y="203.050123" style="fill: #ffffff; stroke: #4d4d4d"/>
    </g>
   </g>
   <g id="PathCollection_3">
    <g clip-path="url(#pd125e263c4)">
     <use xlink:href="#m8ca32140c1" x="277.5" y="213.192395" style="fill: #ffffff; stroke: #4d4d4d"/>
    </g>
   </g>
   <g id="text_14">
    <text style="fill: #262626; font: 16.8px 'sans-serif'; text-anchor: middle" x="184.5" y="37.2" transform="rotate(-0, 184.5, 37.2)">AraC_PDZ</text>
   </g>
  </g>
 </g>
 <defs>
  <clipPath id="pd125e263c4">
   <rect x="45" y="43.2" width="279" height="277.2"/>
  </clipPath>
 </defs>
</svg>
