<?xml version="1.0" encoding="utf-8" standalone="no"?>
<!DOCTYPE svg PUBLIC "-//W3C//DTD SVG 1.1//EN"
  "http://www.w3.org/Graphics/SVG/1.1/DTD/svg11.dtd">
<svg xmlns:xlink="http://www.w3.org/1999/xlink" width="360pt" height="360pt" viewBox="0 0 360 360" xmlns="http://www.w3.org/2000/svg" version="1.1">
 <metadata>
  <rdf:RDF xmlns:dc="http://purl.org/dc/elements/1.1/" xmlns:cc="http://creativecommons.org/ns#" xmlns:rdf="http://www.w3.org/1999/02/22-rdf-syntax-ns#">
   <cc:Work>
    <dc:type rdf:resource="http://purl.org/dc/dcmitype/StillImage"/>
    <dc:date>2023-12-05T10:52:04.766683</dc:date>
    <dc:format>image/svg+xml</dc:format>
    <dc:creator>
     <cc:Agent>
      <dc:title>Matplotlib v3.5.3, https://matplotlib.org/</dc:title>
     </cc:Agent>
    </dc:creator>
   </cc:Work>
  </rdf:RDF>
 </metadata>
 <defs>
  <style type="text/css">*{stroke-linejoin: round; stroke-linecap: butt}</style>
 </defs>
 <g id="figure_1">
  <g id="patch_1">
   <path d="M 0 360 
L 360 360 
L 360 0 
L 0 0 
z
" style="fill: #ffffff"/>
  </g>
  <g id="axes_1">
   <g id="patch_2">
    <path d="M 45 320.4 
L 324 320.4 
L 324 43.2 
L 45 43.2 
z
" style="fill: #ffffff"/>
   </g>
   <g id="matplotlib.axis_1">
    <g id="xtick_1">
     <g id="line2d_1">
      <defs>
       <path id="m570330d7cd" d="M 0 0 
L 0 3.5 
" style="stroke: #262626; stroke-width: 2"/>
      </defs>
      <g>
       <use xlink:href="#m570330d7cd" x="91.5" y="320.4" style="fill: #262626; stroke: #262626; stroke-width: 2"/>
      </g>
     </g>
     <g id="text_1">
      <text style="fill: #262626; font: 14px 'sans-serif'; text-anchor: middle" x="91.5" y="338.037813" transform="rotate(-0, 91.5, 338.037813)">Coil</text>
     </g>
    </g>
    <g id="xtick_2">
     <g id="line2d_2">
      <g>
       <use xlink:href="#m570330d7cd" x="184.5" y="320.4" style="fill: #262626; stroke: #262626; stroke-width: 2"/>
      </g>
     </g>
     <g id="text_2">
      <text style="fill: #262626; font: 14px 'sans-serif'; text-anchor: middle" x="184.5" y="338.037813" transform="rotate(-0, 184.5, 338.037813)">Helix</text>
     </g>
    </g>
    <g id="xtick_3">
     <g id="line2d_3">
      <g>
       <use xlink:href="#m570330d7cd" x="277.5" y="320.4" style="fill: #262626; stroke: #262626; stroke-width: 2"/>
      </g>
     </g>
     <g id="text_3">
      <text style="fill: #262626; font: 14px 'sans-serif'; text-anchor: middle" x="277.5" y="338.037813" transform="rotate(-0, 277.5, 338.037813)">Sheet</text>
     </g>
    </g>
    <g id="text_4">
     <text style="fill: #262626; font: 14px 'sans-serif'; text-anchor: middle" x="184.5" y="355.587188" transform="rotate(-0, 184.5, 355.587188)">Sec structure</text>
    </g>
   </g>
   <g id="matplotlib.axis_2">
    <g id="ytick_1">
     <g id="line2d_4">
      <defs>
       <path id="mb0d991b82c" d="M 0 0 
L -3.5 0 
" style="stroke: #262626; stroke-width: 2"/>
      </defs>
      <g>
       <use xlink:href="#mb0d991b82c" x="45" y="313.347855" style="fill: #262626; stroke: #262626; stroke-width: 2"/>
      </g>
     </g>
     <g id="text_5">
      <text style="fill: #262626; font: 14px 'sans-serif'; text-anchor: end" x="38" y="318.666762" transform="rotate(-0, 38, 318.666762)">−12.5</text>
     </g>
    </g>
    <g id="ytick_2">
     <g id="line2d_5">
      <g>
       <use xlink:href="#mb0d991b82c" x="45" y="278.53288" style="fill: #262626; stroke: #262626; stroke-width: 2"/>
      </g>
     </g>
     <g id="text_6">
      <text style="fill: #262626; font: 14px 'sans-serif'; text-anchor: end" x="38" y="283.851786" transform="rotate(-0, 38, 283.851786)">−10.0</text>
     </g>
    </g>
    <g id="ytick_3">
     <g id="line2d_6">
      <g>
       <use xlink:href="#mb0d991b82c" x="45" y="243.717904" style="fill: #262626; stroke: #262626; stroke-width: 2"/>
      </g>
     </g>
     <g id="text_7">
      <text style="fill: #262626; font: 14px 'sans-serif'; text-anchor: end" x="38" y="249.03681" transform="rotate(-0, 38, 249.03681)">−7.5</text>
     </g>
    </g>
    <g id="ytick_4">
     <g id="line2d_7">
      <g>
       <use xlink:href="#mb0d991b82c" x="45" y="208.902928" style="fill: #262626; stroke: #262626; stroke-width: 2"/>
      </g>
     </g>
     <g id="text_8">
      <text style="fill: #262626; font: 14px 'sans-serif'; text-anchor: end" x="38" y="214.221835" transform="rotate(-0, 38, 214.221835)">−5.0</text>
     </g>
    </g>
    <g id="ytick_5">
     <g id="line2d_8">
      <g>
       <use xlink:href="#mb0d991b82c" x="45" y="174.087953" style="fill: #262626; stroke: #262626; stroke-width: 2"/>
      </g>
     </g>
     <g id="text_9">
      <text style="fill: #262626; font: 14px 'sans-serif'; text-anchor: end" x="38" y="179.406859" transform="rotate(-0, 38, 179.406859)">−2.5</text>
     </g>
    </g>
    <g id="ytick_6">
     <g id="line2d_9">
      <g>
       <use xlink:href="#mb0d991b82c" x="45" y="139.272977" style="fill: #262626; stroke: #262626; stroke-width: 2"/>
      </g>
     </g>
     <g id="text_10">
      <text style="fill: #262626; font: 14px 'sans-serif'; text-anchor: end" x="38" y="144.591883" transform="rotate(-0, 38, 144.591883)">0.0</text>
     </g>
    </g>
    <g id="ytick_7">
     <g id="line2d_10">
      <g>
       <use xlink:href="#mb0d991b82c" x="45" y="104.458002" style="fill: #262626; stroke: #262626; stroke-width: 2"/>
      </g>
     </g>
     <g id="text_11">
      <text style="fill: #262626; font: 14px 'sans-serif'; text-anchor: end" x="38" y="109.776908" transform="rotate(-0, 38, 109.776908)">2.5</text>
     </g>
    </g>
    <g id="ytick_8">
     <g id="line2d_11">
      <g>
       <use xlink:href="#mb0d991b82c" x="45" y="69.643026" style="fill: #262626; stroke: #262626; stroke-width: 2"/>
      </g>
     </g>
     <g id="text_12">
      <text style="fill: #262626; font: 14px 'sans-serif'; text-anchor: end" x="38" y="74.961932" transform="rotate(-0, 38, 74.961932)">5.0</text>
     </g>
    </g>
    <g id="text_13">
     <text style="fill: #262626; font: 14px 'sans-serif'; text-anchor: middle" x="-11.815" y="181.8" transform="rotate(-90, -11.815, 181.8)">Log2 variant enrichment</text>
    </g>
   </g>
   <g id="PolyCollection_1">
    <defs>
     <path id="m322c30cb62" d="M 93.265401 -53.68922 
L 89.734599 -53.68922 
L 88.995995 -56.204589 
L 88.060482 -58.719958 
L 86.923743 -61.235327 
L 85.600987 -63.750697 
L 84.130362 -66.266066 
L 82.573053 -68.781435 
L 81.009102 -71.296805 
L 79.528791 -73.812174 
L 78.220499 -76.327543 
L 77.156955 -78.842913 
L 76.3825 -81.358282 
L 75.904078 -83.873651 
L 75.68809 -86.38902 
L 75.664085 -88.90439 
L 75.73487 -91.419759 
L 75.791239 -93.935128 
L 75.728634 -96.450498 
L 75.462747 -98.965867 
L 74.941418 -101.481236 
L 74.151009 -103.996606 
L 73.116517 -106.511975 
L 71.895762 -109.027344 
L 70.568918 -111.542713 
L 69.225229 -114.058083 
L 67.949111 -116.573452 
L 66.807753 -119.088821 
L 65.842102 -121.604191 
L 65.062499 -124.11956 
L 64.449518 -126.634929 
L 63.959694 -129.150299 
L 63.535037 -131.665668 
L 63.114582 -134.181037 
L 62.645963 -136.696407 
L 62.09506 -139.211776 
L 61.45225 -141.727145 
L 60.734527 -144.242514 
L 59.98352 -146.757884 
L 59.260178 -149.273253 
L 58.637298 -151.788622 
L 58.191235 -154.303992 
L 57.993946 -156.819361 
L 58.106218 -159.33473 
L 58.572496 -161.8501 
L 59.417429 -164.365469 
L 60.644057 -166.880838 
L 62.233494 -169.396207 
L 64.146043 -171.911577 
L 66.323718 -174.426946 
L 68.694141 -176.942315 
L 71.175694 -179.457685 
L 73.683587 -181.973054 
L 76.136284 -184.488423 
L 78.461563 -187.003793 
L 80.60144 -189.519162 
L 82.515327 -192.034531 
L 84.181084 -194.5499 
L 85.593967 -197.06527 
L 86.763848 -199.580639 
L 87.711324 -202.096008 
L 88.463417 -204.611378 
L 89.049543 -207.126747 
L 89.498208 -209.642116 
L 89.834693 -212.157486 
L 90.079745 -214.672855 
L 90.249121 -217.188224 
L 90.353766 -219.703593 
L 90.400373 -222.218963 
L 90.392159 -224.734332 
L 90.329738 -227.249701 
L 90.212068 -229.765071 
L 90.037485 -232.28044 
L 89.804843 -234.795809 
L 89.514741 -237.311179 
L 89.170755 -239.826548 
L 88.78053 -242.341917 
L 88.356529 -244.857287 
L 87.916225 -247.372656 
L 87.481587 -249.888025 
L 87.077771 -252.403394 
L 86.731101 -254.918764 
L 86.466536 -257.434133 
L 86.304982 -259.949502 
L 86.260829 -262.464872 
L 86.340143 -264.980241 
L 86.539807 -267.49561 
L 86.847774 -270.01098 
L 87.244418 -272.526349 
L 87.704752 -275.041718 
L 88.201177 -277.557087 
L 88.706335 -280.072457 
L 89.195659 -282.587826 
L 89.649289 -285.103195 
L 90.053187 -287.618565 
L 90.399394 -290.133934 
L 90.685554 -292.649303 
L 90.913901 -295.164673 
L 91.089958 -297.680042 
L 91.22119 -300.195411 
L 91.315799 -302.71078 
L 91.684201 -302.71078 
L 91.684201 -302.71078 
L 91.77881 -300.195411 
L 91.910042 -297.680042 
L 92.086099 -295.164673 
L 92.314446 -292.649303 
L 92.600606 -290.133934 
L 92.946813 -287.618565 
L 93.350711 -285.103195 
L 93.804341 -282.587826 
L 94.293665 -280.072457 
L 94.798823 -277.557087 
L 95.295248 -275.041718 
L 95.755582 -272.526349 
L 96.152226 -270.01098 
L 96.460193 -267.49561 
L 96.659857 -264.980241 
L 96.739171 -262.464872 
L 96.695018 -259.949502 
L 96.533464 -257.434133 
L 96.268899 -254.918764 
L 95.922229 -252.403394 
L 95.518413 -249.888025 
L 95.083775 -247.372656 
L 94.643471 -244.857287 
L 94.21947 -242.341917 
L 93.829245 -239.826548 
L 93.485259 -237.311179 
L 93.195157 -234.795809 
L 92.962515 -232.28044 
L 92.787932 -229.765071 
L 92.670262 -227.249701 
L 92.607841 -224.734332 
L 92.599627 -222.218963 
L 92.646234 -219.703593 
L 92.750879 -217.188224 
L 92.920255 -214.672855 
L 93.165307 -212.157486 
L 93.501792 -209.642116 
L 93.950457 -207.126747 
L 94.536583 -204.611378 
L 95.288676 -202.096008 
L 96.236152 -199.580639 
L 97.406033 -197.06527 
L 98.818916 -194.5499 
L 100.484673 -192.034531 
L 102.39856 -189.519162 
L 104.538437 -187.003793 
L 106.863716 -184.488423 
L 109.316413 -181.973054 
L 111.824306 -179.457685 
L 114.305859 -176.942315 
L 116.676282 -174.426946 
L 118.853957 -171.911577 
L 120.766506 -169.396207 
L 122.355943 -166.880838 
L 123.582571 -164.365469 
L 124.427504 -161.8501 
L 124.893782 -159.33473 
L 125.006054 -156.819361 
L 124.808765 -154.303992 
L 124.362702 -151.788622 
L 123.739822 -149.273253 
L 123.01648 -146.757884 
L 122.265473 -144.242514 
L 121.54775 -141.727145 
L 120.90494 -139.211776 
L 120.354037 -136.696407 
L 119.885418 -134.181037 
L 119.464963 -131.665668 
L 119.040306 -129.150299 
L 118.550482 -126.634929 
L 117.937501 -124.11956 
L 117.157898 -121.604191 
L 116.192247 -119.088821 
L 115.050889 -116.573452 
L 113.774771 -114.058083 
L 112.431082 -111.542713 
L 111.104238 -109.027344 
L 109.883483 -106.511975 
L 108.848991 -103.996606 
L 108.058582 -101.481236 
L 107.537253 -98.965867 
L 107.271366 -96.450498 
L 107.208761 -93.935128 
L 107.26513 -91.419759 
L 107.335915 -88.90439 
L 107.31191 -86.38902 
L 107.095922 -83.873651 
L 106.6175 -81.358282 
L 105.843045 -78.842913 
L 104.779501 -76.327543 
L 103.471209 -73.812174 
L 101.990898 -71.296805 
L 100.426947 -68.781435 
L 98.869638 -66.266066 
L 97.399013 -63.750697 
L 96.076257 -61.235327 
L 94.939518 -58.719958 
L 94.004005 -56.204589 
L 93.265401 -53.68922 
z
" style="stroke: #4d4d4d; stroke-width: 2"/>
    </defs>
    <g clip-path="url(#p79b77d8a0e)">
     <use xlink:href="#m322c30cb62" x="0" y="360" style="fill: #808080; stroke: #4d4d4d; stroke-width: 2"/>
    </g>
   </g>
   <g id="PolyCollection_2">
    <defs>
     <path id="m9ec6e59f76" d="M 186.559246 -52.2 
L 182.440754 -52.2 
L 181.623417 -54.745455 
L 180.600197 -57.290909 
L 179.36851 -59.836364 
L 177.945646 -62.381818 
L 176.372241 -64.927273 
L 174.712751 -67.472727 
L 173.05198 -70.018182 
L 171.48742 -72.563636 
L 170.118027 -75.109091 
L 169.030983 -77.654545 
L 168.288673 -80.2 
L 167.918322 -82.745455 
L 167.90643 -85.290909 
L 168.199249 -87.836364 
L 168.709395 -90.381818 
L 169.327451 -92.927273 
L 169.936486 -95.472727 
L 170.426947 -98.018182 
L 170.709478 -100.563636 
L 170.723839 -103.109091 
L 170.442935 -105.654545 
L 169.871968 -108.2 
L 169.043474 -110.745455 
L 168.009578 -113.290909 
L 166.832954 -115.836364 
L 165.57794 -118.381818 
L 164.302945 -120.927273 
L 163.054957 -123.472727 
L 161.866517 -126.018182 
L 160.755209 -128.563636 
L 159.725388 -131.109091 
L 158.771645 -133.654545 
L 157.883341 -136.2 
L 157.049491 -138.745455 
L 156.26324 -141.290909 
L 155.525341 -143.836364 
L 154.846165 -146.381818 
L 154.246041 -148.927273 
L 153.753969 -151.472727 
L 153.404934 -154.018182 
L 153.236249 -156.563636 
L 153.283409 -159.109091 
L 153.575986 -161.654545 
L 154.13403 -164.2 
L 154.965401 -166.745455 
L 156.064312 -169.290909 
L 157.411251 -171.836364 
L 158.974261 -174.381818 
L 160.711407 -176.927273 
L 162.574083 -179.472727 
L 164.510724 -182.018182 
L 166.470432 -184.563636 
L 168.406119 -187.109091 
L 170.276845 -189.654545 
L 172.049241 -192.2 
L 173.698038 -194.745455 
L 175.205856 -197.290909 
L 176.562469 -199.836364 
L 177.763774 -202.381818 
L 178.810623 -204.927273 
L 179.707653 -207.472727 
L 180.462163 -210.018182 
L 181.083058 -212.563636 
L 181.579871 -215.109091 
L 181.961866 -217.654545 
L 182.237268 -220.2 
L 182.412685 -222.745455 
L 182.492806 -225.290909 
L 182.480482 -227.836364 
L 182.377259 -230.381818 
L 182.184397 -232.927273 
L 181.904323 -235.472727 
L 181.542345 -238.018182 
L 181.108371 -240.563636 
L 180.618263 -243.109091 
L 180.094487 -245.654545 
L 179.565726 -248.2 
L 179.065325 -250.745455 
L 178.628617 -253.290909 
L 178.289459 -255.836364 
L 178.076461 -258.381818 
L 178.009556 -260.927273 
L 178.097509 -263.472727 
L 178.336812 -266.018182 
L 178.712177 -268.563636 
L 179.198526 -271.109091 
L 179.764112 -273.654545 
L 180.374232 -276.2 
L 180.994921 -278.745455 
L 181.596106 -281.290909 
L 182.15384 -283.836364 
L 182.651442 -286.381818 
L 183.07961 -288.927273 
L 183.435671 -291.472727 
L 183.722278 -294.018182 
L 183.945847 -296.563636 
L 184.115002 -299.109091 
L 184.239225 -301.654545 
L 184.327813 -304.2 
L 184.672187 -304.2 
L 184.672187 -304.2 
L 184.760775 -301.654545 
L 184.884998 -299.109091 
L 185.054153 -296.563636 
L 185.277722 -294.018182 
L 185.564329 -291.472727 
L 185.92039 -288.927273 
L 186.348558 -286.381818 
L 186.84616 -283.836364 
L 187.403894 -281.290909 
L 188.005079 -278.745455 
L 188.625768 -276.2 
L 189.235888 -273.654545 
L 189.801474 -271.109091 
L 190.287823 -268.563636 
L 190.663188 -266.018182 
L 190.902491 -263.472727 
L 190.990444 -260.927273 
L 190.923539 -258.381818 
L 190.710541 -255.836364 
L 190.371383 -253.290909 
L 189.934675 -250.745455 
L 189.434274 -248.2 
L 188.905513 -245.654545 
L 188.381737 -243.109091 
L 187.891629 -240.563636 
L 187.457655 -238.018182 
L 187.095677 -235.472727 
L 186.815603 -232.927273 
L 186.622741 -230.381818 
L 186.519518 -227.836364 
L 186.507194 -225.290909 
L 186.587315 -222.745455 
L 186.762732 -220.2 
L 187.038134 -217.654545 
L 187.420129 -215.109091 
L 187.916942 -212.563636 
L 188.537837 -210.018182 
L 189.292347 -207.472727 
L 190.189377 -204.927273 
L 191.236226 -202.381818 
L 192.437531 -199.836364 
L 193.794144 -197.290909 
L 195.301962 -194.745455 
L 196.950759 -192.2 
L 198.723155 -189.654545 
L 200.593881 -187.109091 
L 202.529568 -184.563636 
L 204.489276 -182.018182 
L 206.425917 -179.472727 
L 208.288593 -176.927273 
L 210.025739 -174.381818 
L 211.588749 -171.836364 
L 212.935688 -169.290909 
L 214.034599 -166.745455 
L 214.86597 -164.2 
L 215.424014 -161.654545 
L 215.716591 -159.109091 
L 215.763751 -156.563636 
L 215.595066 -154.018182 
L 215.246031 -151.472727 
L 214.753959 -148.927273 
L 214.153835 -146.381818 
L 213.474659 -143.836364 
L 212.73676 -141.290909 
L 211.950509 -138.745455 
L 211.116659 -136.2 
L 210.228355 -133.654545 
L 209.274612 -131.109091 
L 208.244791 -128.563636 
L 207.133483 -126.018182 
L 205.945043 -123.472727 
L 204.697055 -120.927273 
L 203.42206 -118.381818 
L 202.167046 -115.836364 
L 200.990422 -113.290909 
L 199.956526 -110.745455 
L 199.128032 -108.2 
L 198.557065 -105.654545 
L 198.276161 -103.109091 
L 198.290522 -100.563636 
L 198.573053 -98.018182 
L 199.063514 -95.472727 
L 199.672549 -92.927273 
L 200.290605 -90.381818 
L 200.800751 -87.836364 
L 201.09357 -85.290909 
L 201.081678 -82.745455 
L 200.711327 -80.2 
L 199.969017 -77.654545 
L 198.881973 -75.109091 
L 197.51258 -72.563636 
L 195.94802 -70.018182 
L 194.287249 -67.472727 
L 192.627759 -64.927273 
L 191.054354 -62.381818 
L 189.63149 -59.836364 
L 188.399803 -57.290909 
L 187.376583 -54.745455 
L 186.559246 -52.2 
z
" style="stroke: #4d4d4d; stroke-width: 2"/>
    </defs>
    <g clip-path="url(#p79b77d8a0e)">
     <use xlink:href="#m9ec6e59f76" x="0" y="360" style="fill: #808080; stroke: #4d4d4d; stroke-width: 2"/>
    </g>
   </g>
   <g id="PolyCollection_3">
    <defs>
     <path id="m6c75995a7a" d="M 279.114931 -55.01681 
L 275.885069 -55.01681 
L 275.306622 -57.081772 
L 274.591018 -59.146734 
L 273.732179 -61.211696 
L 272.733143 -63.276659 
L 271.60804 -65.341621 
L 270.383007 -67.406583 
L 269.095604 -69.471545 
L 267.792477 -71.536507 
L 266.525269 -73.601469 
L 265.345121 -75.666431 
L 264.296426 -77.731393 
L 263.410762 -79.796355 
L 262.701989 -81.861317 
L 262.163467 -83.926279 
L 261.767996 -85.991241 
L 261.470723 -88.056203 
L 261.214704 -90.121165 
L 260.93838 -92.186127 
L 260.583859 -94.251089 
L 260.104762 -96.316051 
L 259.472446 -98.381013 
L 258.679711 -100.445975 
L 257.741504 -102.510937 
L 256.69262 -104.575899 
L 255.582875 -106.640861 
L 254.470544 -108.705823 
L 253.415077 -110.770785 
L 252.470127 -112.835747 
L 251.677752 -114.900709 
L 251.064436 -116.965671 
L 250.639216 -119.030633 
L 250.393894 -121.095595 
L 250.305034 -123.160557 
L 250.337265 -125.225519 
L 250.447299 -127.290481 
L 250.588111 -129.355443 
L 250.712806 -131.420405 
L 250.777841 -133.485368 
L 250.745463 -135.55033 
L 250.585349 -137.615292 
L 250.2756 -139.680254 
L 249.803325 -141.745216 
L 249.165027 -143.810178 
L 248.367038 -145.87514 
L 247.42606 -147.940102 
L 246.369802 -150.005064 
L 245.237488 -152.070026 
L 244.079933 -154.134988 
L 242.958776 -156.19995 
L 241.944511 -158.264912 
L 241.113098 -160.329874 
L 240.541149 -162.394836 
L 240.3 -164.459798 
L 240.449235 -166.52476 
L 241.030487 -168.589722 
L 242.062389 -170.654684 
L 243.537501 -172.719646 
L 245.42177 -174.784608 
L 247.65675 -176.84957 
L 250.164361 -178.914532 
L 252.853577 -180.979494 
L 255.628177 -183.044456 
L 258.394526 -185.109418 
L 261.068451 -187.17438 
L 263.580451 -189.239342 
L 265.878813 -191.304304 
L 267.930546 -193.369266 
L 269.720374 -195.434228 
L 271.248243 -197.49919 
L 272.525938 -199.564152 
L 273.573402 -201.629114 
L 274.415257 -203.694077 
L 275.077901 -205.759039 
L 275.587358 -207.824001 
L 275.967932 -209.888963 
L 276.241558 -211.953925 
L 276.427705 -214.018887 
L 276.543618 -216.083849 
L 276.6047 -218.148811 
L 276.624901 -220.213773 
L 276.616967 -222.278735 
L 276.592529 -224.343697 
L 276.562009 -226.408659 
L 276.534392 -228.473621 
L 276.516939 -230.538583 
L 276.514919 -232.603545 
L 276.531437 -234.668507 
L 276.567422 -236.733469 
L 276.621792 -238.798431 
L 276.691802 -240.863393 
L 276.773511 -242.928355 
L 276.862336 -244.993317 
L 276.953587 -247.058279 
L 277.042955 -249.123241 
L 277.12686 -251.188203 
L 277.202671 -253.253165 
L 277.268772 -255.318127 
L 277.324502 -257.383089 
L 277.370005 -259.448051 
L 277.629995 -259.448051 
L 277.629995 -259.448051 
L 277.675498 -257.383089 
L 277.731228 -255.318127 
L 277.797329 -253.253165 
L 277.87314 -251.188203 
L 277.957045 -249.123241 
L 278.046413 -247.058279 
L 278.137664 -244.993317 
L 278.226489 -242.928355 
L 278.308198 -240.863393 
L 278.378208 -238.798431 
L 278.432578 -236.733469 
L 278.468563 -234.668507 
L 278.485081 -232.603545 
L 278.483061 -230.538583 
L 278.465608 -228.473621 
L 278.437991 -226.408659 
L 278.407471 -224.343697 
L 278.383033 -222.278735 
L 278.375099 -220.213773 
L 278.3953 -218.148811 
L 278.456382 -216.083849 
L 278.572295 -214.018887 
L 278.758442 -211.953925 
L 279.032068 -209.888963 
L 279.412642 -207.824001 
L 279.922099 -205.759039 
L 280.584743 -203.694077 
L 281.426598 -201.629114 
L 282.474062 -199.564152 
L 283.751757 -197.49919 
L 285.279626 -195.434228 
L 287.069454 -193.369266 
L 289.121187 -191.304304 
L 291.419549 -189.239342 
L 293.931549 -187.17438 
L 296.605474 -185.109418 
L 299.371823 -183.044456 
L 302.146423 -180.979494 
L 304.835639 -178.914532 
L 307.34325 -176.84957 
L 309.57823 -174.784608 
L 311.462499 -172.719646 
L 312.937611 -170.654684 
L 313.969513 -168.589722 
L 314.550765 -166.52476 
L 314.7 -164.459798 
L 314.458851 -162.394836 
L 313.886902 -160.329874 
L 313.055489 -158.264912 
L 312.041224 -156.19995 
L 310.920067 -154.134988 
L 309.762512 -152.070026 
L 308.630198 -150.005064 
L 307.57394 -147.940102 
L 306.632962 -145.87514 
L 305.834973 -143.810178 
L 305.196675 -141.745216 
L 304.7244 -139.680254 
L 304.414651 -137.615292 
L 304.254537 -135.55033 
L 304.222159 -133.485368 
L 304.287194 -131.420405 
L 304.411889 -129.355443 
L 304.552701 -127.290481 
L 304.662735 -125.225519 
L 304.694966 -123.160557 
L 304.606106 -121.095595 
L 304.360784 -119.030633 
L 303.935564 -116.965671 
L 303.322248 -114.900709 
L 302.529873 -112.835747 
L 301.584923 -110.770785 
L 300.529456 -108.705823 
L 299.417125 -106.640861 
L 298.30738 -104.575899 
L 297.258496 -102.510937 
L 296.320289 -100.445975 
L 295.527554 -98.381013 
L 294.895238 -96.316051 
L 294.416141 -94.251089 
L 294.06162 -92.186127 
L 293.785296 -90.121165 
L 293.529277 -88.056203 
L 293.232004 -85.991241 
L 292.836533 -83.926279 
L 292.298011 -81.861317 
L 291.589238 -79.796355 
L 290.703574 -77.731393 
L 289.654879 -75.666431 
L 288.474731 -73.601469 
L 287.207523 -71.536507 
L 285.904396 -69.471545 
L 284.616993 -67.406583 
L 283.39196 -65.341621 
L 282.266857 -63.276659 
L 281.267821 -61.211696 
L 280.408982 -59.146734 
L 279.693378 -57.081772 
L 279.114931 -55.01681 
z
" style="stroke: #4d4d4d; stroke-width: 2"/>
    </defs>
    <g clip-path="url(#p79b77d8a0e)">
     <use xlink:href="#m6c75995a7a" x="0" y="360" style="fill: #808080; stroke: #4d4d4d; stroke-width: 2"/>
    </g>
   </g>
   <g id="line2d_12">
    <path d="M 91.5 278.53288 
L 91.5 131.890868 
" clip-path="url(#p79b77d8a0e)" style="fill: none; stroke: #000000; stroke-width: 2; stroke-linecap: round"/>
   </g>
   <g id="line2d_13">
    <path d="M 91.5 242.827369 
L 91.5 194.458119 
" clip-path="url(#p79b77d8a0e)" style="fill: none; stroke: #000000; stroke-width: 6; stroke-linecap: round"/>
   </g>
   <g id="line2d_14">
    <path d="M 184.5 278.53288 
L 184.5 111.704748 
" clip-path="url(#p79b77d8a0e)" style="fill: none; stroke: #000000; stroke-width: 2; stroke-linecap: round"/>
   </g>
   <g id="line2d_15">
    <path d="M 184.5 241.245197 
L 184.5 188.782882 
" clip-path="url(#p79b77d8a0e)" style="fill: none; stroke: #000000; stroke-width: 6; stroke-linecap: round"/>
   </g>
   <g id="line2d_16">
    <path d="M 277.5 278.53288 
L 277.5 127.002259 
" clip-path="url(#p79b77d8a0e)" style="fill: none; stroke: #000000; stroke-width: 2; stroke-linecap: round"/>
   </g>
   <g id="line2d_17">
    <path d="M 277.5 246.036579 
L 277.5 192.267598 
" clip-path="url(#p79b77d8a0e)" style="fill: none; stroke: #000000; stroke-width: 6; stroke-linecap: round"/>
   </g>
   <g id="patch_3">
    <path d="M 45 320.4 
L 45 43.2 
" style="fill: none; stroke: #262626; stroke-width: 2; stroke-linejoin: miter; stroke-linecap: square"/>
   </g>
   <g id="patch_4">
    <path d="M 45 320.4 
L 324 320.4 
" style="fill: none; stroke: #262626; stroke-width: 2; stroke-linejoin: miter; stroke-linecap: square"/>
   </g>
   <g id="PathCollection_1">
    <defs>
     <path id="m16324cf9f4" d="M 0 2 
C 0.530406 2 1.03916 1.789267 1.414214 1.414214 
C 1.789267 1.03916 2 0.530406 2 0 
C 2 -0.530406 1.789267 -1.03916 1.414214 -1.414214 
C 1.03916 -1.789267 0.530406 -2 0 -2 
C -0.530406 -2 -1.03916 -1.789267 -1.414214 -1.414214 
C -1.789267 -1.03916 -2 -0.530406 -2 0 
C -2 0.530406 -1.789267 1.03916 -1.414214 1.414214 
C -1.03916 1.789267 -0.530406 2 0 2 
z
" style="stroke: #4d4d4d"/>
    </defs>
    <g clip-path="url(#p79b77d8a0e)">
     <use xlink:href="#m16324cf9f4" x="91.5" y="214.356738" style="fill: #ffffff; stroke: #4d4d4d"/>
    </g>
   </g>
   <g id="PathCollection_2">
    <g clip-path="url(#p79b77d8a0e)">
     <use xlink:href="#m16324cf9f4" x="184.5" y="210.182073" style="fill: #ffffff; stroke: #4d4d4d"/>
    </g>
   </g>
   <g id="PathCollection_3">
    <g clip-path="url(#p79b77d8a0e)">
     <use xlink:href="#m16324cf9f4" x="277.5" y="216.693085" style="fill: #ffffff; stroke: #4d4d4d"/>
    </g>
   </g>
   <g id="text_14">
    <text style="fill: #262626; font: 16.8px 'sans-serif'; text-anchor: middle" x="184.5" y="37.2" transform="rotate(-0, 184.5, 37.2)">Flp_PDZ</text>
   </g>
  </g>
 </g>
 <defs>
  <clipPath id="p79b77d8a0e">
   <rect x="45" y="43.2" width="279" height="277.2"/>
  </clipPath>
 </defs>
</svg>
