<?xml version="1.0" encoding="utf-8" standalone="no"?>
<!DOCTYPE svg PUBLIC "-//W3C//DTD SVG 1.1//EN"
  "http://www.w3.org/Graphics/SVG/1.1/DTD/svg11.dtd">
<svg xmlns:xlink="http://www.w3.org/1999/xlink" width="360pt" height="360pt" viewBox="0 0 360 360" xmlns="http://www.w3.org/2000/svg" version="1.1">
 <metadata>
  <rdf:RDF xmlns:dc="http://purl.org/dc/elements/1.1/" xmlns:cc="http://creativecommons.org/ns#" xmlns:rdf="http://www.w3.org/1999/02/22-rdf-syntax-ns#">
   <cc:Work>
    <dc:type rdf:resource="http://purl.org/dc/dcmitype/StillImage"/>
    <dc:date>2023-12-05T10:52:03.456402</dc:date>
    <dc:format>image/svg+xml</dc:format>
    <dc:creator>
     <cc:Agent>
      <dc:title>Matplotlib v3.5.3, https://matplotlib.org/</dc:title>
     </cc:Agent>
    </dc:creator>
   </cc:Work>
  </rdf:RDF>
 </metadata>
 <defs>
  <style type="text/css">*{stroke-linejoin: round; stroke-linecap: butt}</style>
 </defs>
 <g id="figure_1">
  <g id="patch_1">
   <path d="M 0 360 
L 360 360 
L 360 0 
L 0 0 
z
" style="fill: #ffffff"/>
  </g>
  <g id="axes_1">
   <g id="patch_2">
    <path d="M 45 320.4 
L 324 320.4 
L 324 43.2 
L 45 43.2 
z
" style="fill: #ffffff"/>
   </g>
   <g id="matplotlib.axis_1">
    <g id="xtick_1">
     <g id="line2d_1">
      <defs>
       <path id="m947c467ccc" d="M 0 0 
L 0 3.5 
" style="stroke: #262626; stroke-width: 2"/>
      </defs>
      <g>
       <use xlink:href="#m947c467ccc" x="91.5" y="320.4" style="fill: #262626; stroke: #262626; stroke-width: 2"/>
      </g>
     </g>
     <g id="text_1">
      <text style="fill: #262626; font: 14px 'sans-serif'; text-anchor: middle" x="91.5" y="338.037813" transform="rotate(-0, 91.5, 338.037813)">Coil</text>
     </g>
    </g>
    <g id="xtick_2">
     <g id="line2d_2">
      <g>
       <use xlink:href="#m947c467ccc" x="184.5" y="320.4" style="fill: #262626; stroke: #262626; stroke-width: 2"/>
      </g>
     </g>
     <g id="text_2">
      <text style="fill: #262626; font: 14px 'sans-serif'; text-anchor: middle" x="184.5" y="338.037813" transform="rotate(-0, 184.5, 338.037813)">Helix</text>
     </g>
    </g>
    <g id="xtick_3">
     <g id="line2d_3">
      <g>
       <use xlink:href="#m947c467ccc" x="277.5" y="320.4" style="fill: #262626; stroke: #262626; stroke-width: 2"/>
      </g>
     </g>
     <g id="text_3">
      <text style="fill: #262626; font: 14px 'sans-serif'; text-anchor: middle" x="277.5" y="338.037813" transform="rotate(-0, 277.5, 338.037813)">Sheet</text>
     </g>
    </g>
    <g id="text_4">
     <text style="fill: #262626; font: 14px 'sans-serif'; text-anchor: middle" x="184.5" y="355.587188" transform="rotate(-0, 184.5, 355.587188)">Sec structure</text>
    </g>
   </g>
   <g id="matplotlib.axis_2">
    <g id="ytick_1">
     <g id="line2d_4">
      <defs>
       <path id="m09b1372d7d" d="M 0 0 
L -3.5 0 
" style="stroke: #262626; stroke-width: 2"/>
      </defs>
      <g>
       <use xlink:href="#m09b1372d7d" x="45" y="311.581573" style="fill: #262626; stroke: #262626; stroke-width: 2"/>
      </g>
     </g>
     <g id="text_5">
      <text style="fill: #262626; font: 14px 'sans-serif'; text-anchor: end" x="38" y="316.900479" transform="rotate(-0, 38, 316.900479)">−12.5</text>
     </g>
    </g>
    <g id="ytick_2">
     <g id="line2d_5">
      <g>
       <use xlink:href="#m09b1372d7d" x="45" y="279.274983" style="fill: #262626; stroke: #262626; stroke-width: 2"/>
      </g>
     </g>
     <g id="text_6">
      <text style="fill: #262626; font: 14px 'sans-serif'; text-anchor: end" x="38" y="284.593889" transform="rotate(-0, 38, 284.593889)">−10.0</text>
     </g>
    </g>
    <g id="ytick_3">
     <g id="line2d_6">
      <g>
       <use xlink:href="#m09b1372d7d" x="45" y="246.968393" style="fill: #262626; stroke: #262626; stroke-width: 2"/>
      </g>
     </g>
     <g id="text_7">
      <text style="fill: #262626; font: 14px 'sans-serif'; text-anchor: end" x="38" y="252.287299" transform="rotate(-0, 38, 252.287299)">−7.5</text>
     </g>
    </g>
    <g id="ytick_4">
     <g id="line2d_7">
      <g>
       <use xlink:href="#m09b1372d7d" x="45" y="214.661803" style="fill: #262626; stroke: #262626; stroke-width: 2"/>
      </g>
     </g>
     <g id="text_8">
      <text style="fill: #262626; font: 14px 'sans-serif'; text-anchor: end" x="38" y="219.980709" transform="rotate(-0, 38, 219.980709)">−5.0</text>
     </g>
    </g>
    <g id="ytick_5">
     <g id="line2d_8">
      <g>
       <use xlink:href="#m09b1372d7d" x="45" y="182.355213" style="fill: #262626; stroke: #262626; stroke-width: 2"/>
      </g>
     </g>
     <g id="text_9">
      <text style="fill: #262626; font: 14px 'sans-serif'; text-anchor: end" x="38" y="187.674119" transform="rotate(-0, 38, 187.674119)">−2.5</text>
     </g>
    </g>
    <g id="ytick_6">
     <g id="line2d_9">
      <g>
       <use xlink:href="#m09b1372d7d" x="45" y="150.048623" style="fill: #262626; stroke: #262626; stroke-width: 2"/>
      </g>
     </g>
     <g id="text_10">
      <text style="fill: #262626; font: 14px 'sans-serif'; text-anchor: end" x="38" y="155.367529" transform="rotate(-0, 38, 155.367529)">0.0</text>
     </g>
    </g>
    <g id="ytick_7">
     <g id="line2d_10">
      <g>
       <use xlink:href="#m09b1372d7d" x="45" y="117.742033" style="fill: #262626; stroke: #262626; stroke-width: 2"/>
      </g>
     </g>
     <g id="text_11">
      <text style="fill: #262626; font: 14px 'sans-serif'; text-anchor: end" x="38" y="123.060939" transform="rotate(-0, 38, 123.060939)">2.5</text>
     </g>
    </g>
    <g id="ytick_8">
     <g id="line2d_11">
      <g>
       <use xlink:href="#m09b1372d7d" x="45" y="85.435443" style="fill: #262626; stroke: #262626; stroke-width: 2"/>
      </g>
     </g>
     <g id="text_12">
      <text style="fill: #262626; font: 14px 'sans-serif'; text-anchor: end" x="38" y="90.754349" transform="rotate(-0, 38, 90.754349)">5.0</text>
     </g>
    </g>
    <g id="ytick_9">
     <g id="line2d_12">
      <g>
       <use xlink:href="#m09b1372d7d" x="45" y="53.128853" style="fill: #262626; stroke: #262626; stroke-width: 2"/>
      </g>
     </g>
     <g id="text_13">
      <text style="fill: #262626; font: 14px 'sans-serif'; text-anchor: end" x="38" y="58.447759" transform="rotate(-0, 38, 58.447759)">7.5</text>
     </g>
    </g>
    <g id="text_14">
     <text style="fill: #262626; font: 14px 'sans-serif'; text-anchor: middle" x="-11.815" y="181.8" transform="rotate(-90, -11.815, 181.8)">Log2 variant enrichment</text>
    </g>
   </g>
   <g id="PolyCollection_1">
    <defs>
     <path id="m9f0b9d3ee8" d="M 91.742088 -55.722925 
L 91.257912 -55.722925 
L 91.159001 -57.950923 
L 91.034281 -60.178921 
L 90.883036 -62.406919 
L 90.706739 -64.634918 
L 90.509258 -66.862916 
L 90.296554 -69.090914 
L 90.075768 -71.318912 
L 89.853697 -73.54691 
L 89.634817 -75.774909 
L 89.419141 -78.002907 
L 89.200334 -80.230905 
L 88.964493 -82.458903 
L 88.689912 -84.686901 
L 88.347999 -86.9149 
L 87.905243 -89.142898 
L 87.325958 -91.370896 
L 86.575357 -93.598894 
L 85.622495 -95.826893 
L 84.442747 -98.054891 
L 83.019642 -100.282889 
L 81.346125 -102.510887 
L 79.425498 -104.738885 
L 77.272303 -106.966884 
L 74.913367 -109.194882 
L 72.388958 -111.42288 
L 69.753718 -113.650878 
L 67.076776 -115.878876 
L 64.44035 -118.106875 
L 61.936262 -120.334873 
L 59.660152 -122.562871 
L 57.703735 -124.790869 
L 56.146014 -127.018867 
L 55.044789 -129.246866 
L 54.429974 -131.474864 
L 54.3 -133.702862 
L 54.622049 -135.93086 
L 55.336112 -138.158858 
L 56.362146 -140.386857 
L 57.609077 -142.614855 
L 58.984186 -144.842853 
L 60.401564 -147.070851 
L 61.788706 -149.298849 
L 63.0908 -151.526848 
L 64.272692 -153.754846 
L 65.318801 -155.982844 
L 66.231327 -158.210842 
L 67.027159 -160.438841 
L 67.733828 -162.666839 
L 68.384879 -164.894837 
L 69.015141 -167.122835 
L 69.656383 -169.350833 
L 70.333903 -171.578832 
L 71.064422 -173.80683 
L 71.85544 -176.034828 
L 72.705918 -178.262826 
L 73.607855 -180.490824 
L 74.548239 -182.718823 
L 75.510866 -184.946821 
L 76.477732 -187.174819 
L 77.429969 -189.402817 
L 78.348516 -191.630815 
L 79.214841 -193.858814 
L 80.011962 -196.086812 
L 80.72582 -198.31481 
L 81.346839 -200.542808 
L 81.871279 -202.770806 
L 82.301965 -204.998805 
L 82.648045 -207.226803 
L 82.923697 -209.454801 
L 83.145979 -211.682799 
L 83.332296 -213.910797 
L 83.498057 -216.138796 
L 83.655097 -218.366794 
L 83.811174 -220.594792 
L 83.970617 -222.82279 
L 84.135817 -225.050789 
L 84.309076 -227.278787 
L 84.4942 -229.506785 
L 84.697355 -231.734783 
L 84.926897 -233.962781 
L 85.192202 -236.19078 
L 85.50181 -238.418778 
L 85.86138 -240.646776 
L 86.271979 -242.874774 
L 86.729144 -245.102772 
L 87.222944 -247.330771 
L 87.738999 -249.558769 
L 88.260234 -251.786767 
L 88.768964 -254.014765 
L 89.24893 -256.242763 
L 89.686918 -258.470762 
L 90.073772 -260.69876 
L 90.404729 -262.926758 
L 90.679153 -265.154756 
L 90.899828 -267.382754 
L 91.072006 -269.610753 
L 91.202404 -271.838751 
L 91.298291 -274.066749 
L 91.366768 -276.294747 
L 91.633232 -276.294747 
L 91.633232 -276.294747 
L 91.701709 -274.066749 
L 91.797596 -271.838751 
L 91.927994 -269.610753 
L 92.100172 -267.382754 
L 92.320847 -265.154756 
L 92.595271 -262.926758 
L 92.926228 -260.69876 
L 93.313082 -258.470762 
L 93.75107 -256.242763 
L 94.231036 -254.014765 
L 94.739766 -251.786767 
L 95.261001 -249.558769 
L 95.777056 -247.330771 
L 96.270856 -245.102772 
L 96.728021 -242.874774 
L 97.13862 -240.646776 
L 97.49819 -238.418778 
L 97.807798 -236.19078 
L 98.073103 -233.962781 
L 98.302645 -231.734783 
L 98.5058 -229.506785 
L 98.690924 -227.278787 
L 98.864183 -225.050789 
L 99.029383 -222.82279 
L 99.188826 -220.594792 
L 99.344903 -218.366794 
L 99.501943 -216.138796 
L 99.667704 -213.910797 
L 99.854021 -211.682799 
L 100.076303 -209.454801 
L 100.351955 -207.226803 
L 100.698035 -204.998805 
L 101.128721 -202.770806 
L 101.653161 -200.542808 
L 102.27418 -198.31481 
L 102.988038 -196.086812 
L 103.785159 -193.858814 
L 104.651484 -191.630815 
L 105.570031 -189.402817 
L 106.522268 -187.174819 
L 107.489134 -184.946821 
L 108.451761 -182.718823 
L 109.392145 -180.490824 
L 110.294082 -178.262826 
L 111.14456 -176.034828 
L 111.935578 -173.80683 
L 112.666097 -171.578832 
L 113.343617 -169.350833 
L 113.984859 -167.122835 
L 114.615121 -164.894837 
L 115.266172 -162.666839 
L 115.972841 -160.438841 
L 116.768673 -158.210842 
L 117.681199 -155.982844 
L 118.727308 -153.754846 
L 119.9092 -151.526848 
L 121.211294 -149.298849 
L 122.598436 -147.070851 
L 124.015814 -144.842853 
L 125.390923 -142.614855 
L 126.637854 -140.386857 
L 127.663888 -138.158858 
L 128.377951 -135.93086 
L 128.7 -133.702862 
L 128.570026 -131.474864 
L 127.955211 -129.246866 
L 126.853986 -127.018867 
L 125.296265 -124.790869 
L 123.339848 -122.562871 
L 121.063738 -120.334873 
L 118.55965 -118.106875 
L 115.923224 -115.878876 
L 113.246282 -113.650878 
L 110.611042 -111.42288 
L 108.086633 -109.194882 
L 105.727697 -106.966884 
L 103.574502 -104.738885 
L 101.653875 -102.510887 
L 99.980358 -100.282889 
L 98.557253 -98.054891 
L 97.377505 -95.826893 
L 96.424643 -93.598894 
L 95.674042 -91.370896 
L 95.094757 -89.142898 
L 94.652001 -86.9149 
L 94.310088 -84.686901 
L 94.035507 -82.458903 
L 93.799666 -80.230905 
L 93.580859 -78.002907 
L 93.365183 -75.774909 
L 93.146303 -73.54691 
L 92.924232 -71.318912 
L 92.703446 -69.090914 
L 92.490742 -66.862916 
L 92.293261 -64.634918 
L 92.116964 -62.406919 
L 91.965719 -60.178921 
L 91.840999 -57.950923 
L 91.742088 -55.722925 
z
" style="stroke: #4d4d4d; stroke-width: 2"/>
    </defs>
    <g clip-path="url(#pde88477e4d)">
     <use xlink:href="#m9f0b9d3ee8" x="0" y="360" style="fill: #808080; stroke: #4d4d4d; stroke-width: 2"/>
    </g>
   </g>
   <g id="PolyCollection_2">
    <defs>
     <path id="m59613413b0" d="M 185.104614 -53.196123 
L 183.895386 -53.196123 
L 183.670613 -55.461025 
L 183.39242 -57.725928 
L 183.05996 -59.99083 
L 182.676872 -62.255732 
L 182.252018 -64.520634 
L 181.799568 -66.785537 
L 181.338222 -69.050439 
L 180.889474 -71.315341 
L 180.474997 -73.580243 
L 180.113418 -75.845146 
L 179.816911 -78.110048 
L 179.588142 -80.37495 
L 179.41809 -82.639852 
L 179.28517 -84.904755 
L 179.155867 -87.169657 
L 178.986891 -89.434559 
L 178.728579 -91.699461 
L 178.329132 -93.964364 
L 177.739182 -96.229266 
L 176.916189 -98.494168 
L 175.828286 -100.75907 
L 174.457317 -103.023973 
L 172.800958 -105.288875 
L 170.873918 -107.553777 
L 168.708264 -109.818679 
L 166.352848 -112.083582 
L 163.871798 -114.348484 
L 161.341924 -116.613386 
L 158.84889 -118.878289 
L 156.482081 -121.143191 
L 154.32825 -123.408093 
L 152.464336 -125.672995 
L 150.95014 -127.937898 
L 149.821828 -130.2028 
L 149.087358 -132.467702 
L 148.724859 -134.732604 
L 148.684649 -136.997507 
L 148.89506 -139.262409 
L 149.271552 -141.527311 
L 149.727967 -143.792213 
L 150.188273 -146.057116 
L 150.596974 -148.322018 
L 150.926489 -150.58692 
L 151.180316 -152.851822 
L 151.391478 -155.116725 
L 151.616592 -157.381627 
L 151.926606 -159.646529 
L 152.395779 -161.911431 
L 153.090662 -164.176334 
L 154.060727 -166.441236 
L 155.331902 -168.706138 
L 156.903648 -170.97104 
L 158.749637 -173.235943 
L 160.821505 -175.500845 
L 163.054777 -177.765747 
L 165.375876 -180.030649 
L 167.709169 -182.295552 
L 169.983194 -184.560454 
L 172.135495 -186.825356 
L 174.115805 -189.090258 
L 175.88761 -191.355161 
L 177.428281 -193.620063 
L 178.728116 -195.884965 
L 179.788613 -198.149868 
L 180.620308 -200.41477 
L 181.240429 -202.679672 
L 181.670574 -204.944574 
L 181.934566 -207.209477 
L 182.056621 -209.474379 
L 182.05992 -211.739281 
L 181.965682 -214.004183 
L 181.792772 -216.269086 
L 181.557828 -218.533988 
L 181.275857 -220.79889 
L 180.961105 -223.063792 
L 180.628021 -225.328695 
L 180.292054 -227.593597 
L 179.970041 -229.858499 
L 179.68005 -232.123401 
L 179.440592 -234.388304 
L 179.269301 -236.653206 
L 179.18128 -238.918108 
L 179.187383 -241.18301 
L 179.292791 -243.447913 
L 179.49613 -245.712815 
L 179.789341 -247.977717 
L 180.158353 -250.242619 
L 180.584458 -252.507522 
L 181.046195 -254.772424 
L 181.521442 -257.037326 
L 181.989417 -259.302228 
L 182.432335 -261.567131 
L 182.836533 -263.832033 
L 183.192988 -266.096935 
L 183.49726 -268.361837 
L 183.748966 -270.62674 
L 183.950943 -272.891642 
L 184.108265 -275.156544 
L 184.227279 -277.421447 
L 184.772721 -277.421447 
L 184.772721 -277.421447 
L 184.891735 -275.156544 
L 185.049057 -272.891642 
L 185.251034 -270.62674 
L 185.50274 -268.361837 
L 185.807012 -266.096935 
L 186.163467 -263.832033 
L 186.567665 -261.567131 
L 187.010583 -259.302228 
L 187.478558 -257.037326 
L 187.953805 -254.772424 
L 188.415542 -252.507522 
L 188.841647 -250.242619 
L 189.210659 -247.977717 
L 189.50387 -245.712815 
L 189.707209 -243.447913 
L 189.812617 -241.18301 
L 189.81872 -238.918108 
L 189.730699 -236.653206 
L 189.559408 -234.388304 
L 189.31995 -232.123401 
L 189.029959 -229.858499 
L 188.707946 -227.593597 
L 188.371979 -225.328695 
L 188.038895 -223.063792 
L 187.724143 -220.79889 
L 187.442172 -218.533988 
L 187.207228 -216.269086 
L 187.034318 -214.004183 
L 186.94008 -211.739281 
L 186.943379 -209.474379 
L 187.065434 -207.209477 
L 187.329426 -204.944574 
L 187.759571 -202.679672 
L 188.379692 -200.41477 
L 189.211387 -198.149868 
L 190.271884 -195.884965 
L 191.571719 -193.620063 
L 193.11239 -191.355161 
L 194.884195 -189.090258 
L 196.864505 -186.825356 
L 199.016806 -184.560454 
L 201.290831 -182.295552 
L 203.624124 -180.030649 
L 205.945223 -177.765747 
L 208.178495 -175.500845 
L 210.250363 -173.235943 
L 212.096352 -170.97104 
L 213.668098 -168.706138 
L 214.939273 -166.441236 
L 215.909338 -164.176334 
L 216.604221 -161.911431 
L 217.073394 -159.646529 
L 217.383408 -157.381627 
L 217.608522 -155.116725 
L 217.819684 -152.851822 
L 218.073511 -150.58692 
L 218.403026 -148.322018 
L 218.811727 -146.057116 
L 219.272033 -143.792213 
L 219.728448 -141.527311 
L 220.10494 -139.262409 
L 220.315351 -136.997507 
L 220.275141 -134.732604 
L 219.912642 -132.467702 
L 219.178172 -130.2028 
L 218.04986 -127.937898 
L 216.535664 -125.672995 
L 214.67175 -123.408093 
L 212.517919 -121.143191 
L 210.15111 -118.878289 
L 207.658076 -116.613386 
L 205.128202 -114.348484 
L 202.647152 -112.083582 
L 200.291736 -109.818679 
L 198.126082 -107.553777 
L 196.199042 -105.288875 
L 194.542683 -103.023973 
L 193.171714 -100.75907 
L 192.083811 -98.494168 
L 191.260818 -96.229266 
L 190.670868 -93.964364 
L 190.271421 -91.699461 
L 190.013109 -89.434559 
L 189.844133 -87.169657 
L 189.71483 -84.904755 
L 189.58191 -82.639852 
L 189.411858 -80.37495 
L 189.183089 -78.110048 
L 188.886582 -75.845146 
L 188.525003 -73.580243 
L 188.110526 -71.315341 
L 187.661778 -69.050439 
L 187.200432 -66.785537 
L 186.747982 -64.520634 
L 186.323128 -62.255732 
L 185.94004 -59.99083 
L 185.60758 -57.725928 
L 185.329387 -55.461025 
L 185.104614 -53.196123 
z
" style="stroke: #4d4d4d; stroke-width: 2"/>
    </defs>
    <g clip-path="url(#pde88477e4d)">
     <use xlink:href="#m59613413b0" x="0" y="360" style="fill: #808080; stroke: #4d4d4d; stroke-width: 2"/>
    </g>
   </g>
   <g id="PolyCollection_3">
    <defs>
     <path id="mef41f2040c" d="M 277.674414 -52.2 
L 277.325586 -52.2 
L 277.252687 -54.745455 
L 277.15938 -57.290909 
L 277.043894 -59.836364 
L 276.905436 -62.381818 
L 276.744166 -64.927273 
L 276.560802 -67.472727 
L 276.355797 -70.018182 
L 276.128103 -72.563636 
L 275.873648 -75.109091 
L 275.583776 -77.654545 
L 275.243957 -80.2 
L 274.833124 -82.745455 
L 274.323925 -85.290909 
L 273.684104 -87.836364 
L 272.879032 -90.381818 
L 271.875275 -92.927273 
L 270.644866 -95.472727 
L 269.169835 -98.018182 
L 267.446425 -100.563636 
L 265.488378 -103.109091 
L 263.328741 -105.654545 
L 261.019724 -108.2 
L 258.630389 -110.745455 
L 256.242237 -113.290909 
L 253.943046 -115.836364 
L 251.819636 -118.381818 
L 249.950409 -120.927273 
L 248.398585 -123.472727 
L 247.206978 -126.018182 
L 246.394928 -128.563636 
L 245.957692 -131.109091 
L 245.868307 -133.654545 
L 246.08157 -136.2 
L 246.539595 -138.745455 
L 247.178213 -141.290909 
L 247.933434 -143.836364 
L 248.747221 -146.381818 
L 249.571978 -148.927273 
L 250.37334 -151.472727 
L 251.131159 -154.018182 
L 251.838839 -156.563636 
L 252.501408 -159.109091 
L 253.132834 -161.654545 
L 253.753093 -164.2 
L 254.385364 -166.745455 
L 255.053551 -169.290909 
L 255.780126 -171.836364 
L 256.584218 -174.381818 
L 257.479827 -176.927273 
L 258.474153 -179.472727 
L 259.566181 -182.018182 
L 260.745726 -184.563636 
L 261.993242 -187.109091 
L 263.280579 -189.654545 
L 264.572758 -192.2 
L 265.830644 -194.745455 
L 267.014228 -197.290909 
L 268.086143 -199.836364 
L 269.015029 -202.381818 
L 269.778379 -204.927273 
L 270.364641 -207.472727 
L 270.774378 -210.018182 
L 271.020378 -212.563636 
L 271.126679 -215.109091 
L 271.126482 -217.654545 
L 271.059038 -220.2 
L 270.965726 -222.745455 
L 270.885682 -225.290909 
L 270.851488 -227.836364 
L 270.885535 -230.381818 
L 270.997644 -232.927273 
L 271.184399 -235.472727 
L 271.430376 -238.018182 
L 271.71115 -240.563636 
L 271.997616 -243.109091 
L 272.260957 -245.654545 
L 272.477423 -248.2 
L 272.632183 -250.745455 
L 272.721625 -253.290909 
L 272.753787 -255.836364 
L 272.746913 -258.381818 
L 272.726426 -260.927273 
L 272.720864 -263.472727 
L 272.75748 -266.018182 
L 272.858205 -268.563636 
L 273.036626 -271.109091 
L 273.296387 -273.654545 
L 273.631183 -276.2 
L 274.026231 -278.745455 
L 274.460842 -281.290909 
L 274.911577 -283.836364 
L 275.355408 -286.381818 
L 275.772377 -288.927273 
L 276.147415 -291.472727 
L 276.471171 -294.018182 
L 276.739913 -296.563636 
L 276.954719 -299.109091 
L 277.120225 -301.654545 
L 277.243254 -304.2 
L 277.756746 -304.2 
L 277.756746 -304.2 
L 277.879775 -301.654545 
L 278.045281 -299.109091 
L 278.260087 -296.563636 
L 278.528829 -294.018182 
L 278.852585 -291.472727 
L 279.227623 -288.927273 
L 279.644592 -286.381818 
L 280.088423 -283.836364 
L 280.539158 -281.290909 
L 280.973769 -278.745455 
L 281.368817 -276.2 
L 281.703613 -273.654545 
L 281.963374 -271.109091 
L 282.141795 -268.563636 
L 282.24252 -266.018182 
L 282.279136 -263.472727 
L 282.273574 -260.927273 
L 282.253087 -258.381818 
L 282.246213 -255.836364 
L 282.278375 -253.290909 
L 282.367817 -250.745455 
L 282.522577 -248.2 
L 282.739043 -245.654545 
L 283.002384 -243.109091 
L 283.28885 -240.563636 
L 283.569624 -238.018182 
L 283.815601 -235.472727 
L 284.002356 -232.927273 
L 284.114465 -230.381818 
L 284.148512 -227.836364 
L 284.114318 -225.290909 
L 284.034274 -222.745455 
L 283.940962 -220.2 
L 283.873518 -217.654545 
L 283.873321 -215.109091 
L 283.979622 -212.563636 
L 284.225622 -210.018182 
L 284.635359 -207.472727 
L 285.221621 -204.927273 
L 285.984971 -202.381818 
L 286.913857 -199.836364 
L 287.985772 -197.290909 
L 289.169356 -194.745455 
L 290.427242 -192.2 
L 291.719421 -189.654545 
L 293.006758 -187.109091 
L 294.254274 -184.563636 
L 295.433819 -182.018182 
L 296.525847 -179.472727 
L 297.520173 -176.927273 
L 298.415782 -174.381818 
L 299.219874 -171.836364 
L 299.946449 -169.290909 
L 300.614636 -166.745455 
L 301.246907 -164.2 
L 301.867166 -161.654545 
L 302.498592 -159.109091 
L 303.161161 -156.563636 
L 303.868841 -154.018182 
L 304.62666 -151.472727 
L 305.428022 -148.927273 
L 306.252779 -146.381818 
L 307.066566 -143.836364 
L 307.821787 -141.290909 
L 308.460405 -138.745455 
L 308.91843 -136.2 
L 309.131693 -133.654545 
L 309.042308 -131.109091 
L 308.605072 -128.563636 
L 307.793022 -126.018182 
L 306.601415 -123.472727 
L 305.049591 -120.927273 
L 303.180364 -118.381818 
L 301.056954 -115.836364 
L 298.757763 -113.290909 
L 296.369611 -110.745455 
L 293.980276 -108.2 
L 291.671259 -105.654545 
L 289.511622 -103.109091 
L 287.553575 -100.563636 
L 285.830165 -98.018182 
L 284.355134 -95.472727 
L 283.124725 -92.927273 
L 282.120968 -90.381818 
L 281.315896 -87.836364 
L 280.676075 -85.290909 
L 280.166876 -82.745455 
L 279.756043 -80.2 
L 279.416224 -77.654545 
L 279.126352 -75.109091 
L 278.871897 -72.563636 
L 278.644203 -70.018182 
L 278.439198 -67.472727 
L 278.255834 -64.927273 
L 278.094564 -62.381818 
L 277.956106 -59.836364 
L 277.84062 -57.290909 
L 277.747313 -54.745455 
L 277.674414 -52.2 
z
" style="stroke: #4d4d4d; stroke-width: 2"/>
    </defs>
    <g clip-path="url(#pde88477e4d)">
     <use xlink:href="#mef41f2040c" x="0" y="360" style="fill: #808080; stroke: #4d4d4d; stroke-width: 2"/>
    </g>
   </g>
   <g id="line2d_13">
    <path d="M 91.5 279.274983 
L 91.5 118.831401 
" clip-path="url(#pde88477e4d)" style="fill: none; stroke: #000000; stroke-width: 2; stroke-linecap: round"/>
   </g>
   <g id="line2d_14">
    <path d="M 91.5 230.450892 
L 91.5 185.040665 
" clip-path="url(#pde88477e4d)" style="fill: none; stroke: #000000; stroke-width: 6; stroke-linecap: round"/>
   </g>
   <g id="line2d_15">
    <path d="M 184.5 279.274983 
L 184.5 144.419445 
" clip-path="url(#pde88477e4d)" style="fill: none; stroke: #000000; stroke-width: 2; stroke-linecap: round"/>
   </g>
   <g id="line2d_16">
    <path d="M 184.5 230.113204 
L 184.5 193.097429 
" clip-path="url(#pde88477e4d)" style="fill: none; stroke: #000000; stroke-width: 6; stroke-linecap: round"/>
   </g>
   <g id="line2d_17">
    <path d="M 277.5 279.274983 
L 277.5 102.617291 
" clip-path="url(#pde88477e4d)" style="fill: none; stroke: #000000; stroke-width: 2; stroke-linecap: round"/>
   </g>
   <g id="line2d_18">
    <path d="M 277.5 231.831435 
L 277.5 179.044902 
" clip-path="url(#pde88477e4d)" style="fill: none; stroke: #000000; stroke-width: 6; stroke-linecap: round"/>
   </g>
   <g id="patch_3">
    <path d="M 45 320.4 
L 45 43.2 
" style="fill: none; stroke: #262626; stroke-width: 2; stroke-linejoin: miter; stroke-linecap: square"/>
   </g>
   <g id="patch_4">
    <path d="M 45 320.4 
L 324 320.4 
" style="fill: none; stroke: #262626; stroke-width: 2; stroke-linejoin: miter; stroke-linecap: square"/>
   </g>
   <g id="PathCollection_1">
    <defs>
     <path id="m9d324d97f8" d="M 0 2 
C 0.530406 2 1.03916 1.789267 1.414214 1.414214 
C 1.789267 1.03916 2 0.530406 2 0 
C 2 -0.530406 1.789267 -1.03916 1.414214 -1.414214 
C 1.03916 -1.789267 0.530406 -2 0 -2 
C -0.530406 -2 -1.03916 -1.789267 -1.414214 -1.414214 
C -1.789267 -1.03916 -2 -0.530406 -2 0 
C -2 0.530406 -1.789267 1.03916 -1.414214 1.414214 
C -1.03916 1.789267 -0.530406 2 0 2 
z
" style="stroke: #4d4d4d"/>
    </defs>
    <g clip-path="url(#pde88477e4d)">
     <use xlink:href="#m9d324d97f8" x="91.5" y="213.155835" style="fill: #ffffff; stroke: #4d4d4d"/>
    </g>
   </g>
   <g id="PathCollection_2">
    <g clip-path="url(#pde88477e4d)">
     <use xlink:href="#m9d324d97f8" x="184.5" y="216.96711" style="fill: #ffffff; stroke: #4d4d4d"/>
    </g>
   </g>
   <g id="PathCollection_3">
    <g clip-path="url(#pde88477e4d)">
     <use xlink:href="#m9d324d97f8" x="277.5" y="210.41804" style="fill: #ffffff; stroke: #4d4d4d"/>
    </g>
   </g>
   <g id="text_15">
    <text style="fill: #262626; font: 16.8px 'sans-serif'; text-anchor: middle" x="184.5" y="37.2" transform="rotate(-0, 184.5, 37.2)">AraC_ERD</text>
   </g>
  </g>
 </g>
 <defs>
  <clipPath id="pde88477e4d">
   <rect x="45" y="43.2" width="279" height="277.2"/>
  </clipPath>
 </defs>
</svg>
