<?xml version="1.0" encoding="utf-8" standalone="no"?>
<!DOCTYPE svg PUBLIC "-//W3C//DTD SVG 1.1//EN"
  "http://www.w3.org/Graphics/SVG/1.1/DTD/svg11.dtd">
<svg xmlns:xlink="http://www.w3.org/1999/xlink" width="360pt" height="360pt" viewBox="0 0 360 360" xmlns="http://www.w3.org/2000/svg" version="1.1">
 <metadata>
  <rdf:RDF xmlns:dc="http://purl.org/dc/elements/1.1/" xmlns:cc="http://creativecommons.org/ns#" xmlns:rdf="http://www.w3.org/1999/02/22-rdf-syntax-ns#">
   <cc:Work>
    <dc:type rdf:resource="http://purl.org/dc/dcmitype/StillImage"/>
    <dc:date>2023-12-05T10:52:05.245643</dc:date>
    <dc:format>image/svg+xml</dc:format>
    <dc:creator>
     <cc:Agent>
      <dc:title>Matplotlib v3.5.3, https://matplotlib.org/</dc:title>
     </cc:Agent>
    </dc:creator>
   </cc:Work>
  </rdf:RDF>
 </metadata>
 <defs>
  <style type="text/css">*{stroke-linejoin: round; stroke-linecap: butt}</style>
 </defs>
 <g id="figure_1">
  <g id="patch_1">
   <path d="M 0 360 
L 360 360 
L 360 0 
L 0 0 
z
" style="fill: #ffffff"/>
  </g>
  <g id="axes_1">
   <g id="patch_2">
    <path d="M 45 320.4 
L 324 320.4 
L 324 43.2 
L 45 43.2 
z
" style="fill: #ffffff"/>
   </g>
   <g id="matplotlib.axis_1">
    <g id="xtick_1">
     <g id="line2d_1">
      <defs>
       <path id="m5606310100" d="M 0 0 
L 0 3.5 
" style="stroke: #262626; stroke-width: 2"/>
      </defs>
      <g>
       <use xlink:href="#m5606310100" x="91.5" y="320.4" style="fill: #262626; stroke: #262626; stroke-width: 2"/>
      </g>
     </g>
     <g id="text_1">
      <text style="fill: #262626; font: 14px 'sans-serif'; text-anchor: middle" x="91.5" y="338.037813" transform="rotate(-0, 91.5, 338.037813)">Coil</text>
     </g>
    </g>
    <g id="xtick_2">
     <g id="line2d_2">
      <g>
       <use xlink:href="#m5606310100" x="184.5" y="320.4" style="fill: #262626; stroke: #262626; stroke-width: 2"/>
      </g>
     </g>
     <g id="text_2">
      <text style="fill: #262626; font: 14px 'sans-serif'; text-anchor: middle" x="184.5" y="338.037813" transform="rotate(-0, 184.5, 338.037813)">Helix</text>
     </g>
    </g>
    <g id="xtick_3">
     <g id="line2d_3">
      <g>
       <use xlink:href="#m5606310100" x="277.5" y="320.4" style="fill: #262626; stroke: #262626; stroke-width: 2"/>
      </g>
     </g>
     <g id="text_3">
      <text style="fill: #262626; font: 14px 'sans-serif'; text-anchor: middle" x="277.5" y="338.037813" transform="rotate(-0, 277.5, 338.037813)">Sheet</text>
     </g>
    </g>
    <g id="text_4">
     <text style="fill: #262626; font: 14px 'sans-serif'; text-anchor: middle" x="184.5" y="355.587188" transform="rotate(-0, 184.5, 355.587188)">Sec structure</text>
    </g>
   </g>
   <g id="matplotlib.axis_2">
    <g id="ytick_1">
     <g id="line2d_4">
      <defs>
       <path id="m60bc4a08e8" d="M 0 0 
L -3.5 0 
" style="stroke: #262626; stroke-width: 2"/>
      </defs>
      <g>
       <use xlink:href="#m60bc4a08e8" x="45" y="292.093064" style="fill: #262626; stroke: #262626; stroke-width: 2"/>
      </g>
     </g>
     <g id="text_5">
      <text style="fill: #262626; font: 14px 'sans-serif'; text-anchor: end" x="38" y="297.41197" transform="rotate(-0, 38, 297.41197)">−10.0</text>
     </g>
    </g>
    <g id="ytick_2">
     <g id="line2d_5">
      <g>
       <use xlink:href="#m60bc4a08e8" x="45" y="253.790402" style="fill: #262626; stroke: #262626; stroke-width: 2"/>
      </g>
     </g>
     <g id="text_6">
      <text style="fill: #262626; font: 14px 'sans-serif'; text-anchor: end" x="38" y="259.109309" transform="rotate(-0, 38, 259.109309)">−7.5</text>
     </g>
    </g>
    <g id="ytick_3">
     <g id="line2d_6">
      <g>
       <use xlink:href="#m60bc4a08e8" x="45" y="215.487741" style="fill: #262626; stroke: #262626; stroke-width: 2"/>
      </g>
     </g>
     <g id="text_7">
      <text style="fill: #262626; font: 14px 'sans-serif'; text-anchor: end" x="38" y="220.806647" transform="rotate(-0, 38, 220.806647)">−5.0</text>
     </g>
    </g>
    <g id="ytick_4">
     <g id="line2d_7">
      <g>
       <use xlink:href="#m60bc4a08e8" x="45" y="177.185079" style="fill: #262626; stroke: #262626; stroke-width: 2"/>
      </g>
     </g>
     <g id="text_8">
      <text style="fill: #262626; font: 14px 'sans-serif'; text-anchor: end" x="38" y="182.503985" transform="rotate(-0, 38, 182.503985)">−2.5</text>
     </g>
    </g>
    <g id="ytick_5">
     <g id="line2d_8">
      <g>
       <use xlink:href="#m60bc4a08e8" x="45" y="138.882418" style="fill: #262626; stroke: #262626; stroke-width: 2"/>
      </g>
     </g>
     <g id="text_9">
      <text style="fill: #262626; font: 14px 'sans-serif'; text-anchor: end" x="38" y="144.201324" transform="rotate(-0, 38, 144.201324)">0.0</text>
     </g>
    </g>
    <g id="ytick_6">
     <g id="line2d_9">
      <g>
       <use xlink:href="#m60bc4a08e8" x="45" y="100.579756" style="fill: #262626; stroke: #262626; stroke-width: 2"/>
      </g>
     </g>
     <g id="text_10">
      <text style="fill: #262626; font: 14px 'sans-serif'; text-anchor: end" x="38" y="105.898662" transform="rotate(-0, 38, 105.898662)">2.5</text>
     </g>
    </g>
    <g id="ytick_7">
     <g id="line2d_10">
      <g>
       <use xlink:href="#m60bc4a08e8" x="45" y="62.277094" style="fill: #262626; stroke: #262626; stroke-width: 2"/>
      </g>
     </g>
     <g id="text_11">
      <text style="fill: #262626; font: 14px 'sans-serif'; text-anchor: end" x="38" y="67.596001" transform="rotate(-0, 38, 67.596001)">5.0</text>
     </g>
    </g>
    <g id="text_12">
     <text style="fill: #262626; font: 14px 'sans-serif'; text-anchor: middle" x="-11.815" y="181.8" transform="rotate(-90, -11.815, 181.8)">Log2 variant enrichment</text>
    </g>
   </g>
   <g id="PolyCollection_1">
    <defs>
     <path id="m4b63c5f56f" d="M 91.579349 -107.015127 
L 91.420651 -107.015127 
L 91.36942 -109.006893 
L 91.29988 -110.99866 
L 91.214373 -112.990426 
L 91.120307 -114.982192 
L 91.029829 -116.973959 
L 90.957465 -118.965725 
L 90.916129 -120.957492 
L 90.912805 -122.949258 
L 90.945623 -124.941024 
L 91.003571 -126.932791 
L 91.069013 -128.924557 
L 91.122036 -130.916324 
L 91.145153 -132.90809 
L 91.127064 -134.899856 
L 91.064798 -136.891623 
L 90.964111 -138.883389 
L 90.8383 -140.875156 
L 90.705688 -142.866922 
L 90.586152 -144.858688 
L 90.497234 -146.850455 
L 90.4505 -148.842221 
L 90.448815 -150.833988 
L 90.485028 -152.825754 
L 90.542352 -154.81752 
L 90.596362 -156.809287 
L 90.618121 -158.801053 
L 90.577565 -160.792819 
L 90.4463 -162.784586 
L 90.199536 -164.776352 
L 89.817732 -166.768119 
L 89.288832 -168.759885 
L 88.611025 -170.751651 
L 87.794132 -172.743418 
L 86.85641 -174.735184 
L 85.81469 -176.726951 
L 84.669613 -178.718717 
L 83.392491 -180.710483 
L 81.922354 -182.70225 
L 80.178726 -184.694016 
L 78.088399 -186.685783 
L 75.617152 -188.677549 
L 72.794649 -190.669315 
L 69.724185 -192.661082 
L 66.575986 -194.652848 
L 63.568571 -196.644615 
L 60.943998 -198.636381 
L 58.940464 -200.628147 
L 57.763109 -202.619914 
L 57.554248 -204.61168 
L 58.367495 -206.603447 
L 60.153118 -208.595213 
L 62.761169 -210.586979 
L 65.963835 -212.578746 
L 69.49174 -214.570512 
L 73.074645 -216.562279 
L 76.476973 -218.554045 
L 79.522123 -220.545811 
L 82.103721 -222.537578 
L 84.184877 -224.529344 
L 85.787678 -226.521111 
L 86.975657 -228.512877 
L 87.832627 -230.504643 
L 88.442158 -232.49641 
L 88.872133 -234.488176 
L 89.167562 -236.479943 
L 89.352212 -238.471709 
L 89.436742 -240.463475 
L 89.429111 -242.455242 
L 89.34299 -244.447008 
L 89.201439 -246.438775 
L 89.035444 -248.430541 
L 88.878932 -250.422307 
L 88.762796 -252.414074 
L 88.710188 -254.40584 
L 88.734163 -256.397606 
L 88.837491 -258.389373 
L 89.013816 -260.381139 
L 89.249384 -262.372906 
L 89.525127 -264.364672 
L 89.819124 -266.356438 
L 90.109355 -268.348205 
L 90.376233 -270.339971 
L 90.604352 -272.331738 
L 90.783236 -274.323504 
L 90.907512 -276.31527 
L 90.977119 -278.307037 
L 90.997819 -280.298803 
L 90.981515 -282.29057 
L 90.945419 -284.282336 
L 90.909392 -286.274102 
L 90.89173 -288.265869 
L 90.904709 -290.257635 
L 90.951708 -292.249402 
L 91.027131 -294.241168 
L 91.119132 -296.232934 
L 91.213897 -298.224701 
L 91.299701 -300.216467 
L 91.369358 -302.208234 
L 91.42063 -304.2 
L 91.57937 -304.2 
L 91.57937 -304.2 
L 91.630642 -302.208234 
L 91.700299 -300.216467 
L 91.786103 -298.224701 
L 91.880868 -296.232934 
L 91.972869 -294.241168 
L 92.048292 -292.249402 
L 92.095291 -290.257635 
L 92.10827 -288.265869 
L 92.090608 -286.274102 
L 92.054581 -284.282336 
L 92.018485 -282.29057 
L 92.002181 -280.298803 
L 92.022881 -278.307037 
L 92.092488 -276.31527 
L 92.216764 -274.323504 
L 92.395648 -272.331738 
L 92.623767 -270.339971 
L 92.890645 -268.348205 
L 93.180876 -266.356438 
L 93.474873 -264.364672 
L 93.750616 -262.372906 
L 93.986184 -260.381139 
L 94.162509 -258.389373 
L 94.265837 -256.397606 
L 94.289812 -254.40584 
L 94.237204 -252.414074 
L 94.121068 -250.422307 
L 93.964556 -248.430541 
L 93.798561 -246.438775 
L 93.65701 -244.447008 
L 93.570889 -242.455242 
L 93.563258 -240.463475 
L 93.647788 -238.471709 
L 93.832438 -236.479943 
L 94.127867 -234.488176 
L 94.557842 -232.49641 
L 95.167373 -230.504643 
L 96.024343 -228.512877 
L 97.212322 -226.521111 
L 98.815123 -224.529344 
L 100.896279 -222.537578 
L 103.477877 -220.545811 
L 106.523027 -218.554045 
L 109.925355 -216.562279 
L 113.50826 -214.570512 
L 117.036165 -212.578746 
L 120.238831 -210.586979 
L 122.846882 -208.595213 
L 124.632505 -206.603447 
L 125.445752 -204.61168 
L 125.236891 -202.619914 
L 124.059536 -200.628147 
L 122.056002 -198.636381 
L 119.431429 -196.644615 
L 116.424014 -194.652848 
L 113.275815 -192.661082 
L 110.205351 -190.669315 
L 107.382848 -188.677549 
L 104.911601 -186.685783 
L 102.821274 -184.694016 
L 101.077646 -182.70225 
L 99.607509 -180.710483 
L 98.330387 -178.718717 
L 97.18531 -176.726951 
L 96.14359 -174.735184 
L 95.205868 -172.743418 
L 94.388975 -170.751651 
L 93.711168 -168.759885 
L 93.182268 -166.768119 
L 92.800464 -164.776352 
L 92.5537 -162.784586 
L 92.422435 -160.792819 
L 92.381879 -158.801053 
L 92.403638 -156.809287 
L 92.457648 -154.81752 
L 92.514972 -152.825754 
L 92.551185 -150.833988 
L 92.5495 -148.842221 
L 92.502766 -146.850455 
L 92.413848 -144.858688 
L 92.294312 -142.866922 
L 92.1617 -140.875156 
L 92.035889 -138.883389 
L 91.935202 -136.891623 
L 91.872936 -134.899856 
L 91.854847 -132.90809 
L 91.877964 -130.916324 
L 91.930987 -128.924557 
L 91.996429 -126.932791 
L 92.054377 -124.941024 
L 92.087195 -122.949258 
L 92.083871 -120.957492 
L 92.042535 -118.965725 
L 91.970171 -116.973959 
L 91.879693 -114.982192 
L 91.785627 -112.990426 
L 91.70012 -110.99866 
L 91.63058 -109.006893 
L 91.579349 -107.015127 
z
" style="stroke: #4d4d4d; stroke-width: 2"/>
    </defs>
    <g clip-path="url(#p11df3927bb)">
     <use xlink:href="#m4b63c5f56f" x="0" y="360" style="fill: #808080; stroke: #4d4d4d; stroke-width: 2"/>
    </g>
   </g>
   <g id="PolyCollection_2">
    <defs>
     <path id="m2c321d84df" d="M 185.000257 -168.267702 
L 183.999743 -168.267702 
L 183.841295 -169.185232 
L 183.645168 -170.102761 
L 183.406356 -171.02029 
L 183.120247 -171.93782 
L 182.782891 -172.855349 
L 182.391276 -173.772879 
L 181.943547 -174.690408 
L 181.439174 -175.607937 
L 180.87903 -176.525467 
L 180.265364 -177.442996 
L 179.601682 -178.360525 
L 178.892516 -179.278055 
L 178.143121 -180.195584 
L 177.359102 -181.113114 
L 176.546012 -182.030643 
L 175.708936 -182.948172 
L 174.852099 -183.865702 
L 173.978501 -184.783231 
L 173.089615 -185.700761 
L 172.185164 -186.61829 
L 171.262984 -187.535819 
L 170.319013 -188.453349 
L 169.347418 -189.370878 
L 168.340899 -190.288407 
L 167.291172 -191.205937 
L 166.189669 -192.123466 
L 165.028429 -193.040996 
L 163.801155 -193.958525 
L 162.504384 -194.876054 
L 161.138688 -195.793584 
L 159.709791 -196.711113 
L 158.229493 -197.628642 
L 156.716271 -198.546172 
L 155.195451 -199.463701 
L 153.69887 -200.381231 
L 152.26398 -201.29876 
L 150.932396 -202.216289 
L 149.747949 -203.133819 
L 148.75435 -204.051348 
L 147.992626 -204.968878 
L 147.498509 -205.886407 
L 147.3 -206.803936 
L 147.415319 -207.721466 
L 147.851421 -208.638995 
L 148.603226 -209.556524 
L 149.653658 -210.474054 
L 150.974494 -211.391583 
L 152.527953 -212.309113 
L 154.268905 -213.226642 
L 156.147488 -214.144171 
L 158.111913 -215.061701 
L 160.111199 -215.97923 
L 162.097645 -216.89676 
L 164.02883 -217.814289 
L 165.869047 -218.731818 
L 167.590124 -219.649348 
L 169.17165 -220.566877 
L 170.600704 -221.484406 
L 171.871201 -222.401936 
L 172.983003 -223.319465 
L 173.940925 -224.236995 
L 174.753738 -225.154524 
L 175.433247 -226.072053 
L 175.993476 -226.989583 
L 176.449947 -227.907112 
L 176.819043 -228.824641 
L 177.117417 -229.742171 
L 177.361427 -230.6597 
L 177.56659 -231.57723 
L 177.747063 -232.494759 
L 177.915205 -233.412288 
L 178.081225 -234.329818 
L 178.252987 -235.247347 
L 178.435981 -236.164877 
L 178.633468 -237.082406 
L 178.846778 -237.999935 
L 179.075719 -238.917465 
L 179.319028 -239.834994 
L 179.574826 -240.752523 
L 179.840985 -241.670053 
L 180.115396 -242.587582 
L 180.396108 -243.505112 
L 180.681343 -244.422641 
L 180.969424 -245.34017 
L 181.25865 -246.2577 
L 181.547154 -247.175229 
L 181.832816 -248.092759 
L 182.113213 -249.010288 
L 182.38567 -249.927817 
L 182.647358 -250.845347 
L 182.895465 -251.762876 
L 183.127382 -252.680405 
L 183.34089 -253.597935 
L 183.534317 -254.515464 
L 183.706642 -255.432994 
L 183.857542 -256.350523 
L 183.98737 -257.268052 
L 184.097086 -258.185582 
L 184.188144 -259.103111 
L 184.811856 -259.103111 
L 184.811856 -259.103111 
L 184.902914 -258.185582 
L 185.01263 -257.268052 
L 185.142458 -256.350523 
L 185.293358 -255.432994 
L 185.465683 -254.515464 
L 185.65911 -253.597935 
L 185.872618 -252.680405 
L 186.104535 -251.762876 
L 186.352642 -250.845347 
L 186.61433 -249.927817 
L 186.886787 -249.010288 
L 187.167184 -248.092759 
L 187.452846 -247.175229 
L 187.74135 -246.2577 
L 188.030576 -245.34017 
L 188.318657 -244.422641 
L 188.603892 -243.505112 
L 188.884604 -242.587582 
L 189.159015 -241.670053 
L 189.425174 -240.752523 
L 189.680972 -239.834994 
L 189.924281 -238.917465 
L 190.153222 -237.999935 
L 190.366532 -237.082406 
L 190.564019 -236.164877 
L 190.747013 -235.247347 
L 190.918775 -234.329818 
L 191.084795 -233.412288 
L 191.252937 -232.494759 
L 191.43341 -231.57723 
L 191.638573 -230.6597 
L 191.882583 -229.742171 
L 192.180957 -228.824641 
L 192.550053 -227.907112 
L 193.006524 -226.989583 
L 193.566753 -226.072053 
L 194.246262 -225.154524 
L 195.059075 -224.236995 
L 196.016997 -223.319465 
L 197.128799 -222.401936 
L 198.399296 -221.484406 
L 199.82835 -220.566877 
L 201.409876 -219.649348 
L 203.130953 -218.731818 
L 204.97117 -217.814289 
L 206.902355 -216.89676 
L 208.888801 -215.97923 
L 210.888087 -215.061701 
L 212.852512 -214.144171 
L 214.731095 -213.226642 
L 216.472047 -212.309113 
L 218.025506 -211.391583 
L 219.346342 -210.474054 
L 220.396774 -209.556524 
L 221.148579 -208.638995 
L 221.584681 -207.721466 
L 221.7 -206.803936 
L 221.501491 -205.886407 
L 221.007374 -204.968878 
L 220.24565 -204.051348 
L 219.252051 -203.133819 
L 218.067604 -202.216289 
L 216.73602 -201.29876 
L 215.30113 -200.381231 
L 213.804549 -199.463701 
L 212.283729 -198.546172 
L 210.770507 -197.628642 
L 209.290209 -196.711113 
L 207.861312 -195.793584 
L 206.495616 -194.876054 
L 205.198845 -193.958525 
L 203.971571 -193.040996 
L 202.810331 -192.123466 
L 201.708828 -191.205937 
L 200.659101 -190.288407 
L 199.652582 -189.370878 
L 198.680987 -188.453349 
L 197.737016 -187.535819 
L 196.814836 -186.61829 
L 195.910385 -185.700761 
L 195.021499 -184.783231 
L 194.147901 -183.865702 
L 193.291064 -182.948172 
L 192.453988 -182.030643 
L 191.640898 -181.113114 
L 190.856879 -180.195584 
L 190.107484 -179.278055 
L 189.398318 -178.360525 
L 188.734636 -177.442996 
L 188.12097 -176.525467 
L 187.560826 -175.607937 
L 187.056453 -174.690408 
L 186.608724 -173.772879 
L 186.217109 -172.855349 
L 185.879753 -171.93782 
L 185.593644 -171.02029 
L 185.354832 -170.102761 
L 185.158705 -169.185232 
L 185.000257 -168.267702 
z
" style="stroke: #4d4d4d; stroke-width: 2"/>
    </defs>
    <g clip-path="url(#p11df3927bb)">
     <use xlink:href="#m2c321d84df" x="0" y="360" style="fill: #808080; stroke: #4d4d4d; stroke-width: 2"/>
    </g>
   </g>
   <g id="PolyCollection_3">
    <defs>
     <path id="m9d34b7fc7a" d="M 277.592357 -52.2 
L 277.407643 -52.2 
L 277.3426 -54.455373 
L 277.252987 -56.710745 
L 277.143041 -58.966118 
L 277.024993 -61.22149 
L 276.917947 -63.476863 
L 276.843238 -65.732236 
L 276.817605 -67.987608 
L 276.847101 -70.242981 
L 276.924775 -72.498354 
L 277.033327 -74.753726 
L 277.151366 -77.009099 
L 277.260167 -79.264471 
L 277.348075 -81.519844 
L 277.41138 -83.775217 
L 277.452399 -86.030589 
L 277.476456 -88.285962 
L 277.489276 -90.541335 
L 277.495503 -92.796707 
L 277.498263 -95.05208 
L 277.499382 -97.307452 
L 277.499798 -99.562825 
L 277.499938 -101.818198 
L 277.49998 -104.07357 
L 277.499985 -106.328943 
L 277.499959 -108.584315 
L 277.499863 -110.839688 
L 277.499572 -113.095061 
L 277.498762 -115.350433 
L 277.496705 -117.605806 
L 277.491923 -119.861179 
L 277.481767 -122.116551 
L 277.462099 -124.371924 
L 277.427451 -126.627296 
L 277.372123 -128.882669 
L 277.292445 -131.138042 
L 277.18979 -133.393414 
L 277.073064 -135.648787 
L 276.958934 -137.90416 
L 276.868574 -140.159532 
L 276.821454 -142.414905 
L 276.82852 -144.670277 
L 276.888036 -146.92565 
L 276.986158 -149.181023 
L 277.101856 -151.436395 
L 277.213477 -153.691768 
L 277.303593 -155.94714 
L 277.360017 -158.202513 
L 277.372993 -160.457886 
L 277.330399 -162.713258 
L 277.21361 -164.968631 
L 276.996457 -167.224004 
L 276.648569 -169.479376 
L 276.142459 -171.734749 
L 275.461282 -173.990121 
L 274.602599 -176.245494 
L 273.574044 -178.500867 
L 272.380431 -180.756239 
L 271.007062 -183.011612 
L 269.407978 -185.266985 
L 267.507918 -187.522357 
L 265.222305 -189.77773 
L 262.492484 -192.033102 
L 259.326655 -194.288475 
L 255.832911 -196.543848 
L 252.230932 -198.79922 
L 248.833731 -201.054593 
L 245.999678 -203.309965 
L 244.065317 -205.565338 
L 243.277242 -207.820711 
L 243.742563 -210.076083 
L 245.411013 -212.331456 
L 248.090443 -214.586829 
L 251.487038 -216.842201 
L 255.256866 -219.097574 
L 259.057181 -221.352946 
L 262.590621 -223.608319 
L 265.639021 -225.863692 
L 268.08403 -228.119064 
L 269.911131 -230.374437 
L 271.194661 -232.62981 
L 272.065736 -234.885182 
L 272.67102 -237.140555 
L 273.134713 -239.395927 
L 273.535659 -241.6513 
L 273.90533 -243.906673 
L 274.243379 -246.162045 
L 274.540412 -248.417418 
L 274.796162 -250.672791 
L 275.025799 -252.928163 
L 275.254293 -255.183536 
L 275.50454 -257.438908 
L 275.786719 -259.694281 
L 276.094151 -261.949654 
L 276.406713 -264.205026 
L 276.699133 -266.460399 
L 276.949839 -268.715771 
L 277.146739 -270.971144 
L 277.288515 -273.226517 
L 277.382194 -275.481889 
L 277.617806 -275.481889 
L 277.617806 -275.481889 
L 277.711485 -273.226517 
L 277.853261 -270.971144 
L 278.050161 -268.715771 
L 278.300867 -266.460399 
L 278.593287 -264.205026 
L 278.905849 -261.949654 
L 279.213281 -259.694281 
L 279.49546 -257.438908 
L 279.745707 -255.183536 
L 279.974201 -252.928163 
L 280.203838 -250.672791 
L 280.459588 -248.417418 
L 280.756621 -246.162045 
L 281.09467 -243.906673 
L 281.464341 -241.6513 
L 281.865287 -239.395927 
L 282.32898 -237.140555 
L 282.934264 -234.885182 
L 283.805339 -232.62981 
L 285.088869 -230.374437 
L 286.91597 -228.119064 
L 289.360979 -225.863692 
L 292.409379 -223.608319 
L 295.942819 -221.352946 
L 299.743134 -219.097574 
L 303.512962 -216.842201 
L 306.909557 -214.586829 
L 309.588987 -212.331456 
L 311.257437 -210.076083 
L 311.722758 -207.820711 
L 310.934683 -205.565338 
L 309.000322 -203.309965 
L 306.166269 -201.054593 
L 302.769068 -198.79922 
L 299.167089 -196.543848 
L 295.673345 -194.288475 
L 292.507516 -192.033102 
L 289.777695 -189.77773 
L 287.492082 -187.522357 
L 285.592022 -185.266985 
L 283.992938 -183.011612 
L 282.619569 -180.756239 
L 281.425956 -178.500867 
L 280.397401 -176.245494 
L 279.538718 -173.990121 
L 278.857541 -171.734749 
L 278.351431 -169.479376 
L 278.003543 -167.224004 
L 277.78639 -164.968631 
L 277.669601 -162.713258 
L 277.627007 -160.457886 
L 277.639983 -158.202513 
L 277.696407 -155.94714 
L 277.786523 -153.691768 
L 277.898144 -151.436395 
L 278.013842 -149.181023 
L 278.111964 -146.92565 
L 278.17148 -144.670277 
L 278.178546 -142.414905 
L 278.131426 -140.159532 
L 278.041066 -137.90416 
L 277.926936 -135.648787 
L 277.81021 -133.393414 
L 277.707555 -131.138042 
L 277.627877 -128.882669 
L 277.572549 -126.627296 
L 277.537901 -124.371924 
L 277.518233 -122.116551 
L 277.508077 -119.861179 
L 277.503295 -117.605806 
L 277.501238 -115.350433 
L 277.500428 -113.095061 
L 277.500137 -110.839688 
L 277.500041 -108.584315 
L 277.500015 -106.328943 
L 277.50002 -104.07357 
L 277.500062 -101.818198 
L 277.500202 -99.562825 
L 277.500618 -97.307452 
L 277.501737 -95.05208 
L 277.504497 -92.796707 
L 277.510724 -90.541335 
L 277.523544 -88.285962 
L 277.547601 -86.030589 
L 277.58862 -83.775217 
L 277.651925 -81.519844 
L 277.739833 -79.264471 
L 277.848634 -77.009099 
L 277.966673 -74.753726 
L 278.075225 -72.498354 
L 278.152899 -70.242981 
L 278.182395 -67.987608 
L 278.156762 -65.732236 
L 278.082053 -63.476863 
L 277.975007 -61.22149 
L 277.856959 -58.966118 
L 277.747013 -56.710745 
L 277.6574 -54.455373 
L 277.592357 -52.2 
z
" style="stroke: #4d4d4d; stroke-width: 2"/>
    </defs>
    <g clip-path="url(#p11df3927bb)">
     <use xlink:href="#m9d34b7fc7a" x="0" y="360" style="fill: #808080; stroke: #4d4d4d; stroke-width: 2"/>
    </g>
   </g>
   <g id="line2d_11">
    <path d="M 91.5 183.015548 
L 91.5 127.161968 
" clip-path="url(#p11df3927bb)" style="fill: none; stroke: #000000; stroke-width: 2; stroke-linecap: round"/>
   </g>
   <g id="line2d_12">
    <path d="M 91.5 164.129734 
L 91.5 149.03455 
" clip-path="url(#p11df3927bb)" style="fill: none; stroke: #000000; stroke-width: 6; stroke-linecap: round"/>
   </g>
   <g id="line2d_13">
    <path d="M 184.5 175.427783 
L 184.5 137.73559 
" clip-path="url(#p11df3927bb)" style="fill: none; stroke: #000000; stroke-width: 2; stroke-linecap: round"/>
   </g>
   <g id="line2d_14">
    <path d="M 184.5 159.584326 
L 184.5 148.15876 
" clip-path="url(#p11df3927bb)" style="fill: none; stroke: #000000; stroke-width: 6; stroke-linecap: round"/>
   </g>
   <g id="line2d_15">
    <path d="M 277.5 178.250367 
L 277.5 122.522624 
" clip-path="url(#p11df3927bb)" style="fill: none; stroke: #000000; stroke-width: 2; stroke-linecap: round"/>
   </g>
   <g id="line2d_16">
    <path d="M 277.5 157.958346 
L 277.5 143.671837 
" clip-path="url(#p11df3927bb)" style="fill: none; stroke: #000000; stroke-width: 6; stroke-linecap: round"/>
   </g>
   <g id="patch_3">
    <path d="M 45 320.4 
L 45 43.2 
" style="fill: none; stroke: #262626; stroke-width: 2; stroke-linejoin: miter; stroke-linecap: square"/>
   </g>
   <g id="patch_4">
    <path d="M 45 320.4 
L 324 320.4 
" style="fill: none; stroke: #262626; stroke-width: 2; stroke-linejoin: miter; stroke-linecap: square"/>
   </g>
   <g id="PathCollection_1">
    <defs>
     <path id="mc59688559a" d="M 0 2 
C 0.530406 2 1.03916 1.789267 1.414214 1.414214 
C 1.789267 1.03916 2 0.530406 2 0 
C 2 -0.530406 1.789267 -1.03916 1.414214 -1.414214 
C 1.03916 -1.789267 0.530406 -2 0 -2 
C -0.530406 -2 -1.03916 -1.789267 -1.414214 -1.414214 
C -1.789267 -1.03916 -2 -0.530406 -2 0 
C -2 0.530406 -1.789267 1.03916 -1.414214 1.414214 
C -1.03916 1.789267 -0.530406 2 0 2 
z
" style="stroke: #4d4d4d"/>
    </defs>
    <g clip-path="url(#p11df3927bb)">
     <use xlink:href="#mc59688559a" x="91.5" y="155.913987" style="fill: #ffffff; stroke: #4d4d4d"/>
    </g>
   </g>
   <g id="PathCollection_2">
    <g clip-path="url(#p11df3927bb)">
     <use xlink:href="#mc59688559a" x="184.5" y="153.089396" style="fill: #ffffff; stroke: #4d4d4d"/>
    </g>
   </g>
   <g id="PathCollection_3">
    <g clip-path="url(#p11df3927bb)">
     <use xlink:href="#mc59688559a" x="277.5" y="151.925591" style="fill: #ffffff; stroke: #4d4d4d"/>
    </g>
   </g>
   <g id="text_13">
    <text style="fill: #262626; font: 16.8px 'sans-serif'; text-anchor: middle" x="184.5" y="37.2" transform="rotate(-0, 184.5, 37.2)">TVMV_PDZ</text>
   </g>
  </g>
 </g>
 <defs>
  <clipPath id="p11df3927bb">
   <rect x="45" y="43.2" width="279" height="277.2"/>
  </clipPath>
 </defs>
</svg>
