<?xml version="1.0" encoding="utf-8" standalone="no"?>
<!DOCTYPE svg PUBLIC "-//W3C//DTD SVG 1.1//EN"
  "http://www.w3.org/Graphics/SVG/1.1/DTD/svg11.dtd">
<svg xmlns:xlink="http://www.w3.org/1999/xlink" width="360pt" height="360pt" viewBox="0 0 360 360" xmlns="http://www.w3.org/2000/svg" version="1.1">
 <metadata>
  <rdf:RDF xmlns:dc="http://purl.org/dc/elements/1.1/" xmlns:cc="http://creativecommons.org/ns#" xmlns:rdf="http://www.w3.org/1999/02/22-rdf-syntax-ns#">
   <cc:Work>
    <dc:type rdf:resource="http://purl.org/dc/dcmitype/StillImage"/>
    <dc:date>2023-12-05T10:52:03.699651</dc:date>
    <dc:format>image/svg+xml</dc:format>
    <dc:creator>
     <cc:Agent>
      <dc:title>Matplotlib v3.5.3, https://matplotlib.org/</dc:title>
     </cc:Agent>
    </dc:creator>
   </cc:Work>
  </rdf:RDF>
 </metadata>
 <defs>
  <style type="text/css">*{stroke-linejoin: round; stroke-linecap: butt}</style>
 </defs>
 <g id="figure_1">
  <g id="patch_1">
   <path d="M 0 360 
L 360 360 
L 360 0 
L 0 0 
z
" style="fill: #ffffff"/>
  </g>
  <g id="axes_1">
   <g id="patch_2">
    <path d="M 45 320.4 
L 324 320.4 
L 324 43.2 
L 45 43.2 
z
" style="fill: #ffffff"/>
   </g>
   <g id="matplotlib.axis_1">
    <g id="xtick_1">
     <g id="line2d_1">
      <defs>
       <path id="m781244ccd6" d="M 0 0 
L 0 3.5 
" style="stroke: #262626; stroke-width: 2"/>
      </defs>
      <g>
       <use xlink:href="#m781244ccd6" x="91.5" y="320.4" style="fill: #262626; stroke: #262626; stroke-width: 2"/>
      </g>
     </g>
     <g id="text_1">
      <text style="fill: #262626; font: 14px 'sans-serif'; text-anchor: middle" x="91.5" y="338.037813" transform="rotate(-0, 91.5, 338.037813)">Coil</text>
     </g>
    </g>
    <g id="xtick_2">
     <g id="line2d_2">
      <g>
       <use xlink:href="#m781244ccd6" x="184.5" y="320.4" style="fill: #262626; stroke: #262626; stroke-width: 2"/>
      </g>
     </g>
     <g id="text_2">
      <text style="fill: #262626; font: 14px 'sans-serif'; text-anchor: middle" x="184.5" y="338.037813" transform="rotate(-0, 184.5, 338.037813)">Helix</text>
     </g>
    </g>
    <g id="xtick_3">
     <g id="line2d_3">
      <g>
       <use xlink:href="#m781244ccd6" x="277.5" y="320.4" style="fill: #262626; stroke: #262626; stroke-width: 2"/>
      </g>
     </g>
     <g id="text_3">
      <text style="fill: #262626; font: 14px 'sans-serif'; text-anchor: middle" x="277.5" y="338.037813" transform="rotate(-0, 277.5, 338.037813)">Sheet</text>
     </g>
    </g>
    <g id="text_4">
     <text style="fill: #262626; font: 14px 'sans-serif'; text-anchor: middle" x="184.5" y="355.587188" transform="rotate(-0, 184.5, 355.587188)">Sec structure</text>
    </g>
   </g>
   <g id="matplotlib.axis_2">
    <g id="ytick_1">
     <g id="line2d_4">
      <defs>
       <path id="m222151fc38" d="M 0 0 
L -3.5 0 
" style="stroke: #262626; stroke-width: 2"/>
      </defs>
      <g>
       <use xlink:href="#m222151fc38" x="45" y="307.370345" style="fill: #262626; stroke: #262626; stroke-width: 2"/>
      </g>
     </g>
     <g id="text_5">
      <text style="fill: #262626; font: 14px 'sans-serif'; text-anchor: end" x="38" y="312.689251" transform="rotate(-0, 38, 312.689251)">−12.5</text>
     </g>
    </g>
    <g id="ytick_2">
     <g id="line2d_5">
      <g>
       <use xlink:href="#m222151fc38" x="45" y="275.819908" style="fill: #262626; stroke: #262626; stroke-width: 2"/>
      </g>
     </g>
     <g id="text_6">
      <text style="fill: #262626; font: 14px 'sans-serif'; text-anchor: end" x="38" y="281.138814" transform="rotate(-0, 38, 281.138814)">−10.0</text>
     </g>
    </g>
    <g id="ytick_3">
     <g id="line2d_6">
      <g>
       <use xlink:href="#m222151fc38" x="45" y="244.26947" style="fill: #262626; stroke: #262626; stroke-width: 2"/>
      </g>
     </g>
     <g id="text_7">
      <text style="fill: #262626; font: 14px 'sans-serif'; text-anchor: end" x="38" y="249.588377" transform="rotate(-0, 38, 249.588377)">−7.5</text>
     </g>
    </g>
    <g id="ytick_4">
     <g id="line2d_7">
      <g>
       <use xlink:href="#m222151fc38" x="45" y="212.719033" style="fill: #262626; stroke: #262626; stroke-width: 2"/>
      </g>
     </g>
     <g id="text_8">
      <text style="fill: #262626; font: 14px 'sans-serif'; text-anchor: end" x="38" y="218.03794" transform="rotate(-0, 38, 218.03794)">−5.0</text>
     </g>
    </g>
    <g id="ytick_5">
     <g id="line2d_8">
      <g>
       <use xlink:href="#m222151fc38" x="45" y="181.168596" style="fill: #262626; stroke: #262626; stroke-width: 2"/>
      </g>
     </g>
     <g id="text_9">
      <text style="fill: #262626; font: 14px 'sans-serif'; text-anchor: end" x="38" y="186.487502" transform="rotate(-0, 38, 186.487502)">−2.5</text>
     </g>
    </g>
    <g id="ytick_6">
     <g id="line2d_9">
      <g>
       <use xlink:href="#m222151fc38" x="45" y="149.618159" style="fill: #262626; stroke: #262626; stroke-width: 2"/>
      </g>
     </g>
     <g id="text_10">
      <text style="fill: #262626; font: 14px 'sans-serif'; text-anchor: end" x="38" y="154.937065" transform="rotate(-0, 38, 154.937065)">0.0</text>
     </g>
    </g>
    <g id="ytick_7">
     <g id="line2d_10">
      <g>
       <use xlink:href="#m222151fc38" x="45" y="118.067722" style="fill: #262626; stroke: #262626; stroke-width: 2"/>
      </g>
     </g>
     <g id="text_11">
      <text style="fill: #262626; font: 14px 'sans-serif'; text-anchor: end" x="38" y="123.386628" transform="rotate(-0, 38, 123.386628)">2.5</text>
     </g>
    </g>
    <g id="ytick_8">
     <g id="line2d_11">
      <g>
       <use xlink:href="#m222151fc38" x="45" y="86.517285" style="fill: #262626; stroke: #262626; stroke-width: 2"/>
      </g>
     </g>
     <g id="text_12">
      <text style="fill: #262626; font: 14px 'sans-serif'; text-anchor: end" x="38" y="91.836191" transform="rotate(-0, 38, 91.836191)">5.0</text>
     </g>
    </g>
    <g id="ytick_9">
     <g id="line2d_12">
      <g>
       <use xlink:href="#m222151fc38" x="45" y="54.966848" style="fill: #262626; stroke: #262626; stroke-width: 2"/>
      </g>
     </g>
     <g id="text_13">
      <text style="fill: #262626; font: 14px 'sans-serif'; text-anchor: end" x="38" y="60.285754" transform="rotate(-0, 38, 60.285754)">7.5</text>
     </g>
    </g>
    <g id="text_14">
     <text style="fill: #262626; font: 14px 'sans-serif'; text-anchor: middle" x="-11.815" y="181.8" transform="rotate(-90, -11.815, 181.8)">Log2 variant enrichment</text>
    </g>
   </g>
   <g id="PolyCollection_1">
    <defs>
     <path id="mf6985caec3" d="M 92.348112 -55.315548 
L 90.651888 -55.315548 
L 90.349367 -57.58125 
L 89.975652 -59.846952 
L 89.527567 -62.112654 
L 89.006363 -64.378356 
L 88.418479 -66.644058 
L 87.775674 -68.90976 
L 87.094331 -71.175462 
L 86.393833 -73.441164 
L 85.694081 -75.706866 
L 85.012393 -77.972568 
L 84.36021 -80.23827 
L 83.740128 -82.503972 
L 83.143816 -84.769674 
L 82.551298 -87.035376 
L 81.931895 -89.301078 
L 81.246888 -91.56678 
L 80.453683 -93.832482 
L 79.511023 -96.098184 
L 78.384612 -98.363886 
L 77.05244 -100.629588 
L 75.509121 -102.895291 
L 73.76868 -105.160993 
L 71.865404 -107.426695 
L 69.852588 -109.692397 
L 67.799241 -111.958099 
L 65.785039 -114.223801 
L 63.893986 -116.489503 
L 62.207407 -118.755205 
L 60.796966 -121.020907 
L 59.718462 -123.286609 
L 59.007063 -125.552311 
L 58.674524 -127.818013 
L 58.708699 -130.083715 
L 59.075397 -132.349417 
L 59.722309 -134.615119 
L 60.584511 -136.880821 
L 61.590807 -139.146523 
L 62.670151 -141.412225 
L 63.7574 -143.677927 
L 64.797824 -145.943629 
L 65.750041 -148.209331 
L 66.587278 -150.475033 
L 67.297112 -152.740735 
L 67.87999 -155.006437 
L 68.346929 -157.272139 
L 68.716758 -159.537841 
L 69.013257 -161.803543 
L 69.262431 -164.069245 
L 69.490097 -166.334947 
L 69.719876 -168.600649 
L 69.97166 -170.866351 
L 70.260584 -173.132054 
L 70.596498 -175.397756 
L 70.983906 -177.663458 
L 71.422337 -179.92916 
L 71.907032 -182.194862 
L 72.429844 -184.460564 
L 72.980258 -186.726266 
L 73.546406 -188.991968 
L 74.116048 -191.25767 
L 74.677447 -193.523372 
L 75.220166 -195.789074 
L 75.735746 -198.054776 
L 76.218272 -200.320478 
L 76.664784 -202.58618 
L 77.075475 -204.851882 
L 77.453645 -207.117584 
L 77.805366 -209.383286 
L 78.138891 -211.648988 
L 78.463858 -213.91469 
L 78.790407 -216.180392 
L 79.128332 -218.446094 
L 79.486379 -220.711796 
L 79.871771 -222.977498 
L 80.289981 -225.2432 
L 80.744701 -227.508902 
L 81.237926 -229.774604 
L 81.770071 -232.040306 
L 82.34002 -234.306008 
L 82.945095 -236.57171 
L 83.580949 -238.837412 
L 84.241456 -241.103114 
L 84.918688 -243.368817 
L 85.603053 -245.634519 
L 86.283656 -247.900221 
L 86.948874 -250.165923 
L 87.587097 -252.431625 
L 88.187539 -254.697327 
L 88.741004 -256.963029 
L 89.24051 -259.228731 
L 89.68167 -261.494433 
L 90.062818 -263.760135 
L 90.384858 -266.025837 
L 90.650909 -268.291539 
L 90.865794 -270.557241 
L 91.035458 -272.822943 
L 91.166408 -275.088645 
L 91.265203 -277.354347 
L 91.338059 -279.620049 
L 91.661941 -279.620049 
L 91.661941 -279.620049 
L 91.734797 -277.354347 
L 91.833592 -275.088645 
L 91.964542 -272.822943 
L 92.134206 -270.557241 
L 92.349091 -268.291539 
L 92.615142 -266.025837 
L 92.937182 -263.760135 
L 93.31833 -261.494433 
L 93.75949 -259.228731 
L 94.258996 -256.963029 
L 94.812461 -254.697327 
L 95.412903 -252.431625 
L 96.051126 -250.165923 
L 96.716344 -247.900221 
L 97.396947 -245.634519 
L 98.081312 -243.368817 
L 98.758544 -241.103114 
L 99.419051 -238.837412 
L 100.054905 -236.57171 
L 100.65998 -234.306008 
L 101.229929 -232.040306 
L 101.762074 -229.774604 
L 102.255299 -227.508902 
L 102.710019 -225.2432 
L 103.128229 -222.977498 
L 103.513621 -220.711796 
L 103.871668 -218.446094 
L 104.209593 -216.180392 
L 104.536142 -213.91469 
L 104.861109 -211.648988 
L 105.194634 -209.383286 
L 105.546355 -207.117584 
L 105.924525 -204.851882 
L 106.335216 -202.58618 
L 106.781728 -200.320478 
L 107.264254 -198.054776 
L 107.779834 -195.789074 
L 108.322553 -193.523372 
L 108.883952 -191.25767 
L 109.453594 -188.991968 
L 110.019742 -186.726266 
L 110.570156 -184.460564 
L 111.092968 -182.194862 
L 111.577663 -179.92916 
L 112.016094 -177.663458 
L 112.403502 -175.397756 
L 112.739416 -173.132054 
L 113.02834 -170.866351 
L 113.280124 -168.600649 
L 113.509903 -166.334947 
L 113.737569 -164.069245 
L 113.986743 -161.803543 
L 114.283242 -159.537841 
L 114.653071 -157.272139 
L 115.12001 -155.006437 
L 115.702888 -152.740735 
L 116.412722 -150.475033 
L 117.249959 -148.209331 
L 118.202176 -145.943629 
L 119.2426 -143.677927 
L 120.329849 -141.412225 
L 121.409193 -139.146523 
L 122.415489 -136.880821 
L 123.277691 -134.615119 
L 123.924603 -132.349417 
L 124.291301 -130.083715 
L 124.325476 -127.818013 
L 123.992937 -125.552311 
L 123.281538 -123.286609 
L 122.203034 -121.020907 
L 120.792593 -118.755205 
L 119.106014 -116.489503 
L 117.214961 -114.223801 
L 115.200759 -111.958099 
L 113.147412 -109.692397 
L 111.134596 -107.426695 
L 109.23132 -105.160993 
L 107.490879 -102.895291 
L 105.94756 -100.629588 
L 104.615388 -98.363886 
L 103.488977 -96.098184 
L 102.546317 -93.832482 
L 101.753112 -91.56678 
L 101.068105 -89.301078 
L 100.448702 -87.035376 
L 99.856184 -84.769674 
L 99.259872 -82.503972 
L 98.63979 -80.23827 
L 97.987607 -77.972568 
L 97.305919 -75.706866 
L 96.606167 -73.441164 
L 95.905669 -71.175462 
L 95.224326 -68.90976 
L 94.581521 -66.644058 
L 93.993637 -64.378356 
L 93.472433 -62.112654 
L 93.024348 -59.846952 
L 92.650633 -57.58125 
L 92.348112 -55.315548 
z
" style="stroke: #4d4d4d; stroke-width: 2"/>
    </defs>
    <g clip-path="url(#p5c08565dd8)">
     <use xlink:href="#mf6985caec3" x="0" y="360" style="fill: #808080; stroke: #4d4d4d; stroke-width: 2"/>
    </g>
   </g>
   <g id="PolyCollection_2">
    <defs>
     <path id="mce33062b61" d="M 185.9846 -52.2 
L 183.0154 -52.2 
L 182.533226 -54.514831 
L 181.94717 -56.829662 
L 181.25309 -59.144493 
L 180.452606 -61.459324 
L 179.554213 -63.774155 
L 178.573795 -66.088986 
L 177.534316 -68.403817 
L 176.464558 -70.718648 
L 175.396872 -73.033479 
L 174.364095 -75.34831 
L 173.395941 -77.663141 
L 172.515297 -79.977971 
L 171.734952 -82.292802 
L 171.055267 -84.607633 
L 170.463233 -86.922464 
L 169.933165 -89.237295 
L 169.42907 -91.552126 
L 168.908489 -93.866957 
L 168.327387 -96.181788 
L 167.645487 -98.496619 
L 166.831385 -100.81145 
L 165.866794 -103.126281 
L 164.749379 -105.441112 
L 163.493803 -107.755943 
L 162.130883 -110.070774 
L 160.704938 -112.385605 
L 159.269671 -114.700436 
L 157.883072 -117.015267 
L 156.601953 -119.330098 
L 155.476739 -121.644929 
L 154.547093 -123.95976 
L 153.838829 -126.274591 
L 153.362398 -128.589422 
L 153.113028 -130.904252 
L 153.072394 -133.219083 
L 153.211516 -135.533914 
L 153.494474 -137.848745 
L 153.882434 -140.163576 
L 154.33753 -142.478407 
L 154.826182 -144.793238 
L 155.321584 -147.108069 
L 155.80519 -149.4229 
L 156.26723 -151.737731 
L 156.706334 -154.052562 
L 157.128475 -156.367393 
L 157.545453 -158.682224 
L 157.973139 -160.997055 
L 158.429659 -163.311886 
L 158.933684 -165.626717 
L 159.502878 -167.941548 
L 160.152583 -170.256379 
L 160.894736 -172.57121 
L 161.737023 -174.886041 
L 162.682282 -177.200872 
L 163.728138 -179.515703 
L 164.866909 -181.830533 
L 166.085767 -184.145364 
L 167.367183 -186.460195 
L 168.689652 -188.775026 
L 170.028662 -191.089857 
L 171.357872 -193.404688 
L 172.650426 -195.719519 
L 173.880317 -198.03435 
L 175.023704 -200.349181 
L 176.060084 -202.664012 
L 176.973248 -204.978843 
L 177.751949 -207.293674 
L 178.390278 -209.608505 
L 178.887738 -211.923336 
L 179.249054 -214.238167 
L 179.483763 -216.552998 
L 179.605648 -218.867829 
L 179.632044 -221.18266 
L 179.583052 -223.497491 
L 179.480682 -225.812322 
L 179.347921 -228.127153 
L 179.207736 -230.441984 
L 179.082023 -232.756814 
L 178.990548 -235.071645 
L 178.94993 -237.386476 
L 178.972759 -239.701307 
L 179.066929 -242.016138 
L 179.235278 -244.330969 
L 179.475594 -246.6458 
L 179.781007 -248.960631 
L 180.140736 -251.275462 
L 180.541135 -253.590293 
L 180.966907 -255.905124 
L 181.402373 -258.219955 
L 181.832659 -260.534786 
L 182.244689 -262.849617 
L 182.627895 -265.164448 
L 182.974617 -267.479279 
L 183.280197 -269.79411 
L 183.54279 -272.108941 
L 183.762975 -274.423772 
L 183.943238 -276.738603 
L 184.087401 -279.053434 
L 184.20007 -281.368265 
L 184.79993 -281.368265 
L 184.79993 -281.368265 
L 184.912599 -279.053434 
L 185.056762 -276.738603 
L 185.237025 -274.423772 
L 185.45721 -272.108941 
L 185.719803 -269.79411 
L 186.025383 -267.479279 
L 186.372105 -265.164448 
L 186.755311 -262.849617 
L 187.167341 -260.534786 
L 187.597627 -258.219955 
L 188.033093 -255.905124 
L 188.458865 -253.590293 
L 188.859264 -251.275462 
L 189.218993 -248.960631 
L 189.524406 -246.6458 
L 189.764722 -244.330969 
L 189.933071 -242.016138 
L 190.027241 -239.701307 
L 190.05007 -237.386476 
L 190.009452 -235.071645 
L 189.917977 -232.756814 
L 189.792264 -230.441984 
L 189.652079 -228.127153 
L 189.519318 -225.812322 
L 189.416948 -223.497491 
L 189.367956 -221.18266 
L 189.394352 -218.867829 
L 189.516237 -216.552998 
L 189.750946 -214.238167 
L 190.112262 -211.923336 
L 190.609722 -209.608505 
L 191.248051 -207.293674 
L 192.026752 -204.978843 
L 192.939916 -202.664012 
L 193.976296 -200.349181 
L 195.119683 -198.03435 
L 196.349574 -195.719519 
L 197.642128 -193.404688 
L 198.971338 -191.089857 
L 200.310348 -188.775026 
L 201.632817 -186.460195 
L 202.914233 -184.145364 
L 204.133091 -181.830533 
L 205.271862 -179.515703 
L 206.317718 -177.200872 
L 207.262977 -174.886041 
L 208.105264 -172.57121 
L 208.847417 -170.256379 
L 209.497122 -167.941548 
L 210.066316 -165.626717 
L 210.570341 -163.311886 
L 211.026861 -160.997055 
L 211.454547 -158.682224 
L 211.871525 -156.367393 
L 212.293666 -154.052562 
L 212.73277 -151.737731 
L 213.19481 -149.4229 
L 213.678416 -147.108069 
L 214.173818 -144.793238 
L 214.66247 -142.478407 
L 215.117566 -140.163576 
L 215.505526 -137.848745 
L 215.788484 -135.533914 
L 215.927606 -133.219083 
L 215.886972 -130.904252 
L 215.637602 -128.589422 
L 215.161171 -126.274591 
L 214.452907 -123.95976 
L 213.523261 -121.644929 
L 212.398047 -119.330098 
L 211.116928 -117.015267 
L 209.730329 -114.700436 
L 208.295062 -112.385605 
L 206.869117 -110.070774 
L 205.506197 -107.755943 
L 204.250621 -105.441112 
L 203.133206 -103.126281 
L 202.168615 -100.81145 
L 201.354513 -98.496619 
L 200.672613 -96.181788 
L 200.091511 -93.866957 
L 199.57093 -91.552126 
L 199.066835 -89.237295 
L 198.536767 -86.922464 
L 197.944733 -84.607633 
L 197.265048 -82.292802 
L 196.484703 -79.977971 
L 195.604059 -77.663141 
L 194.635905 -75.34831 
L 193.603128 -73.033479 
L 192.535442 -70.718648 
L 191.465684 -68.403817 
L 190.426205 -66.088986 
L 189.445787 -63.774155 
L 188.547394 -61.459324 
L 187.74691 -59.144493 
L 187.05283 -56.829662 
L 186.466774 -54.514831 
L 185.9846 -52.2 
z
" style="stroke: #4d4d4d; stroke-width: 2"/>
    </defs>
    <g clip-path="url(#p5c08565dd8)">
     <use xlink:href="#mce33062b61" x="0" y="360" style="fill: #808080; stroke: #4d4d4d; stroke-width: 2"/>
    </g>
   </g>
   <g id="PolyCollection_3">
    <defs>
     <path id="m7b4915a74c" d="M 277.843385 -55.291269 
L 277.156615 -55.291269 
L 277.016496 -57.805498 
L 276.837726 -60.319728 
L 276.616791 -62.833957 
L 276.351946 -65.348187 
L 276.043297 -67.862417 
L 275.69233 -70.376646 
L 275.300791 -72.890876 
L 274.868916 -75.405105 
L 274.3932 -77.919335 
L 273.864082 -80.433565 
L 273.264009 -82.947794 
L 272.566455 -85.462024 
L 271.736365 -87.976254 
L 270.732384 -90.490483 
L 269.51093 -93.004713 
L 268.031899 -95.518942 
L 266.265446 -98.033172 
L 264.198993 -100.547402 
L 261.843431 -103.061631 
L 259.237395 -105.575861 
L 256.44858 -108.09009 
L 253.5714 -110.60432 
L 250.720709 -113.11855 
L 248.021982 -115.632779 
L 245.59895 -118.147009 
L 243.560302 -120.661238 
L 241.987351 -123.175468 
L 240.924629 -125.689698 
L 240.37497 -128.203927 
L 240.3 -130.718157 
L 240.626057 -133.232387 
L 241.254662 -135.746616 
L 242.075924 -138.260846 
L 242.982794 -140.775075 
L 243.884023 -143.289305 
L 244.714002 -145.803535 
L 245.438229 -148.317764 
L 246.053997 -150.831994 
L 246.586635 -153.346223 
L 247.082356 -155.860453 
L 247.599158 -158.374683 
L 248.197344 -160.888912 
L 248.931071 -163.403142 
L 249.841909 -165.917371 
L 250.954882 -168.431601 
L 252.276989 -170.945831 
L 253.797785 -173.46006 
L 255.491449 -175.97429 
L 257.319704 -178.488519 
L 259.235115 -181.002749 
L 261.184448 -183.516979 
L 263.111925 -186.031208 
L 264.962341 -188.545438 
L 266.683995 -191.059668 
L 268.231394 -193.573897 
L 269.567609 -196.088127 
L 270.666165 -198.602356 
L 271.512328 -201.116586 
L 272.103745 -203.630816 
L 272.450396 -206.145045 
L 272.573906 -208.659275 
L 272.506267 -211.173504 
L 272.287989 -213.687734 
L 271.965706 -216.201964 
L 271.589254 -218.716193 
L 271.208282 -221.230423 
L 270.868563 -223.744652 
L 270.608308 -226.258882 
L 270.454886 -228.773112 
L 270.422409 -231.287341 
L 270.510633 -233.801571 
L 270.705449 -236.315801 
L 270.981034 -238.83003 
L 271.303467 -241.34426 
L 271.635363 -243.858489 
L 271.940921 -246.372719 
L 272.190678 -248.886949 
L 272.365332 -251.401178 
L 272.458118 -253.915408 
L 272.475418 -256.429637 
L 272.435558 -258.943867 
L 272.365974 -261.458097 
L 272.299177 -263.972326 
L 272.268095 -266.486556 
L 272.301495 -269.000785 
L 272.420149 -271.515015 
L 272.634304 -274.029245 
L 272.94279 -276.543474 
L 273.333808 -279.057704 
L 273.78718 -281.571934 
L 274.277565 -284.086163 
L 274.778052 -286.600393 
L 275.263509 -289.114622 
L 275.713196 -291.628852 
L 276.112354 -294.143082 
L 276.452704 -296.657311 
L 276.73199 -299.171541 
L 276.952854 -301.68577 
L 277.121363 -304.2 
L 277.878637 -304.2 
L 277.878637 -304.2 
L 278.047146 -301.68577 
L 278.26801 -299.171541 
L 278.547296 -296.657311 
L 278.887646 -294.143082 
L 279.286804 -291.628852 
L 279.736491 -289.114622 
L 280.221948 -286.600393 
L 280.722435 -284.086163 
L 281.21282 -281.571934 
L 281.666192 -279.057704 
L 282.05721 -276.543474 
L 282.365696 -274.029245 
L 282.579851 -271.515015 
L 282.698505 -269.000785 
L 282.731905 -266.486556 
L 282.700823 -263.972326 
L 282.634026 -261.458097 
L 282.564442 -258.943867 
L 282.524582 -256.429637 
L 282.541882 -253.915408 
L 282.634668 -251.401178 
L 282.809322 -248.886949 
L 283.059079 -246.372719 
L 283.364637 -243.858489 
L 283.696533 -241.34426 
L 284.018966 -238.83003 
L 284.294551 -236.315801 
L 284.489367 -233.801571 
L 284.577591 -231.287341 
L 284.545114 -228.773112 
L 284.391692 -226.258882 
L 284.131437 -223.744652 
L 283.791718 -221.230423 
L 283.410746 -218.716193 
L 283.034294 -216.201964 
L 282.712011 -213.687734 
L 282.493733 -211.173504 
L 282.426094 -208.659275 
L 282.549604 -206.145045 
L 282.896255 -203.630816 
L 283.487672 -201.116586 
L 284.333835 -198.602356 
L 285.432391 -196.088127 
L 286.768606 -193.573897 
L 288.316005 -191.059668 
L 290.037659 -188.545438 
L 291.888075 -186.031208 
L 293.815552 -183.516979 
L 295.764885 -181.002749 
L 297.680296 -178.488519 
L 299.508551 -175.97429 
L 301.202215 -173.46006 
L 302.723011 -170.945831 
L 304.045118 -168.431601 
L 305.158091 -165.917371 
L 306.068929 -163.403142 
L 306.802656 -160.888912 
L 307.400842 -158.374683 
L 307.917644 -155.860453 
L 308.413365 -153.346223 
L 308.946003 -150.831994 
L 309.561771 -148.317764 
L 310.285998 -145.803535 
L 311.115977 -143.289305 
L 312.017206 -140.775075 
L 312.924076 -138.260846 
L 313.745338 -135.746616 
L 314.373943 -133.232387 
L 314.7 -130.718157 
L 314.62503 -128.203927 
L 314.075371 -125.689698 
L 313.012649 -123.175468 
L 311.439698 -120.661238 
L 309.40105 -118.147009 
L 306.978018 -115.632779 
L 304.279291 -113.11855 
L 301.4286 -110.60432 
L 298.55142 -108.09009 
L 295.762605 -105.575861 
L 293.156569 -103.061631 
L 290.801007 -100.547402 
L 288.734554 -98.033172 
L 286.968101 -95.518942 
L 285.48907 -93.004713 
L 284.267616 -90.490483 
L 283.263635 -87.976254 
L 282.433545 -85.462024 
L 281.735991 -82.947794 
L 281.135918 -80.433565 
L 280.6068 -77.919335 
L 280.131084 -75.405105 
L 279.699209 -72.890876 
L 279.30767 -70.376646 
L 278.956703 -67.862417 
L 278.648054 -65.348187 
L 278.383209 -62.833957 
L 278.162274 -60.319728 
L 277.983504 -57.805498 
L 277.843385 -55.291269 
z
" style="stroke: #4d4d4d; stroke-width: 2"/>
    </defs>
    <g clip-path="url(#p5c08565dd8)">
     <use xlink:href="#m7b4915a74c" x="0" y="360" style="fill: #808080; stroke: #4d4d4d; stroke-width: 2"/>
    </g>
   </g>
   <g id="line2d_13">
    <path d="M 91.5 275.819908 
L 91.5 109.244496 
" clip-path="url(#p5c08565dd8)" style="fill: none; stroke: #000000; stroke-width: 2; stroke-linecap: round"/>
   </g>
   <g id="line2d_14">
    <path d="M 91.5 235.693941 
L 91.5 176.386617 
" clip-path="url(#p5c08565dd8)" style="fill: none; stroke: #000000; stroke-width: 6; stroke-linecap: round"/>
   </g>
   <g id="line2d_15">
    <path d="M 184.5 275.819908 
L 184.5 110.611828 
" clip-path="url(#p5c08565dd8)" style="fill: none; stroke: #000000; stroke-width: 2; stroke-linecap: round"/>
   </g>
   <g id="line2d_16">
    <path d="M 184.5 237.931453 
L 184.5 186.528195 
" clip-path="url(#p5c08565dd8)" style="fill: none; stroke: #000000; stroke-width: 6; stroke-linecap: round"/>
   </g>
   <g id="line2d_17">
    <path d="M 277.5 275.819908 
L 277.5 118.337664 
" clip-path="url(#p5c08565dd8)" style="fill: none; stroke: #000000; stroke-width: 2; stroke-linecap: round"/>
   </g>
   <g id="line2d_18">
    <path d="M 277.5 234.973288 
L 277.5 186.216523 
" clip-path="url(#p5c08565dd8)" style="fill: none; stroke: #000000; stroke-width: 6; stroke-linecap: round"/>
   </g>
   <g id="patch_3">
    <path d="M 45 320.4 
L 45 43.2 
" style="fill: none; stroke: #262626; stroke-width: 2; stroke-linejoin: miter; stroke-linecap: square"/>
   </g>
   <g id="patch_4">
    <path d="M 45 320.4 
L 324 320.4 
" style="fill: none; stroke: #262626; stroke-width: 2; stroke-linejoin: miter; stroke-linecap: square"/>
   </g>
   <g id="PathCollection_1">
    <defs>
     <path id="m176247cf4d" d="M 0 2 
C 0.530406 2 1.03916 1.789267 1.414214 1.414214 
C 1.789267 1.03916 2 0.530406 2 0 
C 2 -0.530406 1.789267 -1.03916 1.414214 -1.414214 
C 1.03916 -1.789267 0.530406 -2 0 -2 
C -0.530406 -2 -1.03916 -1.789267 -1.414214 -1.414214 
C -1.789267 -1.03916 -2 -0.530406 -2 0 
C -2 0.530406 -1.789267 1.03916 -1.414214 1.414214 
C -1.03916 1.789267 -0.530406 2 0 2 
z
" style="stroke: #4d4d4d"/>
    </defs>
    <g clip-path="url(#p5c08565dd8)">
     <use xlink:href="#m176247cf4d" x="91.5" y="211.43121" style="fill: #ffffff; stroke: #4d4d4d"/>
    </g>
   </g>
   <g id="PathCollection_2">
    <g clip-path="url(#p5c08565dd8)">
     <use xlink:href="#m176247cf4d" x="184.5" y="217.394181" style="fill: #ffffff; stroke: #4d4d4d"/>
    </g>
   </g>
   <g id="PathCollection_3">
    <g clip-path="url(#p5c08565dd8)">
     <use xlink:href="#m176247cf4d" x="277.5" y="212.67773" style="fill: #ffffff; stroke: #4d4d4d"/>
    </g>
   </g>
   <g id="text_15">
    <text style="fill: #262626; font: 16.8px 'sans-serif'; text-anchor: middle" x="184.5" y="37.2" transform="rotate(-0, 184.5, 37.2)">AraC_eYFP</text>
   </g>
  </g>
 </g>
 <defs>
  <clipPath id="p5c08565dd8">
   <rect x="45" y="43.2" width="279" height="277.2"/>
  </clipPath>
 </defs>
</svg>
