<?xml version="1.0" encoding="utf-8" standalone="no"?>
<!DOCTYPE svg PUBLIC "-//W3C//DTD SVG 1.1//EN"
  "http://www.w3.org/Graphics/SVG/1.1/DTD/svg11.dtd">
<!-- Created with matplotlib (https://matplotlib.org/) -->
<svg height="360pt" version="1.1" viewBox="0 0 360 360" width="360pt" xmlns="http://www.w3.org/2000/svg" xmlns:xlink="http://www.w3.org/1999/xlink">
 <metadata>
  <rdf:RDF xmlns:cc="http://creativecommons.org/ns#" xmlns:dc="http://purl.org/dc/elements/1.1/" xmlns:rdf="http://www.w3.org/1999/02/22-rdf-syntax-ns#">
   <cc:Work>
    <dc:type rdf:resource="http://purl.org/dc/dcmitype/StillImage"/>
    <dc:date>2023-04-13T14:39:28.843845</dc:date>
    <dc:format>image/svg+xml</dc:format>
    <dc:creator>
     <cc:Agent>
      <dc:title>Matplotlib v3.3.3, https://matplotlib.org/</dc:title>
     </cc:Agent>
    </dc:creator>
   </cc:Work>
  </rdf:RDF>
 </metadata>
 <defs>
  <style type="text/css">*{stroke-linecap:butt;stroke-linejoin:round;}</style>
 </defs>
 <g id="figure_1">
  <g id="patch_1">
   <path d="M 0 360 
L 360 360 
L 360 0 
L 0 0 
z
" style="fill:#ffffff;"/>
  </g>
  <g id="axes_1">
   <g id="patch_2">
    <path d="M 45 315 
L 324 315 
L 324 43.2 
L 45 43.2 
z
" style="fill:#ffffff;"/>
   </g>
   <g id="matplotlib.axis_1">
    <g id="xtick_1">
     <g id="line2d_1">
      <defs>
       <path d="M 0 0 
L 0 3.5 
" id="m14f980eaa2" style="stroke:#262626;stroke-width:2;"/>
      </defs>
      <g>
       <use style="fill:#262626;stroke:#262626;stroke-width:2;" x="91.5" xlink:href="#m14f980eaa2" y="315"/>
      </g>
     </g>
     <g id="text_1">
      <text style="fill:#262626;font-family:Cantarell;font-size:14px;font-stretch:normal;font-style:normal;font-weight:normal;text-anchor:middle;" transform="rotate(-0, 91.5, 332.051562)" x="91.5" y="332.051562">Coil</text>
     </g>
    </g>
    <g id="xtick_2">
     <g id="line2d_2">
      <g>
       <use style="fill:#262626;stroke:#262626;stroke-width:2;" x="184.5" xlink:href="#m14f980eaa2" y="315"/>
      </g>
     </g>
     <g id="text_2">
      <text style="fill:#262626;font-family:Cantarell;font-size:14px;font-stretch:normal;font-style:normal;font-weight:normal;text-anchor:middle;" transform="rotate(-0, 184.5, 332.051562)" x="184.5" y="332.051562">Helix</text>
     </g>
    </g>
    <g id="xtick_3">
     <g id="line2d_3">
      <g>
       <use style="fill:#262626;stroke:#262626;stroke-width:2;" x="277.5" xlink:href="#m14f980eaa2" y="315"/>
      </g>
     </g>
     <g id="text_3">
      <text style="fill:#262626;font-family:Cantarell;font-size:14px;font-stretch:normal;font-style:normal;font-weight:normal;text-anchor:middle;" transform="rotate(-0, 277.5, 332.051562)" x="277.5" y="332.051562">Sheet</text>
     </g>
    </g>
    <g id="text_4">
     <text style="fill:#262626;font-family:Cantarell;font-size:14px;font-stretch:normal;font-style:normal;font-weight:normal;text-anchor:middle;" transform="rotate(-0, 184.5, 349.574687)" x="184.5" y="349.574687">Sec structure</text>
    </g>
   </g>
   <g id="matplotlib.axis_2">
    <g id="ytick_1">
     <g id="line2d_4">
      <defs>
       <path d="M 0 0 
L -3.5 0 
" id="m262e798791" style="stroke:#262626;stroke-width:2;"/>
      </defs>
      <g>
       <use style="fill:#262626;stroke:#262626;stroke-width:2;" x="45" xlink:href="#m262e798791" y="274.129559"/>
      </g>
     </g>
     <g id="text_5">
      <text style="fill:#262626;font-family:Cantarell;font-size:14px;font-stretch:normal;font-style:normal;font-weight:normal;text-anchor:end;" transform="rotate(-0, 38, 279.15534)" x="38" y="279.15534">−10</text>
     </g>
    </g>
    <g id="ytick_2">
     <g id="line2d_5">
      <g>
       <use style="fill:#262626;stroke:#262626;stroke-width:2;" x="45" xlink:href="#m262e798791" y="213.969067"/>
      </g>
     </g>
     <g id="text_6">
      <text style="fill:#262626;font-family:Cantarell;font-size:14px;font-stretch:normal;font-style:normal;font-weight:normal;text-anchor:end;" transform="rotate(-0, 38, 218.994849)" x="38" y="218.994849">−5</text>
     </g>
    </g>
    <g id="ytick_3">
     <g id="line2d_6">
      <g>
       <use style="fill:#262626;stroke:#262626;stroke-width:2;" x="45" xlink:href="#m262e798791" y="153.808576"/>
      </g>
     </g>
     <g id="text_7">
      <text style="fill:#262626;font-family:Cantarell;font-size:14px;font-stretch:normal;font-style:normal;font-weight:normal;text-anchor:end;" transform="rotate(-0, 38, 158.834357)" x="38" y="158.834357">0</text>
     </g>
    </g>
    <g id="ytick_4">
     <g id="line2d_7">
      <g>
       <use style="fill:#262626;stroke:#262626;stroke-width:2;" x="45" xlink:href="#m262e798791" y="93.648084"/>
      </g>
     </g>
     <g id="text_8">
      <text style="fill:#262626;font-family:Cantarell;font-size:14px;font-stretch:normal;font-style:normal;font-weight:normal;text-anchor:end;" transform="rotate(-0, 38, 98.673865)" x="38" y="98.673865">5</text>
     </g>
    </g>
    <g id="text_9">
     <text style="fill:#262626;font-family:Cantarell;font-size:14px;font-stretch:normal;font-style:normal;font-weight:normal;text-anchor:middle;" transform="rotate(-90, 4.724687, 179.1)" x="4.724687" y="179.1">Log2 variant enrichment</text>
    </g>
   </g>
   <g id="PolyCollection_1">
    <defs>
     <path d="M 91.963796 -57.354545 
L 91.036204 -57.354545 
L 90.866372 -59.608829 
L 90.654131 -61.863112 
L 90.396055 -64.117395 
L 90.090579 -66.371678 
L 89.738289 -68.625961 
L 89.341866 -70.880244 
L 88.905569 -73.134527 
L 88.434226 -75.38881 
L 87.931772 -77.643094 
L 87.399508 -79.897377 
L 86.834336 -82.15166 
L 86.227296 -84.405943 
L 85.562747 -86.660226 
L 84.818508 -88.914509 
L 83.96712 -91.168792 
L 82.978293 -93.423075 
L 81.822348 -95.677359 
L 80.474357 -97.931642 
L 78.918458 -100.185925 
L 77.151813 -102.440208 
L 75.187597 -104.694491 
L 73.056517 -106.948774 
L 70.806508 -109.203057 
L 68.500441 -111.45734 
L 66.211973 -113.711624 
L 64.019899 -115.965907 
L 62.00164 -118.22019 
L 60.226624 -120.474473 
L 58.750422 -122.728756 
L 57.610398 -124.983039 
L 56.823462 -127.237322 
L 56.386188 -129.491605 
L 56.277233 -131.745889 
L 56.461595 -134.000172 
L 56.896007 -136.254455 
L 57.534577 -138.508738 
L 58.333829 -140.763021 
L 59.256435 -143.017304 
L 60.273233 -145.271587 
L 61.363486 -147.52587 
L 62.513614 -149.780154 
L 63.71494 -152.034437 
L 64.961042 -154.28872 
L 66.245325 -156.543003 
L 67.559245 -158.797286 
L 68.891432 -161.051569 
L 70.22771 -163.305852 
L 71.55183 -165.560135 
L 72.846618 -167.814419 
L 74.095207 -170.068702 
L 75.282087 -172.322985 
L 76.393799 -174.577268 
L 77.419244 -176.831551 
L 78.349674 -179.085834 
L 79.178503 -181.340117 
L 79.901114 -183.5944 
L 80.514773 -185.848683 
L 81.018726 -188.102967 
L 81.414454 -190.35725 
L 81.705976 -192.611533 
L 81.900072 -194.865816 
L 82.006271 -197.120099 
L 82.036506 -199.374382 
L 82.004419 -201.628665 
L 81.924403 -203.882948 
L 81.810531 -206.137232 
L 81.675607 -208.391515 
L 81.530533 -210.645798 
L 81.384159 -212.900081 
L 81.243644 -215.154364 
L 81.11525 -217.408647 
L 81.005372 -219.66293 
L 80.921519 -221.917213 
L 80.872985 -224.171497 
L 80.870975 -226.42578 
L 80.928094 -228.680063 
L 81.05723 -230.934346 
L 81.270016 -233.188629 
L 81.575134 -235.442912 
L 81.976786 -237.697195 
L 82.473593 -239.951478 
L 83.058153 -242.205762 
L 83.717304 -244.460045 
L 84.433081 -246.714328 
L 85.184194 -248.968611 
L 85.947815 -251.222894 
L 86.701425 -253.477177 
L 87.424494 -255.73146 
L 88.099809 -257.985743 
L 88.714345 -260.240027 
L 89.259649 -262.49431 
L 89.731761 -264.748593 
L 90.130759 -267.002876 
L 90.460044 -269.257159 
L 90.725482 -271.511442 
L 90.934521 -273.765725 
L 91.095368 -276.020008 
L 91.216303 -278.274292 
L 91.305152 -280.528575 
L 91.694848 -280.528575 
L 91.694848 -280.528575 
L 91.783697 -278.274292 
L 91.904632 -276.020008 
L 92.065479 -273.765725 
L 92.274518 -271.511442 
L 92.539956 -269.257159 
L 92.869241 -267.002876 
L 93.268239 -264.748593 
L 93.740351 -262.49431 
L 94.285655 -260.240027 
L 94.900191 -257.985743 
L 95.575506 -255.73146 
L 96.298575 -253.477177 
L 97.052185 -251.222894 
L 97.815806 -248.968611 
L 98.566919 -246.714328 
L 99.282696 -244.460045 
L 99.941847 -242.205762 
L 100.526407 -239.951478 
L 101.023214 -237.697195 
L 101.424866 -235.442912 
L 101.729984 -233.188629 
L 101.94277 -230.934346 
L 102.071906 -228.680063 
L 102.129025 -226.42578 
L 102.127015 -224.171497 
L 102.078481 -221.917213 
L 101.994628 -219.66293 
L 101.88475 -217.408647 
L 101.756356 -215.154364 
L 101.615841 -212.900081 
L 101.469467 -210.645798 
L 101.324393 -208.391515 
L 101.189469 -206.137232 
L 101.075597 -203.882948 
L 100.995581 -201.628665 
L 100.963494 -199.374382 
L 100.993729 -197.120099 
L 101.099928 -194.865816 
L 101.294024 -192.611533 
L 101.585546 -190.35725 
L 101.981274 -188.102967 
L 102.485227 -185.848683 
L 103.098886 -183.5944 
L 103.821497 -181.340117 
L 104.650326 -179.085834 
L 105.580756 -176.831551 
L 106.606201 -174.577268 
L 107.717913 -172.322985 
L 108.904793 -170.068702 
L 110.153382 -167.814419 
L 111.44817 -165.560135 
L 112.77229 -163.305852 
L 114.108568 -161.051569 
L 115.440755 -158.797286 
L 116.754675 -156.543003 
L 118.038958 -154.28872 
L 119.28506 -152.034437 
L 120.486386 -149.780154 
L 121.636514 -147.52587 
L 122.726767 -145.271587 
L 123.743565 -143.017304 
L 124.666171 -140.763021 
L 125.465423 -138.508738 
L 126.103993 -136.254455 
L 126.538405 -134.000172 
L 126.722767 -131.745889 
L 126.613812 -129.491605 
L 126.176538 -127.237322 
L 125.389602 -124.983039 
L 124.249578 -122.728756 
L 122.773376 -120.474473 
L 120.99836 -118.22019 
L 118.980101 -115.965907 
L 116.788027 -113.711624 
L 114.499559 -111.45734 
L 112.193492 -109.203057 
L 109.943483 -106.948774 
L 107.812403 -104.694491 
L 105.848187 -102.440208 
L 104.081542 -100.185925 
L 102.525643 -97.931642 
L 101.177652 -95.677359 
L 100.021707 -93.423075 
L 99.03288 -91.168792 
L 98.181492 -88.914509 
L 97.437253 -86.660226 
L 96.772704 -84.405943 
L 96.165664 -82.15166 
L 95.600492 -79.897377 
L 95.068228 -77.643094 
L 94.565774 -75.38881 
L 94.094431 -73.134527 
L 93.658134 -70.880244 
L 93.261711 -68.625961 
L 92.909421 -66.371678 
L 92.603945 -64.117395 
L 92.345869 -61.863112 
L 92.133628 -59.608829 
L 91.963796 -57.354545 
z
" id="m70186812c4" style="stroke:#4d4d4d;stroke-width:2;"/>
    </defs>
    <g clip-path="url(#pbc5dbfb930)">
     <use style="fill:#808080;stroke:#4d4d4d;stroke-width:2;" x="0" xlink:href="#m70186812c4" y="360"/>
    </g>
   </g>
   <g id="PolyCollection_2">
    <defs>
     <path d="M 185.415753 -57.369357 
L 183.584247 -57.369357 
L 183.271267 -59.536144 
L 182.888214 -61.70293 
L 182.432709 -63.869716 
L 181.906777 -66.036503 
L 181.317579 -68.203289 
L 180.677573 -70.370076 
L 180.003912 -72.536862 
L 179.316983 -74.703649 
L 178.638106 -76.870435 
L 177.986608 -79.037222 
L 177.376605 -81.204008 
L 176.813968 -83.370795 
L 176.293984 -85.537581 
L 175.800192 -87.704368 
L 175.304733 -89.871154 
L 174.770354 -92.037941 
L 174.153936 -94.204727 
L 173.411203 -96.371514 
L 172.502027 -98.5383 
L 171.395647 -100.705086 
L 170.075101 -102.871873 
L 168.540266 -105.038659 
L 166.809082 -107.205446 
L 164.916783 -109.372232 
L 162.913255 -111.539019 
L 160.858851 -113.705805 
L 158.819227 -115.872592 
L 156.859855 -118.039378 
L 155.040873 -120.206165 
L 153.412851 -122.372951 
L 152.013896 -124.539738 
L 150.868272 -126.706524 
L 149.986531 -128.873311 
L 149.366902 -131.040097 
L 148.997593 -133.206883 
L 148.859556 -135.37367 
L 148.92931 -137.540456 
L 149.181468 -139.707243 
L 149.590748 -141.874029 
L 150.133388 -144.040816 
L 150.787981 -146.207602 
L 151.535858 -148.374389 
L 152.361168 -150.541175 
L 153.250799 -152.707962 
L 154.194266 -154.874748 
L 155.183586 -157.041535 
L 156.213149 -159.208321 
L 157.279503 -161.375108 
L 158.380986 -163.541894 
L 159.517145 -165.708681 
L 160.687925 -167.875467 
L 161.892692 -170.042253 
L 163.129203 -172.20904 
L 164.392696 -174.375826 
L 165.675276 -176.542613 
L 166.965735 -178.709399 
L 168.249895 -180.876186 
L 169.51144 -183.042972 
L 170.73314 -185.209759 
L 171.898251 -187.376545 
L 172.991884 -189.543332 
L 174.002091 -191.710118 
L 174.920524 -193.876905 
L 175.742571 -196.043691 
L 176.467001 -198.210478 
L 177.095245 -200.377264 
L 177.630487 -202.54405 
L 178.076788 -204.710837 
L 178.438431 -206.877623 
L 178.71962 -209.04441 
L 178.924579 -211.211196 
L 179.058007 -213.377983 
L 179.125767 -215.544769 
L 179.135639 -217.711556 
L 179.097926 -219.878342 
L 179.025748 -222.045129 
L 178.934893 -224.211915 
L 178.843181 -226.378702 
L 178.769364 -228.545488 
L 178.731702 -230.712275 
L 178.746389 -232.879061 
L 178.826043 -235.045847 
L 178.978491 -237.212634 
L 179.20602 -239.37942 
L 179.505199 -241.546207 
L 179.86731 -243.712993 
L 180.279307 -245.87978 
L 180.725182 -248.046566 
L 181.187539 -250.213353 
L 181.649167 -252.380139 
L 182.094445 -254.546926 
L 182.510415 -256.713712 
L 182.887446 -258.880499 
L 183.219482 -261.047285 
L 183.503897 -263.214072 
L 183.741065 -265.380858 
L 183.933722 -267.547645 
L 184.08626 -269.714431 
L 184.204028 -271.881217 
L 184.795972 -271.881217 
L 184.795972 -271.881217 
L 184.91374 -269.714431 
L 185.066278 -267.547645 
L 185.258935 -265.380858 
L 185.496103 -263.214072 
L 185.780518 -261.047285 
L 186.112554 -258.880499 
L 186.489585 -256.713712 
L 186.905555 -254.546926 
L 187.350833 -252.380139 
L 187.812461 -250.213353 
L 188.274818 -248.046566 
L 188.720693 -245.87978 
L 189.13269 -243.712993 
L 189.494801 -241.546207 
L 189.79398 -239.37942 
L 190.021509 -237.212634 
L 190.173957 -235.045847 
L 190.253611 -232.879061 
L 190.268298 -230.712275 
L 190.230636 -228.545488 
L 190.156819 -226.378702 
L 190.065107 -224.211915 
L 189.974252 -222.045129 
L 189.902074 -219.878342 
L 189.864361 -217.711556 
L 189.874233 -215.544769 
L 189.941993 -213.377983 
L 190.075421 -211.211196 
L 190.28038 -209.04441 
L 190.561569 -206.877623 
L 190.923212 -204.710837 
L 191.369513 -202.54405 
L 191.904755 -200.377264 
L 192.532999 -198.210478 
L 193.257429 -196.043691 
L 194.079476 -193.876905 
L 194.997909 -191.710118 
L 196.008116 -189.543332 
L 197.101749 -187.376545 
L 198.26686 -185.209759 
L 199.48856 -183.042972 
L 200.750105 -180.876186 
L 202.034265 -178.709399 
L 203.324724 -176.542613 
L 204.607304 -174.375826 
L 205.870797 -172.20904 
L 207.107308 -170.042253 
L 208.312075 -167.875467 
L 209.482855 -165.708681 
L 210.619014 -163.541894 
L 211.720497 -161.375108 
L 212.786851 -159.208321 
L 213.816414 -157.041535 
L 214.805734 -154.874748 
L 215.749201 -152.707962 
L 216.638832 -150.541175 
L 217.464142 -148.374389 
L 218.212019 -146.207602 
L 218.866612 -144.040816 
L 219.409252 -141.874029 
L 219.818532 -139.707243 
L 220.07069 -137.540456 
L 220.140444 -135.37367 
L 220.002407 -133.206883 
L 219.633098 -131.040097 
L 219.013469 -128.873311 
L 218.131728 -126.706524 
L 216.986104 -124.539738 
L 215.587149 -122.372951 
L 213.959127 -120.206165 
L 212.140145 -118.039378 
L 210.180773 -115.872592 
L 208.141149 -113.705805 
L 206.086745 -111.539019 
L 204.083217 -109.372232 
L 202.190918 -107.205446 
L 200.459734 -105.038659 
L 198.924899 -102.871873 
L 197.604353 -100.705086 
L 196.497973 -98.5383 
L 195.588797 -96.371514 
L 194.846064 -94.204727 
L 194.229646 -92.037941 
L 193.695267 -89.871154 
L 193.199808 -87.704368 
L 192.706016 -85.537581 
L 192.186032 -83.370795 
L 191.623395 -81.204008 
L 191.013392 -79.037222 
L 190.361894 -76.870435 
L 189.683017 -74.703649 
L 188.996088 -72.536862 
L 188.322427 -70.370076 
L 187.682421 -68.203289 
L 187.093223 -66.036503 
L 186.567291 -63.869716 
L 186.111786 -61.70293 
L 185.728733 -59.536144 
L 185.415753 -57.369357 
z
" id="mdcd0e8a2e6" style="stroke:#4d4d4d;stroke-width:2;"/>
    </defs>
    <g clip-path="url(#pbc5dbfb930)">
     <use style="fill:#808080;stroke:#4d4d4d;stroke-width:2;" x="0" xlink:href="#mdcd0e8a2e6" y="360"/>
    </g>
   </g>
   <g id="PolyCollection_3">
    <defs>
     <path d="M 277.961242 -57.801933 
L 277.038758 -57.801933 
L 276.847608 -60.293282 
L 276.603738 -62.784631 
L 276.303107 -65.27598 
L 275.944621 -67.767328 
L 275.530296 -70.258677 
L 275.064586 -72.750026 
L 274.552717 -75.241374 
L 273.998105 -77.732723 
L 273.3992 -80.224072 
L 272.746361 -82.71542 
L 272.019554 -85.206769 
L 271.187682 -87.698118 
L 270.210158 -90.189467 
L 269.041015 -92.680815 
L 267.63531 -95.172164 
L 265.957102 -97.663513 
L 263.987803 -100.154861 
L 261.733463 -102.64621 
L 259.229521 -105.137559 
L 256.541802 -107.628907 
L 253.763105 -110.120256 
L 251.005435 -112.611605 
L 248.388725 -115.102954 
L 246.027624 -117.594302 
L 244.018404 -120.085651 
L 242.428136 -122.577 
L 241.287984 -125.068348 
L 240.591768 -127.559697 
L 240.3 -130.051046 
L 240.348611 -132.542394 
L 240.660753 -135.033743 
L 241.159572 -137.525092 
L 241.779765 -140.016441 
L 242.476074 -142.507789 
L 243.227534 -144.999138 
L 244.037092 -147.490487 
L 244.927053 -149.981835 
L 245.93147 -152.473184 
L 247.087029 -154.964533 
L 248.4241 -157.455881 
L 249.959443 -159.94723 
L 251.691653 -162.438579 
L 253.599828 -164.929927 
L 255.645377 -167.421276 
L 257.776297 -169.912625 
L 259.932951 -172.403974 
L 262.054222 -174.895322 
L 264.08302 -177.386671 
L 265.97042 -179.87802 
L 267.67806 -182.369368 
L 269.17886 -184.860717 
L 270.456367 -187.352066 
L 271.503271 -189.843414 
L 272.319651 -192.334763 
L 272.911413 -194.826112 
L 273.289262 -197.317461 
L 273.468289 -199.808809 
L 273.468103 -202.300158 
L 273.313249 -204.791507 
L 273.033551 -207.282855 
L 272.664012 -209.774204 
L 272.243928 -212.265553 
L 271.81506 -214.756901 
L 271.418855 -217.24825 
L 271.092986 -219.739599 
L 270.867662 -222.230948 
L 270.762321 -224.722296 
L 270.783322 -227.213645 
L 270.92314 -229.704994 
L 271.161357 -232.196342 
L 271.467392 -234.687691 
L 271.804655 -237.17904 
L 272.135502 -239.670388 
L 272.426288 -242.161737 
L 272.651759 -244.653086 
L 272.798177 -247.144435 
L 272.864758 -249.635783 
L 272.863269 -252.127132 
L 272.815902 -254.618481 
L 272.751766 -257.109829 
L 272.702561 -259.601178 
L 272.698061 -262.092527 
L 272.762092 -264.583875 
L 272.909558 -267.075224 
L 273.144925 -269.566573 
L 273.462295 -272.057921 
L 273.846934 -274.54927 
L 274.277895 -277.040619 
L 274.731208 -279.531968 
L 275.183072 -282.023316 
L 275.612551 -284.514665 
L 276.003446 -287.006014 
L 276.345191 -289.497362 
L 276.632848 -291.988711 
L 276.866378 -294.48006 
L 277.04949 -296.971408 
L 277.188317 -299.462757 
L 277.290177 -301.954106 
L 277.362557 -304.445455 
L 277.637443 -304.445455 
L 277.637443 -304.445455 
L 277.709823 -301.954106 
L 277.811683 -299.462757 
L 277.95051 -296.971408 
L 278.133622 -294.48006 
L 278.367152 -291.988711 
L 278.654809 -289.497362 
L 278.996554 -287.006014 
L 279.387449 -284.514665 
L 279.816928 -282.023316 
L 280.268792 -279.531968 
L 280.722105 -277.040619 
L 281.153066 -274.54927 
L 281.537705 -272.057921 
L 281.855075 -269.566573 
L 282.090442 -267.075224 
L 282.237908 -264.583875 
L 282.301939 -262.092527 
L 282.297439 -259.601178 
L 282.248234 -257.109829 
L 282.184098 -254.618481 
L 282.136731 -252.127132 
L 282.135242 -249.635783 
L 282.201823 -247.144435 
L 282.348241 -244.653086 
L 282.573712 -242.161737 
L 282.864498 -239.670388 
L 283.195345 -237.17904 
L 283.532608 -234.687691 
L 283.838643 -232.196342 
L 284.07686 -229.704994 
L 284.216678 -227.213645 
L 284.237679 -224.722296 
L 284.132338 -222.230948 
L 283.907014 -219.739599 
L 283.581145 -217.24825 
L 283.18494 -214.756901 
L 282.756072 -212.265553 
L 282.335988 -209.774204 
L 281.966449 -207.282855 
L 281.686751 -204.791507 
L 281.531897 -202.300158 
L 281.531711 -199.808809 
L 281.710738 -197.317461 
L 282.088587 -194.826112 
L 282.680349 -192.334763 
L 283.496729 -189.843414 
L 284.543633 -187.352066 
L 285.82114 -184.860717 
L 287.32194 -182.369368 
L 289.02958 -179.87802 
L 290.91698 -177.386671 
L 292.945778 -174.895322 
L 295.067049 -172.403974 
L 297.223703 -169.912625 
L 299.354623 -167.421276 
L 301.400172 -164.929927 
L 303.308347 -162.438579 
L 305.040557 -159.94723 
L 306.5759 -157.455881 
L 307.912971 -154.964533 
L 309.06853 -152.473184 
L 310.072947 -149.981835 
L 310.962908 -147.490487 
L 311.772466 -144.999138 
L 312.523926 -142.507789 
L 313.220235 -140.016441 
L 313.840428 -137.525092 
L 314.339247 -135.033743 
L 314.651389 -132.542394 
L 314.7 -130.051046 
L 314.408232 -127.559697 
L 313.712016 -125.068348 
L 312.571864 -122.577 
L 310.981596 -120.085651 
L 308.972376 -117.594302 
L 306.611275 -115.102954 
L 303.994565 -112.611605 
L 301.236895 -110.120256 
L 298.458198 -107.628907 
L 295.770479 -105.137559 
L 293.266537 -102.64621 
L 291.012197 -100.154861 
L 289.042898 -97.663513 
L 287.36469 -95.172164 
L 285.958985 -92.680815 
L 284.789842 -90.189467 
L 283.812318 -87.698118 
L 282.980446 -85.206769 
L 282.253639 -82.71542 
L 281.6008 -80.224072 
L 281.001895 -77.732723 
L 280.447283 -75.241374 
L 279.935414 -72.750026 
L 279.469704 -70.258677 
L 279.055379 -67.767328 
L 278.696893 -65.27598 
L 278.396262 -62.784631 
L 278.152392 -60.293282 
L 277.961242 -57.801933 
z
" id="m106df2c371" style="stroke:#4d4d4d;stroke-width:2;"/>
    </defs>
    <g clip-path="url(#pbc5dbfb930)">
     <use style="fill:#808080;stroke:#4d4d4d;stroke-width:2;" x="0" xlink:href="#m106df2c371" y="360"/>
    </g>
   </g>
   <g id="line2d_8">
    <path clip-path="url(#pbc5dbfb930)" d="M 91.5 274.129559 
L 91.5 107.987321 
" style="fill:none;stroke:#000000;stroke-linecap:round;stroke-width:2;"/>
   </g>
   <g id="line2d_9">
    <path clip-path="url(#pbc5dbfb930)" d="M 91.5 235.104285 
L 91.5 183.480243 
" style="fill:none;stroke:#000000;stroke-linecap:round;stroke-width:6;"/>
   </g>
   <g id="line2d_10">
    <path clip-path="url(#pbc5dbfb930)" d="M 184.5 274.129559 
L 184.5 124.344243 
" style="fill:none;stroke:#000000;stroke-linecap:round;stroke-width:2;"/>
   </g>
   <g id="line2d_11">
    <path clip-path="url(#pbc5dbfb930)" d="M 184.5 236.715422 
L 184.5 191.131507 
" style="fill:none;stroke:#000000;stroke-linecap:round;stroke-width:6;"/>
   </g>
   <g id="line2d_12">
    <path clip-path="url(#pbc5dbfb930)" d="M 277.5 274.129559 
L 277.5 137.763929 
" style="fill:none;stroke:#000000;stroke-linecap:round;stroke-width:2;"/>
   </g>
   <g id="line2d_13">
    <path clip-path="url(#pbc5dbfb930)" d="M 277.5 237.27544 
L 277.5 197.322112 
" style="fill:none;stroke:#000000;stroke-linecap:round;stroke-width:6;"/>
   </g>
   <g id="patch_3">
    <path d="M 45 315 
L 45 43.2 
" style="fill:none;stroke:#262626;stroke-linecap:square;stroke-linejoin:miter;stroke-width:2;"/>
   </g>
   <g id="patch_4">
    <path d="M 45 315 
L 324 315 
" style="fill:none;stroke:#262626;stroke-linecap:square;stroke-linejoin:miter;stroke-width:2;"/>
   </g>
   <g id="PathCollection_1">
    <defs>
     <path d="M 0 2 
C 0.530406 2 1.03916 1.789267 1.414214 1.414214 
C 1.789267 1.03916 2 0.530406 2 0 
C 2 -0.530406 1.789267 -1.03916 1.414214 -1.414214 
C 1.03916 -1.789267 0.530406 -2 0 -2 
C -0.530406 -2 -1.03916 -1.789267 -1.414214 -1.414214 
C -1.789267 -1.03916 -2 -0.530406 -2 0 
C -2 0.530406 -1.789267 1.03916 -1.414214 1.414214 
C -1.03916 1.789267 -0.530406 2 0 2 
z
" id="m5b94340e26" style="stroke:#4d4d4d;"/>
    </defs>
    <g clip-path="url(#pbc5dbfb930)">
     <use style="fill:#ffffff;stroke:#4d4d4d;" x="91.5" xlink:href="#m5b94340e26" y="213.545093"/>
    </g>
   </g>
   <g id="PathCollection_2">
    <g clip-path="url(#pbc5dbfb930)">
     <use style="fill:#ffffff;stroke:#4d4d4d;" x="184.5" xlink:href="#m5b94340e26" y="216.623576"/>
    </g>
   </g>
   <g id="PathCollection_3">
    <g clip-path="url(#pbc5dbfb930)">
     <use style="fill:#ffffff;stroke:#4d4d4d;" x="277.5" xlink:href="#m5b94340e26" y="217.910411"/>
    </g>
   </g>
   <g id="text_10">
    <text style="fill:#262626;font-family:Cantarell;font-size:16.8px;font-stretch:normal;font-style:normal;font-weight:normal;text-anchor:middle;" transform="rotate(-0, 184.5, 37.2)" x="184.5" y="37.2">AraC_UniRapR</text>
   </g>
  </g>
 </g>
 <defs>
  <clipPath id="pbc5dbfb930">
   <rect height="271.8" width="279" x="45" y="43.2"/>
  </clipPath>
 </defs>
</svg>
