<?xml version="1.0" encoding="utf-8" standalone="no"?>
<!DOCTYPE svg PUBLIC "-//W3C//DTD SVG 1.1//EN"
  "http://www.w3.org/Graphics/SVG/1.1/DTD/svg11.dtd">
<!-- Created with matplotlib (https://matplotlib.org/) -->
<svg height="360pt" version="1.1" viewBox="0 0 360 360" width="360pt" xmlns="http://www.w3.org/2000/svg" xmlns:xlink="http://www.w3.org/1999/xlink">
 <metadata>
  <rdf:RDF xmlns:cc="http://creativecommons.org/ns#" xmlns:dc="http://purl.org/dc/elements/1.1/" xmlns:rdf="http://www.w3.org/1999/02/22-rdf-syntax-ns#">
   <cc:Work>
    <dc:type rdf:resource="http://purl.org/dc/dcmitype/StillImage"/>
    <dc:date>2023-04-13T14:39:29.369586</dc:date>
    <dc:format>image/svg+xml</dc:format>
    <dc:creator>
     <cc:Agent>
      <dc:title>Matplotlib v3.3.3, https://matplotlib.org/</dc:title>
     </cc:Agent>
    </dc:creator>
   </cc:Work>
  </rdf:RDF>
 </metadata>
 <defs>
  <style type="text/css">*{stroke-linecap:butt;stroke-linejoin:round;}</style>
 </defs>
 <g id="figure_1">
  <g id="patch_1">
   <path d="M 0 360 
L 360 360 
L 360 0 
L 0 0 
z
" style="fill:#ffffff;"/>
  </g>
  <g id="axes_1">
   <g id="patch_2">
    <path d="M 45 315 
L 324 315 
L 324 43.2 
L 45 43.2 
z
" style="fill:#ffffff;"/>
   </g>
   <g id="matplotlib.axis_1">
    <g id="xtick_1">
     <g id="line2d_1">
      <defs>
       <path d="M 0 0 
L 0 3.5 
" id="mcf7a8442e5" style="stroke:#262626;stroke-width:2;"/>
      </defs>
      <g>
       <use style="fill:#262626;stroke:#262626;stroke-width:2;" x="91.5" xlink:href="#mcf7a8442e5" y="315"/>
      </g>
     </g>
     <g id="text_1">
      <text style="fill:#262626;font-family:Cantarell;font-size:14px;font-stretch:normal;font-style:normal;font-weight:normal;text-anchor:middle;" transform="rotate(-0, 91.5, 332.051562)" x="91.5" y="332.051562">Coil</text>
     </g>
    </g>
    <g id="xtick_2">
     <g id="line2d_2">
      <g>
       <use style="fill:#262626;stroke:#262626;stroke-width:2;" x="184.5" xlink:href="#mcf7a8442e5" y="315"/>
      </g>
     </g>
     <g id="text_2">
      <text style="fill:#262626;font-family:Cantarell;font-size:14px;font-stretch:normal;font-style:normal;font-weight:normal;text-anchor:middle;" transform="rotate(-0, 184.5, 332.051562)" x="184.5" y="332.051562">Helix</text>
     </g>
    </g>
    <g id="xtick_3">
     <g id="line2d_3">
      <g>
       <use style="fill:#262626;stroke:#262626;stroke-width:2;" x="277.5" xlink:href="#mcf7a8442e5" y="315"/>
      </g>
     </g>
     <g id="text_3">
      <text style="fill:#262626;font-family:Cantarell;font-size:14px;font-stretch:normal;font-style:normal;font-weight:normal;text-anchor:middle;" transform="rotate(-0, 277.5, 332.051562)" x="277.5" y="332.051562">Sheet</text>
     </g>
    </g>
    <g id="text_4">
     <text style="fill:#262626;font-family:Cantarell;font-size:14px;font-stretch:normal;font-style:normal;font-weight:normal;text-anchor:middle;" transform="rotate(-0, 184.5, 349.574687)" x="184.5" y="349.574687">Sec structure</text>
    </g>
   </g>
   <g id="matplotlib.axis_2">
    <g id="ytick_1">
     <g id="line2d_4">
      <defs>
       <path d="M 0 0 
L -3.5 0 
" id="m4321960497" style="stroke:#262626;stroke-width:2;"/>
      </defs>
      <g>
       <use style="fill:#262626;stroke:#262626;stroke-width:2;" x="45" xlink:href="#m4321960497" y="308.085235"/>
      </g>
     </g>
     <g id="text_5">
      <text style="fill:#262626;font-family:Cantarell;font-size:14px;font-stretch:normal;font-style:normal;font-weight:normal;text-anchor:end;" transform="rotate(-0, 38, 313.111016)" x="38" y="313.111016">−12.5</text>
     </g>
    </g>
    <g id="ytick_2">
     <g id="line2d_5">
      <g>
       <use style="fill:#262626;stroke:#262626;stroke-width:2;" x="45" xlink:href="#m4321960497" y="273.948473"/>
      </g>
     </g>
     <g id="text_6">
      <text style="fill:#262626;font-family:Cantarell;font-size:14px;font-stretch:normal;font-style:normal;font-weight:normal;text-anchor:end;" transform="rotate(-0, 38, 278.974254)" x="38" y="278.974254">−10.0</text>
     </g>
    </g>
    <g id="ytick_3">
     <g id="line2d_6">
      <g>
       <use style="fill:#262626;stroke:#262626;stroke-width:2;" x="45" xlink:href="#m4321960497" y="239.811711"/>
      </g>
     </g>
     <g id="text_7">
      <text style="fill:#262626;font-family:Cantarell;font-size:14px;font-stretch:normal;font-style:normal;font-weight:normal;text-anchor:end;" transform="rotate(-0, 38, 244.837492)" x="38" y="244.837492">−7.5</text>
     </g>
    </g>
    <g id="ytick_4">
     <g id="line2d_7">
      <g>
       <use style="fill:#262626;stroke:#262626;stroke-width:2;" x="45" xlink:href="#m4321960497" y="205.674949"/>
      </g>
     </g>
     <g id="text_8">
      <text style="fill:#262626;font-family:Cantarell;font-size:14px;font-stretch:normal;font-style:normal;font-weight:normal;text-anchor:end;" transform="rotate(-0, 38, 210.700731)" x="38" y="210.700731">−5.0</text>
     </g>
    </g>
    <g id="ytick_5">
     <g id="line2d_8">
      <g>
       <use style="fill:#262626;stroke:#262626;stroke-width:2;" x="45" xlink:href="#m4321960497" y="171.538187"/>
      </g>
     </g>
     <g id="text_9">
      <text style="fill:#262626;font-family:Cantarell;font-size:14px;font-stretch:normal;font-style:normal;font-weight:normal;text-anchor:end;" transform="rotate(-0, 38, 176.563969)" x="38" y="176.563969">−2.5</text>
     </g>
    </g>
    <g id="ytick_6">
     <g id="line2d_9">
      <g>
       <use style="fill:#262626;stroke:#262626;stroke-width:2;" x="45" xlink:href="#m4321960497" y="137.401426"/>
      </g>
     </g>
     <g id="text_10">
      <text style="fill:#262626;font-family:Cantarell;font-size:14px;font-stretch:normal;font-style:normal;font-weight:normal;text-anchor:end;" transform="rotate(-0, 38, 142.427207)" x="38" y="142.427207">0.0</text>
     </g>
    </g>
    <g id="ytick_7">
     <g id="line2d_10">
      <g>
       <use style="fill:#262626;stroke:#262626;stroke-width:2;" x="45" xlink:href="#m4321960497" y="103.264664"/>
      </g>
     </g>
     <g id="text_11">
      <text style="fill:#262626;font-family:Cantarell;font-size:14px;font-stretch:normal;font-style:normal;font-weight:normal;text-anchor:end;" transform="rotate(-0, 38, 108.290445)" x="38" y="108.290445">2.5</text>
     </g>
    </g>
    <g id="ytick_8">
     <g id="line2d_11">
      <g>
       <use style="fill:#262626;stroke:#262626;stroke-width:2;" x="45" xlink:href="#m4321960497" y="69.127902"/>
      </g>
     </g>
     <g id="text_12">
      <text style="fill:#262626;font-family:Cantarell;font-size:14px;font-stretch:normal;font-style:normal;font-weight:normal;text-anchor:end;" transform="rotate(-0, 38, 74.153683)" x="38" y="74.153683">5.0</text>
     </g>
    </g>
    <g id="text_13">
     <text style="fill:#262626;font-family:Cantarell;font-size:14px;font-stretch:normal;font-style:normal;font-weight:normal;text-anchor:middle;" transform="rotate(-90, -6.812188, 179.1)" x="-6.812188" y="179.1">Log2 variant enrichment</text>
    </g>
   </g>
   <g id="PolyCollection_1">
    <defs>
     <path d="M 93.265401 -58.814754 
L 89.734599 -58.814754 
L 88.995995 -61.281123 
L 88.060482 -63.747491 
L 86.923743 -66.21386 
L 85.600987 -68.680229 
L 84.130362 -71.146597 
L 82.573053 -73.612966 
L 81.009102 -76.079334 
L 79.528791 -78.545703 
L 78.220499 -81.012072 
L 77.156955 -83.47844 
L 76.3825 -85.944809 
L 75.904078 -88.411177 
L 75.68809 -90.877546 
L 75.664085 -93.343915 
L 75.73487 -95.810283 
L 75.791239 -98.276652 
L 75.728634 -100.74302 
L 75.462747 -103.209389 
L 74.941418 -105.675758 
L 74.151009 -108.142126 
L 73.116517 -110.608495 
L 71.895762 -113.074863 
L 70.568918 -115.541232 
L 69.225229 -118.007601 
L 67.949111 -120.473969 
L 66.807753 -122.940338 
L 65.842102 -125.406706 
L 65.062499 -127.873075 
L 64.449518 -130.339444 
L 63.959694 -132.805812 
L 63.535037 -135.272181 
L 63.114582 -137.738549 
L 62.645963 -140.204918 
L 62.09506 -142.671287 
L 61.45225 -145.137655 
L 60.734527 -147.604024 
L 59.98352 -150.070392 
L 59.260178 -152.536761 
L 58.637298 -155.00313 
L 58.191235 -157.469498 
L 57.993946 -159.935867 
L 58.106218 -162.402235 
L 58.572496 -164.868604 
L 59.417429 -167.334973 
L 60.644057 -169.801341 
L 62.233494 -172.26771 
L 64.146043 -174.734078 
L 66.323718 -177.200447 
L 68.694141 -179.666816 
L 71.175694 -182.133184 
L 73.683587 -184.599553 
L 76.136284 -187.065922 
L 78.461563 -189.53229 
L 80.60144 -191.998659 
L 82.515327 -194.465027 
L 84.181084 -196.931396 
L 85.593967 -199.397765 
L 86.763848 -201.864133 
L 87.711324 -204.330502 
L 88.463417 -206.79687 
L 89.049543 -209.263239 
L 89.498208 -211.729608 
L 89.834693 -214.195976 
L 90.079745 -216.662345 
L 90.249121 -219.128713 
L 90.353766 -221.595082 
L 90.400373 -224.061451 
L 90.392159 -226.527819 
L 90.329738 -228.994188 
L 90.212068 -231.460556 
L 90.037485 -233.926925 
L 89.804843 -236.393294 
L 89.514741 -238.859662 
L 89.170755 -241.326031 
L 88.78053 -243.792399 
L 88.356529 -246.258768 
L 87.916225 -248.725137 
L 87.481587 -251.191505 
L 87.077771 -253.657874 
L 86.731101 -256.124242 
L 86.466536 -258.590611 
L 86.304982 -261.05698 
L 86.260829 -263.523348 
L 86.340143 -265.989717 
L 86.539807 -268.456085 
L 86.847774 -270.922454 
L 87.244418 -273.388823 
L 87.704752 -275.855191 
L 88.201177 -278.32156 
L 88.706335 -280.787928 
L 89.195659 -283.254297 
L 89.649289 -285.720666 
L 90.053187 -288.187034 
L 90.399394 -290.653403 
L 90.685554 -293.119771 
L 90.913901 -295.58614 
L 91.089958 -298.052509 
L 91.22119 -300.518877 
L 91.315799 -302.985246 
L 91.684201 -302.985246 
L 91.684201 -302.985246 
L 91.77881 -300.518877 
L 91.910042 -298.052509 
L 92.086099 -295.58614 
L 92.314446 -293.119771 
L 92.600606 -290.653403 
L 92.946813 -288.187034 
L 93.350711 -285.720666 
L 93.804341 -283.254297 
L 94.293665 -280.787928 
L 94.798823 -278.32156 
L 95.295248 -275.855191 
L 95.755582 -273.388823 
L 96.152226 -270.922454 
L 96.460193 -268.456085 
L 96.659857 -265.989717 
L 96.739171 -263.523348 
L 96.695018 -261.05698 
L 96.533464 -258.590611 
L 96.268899 -256.124242 
L 95.922229 -253.657874 
L 95.518413 -251.191505 
L 95.083775 -248.725137 
L 94.643471 -246.258768 
L 94.21947 -243.792399 
L 93.829245 -241.326031 
L 93.485259 -238.859662 
L 93.195157 -236.393294 
L 92.962515 -233.926925 
L 92.787932 -231.460556 
L 92.670262 -228.994188 
L 92.607841 -226.527819 
L 92.599627 -224.061451 
L 92.646234 -221.595082 
L 92.750879 -219.128713 
L 92.920255 -216.662345 
L 93.165307 -214.195976 
L 93.501792 -211.729608 
L 93.950457 -209.263239 
L 94.536583 -206.79687 
L 95.288676 -204.330502 
L 96.236152 -201.864133 
L 97.406033 -199.397765 
L 98.818916 -196.931396 
L 100.484673 -194.465027 
L 102.39856 -191.998659 
L 104.538437 -189.53229 
L 106.863716 -187.065922 
L 109.316413 -184.599553 
L 111.824306 -182.133184 
L 114.305859 -179.666816 
L 116.676282 -177.200447 
L 118.853957 -174.734078 
L 120.766506 -172.26771 
L 122.355943 -169.801341 
L 123.582571 -167.334973 
L 124.427504 -164.868604 
L 124.893782 -162.402235 
L 125.006054 -159.935867 
L 124.808765 -157.469498 
L 124.362702 -155.00313 
L 123.739822 -152.536761 
L 123.01648 -150.070392 
L 122.265473 -147.604024 
L 121.54775 -145.137655 
L 120.90494 -142.671287 
L 120.354037 -140.204918 
L 119.885418 -137.738549 
L 119.464963 -135.272181 
L 119.040306 -132.805812 
L 118.550482 -130.339444 
L 117.937501 -127.873075 
L 117.157898 -125.406706 
L 116.192247 -122.940338 
L 115.050889 -120.473969 
L 113.774771 -118.007601 
L 112.431082 -115.541232 
L 111.104238 -113.074863 
L 109.883483 -110.608495 
L 108.848991 -108.142126 
L 108.058582 -105.675758 
L 107.537253 -103.209389 
L 107.271366 -100.74302 
L 107.208761 -98.276652 
L 107.26513 -95.810283 
L 107.335915 -93.343915 
L 107.31191 -90.877546 
L 107.095922 -88.411177 
L 106.6175 -85.944809 
L 105.843045 -83.47844 
L 104.779501 -81.012072 
L 103.471209 -78.545703 
L 101.990898 -76.079334 
L 100.426947 -73.612966 
L 98.869638 -71.146597 
L 97.399013 -68.680229 
L 96.076257 -66.21386 
L 94.939518 -63.747491 
L 94.004005 -61.281123 
L 93.265401 -58.814754 
z
" id="m217e96612d" style="stroke:#4d4d4d;stroke-width:2;"/>
    </defs>
    <g clip-path="url(#p53ea324b01)">
     <use style="fill:#808080;stroke:#4d4d4d;stroke-width:2;" x="0" xlink:href="#m217e96612d" y="360"/>
    </g>
   </g>
   <g id="PolyCollection_2">
    <defs>
     <path d="M 186.559246 -57.354545 
L 182.440754 -57.354545 
L 181.623417 -59.850413 
L 180.600197 -62.346281 
L 179.36851 -64.842149 
L 177.945646 -67.338017 
L 176.372241 -69.833884 
L 174.712751 -72.329752 
L 173.05198 -74.82562 
L 171.48742 -77.321488 
L 170.118027 -79.817355 
L 169.030983 -82.313223 
L 168.288673 -84.809091 
L 167.918322 -87.304959 
L 167.90643 -89.800826 
L 168.199249 -92.296694 
L 168.709395 -94.792562 
L 169.327451 -97.28843 
L 169.936486 -99.784298 
L 170.426947 -102.280165 
L 170.709478 -104.776033 
L 170.723839 -107.271901 
L 170.442935 -109.767769 
L 169.871968 -112.263636 
L 169.043474 -114.759504 
L 168.009578 -117.255372 
L 166.832954 -119.75124 
L 165.57794 -122.247107 
L 164.302945 -124.742975 
L 163.054957 -127.238843 
L 161.866517 -129.734711 
L 160.755209 -132.230579 
L 159.725388 -134.726446 
L 158.771645 -137.222314 
L 157.883341 -139.718182 
L 157.049491 -142.21405 
L 156.26324 -144.709917 
L 155.525341 -147.205785 
L 154.846165 -149.701653 
L 154.246041 -152.197521 
L 153.753969 -154.693388 
L 153.404934 -157.189256 
L 153.236249 -159.685124 
L 153.283409 -162.180992 
L 153.575986 -164.67686 
L 154.13403 -167.172727 
L 154.965401 -169.668595 
L 156.064312 -172.164463 
L 157.411251 -174.660331 
L 158.974261 -177.156198 
L 160.711407 -179.652066 
L 162.574083 -182.147934 
L 164.510724 -184.643802 
L 166.470432 -187.139669 
L 168.406119 -189.635537 
L 170.276845 -192.131405 
L 172.049241 -194.627273 
L 173.698038 -197.12314 
L 175.205856 -199.619008 
L 176.562469 -202.114876 
L 177.763774 -204.610744 
L 178.810623 -207.106612 
L 179.707653 -209.602479 
L 180.462163 -212.098347 
L 181.083058 -214.594215 
L 181.579871 -217.090083 
L 181.961866 -219.58595 
L 182.237268 -222.081818 
L 182.412685 -224.577686 
L 182.492806 -227.073554 
L 182.480482 -229.569421 
L 182.377259 -232.065289 
L 182.184397 -234.561157 
L 181.904323 -237.057025 
L 181.542345 -239.552893 
L 181.108371 -242.04876 
L 180.618263 -244.544628 
L 180.094487 -247.040496 
L 179.565726 -249.536364 
L 179.065325 -252.032231 
L 178.628617 -254.528099 
L 178.289459 -257.023967 
L 178.076461 -259.519835 
L 178.009556 -262.015702 
L 178.097509 -264.51157 
L 178.336812 -267.007438 
L 178.712177 -269.503306 
L 179.198526 -271.999174 
L 179.764112 -274.495041 
L 180.374232 -276.990909 
L 180.994921 -279.486777 
L 181.596106 -281.982645 
L 182.15384 -284.478512 
L 182.651442 -286.97438 
L 183.07961 -289.470248 
L 183.435671 -291.966116 
L 183.722278 -294.461983 
L 183.945847 -296.957851 
L 184.115002 -299.453719 
L 184.239225 -301.949587 
L 184.327813 -304.445455 
L 184.672187 -304.445455 
L 184.672187 -304.445455 
L 184.760775 -301.949587 
L 184.884998 -299.453719 
L 185.054153 -296.957851 
L 185.277722 -294.461983 
L 185.564329 -291.966116 
L 185.92039 -289.470248 
L 186.348558 -286.97438 
L 186.84616 -284.478512 
L 187.403894 -281.982645 
L 188.005079 -279.486777 
L 188.625768 -276.990909 
L 189.235888 -274.495041 
L 189.801474 -271.999174 
L 190.287823 -269.503306 
L 190.663188 -267.007438 
L 190.902491 -264.51157 
L 190.990444 -262.015702 
L 190.923539 -259.519835 
L 190.710541 -257.023967 
L 190.371383 -254.528099 
L 189.934675 -252.032231 
L 189.434274 -249.536364 
L 188.905513 -247.040496 
L 188.381737 -244.544628 
L 187.891629 -242.04876 
L 187.457655 -239.552893 
L 187.095677 -237.057025 
L 186.815603 -234.561157 
L 186.622741 -232.065289 
L 186.519518 -229.569421 
L 186.507194 -227.073554 
L 186.587315 -224.577686 
L 186.762732 -222.081818 
L 187.038134 -219.58595 
L 187.420129 -217.090083 
L 187.916942 -214.594215 
L 188.537837 -212.098347 
L 189.292347 -209.602479 
L 190.189377 -207.106612 
L 191.236226 -204.610744 
L 192.437531 -202.114876 
L 193.794144 -199.619008 
L 195.301962 -197.12314 
L 196.950759 -194.627273 
L 198.723155 -192.131405 
L 200.593881 -189.635537 
L 202.529568 -187.139669 
L 204.489276 -184.643802 
L 206.425917 -182.147934 
L 208.288593 -179.652066 
L 210.025739 -177.156198 
L 211.588749 -174.660331 
L 212.935688 -172.164463 
L 214.034599 -169.668595 
L 214.86597 -167.172727 
L 215.424014 -164.67686 
L 215.716591 -162.180992 
L 215.763751 -159.685124 
L 215.595066 -157.189256 
L 215.246031 -154.693388 
L 214.753959 -152.197521 
L 214.153835 -149.701653 
L 213.474659 -147.205785 
L 212.73676 -144.709917 
L 211.950509 -142.21405 
L 211.116659 -139.718182 
L 210.228355 -137.222314 
L 209.274612 -134.726446 
L 208.244791 -132.230579 
L 207.133483 -129.734711 
L 205.945043 -127.238843 
L 204.697055 -124.742975 
L 203.42206 -122.247107 
L 202.167046 -119.75124 
L 200.990422 -117.255372 
L 199.956526 -114.759504 
L 199.128032 -112.263636 
L 198.557065 -109.767769 
L 198.276161 -107.271901 
L 198.290522 -104.776033 
L 198.573053 -102.280165 
L 199.063514 -99.784298 
L 199.672549 -97.28843 
L 200.290605 -94.792562 
L 200.800751 -92.296694 
L 201.09357 -89.800826 
L 201.081678 -87.304959 
L 200.711327 -84.809091 
L 199.969017 -82.313223 
L 198.881973 -79.817355 
L 197.51258 -77.321488 
L 195.94802 -74.82562 
L 194.287249 -72.329752 
L 192.627759 -69.833884 
L 191.054354 -67.338017 
L 189.63149 -64.842149 
L 188.399803 -62.346281 
L 187.376583 -59.850413 
L 186.559246 -57.354545 
z
" id="m27c51d0066" style="stroke:#4d4d4d;stroke-width:2;"/>
    </defs>
    <g clip-path="url(#p53ea324b01)">
     <use style="fill:#808080;stroke:#4d4d4d;stroke-width:2;" x="0" xlink:href="#m27c51d0066" y="360"/>
    </g>
   </g>
   <g id="PolyCollection_3">
    <defs>
     <path d="M 279.114931 -60.116483 
L 275.885069 -60.116483 
L 275.306622 -62.141218 
L 274.591018 -64.165954 
L 273.732179 -66.190689 
L 272.733143 -68.215425 
L 271.60804 -70.24016 
L 270.383007 -72.264896 
L 269.095604 -74.289631 
L 267.792477 -76.314367 
L 266.525269 -78.339102 
L 265.345121 -80.363838 
L 264.296426 -82.388573 
L 263.410762 -84.413309 
L 262.701989 -86.438044 
L 262.163467 -88.46278 
L 261.767996 -90.487515 
L 261.470723 -92.512251 
L 261.214704 -94.536986 
L 260.93838 -96.561722 
L 260.583859 -98.586457 
L 260.104762 -100.611193 
L 259.472446 -102.635928 
L 258.679711 -104.660664 
L 257.741504 -106.685399 
L 256.69262 -108.710135 
L 255.582875 -110.73487 
L 254.470544 -112.759606 
L 253.415077 -114.784341 
L 252.470127 -116.809077 
L 251.677752 -118.833812 
L 251.064436 -120.858548 
L 250.639216 -122.883283 
L 250.393894 -124.908019 
L 250.305034 -126.932754 
L 250.337265 -128.95749 
L 250.447299 -130.982225 
L 250.588111 -133.006961 
L 250.712806 -135.031696 
L 250.777841 -137.056432 
L 250.745463 -139.081167 
L 250.585349 -141.105903 
L 250.2756 -143.130638 
L 249.803325 -145.155374 
L 249.165027 -147.180109 
L 248.367038 -149.204845 
L 247.42606 -151.22958 
L 246.369802 -153.254316 
L 245.237488 -155.279051 
L 244.079933 -157.303787 
L 242.958776 -159.328522 
L 241.944511 -161.353258 
L 241.113098 -163.377993 
L 240.541149 -165.402729 
L 240.3 -167.427464 
L 240.449235 -169.4522 
L 241.030487 -171.476935 
L 242.062389 -173.501671 
L 243.537501 -175.526406 
L 245.42177 -177.551142 
L 247.65675 -179.575877 
L 250.164361 -181.600613 
L 252.853577 -183.625348 
L 255.628177 -185.650084 
L 258.394526 -187.674819 
L 261.068451 -189.699555 
L 263.580451 -191.72429 
L 265.878813 -193.749026 
L 267.930546 -195.773761 
L 269.720374 -197.798497 
L 271.248243 -199.823232 
L 272.525938 -201.847968 
L 273.573402 -203.872703 
L 274.415257 -205.897439 
L 275.077901 -207.922174 
L 275.587358 -209.94691 
L 275.967932 -211.971645 
L 276.241558 -213.996381 
L 276.427705 -216.021116 
L 276.543618 -218.045852 
L 276.6047 -220.070587 
L 276.624901 -222.095323 
L 276.616967 -224.120058 
L 276.592529 -226.144794 
L 276.562009 -228.169529 
L 276.534392 -230.194265 
L 276.516939 -232.219 
L 276.514919 -234.243736 
L 276.531437 -236.268471 
L 276.567422 -238.293207 
L 276.621792 -240.317942 
L 276.691802 -242.342678 
L 276.773511 -244.367413 
L 276.862336 -246.392149 
L 276.953587 -248.416884 
L 277.042955 -250.44162 
L 277.12686 -252.466355 
L 277.202671 -254.491091 
L 277.268772 -256.515826 
L 277.324502 -258.540562 
L 277.370005 -260.565297 
L 277.629995 -260.565297 
L 277.629995 -260.565297 
L 277.675498 -258.540562 
L 277.731228 -256.515826 
L 277.797329 -254.491091 
L 277.87314 -252.466355 
L 277.957045 -250.44162 
L 278.046413 -248.416884 
L 278.137664 -246.392149 
L 278.226489 -244.367413 
L 278.308198 -242.342678 
L 278.378208 -240.317942 
L 278.432578 -238.293207 
L 278.468563 -236.268471 
L 278.485081 -234.243736 
L 278.483061 -232.219 
L 278.465608 -230.194265 
L 278.437991 -228.169529 
L 278.407471 -226.144794 
L 278.383033 -224.120058 
L 278.375099 -222.095323 
L 278.3953 -220.070587 
L 278.456382 -218.045852 
L 278.572295 -216.021116 
L 278.758442 -213.996381 
L 279.032068 -211.971645 
L 279.412642 -209.94691 
L 279.922099 -207.922174 
L 280.584743 -205.897439 
L 281.426598 -203.872703 
L 282.474062 -201.847968 
L 283.751757 -199.823232 
L 285.279626 -197.798497 
L 287.069454 -195.773761 
L 289.121187 -193.749026 
L 291.419549 -191.72429 
L 293.931549 -189.699555 
L 296.605474 -187.674819 
L 299.371823 -185.650084 
L 302.146423 -183.625348 
L 304.835639 -181.600613 
L 307.34325 -179.575877 
L 309.57823 -177.551142 
L 311.462499 -175.526406 
L 312.937611 -173.501671 
L 313.969513 -171.476935 
L 314.550765 -169.4522 
L 314.7 -167.427464 
L 314.458851 -165.402729 
L 313.886902 -163.377993 
L 313.055489 -161.353258 
L 312.041224 -159.328522 
L 310.920067 -157.303787 
L 309.762512 -155.279051 
L 308.630198 -153.254316 
L 307.57394 -151.22958 
L 306.632962 -149.204845 
L 305.834973 -147.180109 
L 305.196675 -145.155374 
L 304.7244 -143.130638 
L 304.414651 -141.105903 
L 304.254537 -139.081167 
L 304.222159 -137.056432 
L 304.287194 -135.031696 
L 304.411889 -133.006961 
L 304.552701 -130.982225 
L 304.662735 -128.95749 
L 304.694966 -126.932754 
L 304.606106 -124.908019 
L 304.360784 -122.883283 
L 303.935564 -120.858548 
L 303.322248 -118.833812 
L 302.529873 -116.809077 
L 301.584923 -114.784341 
L 300.529456 -112.759606 
L 299.417125 -110.73487 
L 298.30738 -108.710135 
L 297.258496 -106.685399 
L 296.320289 -104.660664 
L 295.527554 -102.635928 
L 294.895238 -100.611193 
L 294.416141 -98.586457 
L 294.06162 -96.561722 
L 293.785296 -94.536986 
L 293.529277 -92.512251 
L 293.232004 -90.487515 
L 292.836533 -88.46278 
L 292.298011 -86.438044 
L 291.589238 -84.413309 
L 290.703574 -82.388573 
L 289.654879 -80.363838 
L 288.474731 -78.339102 
L 287.207523 -76.314367 
L 285.904396 -74.289631 
L 284.616993 -72.264896 
L 283.39196 -70.24016 
L 282.266857 -68.215425 
L 281.267821 -66.190689 
L 280.408982 -64.165954 
L 279.693378 -62.141218 
L 279.114931 -60.116483 
z
" id="m5513e0340b" style="stroke:#4d4d4d;stroke-width:2;"/>
    </defs>
    <g clip-path="url(#p53ea324b01)">
     <use style="fill:#808080;stroke:#4d4d4d;stroke-width:2;" x="0" xlink:href="#m5513e0340b" y="360"/>
    </g>
   </g>
   <g id="line2d_12">
    <path clip-path="url(#p53ea324b01)" d="M 91.5 273.948473 
L 91.5 130.163124 
" style="fill:none;stroke:#000000;stroke-linecap:round;stroke-width:2;"/>
   </g>
   <g id="line2d_13">
    <path clip-path="url(#p53ea324b01)" d="M 91.5 238.938524 
L 91.5 191.511532 
" style="fill:none;stroke:#000000;stroke-linecap:round;stroke-width:6;"/>
   </g>
   <g id="line2d_14">
    <path clip-path="url(#p53ea324b01)" d="M 184.5 273.948473 
L 184.5 110.37024 
" style="fill:none;stroke:#000000;stroke-linecap:round;stroke-width:2;"/>
   </g>
   <g id="line2d_15">
    <path clip-path="url(#p53ea324b01)" d="M 184.5 237.387173 
L 184.5 185.946852 
" style="fill:none;stroke:#000000;stroke-linecap:round;stroke-width:6;"/>
   </g>
   <g id="line2d_16">
    <path clip-path="url(#p53ea324b01)" d="M 277.5 273.948473 
L 277.5 125.369747 
" style="fill:none;stroke:#000000;stroke-linecap:round;stroke-width:2;"/>
   </g>
   <g id="line2d_17">
    <path clip-path="url(#p53ea324b01)" d="M 277.5 242.085217 
L 277.5 189.363683 
" style="fill:none;stroke:#000000;stroke-linecap:round;stroke-width:6;"/>
   </g>
   <g id="patch_3">
    <path d="M 45 315 
L 45 43.2 
" style="fill:none;stroke:#262626;stroke-linecap:square;stroke-linejoin:miter;stroke-width:2;"/>
   </g>
   <g id="patch_4">
    <path d="M 45 315 
L 324 315 
" style="fill:none;stroke:#262626;stroke-linecap:square;stroke-linejoin:miter;stroke-width:2;"/>
   </g>
   <g id="PathCollection_1">
    <defs>
     <path d="M 0 2 
C 0.530406 2 1.03916 1.789267 1.414214 1.414214 
C 1.789267 1.03916 2 0.530406 2 0 
C 2 -0.530406 1.789267 -1.03916 1.414214 -1.414214 
C 1.03916 -1.789267 0.530406 -2 0 -2 
C -0.530406 -2 -1.03916 -1.789267 -1.414214 -1.414214 
C -1.789267 -1.03916 -2 -0.530406 -2 0 
C -2 0.530406 -1.789267 1.03916 -1.414214 1.414214 
C -1.03916 1.789267 -0.530406 2 0 2 
z
" id="md98a63e806" style="stroke:#4d4d4d;"/>
    </defs>
    <g clip-path="url(#p53ea324b01)">
     <use style="fill:#ffffff;stroke:#4d4d4d;" x="91.5" xlink:href="#md98a63e806" y="211.022515"/>
    </g>
   </g>
   <g id="PathCollection_2">
    <g clip-path="url(#p53ea324b01)">
     <use style="fill:#ffffff;stroke:#4d4d4d;" x="184.5" xlink:href="#md98a63e806" y="206.929176"/>
    </g>
   </g>
   <g id="PathCollection_3">
    <g clip-path="url(#p53ea324b01)">
     <use style="fill:#ffffff;stroke:#4d4d4d;" x="277.5" xlink:href="#md98a63e806" y="213.313349"/>
    </g>
   </g>
   <g id="text_14">
    <text style="fill:#262626;font-family:Cantarell;font-size:16.8px;font-stretch:normal;font-style:normal;font-weight:normal;text-anchor:middle;" transform="rotate(-0, 184.5, 37.2)" x="184.5" y="37.2">Flp_PDZ</text>
   </g>
  </g>
 </g>
 <defs>
  <clipPath id="p53ea324b01">
   <rect height="271.8" width="279" x="45" y="43.2"/>
  </clipPath>
 </defs>
</svg>
