<?xml version="1.0" encoding="utf-8" standalone="no"?>
<!DOCTYPE svg PUBLIC "-//W3C//DTD SVG 1.1//EN"
  "http://www.w3.org/Graphics/SVG/1.1/DTD/svg11.dtd">
<svg xmlns:xlink="http://www.w3.org/1999/xlink" width="360pt" height="360pt" viewBox="0 0 360 360" xmlns="http://www.w3.org/2000/svg" version="1.1">
 <metadata>
  <rdf:RDF xmlns:dc="http://purl.org/dc/elements/1.1/" xmlns:cc="http://creativecommons.org/ns#" xmlns:rdf="http://www.w3.org/1999/02/22-rdf-syntax-ns#">
   <cc:Work>
    <dc:type rdf:resource="http://purl.org/dc/dcmitype/StillImage"/>
    <dc:date>2023-12-01T16:47:14.954620</dc:date>
    <dc:format>image/svg+xml</dc:format>
    <dc:creator>
     <cc:Agent>
      <dc:title>Matplotlib v3.5.3, https://matplotlib.org/</dc:title>
     </cc:Agent>
    </dc:creator>
   </cc:Work>
  </rdf:RDF>
 </metadata>
 <defs>
  <style type="text/css">*{stroke-linejoin: round; stroke-linecap: butt}</style>
 </defs>
 <g id="figure_1">
  <g id="patch_1">
   <path d="M 0 360 
L 360 360 
L 360 0 
L 0 0 
z
" style="fill: #ffffff"/>
  </g>
  <g id="axes_1">
   <g id="patch_2">
    <path d="M 45 320.4 
L 324 320.4 
L 324 43.2 
L 45 43.2 
z
" style="fill: #ffffff"/>
   </g>
   <g id="matplotlib.axis_1">
    <g id="xtick_1">
     <g id="line2d_1">
      <defs>
       <path id="mcf8bd21c76" d="M 0 0 
L 0 3.5 
" style="stroke: #262626; stroke-width: 2"/>
      </defs>
      <g>
       <use xlink:href="#mcf8bd21c76" x="78.111303" y="320.4" style="fill: #262626; stroke: #262626; stroke-width: 2"/>
      </g>
     </g>
     <g id="text_1">
      <text style="fill: #262626; font: 14px 'sans-serif'; text-anchor: middle" x="78.111303" y="338.037813" transform="rotate(-0, 78.111303, 338.037813)">−5.0</text>
     </g>
    </g>
    <g id="xtick_2">
     <g id="line2d_2">
      <g>
       <use xlink:href="#mcf8bd21c76" x="134.45414" y="320.4" style="fill: #262626; stroke: #262626; stroke-width: 2"/>
      </g>
     </g>
     <g id="text_2">
      <text style="fill: #262626; font: 14px 'sans-serif'; text-anchor: middle" x="134.45414" y="338.037813" transform="rotate(-0, 134.45414, 338.037813)">−2.5</text>
     </g>
    </g>
    <g id="xtick_3">
     <g id="line2d_3">
      <g>
       <use xlink:href="#mcf8bd21c76" x="190.796977" y="320.4" style="fill: #262626; stroke: #262626; stroke-width: 2"/>
      </g>
     </g>
     <g id="text_3">
      <text style="fill: #262626; font: 14px 'sans-serif'; text-anchor: middle" x="190.796977" y="338.037813" transform="rotate(-0, 190.796977, 338.037813)">0.0</text>
     </g>
    </g>
    <g id="xtick_4">
     <g id="line2d_4">
      <g>
       <use xlink:href="#mcf8bd21c76" x="247.139814" y="320.4" style="fill: #262626; stroke: #262626; stroke-width: 2"/>
      </g>
     </g>
     <g id="text_4">
      <text style="fill: #262626; font: 14px 'sans-serif'; text-anchor: middle" x="247.139814" y="338.037813" transform="rotate(-0, 247.139814, 338.037813)">2.5</text>
     </g>
    </g>
    <g id="xtick_5">
     <g id="line2d_5">
      <g>
       <use xlink:href="#mcf8bd21c76" x="303.482651" y="320.4" style="fill: #262626; stroke: #262626; stroke-width: 2"/>
      </g>
     </g>
     <g id="text_5">
      <text style="fill: #262626; font: 14px 'sans-serif'; text-anchor: middle" x="303.482651" y="338.037813" transform="rotate(-0, 303.482651, 338.037813)">5.0</text>
     </g>
    </g>
    <g id="text_6">
     <text style="fill: #262626; font: 14px 'sans-serif'; text-anchor: middle" x="184.5" y="355.587188" transform="rotate(-0, 184.5, 355.587188)">Rep-2 log2 enriched read counts</text>
    </g>
   </g>
   <g id="matplotlib.axis_2">
    <g id="ytick_1">
     <g id="line2d_6">
      <defs>
       <path id="md96eee4f46" d="M 0 0 
L -3.5 0 
" style="stroke: #262626; stroke-width: 2"/>
      </defs>
      <g>
       <use xlink:href="#md96eee4f46" x="45" y="309.894053" style="fill: #262626; stroke: #262626; stroke-width: 2"/>
      </g>
     </g>
     <g id="text_7">
      <text style="fill: #262626; font: 14px 'sans-serif'; text-anchor: end" x="38" y="315.212959" transform="rotate(-0, 38, 315.212959)">−6</text>
     </g>
    </g>
    <g id="ytick_2">
     <g id="line2d_7">
      <g>
       <use xlink:href="#md96eee4f46" x="45" y="265.110585" style="fill: #262626; stroke: #262626; stroke-width: 2"/>
      </g>
     </g>
     <g id="text_8">
      <text style="fill: #262626; font: 14px 'sans-serif'; text-anchor: end" x="38" y="270.429491" transform="rotate(-0, 38, 270.429491)">−4</text>
     </g>
    </g>
    <g id="ytick_3">
     <g id="line2d_8">
      <g>
       <use xlink:href="#md96eee4f46" x="45" y="220.327117" style="fill: #262626; stroke: #262626; stroke-width: 2"/>
      </g>
     </g>
     <g id="text_9">
      <text style="fill: #262626; font: 14px 'sans-serif'; text-anchor: end" x="38" y="225.646023" transform="rotate(-0, 38, 225.646023)">−2</text>
     </g>
    </g>
    <g id="ytick_4">
     <g id="line2d_9">
      <g>
       <use xlink:href="#md96eee4f46" x="45" y="175.543649" style="fill: #262626; stroke: #262626; stroke-width: 2"/>
      </g>
     </g>
     <g id="text_10">
      <text style="fill: #262626; font: 14px 'sans-serif'; text-anchor: end" x="38" y="180.862555" transform="rotate(-0, 38, 180.862555)">0</text>
     </g>
    </g>
    <g id="ytick_5">
     <g id="line2d_10">
      <g>
       <use xlink:href="#md96eee4f46" x="45" y="130.760181" style="fill: #262626; stroke: #262626; stroke-width: 2"/>
      </g>
     </g>
     <g id="text_11">
      <text style="fill: #262626; font: 14px 'sans-serif'; text-anchor: end" x="38" y="136.079087" transform="rotate(-0, 38, 136.079087)">2</text>
     </g>
    </g>
    <g id="ytick_6">
     <g id="line2d_11">
      <g>
       <use xlink:href="#md96eee4f46" x="45" y="85.976713" style="fill: #262626; stroke: #262626; stroke-width: 2"/>
      </g>
     </g>
     <g id="text_12">
      <text style="fill: #262626; font: 14px 'sans-serif'; text-anchor: end" x="38" y="91.29562" transform="rotate(-0, 38, 91.29562)">4</text>
     </g>
    </g>
    <g id="text_13">
     <text style="fill: #262626; font: 14px 'sans-serif'; text-anchor: middle" x="10.449375" y="181.8" transform="rotate(-90, 10.449375, 181.8)">Rep-1 log2 enriched read counts</text>
    </g>
   </g>
   <g id="PathCollection_1">
    <defs>
     <path id="m6b3ae29f2a" d="M 0 3 
C 0.795609 3 1.55874 2.683901 2.12132 2.12132 
C 2.683901 1.55874 3 0.795609 3 0 
C 3 -0.795609 2.683901 -1.55874 2.12132 -2.12132 
C 1.55874 -2.683901 0.795609 -3 0 -3 
C -0.795609 -3 -1.55874 -2.683901 -2.12132 -2.12132 
C -2.683901 -1.55874 -3 -0.795609 -3 0 
C -3 0.795609 -2.683901 1.55874 -2.12132 2.12132 
C -1.55874 2.683901 -0.795609 3 0 3 
z
"/>
    </defs>
    <g clip-path="url(#p62a5110af1)">
     <use xlink:href="#m6b3ae29f2a" x="229.574093" y="154.556482" style="fill: #808080; fill-opacity: 0.4"/>
     <use xlink:href="#m6b3ae29f2a" x="274.113638" y="110.744176" style="fill: #808080; fill-opacity: 0.4"/>
     <use xlink:href="#m6b3ae29f2a" x="238.948206" y="134.900091" style="fill: #808080; fill-opacity: 0.4"/>
     <use xlink:href="#m6b3ae29f2a" x="248.597375" y="129.12172" style="fill: #808080; fill-opacity: 0.4"/>
     <use xlink:href="#m6b3ae29f2a" x="196.915089" y="161.909246" style="fill: #808080; fill-opacity: 0.4"/>
     <use xlink:href="#m6b3ae29f2a" x="202.12521" y="152.702535" style="fill: #808080; fill-opacity: 0.4"/>
     <use xlink:href="#m6b3ae29f2a" x="203.385306" y="153.791891" style="fill: #808080; fill-opacity: 0.4"/>
     <use xlink:href="#m6b3ae29f2a" x="256.949393" y="117.812854" style="fill: #808080; fill-opacity: 0.4"/>
     <use xlink:href="#m6b3ae29f2a" x="301.462865" y="86.278861" style="fill: #808080; fill-opacity: 0.4"/>
     <use xlink:href="#m6b3ae29f2a" x="254.044999" y="122.416308" style="fill: #808080; fill-opacity: 0.4"/>
     <use xlink:href="#m6b3ae29f2a" x="240.559345" y="155.501049" style="fill: #808080; fill-opacity: 0.4"/>
     <use xlink:href="#m6b3ae29f2a" x="207.315204" y="154.075514" style="fill: #808080; fill-opacity: 0.4"/>
     <use xlink:href="#m6b3ae29f2a" x="186.060531" y="167.485585" style="fill: #808080; fill-opacity: 0.4"/>
     <use xlink:href="#m6b3ae29f2a" x="173.790755" y="178.497321" style="fill: #808080; fill-opacity: 0.4"/>
     <use xlink:href="#m6b3ae29f2a" x="159.369181" y="192.02682" style="fill: #808080; fill-opacity: 0.4"/>
     <use xlink:href="#m6b3ae29f2a" x="157.672141" y="172.206942" style="fill: #808080; fill-opacity: 0.4"/>
     <use xlink:href="#m6b3ae29f2a" x="187.869527" y="194.61866" style="fill: #808080; fill-opacity: 0.4"/>
     <use xlink:href="#m6b3ae29f2a" x="156.622503" y="186.203191" style="fill: #808080; fill-opacity: 0.4"/>
     <use xlink:href="#m6b3ae29f2a" x="174.181209" y="168.224691" style="fill: #808080; fill-opacity: 0.4"/>
     <use xlink:href="#m6b3ae29f2a" x="173.968099" y="204.028203" style="fill: #808080; fill-opacity: 0.4"/>
     <use xlink:href="#m6b3ae29f2a" x="182.670657" y="173.108471" style="fill: #808080; fill-opacity: 0.4"/>
     <use xlink:href="#m6b3ae29f2a" x="138.387392" y="178.595613" style="fill: #808080; fill-opacity: 0.4"/>
     <use xlink:href="#m6b3ae29f2a" x="181.157238" y="204.410509" style="fill: #808080; fill-opacity: 0.4"/>
     <use xlink:href="#m6b3ae29f2a" x="172.352141" y="195.343006" style="fill: #808080; fill-opacity: 0.4"/>
     <use xlink:href="#m6b3ae29f2a" x="167.640288" y="159.673975" style="fill: #808080; fill-opacity: 0.4"/>
     <use xlink:href="#m6b3ae29f2a" x="194.951375" y="196.551241" style="fill: #808080; fill-opacity: 0.4"/>
     <use xlink:href="#m6b3ae29f2a" x="198.456238" y="179.83854" style="fill: #808080; fill-opacity: 0.4"/>
     <use xlink:href="#m6b3ae29f2a" x="196.199389" y="165.461944" style="fill: #808080; fill-opacity: 0.4"/>
     <use xlink:href="#m6b3ae29f2a" x="219.679031" y="156.588079" style="fill: #808080; fill-opacity: 0.4"/>
     <use xlink:href="#m6b3ae29f2a" x="199.756386" y="164.701254" style="fill: #808080; fill-opacity: 0.4"/>
     <use xlink:href="#m6b3ae29f2a" x="144.553817" y="213.248823" style="fill: #808080; fill-opacity: 0.4"/>
     <use xlink:href="#m6b3ae29f2a" x="175.301877" y="182.44766" style="fill: #808080; fill-opacity: 0.4"/>
     <use xlink:href="#m6b3ae29f2a" x="178.978702" y="196.427669" style="fill: #808080; fill-opacity: 0.4"/>
     <use xlink:href="#m6b3ae29f2a" x="172.379581" y="197.207967" style="fill: #808080; fill-opacity: 0.4"/>
     <use xlink:href="#m6b3ae29f2a" x="169.50613" y="188.782675" style="fill: #808080; fill-opacity: 0.4"/>
     <use xlink:href="#m6b3ae29f2a" x="156.354045" y="194.719473" style="fill: #808080; fill-opacity: 0.4"/>
     <use xlink:href="#m6b3ae29f2a" x="192.874183" y="188.146786" style="fill: #808080; fill-opacity: 0.4"/>
     <use xlink:href="#m6b3ae29f2a" x="164.869633" y="201.020716" style="fill: #808080; fill-opacity: 0.4"/>
     <use xlink:href="#m6b3ae29f2a" x="136.395607" y="198.893185" style="fill: #808080; fill-opacity: 0.4"/>
     <use xlink:href="#m6b3ae29f2a" x="174.422199" y="200.297947" style="fill: #808080; fill-opacity: 0.4"/>
     <use xlink:href="#m6b3ae29f2a" x="157.42018" y="179.919106" style="fill: #808080; fill-opacity: 0.4"/>
     <use xlink:href="#m6b3ae29f2a" x="158.993009" y="182.013543" style="fill: #808080; fill-opacity: 0.4"/>
     <use xlink:href="#m6b3ae29f2a" x="161.166004" y="200.001498" style="fill: #808080; fill-opacity: 0.4"/>
     <use xlink:href="#m6b3ae29f2a" x="167.444763" y="215.980832" style="fill: #808080; fill-opacity: 0.4"/>
     <use xlink:href="#m6b3ae29f2a" x="161.69623" y="188.157643" style="fill: #808080; fill-opacity: 0.4"/>
     <use xlink:href="#m6b3ae29f2a" x="158.474788" y="191.141712" style="fill: #808080; fill-opacity: 0.4"/>
     <use xlink:href="#m6b3ae29f2a" x="165.591471" y="181.887722" style="fill: #808080; fill-opacity: 0.4"/>
     <use xlink:href="#m6b3ae29f2a" x="141.857359" y="187.992081" style="fill: #808080; fill-opacity: 0.4"/>
     <use xlink:href="#m6b3ae29f2a" x="183.536953" y="183.174095" style="fill: #808080; fill-opacity: 0.4"/>
     <use xlink:href="#m6b3ae29f2a" x="155.360126" y="205.326002" style="fill: #808080; fill-opacity: 0.4"/>
     <use xlink:href="#m6b3ae29f2a" x="132.639797" y="196.774101" style="fill: #808080; fill-opacity: 0.4"/>
     <use xlink:href="#m6b3ae29f2a" x="160.195009" y="181.2112" style="fill: #808080; fill-opacity: 0.4"/>
     <use xlink:href="#m6b3ae29f2a" x="160.313735" y="175.232533" style="fill: #808080; fill-opacity: 0.4"/>
     <use xlink:href="#m6b3ae29f2a" x="196.382096" y="195.092208" style="fill: #808080; fill-opacity: 0.4"/>
     <use xlink:href="#m6b3ae29f2a" x="181.828969" y="196.305535" style="fill: #808080; fill-opacity: 0.4"/>
     <use xlink:href="#m6b3ae29f2a" x="184.224324" y="181.479947" style="fill: #808080; fill-opacity: 0.4"/>
     <use xlink:href="#m6b3ae29f2a" x="120.113293" y="175.734945" style="fill: #808080; fill-opacity: 0.4"/>
     <use xlink:href="#m6b3ae29f2a" x="167.662231" y="201.553033" style="fill: #808080; fill-opacity: 0.4"/>
     <use xlink:href="#m6b3ae29f2a" x="169.661052" y="183.675776" style="fill: #808080; fill-opacity: 0.4"/>
     <use xlink:href="#m6b3ae29f2a" x="170.515802" y="171.61629" style="fill: #808080; fill-opacity: 0.4"/>
     <use xlink:href="#m6b3ae29f2a" x="193.757893" y="193.174108" style="fill: #808080; fill-opacity: 0.4"/>
     <use xlink:href="#m6b3ae29f2a" x="189.534154" y="166.952195" style="fill: #808080; fill-opacity: 0.4"/>
     <use xlink:href="#m6b3ae29f2a" x="182.072807" y="180.544776" style="fill: #808080; fill-opacity: 0.4"/>
     <use xlink:href="#m6b3ae29f2a" x="143.806144" y="164.198105" style="fill: #808080; fill-opacity: 0.4"/>
     <use xlink:href="#m6b3ae29f2a" x="165.647579" y="181.76472" style="fill: #808080; fill-opacity: 0.4"/>
     <use xlink:href="#m6b3ae29f2a" x="151.88904" y="186.518919" style="fill: #808080; fill-opacity: 0.4"/>
     <use xlink:href="#m6b3ae29f2a" x="168.342126" y="204.019527" style="fill: #808080; fill-opacity: 0.4"/>
     <use xlink:href="#m6b3ae29f2a" x="172.846808" y="200.435121" style="fill: #808080; fill-opacity: 0.4"/>
     <use xlink:href="#m6b3ae29f2a" x="168.150088" y="188.687029" style="fill: #808080; fill-opacity: 0.4"/>
     <use xlink:href="#m6b3ae29f2a" x="173.277466" y="185.251915" style="fill: #808080; fill-opacity: 0.4"/>
     <use xlink:href="#m6b3ae29f2a" x="159.833217" y="181.054747" style="fill: #808080; fill-opacity: 0.4"/>
     <use xlink:href="#m6b3ae29f2a" x="144.750163" y="197.40186" style="fill: #808080; fill-opacity: 0.4"/>
     <use xlink:href="#m6b3ae29f2a" x="178.44094" y="203.962743" style="fill: #808080; fill-opacity: 0.4"/>
     <use xlink:href="#m6b3ae29f2a" x="150.133444" y="195.430433" style="fill: #808080; fill-opacity: 0.4"/>
     <use xlink:href="#m6b3ae29f2a" x="153.789086" y="191.81615" style="fill: #808080; fill-opacity: 0.4"/>
     <use xlink:href="#m6b3ae29f2a" x="169.69695" y="182.422109" style="fill: #808080; fill-opacity: 0.4"/>
     <use xlink:href="#m6b3ae29f2a" x="171.846292" y="173.003757" style="fill: #808080; fill-opacity: 0.4"/>
     <use xlink:href="#m6b3ae29f2a" x="158.059664" y="183.487125" style="fill: #808080; fill-opacity: 0.4"/>
     <use xlink:href="#m6b3ae29f2a" x="149.99853" y="182.716933" style="fill: #808080; fill-opacity: 0.4"/>
     <use xlink:href="#m6b3ae29f2a" x="161.789298" y="177.181884" style="fill: #808080; fill-opacity: 0.4"/>
     <use xlink:href="#m6b3ae29f2a" x="174.514569" y="195.28234" style="fill: #808080; fill-opacity: 0.4"/>
     <use xlink:href="#m6b3ae29f2a" x="164.240538" y="188.096936" style="fill: #808080; fill-opacity: 0.4"/>
     <use xlink:href="#m6b3ae29f2a" x="159.259521" y="200.038742" style="fill: #808080; fill-opacity: 0.4"/>
     <use xlink:href="#m6b3ae29f2a" x="135.201815" y="175.543454" style="fill: #808080; fill-opacity: 0.4"/>
     <use xlink:href="#m6b3ae29f2a" x="160.845895" y="176.540584" style="fill: #808080; fill-opacity: 0.4"/>
     <use xlink:href="#m6b3ae29f2a" x="148.889613" y="180.929631" style="fill: #808080; fill-opacity: 0.4"/>
     <use xlink:href="#m6b3ae29f2a" x="155.800061" y="184.392176" style="fill: #808080; fill-opacity: 0.4"/>
     <use xlink:href="#m6b3ae29f2a" x="152.408092" y="227.449648" style="fill: #808080; fill-opacity: 0.4"/>
     <use xlink:href="#m6b3ae29f2a" x="170.728855" y="195.430433" style="fill: #808080; fill-opacity: 0.4"/>
     <use xlink:href="#m6b3ae29f2a" x="173.822751" y="177.776038" style="fill: #808080; fill-opacity: 0.4"/>
     <use xlink:href="#m6b3ae29f2a" x="175.653185" y="179.925732" style="fill: #808080; fill-opacity: 0.4"/>
     <use xlink:href="#m6b3ae29f2a" x="145.961885" y="195.803817" style="fill: #808080; fill-opacity: 0.4"/>
     <use xlink:href="#m6b3ae29f2a" x="137.506582" y="209.602094" style="fill: #808080; fill-opacity: 0.4"/>
     <use xlink:href="#m6b3ae29f2a" x="144.355918" y="186.289898" style="fill: #808080; fill-opacity: 0.4"/>
     <use xlink:href="#m6b3ae29f2a" x="161.08349" y="194.641612" style="fill: #808080; fill-opacity: 0.4"/>
     <use xlink:href="#m6b3ae29f2a" x="144.722098" y="218.287291" style="fill: #808080; fill-opacity: 0.4"/>
     <use xlink:href="#m6b3ae29f2a" x="146.480051" y="188.062769" style="fill: #808080; fill-opacity: 0.4"/>
     <use xlink:href="#m6b3ae29f2a" x="158.510906" y="204.725827" style="fill: #808080; fill-opacity: 0.4"/>
     <use xlink:href="#m6b3ae29f2a" x="165.221988" y="188.262488" style="fill: #808080; fill-opacity: 0.4"/>
     <use xlink:href="#m6b3ae29f2a" x="176.596049" y="169.984693" style="fill: #808080; fill-opacity: 0.4"/>
     <use xlink:href="#m6b3ae29f2a" x="166.918766" y="188.711661" style="fill: #808080; fill-opacity: 0.4"/>
     <use xlink:href="#m6b3ae29f2a" x="160.059145" y="176.87797" style="fill: #808080; fill-opacity: 0.4"/>
     <use xlink:href="#m6b3ae29f2a" x="171.6009" y="184.472011" style="fill: #808080; fill-opacity: 0.4"/>
     <use xlink:href="#m6b3ae29f2a" x="165.828802" y="203.537738" style="fill: #808080; fill-opacity: 0.4"/>
     <use xlink:href="#m6b3ae29f2a" x="160.121384" y="195.950087" style="fill: #808080; fill-opacity: 0.4"/>
     <use xlink:href="#m6b3ae29f2a" x="189.541352" y="172.402498" style="fill: #808080; fill-opacity: 0.4"/>
     <use xlink:href="#m6b3ae29f2a" x="167.868892" y="173.400219" style="fill: #808080; fill-opacity: 0.4"/>
     <use xlink:href="#m6b3ae29f2a" x="185.522482" y="168.62153" style="fill: #808080; fill-opacity: 0.4"/>
     <use xlink:href="#m6b3ae29f2a" x="154.746273" y="167.499327" style="fill: #808080; fill-opacity: 0.4"/>
     <use xlink:href="#m6b3ae29f2a" x="170.684947" y="181.009179" style="fill: #808080; fill-opacity: 0.4"/>
     <use xlink:href="#m6b3ae29f2a" x="120.926191" y="218.377179" style="fill: #808080; fill-opacity: 0.4"/>
     <use xlink:href="#m6b3ae29f2a" x="161.253888" y="201.73965" style="fill: #808080; fill-opacity: 0.4"/>
     <use xlink:href="#m6b3ae29f2a" x="186.049096" y="175.601083" style="fill: #808080; fill-opacity: 0.4"/>
     <use xlink:href="#m6b3ae29f2a" x="166.619094" y="206.622656" style="fill: #808080; fill-opacity: 0.4"/>
     <use xlink:href="#m6b3ae29f2a" x="169.713719" y="166.597601" style="fill: #808080; fill-opacity: 0.4"/>
     <use xlink:href="#m6b3ae29f2a" x="217.63077" y="154.38465" style="fill: #808080; fill-opacity: 0.4"/>
     <use xlink:href="#m6b3ae29f2a" x="210.733408" y="138.605156" style="fill: #808080; fill-opacity: 0.4"/>
     <use xlink:href="#m6b3ae29f2a" x="245.018393" y="145.778256" style="fill: #808080; fill-opacity: 0.4"/>
     <use xlink:href="#m6b3ae29f2a" x="252.864463" y="140.585705" style="fill: #808080; fill-opacity: 0.4"/>
     <use xlink:href="#m6b3ae29f2a" x="243.652743" y="132.040739" style="fill: #808080; fill-opacity: 0.4"/>
     <use xlink:href="#m6b3ae29f2a" x="239.155875" y="149.070415" style="fill: #808080; fill-opacity: 0.4"/>
     <use xlink:href="#m6b3ae29f2a" x="251.59267" y="122.951627" style="fill: #808080; fill-opacity: 0.4"/>
     <use xlink:href="#m6b3ae29f2a" x="217.73872" y="148.660664" style="fill: #808080; fill-opacity: 0.4"/>
     <use xlink:href="#m6b3ae29f2a" x="221.363811" y="167.343416" style="fill: #808080; fill-opacity: 0.4"/>
     <use xlink:href="#m6b3ae29f2a" x="176.843678" y="185.183834" style="fill: #808080; fill-opacity: 0.4"/>
     <use xlink:href="#m6b3ae29f2a" x="167.194962" y="180.097662" style="fill: #808080; fill-opacity: 0.4"/>
     <use xlink:href="#m6b3ae29f2a" x="176.375579" y="179.619526" style="fill: #808080; fill-opacity: 0.4"/>
     <use xlink:href="#m6b3ae29f2a" x="183.786938" y="187.171556" style="fill: #808080; fill-opacity: 0.4"/>
     <use xlink:href="#m6b3ae29f2a" x="166.05931" y="177.4864" style="fill: #808080; fill-opacity: 0.4"/>
     <use xlink:href="#m6b3ae29f2a" x="149.404647" y="202.93651" style="fill: #808080; fill-opacity: 0.4"/>
     <use xlink:href="#m6b3ae29f2a" x="173.575157" y="191.935473" style="fill: #808080; fill-opacity: 0.4"/>
     <use xlink:href="#m6b3ae29f2a" x="172.774953" y="160.489094" style="fill: #808080; fill-opacity: 0.4"/>
     <use xlink:href="#m6b3ae29f2a" x="169.301154" y="174.981623" style="fill: #808080; fill-opacity: 0.4"/>
     <use xlink:href="#m6b3ae29f2a" x="140.27365" y="175.694795" style="fill: #808080; fill-opacity: 0.4"/>
     <use xlink:href="#m6b3ae29f2a" x="158.879916" y="189.45588" style="fill: #808080; fill-opacity: 0.4"/>
     <use xlink:href="#m6b3ae29f2a" x="166.362954" y="219.204968" style="fill: #808080; fill-opacity: 0.4"/>
     <use xlink:href="#m6b3ae29f2a" x="156.743526" y="197.230305" style="fill: #808080; fill-opacity: 0.4"/>
     <use xlink:href="#m6b3ae29f2a" x="161.941621" y="183.725437" style="fill: #808080; fill-opacity: 0.4"/>
     <use xlink:href="#m6b3ae29f2a" x="141.103313" y="195.644637" style="fill: #808080; fill-opacity: 0.4"/>
     <use xlink:href="#m6b3ae29f2a" x="144.137294" y="218.16953" style="fill: #808080; fill-opacity: 0.4"/>
     <use xlink:href="#m6b3ae29f2a" x="152.605748" y="181.651922" style="fill: #808080; fill-opacity: 0.4"/>
     <use xlink:href="#m6b3ae29f2a" x="138.550502" y="185.615571" style="fill: #808080; fill-opacity: 0.4"/>
     <use xlink:href="#m6b3ae29f2a" x="131.47034" y="199.630819" style="fill: #808080; fill-opacity: 0.4"/>
     <use xlink:href="#m6b3ae29f2a" x="130.550722" y="178.043387" style="fill: #808080; fill-opacity: 0.4"/>
     <use xlink:href="#m6b3ae29f2a" x="141.413363" y="183.717099" style="fill: #808080; fill-opacity: 0.4"/>
     <use xlink:href="#m6b3ae29f2a" x="159.48909" y="215.861088" style="fill: #808080; fill-opacity: 0.4"/>
     <use xlink:href="#m6b3ae29f2a" x="156.61732" y="186.049596" style="fill: #808080; fill-opacity: 0.4"/>
     <use xlink:href="#m6b3ae29f2a" x="155.161197" y="194.825018" style="fill: #808080; fill-opacity: 0.4"/>
     <use xlink:href="#m6b3ae29f2a" x="172.895812" y="191.880976" style="fill: #808080; fill-opacity: 0.4"/>
     <use xlink:href="#m6b3ae29f2a" x="160.152374" y="210.056497" style="fill: #808080; fill-opacity: 0.4"/>
     <use xlink:href="#m6b3ae29f2a" x="156.732237" y="184.836863" style="fill: #808080; fill-opacity: 0.4"/>
     <use xlink:href="#m6b3ae29f2a" x="146.80039" y="205.62881" style="fill: #808080; fill-opacity: 0.4"/>
     <use xlink:href="#m6b3ae29f2a" x="146.480051" y="220.963998" style="fill: #808080; fill-opacity: 0.4"/>
     <use xlink:href="#m6b3ae29f2a" x="139.821322" y="187.738099" style="fill: #808080; fill-opacity: 0.4"/>
     <use xlink:href="#m6b3ae29f2a" x="159.363757" y="185.699559" style="fill: #808080; fill-opacity: 0.4"/>
     <use xlink:href="#m6b3ae29f2a" x="154.700793" y="182.974007" style="fill: #808080; fill-opacity: 0.4"/>
     <use xlink:href="#m6b3ae29f2a" x="155.833807" y="187.098386" style="fill: #808080; fill-opacity: 0.4"/>
     <use xlink:href="#m6b3ae29f2a" x="89.907454" y="193.641645" style="fill: #808080; fill-opacity: 0.4"/>
     <use xlink:href="#m6b3ae29f2a" x="170.187489" y="176.555963" style="fill: #808080; fill-opacity: 0.4"/>
     <use xlink:href="#m6b3ae29f2a" x="136.581655" y="197.660061" style="fill: #808080; fill-opacity: 0.4"/>
     <use xlink:href="#m6b3ae29f2a" x="147.918967" y="206.354165" style="fill: #808080; fill-opacity: 0.4"/>
     <use xlink:href="#m6b3ae29f2a" x="175.115311" y="183.174095" style="fill: #808080; fill-opacity: 0.4"/>
     <use xlink:href="#m6b3ae29f2a" x="159.044092" y="207.949855" style="fill: #808080; fill-opacity: 0.4"/>
     <use xlink:href="#m6b3ae29f2a" x="148.100311" y="204.71511" style="fill: #808080; fill-opacity: 0.4"/>
     <use xlink:href="#m6b3ae29f2a" x="160.958988" y="198.15386" style="fill: #808080; fill-opacity: 0.4"/>
     <use xlink:href="#m6b3ae29f2a" x="171.975061" y="267.101581" style="fill: #808080; fill-opacity: 0.4"/>
     <use xlink:href="#m6b3ae29f2a" x="149.625138" y="232.120264" style="fill: #808080; fill-opacity: 0.4"/>
     <use xlink:href="#m6b3ae29f2a" x="187.881348" y="262.714588" style="fill: #808080; fill-opacity: 0.4"/>
     <use xlink:href="#m6b3ae29f2a" x="154.552664" y="255.506059" style="fill: #808080; fill-opacity: 0.4"/>
     <use xlink:href="#m6b3ae29f2a" x="149.082576" y="210.129833" style="fill: #808080; fill-opacity: 0.4"/>
     <use xlink:href="#m6b3ae29f2a" x="132.828833" y="270.505194" style="fill: #808080; fill-opacity: 0.4"/>
     <use xlink:href="#m6b3ae29f2a" x="169.239126" y="223.27244" style="fill: #808080; fill-opacity: 0.4"/>
     <use xlink:href="#m6b3ae29f2a" x="174.148921" y="203.723154" style="fill: #808080; fill-opacity: 0.4"/>
     <use xlink:href="#m6b3ae29f2a" x="147.554999" y="239.058461" style="fill: #808080; fill-opacity: 0.4"/>
     <use xlink:href="#m6b3ae29f2a" x="196.384459" y="187.336796" style="fill: #808080; fill-opacity: 0.4"/>
     <use xlink:href="#m6b3ae29f2a" x="88.677154" y="193.500748" style="fill: #808080; fill-opacity: 0.4"/>
     <use xlink:href="#m6b3ae29f2a" x="170.083321" y="215.762222" style="fill: #808080; fill-opacity: 0.4"/>
     <use xlink:href="#m6b3ae29f2a" x="153.0047" y="226.63177" style="fill: #808080; fill-opacity: 0.4"/>
     <use xlink:href="#m6b3ae29f2a" x="111.986634" y="212.314265" style="fill: #808080; fill-opacity: 0.4"/>
     <use xlink:href="#m6b3ae29f2a" x="135.084373" y="189.766847" style="fill: #808080; fill-opacity: 0.4"/>
     <use xlink:href="#m6b3ae29f2a" x="136.210341" y="245.218589" style="fill: #808080; fill-opacity: 0.4"/>
     <use xlink:href="#m6b3ae29f2a" x="151.85543" y="211.087617" style="fill: #808080; fill-opacity: 0.4"/>
     <use xlink:href="#m6b3ae29f2a" x="117.688095" y="209.72853" style="fill: #808080; fill-opacity: 0.4"/>
     <use xlink:href="#m6b3ae29f2a" x="84.39278" y="182.758347" style="fill: #808080; fill-opacity: 0.4"/>
     <use xlink:href="#m6b3ae29f2a" x="167.647964" y="213.86821" style="fill: #808080; fill-opacity: 0.4"/>
     <use xlink:href="#m6b3ae29f2a" x="113.786299" y="298.008266" style="fill: #808080; fill-opacity: 0.4"/>
     <use xlink:href="#m6b3ae29f2a" x="159.663429" y="194.545324" style="fill: #808080; fill-opacity: 0.4"/>
     <use xlink:href="#m6b3ae29f2a" x="170.678391" y="195.604581" style="fill: #808080; fill-opacity: 0.4"/>
     <use xlink:href="#m6b3ae29f2a" x="149.309157" y="188.330858" style="fill: #808080; fill-opacity: 0.4"/>
     <use xlink:href="#m6b3ae29f2a" x="163.404818" y="262.518207" style="fill: #808080; fill-opacity: 0.4"/>
     <use xlink:href="#m6b3ae29f2a" x="185.966744" y="203.400913" style="fill: #808080; fill-opacity: 0.4"/>
     <use xlink:href="#m6b3ae29f2a" x="144.205402" y="203.1667" style="fill: #808080; fill-opacity: 0.4"/>
     <use xlink:href="#m6b3ae29f2a" x="169.017185" y="192.078138" style="fill: #808080; fill-opacity: 0.4"/>
     <use xlink:href="#m6b3ae29f2a" x="154.007475" y="187.066465" style="fill: #808080; fill-opacity: 0.4"/>
     <use xlink:href="#m6b3ae29f2a" x="149.665806" y="183.181883" style="fill: #808080; fill-opacity: 0.4"/>
     <use xlink:href="#m6b3ae29f2a" x="123.528716" y="183.851503" style="fill: #808080; fill-opacity: 0.4"/>
     <use xlink:href="#m6b3ae29f2a" x="202.783467" y="188.062769" style="fill: #808080; fill-opacity: 0.4"/>
     <use xlink:href="#m6b3ae29f2a" x="160.579383" y="184.11831" style="fill: #808080; fill-opacity: 0.4"/>
     <use xlink:href="#m6b3ae29f2a" x="124.810013" y="230.327733" style="fill: #808080; fill-opacity: 0.4"/>
     <use xlink:href="#m6b3ae29f2a" x="137.126295" y="214.351323" style="fill: #808080; fill-opacity: 0.4"/>
     <use xlink:href="#m6b3ae29f2a" x="139.422369" y="212.754988" style="fill: #808080; fill-opacity: 0.4"/>
     <use xlink:href="#m6b3ae29f2a" x="125.975716" y="197.451052" style="fill: #808080; fill-opacity: 0.4"/>
     <use xlink:href="#m6b3ae29f2a" x="171.334246" y="215.036249" style="fill: #808080; fill-opacity: 0.4"/>
     <use xlink:href="#m6b3ae29f2a" x="142.030182" y="202.7714" style="fill: #808080; fill-opacity: 0.4"/>
     <use xlink:href="#m6b3ae29f2a" x="138.571609" y="191.510909" style="fill: #808080; fill-opacity: 0.4"/>
     <use xlink:href="#m6b3ae29f2a" x="162.374517" y="234.550315" style="fill: #808080; fill-opacity: 0.4"/>
     <use xlink:href="#m6b3ae29f2a" x="175.121457" y="201.87111" style="fill: #808080; fill-opacity: 0.4"/>
     <use xlink:href="#m6b3ae29f2a" x="161.175991" y="192.316548" style="fill: #808080; fill-opacity: 0.4"/>
     <use xlink:href="#m6b3ae29f2a" x="152.954563" y="220.199029" style="fill: #808080; fill-opacity: 0.4"/>
     <use xlink:href="#m6b3ae29f2a" x="110.759537" y="223.228157" style="fill: #808080; fill-opacity: 0.4"/>
     <use xlink:href="#m6b3ae29f2a" x="103.264242" y="217.576771" style="fill: #808080; fill-opacity: 0.4"/>
     <use xlink:href="#m6b3ae29f2a" x="196.09857" y="148.015245" style="fill: #808080; fill-opacity: 0.4"/>
    </g>
   </g>
   <g id="PolyCollection_1">
    <defs>
     <path id="m0946b6be22" d="M 84.39278 -135.683783 
L 84.39278 -115.943815 
L 86.585407 -117.295215 
L 88.778034 -118.696063 
L 90.970661 -120.112488 
L 93.163288 -121.528912 
L 95.355915 -122.946463 
L 97.548542 -124.36452 
L 99.741169 -125.746005 
L 101.933797 -127.112097 
L 104.126424 -128.47819 
L 106.319051 -129.844283 
L 108.511678 -131.251058 
L 110.704305 -132.695907 
L 112.896932 -134.09174 
L 115.089559 -135.471592 
L 117.282187 -136.807588 
L 119.474814 -138.144773 
L 121.667441 -139.482642 
L 123.860068 -140.860087 
L 126.052695 -142.265005 
L 128.245322 -143.672231 
L 130.437949 -145.079939 
L 132.630576 -146.486769 
L 134.823204 -147.863572 
L 137.015831 -149.291215 
L 139.208458 -150.620538 
L 141.401085 -152.039947 
L 143.593712 -153.515757 
L 145.786339 -154.823175 
L 147.978966 -156.185276 
L 150.171593 -157.477804 
L 152.364221 -158.893091 
L 154.556848 -160.153624 
L 156.749475 -161.505727 
L 158.942102 -162.891797 
L 161.134729 -164.189925 
L 163.327356 -165.558089 
L 165.519983 -166.839352 
L 167.71261 -168.066826 
L 169.905238 -169.310005 
L 172.097865 -170.485869 
L 174.290492 -171.549568 
L 176.483119 -172.776417 
L 178.675746 -173.986679 
L 180.868373 -175.117305 
L 183.061 -176.172704 
L 185.253627 -177.309314 
L 187.446255 -178.349761 
L 189.638882 -179.397733 
L 191.831509 -180.403933 
L 194.024136 -181.499317 
L 196.216763 -182.549459 
L 198.40939 -183.589583 
L 200.602017 -184.577961 
L 202.794644 -185.542928 
L 204.987272 -186.56388 
L 207.179899 -187.519684 
L 209.372526 -188.471257 
L 211.565153 -189.421626 
L 213.75778 -190.371015 
L 215.950407 -191.323567 
L 218.143034 -192.287477 
L 220.335661 -193.249708 
L 222.528289 -194.256553 
L 224.720916 -195.302074 
L 226.913543 -196.339785 
L 229.10617 -197.304181 
L 231.298797 -198.254454 
L 233.491424 -199.204727 
L 235.684051 -200.155 
L 237.876679 -201.105273 
L 240.069306 -202.050844 
L 242.261933 -202.974921 
L 244.45456 -203.873841 
L 246.647187 -204.809333 
L 248.839814 -205.773439 
L 251.032441 -206.735921 
L 253.225068 -207.698403 
L 255.417696 -208.660885 
L 257.610323 -209.623367 
L 259.80295 -210.586454 
L 261.995577 -211.528634 
L 264.188204 -212.436093 
L 266.380831 -213.352706 
L 268.573458 -214.325296 
L 270.766085 -215.297886 
L 272.958713 -216.270475 
L 275.15134 -217.243688 
L 277.343967 -218.201299 
L 279.536594 -219.151254 
L 281.729221 -220.101209 
L 283.921848 -221.051164 
L 286.114475 -222.001119 
L 288.307102 -222.951074 
L 290.49973 -223.90103 
L 292.692357 -224.850985 
L 294.884984 -225.80094 
L 297.077611 -226.750895 
L 299.270238 -227.70085 
L 301.462865 -228.650805 
L 301.462865 -256.553573 
L 301.462865 -256.553573 
L 299.270238 -255.160185 
L 297.077611 -253.766797 
L 294.884984 -252.373408 
L 292.692357 -250.98002 
L 290.49973 -249.586632 
L 288.307102 -248.193244 
L 286.114475 -246.799855 
L 283.921848 -245.406467 
L 281.729221 -244.013079 
L 279.536594 -242.619691 
L 277.343967 -241.22589 
L 275.15134 -239.830898 
L 272.958713 -238.43815 
L 270.766085 -237.044792 
L 268.573458 -235.650795 
L 266.380831 -234.256797 
L 264.188204 -232.848544 
L 261.995577 -231.447941 
L 259.80295 -230.049703 
L 257.610323 -228.63441 
L 255.417696 -227.21877 
L 253.225068 -225.803002 
L 251.032441 -224.387233 
L 248.839814 -222.970842 
L 246.647187 -221.566665 
L 244.45456 -220.142966 
L 242.261933 -218.768783 
L 240.069306 -217.394599 
L 237.876679 -216.007964 
L 235.684051 -214.631536 
L 233.491424 -213.194223 
L 231.298797 -211.808804 
L 229.10617 -210.468625 
L 226.913543 -209.120557 
L 224.720916 -207.713885 
L 222.528289 -206.312372 
L 220.335661 -204.895167 
L 218.143034 -203.485149 
L 215.950407 -202.092088 
L 213.75778 -200.788479 
L 211.565153 -199.382145 
L 209.372526 -198.028803 
L 207.179899 -196.648911 
L 204.987272 -195.345516 
L 202.794644 -193.956839 
L 200.602017 -192.558262 
L 198.40939 -191.187972 
L 196.216763 -189.883423 
L 194.024136 -188.522974 
L 191.831509 -187.221976 
L 189.638882 -185.8928 
L 187.446255 -184.596892 
L 185.253627 -183.274471 
L 183.061 -182.029789 
L 180.868373 -180.843965 
L 178.675746 -179.574762 
L 176.483119 -178.339917 
L 174.290492 -177.099127 
L 172.097865 -175.922415 
L 169.905238 -174.743245 
L 167.71261 -173.56997 
L 165.519983 -172.393312 
L 163.327356 -171.271725 
L 161.134729 -170.148578 
L 158.942102 -169.064163 
L 156.749475 -168.022464 
L 154.556848 -166.998226 
L 152.364221 -165.954279 
L 150.171593 -164.815681 
L 147.978966 -163.773762 
L 145.786339 -162.659947 
L 143.593712 -161.648533 
L 141.401085 -160.677462 
L 139.208458 -159.715048 
L 137.015831 -158.707834 
L 134.823204 -157.704051 
L 132.630576 -156.743247 
L 130.437949 -155.721247 
L 128.245322 -154.695519 
L 126.052695 -153.73915 
L 123.860068 -152.873953 
L 121.667441 -151.946507 
L 119.474814 -151.017717 
L 117.282187 -150.082278 
L 115.089559 -149.104395 
L 112.896932 -148.09478 
L 110.704305 -147.169785 
L 108.511678 -146.249185 
L 106.319051 -145.257385 
L 104.126424 -144.249987 
L 101.933797 -143.260663 
L 99.741169 -142.307895 
L 97.548542 -141.355126 
L 95.355915 -140.412738 
L 93.163288 -139.490435 
L 90.970661 -138.567064 
L 88.778034 -137.606793 
L 86.585407 -136.644944 
L 84.39278 -135.683783 
z
"/>
    </defs>
    <g clip-path="url(#p62a5110af1)">
     <use xlink:href="#m0946b6be22" x="0" y="360" style="fill: #808080; fill-opacity: 0.15"/>
    </g>
   </g>
   <g id="line2d_12">
    <path d="M 84.39278 234.837463 
L 86.585407 233.631396 
L 88.778034 232.425329 
L 90.970661 231.219261 
L 93.163288 230.013194 
L 95.355915 228.807127 
L 97.548542 227.60106 
L 99.741169 226.394993 
L 101.933797 225.188926 
L 104.126424 223.982859 
L 106.319051 222.776792 
L 108.511678 221.570725 
L 110.704305 220.364658 
L 112.896932 219.158591 
L 115.089559 217.952524 
L 117.282187 216.746457 
L 119.474814 215.54039 
L 121.667441 214.334322 
L 123.860068 213.128255 
L 126.052695 211.922188 
L 128.245322 210.716121 
L 130.437949 209.510054 
L 132.630576 208.303987 
L 134.823204 207.09792 
L 137.015831 205.891853 
L 139.208458 204.685786 
L 141.401085 203.479719 
L 143.593712 202.273652 
L 145.786339 201.067585 
L 147.978966 199.861518 
L 150.171593 198.65545 
L 152.364221 197.449383 
L 154.556848 196.243316 
L 156.749475 195.037249 
L 158.942102 193.831182 
L 161.134729 192.625115 
L 163.327356 191.419048 
L 165.519983 190.212981 
L 167.71261 189.006914 
L 169.905238 187.800847 
L 172.097865 186.59478 
L 174.290492 185.388713 
L 176.483119 184.182646 
L 178.675746 182.976579 
L 180.868373 181.770511 
L 183.061 180.564444 
L 185.253627 179.358377 
L 187.446255 178.15231 
L 189.638882 176.946243 
L 191.831509 175.740176 
L 194.024136 174.534109 
L 196.216763 173.328042 
L 198.40939 172.121975 
L 200.602017 170.915908 
L 202.794644 169.709841 
L 204.987272 168.503774 
L 207.179899 167.297707 
L 209.372526 166.09164 
L 211.565153 164.885572 
L 213.75778 163.679505 
L 215.950407 162.473438 
L 218.143034 161.267371 
L 220.335661 160.061304 
L 222.528289 158.855237 
L 224.720916 157.64917 
L 226.913543 156.443103 
L 229.10617 155.237036 
L 231.298797 154.030969 
L 233.491424 152.824902 
L 235.684051 151.618835 
L 237.876679 150.412768 
L 240.069306 149.206701 
L 242.261933 148.000633 
L 244.45456 146.794566 
L 246.647187 145.588499 
L 248.839814 144.382432 
L 251.032441 143.176365 
L 253.225068 141.970298 
L 255.417696 140.764231 
L 257.610323 139.558164 
L 259.80295 138.352097 
L 261.995577 137.14603 
L 264.188204 135.939963 
L 266.380831 134.733896 
L 268.573458 133.527829 
L 270.766085 132.321762 
L 272.958713 131.115694 
L 275.15134 129.909627 
L 277.343967 128.70356 
L 279.536594 127.497493 
L 281.729221 126.291426 
L 283.921848 125.085359 
L 286.114475 123.879292 
L 288.307102 122.673225 
L 290.49973 121.467158 
L 292.692357 120.261091 
L 294.884984 119.055024 
L 297.077611 117.848957 
L 299.270238 116.64289 
L 301.462865 115.436823 
" clip-path="url(#p62a5110af1)" style="fill: none; stroke: #808080; stroke-width: 2.25; stroke-linecap: round"/>
   </g>
   <g id="patch_3">
    <path d="M 45 320.4 
L 45 43.2 
" style="fill: none; stroke: #262626; stroke-width: 2; stroke-linejoin: miter; stroke-linecap: square"/>
   </g>
   <g id="patch_4">
    <path d="M 45 320.4 
L 324 320.4 
" style="fill: none; stroke: #262626; stroke-width: 2; stroke-linejoin: miter; stroke-linecap: square"/>
   </g>
   <g id="text_14">
    <text style="fill: #262626; font: 16.8px 'sans-serif'; text-anchor: middle" x="184.5" y="37.2" transform="rotate(-0, 184.5, 37.2)">TVMV PDZ Enrichment: 2</text>
   </g>
   <g id="legend_1">
    <g id="line2d_13">
     <path d="M 155.146875 61.537812 
L 169.146875 61.537812 
L 183.146875 61.537812 
" style="fill: none; stroke: #808080; stroke-width: 2.25; stroke-linecap: round"/>
    </g>
    <g id="text_15">
     <text style="fill: #262626; font: 14px 'sans-serif'; text-anchor: start" x="194.346875" y="66.437812" transform="rotate(-0, 194.346875, 66.437812)">Pearson's r: 0.65</text>
    </g>
   </g>
  </g>
 </g>
 <defs>
  <clipPath id="p62a5110af1">
   <rect x="45" y="43.2" width="279" height="277.2"/>
  </clipPath>
 </defs>
</svg>
