<?xml version="1.0" encoding="utf-8" standalone="no"?>
<!DOCTYPE svg PUBLIC "-//W3C//DTD SVG 1.1//EN"
  "http://www.w3.org/Graphics/SVG/1.1/DTD/svg11.dtd">
<!-- Created with matplotlib (https://matplotlib.org/) -->
<svg height="360pt" version="1.1" viewBox="0 0 360 360" width="360pt" xmlns="http://www.w3.org/2000/svg" xmlns:xlink="http://www.w3.org/1999/xlink">
 <metadata>
  <rdf:RDF xmlns:cc="http://creativecommons.org/ns#" xmlns:dc="http://purl.org/dc/elements/1.1/" xmlns:rdf="http://www.w3.org/1999/02/22-rdf-syntax-ns#">
   <cc:Work>
    <dc:type rdf:resource="http://purl.org/dc/dcmitype/StillImage"/>
    <dc:date>2023-04-13T14:39:27.678949</dc:date>
    <dc:format>image/svg+xml</dc:format>
    <dc:creator>
     <cc:Agent>
      <dc:title>Matplotlib v3.3.3, https://matplotlib.org/</dc:title>
     </cc:Agent>
    </dc:creator>
   </cc:Work>
  </rdf:RDF>
 </metadata>
 <defs>
  <style type="text/css">*{stroke-linecap:butt;stroke-linejoin:round;}</style>
 </defs>
 <g id="figure_1">
  <g id="patch_1">
   <path d="M 0 360 
L 360 360 
L 360 0 
L 0 0 
z
" style="fill:#ffffff;"/>
  </g>
  <g id="axes_1">
   <g id="patch_2">
    <path d="M 45 315 
L 324 315 
L 324 43.2 
L 45 43.2 
z
" style="fill:#ffffff;"/>
   </g>
   <g id="matplotlib.axis_1">
    <g id="xtick_1">
     <g id="line2d_1">
      <defs>
       <path d="M 0 0 
L 0 3.5 
" id="md52b3788c7" style="stroke:#262626;stroke-width:2;"/>
      </defs>
      <g>
       <use style="fill:#262626;stroke:#262626;stroke-width:2;" x="91.5" xlink:href="#md52b3788c7" y="315"/>
      </g>
     </g>
     <g id="text_1">
      <text style="fill:#262626;font-family:Cantarell;font-size:14px;font-stretch:normal;font-style:normal;font-weight:normal;text-anchor:middle;" transform="rotate(-0, 91.5, 332.051562)" x="91.5" y="332.051562">Coil</text>
     </g>
    </g>
    <g id="xtick_2">
     <g id="line2d_2">
      <g>
       <use style="fill:#262626;stroke:#262626;stroke-width:2;" x="184.5" xlink:href="#md52b3788c7" y="315"/>
      </g>
     </g>
     <g id="text_2">
      <text style="fill:#262626;font-family:Cantarell;font-size:14px;font-stretch:normal;font-style:normal;font-weight:normal;text-anchor:middle;" transform="rotate(-0, 184.5, 332.051562)" x="184.5" y="332.051562">Helix</text>
     </g>
    </g>
    <g id="xtick_3">
     <g id="line2d_3">
      <g>
       <use style="fill:#262626;stroke:#262626;stroke-width:2;" x="277.5" xlink:href="#md52b3788c7" y="315"/>
      </g>
     </g>
     <g id="text_3">
      <text style="fill:#262626;font-family:Cantarell;font-size:14px;font-stretch:normal;font-style:normal;font-weight:normal;text-anchor:middle;" transform="rotate(-0, 277.5, 332.051562)" x="277.5" y="332.051562">Sheet</text>
     </g>
    </g>
    <g id="text_4">
     <text style="fill:#262626;font-family:Cantarell;font-size:14px;font-stretch:normal;font-style:normal;font-weight:normal;text-anchor:middle;" transform="rotate(-0, 184.5, 349.574687)" x="184.5" y="349.574687">Sec structure</text>
    </g>
   </g>
   <g id="matplotlib.axis_2">
    <g id="ytick_1">
     <g id="line2d_4">
      <defs>
       <path d="M 0 0 
L -3.5 0 
" id="mf8631af816" style="stroke:#262626;stroke-width:2;"/>
      </defs>
      <g>
       <use style="fill:#262626;stroke:#262626;stroke-width:2;" x="45" xlink:href="#mf8631af816" y="302.08628"/>
      </g>
     </g>
     <g id="text_5">
      <text style="fill:#262626;font-family:Cantarell;font-size:14px;font-stretch:normal;font-style:normal;font-weight:normal;text-anchor:end;" transform="rotate(-0, 38, 307.112061)" x="38" y="307.112061">−12.5</text>
     </g>
    </g>
    <g id="ytick_2">
     <g id="line2d_5">
      <g>
       <use style="fill:#262626;stroke:#262626;stroke-width:2;" x="45" xlink:href="#mf8631af816" y="269.19726"/>
      </g>
     </g>
     <g id="text_6">
      <text style="fill:#262626;font-family:Cantarell;font-size:14px;font-stretch:normal;font-style:normal;font-weight:normal;text-anchor:end;" transform="rotate(-0, 38, 274.223042)" x="38" y="274.223042">−10.0</text>
     </g>
    </g>
    <g id="ytick_3">
     <g id="line2d_6">
      <g>
       <use style="fill:#262626;stroke:#262626;stroke-width:2;" x="45" xlink:href="#mf8631af816" y="236.308241"/>
      </g>
     </g>
     <g id="text_7">
      <text style="fill:#262626;font-family:Cantarell;font-size:14px;font-stretch:normal;font-style:normal;font-weight:normal;text-anchor:end;" transform="rotate(-0, 38, 241.334022)" x="38" y="241.334022">−7.5</text>
     </g>
    </g>
    <g id="ytick_4">
     <g id="line2d_7">
      <g>
       <use style="fill:#262626;stroke:#262626;stroke-width:2;" x="45" xlink:href="#mf8631af816" y="203.419222"/>
      </g>
     </g>
     <g id="text_8">
      <text style="fill:#262626;font-family:Cantarell;font-size:14px;font-stretch:normal;font-style:normal;font-weight:normal;text-anchor:end;" transform="rotate(-0, 38, 208.445003)" x="38" y="208.445003">−5.0</text>
     </g>
    </g>
    <g id="ytick_5">
     <g id="line2d_8">
      <g>
       <use style="fill:#262626;stroke:#262626;stroke-width:2;" x="45" xlink:href="#mf8631af816" y="170.530202"/>
      </g>
     </g>
     <g id="text_9">
      <text style="fill:#262626;font-family:Cantarell;font-size:14px;font-stretch:normal;font-style:normal;font-weight:normal;text-anchor:end;" transform="rotate(-0, 38, 175.555984)" x="38" y="175.555984">−2.5</text>
     </g>
    </g>
    <g id="ytick_6">
     <g id="line2d_9">
      <g>
       <use style="fill:#262626;stroke:#262626;stroke-width:2;" x="45" xlink:href="#mf8631af816" y="137.641183"/>
      </g>
     </g>
     <g id="text_10">
      <text style="fill:#262626;font-family:Cantarell;font-size:14px;font-stretch:normal;font-style:normal;font-weight:normal;text-anchor:end;" transform="rotate(-0, 38, 142.666964)" x="38" y="142.666964">0.0</text>
     </g>
    </g>
    <g id="ytick_7">
     <g id="line2d_10">
      <g>
       <use style="fill:#262626;stroke:#262626;stroke-width:2;" x="45" xlink:href="#mf8631af816" y="104.752163"/>
      </g>
     </g>
     <g id="text_11">
      <text style="fill:#262626;font-family:Cantarell;font-size:14px;font-stretch:normal;font-style:normal;font-weight:normal;text-anchor:end;" transform="rotate(-0, 38, 109.777945)" x="38" y="109.777945">2.5</text>
     </g>
    </g>
    <g id="ytick_8">
     <g id="line2d_11">
      <g>
       <use style="fill:#262626;stroke:#262626;stroke-width:2;" x="45" xlink:href="#mf8631af816" y="71.863144"/>
      </g>
     </g>
     <g id="text_12">
      <text style="fill:#262626;font-family:Cantarell;font-size:14px;font-stretch:normal;font-style:normal;font-weight:normal;text-anchor:end;" transform="rotate(-0, 38, 76.888925)" x="38" y="76.888925">5.0</text>
     </g>
    </g>
    <g id="text_13">
     <text style="fill:#262626;font-family:Cantarell;font-size:14px;font-stretch:normal;font-style:normal;font-weight:normal;text-anchor:middle;" transform="rotate(-90, -6.812188, 179.1)" x="-6.812188" y="179.1">Log2 variant enrichment</text>
    </g>
   </g>
   <g id="PolyCollection_1">
    <defs>
     <path d="M 91.84596 -59.354399 
L 91.15404 -59.354399 
L 91.033104 -61.768226 
L 90.883696 -64.182054 
L 90.703938 -66.595881 
L 90.49322 -69.009709 
L 90.252336 -71.423536 
L 89.983369 -73.837364 
L 89.689267 -76.251191 
L 89.373077 -78.665019 
L 89.036889 -81.078846 
L 88.680593 -83.492674 
L 88.300629 -85.906501 
L 87.888947 -88.320329 
L 87.432428 -90.734157 
L 86.912945 -93.147984 
L 86.308232 -95.561812 
L 85.593561 -97.975639 
L 84.744156 -100.389467 
L 83.73811 -102.803294 
L 82.559504 -105.217122 
L 81.201322 -107.630949 
L 79.667786 -110.044777 
L 77.975719 -112.458604 
L 76.154692 -114.872432 
L 74.245791 -117.286259 
L 72.299033 -119.700087 
L 70.369646 -122.113914 
L 68.513566 -124.527742 
L 66.782676 -126.94157 
L 65.220379 -129.355397 
L 63.858081 -131.769225 
L 62.713101 -134.183052 
L 61.788315 -136.59688 
L 61.073623 -139.010707 
L 60.54902 -141.424535 
L 60.188828 -143.838362 
L 59.966422 -146.25219 
L 59.858717 -148.666017 
L 59.849715 -151.079845 
L 59.932573 -153.493672 
L 60.109915 -155.9075 
L 60.392407 -158.321327 
L 60.795891 -160.735155 
L 61.337619 -163.148983 
L 62.032212 -165.56281 
L 62.888012 -167.976638 
L 63.90435 -170.390465 
L 65.070108 -172.804293 
L 66.363684 -175.21812 
L 67.754308 -177.631948 
L 69.204398 -180.045775 
L 70.672601 -182.459603 
L 72.117054 -184.87343 
L 73.498453 -187.287258 
L 74.782581 -189.701085 
L 75.942067 -192.114913 
L 76.957287 -194.52874 
L 77.816414 -196.942568 
L 78.514779 -199.356396 
L 79.053737 -201.770223 
L 79.43928 -204.184051 
L 79.680638 -206.597878 
L 79.789058 -209.011706 
L 79.776886 -211.425533 
L 79.65703 -213.839361 
L 79.442777 -216.253188 
L 79.14791 -218.667016 
L 78.78704 -221.080843 
L 78.376023 -223.494671 
L 77.932358 -225.908498 
L 77.475463 -228.322326 
L 77.026747 -230.736154 
L 76.609405 -233.149981 
L 76.247896 -235.563809 
L 75.967092 -237.977636 
L 75.791125 -240.391464 
L 75.741979 -242.805291 
L 75.837952 -245.219119 
L 76.092124 -247.632946 
L 76.511011 -250.046774 
L 77.093589 -252.460601 
L 77.830844 -254.874429 
L 78.705959 -257.288256 
L 79.695175 -259.702084 
L 80.769268 -262.115911 
L 81.895515 -264.529739 
L 83.039938 -266.943567 
L 84.169588 -269.357394 
L 85.254633 -271.771222 
L 86.270043 -274.185049 
L 87.196724 -276.598877 
L 88.022043 -279.012704 
L 88.739759 -281.426532 
L 89.349446 -283.840359 
L 89.855533 -286.254187 
L 90.266132 -288.668014 
L 90.591794 -291.081842 
L 90.84434 -293.495669 
L 91.035843 -295.909497 
L 91.177851 -298.323324 
L 91.822149 -298.323324 
L 91.822149 -298.323324 
L 91.964157 -295.909497 
L 92.15566 -293.495669 
L 92.408206 -291.081842 
L 92.733868 -288.668014 
L 93.144467 -286.254187 
L 93.650554 -283.840359 
L 94.260241 -281.426532 
L 94.977957 -279.012704 
L 95.803276 -276.598877 
L 96.729957 -274.185049 
L 97.745367 -271.771222 
L 98.830412 -269.357394 
L 99.960062 -266.943567 
L 101.104485 -264.529739 
L 102.230732 -262.115911 
L 103.304825 -259.702084 
L 104.294041 -257.288256 
L 105.169156 -254.874429 
L 105.906411 -252.460601 
L 106.488989 -250.046774 
L 106.907876 -247.632946 
L 107.162048 -245.219119 
L 107.258021 -242.805291 
L 107.208875 -240.391464 
L 107.032908 -237.977636 
L 106.752104 -235.563809 
L 106.390595 -233.149981 
L 105.973253 -230.736154 
L 105.524537 -228.322326 
L 105.067642 -225.908498 
L 104.623977 -223.494671 
L 104.21296 -221.080843 
L 103.85209 -218.667016 
L 103.557223 -216.253188 
L 103.34297 -213.839361 
L 103.223114 -211.425533 
L 103.210942 -209.011706 
L 103.319362 -206.597878 
L 103.56072 -204.184051 
L 103.946263 -201.770223 
L 104.485221 -199.356396 
L 105.183586 -196.942568 
L 106.042713 -194.52874 
L 107.057933 -192.114913 
L 108.217419 -189.701085 
L 109.501547 -187.287258 
L 110.882946 -184.87343 
L 112.327399 -182.459603 
L 113.795602 -180.045775 
L 115.245692 -177.631948 
L 116.636316 -175.21812 
L 117.929892 -172.804293 
L 119.09565 -170.390465 
L 120.111988 -167.976638 
L 120.967788 -165.56281 
L 121.662381 -163.148983 
L 122.204109 -160.735155 
L 122.607593 -158.321327 
L 122.890085 -155.9075 
L 123.067427 -153.493672 
L 123.150285 -151.079845 
L 123.141283 -148.666017 
L 123.033578 -146.25219 
L 122.811172 -143.838362 
L 122.45098 -141.424535 
L 121.926377 -139.010707 
L 121.211685 -136.59688 
L 120.286899 -134.183052 
L 119.141919 -131.769225 
L 117.779621 -129.355397 
L 116.217324 -126.94157 
L 114.486434 -124.527742 
L 112.630354 -122.113914 
L 110.700967 -119.700087 
L 108.754209 -117.286259 
L 106.845308 -114.872432 
L 105.024281 -112.458604 
L 103.332214 -110.044777 
L 101.798678 -107.630949 
L 100.440496 -105.217122 
L 99.26189 -102.803294 
L 98.255844 -100.389467 
L 97.406439 -97.975639 
L 96.691768 -95.561812 
L 96.087055 -93.147984 
L 95.567572 -90.734157 
L 95.111053 -88.320329 
L 94.699371 -85.906501 
L 94.319407 -83.492674 
L 93.963111 -81.078846 
L 93.626923 -78.665019 
L 93.310733 -76.251191 
L 93.016631 -73.837364 
L 92.747664 -71.423536 
L 92.50678 -69.009709 
L 92.296062 -66.595881 
L 92.116304 -64.182054 
L 91.966896 -61.768226 
L 91.84596 -59.354399 
z
" id="m6f02915015" style="stroke:#4d4d4d;stroke-width:2;"/>
    </defs>
    <g clip-path="url(#p2080ec79bc)">
     <use style="fill:#808080;stroke:#4d4d4d;stroke-width:2;" x="0" xlink:href="#m6f02915015" y="360"/>
    </g>
   </g>
   <g id="PolyCollection_2">
    <defs>
     <path d="M 185.184297 -57.354545 
L 183.815703 -57.354545 
L 183.58648 -59.850413 
L 183.306711 -62.346281 
L 182.974525 -64.842149 
L 182.591016 -67.338017 
L 182.160733 -69.833884 
L 181.691777 -72.329752 
L 181.1954 -74.82562 
L 180.68501 -77.321488 
L 180.17461 -79.817355 
L 179.676797 -82.313223 
L 179.200524 -84.809091 
L 178.74896 -87.304959 
L 178.317783 -89.800826 
L 177.894249 -92.296694 
L 177.457307 -94.792562 
L 176.97888 -97.28843 
L 176.426298 -99.784298 
L 175.765665 -102.280165 
L 174.965804 -104.776033 
L 174.002306 -107.271901 
L 172.861157 -109.767769 
L 171.541462 -112.263636 
L 170.056858 -114.759504 
L 168.435377 -117.255372 
L 166.717711 -119.75124 
L 164.954034 -122.247107 
L 163.199713 -124.742975 
L 161.510391 -127.238843 
L 159.937031 -129.734711 
L 158.52148 -132.230579 
L 157.293094 -134.726446 
L 156.266802 -137.222314 
L 155.442829 -139.718182 
L 154.808069 -142.21405 
L 154.338898 -144.709917 
L 154.005048 -147.205785 
L 153.774029 -149.701653 
L 153.615536 -152.197521 
L 153.505296 -154.693388 
L 153.427921 -157.189256 
L 153.378451 -159.685124 
L 153.362462 -162.180992 
L 153.394808 -164.67686 
L 153.497211 -167.172727 
L 153.695048 -169.668595 
L 154.013779 -172.164463 
L 154.475446 -174.660331 
L 155.095661 -177.156198 
L 155.881416 -179.652066 
L 156.829908 -182.147934 
L 157.928472 -184.643802 
L 159.155531 -187.139669 
L 160.482415 -189.635537 
L 161.875745 -192.131405 
L 163.300102 -194.627273 
L 164.720647 -197.12314 
L 166.10542 -199.619008 
L 167.427122 -202.114876 
L 168.664236 -204.610744 
L 169.801492 -207.106612 
L 170.829698 -209.602479 
L 171.745081 -212.098347 
L 172.548277 -214.594215 
L 173.243175 -217.090083 
L 173.835762 -219.58595 
L 174.333139 -222.081818 
L 174.742813 -224.577686 
L 175.072339 -227.073554 
L 175.329301 -229.569421 
L 175.52161 -232.065289 
L 175.657992 -234.561157 
L 175.748545 -237.057025 
L 175.805193 -239.552893 
L 175.841881 -242.04876 
L 175.874414 -244.544628 
L 175.919858 -247.040496 
L 175.995555 -249.536364 
L 176.117825 -252.032231 
L 176.300551 -254.528099 
L 176.553831 -257.023967 
L 176.882914 -259.519835 
L 177.287577 -262.015702 
L 177.762065 -264.51157 
L 178.295595 -267.007438 
L 178.873356 -269.503306 
L 179.477887 -271.999174 
L 180.090628 -274.495041 
L 180.693464 -276.990909 
L 181.270081 -279.486777 
L 181.807001 -281.982645 
L 182.29423 -284.478512 
L 182.725494 -286.97438 
L 183.098108 -289.470248 
L 183.412554 -291.966116 
L 183.671868 -294.461983 
L 183.880933 -296.957851 
L 184.045775 -299.453719 
L 184.172922 -301.949587 
L 184.268883 -304.445455 
L 184.731117 -304.445455 
L 184.731117 -304.445455 
L 184.827078 -301.949587 
L 184.954225 -299.453719 
L 185.119067 -296.957851 
L 185.328132 -294.461983 
L 185.587446 -291.966116 
L 185.901892 -289.470248 
L 186.274506 -286.97438 
L 186.70577 -284.478512 
L 187.192999 -281.982645 
L 187.729919 -279.486777 
L 188.306536 -276.990909 
L 188.909372 -274.495041 
L 189.522113 -271.999174 
L 190.126644 -269.503306 
L 190.704405 -267.007438 
L 191.237935 -264.51157 
L 191.712423 -262.015702 
L 192.117086 -259.519835 
L 192.446169 -257.023967 
L 192.699449 -254.528099 
L 192.882175 -252.032231 
L 193.004445 -249.536364 
L 193.080142 -247.040496 
L 193.125586 -244.544628 
L 193.158119 -242.04876 
L 193.194807 -239.552893 
L 193.251455 -237.057025 
L 193.342008 -234.561157 
L 193.47839 -232.065289 
L 193.670699 -229.569421 
L 193.927661 -227.073554 
L 194.257187 -224.577686 
L 194.666861 -222.081818 
L 195.164238 -219.58595 
L 195.756825 -217.090083 
L 196.451723 -214.594215 
L 197.254919 -212.098347 
L 198.170302 -209.602479 
L 199.198508 -207.106612 
L 200.335764 -204.610744 
L 201.572878 -202.114876 
L 202.89458 -199.619008 
L 204.279353 -197.12314 
L 205.699898 -194.627273 
L 207.124255 -192.131405 
L 208.517585 -189.635537 
L 209.844469 -187.139669 
L 211.071528 -184.643802 
L 212.170092 -182.147934 
L 213.118584 -179.652066 
L 213.904339 -177.156198 
L 214.524554 -174.660331 
L 214.986221 -172.164463 
L 215.304952 -169.668595 
L 215.502789 -167.172727 
L 215.605192 -164.67686 
L 215.637538 -162.180992 
L 215.621549 -159.685124 
L 215.572079 -157.189256 
L 215.494704 -154.693388 
L 215.384464 -152.197521 
L 215.225971 -149.701653 
L 214.994952 -147.205785 
L 214.661102 -144.709917 
L 214.191931 -142.21405 
L 213.557171 -139.718182 
L 212.733198 -137.222314 
L 211.706906 -134.726446 
L 210.47852 -132.230579 
L 209.062969 -129.734711 
L 207.489609 -127.238843 
L 205.800287 -124.742975 
L 204.045966 -122.247107 
L 202.282289 -119.75124 
L 200.564623 -117.255372 
L 198.943142 -114.759504 
L 197.458538 -112.263636 
L 196.138843 -109.767769 
L 194.997694 -107.271901 
L 194.034196 -104.776033 
L 193.234335 -102.280165 
L 192.573702 -99.784298 
L 192.02112 -97.28843 
L 191.542693 -94.792562 
L 191.105751 -92.296694 
L 190.682217 -89.800826 
L 190.25104 -87.304959 
L 189.799476 -84.809091 
L 189.323203 -82.313223 
L 188.82539 -79.817355 
L 188.31499 -77.321488 
L 187.8046 -74.82562 
L 187.308223 -72.329752 
L 186.839267 -69.833884 
L 186.408984 -67.338017 
L 186.025475 -64.842149 
L 185.693289 -62.346281 
L 185.41352 -59.850413 
L 185.184297 -57.354545 
z
" id="m91bc841b2d" style="stroke:#4d4d4d;stroke-width:2;"/>
    </defs>
    <g clip-path="url(#p2080ec79bc)">
     <use style="fill:#808080;stroke:#4d4d4d;stroke-width:2;" x="0" xlink:href="#m91bc841b2d" y="360"/>
    </g>
   </g>
   <g id="PolyCollection_3">
    <defs>
     <path d="M 277.749086 -61.475816 
L 277.250914 -61.475816 
L 277.155972 -63.88487 
L 277.036342 -66.293925 
L 276.889731 -68.702979 
L 276.714693 -71.112033 
L 276.51058 -73.521087 
L 276.277184 -75.930141 
L 276.013989 -78.339195 
L 275.719039 -80.748249 
L 275.38752 -83.157303 
L 275.010228 -85.566357 
L 274.572215 -87.975412 
L 274.051932 -90.384466 
L 273.421214 -92.79352 
L 272.646367 -95.202574 
L 271.69051 -97.611628 
L 270.517136 -100.020682 
L 269.09467 -102.429736 
L 267.401556 -104.83879 
L 265.431272 -107.247844 
L 263.196525 -109.656899 
L 260.731898 -112.065953 
L 258.094284 -114.475007 
L 255.360698 -116.884061 
L 252.62339 -119.293115 
L 249.982558 -121.702169 
L 247.537415 -124.111223 
L 245.376677 -126.520277 
L 243.569757 -128.929331 
L 242.159935 -131.338386 
L 241.160572 -133.74744 
L 240.554977 -136.156494 
L 240.3 -138.565548 
L 240.332834 -140.974602 
L 240.580012 -143.383656 
L 240.967242 -145.79271 
L 241.428689 -148.201764 
L 241.914411 -150.610818 
L 242.39507 -153.019873 
L 242.863489 -155.428927 
L 243.333128 -157.837981 
L 243.833974 -160.247035 
L 244.406662 -162.656089 
L 245.095748 -165.065143 
L 245.943066 -167.474197 
L 246.981947 -169.883251 
L 248.232871 -172.292305 
L 249.700888 -174.70136 
L 251.37486 -177.110414 
L 253.228433 -179.519468 
L 255.222407 -181.928522 
L 257.308125 -184.337576 
L 259.431403 -186.74663 
L 261.536543 -189.155684 
L 263.570016 -191.564738 
L 265.483498 -193.973792 
L 267.23605 -196.382847 
L 268.795365 -198.791901 
L 270.138146 -201.200955 
L 271.249731 -203.610009 
L 272.123209 -206.019063 
L 272.758227 -208.428117 
L 273.159759 -210.837171 
L 273.336996 -213.246225 
L 273.302533 -215.655279 
L 273.071895 -218.064334 
L 272.663423 -220.473388 
L 272.098429 -222.882442 
L 271.401493 -225.291496 
L 270.600731 -227.70055 
L 269.727849 -230.109604 
L 268.817842 -232.518658 
L 267.908231 -234.927712 
L 267.037841 -237.336766 
L 266.245179 -239.745821 
L 265.566556 -242.154875 
L 265.034134 -244.563929 
L 264.674098 -246.972983 
L 264.505122 -249.382037 
L 264.537266 -251.791091 
L 264.771398 -254.200145 
L 265.199173 -256.609199 
L 265.80359 -259.018253 
L 266.56008 -261.427308 
L 267.43807 -263.836362 
L 268.402933 -266.245416 
L 269.41817 -268.65447 
L 270.447674 -271.063524 
L 271.457873 -273.472578 
L 272.419574 -275.881632 
L 273.309354 -278.290686 
L 274.110367 -280.69974 
L 274.812554 -283.108795 
L 275.412284 -285.517849 
L 275.911512 -287.926903 
L 276.316634 -290.335957 
L 276.637169 -292.745011 
L 276.884454 -295.154065 
L 277.070478 -297.563119 
L 277.206931 -299.972173 
L 277.793069 -299.972173 
L 277.793069 -299.972173 
L 277.929522 -297.563119 
L 278.115546 -295.154065 
L 278.362831 -292.745011 
L 278.683366 -290.335957 
L 279.088488 -287.926903 
L 279.587716 -285.517849 
L 280.187446 -283.108795 
L 280.889633 -280.69974 
L 281.690646 -278.290686 
L 282.580426 -275.881632 
L 283.542127 -273.472578 
L 284.552326 -271.063524 
L 285.58183 -268.65447 
L 286.597067 -266.245416 
L 287.56193 -263.836362 
L 288.43992 -261.427308 
L 289.19641 -259.018253 
L 289.800827 -256.609199 
L 290.228602 -254.200145 
L 290.462734 -251.791091 
L 290.494878 -249.382037 
L 290.325902 -246.972983 
L 289.965866 -244.563929 
L 289.433444 -242.154875 
L 288.754821 -239.745821 
L 287.962159 -237.336766 
L 287.091769 -234.927712 
L 286.182158 -232.518658 
L 285.272151 -230.109604 
L 284.399269 -227.70055 
L 283.598507 -225.291496 
L 282.901571 -222.882442 
L 282.336577 -220.473388 
L 281.928105 -218.064334 
L 281.697467 -215.655279 
L 281.663004 -213.246225 
L 281.840241 -210.837171 
L 282.241773 -208.428117 
L 282.876791 -206.019063 
L 283.750269 -203.610009 
L 284.861854 -201.200955 
L 286.204635 -198.791901 
L 287.76395 -196.382847 
L 289.516502 -193.973792 
L 291.429984 -191.564738 
L 293.463457 -189.155684 
L 295.568597 -186.74663 
L 297.691875 -184.337576 
L 299.777593 -181.928522 
L 301.771567 -179.519468 
L 303.62514 -177.110414 
L 305.299112 -174.70136 
L 306.767129 -172.292305 
L 308.018053 -169.883251 
L 309.056934 -167.474197 
L 309.904252 -165.065143 
L 310.593338 -162.656089 
L 311.166026 -160.247035 
L 311.666872 -157.837981 
L 312.136511 -155.428927 
L 312.60493 -153.019873 
L 313.085589 -150.610818 
L 313.571311 -148.201764 
L 314.032758 -145.79271 
L 314.419988 -143.383656 
L 314.667166 -140.974602 
L 314.7 -138.565548 
L 314.445023 -136.156494 
L 313.839428 -133.74744 
L 312.840065 -131.338386 
L 311.430243 -128.929331 
L 309.623323 -126.520277 
L 307.462585 -124.111223 
L 305.017442 -121.702169 
L 302.37661 -119.293115 
L 299.639302 -116.884061 
L 296.905716 -114.475007 
L 294.268102 -112.065953 
L 291.803475 -109.656899 
L 289.568728 -107.247844 
L 287.598444 -104.83879 
L 285.90533 -102.429736 
L 284.482864 -100.020682 
L 283.30949 -97.611628 
L 282.353633 -95.202574 
L 281.578786 -92.79352 
L 280.948068 -90.384466 
L 280.427785 -87.975412 
L 279.989772 -85.566357 
L 279.61248 -83.157303 
L 279.280961 -80.748249 
L 278.986011 -78.339195 
L 278.722816 -75.930141 
L 278.48942 -73.521087 
L 278.285307 -71.112033 
L 278.110269 -68.702979 
L 277.963658 -66.293925 
L 277.844028 -63.88487 
L 277.749086 -61.475816 
z
" id="m9c70e539e6" style="stroke:#4d4d4d;stroke-width:2;"/>
    </defs>
    <g clip-path="url(#p2080ec79bc)">
     <use style="fill:#808080;stroke:#4d4d4d;stroke-width:2;" x="0" xlink:href="#m9c70e539e6" y="360"/>
    </g>
   </g>
   <g id="line2d_12">
    <path clip-path="url(#p2080ec79bc)" d="M 91.5 269.19726 
L 91.5 93.125017 
" style="fill:none;stroke:#000000;stroke-linecap:round;stroke-width:2;"/>
   </g>
   <g id="line2d_13">
    <path clip-path="url(#p2080ec79bc)" d="M 91.5 221.940415 
L 91.5 149.69357 
" style="fill:none;stroke:#000000;stroke-linecap:round;stroke-width:6;"/>
   </g>
   <g id="line2d_14">
    <path clip-path="url(#p2080ec79bc)" d="M 184.5 269.19726 
L 184.5 96.97994 
" style="fill:none;stroke:#000000;stroke-linecap:round;stroke-width:2;"/>
   </g>
   <g id="line2d_15">
    <path clip-path="url(#p2080ec79bc)" d="M 184.5 222.20881 
L 184.5 170.459394 
" style="fill:none;stroke:#000000;stroke-linecap:round;stroke-width:6;"/>
   </g>
   <g id="line2d_16">
    <path clip-path="url(#p2080ec79bc)" d="M 277.5 269.19726 
L 277.5 107.627528 
" style="fill:none;stroke:#000000;stroke-linecap:round;stroke-width:2;"/>
   </g>
   <g id="line2d_17">
    <path clip-path="url(#p2080ec79bc)" d="M 277.5 226.617651 
L 277.5 178.776043 
" style="fill:none;stroke:#000000;stroke-linecap:round;stroke-width:6;"/>
   </g>
   <g id="patch_3">
    <path d="M 45 315 
L 45 43.2 
" style="fill:none;stroke:#262626;stroke-linecap:square;stroke-linejoin:miter;stroke-width:2;"/>
   </g>
   <g id="patch_4">
    <path d="M 45 315 
L 324 315 
" style="fill:none;stroke:#262626;stroke-linecap:square;stroke-linejoin:miter;stroke-width:2;"/>
   </g>
   <g id="PathCollection_1">
    <defs>
     <path d="M 0 2 
C 0.530406 2 1.03916 1.789267 1.414214 1.414214 
C 1.789267 1.03916 2 0.530406 2 0 
C 2 -0.530406 1.789267 -1.03916 1.414214 -1.414214 
C 1.03916 -1.789267 0.530406 -2 0 -2 
C -0.530406 -2 -1.03916 -1.789267 -1.414214 -1.414214 
C -1.789267 -1.03916 -2 -0.530406 -2 0 
C -2 0.530406 -1.789267 1.03916 -1.414214 1.414214 
C -1.03916 1.789267 -0.530406 2 0 2 
z
" id="me0d5b0429a" style="stroke:#4d4d4d;"/>
    </defs>
    <g clip-path="url(#p2080ec79bc)">
     <use style="fill:#ffffff;stroke:#4d4d4d;" x="91.5" xlink:href="#me0d5b0429a" y="194.956777"/>
    </g>
   </g>
   <g id="PathCollection_2">
    <g clip-path="url(#p2080ec79bc)">
     <use style="fill:#ffffff;stroke:#4d4d4d;" x="184.5" xlink:href="#me0d5b0429a" y="192.552663"/>
    </g>
   </g>
   <g id="PathCollection_3">
    <g clip-path="url(#p2080ec79bc)">
     <use style="fill:#ffffff;stroke:#4d4d4d;" x="277.5" xlink:href="#me0d5b0429a" y="202.111493"/>
    </g>
   </g>
   <g id="text_14">
    <text style="fill:#262626;font-family:Cantarell;font-size:16.8px;font-stretch:normal;font-style:normal;font-weight:normal;text-anchor:middle;" transform="rotate(-0, 184.5, 37.2)" x="184.5" y="37.2">AraC_LOV</text>
   </g>
  </g>
 </g>
 <defs>
  <clipPath id="p2080ec79bc">
   <rect height="271.8" width="279" x="45" y="43.2"/>
  </clipPath>
 </defs>
</svg>
