<?xml version="1.0" encoding="utf-8" standalone="no"?>
<!DOCTYPE svg PUBLIC "-//W3C//DTD SVG 1.1//EN"
  "http://www.w3.org/Graphics/SVG/1.1/DTD/svg11.dtd">
<svg xmlns:xlink="http://www.w3.org/1999/xlink" width="360pt" height="360pt" viewBox="0 0 360 360" xmlns="http://www.w3.org/2000/svg" version="1.1">
 <metadata>
  <rdf:RDF xmlns:dc="http://purl.org/dc/elements/1.1/" xmlns:cc="http://creativecommons.org/ns#" xmlns:rdf="http://www.w3.org/1999/02/22-rdf-syntax-ns#">
   <cc:Work>
    <dc:type rdf:resource="http://purl.org/dc/dcmitype/StillImage"/>
    <dc:date>2023-12-01T16:46:56.891049</dc:date>
    <dc:format>image/svg+xml</dc:format>
    <dc:creator>
     <cc:Agent>
      <dc:title>Matplotlib v3.5.3, https://matplotlib.org/</dc:title>
     </cc:Agent>
    </dc:creator>
   </cc:Work>
  </rdf:RDF>
 </metadata>
 <defs>
  <style type="text/css">*{stroke-linejoin: round; stroke-linecap: butt}</style>
 </defs>
 <g id="figure_1">
  <g id="patch_1">
   <path d="M 0 360 
L 360 360 
L 360 0 
L 0 0 
z
" style="fill: #ffffff"/>
  </g>
  <g id="axes_1">
   <g id="patch_2">
    <path d="M 45 320.4 
L 324 320.4 
L 324 43.2 
L 45 43.2 
z
" style="fill: #ffffff"/>
   </g>
   <g id="matplotlib.axis_1">
    <g id="xtick_1">
     <g id="line2d_1">
      <defs>
       <path id="m65678348c0" d="M 0 0 
L 0 3.5 
" style="stroke: #262626; stroke-width: 2"/>
      </defs>
      <g>
       <use xlink:href="#m65678348c0" x="103.7358" y="320.4" style="fill: #262626; stroke: #262626; stroke-width: 2"/>
      </g>
     </g>
     <g id="text_1">
      <text style="fill: #262626; font: 14px 'sans-serif'; text-anchor: middle" x="103.7358" y="338.037813" transform="rotate(-0, 103.7358, 338.037813)">−5</text>
     </g>
    </g>
    <g id="xtick_2">
     <g id="line2d_2">
      <g>
       <use xlink:href="#m65678348c0" x="189.047668" y="320.4" style="fill: #262626; stroke: #262626; stroke-width: 2"/>
      </g>
     </g>
     <g id="text_2">
      <text style="fill: #262626; font: 14px 'sans-serif'; text-anchor: middle" x="189.047668" y="338.037813" transform="rotate(-0, 189.047668, 338.037813)">0</text>
     </g>
    </g>
    <g id="xtick_3">
     <g id="line2d_3">
      <g>
       <use xlink:href="#m65678348c0" x="274.359536" y="320.4" style="fill: #262626; stroke: #262626; stroke-width: 2"/>
      </g>
     </g>
     <g id="text_3">
      <text style="fill: #262626; font: 14px 'sans-serif'; text-anchor: middle" x="274.359536" y="338.037813" transform="rotate(-0, 274.359536, 338.037813)">5</text>
     </g>
    </g>
    <g id="text_4">
     <text style="fill: #262626; font: 14px 'sans-serif'; text-anchor: middle" x="184.5" y="355.587188" transform="rotate(-0, 184.5, 355.587188)">Rep-2 log2 enriched read counts</text>
    </g>
   </g>
   <g id="matplotlib.axis_2">
    <g id="ytick_1">
     <g id="line2d_4">
      <defs>
       <path id="m247e59237a" d="M 0 0 
L -3.5 0 
" style="stroke: #262626; stroke-width: 2"/>
      </defs>
      <g>
       <use xlink:href="#m247e59237a" x="45" y="312.900022" style="fill: #262626; stroke: #262626; stroke-width: 2"/>
      </g>
     </g>
     <g id="text_5">
      <text style="fill: #262626; font: 14px 'sans-serif'; text-anchor: end" x="38" y="318.218928" transform="rotate(-0, 38, 318.218928)">−8</text>
     </g>
    </g>
    <g id="ytick_2">
     <g id="line2d_5">
      <g>
       <use xlink:href="#m247e59237a" x="45" y="278.995435" style="fill: #262626; stroke: #262626; stroke-width: 2"/>
      </g>
     </g>
     <g id="text_6">
      <text style="fill: #262626; font: 14px 'sans-serif'; text-anchor: end" x="38" y="284.314341" transform="rotate(-0, 38, 284.314341)">−6</text>
     </g>
    </g>
    <g id="ytick_3">
     <g id="line2d_6">
      <g>
       <use xlink:href="#m247e59237a" x="45" y="245.090847" style="fill: #262626; stroke: #262626; stroke-width: 2"/>
      </g>
     </g>
     <g id="text_7">
      <text style="fill: #262626; font: 14px 'sans-serif'; text-anchor: end" x="38" y="250.409753" transform="rotate(-0, 38, 250.409753)">−4</text>
     </g>
    </g>
    <g id="ytick_4">
     <g id="line2d_7">
      <g>
       <use xlink:href="#m247e59237a" x="45" y="211.18626" style="fill: #262626; stroke: #262626; stroke-width: 2"/>
      </g>
     </g>
     <g id="text_8">
      <text style="fill: #262626; font: 14px 'sans-serif'; text-anchor: end" x="38" y="216.505166" transform="rotate(-0, 38, 216.505166)">−2</text>
     </g>
    </g>
    <g id="ytick_5">
     <g id="line2d_8">
      <g>
       <use xlink:href="#m247e59237a" x="45" y="177.281672" style="fill: #262626; stroke: #262626; stroke-width: 2"/>
      </g>
     </g>
     <g id="text_9">
      <text style="fill: #262626; font: 14px 'sans-serif'; text-anchor: end" x="38" y="182.600578" transform="rotate(-0, 38, 182.600578)">0</text>
     </g>
    </g>
    <g id="ytick_6">
     <g id="line2d_9">
      <g>
       <use xlink:href="#m247e59237a" x="45" y="143.377085" style="fill: #262626; stroke: #262626; stroke-width: 2"/>
      </g>
     </g>
     <g id="text_10">
      <text style="fill: #262626; font: 14px 'sans-serif'; text-anchor: end" x="38" y="148.695991" transform="rotate(-0, 38, 148.695991)">2</text>
     </g>
    </g>
    <g id="ytick_7">
     <g id="line2d_10">
      <g>
       <use xlink:href="#m247e59237a" x="45" y="109.472497" style="fill: #262626; stroke: #262626; stroke-width: 2"/>
      </g>
     </g>
     <g id="text_11">
      <text style="fill: #262626; font: 14px 'sans-serif'; text-anchor: end" x="38" y="114.791403" transform="rotate(-0, 38, 114.791403)">4</text>
     </g>
    </g>
    <g id="ytick_8">
     <g id="line2d_11">
      <g>
       <use xlink:href="#m247e59237a" x="45" y="75.56791" style="fill: #262626; stroke: #262626; stroke-width: 2"/>
      </g>
     </g>
     <g id="text_12">
      <text style="fill: #262626; font: 14px 'sans-serif'; text-anchor: end" x="38" y="80.886816" transform="rotate(-0, 38, 80.886816)">6</text>
     </g>
    </g>
    <g id="text_13">
     <text style="fill: #262626; font: 14px 'sans-serif'; text-anchor: middle" x="10.449375" y="181.8" transform="rotate(-90, 10.449375, 181.8)">Rep-1 log2 enriched read counts</text>
    </g>
   </g>
   <g id="PathCollection_1">
    <defs>
     <path id="m0167df192e" d="M 0 3 
C 0.795609 3 1.55874 2.683901 2.12132 2.12132 
C 2.683901 1.55874 3 0.795609 3 0 
C 3 -0.795609 2.683901 -1.55874 2.12132 -2.12132 
C 1.55874 -2.683901 0.795609 -3 0 -3 
C -0.795609 -3 -1.55874 -2.683901 -2.12132 -2.12132 
C -2.683901 -1.55874 -3 -0.795609 -3 0 
C -3 0.795609 -2.683901 1.55874 -2.12132 2.12132 
C -1.55874 2.683901 -0.795609 3 0 3 
z
"/>
    </defs>
    <g clip-path="url(#p57ea6f3bc5)">
     <use xlink:href="#m0167df192e" x="245.98297" y="142.80557" style="fill: #808080; fill-opacity: 0.4"/>
     <use xlink:href="#m0167df192e" x="176.402568" y="173.829539" style="fill: #808080; fill-opacity: 0.4"/>
     <use xlink:href="#m0167df192e" x="138.621028" y="228.319621" style="fill: #808080; fill-opacity: 0.4"/>
     <use xlink:href="#m0167df192e" x="210.527315" y="161.570321" style="fill: #808080; fill-opacity: 0.4"/>
     <use xlink:href="#m0167df192e" x="199.682665" y="179.380843" style="fill: #808080; fill-opacity: 0.4"/>
     <use xlink:href="#m0167df192e" x="181.785778" y="199.11987" style="fill: #808080; fill-opacity: 0.4"/>
     <use xlink:href="#m0167df192e" x="160.928862" y="195.349809" style="fill: #808080; fill-opacity: 0.4"/>
     <use xlink:href="#m0167df192e" x="166.703046" y="198.290741" style="fill: #808080; fill-opacity: 0.4"/>
     <use xlink:href="#m0167df192e" x="227.515656" y="159.757863" style="fill: #808080; fill-opacity: 0.4"/>
     <use xlink:href="#m0167df192e" x="207.627991" y="167.622831" style="fill: #808080; fill-opacity: 0.4"/>
     <use xlink:href="#m0167df192e" x="182.283084" y="201.891549" style="fill: #808080; fill-opacity: 0.4"/>
     <use xlink:href="#m0167df192e" x="131.169334" y="235.723239" style="fill: #808080; fill-opacity: 0.4"/>
     <use xlink:href="#m0167df192e" x="103.761426" y="229.049734" style="fill: #808080; fill-opacity: 0.4"/>
     <use xlink:href="#m0167df192e" x="209.833866" y="179.975933" style="fill: #808080; fill-opacity: 0.4"/>
     <use xlink:href="#m0167df192e" x="229.751355" y="185.585733" style="fill: #808080; fill-opacity: 0.4"/>
     <use xlink:href="#m0167df192e" x="160.706093" y="248.070047" style="fill: #808080; fill-opacity: 0.4"/>
     <use xlink:href="#m0167df192e" x="174.196693" y="199.11987" style="fill: #808080; fill-opacity: 0.4"/>
     <use xlink:href="#m0167df192e" x="150.254564" y="213.495363" style="fill: #808080; fill-opacity: 0.4"/>
     <use xlink:href="#m0167df192e" x="162.715248" y="199.921811" style="fill: #808080; fill-opacity: 0.4"/>
     <use xlink:href="#m0167df192e" x="152.511447" y="260.297465" style="fill: #808080; fill-opacity: 0.4"/>
     <use xlink:href="#m0167df192e" x="117.289194" y="239.597373" style="fill: #808080; fill-opacity: 0.4"/>
     <use xlink:href="#m0167df192e" x="104.746189" y="245.023618" style="fill: #808080; fill-opacity: 0.4"/>
     <use xlink:href="#m0167df192e" x="149.282541" y="234.679185" style="fill: #808080; fill-opacity: 0.4"/>
     <use xlink:href="#m0167df192e" x="163.115513" y="200.565008" style="fill: #808080; fill-opacity: 0.4"/>
     <use xlink:href="#m0167df192e" x="119.222207" y="212.001342" style="fill: #808080; fill-opacity: 0.4"/>
     <use xlink:href="#m0167df192e" x="167.713807" y="241.107544" style="fill: #808080; fill-opacity: 0.4"/>
     <use xlink:href="#m0167df192e" x="147.410557" y="212.001342" style="fill: #808080; fill-opacity: 0.4"/>
     <use xlink:href="#m0167df192e" x="182.704477" y="204.842649" style="fill: #808080; fill-opacity: 0.4"/>
     <use xlink:href="#m0167df192e" x="170.409328" y="215.501158" style="fill: #808080; fill-opacity: 0.4"/>
     <use xlink:href="#m0167df192e" x="145.314894" y="231.585396" style="fill: #808080; fill-opacity: 0.4"/>
     <use xlink:href="#m0167df192e" x="123.723124" y="221.261314" style="fill: #808080; fill-opacity: 0.4"/>
     <use xlink:href="#m0167df192e" x="106.842417" y="247.399951" style="fill: #808080; fill-opacity: 0.4"/>
     <use xlink:href="#m0167df192e" x="66.102073" y="249.51383" style="fill: #808080; fill-opacity: 0.4"/>
     <use xlink:href="#m0167df192e" x="81.64447" y="284.928588" style="fill: #808080; fill-opacity: 0.4"/>
     <use xlink:href="#m0167df192e" x="73.658516" y="275.910726" style="fill: #808080; fill-opacity: 0.4"/>
     <use xlink:href="#m0167df192e" x="78.33907" y="248.850656" style="fill: #808080; fill-opacity: 0.4"/>
     <use xlink:href="#m0167df192e" x="79.936331" y="286.625707" style="fill: #808080; fill-opacity: 0.4"/>
     <use xlink:href="#m0167df192e" x="156.033989" y="222.622816" style="fill: #808080; fill-opacity: 0.4"/>
     <use xlink:href="#m0167df192e" x="92.373577" y="291.220994" style="fill: #808080; fill-opacity: 0.4"/>
     <use xlink:href="#m0167df192e" x="113.923942" y="239.170852" style="fill: #808080; fill-opacity: 0.4"/>
     <use xlink:href="#m0167df192e" x="115.739755" y="273.462986" style="fill: #808080; fill-opacity: 0.4"/>
     <use xlink:href="#m0167df192e" x="105.474521" y="248.070047" style="fill: #808080; fill-opacity: 0.4"/>
     <use xlink:href="#m0167df192e" x="87.248127" y="279.361084" style="fill: #808080; fill-opacity: 0.4"/>
     <use xlink:href="#m0167df192e" x="128.113054" y="246.988899" style="fill: #808080; fill-opacity: 0.4"/>
     <use xlink:href="#m0167df192e" x="136.479173" y="247.399951" style="fill: #808080; fill-opacity: 0.4"/>
     <use xlink:href="#m0167df192e" x="90.756436" y="246.429858" style="fill: #808080; fill-opacity: 0.4"/>
     <use xlink:href="#m0167df192e" x="82.241246" y="250.431074" style="fill: #808080; fill-opacity: 0.4"/>
     <use xlink:href="#m0167df192e" x="97.980661" y="268.697791" style="fill: #808080; fill-opacity: 0.4"/>
     <use xlink:href="#m0167df192e" x="123.315163" y="268.267452" style="fill: #808080; fill-opacity: 0.4"/>
     <use xlink:href="#m0167df192e" x="160.341745" y="205.909907" style="fill: #808080; fill-opacity: 0.4"/>
     <use xlink:href="#m0167df192e" x="168.23519" y="209.092485" style="fill: #808080; fill-opacity: 0.4"/>
     <use xlink:href="#m0167df192e" x="176.198286" y="212.505066" style="fill: #808080; fill-opacity: 0.4"/>
     <use xlink:href="#m0167df192e" x="130.84994" y="219.088279" style="fill: #808080; fill-opacity: 0.4"/>
     <use xlink:href="#m0167df192e" x="151.604473" y="215.419939" style="fill: #808080; fill-opacity: 0.4"/>
     <use xlink:href="#m0167df192e" x="154.272039" y="222.686039" style="fill: #808080; fill-opacity: 0.4"/>
     <use xlink:href="#m0167df192e" x="208.447077" y="211.551909" style="fill: #808080; fill-opacity: 0.4"/>
     <use xlink:href="#m0167df192e" x="188.766402" y="244.844707" style="fill: #808080; fill-opacity: 0.4"/>
     <use xlink:href="#m0167df192e" x="75.655486" y="218.866818" style="fill: #808080; fill-opacity: 0.4"/>
     <use xlink:href="#m0167df192e" x="92.833699" y="239.90696" style="fill: #808080; fill-opacity: 0.4"/>
     <use xlink:href="#m0167df192e" x="193.773576" y="222.488804" style="fill: #808080; fill-opacity: 0.4"/>
     <use xlink:href="#m0167df192e" x="167.118582" y="228.595974" style="fill: #808080; fill-opacity: 0.4"/>
     <use xlink:href="#m0167df192e" x="125.996967" y="240.862236" style="fill: #808080; fill-opacity: 0.4"/>
     <use xlink:href="#m0167df192e" x="137.358402" y="213.944128" style="fill: #808080; fill-opacity: 0.4"/>
     <use xlink:href="#m0167df192e" x="147.735737" y="253.920885" style="fill: #808080; fill-opacity: 0.4"/>
     <use xlink:href="#m0167df192e" x="150.406985" y="216.609702" style="fill: #808080; fill-opacity: 0.4"/>
     <use xlink:href="#m0167df192e" x="110.842951" y="230.737092" style="fill: #808080; fill-opacity: 0.4"/>
     <use xlink:href="#m0167df192e" x="121.311257" y="255.434171" style="fill: #808080; fill-opacity: 0.4"/>
     <use xlink:href="#m0167df192e" x="143.25866" y="228.170945" style="fill: #808080; fill-opacity: 0.4"/>
     <use xlink:href="#m0167df192e" x="148.410809" y="232.279517" style="fill: #808080; fill-opacity: 0.4"/>
     <use xlink:href="#m0167df192e" x="189.812014" y="226.485226" style="fill: #808080; fill-opacity: 0.4"/>
     <use xlink:href="#m0167df192e" x="171.613636" y="233.388589" style="fill: #808080; fill-opacity: 0.4"/>
     <use xlink:href="#m0167df192e" x="65.330355" y="240.364113" style="fill: #808080; fill-opacity: 0.4"/>
     <use xlink:href="#m0167df192e" x="113.230493" y="257.316407" style="fill: #808080; fill-opacity: 0.4"/>
     <use xlink:href="#m0167df192e" x="127.868225" y="240.960655" style="fill: #808080; fill-opacity: 0.4"/>
     <use xlink:href="#m0167df192e" x="154.02187" y="214.105295" style="fill: #808080; fill-opacity: 0.4"/>
     <use xlink:href="#m0167df192e" x="122.444666" y="229.567362" style="fill: #808080; fill-opacity: 0.4"/>
     <use xlink:href="#m0167df192e" x="142.052606" y="237.887751" style="fill: #808080; fill-opacity: 0.4"/>
     <use xlink:href="#m0167df192e" x="158.471089" y="257.876088" style="fill: #808080; fill-opacity: 0.4"/>
     <use xlink:href="#m0167df192e" x="131.539503" y="273.462986" style="fill: #808080; fill-opacity: 0.4"/>
     <use xlink:href="#m0167df192e" x="123.211342" y="226.677595" style="fill: #808080; fill-opacity: 0.4"/>
     <use xlink:href="#m0167df192e" x="130.208595" y="246.594236" style="fill: #808080; fill-opacity: 0.4"/>
     <use xlink:href="#m0167df192e" x="213.154778" y="230.61691" style="fill: #808080; fill-opacity: 0.4"/>
     <use xlink:href="#m0167df192e" x="193.464942" y="234.602876" style="fill: #808080; fill-opacity: 0.4"/>
     <use xlink:href="#m0167df192e" x="63.011861" y="238.897587" style="fill: #808080; fill-opacity: 0.4"/>
     <use xlink:href="#m0167df192e" x="134.471758" y="250.877111" style="fill: #808080; fill-opacity: 0.4"/>
     <use xlink:href="#m0167df192e" x="153.269546" y="230.717903" style="fill: #808080; fill-opacity: 0.4"/>
     <use xlink:href="#m0167df192e" x="74.747888" y="244.18957" style="fill: #808080; fill-opacity: 0.4"/>
     <use xlink:href="#m0167df192e" x="110.230078" y="243.345171" style="fill: #808080; fill-opacity: 0.4"/>
     <use xlink:href="#m0167df192e" x="122.162753" y="257.16497" style="fill: #808080; fill-opacity: 0.4"/>
     <use xlink:href="#m0167df192e" x="125.253939" y="264.010183" style="fill: #808080; fill-opacity: 0.4"/>
     <use xlink:href="#m0167df192e" x="116.335808" y="255.918484" style="fill: #808080; fill-opacity: 0.4"/>
     <use xlink:href="#m0167df192e" x="97.752736" y="291.33396" style="fill: #808080; fill-opacity: 0.4"/>
     <use xlink:href="#m0167df192e" x="142.116405" y="249.267804" style="fill: #808080; fill-opacity: 0.4"/>
     <use xlink:href="#m0167df192e" x="120.164408" y="231.662475" style="fill: #808080; fill-opacity: 0.4"/>
     <use xlink:href="#m0167df192e" x="148.866565" y="270.47976" style="fill: #808080; fill-opacity: 0.4"/>
     <use xlink:href="#m0167df192e" x="113.502119" y="239.204797" style="fill: #808080; fill-opacity: 0.4"/>
     <use xlink:href="#m0167df192e" x="62.062374" y="260.563304" style="fill: #808080; fill-opacity: 0.4"/>
     <use xlink:href="#m0167df192e" x="112.853521" y="221.594716" style="fill: #808080; fill-opacity: 0.4"/>
     <use xlink:href="#m0167df192e" x="119.04663" y="233.146438" style="fill: #808080; fill-opacity: 0.4"/>
     <use xlink:href="#m0167df192e" x="98.124194" y="220.964079" style="fill: #808080; fill-opacity: 0.4"/>
     <use xlink:href="#m0167df192e" x="124.833799" y="278.803105" style="fill: #808080; fill-opacity: 0.4"/>
     <use xlink:href="#m0167df192e" x="135.29264" y="268.411741" style="fill: #808080; fill-opacity: 0.4"/>
     <use xlink:href="#m0167df192e" x="148.1379" y="254.537481" style="fill: #808080; fill-opacity: 0.4"/>
     <use xlink:href="#m0167df192e" x="151.979192" y="236.838154" style="fill: #808080; fill-opacity: 0.4"/>
     <use xlink:href="#m0167df192e" x="130.508324" y="288.719562" style="fill: #808080; fill-opacity: 0.4"/>
     <use xlink:href="#m0167df192e" x="67.061252" y="282.465427" style="fill: #808080; fill-opacity: 0.4"/>
     <use xlink:href="#m0167df192e" x="162.981367" y="243.478452" style="fill: #808080; fill-opacity: 0.4"/>
     <use xlink:href="#m0167df192e" x="153.541547" y="252.85737" style="fill: #808080; fill-opacity: 0.4"/>
     <use xlink:href="#m0167df192e" x="92.833699" y="222.954666" style="fill: #808080; fill-opacity: 0.4"/>
     <use xlink:href="#m0167df192e" x="146.460022" y="276.845502" style="fill: #808080; fill-opacity: 0.4"/>
     <use xlink:href="#m0167df192e" x="128.7232" y="227.347692" style="fill: #808080; fill-opacity: 0.4"/>
     <use xlink:href="#m0167df192e" x="140.967164" y="225.98862" style="fill: #808080; fill-opacity: 0.4"/>
     <use xlink:href="#m0167df192e" x="149.053555" y="213.495363" style="fill: #808080; fill-opacity: 0.4"/>
     <use xlink:href="#m0167df192e" x="148.601877" y="235.355458" style="fill: #808080; fill-opacity: 0.4"/>
     <use xlink:href="#m0167df192e" x="98.854687" y="228.467397" style="fill: #808080; fill-opacity: 0.4"/>
     <use xlink:href="#m0167df192e" x="141.093724" y="254.689231" style="fill: #808080; fill-opacity: 0.4"/>
     <use xlink:href="#m0167df192e" x="114.798909" y="228.88936" style="fill: #808080; fill-opacity: 0.4"/>
     <use xlink:href="#m0167df192e" x="144.871354" y="254.435788" style="fill: #808080; fill-opacity: 0.4"/>
     <use xlink:href="#m0167df192e" x="125.023884" y="268.697791" style="fill: #808080; fill-opacity: 0.4"/>
     <use xlink:href="#m0167df192e" x="122.316123" y="254.435788" style="fill: #808080; fill-opacity: 0.4"/>
     <use xlink:href="#m0167df192e" x="130.986316" y="213.495363" style="fill: #808080; fill-opacity: 0.4"/>
     <use xlink:href="#m0167df192e" x="156.766912" y="248.398334" style="fill: #808080; fill-opacity: 0.4"/>
     <use xlink:href="#m0167df192e" x="103.761426" y="225.279672" style="fill: #808080; fill-opacity: 0.4"/>
     <use xlink:href="#m0167df192e" x="127.905325" y="255.918484" style="fill: #808080; fill-opacity: 0.4"/>
     <use xlink:href="#m0167df192e" x="171.608786" y="240.364113" style="fill: #808080; fill-opacity: 0.4"/>
     <use xlink:href="#m0167df192e" x="160.274893" y="230.174392" style="fill: #808080; fill-opacity: 0.4"/>
     <use xlink:href="#m0167df192e" x="145.129114" y="224.734141" style="fill: #808080; fill-opacity: 0.4"/>
     <use xlink:href="#m0167df192e" x="183.484093" y="264.352244" style="fill: #808080; fill-opacity: 0.4"/>
     <use xlink:href="#m0167df192e" x="109.435951" y="233.328275" style="fill: #808080; fill-opacity: 0.4"/>
     <use xlink:href="#m0167df192e" x="141.520352" y="235.355458" style="fill: #808080; fill-opacity: 0.4"/>
     <use xlink:href="#m0167df192e" x="137.680182" y="203.578907" style="fill: #808080; fill-opacity: 0.4"/>
     <use xlink:href="#m0167df192e" x="147.75589" y="231.117753" style="fill: #808080; fill-opacity: 0.4"/>
     <use xlink:href="#m0167df192e" x="162.899177" y="187.245811" style="fill: #808080; fill-opacity: 0.4"/>
     <use xlink:href="#m0167df192e" x="163.817199" y="240.960655" style="fill: #808080; fill-opacity: 0.4"/>
     <use xlink:href="#m0167df192e" x="136.939295" y="203.121754" style="fill: #808080; fill-opacity: 0.4"/>
     <use xlink:href="#m0167df192e" x="115.043035" y="221.106686" style="fill: #808080; fill-opacity: 0.4"/>
     <use xlink:href="#m0167df192e" x="154.470555" y="276.226304" style="fill: #808080; fill-opacity: 0.4"/>
     <use xlink:href="#m0167df192e" x="154.635762" y="205.909907" style="fill: #808080; fill-opacity: 0.4"/>
     <use xlink:href="#m0167df192e" x="149.359346" y="223.108002" style="fill: #808080; fill-opacity: 0.4"/>
     <use xlink:href="#m0167df192e" x="132.684631" y="221.724461" style="fill: #808080; fill-opacity: 0.4"/>
     <use xlink:href="#m0167df192e" x="138.770668" y="206.759615" style="fill: #808080; fill-opacity: 0.4"/>
     <use xlink:href="#m0167df192e" x="174.95165" y="222.862201" style="fill: #808080; fill-opacity: 0.4"/>
     <use xlink:href="#m0167df192e" x="172.302235" y="268.122306" style="fill: #808080; fill-opacity: 0.4"/>
     <use xlink:href="#m0167df192e" x="143.866488" y="259.893208" style="fill: #808080; fill-opacity: 0.4"/>
     <use xlink:href="#m0167df192e" x="173.284436" y="216.73024" style="fill: #808080; fill-opacity: 0.4"/>
     <use xlink:href="#m0167df192e" x="133.88564" y="216.072164" style="fill: #808080; fill-opacity: 0.4"/>
     <use xlink:href="#m0167df192e" x="171.438434" y="229.618527" style="fill: #808080; fill-opacity: 0.4"/>
     <use xlink:href="#m0167df192e" x="163.797435" y="225.715355" style="fill: #808080; fill-opacity: 0.4"/>
     <use xlink:href="#m0167df192e" x="153.113435" y="218.123653" style="fill: #808080; fill-opacity: 0.4"/>
     <use xlink:href="#m0167df192e" x="159.621521" y="242.111784" style="fill: #808080; fill-opacity: 0.4"/>
     <use xlink:href="#m0167df192e" x="166.217438" y="206.358672" style="fill: #808080; fill-opacity: 0.4"/>
     <use xlink:href="#m0167df192e" x="192.726285" y="247.625362" style="fill: #808080; fill-opacity: 0.4"/>
     <use xlink:href="#m0167df192e" x="165.164057" y="252.02824" style="fill: #808080; fill-opacity: 0.4"/>
     <use xlink:href="#m0167df192e" x="163.182862" y="225.32758" style="fill: #808080; fill-opacity: 0.4"/>
     <use xlink:href="#m0167df192e" x="278.187592" y="98.683698" style="fill: #808080; fill-opacity: 0.4"/>
     <use xlink:href="#m0167df192e" x="277.917318" y="94.665759" style="fill: #808080; fill-opacity: 0.4"/>
     <use xlink:href="#m0167df192e" x="269.077287" y="94.482579" style="fill: #808080; fill-opacity: 0.4"/>
     <use xlink:href="#m0167df192e" x="262.314851" y="100.334541" style="fill: #808080; fill-opacity: 0.4"/>
     <use xlink:href="#m0167df192e" x="276.432844" y="96.003468" style="fill: #808080; fill-opacity: 0.4"/>
     <use xlink:href="#m0167df192e" x="261.961833" y="101.392074" style="fill: #808080; fill-opacity: 0.4"/>
     <use xlink:href="#m0167df192e" x="270.301326" y="91.356876" style="fill: #808080; fill-opacity: 0.4"/>
     <use xlink:href="#m0167df192e" x="260.511013" y="94.326489" style="fill: #808080; fill-opacity: 0.4"/>
     <use xlink:href="#m0167df192e" x="270.177714" y="86.006956" style="fill: #808080; fill-opacity: 0.4"/>
     <use xlink:href="#m0167df192e" x="273.400636" y="91.172714" style="fill: #808080; fill-opacity: 0.4"/>
     <use xlink:href="#m0167df192e" x="268.526933" y="89.32541" style="fill: #808080; fill-opacity: 0.4"/>
     <use xlink:href="#m0167df192e" x="272.70902" y="85.968105" style="fill: #808080; fill-opacity: 0.4"/>
     <use xlink:href="#m0167df192e" x="261.126258" y="88.200473" style="fill: #808080; fill-opacity: 0.4"/>
     <use xlink:href="#m0167df192e" x="284.559694" y="71.313836" style="fill: #808080; fill-opacity: 0.4"/>
     <use xlink:href="#m0167df192e" x="300.618489" y="60.152294" style="fill: #808080; fill-opacity: 0.4"/>
    </g>
   </g>
   <g id="PolyCollection_1">
    <defs>
     <path id="m9d3306e65e" d="M 62.062374 -78.054907 
L 62.062374 -57.425464 
L 64.472031 -59.577054 
L 66.881689 -61.747587 
L 69.291347 -63.847263 
L 71.701005 -65.959072 
L 74.110662 -68.063265 
L 76.52032 -70.162257 
L 78.929978 -72.26125 
L 81.339635 -74.360243 
L 83.749293 -76.459236 
L 86.158951 -78.522845 
L 88.568609 -80.618226 
L 90.978266 -82.715978 
L 93.387924 -84.813731 
L 95.797582 -86.942837 
L 98.20724 -89.05942 
L 100.616897 -91.156115 
L 103.026555 -93.283523 
L 105.436213 -95.410936 
L 107.84587 -97.531271 
L 110.255528 -99.667407 
L 112.665186 -101.77254 
L 115.074844 -103.781858 
L 117.484501 -105.860632 
L 119.894159 -107.949817 
L 122.303817 -110.042752 
L 124.713475 -112.093061 
L 127.123132 -114.169912 
L 129.53279 -116.08524 
L 131.942448 -118.016783 
L 134.352106 -120.098653 
L 136.761763 -122.147275 
L 139.171421 -124.252381 
L 141.581079 -126.156956 
L 143.990736 -128.008165 
L 146.400394 -130.016664 
L 148.810052 -132.010784 
L 151.21971 -133.922471 
L 153.629367 -135.777172 
L 156.039025 -137.614859 
L 158.448683 -139.461448 
L 160.858341 -141.304145 
L 163.267998 -143.118416 
L 165.677656 -144.778244 
L 168.087314 -146.3977 
L 170.496972 -148.189737 
L 172.906629 -149.827444 
L 175.316287 -151.468644 
L 177.725945 -153.252681 
L 180.135602 -154.896748 
L 182.54526 -156.589779 
L 184.954918 -158.318711 
L 187.364576 -159.967671 
L 189.774233 -161.576279 
L 192.183891 -163.169516 
L 194.593549 -164.78995 
L 197.003207 -166.39733 
L 199.412864 -168.051767 
L 201.822522 -169.635661 
L 204.23218 -171.238429 
L 206.641838 -172.858052 
L 209.051495 -174.490019 
L 211.461153 -176.122052 
L 213.870811 -177.75474 
L 216.280468 -179.387538 
L 218.690126 -180.958933 
L 221.099784 -182.587261 
L 223.509442 -184.223471 
L 225.919099 -185.81513 
L 228.328757 -187.363529 
L 230.738415 -189.071149 
L 233.148073 -190.771848 
L 235.55773 -192.408942 
L 237.967388 -194.017284 
L 240.377046 -195.624871 
L 242.786703 -197.232459 
L 245.196361 -198.840047 
L 247.606019 -200.447634 
L 250.015677 -202.055222 
L 252.425334 -203.663306 
L 254.834992 -205.272076 
L 257.24465 -206.880846 
L 259.654308 -208.489616 
L 262.063965 -210.098386 
L 264.473623 -211.707155 
L 266.883281 -213.315925 
L 269.292939 -214.966763 
L 271.702596 -216.620161 
L 274.112254 -218.219024 
L 276.521912 -219.797149 
L 278.931569 -221.375273 
L 281.341227 -222.961357 
L 283.750885 -224.568196 
L 286.160543 -226.175036 
L 288.5702 -227.781876 
L 290.979858 -229.376603 
L 293.389516 -230.999456 
L 295.799174 -232.662427 
L 298.208831 -234.328723 
L 300.618489 -235.995117 
L 300.618489 -270.145387 
L 300.618489 -270.145387 
L 298.208831 -267.994969 
L 295.799174 -265.910824 
L 293.389516 -263.795185 
L 290.979858 -261.703757 
L 288.5702 -259.558089 
L 286.160543 -257.40813 
L 283.750885 -255.296275 
L 281.341227 -253.190931 
L 278.931569 -251.047706 
L 276.521912 -248.903625 
L 274.112254 -246.759544 
L 271.702596 -244.631382 
L 269.292939 -242.470563 
L 266.883281 -240.363536 
L 264.473623 -238.239635 
L 262.063965 -236.155485 
L 259.654308 -234.067296 
L 257.24465 -231.901161 
L 254.834992 -229.829831 
L 252.425334 -227.734421 
L 250.015677 -225.621769 
L 247.606019 -223.51033 
L 245.196361 -221.451476 
L 242.786703 -219.401048 
L 240.377046 -217.306994 
L 237.967388 -215.236199 
L 235.55773 -213.15425 
L 233.148073 -211.083034 
L 230.738415 -209.011818 
L 228.328757 -206.907263 
L 225.919099 -204.877187 
L 223.509442 -202.812094 
L 221.099784 -200.726743 
L 218.690126 -198.671096 
L 216.280468 -196.61502 
L 213.870811 -194.574385 
L 211.461153 -192.494667 
L 209.051495 -190.391232 
L 206.641838 -188.321379 
L 204.23218 -186.296883 
L 201.822522 -184.247221 
L 199.412864 -182.243612 
L 197.003207 -180.119781 
L 194.593549 -178.074669 
L 192.183891 -175.992571 
L 189.774233 -173.918492 
L 187.364576 -171.839298 
L 184.954918 -169.877792 
L 182.54526 -167.901736 
L 180.135602 -165.870646 
L 177.725945 -163.861014 
L 175.316287 -161.829435 
L 172.906629 -159.794903 
L 170.496972 -157.769928 
L 168.087314 -155.725486 
L 165.677656 -153.720922 
L 163.267998 -151.745588 
L 160.858341 -149.755032 
L 158.448683 -147.801019 
L 156.039025 -145.88875 
L 153.629367 -144.037013 
L 151.21971 -142.108715 
L 148.810052 -140.116237 
L 146.400394 -138.207086 
L 143.990736 -136.250329 
L 141.581079 -134.331322 
L 139.171421 -132.480066 
L 136.761763 -130.686276 
L 134.352106 -128.808232 
L 131.942448 -126.960455 
L 129.53279 -125.083012 
L 127.123132 -123.318954 
L 124.713475 -121.611421 
L 122.303817 -119.840717 
L 119.894159 -118.08995 
L 117.484501 -116.39736 
L 115.074844 -114.773332 
L 112.665186 -113.112894 
L 110.255528 -111.356521 
L 107.84587 -109.650165 
L 105.436213 -107.936566 
L 103.026555 -106.2259 
L 100.616897 -104.517167 
L 98.20724 -102.808071 
L 95.797582 -101.10025 
L 93.387924 -99.409212 
L 90.978266 -97.680822 
L 88.568609 -95.979039 
L 86.158951 -94.340187 
L 83.749293 -92.687033 
L 81.339635 -91.006253 
L 78.929978 -89.328095 
L 76.52032 -87.697357 
L 74.110662 -86.086457 
L 71.701005 -84.510491 
L 69.291347 -82.923313 
L 66.881689 -81.313164 
L 64.472031 -79.658305 
L 62.062374 -78.054907 
z
"/>
    </defs>
    <g clip-path="url(#p57ea6f3bc5)">
     <use xlink:href="#m9d3306e65e" x="0" y="360" style="fill: #808080; fill-opacity: 0.15"/>
    </g>
   </g>
   <g id="line2d_12">
    <path d="M 62.062374 292.650454 
L 64.472031 290.737019 
L 66.881689 288.823585 
L 69.291347 286.91015 
L 71.701005 284.996716 
L 74.110662 283.083282 
L 76.52032 281.169847 
L 78.929978 279.256413 
L 81.339635 277.342978 
L 83.749293 275.429544 
L 86.158951 273.51611 
L 88.568609 271.602675 
L 90.978266 269.689241 
L 93.387924 267.775806 
L 95.797582 265.862372 
L 98.20724 263.948938 
L 100.616897 262.035503 
L 103.026555 260.122069 
L 105.436213 258.208634 
L 107.84587 256.2952 
L 110.255528 254.381766 
L 112.665186 252.468331 
L 115.074844 250.554897 
L 117.484501 248.641462 
L 119.894159 246.728028 
L 122.303817 244.814594 
L 124.713475 242.901159 
L 127.123132 240.987725 
L 129.53279 239.07429 
L 131.942448 237.160856 
L 134.352106 235.247422 
L 136.761763 233.333987 
L 139.171421 231.420553 
L 141.581079 229.507118 
L 143.990736 227.593684 
L 146.400394 225.68025 
L 148.810052 223.766815 
L 151.21971 221.853381 
L 153.629367 219.939946 
L 156.039025 218.026512 
L 158.448683 216.113078 
L 160.858341 214.199643 
L 163.267998 212.286209 
L 165.677656 210.372774 
L 168.087314 208.45934 
L 170.496972 206.545906 
L 172.906629 204.632471 
L 175.316287 202.719037 
L 177.725945 200.805602 
L 180.135602 198.892168 
L 182.54526 196.978734 
L 184.954918 195.065299 
L 187.364576 193.151865 
L 189.774233 191.23843 
L 192.183891 189.324996 
L 194.593549 187.411562 
L 197.003207 185.498127 
L 199.412864 183.584693 
L 201.822522 181.671258 
L 204.23218 179.757824 
L 206.641838 177.84439 
L 209.051495 175.930955 
L 211.461153 174.017521 
L 213.870811 172.104086 
L 216.280468 170.190652 
L 218.690126 168.277218 
L 221.099784 166.363783 
L 223.509442 164.450349 
L 225.919099 162.536914 
L 228.328757 160.62348 
L 230.738415 158.710046 
L 233.148073 156.796611 
L 235.55773 154.883177 
L 237.967388 152.969742 
L 240.377046 151.056308 
L 242.786703 149.142874 
L 245.196361 147.229439 
L 247.606019 145.316005 
L 250.015677 143.40257 
L 252.425334 141.489136 
L 254.834992 139.575702 
L 257.24465 137.662267 
L 259.654308 135.748833 
L 262.063965 133.835398 
L 264.473623 131.921964 
L 266.883281 130.00853 
L 269.292939 128.095095 
L 271.702596 126.181661 
L 274.112254 124.268226 
L 276.521912 122.354792 
L 278.931569 120.441358 
L 281.341227 118.527923 
L 283.750885 116.614489 
L 286.160543 114.701054 
L 288.5702 112.78762 
L 290.979858 110.874185 
L 293.389516 108.960751 
L 295.799174 107.047317 
L 298.208831 105.133882 
L 300.618489 103.220448 
" clip-path="url(#p57ea6f3bc5)" style="fill: none; stroke: #808080; stroke-width: 2.25; stroke-linecap: round"/>
   </g>
   <g id="patch_3">
    <path d="M 45 320.4 
L 45 43.2 
" style="fill: none; stroke: #262626; stroke-width: 2; stroke-linejoin: miter; stroke-linecap: square"/>
   </g>
   <g id="patch_4">
    <path d="M 45 320.4 
L 324 320.4 
" style="fill: none; stroke: #262626; stroke-width: 2; stroke-linejoin: miter; stroke-linecap: square"/>
   </g>
   <g id="text_14">
    <text style="fill: #262626; font: 16.8px 'sans-serif'; text-anchor: middle" x="184.5" y="37.2" transform="rotate(-0, 184.5, 37.2)">AraC eYFP Enrichment: 2</text>
   </g>
   <g id="legend_1">
    <g id="line2d_13">
     <path d="M 57.6 61.537812 
L 71.6 61.537812 
L 85.6 61.537812 
" style="fill: none; stroke: #808080; stroke-width: 2.25; stroke-linecap: round"/>
    </g>
    <g id="text_15">
     <text style="fill: #262626; font: 14px 'sans-serif'; text-anchor: start" x="96.8" y="66.437812" transform="rotate(-0, 96.8, 66.437812)">Pearson's r: 0.83</text>
    </g>
   </g>
  </g>
 </g>
 <defs>
  <clipPath id="p57ea6f3bc5">
   <rect x="45" y="43.2" width="279" height="277.2"/>
  </clipPath>
 </defs>
</svg>
