<?xml version="1.0" encoding="utf-8" standalone="no"?>
<!DOCTYPE svg PUBLIC "-//W3C//DTD SVG 1.1//EN"
  "http://www.w3.org/Graphics/SVG/1.1/DTD/svg11.dtd">
<!-- Created with matplotlib (https://matplotlib.org/) -->
<svg height="360pt" version="1.1" viewBox="0 0 360 360" width="360pt" xmlns="http://www.w3.org/2000/svg" xmlns:xlink="http://www.w3.org/1999/xlink">
 <defs>
  <style type="text/css">
*{stroke-linecap:butt;stroke-linejoin:round;}
  </style>
 </defs>
 <g id="figure_1">
  <g id="patch_1">
   <path d="M 0 360 
L 360 360 
L 360 0 
L 0 0 
z
" style="fill:#ffffff;"/>
  </g>
  <g id="axes_1">
   <g id="patch_2">
    <path d="M 45 315 
L 324 315 
L 324 43.2 
L 45 43.2 
z
" style="fill:#ffffff;"/>
   </g>
   <g id="matplotlib.axis_1">
    <g id="xtick_1">
     <g id="line2d_1">
      <defs>
       <path d="M 0 0 
L 0 6 
" id="m4f0a637c1a" style="stroke:#262626;stroke-width:2;"/>
      </defs>
      <g>
       <use style="fill:#262626;stroke:#262626;stroke-width:2;" x="74.109296" xlink:href="#m4f0a637c1a" y="315"/>
      </g>
     </g>
     <g id="text_1">
      <text style="fill:#262626;font-family:Droid Sans;font-size:11px;font-style:normal;font-weight:normal;text-anchor:middle;" transform="rotate(-0, 74.109296, 332.858281)" x="74.109296" y="332.858281">−10.0</text>
     </g>
    </g>
    <g id="xtick_2">
     <g id="line2d_2">
      <g>
       <use style="fill:#262626;stroke:#262626;stroke-width:2;" x="109.715469" xlink:href="#m4f0a637c1a" y="315"/>
      </g>
     </g>
     <g id="text_2">
      <text style="fill:#262626;font-family:Droid Sans;font-size:11px;font-style:normal;font-weight:normal;text-anchor:middle;" transform="rotate(-0, 109.715469, 332.858281)" x="109.715469" y="332.858281">−7.5</text>
     </g>
    </g>
    <g id="xtick_3">
     <g id="line2d_3">
      <g>
       <use style="fill:#262626;stroke:#262626;stroke-width:2;" x="145.321642" xlink:href="#m4f0a637c1a" y="315"/>
      </g>
     </g>
     <g id="text_3">
      <text style="fill:#262626;font-family:Droid Sans;font-size:11px;font-style:normal;font-weight:normal;text-anchor:middle;" transform="rotate(-0, 145.321642, 332.858281)" x="145.321642" y="332.858281">−5.0</text>
     </g>
    </g>
    <g id="xtick_4">
     <g id="line2d_4">
      <g>
       <use style="fill:#262626;stroke:#262626;stroke-width:2;" x="180.927814" xlink:href="#m4f0a637c1a" y="315"/>
      </g>
     </g>
     <g id="text_4">
      <text style="fill:#262626;font-family:Droid Sans;font-size:11px;font-style:normal;font-weight:normal;text-anchor:middle;" transform="rotate(-0, 180.927814, 332.858281)" x="180.927814" y="332.858281">−2.5</text>
     </g>
    </g>
    <g id="xtick_5">
     <g id="line2d_5">
      <g>
       <use style="fill:#262626;stroke:#262626;stroke-width:2;" x="216.533987" xlink:href="#m4f0a637c1a" y="315"/>
      </g>
     </g>
     <g id="text_5">
      <text style="fill:#262626;font-family:Droid Sans;font-size:11px;font-style:normal;font-weight:normal;text-anchor:middle;" transform="rotate(-0, 216.533987, 332.858281)" x="216.533987" y="332.858281">0.0</text>
     </g>
    </g>
    <g id="xtick_6">
     <g id="line2d_6">
      <g>
       <use style="fill:#262626;stroke:#262626;stroke-width:2;" x="252.14016" xlink:href="#m4f0a637c1a" y="315"/>
      </g>
     </g>
     <g id="text_6">
      <text style="fill:#262626;font-family:Droid Sans;font-size:11px;font-style:normal;font-weight:normal;text-anchor:middle;" transform="rotate(-0, 252.14016, 332.858281)" x="252.14016" y="332.858281">2.5</text>
     </g>
    </g>
    <g id="xtick_7">
     <g id="line2d_7">
      <g>
       <use style="fill:#262626;stroke:#262626;stroke-width:2;" x="287.746333" xlink:href="#m4f0a637c1a" y="315"/>
      </g>
     </g>
     <g id="text_7">
      <text style="fill:#262626;font-family:Droid Sans;font-size:11px;font-style:normal;font-weight:normal;text-anchor:middle;" transform="rotate(-0, 287.746333, 332.858281)" x="287.746333" y="332.858281">5.0</text>
     </g>
    </g>
    <g id="xtick_8">
     <g id="line2d_8">
      <g>
       <use style="fill:#262626;stroke:#262626;stroke-width:2;" x="323.352505" xlink:href="#m4f0a637c1a" y="315"/>
      </g>
     </g>
     <g id="text_8">
      <text style="fill:#262626;font-family:Droid Sans;font-size:11px;font-style:normal;font-weight:normal;text-anchor:middle;" transform="rotate(-0, 323.352505, 332.858281)" x="323.352505" y="332.858281">7.5</text>
     </g>
    </g>
    <g id="text_9">
     <text style="fill:#262626;font-family:Droid Sans;font-size:12px;font-style:normal;font-weight:normal;text-anchor:middle;" transform="rotate(-0, 184.5, 348.619844)" x="184.5" y="348.619844">Rep-2 log2 enriched read counts</text>
    </g>
   </g>
   <g id="matplotlib.axis_2">
    <g id="ytick_1">
     <g id="line2d_9">
      <defs>
       <path d="M 0 0 
L -6 0 
" id="m5e80857038" style="stroke:#262626;stroke-width:2;"/>
      </defs>
      <g>
       <use style="fill:#262626;stroke:#262626;stroke-width:2;" x="45" xlink:href="#m5e80857038" y="286.641911"/>
      </g>
     </g>
     <g id="text_10">
      <text style="fill:#262626;font-family:Droid Sans;font-size:11px;font-style:normal;font-weight:normal;text-anchor:end;" transform="rotate(-0, 35.5, 290.821052)" x="35.5" y="290.821052">−10.0</text>
     </g>
    </g>
    <g id="ytick_2">
     <g id="line2d_10">
      <g>
       <use style="fill:#262626;stroke:#262626;stroke-width:2;" x="45" xlink:href="#m5e80857038" y="251.954608"/>
      </g>
     </g>
     <g id="text_11">
      <text style="fill:#262626;font-family:Droid Sans;font-size:11px;font-style:normal;font-weight:normal;text-anchor:end;" transform="rotate(-0, 35.5, 256.133748)" x="35.5" y="256.133748">−7.5</text>
     </g>
    </g>
    <g id="ytick_3">
     <g id="line2d_11">
      <g>
       <use style="fill:#262626;stroke:#262626;stroke-width:2;" x="45" xlink:href="#m5e80857038" y="217.267304"/>
      </g>
     </g>
     <g id="text_12">
      <text style="fill:#262626;font-family:Droid Sans;font-size:11px;font-style:normal;font-weight:normal;text-anchor:end;" transform="rotate(-0, 35.5, 221.446444)" x="35.5" y="221.446444">−5.0</text>
     </g>
    </g>
    <g id="ytick_4">
     <g id="line2d_12">
      <g>
       <use style="fill:#262626;stroke:#262626;stroke-width:2;" x="45" xlink:href="#m5e80857038" y="182.58"/>
      </g>
     </g>
     <g id="text_13">
      <text style="fill:#262626;font-family:Droid Sans;font-size:11px;font-style:normal;font-weight:normal;text-anchor:end;" transform="rotate(-0, 35.5, 186.759141)" x="35.5" y="186.759141">−2.5</text>
     </g>
    </g>
    <g id="ytick_5">
     <g id="line2d_13">
      <g>
       <use style="fill:#262626;stroke:#262626;stroke-width:2;" x="45" xlink:href="#m5e80857038" y="147.892696"/>
      </g>
     </g>
     <g id="text_14">
      <text style="fill:#262626;font-family:Droid Sans;font-size:11px;font-style:normal;font-weight:normal;text-anchor:end;" transform="rotate(-0, 35.5, 152.071837)" x="35.5" y="152.071837">0.0</text>
     </g>
    </g>
    <g id="ytick_6">
     <g id="line2d_14">
      <g>
       <use style="fill:#262626;stroke:#262626;stroke-width:2;" x="45" xlink:href="#m5e80857038" y="113.205393"/>
      </g>
     </g>
     <g id="text_15">
      <text style="fill:#262626;font-family:Droid Sans;font-size:11px;font-style:normal;font-weight:normal;text-anchor:end;" transform="rotate(-0, 35.5, 117.384533)" x="35.5" y="117.384533">2.5</text>
     </g>
    </g>
    <g id="ytick_7">
     <g id="line2d_15">
      <g>
       <use style="fill:#262626;stroke:#262626;stroke-width:2;" x="45" xlink:href="#m5e80857038" y="78.518089"/>
      </g>
     </g>
     <g id="text_16">
      <text style="fill:#262626;font-family:Droid Sans;font-size:11px;font-style:normal;font-weight:normal;text-anchor:end;" transform="rotate(-0, 35.5, 82.69723)" x="35.5" y="82.69723">5.0</text>
     </g>
    </g>
    <g id="ytick_8">
     <g id="line2d_16">
      <g>
       <use style="fill:#262626;stroke:#262626;stroke-width:2;" x="45" xlink:href="#m5e80857038" y="43.830785"/>
      </g>
     </g>
     <g id="text_17">
      <text style="fill:#262626;font-family:Droid Sans;font-size:11px;font-style:normal;font-weight:normal;text-anchor:end;" transform="rotate(-0, 35.5, 48.009926)" x="35.5" y="48.009926">7.5</text>
     </g>
    </g>
    <g id="text_18">
     <text style="fill:#262626;font-family:Droid Sans;font-size:12px;font-style:normal;font-weight:normal;text-anchor:middle;" transform="rotate(-90, 1.4325, 179.1)" x="1.4325" y="179.1">Rep-1 log2 enriched read counts</text>
    </g>
   </g>
   <g id="PathCollection_1">
    <defs>
     <path d="M 0 3 
C 0.795609 3 1.55874 2.683901 2.12132 2.12132 
C 2.683901 1.55874 3 0.795609 3 0 
C 3 -0.795609 2.683901 -1.55874 2.12132 -2.12132 
C 1.55874 -2.683901 0.795609 -3 0 -3 
C -0.795609 -3 -1.55874 -2.683901 -2.12132 -2.12132 
C -2.683901 -1.55874 -3 -0.795609 -3 0 
C -3 0.795609 -2.683901 1.55874 -2.12132 2.12132 
C -1.55874 2.683901 -0.795609 3 0 3 
z
" id="ma71d160a70"/>
    </defs>
    <g clip-path="url(#p89849be13b)">
     <use style="fill:#808080;fill-opacity:0.4;" x="269.560594" xlink:href="#ma71d160a70" y="130.916256"/>
     <use style="fill:#808080;fill-opacity:0.4;" x="266.304034" xlink:href="#ma71d160a70" y="128.286508"/>
     <use style="fill:#808080;fill-opacity:0.4;" x="275.347047" xlink:href="#ma71d160a70" y="122.841824"/>
     <use style="fill:#808080;fill-opacity:0.4;" x="261.724758" xlink:href="#ma71d160a70" y="138.913908"/>
     <use style="fill:#808080;fill-opacity:0.4;" x="276.354586" xlink:href="#ma71d160a70" y="124.479026"/>
     <use style="fill:#808080;fill-opacity:0.4;" x="251.929765" xlink:href="#ma71d160a70" y="168.609217"/>
     <use style="fill:#808080;fill-opacity:0.4;" x="258.698502" xlink:href="#ma71d160a70" y="133.805267"/>
     <use style="fill:#808080;fill-opacity:0.4;" x="281.235312" xlink:href="#ma71d160a70" y="120.43528"/>
     <use style="fill:#808080;fill-opacity:0.4;" x="282.253367" xlink:href="#ma71d160a70" y="106.237715"/>
     <use style="fill:#808080;fill-opacity:0.4;" x="258.194861" xlink:href="#ma71d160a70" y="122.206239"/>
     <use style="fill:#808080;fill-opacity:0.4;" x="279.731207" xlink:href="#ma71d160a70" y="111.478949"/>
     <use style="fill:#808080;fill-opacity:0.4;" x="261.52732" xlink:href="#ma71d160a70" y="127.488395"/>
     <use style="fill:#808080;fill-opacity:0.4;" x="237.367483" xlink:href="#ma71d160a70" y="160.851972"/>
     <use style="fill:#808080;fill-opacity:0.4;" x="276.889387" xlink:href="#ma71d160a70" y="118.741276"/>
     <use style="fill:#808080;fill-opacity:0.4;" x="232.710962" xlink:href="#ma71d160a70" y="182.651648"/>
     <use style="fill:#808080;fill-opacity:0.4;" x="173.392404" xlink:href="#ma71d160a70" y="215.28096"/>
     <use style="fill:#808080;fill-opacity:0.4;" x="198.220226" xlink:href="#ma71d160a70" y="217.101967"/>
     <use style="fill:#808080;fill-opacity:0.4;" x="158.428895" xlink:href="#ma71d160a70" y="214.381155"/>
     <use style="fill:#808080;fill-opacity:0.4;" x="181.723714" xlink:href="#ma71d160a70" y="172.442655"/>
     <use style="fill:#808080;fill-opacity:0.4;" x="201.031645" xlink:href="#ma71d160a70" y="174.091371"/>
     <use style="fill:#808080;fill-opacity:0.4;" x="195.144172" xlink:href="#ma71d160a70" y="197.176205"/>
     <use style="fill:#808080;fill-opacity:0.4;" x="195.010312" xlink:href="#ma71d160a70" y="195.761484"/>
     <use style="fill:#808080;fill-opacity:0.4;" x="232.355233" xlink:href="#ma71d160a70" y="170.570518"/>
     <use style="fill:#808080;fill-opacity:0.4;" x="178.724721" xlink:href="#ma71d160a70" y="210.086251"/>
     <use style="fill:#808080;fill-opacity:0.4;" x="231.051089" xlink:href="#ma71d160a70" y="172.730162"/>
     <use style="fill:#808080;fill-opacity:0.4;" x="230.137715" xlink:href="#ma71d160a70" y="171.010476"/>
     <use style="fill:#808080;fill-opacity:0.4;" x="192.38365" xlink:href="#ma71d160a70" y="209.92675"/>
     <use style="fill:#808080;fill-opacity:0.4;" x="206.047277" xlink:href="#ma71d160a70" y="188.601815"/>
     <use style="fill:#808080;fill-opacity:0.4;" x="170.016381" xlink:href="#ma71d160a70" y="240.56109"/>
     <use style="fill:#808080;fill-opacity:0.4;" x="211.047444" xlink:href="#ma71d160a70" y="198.320361"/>
     <use style="fill:#808080;fill-opacity:0.4;" x="223.872279" xlink:href="#ma71d160a70" y="165.663833"/>
     <use style="fill:#808080;fill-opacity:0.4;" x="193.546032" xlink:href="#ma71d160a70" y="180.955359"/>
     <use style="fill:#808080;fill-opacity:0.4;" x="178.347691" xlink:href="#ma71d160a70" y="185.376644"/>
     <use style="fill:#808080;fill-opacity:0.4;" x="223.49525" xlink:href="#ma71d160a70" y="174.5874"/>
     <use style="fill:#808080;fill-opacity:0.4;" x="117.945264" xlink:href="#ma71d160a70" y="220.120037"/>
     <use style="fill:#808080;fill-opacity:0.4;" x="185.097641" xlink:href="#ma71d160a70" y="268.310933"/>
     <use style="fill:#808080;fill-opacity:0.4;" x="157.732301" xlink:href="#ma71d160a70" y="231.388859"/>
     <use style="fill:#808080;fill-opacity:0.4;" x="148.771477" xlink:href="#ma71d160a70" y="211.185794"/>
     <use style="fill:#808080;fill-opacity:0.4;" x="202.693908" xlink:href="#ma71d160a70" y="213.887891"/>
     <use style="fill:#808080;fill-opacity:0.4;" x="168.690273" xlink:href="#ma71d160a70" y="238.203394"/>
     <use style="fill:#808080;fill-opacity:0.4;" x="148.218072" xlink:href="#ma71d160a70" y="210.97351"/>
     <use style="fill:#808080;fill-opacity:0.4;" x="161.403978" xlink:href="#ma71d160a70" y="245.607269"/>
     <use style="fill:#808080;fill-opacity:0.4;" x="182.932742" xlink:href="#ma71d160a70" y="196.302525"/>
     <use style="fill:#808080;fill-opacity:0.4;" x="170.936045" xlink:href="#ma71d160a70" y="233.906546"/>
     <use style="fill:#808080;fill-opacity:0.4;" x="163.538357" xlink:href="#ma71d160a70" y="209.285453"/>
     <use style="fill:#808080;fill-opacity:0.4;" x="176.389301" xlink:href="#ma71d160a70" y="213.040019"/>
     <use style="fill:#808080;fill-opacity:0.4;" x="176.905166" xlink:href="#ma71d160a70" y="266.06665"/>
     <use style="fill:#808080;fill-opacity:0.4;" x="174.915141" xlink:href="#ma71d160a70" y="230.258909"/>
     <use style="fill:#808080;fill-opacity:0.4;" x="121.377815" xlink:href="#ma71d160a70" y="194.976392"/>
     <use style="fill:#808080;fill-opacity:0.4;" x="150.656193" xlink:href="#ma71d160a70" y="242.461062"/>
     <use style="fill:#808080;fill-opacity:0.4;" x="143.262785" xlink:href="#ma71d160a70" y="249.663672"/>
     <use style="fill:#808080;fill-opacity:0.4;" x="146.963935" xlink:href="#ma71d160a70" y="218.668874"/>
     <use style="fill:#808080;fill-opacity:0.4;" x="170.016381" xlink:href="#ma71d160a70" y="216.662009"/>
     <use style="fill:#808080;fill-opacity:0.4;" x="147.419553" xlink:href="#ma71d160a70" y="242.94124"/>
     <use style="fill:#808080;fill-opacity:0.4;" x="150.403509" xlink:href="#ma71d160a70" y="250.620311"/>
     <use style="fill:#808080;fill-opacity:0.4;" x="169.402976" xlink:href="#ma71d160a70" y="257.391283"/>
     <use style="fill:#808080;fill-opacity:0.4;" x="166.408957" xlink:href="#ma71d160a70" y="223.228345"/>
     <use style="fill:#808080;fill-opacity:0.4;" x="156.087621" xlink:href="#ma71d160a70" y="271.654902"/>
     <use style="fill:#808080;fill-opacity:0.4;" x="150.019009" xlink:href="#ma71d160a70" y="185.464151"/>
     <use style="fill:#808080;fill-opacity:0.4;" x="131.412262" xlink:href="#ma71d160a70" y="267.943633"/>
     <use style="fill:#808080;fill-opacity:0.4;" x="156.664656" xlink:href="#ma71d160a70" y="234.441513"/>
     <use style="fill:#808080;fill-opacity:0.4;" x="152.341361" xlink:href="#ma71d160a70" y="209.109605"/>
     <use style="fill:#808080;fill-opacity:0.4;" x="172.303538" xlink:href="#ma71d160a70" y="216.341726"/>
     <use style="fill:#808080;fill-opacity:0.4;" x="142.163724" xlink:href="#ma71d160a70" y="239.945125"/>
     <use style="fill:#808080;fill-opacity:0.4;" x="137.707499" xlink:href="#ma71d160a70" y="237.021971"/>
     <use style="fill:#808080;fill-opacity:0.4;" x="164.609481" xlink:href="#ma71d160a70" y="218.078614"/>
     <use style="fill:#808080;fill-opacity:0.4;" x="169.554619" xlink:href="#ma71d160a70" y="200.678057"/>
     <use style="fill:#808080;fill-opacity:0.4;" x="199.287516" xlink:href="#ma71d160a70" y="214.254208"/>
     <use style="fill:#808080;fill-opacity:0.4;" x="192.922473" xlink:href="#ma71d160a70" y="261.084428"/>
     <use style="fill:#808080;fill-opacity:0.4;" x="171.395928" xlink:href="#ma71d160a70" y="272.410361"/>
     <use style="fill:#808080;fill-opacity:0.4;" x="117.748636" xlink:href="#ma71d160a70" y="216.425116"/>
     <use style="fill:#808080;fill-opacity:0.4;" x="153.677051" xlink:href="#ma71d160a70" y="218.053732"/>
     <use style="fill:#808080;fill-opacity:0.4;" x="177.885929" xlink:href="#ma71d160a70" y="226.520049"/>
     <use style="fill:#808080;fill-opacity:0.4;" x="154.09008" xlink:href="#ma71d160a70" y="265.123902"/>
     <use style="fill:#808080;fill-opacity:0.4;" x="116.149164" xlink:href="#ma71d160a70" y="208.138358"/>
     <use style="fill:#808080;fill-opacity:0.4;" x="164.697411" xlink:href="#ma71d160a70" y="217.376988"/>
     <use style="fill:#808080;fill-opacity:0.4;" x="178.773877" xlink:href="#ma71d160a70" y="245.268992"/>
     <use style="fill:#808080;fill-opacity:0.4;" x="169.050522" xlink:href="#ma71d160a70" y="224.373915"/>
     <use style="fill:#808080;fill-opacity:0.4;" x="118.445229" xlink:href="#ma71d160a70" y="253.332984"/>
     <use style="fill:#808080;fill-opacity:0.4;" x="177.955229" xlink:href="#ma71d160a70" y="266.951536"/>
     <use style="fill:#808080;fill-opacity:0.4;" x="126.878009" xlink:href="#ma71d160a70" y="237.173339"/>
     <use style="fill:#808080;fill-opacity:0.4;" x="172.47903" xlink:href="#ma71d160a70" y="215.869746"/>
     <use style="fill:#808080;fill-opacity:0.4;" x="161.092881" xlink:href="#ma71d160a70" y="229.885905"/>
     <use style="fill:#808080;fill-opacity:0.4;" x="168.754052" xlink:href="#ma71d160a70" y="205.773616"/>
     <use style="fill:#808080;fill-opacity:0.4;" x="160.794616" xlink:href="#ma71d160a70" y="278.896955"/>
     <use style="fill:#808080;fill-opacity:0.4;" x="142.348008" xlink:href="#ma71d160a70" y="230.268239"/>
     <use style="fill:#808080;fill-opacity:0.4;" x="152.282904" xlink:href="#ma71d160a70" y="223.915731"/>
     <use style="fill:#808080;fill-opacity:0.4;" x="165.791455" xlink:href="#ma71d160a70" y="212.195282"/>
     <use style="fill:#808080;fill-opacity:0.4;" x="167.238076" xlink:href="#ma71d160a70" y="301.125079"/>
     <use style="fill:#808080;fill-opacity:0.4;" x="176.559821" xlink:href="#ma71d160a70" y="235.076316"/>
     <use style="fill:#808080;fill-opacity:0.4;" x="164.239083" xlink:href="#ma71d160a70" y="221.946563"/>
     <use style="fill:#808080;fill-opacity:0.4;" x="160.937805" xlink:href="#ma71d160a70" y="247.803143"/>
     <use style="fill:#808080;fill-opacity:0.4;" x="186.136818" xlink:href="#ma71d160a70" y="239.945125"/>
     <use style="fill:#808080;fill-opacity:0.4;" x="167.961656" xlink:href="#ma71d160a70" y="255.293555"/>
     <use style="fill:#808080;fill-opacity:0.4;" x="174.673402" xlink:href="#ma71d160a70" y="230.654335"/>
     <use style="fill:#808080;fill-opacity:0.4;" x="146.298908" xlink:href="#ma71d160a70" y="242.819425"/>
     <use style="fill:#808080;fill-opacity:0.4;" x="154.499757" xlink:href="#ma71d160a70" y="231.577024"/>
     <use style="fill:#808080;fill-opacity:0.4;" x="181.170068" xlink:href="#ma71d160a70" y="212.567131"/>
     <use style="fill:#808080;fill-opacity:0.4;" x="170.405494" xlink:href="#ma71d160a70" y="259.500314"/>
     <use style="fill:#808080;fill-opacity:0.4;" x="167.829517" xlink:href="#ma71d160a70" y="210.474949"/>
     <use style="fill:#808080;fill-opacity:0.4;" x="187.139728" xlink:href="#ma71d160a70" y="235.451182"/>
     <use style="fill:#808080;fill-opacity:0.4;" x="173.043146" xlink:href="#ma71d160a70" y="224.554659"/>
     <use style="fill:#808080;fill-opacity:0.4;" x="183.709158" xlink:href="#ma71d160a70" y="240.069844"/>
     <use style="fill:#808080;fill-opacity:0.4;" x="147.099563" xlink:href="#ma71d160a70" y="239.812998"/>
     <use style="fill:#808080;fill-opacity:0.4;" x="172.034415" xlink:href="#ma71d160a70" y="224.720213"/>
     <use style="fill:#808080;fill-opacity:0.4;" x="158.428895" xlink:href="#ma71d160a70" y="242.130998"/>
     <use style="fill:#808080;fill-opacity:0.4;" x="181.360032" xlink:href="#ma71d160a70" y="250.885444"/>
     <use style="fill:#808080;fill-opacity:0.4;" x="175.91158" xlink:href="#ma71d160a70" y="300.036257"/>
     <use style="fill:#808080;fill-opacity:0.4;" x="166.58383" xlink:href="#ma71d160a70" y="207.221762"/>
     <use style="fill:#808080;fill-opacity:0.4;" x="160.049971" xlink:href="#ma71d160a70" y="268.611951"/>
     <use style="fill:#808080;fill-opacity:0.4;" x="176.380366" xlink:href="#ma71d160a70" y="239.093198"/>
     <use style="fill:#808080;fill-opacity:0.4;" x="174.915141" xlink:href="#ma71d160a70" y="216.543913"/>
     <use style="fill:#808080;fill-opacity:0.4;" x="165.112656" xlink:href="#ma71d160a70" y="203.322273"/>
     <use style="fill:#808080;fill-opacity:0.4;" x="145.153547" xlink:href="#ma71d160a70" y="241.708793"/>
     <use style="fill:#808080;fill-opacity:0.4;" x="185.865131" xlink:href="#ma71d160a70" y="263.345188"/>
     <use style="fill:#808080;fill-opacity:0.4;" x="166.184836" xlink:href="#ma71d160a70" y="227.672441"/>
     <use style="fill:#808080;fill-opacity:0.4;" x="174.477277" xlink:href="#ma71d160a70" y="211.718658"/>
     <use style="fill:#808080;fill-opacity:0.4;" x="148.595102" xlink:href="#ma71d160a70" y="208.602811"/>
     <use style="fill:#808080;fill-opacity:0.4;" x="159.149935" xlink:href="#ma71d160a70" y="222.27451"/>
     <use style="fill:#808080;fill-opacity:0.4;" x="176.44207" xlink:href="#ma71d160a70" y="229.424574"/>
     <use style="fill:#808080;fill-opacity:0.4;" x="167.665529" xlink:href="#ma71d160a70" y="206.167977"/>
     <use style="fill:#808080;fill-opacity:0.4;" x="109.879087" xlink:href="#ma71d160a70" y="247.803143"/>
     <use style="fill:#808080;fill-opacity:0.4;" x="154.630218" xlink:href="#ma71d160a70" y="245.324851"/>
     <use style="fill:#808080;fill-opacity:0.4;" x="165.981585" xlink:href="#ma71d160a70" y="267.300137"/>
     <use style="fill:#808080;fill-opacity:0.4;" x="154.941914" xlink:href="#ma71d160a70" y="238.812741"/>
     <use style="fill:#808080;fill-opacity:0.4;" x="165.1701" xlink:href="#ma71d160a70" y="224.435232"/>
     <use style="fill:#808080;fill-opacity:0.4;" x="147.651208" xlink:href="#ma71d160a70" y="215.044066"/>
     <use style="fill:#808080;fill-opacity:0.4;" x="159.897201" xlink:href="#ma71d160a70" y="201.881174"/>
     <use style="fill:#808080;fill-opacity:0.4;" x="174.690575" xlink:href="#ma71d160a70" y="193.680323"/>
     <use style="fill:#808080;fill-opacity:0.4;" x="156.964079" xlink:href="#ma71d160a70" y="208.362893"/>
     <use style="fill:#808080;fill-opacity:0.4;" x="139.743573" xlink:href="#ma71d160a70" y="222.984527"/>
     <use style="fill:#808080;fill-opacity:0.4;" x="169.496162" xlink:href="#ma71d160a70" y="226.437504"/>
     <use style="fill:#808080;fill-opacity:0.4;" x="188.422232" xlink:href="#ma71d160a70" y="188.79522"/>
     <use style="fill:#808080;fill-opacity:0.4;" x="171.97477" xlink:href="#ma71d160a70" y="182.997776"/>
     <use style="fill:#808080;fill-opacity:0.4;" x="180.767843" xlink:href="#ma71d160a70" y="236.601157"/>
     <use style="fill:#808080;fill-opacity:0.4;" x="171.434014" xlink:href="#ma71d160a70" y="204.694939"/>
     <use style="fill:#808080;fill-opacity:0.4;" x="176.298066" xlink:href="#ma71d160a70" y="285.784824"/>
     <use style="fill:#808080;fill-opacity:0.4;" x="157.392665" xlink:href="#ma71d160a70" y="232.609534"/>
     <use style="fill:#808080;fill-opacity:0.4;" x="166.525374" xlink:href="#ma71d160a70" y="217.35632"/>
     <use style="fill:#808080;fill-opacity:0.4;" x="124.938122" xlink:href="#ma71d160a70" y="233.132728"/>
     <use style="fill:#808080;fill-opacity:0.4;" x="173.638485" xlink:href="#ma71d160a70" y="245.148768"/>
     <use style="fill:#808080;fill-opacity:0.4;" x="180.795331" xlink:href="#ma71d160a70" y="207.680379"/>
     <use style="fill:#808080;fill-opacity:0.4;" x="147.791464" xlink:href="#ma71d160a70" y="227.490465"/>
     <use style="fill:#808080;fill-opacity:0.4;" x="176.905166" xlink:href="#ma71d160a70" y="213.239899"/>
     <use style="fill:#808080;fill-opacity:0.4;" x="179.164257" xlink:href="#ma71d160a70" y="192.902766"/>
     <use style="fill:#808080;fill-opacity:0.4;" x="180.306081" xlink:href="#ma71d160a70" y="230.536931"/>
     <use style="fill:#808080;fill-opacity:0.4;" x="168.612588" xlink:href="#ma71d160a70" y="199.891149"/>
     <use style="fill:#808080;fill-opacity:0.4;" x="167.117563" xlink:href="#ma71d160a70" y="279.251252"/>
     <use style="fill:#808080;fill-opacity:0.4;" x="195.51948" xlink:href="#ma71d160a70" y="203.864883"/>
     <use style="fill:#808080;fill-opacity:0.4;" x="202.301018" xlink:href="#ma71d160a70" y="203.350992"/>
     <use style="fill:#808080;fill-opacity:0.4;" x="177.734286" xlink:href="#ma71d160a70" y="176.926706"/>
     <use style="fill:#808080;fill-opacity:0.4;" x="196.506939" xlink:href="#ma71d160a70" y="248.87858"/>
     <use style="fill:#808080;fill-opacity:0.4;" x="168.228511" xlink:href="#ma71d160a70" y="218.20256"/>
     <use style="fill:#808080;fill-opacity:0.4;" x="187.480958" xlink:href="#ma71d160a70" y="224.62949"/>
     <use style="fill:#808080;fill-opacity:0.4;" x="198.681988" xlink:href="#ma71d160a70" y="197.889865"/>
     <use style="fill:#808080;fill-opacity:0.4;" x="172.772833" xlink:href="#ma71d160a70" y="214.953337"/>
     <use style="fill:#808080;fill-opacity:0.4;" x="176.559821" xlink:href="#ma71d160a70" y="245.952403"/>
     <use style="fill:#808080;fill-opacity:0.4;" x="154.564884" xlink:href="#ma71d160a70" y="283.363682"/>
     <use style="fill:#808080;fill-opacity:0.4;" x="184.658954" xlink:href="#ma71d160a70" y="218.180082"/>
     <use style="fill:#808080;fill-opacity:0.4;" x="195.324021" xlink:href="#ma71d160a70" y="179.917215"/>
     <use style="fill:#808080;fill-opacity:0.4;" x="178.115513" xlink:href="#ma71d160a70" y="216.43835"/>
     <use style="fill:#808080;fill-opacity:0.4;" x="175.233713" xlink:href="#ma71d160a70" y="253.820047"/>
     <use style="fill:#808080;fill-opacity:0.4;" x="197.998089" xlink:href="#ma71d160a70" y="220.311591"/>
     <use style="fill:#808080;fill-opacity:0.4;" x="200.459709" xlink:href="#ma71d160a70" y="216.005646"/>
     <use style="fill:#808080;fill-opacity:0.4;" x="134.706909" xlink:href="#ma71d160a70" y="261.084428"/>
     <use style="fill:#808080;fill-opacity:0.4;" x="183.645445" xlink:href="#ma71d160a70" y="201.275632"/>
     <use style="fill:#808080;fill-opacity:0.4;" x="181.969796" xlink:href="#ma71d160a70" y="217.398925"/>
     <use style="fill:#808080;fill-opacity:0.4;" x="183.080744" xlink:href="#ma71d160a70" y="216.185385"/>
     <use style="fill:#808080;fill-opacity:0.4;" x="192.140743" xlink:href="#ma71d160a70" y="168.95348"/>
     <use style="fill:#808080;fill-opacity:0.4;" x="189.511886" xlink:href="#ma71d160a70" y="177.158367"/>
     <use style="fill:#808080;fill-opacity:0.4;" x="185.718661" xlink:href="#ma71d160a70" y="165.56275"/>
     <use style="fill:#808080;fill-opacity:0.4;" x="191.131058" xlink:href="#ma71d160a70" y="219.060104"/>
     <use style="fill:#808080;fill-opacity:0.4;" x="197.675717" xlink:href="#ma71d160a70" y="196.739228"/>
     <use style="fill:#808080;fill-opacity:0.4;" x="203.400079" xlink:href="#ma71d160a70" y="215.178569"/>
     <use style="fill:#808080;fill-opacity:0.4;" x="193.69482" xlink:href="#ma71d160a70" y="169.549586"/>
     <use style="fill:#808080;fill-opacity:0.4;" x="150.097584" xlink:href="#ma71d160a70" y="191.55226"/>
     <use style="fill:#808080;fill-opacity:0.4;" x="181.458581" xlink:href="#ma71d160a70" y="176.329131"/>
     <use style="fill:#808080;fill-opacity:0.4;" x="171.850616" xlink:href="#ma71d160a70" y="185.689149"/>
     <use style="fill:#808080;fill-opacity:0.4;" x="144.186426" xlink:href="#ma71d160a70" y="191.388852"/>
     <use style="fill:#808080;fill-opacity:0.4;" x="190.055025" xlink:href="#ma71d160a70" y="155.356293"/>
     <use style="fill:#808080;fill-opacity:0.4;" x="292.123553" xlink:href="#ma71d160a70" y="74.731755"/>
     <use style="fill:#808080;fill-opacity:0.4;" x="284.824868" xlink:href="#ma71d160a70" y="81.755894"/>
     <use style="fill:#808080;fill-opacity:0.4;" x="281.739571" xlink:href="#ma71d160a70" y="83.475598"/>
     <use style="fill:#808080;fill-opacity:0.4;" x="280.873454" xlink:href="#ma71d160a70" y="80.935318"/>
     <use style="fill:#808080;fill-opacity:0.4;" x="282.491554" xlink:href="#ma71d160a70" y="79.811311"/>
     <use style="fill:#808080;fill-opacity:0.4;" x="290.423548" xlink:href="#ma71d160a70" y="75.346882"/>
     <use style="fill:#808080;fill-opacity:0.4;" x="279.034614" xlink:href="#ma71d160a70" y="85.955996"/>
     <use style="fill:#808080;fill-opacity:0.4;" x="285.765572" xlink:href="#ma71d160a70" y="74.451245"/>
     <use style="fill:#808080;fill-opacity:0.4;" x="283.574979" xlink:href="#ma71d160a70" y="74.272989"/>
     <use style="fill:#808080;fill-opacity:0.4;" x="287.181108" xlink:href="#ma71d160a70" y="72.656196"/>
     <use style="fill:#808080;fill-opacity:0.4;" x="277.760176" xlink:href="#ma71d160a70" y="76.063759"/>
     <use style="fill:#808080;fill-opacity:0.4;" x="284.631178" xlink:href="#ma71d160a70" y="75.364868"/>
     <use style="fill:#808080;fill-opacity:0.4;" x="295.148736" xlink:href="#ma71d160a70" y="62.608554"/>
     <use style="fill:#808080;fill-opacity:0.4;" x="285.621487" xlink:href="#ma71d160a70" y="74.901258"/>
     <use style="fill:#808080;fill-opacity:0.4;" x="302.089827" xlink:href="#ma71d160a70" y="57.074921"/>
    </g>
   </g>
   <g id="PolyCollection_1">
    <defs>
     <path d="M 109.879087 -87.664936 
L 109.879087 -70.472017 
L 111.82061 -72.55694 
L 113.762132 -74.641863 
L 115.703655 -76.727348 
L 117.645178 -78.814031 
L 119.5867 -80.900713 
L 121.528223 -82.989387 
L 123.469746 -85.072588 
L 125.411268 -87.157247 
L 127.352791 -89.241906 
L 129.294313 -91.326565 
L 131.235836 -93.413674 
L 133.177359 -95.496284 
L 135.118881 -97.587736 
L 137.060404 -99.6734 
L 139.001927 -101.759065 
L 140.943449 -103.863328 
L 142.884972 -105.943263 
L 144.826494 -108.048724 
L 146.768017 -110.125258 
L 148.70954 -112.201792 
L 150.651062 -114.278326 
L 152.592585 -116.353297 
L 154.534108 -118.378514 
L 156.47563 -120.456437 
L 158.417153 -122.545228 
L 160.358676 -124.658856 
L 162.300198 -126.735246 
L 164.241721 -128.811636 
L 166.183243 -130.863913 
L 168.124766 -132.894871 
L 170.066289 -134.862894 
L 172.007811 -136.873115 
L 173.949334 -138.899879 
L 175.890857 -140.8445 
L 177.832379 -142.905565 
L 179.773902 -144.939682 
L 181.715424 -146.864249 
L 183.656947 -148.845509 
L 185.59847 -150.791157 
L 187.539992 -152.668366 
L 189.481515 -154.662078 
L 191.423038 -156.579219 
L 193.36456 -158.485952 
L 195.306083 -160.523549 
L 197.247605 -162.52291 
L 199.189128 -164.429131 
L 201.130651 -166.451927 
L 203.072173 -168.327469 
L 205.013696 -170.295034 
L 206.955219 -172.182161 
L 208.896741 -174.054106 
L 210.838264 -175.922061 
L 212.779787 -177.772258 
L 214.721309 -179.66234 
L 216.662832 -181.533613 
L 218.604354 -183.40516 
L 220.545877 -185.298831 
L 222.4874 -187.159441 
L 224.428922 -189.019925 
L 226.370445 -190.817895 
L 228.311968 -192.596444 
L 230.25349 -194.380487 
L 232.195013 -196.116344 
L 234.136535 -197.960443 
L 236.078058 -199.729676 
L 238.019581 -201.499218 
L 239.961103 -203.262669 
L 241.902626 -205.022073 
L 243.844149 -206.713886 
L 245.785671 -208.446468 
L 247.727194 -210.252011 
L 249.668716 -212.026957 
L 251.610239 -213.826096 
L 253.551762 -215.605838 
L 255.493284 -217.38445 
L 257.434807 -219.171471 
L 259.37633 -220.938785 
L 261.317852 -222.706099 
L 263.259375 -224.473413 
L 265.200897 -226.240727 
L 267.14242 -228.009966 
L 269.083943 -229.798566 
L 271.025465 -231.563418 
L 272.966988 -233.32827 
L 274.908511 -235.093122 
L 276.850033 -236.847769 
L 278.791556 -238.614613 
L 280.733079 -240.381457 
L 282.674601 -242.149667 
L 284.616124 -243.91729 
L 286.557646 -245.681415 
L 288.499169 -247.445539 
L 290.440692 -249.209664 
L 292.382214 -250.973789 
L 294.323737 -252.737914 
L 296.26526 -254.503713 
L 298.206782 -256.269664 
L 300.148305 -258.035615 
L 302.089827 -259.824645 
L 302.089827 -281.008431 
L 302.089827 -281.008431 
L 300.148305 -278.902021 
L 298.206782 -276.79561 
L 296.26526 -274.700352 
L 294.323737 -272.606371 
L 292.382214 -270.47305 
L 290.440692 -268.390201 
L 288.499169 -266.308042 
L 286.557646 -264.225882 
L 284.616124 -262.143722 
L 282.674601 -260.000744 
L 280.733079 -257.911783 
L 278.791556 -255.852574 
L 276.850033 -253.723977 
L 274.908511 -251.595326 
L 272.966988 -249.532637 
L 271.025465 -247.425878 
L 269.083943 -245.383717 
L 267.14242 -243.281629 
L 265.200897 -241.231193 
L 263.259375 -239.139027 
L 261.317852 -237.013146 
L 259.37633 -234.912431 
L 257.434807 -232.80917 
L 255.493284 -230.665139 
L 253.551762 -228.583353 
L 251.610239 -226.523333 
L 249.668716 -224.496779 
L 247.727194 -222.405443 
L 245.785671 -220.335542 
L 243.844149 -218.28855 
L 241.902626 -216.242148 
L 239.961103 -214.179528 
L 238.019581 -212.146668 
L 236.078058 -210.105017 
L 234.136535 -208.079262 
L 232.195013 -206.050022 
L 230.25349 -204.057158 
L 228.311968 -202.036279 
L 226.370445 -199.952718 
L 224.428922 -197.877899 
L 222.4874 -195.799263 
L 220.545877 -193.811656 
L 218.604354 -191.820006 
L 216.662832 -189.807305 
L 214.721309 -187.785201 
L 212.779787 -185.795524 
L 210.838264 -183.874807 
L 208.896741 -181.879262 
L 206.955219 -179.921469 
L 205.013696 -178.013997 
L 203.072173 -175.968051 
L 201.130651 -174.061522 
L 199.189128 -172.134032 
L 197.247605 -170.21684 
L 195.306083 -168.28108 
L 193.36456 -166.317285 
L 191.423038 -164.405955 
L 189.481515 -162.503814 
L 187.539992 -160.572261 
L 185.59847 -158.693563 
L 183.656947 -156.755515 
L 181.715424 -154.823 
L 179.773902 -152.960128 
L 177.832379 -151.039962 
L 175.890857 -149.180938 
L 173.949334 -147.291217 
L 172.007811 -145.402612 
L 170.066289 -143.520287 
L 168.124766 -141.680525 
L 166.183243 -139.801249 
L 164.241721 -137.883794 
L 162.300198 -136.128171 
L 160.358676 -134.358894 
L 158.417153 -132.510824 
L 156.47563 -130.665111 
L 154.534108 -128.812178 
L 152.592585 -126.966805 
L 150.651062 -125.182797 
L 148.70954 -123.39809 
L 146.768017 -121.613384 
L 144.826494 -119.833003 
L 142.884972 -118.068345 
L 140.943449 -116.303688 
L 139.001927 -114.545905 
L 137.060404 -112.774373 
L 135.118881 -110.95382 
L 133.177359 -109.117384 
L 131.235836 -107.244899 
L 129.294313 -105.472271 
L 127.352791 -103.592803 
L 125.411268 -101.910817 
L 123.469746 -100.180519 
L 121.528223 -98.285153 
L 119.5867 -96.533542 
L 117.645178 -94.754434 
L 115.703655 -92.961161 
L 113.762132 -91.261879 
L 111.82061 -89.413505 
L 109.879087 -87.664936 
z
" id="m90aede9ce7"/>
    </defs>
    <g clip-path="url(#p89849be13b)">
     <use style="fill:#808080;fill-opacity:0.15;" x="0" xlink:href="#m90aede9ce7" y="360"/>
    </g>
   </g>
   <g id="line2d_17">
    <path clip-path="url(#p89849be13b)" d="M 109.879087 281.099274 
L 111.82061 279.151173 
L 113.762132 277.203072 
L 115.703655 275.254972 
L 117.645178 273.306871 
L 119.5867 271.358771 
L 121.528223 269.41067 
L 123.469746 267.462569 
L 125.411268 265.514469 
L 127.352791 263.566368 
L 129.294313 261.618267 
L 131.235836 259.670167 
L 133.177359 257.722066 
L 135.118881 255.773965 
L 137.060404 253.825865 
L 139.001927 251.877764 
L 140.943449 249.929664 
L 142.884972 247.981563 
L 144.826494 246.033462 
L 146.768017 244.085362 
L 148.70954 242.137261 
L 150.651062 240.18916 
L 152.592585 238.24106 
L 154.534108 236.292959 
L 156.47563 234.344859 
L 158.417153 232.396758 
L 160.358676 230.448657 
L 162.300198 228.500557 
L 164.241721 226.552456 
L 166.183243 224.604355 
L 168.124766 222.656255 
L 170.066289 220.708154 
L 172.007811 218.760054 
L 173.949334 216.811953 
L 175.890857 214.863852 
L 177.832379 212.915752 
L 179.773902 210.967651 
L 181.715424 209.01955 
L 183.656947 207.07145 
L 185.59847 205.123349 
L 187.539992 203.175248 
L 189.481515 201.227148 
L 191.423038 199.279047 
L 193.36456 197.330947 
L 195.306083 195.382846 
L 197.247605 193.434745 
L 199.189128 191.486645 
L 201.130651 189.538544 
L 203.072173 187.590443 
L 205.013696 185.642343 
L 206.955219 183.694242 
L 208.896741 181.746142 
L 210.838264 179.798041 
L 212.779787 177.84994 
L 214.721309 175.90184 
L 216.662832 173.953739 
L 218.604354 172.005638 
L 220.545877 170.057538 
L 222.4874 168.109437 
L 224.428922 166.161336 
L 226.370445 164.213236 
L 228.311968 162.265135 
L 230.25349 160.317035 
L 232.195013 158.368934 
L 234.136535 156.420833 
L 236.078058 154.472733 
L 238.019581 152.524632 
L 239.961103 150.576531 
L 241.902626 148.628431 
L 243.844149 146.68033 
L 245.785671 144.73223 
L 247.727194 142.784129 
L 249.668716 140.836028 
L 251.610239 138.887928 
L 253.551762 136.939827 
L 255.493284 134.991726 
L 257.434807 133.043626 
L 259.37633 131.095525 
L 261.317852 129.147424 
L 263.259375 127.199324 
L 265.200897 125.251223 
L 267.14242 123.303123 
L 269.083943 121.355022 
L 271.025465 119.406921 
L 272.966988 117.458821 
L 274.908511 115.51072 
L 276.850033 113.562619 
L 278.791556 111.614519 
L 280.733079 109.666418 
L 282.674601 107.718318 
L 284.616124 105.770217 
L 286.557646 103.822116 
L 288.499169 101.874016 
L 290.440692 99.925915 
L 292.382214 97.977814 
L 294.323737 96.029714 
L 296.26526 94.081613 
L 298.206782 92.133513 
L 300.148305 90.185412 
L 302.089827 88.237311 
" style="fill:none;stroke:#808080;stroke-linecap:round;stroke-width:2.25;"/>
   </g>
   <g id="patch_3">
    <path d="M 45 315 
L 45 43.2 
" style="fill:none;stroke:#262626;stroke-linecap:square;stroke-linejoin:miter;stroke-width:2;"/>
   </g>
   <g id="patch_4">
    <path d="M 45 315 
L 324 315 
" style="fill:none;stroke:#262626;stroke-linecap:square;stroke-linejoin:miter;stroke-width:2;"/>
   </g>
   <g id="text_19">
    <text style="fill:#262626;font-family:Droid Sans;font-size:12px;font-style:normal;font-weight:normal;text-anchor:middle;" transform="rotate(-0, 184.5, 37.2)" x="184.5" y="37.2">AraC UniRapR Enrichment: 2</text>
   </g>
   <g id="legend_1">
    <g id="line2d_18">
     <path d="M 54.9 57.608281 
L 76.9 57.608281 
" style="fill:none;stroke:#808080;stroke-linecap:round;stroke-width:2.25;"/>
    </g>
    <g id="line2d_19"/>
    <g id="text_20">
     <text style="fill:#262626;font-family:Droid Sans;font-size:11px;font-style:normal;font-weight:normal;text-anchor:start;" transform="rotate(-0, 85.7, 61.458281)" x="85.7" y="61.458281">Pearson's r: 0.84</text>
    </g>
   </g>
  </g>
 </g>
 <defs>
  <clipPath id="p89849be13b">
   <rect height="271.8" width="279" x="45" y="43.2"/>
  </clipPath>
 </defs>
</svg>
