<?xml version="1.0" encoding="utf-8" standalone="no"?>
<!DOCTYPE svg PUBLIC "-//W3C//DTD SVG 1.1//EN"
  "http://www.w3.org/Graphics/SVG/1.1/DTD/svg11.dtd">
<!-- Created with matplotlib (https://matplotlib.org/) -->
<svg height="344.031937pt" version="1.1" viewBox="0 0 554.47275 344.031937" width="554.47275pt" xmlns="http://www.w3.org/2000/svg" xmlns:xlink="http://www.w3.org/1999/xlink">
 <defs>
  <style type="text/css">
*{stroke-linecap:butt;stroke-linejoin:round;}
  </style>
 </defs>
 <g id="figure_1">
  <g id="patch_1">
   <path d="M 0 344.031937 
L 554.47275 344.031937 
L 554.47275 0 
L 0 0 
z
" style="fill:#ffffff;"/>
  </g>
  <g id="axes_1">
   <g id="patch_2">
    <path d="M 137.736375 297.765375 
L 416.736375 297.765375 
L 416.736375 25.965375 
L 137.736375 25.965375 
z
" style="fill:#ffffff;"/>
   </g>
   <g id="matplotlib.axis_1">
    <g id="xtick_1">
     <g id="line2d_1">
      <defs>
       <path d="M 0 0 
L 0 3.5 
" id="m337287c656" style="stroke:#262626;stroke-width:1.5;"/>
      </defs>
      <g>
       <use style="fill:#262626;stroke:#262626;stroke-width:1.5;" x="137.736375" xlink:href="#m337287c656" y="297.765375"/>
      </g>
     </g>
     <g id="text_1">
      <!-- 0 -->
      <defs>
       <path d="M 31.78125 66.40625 
Q 24.171875 66.40625 20.328125 58.90625 
Q 16.5 51.421875 16.5 36.375 
Q 16.5 21.390625 20.328125 13.890625 
Q 24.171875 6.390625 31.78125 6.390625 
Q 39.453125 6.390625 43.28125 13.890625 
Q 47.125 21.390625 47.125 36.375 
Q 47.125 51.421875 43.28125 58.90625 
Q 39.453125 66.40625 31.78125 66.40625 
z
M 31.78125 74.21875 
Q 44.046875 74.21875 50.515625 64.515625 
Q 56.984375 54.828125 56.984375 36.375 
Q 56.984375 17.96875 50.515625 8.265625 
Q 44.046875 -1.421875 31.78125 -1.421875 
Q 19.53125 -1.421875 13.0625 8.265625 
Q 6.59375 17.96875 6.59375 36.375 
Q 6.59375 54.828125 13.0625 64.515625 
Q 19.53125 74.21875 31.78125 74.21875 
z
" id="DejaVuSans-48"/>
      </defs>
      <g style="fill:#262626;" transform="translate(133.282625 315.403187)scale(0.14 -0.14)">
       <use xlink:href="#DejaVuSans-48"/>
      </g>
     </g>
    </g>
    <g id="xtick_2">
     <g id="line2d_2">
      <g>
       <use style="fill:#262626;stroke:#262626;stroke-width:1.5;" x="185.510348" xlink:href="#m337287c656" y="297.765375"/>
      </g>
     </g>
     <g id="text_2">
      <!-- 50 -->
      <defs>
       <path d="M 10.796875 72.90625 
L 49.515625 72.90625 
L 49.515625 64.59375 
L 19.828125 64.59375 
L 19.828125 46.734375 
Q 21.96875 47.46875 24.109375 47.828125 
Q 26.265625 48.1875 28.421875 48.1875 
Q 40.625 48.1875 47.75 41.5 
Q 54.890625 34.8125 54.890625 23.390625 
Q 54.890625 11.625 47.5625 5.09375 
Q 40.234375 -1.421875 26.90625 -1.421875 
Q 22.3125 -1.421875 17.546875 -0.640625 
Q 12.796875 0.140625 7.71875 1.703125 
L 7.71875 11.625 
Q 12.109375 9.234375 16.796875 8.0625 
Q 21.484375 6.890625 26.703125 6.890625 
Q 35.15625 6.890625 40.078125 11.328125 
Q 45.015625 15.765625 45.015625 23.390625 
Q 45.015625 31 40.078125 35.4375 
Q 35.15625 39.890625 26.703125 39.890625 
Q 22.75 39.890625 18.8125 39.015625 
Q 14.890625 38.140625 10.796875 36.28125 
z
" id="DejaVuSans-53"/>
      </defs>
      <g style="fill:#262626;" transform="translate(176.602848 315.403187)scale(0.14 -0.14)">
       <use xlink:href="#DejaVuSans-53"/>
       <use x="63.623047" xlink:href="#DejaVuSans-48"/>
      </g>
     </g>
    </g>
    <g id="xtick_3">
     <g id="line2d_3">
      <g>
       <use style="fill:#262626;stroke:#262626;stroke-width:1.5;" x="233.28432" xlink:href="#m337287c656" y="297.765375"/>
      </g>
     </g>
     <g id="text_3">
      <!-- 100 -->
      <defs>
       <path d="M 12.40625 8.296875 
L 28.515625 8.296875 
L 28.515625 63.921875 
L 10.984375 60.40625 
L 10.984375 69.390625 
L 28.421875 72.90625 
L 38.28125 72.90625 
L 38.28125 8.296875 
L 54.390625 8.296875 
L 54.390625 0 
L 12.40625 0 
z
" id="DejaVuSans-49"/>
      </defs>
      <g style="fill:#262626;" transform="translate(219.92307 315.403187)scale(0.14 -0.14)">
       <use xlink:href="#DejaVuSans-49"/>
       <use x="63.623047" xlink:href="#DejaVuSans-48"/>
       <use x="127.246094" xlink:href="#DejaVuSans-48"/>
      </g>
     </g>
    </g>
    <g id="xtick_4">
     <g id="line2d_4">
      <g>
       <use style="fill:#262626;stroke:#262626;stroke-width:1.5;" x="281.058293" xlink:href="#m337287c656" y="297.765375"/>
      </g>
     </g>
     <g id="text_4">
      <!-- 150 -->
      <g style="fill:#262626;" transform="translate(267.697043 315.403187)scale(0.14 -0.14)">
       <use xlink:href="#DejaVuSans-49"/>
       <use x="63.623047" xlink:href="#DejaVuSans-53"/>
       <use x="127.246094" xlink:href="#DejaVuSans-48"/>
      </g>
     </g>
    </g>
    <g id="xtick_5">
     <g id="line2d_5">
      <g>
       <use style="fill:#262626;stroke:#262626;stroke-width:1.5;" x="328.832265" xlink:href="#m337287c656" y="297.765375"/>
      </g>
     </g>
     <g id="text_5">
      <!-- 200 -->
      <defs>
       <path d="M 19.1875 8.296875 
L 53.609375 8.296875 
L 53.609375 0 
L 7.328125 0 
L 7.328125 8.296875 
Q 12.9375 14.109375 22.625 23.890625 
Q 32.328125 33.6875 34.8125 36.53125 
Q 39.546875 41.84375 41.421875 45.53125 
Q 43.3125 49.21875 43.3125 52.78125 
Q 43.3125 58.59375 39.234375 62.25 
Q 35.15625 65.921875 28.609375 65.921875 
Q 23.96875 65.921875 18.8125 64.3125 
Q 13.671875 62.703125 7.8125 59.421875 
L 7.8125 69.390625 
Q 13.765625 71.78125 18.9375 73 
Q 24.125 74.21875 28.421875 74.21875 
Q 39.75 74.21875 46.484375 68.546875 
Q 53.21875 62.890625 53.21875 53.421875 
Q 53.21875 48.921875 51.53125 44.890625 
Q 49.859375 40.875 45.40625 35.40625 
Q 44.1875 33.984375 37.640625 27.21875 
Q 31.109375 20.453125 19.1875 8.296875 
z
" id="DejaVuSans-50"/>
      </defs>
      <g style="fill:#262626;" transform="translate(315.471015 315.403187)scale(0.14 -0.14)">
       <use xlink:href="#DejaVuSans-50"/>
       <use x="63.623047" xlink:href="#DejaVuSans-48"/>
       <use x="127.246094" xlink:href="#DejaVuSans-48"/>
      </g>
     </g>
    </g>
    <g id="xtick_6">
     <g id="line2d_6">
      <g>
       <use style="fill:#262626;stroke:#262626;stroke-width:1.5;" x="376.606238" xlink:href="#m337287c656" y="297.765375"/>
      </g>
     </g>
     <g id="text_6">
      <!-- 250 -->
      <g style="fill:#262626;" transform="translate(363.244988 315.403187)scale(0.14 -0.14)">
       <use xlink:href="#DejaVuSans-50"/>
       <use x="63.623047" xlink:href="#DejaVuSans-53"/>
       <use x="127.246094" xlink:href="#DejaVuSans-48"/>
      </g>
     </g>
    </g>
    <g id="text_7">
     <!-- Sequence -->
     <defs>
      <path d="M 53.515625 70.515625 
L 53.515625 60.890625 
Q 47.90625 63.578125 42.921875 64.890625 
Q 37.9375 66.21875 33.296875 66.21875 
Q 25.25 66.21875 20.875 63.09375 
Q 16.5 59.96875 16.5 54.203125 
Q 16.5 49.359375 19.40625 46.890625 
Q 22.3125 44.4375 30.421875 42.921875 
L 36.375 41.703125 
Q 47.40625 39.59375 52.65625 34.296875 
Q 57.90625 29 57.90625 20.125 
Q 57.90625 9.515625 50.796875 4.046875 
Q 43.703125 -1.421875 29.984375 -1.421875 
Q 24.8125 -1.421875 18.96875 -0.25 
Q 13.140625 0.921875 6.890625 3.21875 
L 6.890625 13.375 
Q 12.890625 10.015625 18.65625 8.296875 
Q 24.421875 6.59375 29.984375 6.59375 
Q 38.421875 6.59375 43.015625 9.90625 
Q 47.609375 13.234375 47.609375 19.390625 
Q 47.609375 24.75 44.3125 27.78125 
Q 41.015625 30.8125 33.5 32.328125 
L 27.484375 33.5 
Q 16.453125 35.6875 11.515625 40.375 
Q 6.59375 45.0625 6.59375 53.421875 
Q 6.59375 63.09375 13.40625 68.65625 
Q 20.21875 74.21875 32.171875 74.21875 
Q 37.3125 74.21875 42.625 73.28125 
Q 47.953125 72.359375 53.515625 70.515625 
z
" id="DejaVuSans-83"/>
      <path d="M 56.203125 29.59375 
L 56.203125 25.203125 
L 14.890625 25.203125 
Q 15.484375 15.921875 20.484375 11.0625 
Q 25.484375 6.203125 34.421875 6.203125 
Q 39.59375 6.203125 44.453125 7.46875 
Q 49.3125 8.734375 54.109375 11.28125 
L 54.109375 2.78125 
Q 49.265625 0.734375 44.1875 -0.34375 
Q 39.109375 -1.421875 33.890625 -1.421875 
Q 20.796875 -1.421875 13.15625 6.1875 
Q 5.515625 13.8125 5.515625 26.8125 
Q 5.515625 40.234375 12.765625 48.109375 
Q 20.015625 56 32.328125 56 
Q 43.359375 56 49.78125 48.890625 
Q 56.203125 41.796875 56.203125 29.59375 
z
M 47.21875 32.234375 
Q 47.125 39.59375 43.09375 43.984375 
Q 39.0625 48.390625 32.421875 48.390625 
Q 24.90625 48.390625 20.390625 44.140625 
Q 15.875 39.890625 15.1875 32.171875 
z
" id="DejaVuSans-101"/>
      <path d="M 14.796875 27.296875 
Q 14.796875 17.390625 18.875 11.75 
Q 22.953125 6.109375 30.078125 6.109375 
Q 37.203125 6.109375 41.296875 11.75 
Q 45.40625 17.390625 45.40625 27.296875 
Q 45.40625 37.203125 41.296875 42.84375 
Q 37.203125 48.484375 30.078125 48.484375 
Q 22.953125 48.484375 18.875 42.84375 
Q 14.796875 37.203125 14.796875 27.296875 
z
M 45.40625 8.203125 
Q 42.578125 3.328125 38.25 0.953125 
Q 33.9375 -1.421875 27.875 -1.421875 
Q 17.96875 -1.421875 11.734375 6.484375 
Q 5.515625 14.40625 5.515625 27.296875 
Q 5.515625 40.1875 11.734375 48.09375 
Q 17.96875 56 27.875 56 
Q 33.9375 56 38.25 53.625 
Q 42.578125 51.265625 45.40625 46.390625 
L 45.40625 54.6875 
L 54.390625 54.6875 
L 54.390625 -20.796875 
L 45.40625 -20.796875 
z
" id="DejaVuSans-113"/>
      <path d="M 8.5 21.578125 
L 8.5 54.6875 
L 17.484375 54.6875 
L 17.484375 21.921875 
Q 17.484375 14.15625 20.5 10.265625 
Q 23.53125 6.390625 29.59375 6.390625 
Q 36.859375 6.390625 41.078125 11.03125 
Q 45.3125 15.671875 45.3125 23.6875 
L 45.3125 54.6875 
L 54.296875 54.6875 
L 54.296875 0 
L 45.3125 0 
L 45.3125 8.40625 
Q 42.046875 3.421875 37.71875 1 
Q 33.40625 -1.421875 27.6875 -1.421875 
Q 18.265625 -1.421875 13.375 4.4375 
Q 8.5 10.296875 8.5 21.578125 
z
M 31.109375 56 
z
" id="DejaVuSans-117"/>
      <path d="M 54.890625 33.015625 
L 54.890625 0 
L 45.90625 0 
L 45.90625 32.71875 
Q 45.90625 40.484375 42.875 44.328125 
Q 39.84375 48.1875 33.796875 48.1875 
Q 26.515625 48.1875 22.3125 43.546875 
Q 18.109375 38.921875 18.109375 30.90625 
L 18.109375 0 
L 9.078125 0 
L 9.078125 54.6875 
L 18.109375 54.6875 
L 18.109375 46.1875 
Q 21.34375 51.125 25.703125 53.5625 
Q 30.078125 56 35.796875 56 
Q 45.21875 56 50.046875 50.171875 
Q 54.890625 44.34375 54.890625 33.015625 
z
" id="DejaVuSans-110"/>
      <path d="M 48.78125 52.59375 
L 48.78125 44.1875 
Q 44.96875 46.296875 41.140625 47.34375 
Q 37.3125 48.390625 33.40625 48.390625 
Q 24.65625 48.390625 19.8125 42.84375 
Q 14.984375 37.3125 14.984375 27.296875 
Q 14.984375 17.28125 19.8125 11.734375 
Q 24.65625 6.203125 33.40625 6.203125 
Q 37.3125 6.203125 41.140625 7.25 
Q 44.96875 8.296875 48.78125 10.40625 
L 48.78125 2.09375 
Q 45.015625 0.34375 40.984375 -0.53125 
Q 36.96875 -1.421875 32.421875 -1.421875 
Q 20.0625 -1.421875 12.78125 6.34375 
Q 5.515625 14.109375 5.515625 27.296875 
Q 5.515625 40.671875 12.859375 48.328125 
Q 20.21875 56 33.015625 56 
Q 37.15625 56 41.109375 55.140625 
Q 45.0625 54.296875 48.78125 52.59375 
z
" id="DejaVuSans-99"/>
     </defs>
     <g style="fill:#262626;" transform="translate(240.239109 333.712406)scale(0.15 -0.15)">
      <use xlink:href="#DejaVuSans-83"/>
      <use x="63.476562" xlink:href="#DejaVuSans-101"/>
      <use x="125" xlink:href="#DejaVuSans-113"/>
      <use x="188.476562" xlink:href="#DejaVuSans-117"/>
      <use x="251.855469" xlink:href="#DejaVuSans-101"/>
      <use x="313.378906" xlink:href="#DejaVuSans-110"/>
      <use x="376.757812" xlink:href="#DejaVuSans-99"/>
      <use x="431.738281" xlink:href="#DejaVuSans-101"/>
     </g>
    </g>
   </g>
   <g id="matplotlib.axis_2">
    <g id="ytick_1">
     <g id="line2d_7">
      <defs>
       <path d="M 0 0 
L -3.5 0 
" id="m2edcc9184a" style="stroke:#262626;stroke-width:1.5;"/>
      </defs>
      <g>
       <use style="fill:#262626;stroke:#262626;stroke-width:1.5;" x="137.736375" xlink:href="#m2edcc9184a" y="266.125794"/>
      </g>
     </g>
     <g id="text_8">
      <!-- 50 -->
      <g style="fill:#262626;" transform="translate(112.921375 271.4447)scale(0.14 -0.14)">
       <use xlink:href="#DejaVuSans-53"/>
       <use x="63.623047" xlink:href="#DejaVuSans-48"/>
      </g>
     </g>
    </g>
    <g id="ytick_2">
     <g id="line2d_8">
      <g>
       <use style="fill:#262626;stroke:#262626;stroke-width:1.5;" x="137.736375" xlink:href="#m2edcc9184a" y="227.957125"/>
      </g>
     </g>
     <g id="text_9">
      <!-- 100 -->
      <g style="fill:#262626;" transform="translate(104.013875 233.276031)scale(0.14 -0.14)">
       <use xlink:href="#DejaVuSans-49"/>
       <use x="63.623047" xlink:href="#DejaVuSans-48"/>
       <use x="127.246094" xlink:href="#DejaVuSans-48"/>
      </g>
     </g>
    </g>
    <g id="ytick_3">
     <g id="line2d_9">
      <g>
       <use style="fill:#262626;stroke:#262626;stroke-width:1.5;" x="137.736375" xlink:href="#m2edcc9184a" y="189.788455"/>
      </g>
     </g>
     <g id="text_10">
      <!-- 150 -->
      <g style="fill:#262626;" transform="translate(104.013875 195.107362)scale(0.14 -0.14)">
       <use xlink:href="#DejaVuSans-49"/>
       <use x="63.623047" xlink:href="#DejaVuSans-53"/>
       <use x="127.246094" xlink:href="#DejaVuSans-48"/>
      </g>
     </g>
    </g>
    <g id="ytick_4">
     <g id="line2d_10">
      <g>
       <use style="fill:#262626;stroke:#262626;stroke-width:1.5;" x="137.736375" xlink:href="#m2edcc9184a" y="151.619786"/>
      </g>
     </g>
     <g id="text_11">
      <!-- 200 -->
      <g style="fill:#262626;" transform="translate(104.013875 156.938692)scale(0.14 -0.14)">
       <use xlink:href="#DejaVuSans-50"/>
       <use x="63.623047" xlink:href="#DejaVuSans-48"/>
       <use x="127.246094" xlink:href="#DejaVuSans-48"/>
      </g>
     </g>
    </g>
    <g id="ytick_5">
     <g id="line2d_11">
      <g>
       <use style="fill:#262626;stroke:#262626;stroke-width:1.5;" x="137.736375" xlink:href="#m2edcc9184a" y="113.451116"/>
      </g>
     </g>
     <g id="text_12">
      <!-- 250 -->
      <g style="fill:#262626;" transform="translate(104.013875 118.770023)scale(0.14 -0.14)">
       <use xlink:href="#DejaVuSans-50"/>
       <use x="63.623047" xlink:href="#DejaVuSans-53"/>
       <use x="127.246094" xlink:href="#DejaVuSans-48"/>
      </g>
     </g>
    </g>
    <g id="ytick_6">
     <g id="line2d_12">
      <g>
       <use style="fill:#262626;stroke:#262626;stroke-width:1.5;" x="137.736375" xlink:href="#m2edcc9184a" y="75.282447"/>
      </g>
     </g>
     <g id="text_13">
      <!-- 300 -->
      <defs>
       <path d="M 40.578125 39.3125 
Q 47.65625 37.796875 51.625 33 
Q 55.609375 28.21875 55.609375 21.1875 
Q 55.609375 10.40625 48.1875 4.484375 
Q 40.765625 -1.421875 27.09375 -1.421875 
Q 22.515625 -1.421875 17.65625 -0.515625 
Q 12.796875 0.390625 7.625 2.203125 
L 7.625 11.71875 
Q 11.71875 9.328125 16.59375 8.109375 
Q 21.484375 6.890625 26.8125 6.890625 
Q 36.078125 6.890625 40.9375 10.546875 
Q 45.796875 14.203125 45.796875 21.1875 
Q 45.796875 27.640625 41.28125 31.265625 
Q 36.765625 34.90625 28.71875 34.90625 
L 20.21875 34.90625 
L 20.21875 43.015625 
L 29.109375 43.015625 
Q 36.375 43.015625 40.234375 45.921875 
Q 44.09375 48.828125 44.09375 54.296875 
Q 44.09375 59.90625 40.109375 62.90625 
Q 36.140625 65.921875 28.71875 65.921875 
Q 24.65625 65.921875 20.015625 65.03125 
Q 15.375 64.15625 9.8125 62.3125 
L 9.8125 71.09375 
Q 15.4375 72.65625 20.34375 73.4375 
Q 25.25 74.21875 29.59375 74.21875 
Q 40.828125 74.21875 47.359375 69.109375 
Q 53.90625 64.015625 53.90625 55.328125 
Q 53.90625 49.265625 50.4375 45.09375 
Q 46.96875 40.921875 40.578125 39.3125 
z
" id="DejaVuSans-51"/>
      </defs>
      <g style="fill:#262626;" transform="translate(104.013875 80.601353)scale(0.14 -0.14)">
       <use xlink:href="#DejaVuSans-51"/>
       <use x="63.623047" xlink:href="#DejaVuSans-48"/>
       <use x="127.246094" xlink:href="#DejaVuSans-48"/>
      </g>
     </g>
    </g>
    <g id="ytick_7">
     <g id="line2d_13">
      <g>
       <use style="fill:#262626;stroke:#262626;stroke-width:1.5;" x="137.736375" xlink:href="#m2edcc9184a" y="37.113777"/>
      </g>
     </g>
     <g id="text_14">
      <!-- 350 -->
      <g style="fill:#262626;" transform="translate(104.013875 42.432684)scale(0.14 -0.14)">
       <use xlink:href="#DejaVuSans-51"/>
       <use x="63.623047" xlink:href="#DejaVuSans-53"/>
       <use x="127.246094" xlink:href="#DejaVuSans-48"/>
      </g>
     </g>
    </g>
    <g id="text_15">
     <!-- Spearman's r -->
     <defs>
      <path d="M 18.109375 8.203125 
L 18.109375 -20.796875 
L 9.078125 -20.796875 
L 9.078125 54.6875 
L 18.109375 54.6875 
L 18.109375 46.390625 
Q 20.953125 51.265625 25.265625 53.625 
Q 29.59375 56 35.59375 56 
Q 45.5625 56 51.78125 48.09375 
Q 58.015625 40.1875 58.015625 27.296875 
Q 58.015625 14.40625 51.78125 6.484375 
Q 45.5625 -1.421875 35.59375 -1.421875 
Q 29.59375 -1.421875 25.265625 0.953125 
Q 20.953125 3.328125 18.109375 8.203125 
z
M 48.6875 27.296875 
Q 48.6875 37.203125 44.609375 42.84375 
Q 40.53125 48.484375 33.40625 48.484375 
Q 26.265625 48.484375 22.1875 42.84375 
Q 18.109375 37.203125 18.109375 27.296875 
Q 18.109375 17.390625 22.1875 11.75 
Q 26.265625 6.109375 33.40625 6.109375 
Q 40.53125 6.109375 44.609375 11.75 
Q 48.6875 17.390625 48.6875 27.296875 
z
" id="DejaVuSans-112"/>
      <path d="M 34.28125 27.484375 
Q 23.390625 27.484375 19.1875 25 
Q 14.984375 22.515625 14.984375 16.5 
Q 14.984375 11.71875 18.140625 8.90625 
Q 21.296875 6.109375 26.703125 6.109375 
Q 34.1875 6.109375 38.703125 11.40625 
Q 43.21875 16.703125 43.21875 25.484375 
L 43.21875 27.484375 
z
M 52.203125 31.203125 
L 52.203125 0 
L 43.21875 0 
L 43.21875 8.296875 
Q 40.140625 3.328125 35.546875 0.953125 
Q 30.953125 -1.421875 24.3125 -1.421875 
Q 15.921875 -1.421875 10.953125 3.296875 
Q 6 8.015625 6 15.921875 
Q 6 25.140625 12.171875 29.828125 
Q 18.359375 34.515625 30.609375 34.515625 
L 43.21875 34.515625 
L 43.21875 35.40625 
Q 43.21875 41.609375 39.140625 45 
Q 35.0625 48.390625 27.6875 48.390625 
Q 23 48.390625 18.546875 47.265625 
Q 14.109375 46.140625 10.015625 43.890625 
L 10.015625 52.203125 
Q 14.9375 54.109375 19.578125 55.046875 
Q 24.21875 56 28.609375 56 
Q 40.484375 56 46.34375 49.84375 
Q 52.203125 43.703125 52.203125 31.203125 
z
" id="DejaVuSans-97"/>
      <path d="M 41.109375 46.296875 
Q 39.59375 47.171875 37.8125 47.578125 
Q 36.03125 48 33.890625 48 
Q 26.265625 48 22.1875 43.046875 
Q 18.109375 38.09375 18.109375 28.8125 
L 18.109375 0 
L 9.078125 0 
L 9.078125 54.6875 
L 18.109375 54.6875 
L 18.109375 46.1875 
Q 20.953125 51.171875 25.484375 53.578125 
Q 30.03125 56 36.53125 56 
Q 37.453125 56 38.578125 55.875 
Q 39.703125 55.765625 41.0625 55.515625 
z
" id="DejaVuSans-114"/>
      <path d="M 52 44.1875 
Q 55.375 50.25 60.0625 53.125 
Q 64.75 56 71.09375 56 
Q 79.640625 56 84.28125 50.015625 
Q 88.921875 44.046875 88.921875 33.015625 
L 88.921875 0 
L 79.890625 0 
L 79.890625 32.71875 
Q 79.890625 40.578125 77.09375 44.375 
Q 74.3125 48.1875 68.609375 48.1875 
Q 61.625 48.1875 57.5625 43.546875 
Q 53.515625 38.921875 53.515625 30.90625 
L 53.515625 0 
L 44.484375 0 
L 44.484375 32.71875 
Q 44.484375 40.625 41.703125 44.40625 
Q 38.921875 48.1875 33.109375 48.1875 
Q 26.21875 48.1875 22.15625 43.53125 
Q 18.109375 38.875 18.109375 30.90625 
L 18.109375 0 
L 9.078125 0 
L 9.078125 54.6875 
L 18.109375 54.6875 
L 18.109375 46.1875 
Q 21.1875 51.21875 25.484375 53.609375 
Q 29.78125 56 35.6875 56 
Q 41.65625 56 45.828125 52.96875 
Q 50 49.953125 52 44.1875 
z
" id="DejaVuSans-109"/>
      <path d="M 17.921875 72.90625 
L 17.921875 45.796875 
L 9.625 45.796875 
L 9.625 72.90625 
z
" id="DejaVuSans-39"/>
      <path d="M 44.28125 53.078125 
L 44.28125 44.578125 
Q 40.484375 46.53125 36.375 47.5 
Q 32.28125 48.484375 27.875 48.484375 
Q 21.1875 48.484375 17.84375 46.4375 
Q 14.5 44.390625 14.5 40.28125 
Q 14.5 37.15625 16.890625 35.375 
Q 19.28125 33.59375 26.515625 31.984375 
L 29.59375 31.296875 
Q 39.15625 29.25 43.1875 25.515625 
Q 47.21875 21.78125 47.21875 15.09375 
Q 47.21875 7.46875 41.1875 3.015625 
Q 35.15625 -1.421875 24.609375 -1.421875 
Q 20.21875 -1.421875 15.453125 -0.5625 
Q 10.6875 0.296875 5.421875 2 
L 5.421875 11.28125 
Q 10.40625 8.6875 15.234375 7.390625 
Q 20.0625 6.109375 24.8125 6.109375 
Q 31.15625 6.109375 34.5625 8.28125 
Q 37.984375 10.453125 37.984375 14.40625 
Q 37.984375 18.0625 35.515625 20.015625 
Q 33.0625 21.96875 24.703125 23.78125 
L 21.578125 24.515625 
Q 13.234375 26.265625 9.515625 29.90625 
Q 5.8125 33.546875 5.8125 39.890625 
Q 5.8125 47.609375 11.28125 51.796875 
Q 16.75 56 26.8125 56 
Q 31.78125 56 36.171875 55.265625 
Q 40.578125 54.546875 44.28125 53.078125 
z
" id="DejaVuSans-115"/>
      <path id="DejaVuSans-32"/>
     </defs>
     <g style="fill:#262626;" transform="translate(96.894344 211.640766)rotate(-90)scale(0.15 -0.15)">
      <use xlink:href="#DejaVuSans-83"/>
      <use x="63.476562" xlink:href="#DejaVuSans-112"/>
      <use x="126.953125" xlink:href="#DejaVuSans-101"/>
      <use x="188.476562" xlink:href="#DejaVuSans-97"/>
      <use x="249.755859" xlink:href="#DejaVuSans-114"/>
      <use x="289.119141" xlink:href="#DejaVuSans-109"/>
      <use x="386.53125" xlink:href="#DejaVuSans-97"/>
      <use x="447.810547" xlink:href="#DejaVuSans-110"/>
      <use x="511.189453" xlink:href="#DejaVuSans-39"/>
      <use x="538.679688" xlink:href="#DejaVuSans-115"/>
      <use x="590.779297" xlink:href="#DejaVuSans-32"/>
      <use x="622.566406" xlink:href="#DejaVuSans-114"/>
     </g>
    </g>
   </g>
   <g id="line2d_14">
    <path clip-path="url(#p4c42e54d33)" d="M 137.736375 273.068073 
L 138.691854 276.018504 
L 139.647334 272.466006 
L 140.602813 258.753203 
L 141.558293 272.65438 
L 142.513772 283.523291 
L 143.469252 276.146357 
L 144.424731 281.578539 
L 145.380211 281.600858 
L 146.33569 280.953763 
L 147.29117 281.781045 
L 148.246649 275.499221 
L 149.202128 276.354288 
L 150.157608 39.629988 
L 151.113087 268.684943 
L 152.068567 271.58805 
L 153.024046 272.694013 
L 153.979526 282.031693 
L 154.935005 285.41083 
L 155.890485 273.9264 
L 156.845964 274.8449 
L 157.801443 271.948593 
L 158.756923 264.72193 
L 159.712402 279.760505 
L 160.667882 277.765992 
L 161.623361 267.542789 
L 162.578841 272.875573 
L 163.53432 254.648397 
L 164.4898 270.625211 
L 165.445279 254.328201 
L 166.400759 273.334685 
L 167.356238 278.644487 
L 168.311717 279.480915 
L 169.267197 275.008988 
L 170.222676 276.362742 
L 171.178156 272.483485 
L 172.133635 284.317516 
L 173.089115 278.315202 
L 174.044594 274.778244 
L 175.000074 279.07691 
L 175.955553 275.560915 
L 176.911033 273.79272 
L 177.866512 277.772463 
L 178.821991 268.605526 
L 179.777471 276.24168 
L 180.73295 273.799475 
L 181.68843 262.451868 
L 182.643909 256.260868 
L 183.599389 245.817448 
L 184.554868 250.875839 
L 185.510348 261.706435 
L 186.465827 266.750814 
L 187.421307 272.538592 
L 188.376786 256.121277 
L 189.332265 260.68422 
L 190.287745 275.095775 
L 191.243224 272.421499 
L 192.198704 271.676797 
L 193.154183 269.542279 
L 194.109663 276.855572 
L 195.065142 277.086325 
L 196.020622 272.742708 
L 196.976101 276.526454 
L 197.93158 281.11617 
L 198.88706 281.198269 
L 199.842539 260.273182 
L 200.798019 260.099162 
L 201.753498 266.821439 
L 202.708978 261.643515 
L 203.664457 276.070088 
L 206.530896 258.282411 
L 207.486375 262.73716 
L 208.441854 265.738685 
L 209.397334 272.078475 
L 210.352813 274.233777 
L 211.308293 276.846624 
L 212.263772 282.509154 
L 213.219252 267.823218 
L 214.174731 277.430956 
L 215.130211 262.956535 
L 216.08569 274.002876 
L 217.04117 267.571045 
L 217.996649 270.577203 
L 218.952128 270.994685 
L 219.907608 273.187796 
L 220.863087 276.334609 
L 221.818567 279.892028 
L 222.774046 271.124759 
L 223.729526 269.101772 
L 224.685005 278.758977 
L 225.640485 280.192362 
L 226.595964 281.288565 
L 227.551443 273.620356 
L 228.506923 260.986431 
L 229.462402 270.169372 
L 230.417882 273.985732 
L 231.373361 265.845208 
L 232.328841 280.432088 
L 233.28432 265.358542 
L 234.2398 271.226681 
L 235.195279 281.133587 
L 236.150759 271.242193 
L 237.106238 269.351034 
L 238.061717 273.641978 
L 239.017197 266.429968 
L 239.972676 263.219149 
L 240.928156 262.581695 
L 241.883635 267.703024 
L 242.839115 275.113029 
L 243.794594 42.731123 
L 244.750074 269.338317 
L 245.705553 266.328824 
L 246.661033 264.669883 
L 247.616512 272.676695 
L 248.571991 265.00028 
L 249.527471 268.613269 
L 250.48295 273.896636 
L 251.43843 266.814381 
L 252.393909 267.284573 
L 253.349389 262.29306 
L 254.304868 263.211071 
L 255.260348 275.126745 
L 256.215827 283.104992 
L 257.171307 266.159149 
L 258.126786 275.933714 
L 259.082265 283.365326 
L 260.037745 279.003308 
L 260.993224 278.809629 
L 261.948704 40.367992 
L 262.904183 273.969186 
L 263.859663 272.740318 
L 264.815142 260.069517 
L 265.770622 259.308171 
L 266.726101 273.552305 
L 267.68158 274.188329 
L 268.63706 268.466703 
L 269.592539 274.037695 
L 270.548019 273.826514 
L 271.503498 274.631378 
L 272.458978 264.121112 
L 273.414457 278.326851 
L 274.369937 267.493404 
L 275.325416 263.582126 
L 276.280896 283.033623 
L 277.236375 279.63907 
L 278.191854 42.672626 
L 279.147334 273.989099 
L 280.102813 276.490502 
L 281.058293 274.773168 
L 282.013772 271.621938 
L 282.969252 279.734341 
L 283.924731 276.107566 
L 284.880211 261.534191 
L 285.83569 281.725941 
L 286.79117 281.189224 
L 287.746649 266.509776 
L 288.702128 275.188294 
L 289.657608 282.79412 
L 290.613087 265.148438 
L 291.568567 283.447874 
L 292.524046 284.881696 
L 293.479526 272.899664 
L 294.435005 274.7999 
L 296.345964 281.635468 
L 298.256923 271.702662 
L 299.212402 42.291661 
L 300.167882 277.863155 
L 301.123361 263.414701 
L 302.078841 269.417455 
L 303.03432 270.141699 
L 303.9898 278.301743 
L 304.945279 277.498408 
L 305.900759 274.079375 
L 306.856238 271.270341 
L 307.811717 278.607886 
L 308.767197 269.399851 
L 309.722676 271.71977 
L 310.678156 278.893906 
L 311.633635 277.07175 
L 312.589115 263.761627 
L 313.544594 270.450154 
L 314.500074 268.354622 
L 315.455553 38.31992 
L 316.411033 255.245743 
L 317.366512 264.947004 
L 318.321991 273.223792 
L 319.277471 275.084456 
L 320.23295 268.780583 
L 321.18843 39.441242 
L 322.143909 259.210798 
L 323.099389 257.263043 
L 324.054868 257.709252 
L 325.010348 266.801308 
L 325.965827 266.997248 
L 326.921307 43.723056 
L 327.876786 279.786079 
L 328.832265 273.353986 
L 329.787745 264.983833 
L 330.743224 274.645737 
L 331.698704 279.890157 
L 332.654183 279.677769 
L 333.609663 275.271237 
L 334.565142 42.735363 
L 335.520622 259.367844 
L 336.476101 38.6371 
L 337.43158 272.691873 
L 338.38706 273.853817 
L 339.342539 41.034639 
L 340.298019 262.525464 
L 341.253498 272.15703 
L 342.208978 265.205101 
L 343.164457 275.889448 
L 344.119937 279.462135 
L 345.075416 276.64419 
L 346.030896 278.95309 
L 346.986375 278.887436 
L 347.941854 280.007248 
L 348.897334 40.864157 
L 349.852813 272.021726 
L 350.808293 277.736915 
L 351.763772 44.329459 
L 352.719252 282.506297 
L 353.674731 266.442001 
L 354.630211 279.048588 
L 355.58569 279.270986 
L 356.54117 258.425983 
L 357.496649 277.269187 
L 358.452128 284.518217 
L 359.407608 43.392202 
L 360.363087 280.229917 
L 361.318567 281.175765 
L 363.229526 260.469148 
L 364.185005 260.789003 
L 365.140485 272.421103 
L 366.095964 46.846066 
L 367.051443 280.706254 
L 368.006923 276.412849 
L 368.962402 272.755973 
L 369.917882 262.579674 
L 370.873361 280.868245 
L 371.828841 275.877008 
L 372.78432 272.192383 
L 373.7398 264.964293 
L 374.695279 271.368579 
L 375.650759 251.392802 
L 376.606238 252.532865 
L 377.561717 265.568282 
L 378.517197 267.976211 
L 379.472676 275.375698 
L 380.428156 281.651516 
L 381.383635 279.316839 
L 382.339115 280.493854 
L 383.294594 274.70657 
L 384.250074 277.57258 
L 385.205553 276.317698 
L 386.161033 272.239496 
L 387.116512 42.480268 
L 388.071991 277.087778 
L 389.027471 274.882649 
L 389.98295 271.045599 
L 390.93843 273.090417 
L 391.893909 267.925399 
L 392.849389 272.291109 
L 393.804868 269.956729 
L 394.760348 277.862835 
L 395.715827 273.319263 
L 396.671307 45.116292 
L 397.626786 269.978849 
L 398.582265 40.860616 
L 399.537745 275.647373 
L 400.493224 271.502416 
L 401.448704 276.741776 
L 402.404183 273.255606 
L 403.359663 270.301416 
L 404.315142 264.630393 
L 405.270622 266.211752 
L 406.226101 276.085321 
L 408.13706 276.339373 
L 409.092539 279.358874 
L 410.048019 271.000876 
L 411.003498 272.743885 
L 411.958978 267.66808 
L 412.914457 263.795657 
L 413.869937 282.021562 
L 414.825416 277.850231 
L 415.780896 47.146612 
L 415.780896 47.146612 
" style="fill:none;stroke:#174950;stroke-linecap:round;stroke-width:1.5;"/>
   </g>
   <g id="patch_3">
    <path d="M 137.736375 297.765375 
L 137.736375 25.965375 
" style="fill:none;stroke:#262626;stroke-linecap:square;stroke-linejoin:miter;stroke-width:2;"/>
   </g>
   <g id="patch_4">
    <path d="M 137.736375 297.765375 
L 416.736375 297.765375 
" style="fill:none;stroke:#262626;stroke-linecap:square;stroke-linejoin:miter;stroke-width:2;"/>
   </g>
   <g id="text_16">
    <!-- Correlation between insertion score and AraC_PDZ_RMSD_insert -->
    <defs>
     <path d="M 64.40625 67.28125 
L 64.40625 56.890625 
Q 59.421875 61.53125 53.78125 63.8125 
Q 48.140625 66.109375 41.796875 66.109375 
Q 29.296875 66.109375 22.65625 58.46875 
Q 16.015625 50.828125 16.015625 36.375 
Q 16.015625 21.96875 22.65625 14.328125 
Q 29.296875 6.6875 41.796875 6.6875 
Q 48.140625 6.6875 53.78125 8.984375 
Q 59.421875 11.28125 64.40625 15.921875 
L 64.40625 5.609375 
Q 59.234375 2.09375 53.4375 0.328125 
Q 47.65625 -1.421875 41.21875 -1.421875 
Q 24.65625 -1.421875 15.125 8.703125 
Q 5.609375 18.84375 5.609375 36.375 
Q 5.609375 53.953125 15.125 64.078125 
Q 24.65625 74.21875 41.21875 74.21875 
Q 47.75 74.21875 53.53125 72.484375 
Q 59.328125 70.75 64.40625 67.28125 
z
" id="DejaVuSans-67"/>
     <path d="M 30.609375 48.390625 
Q 23.390625 48.390625 19.1875 42.75 
Q 14.984375 37.109375 14.984375 27.296875 
Q 14.984375 17.484375 19.15625 11.84375 
Q 23.34375 6.203125 30.609375 6.203125 
Q 37.796875 6.203125 41.984375 11.859375 
Q 46.1875 17.53125 46.1875 27.296875 
Q 46.1875 37.015625 41.984375 42.703125 
Q 37.796875 48.390625 30.609375 48.390625 
z
M 30.609375 56 
Q 42.328125 56 49.015625 48.375 
Q 55.71875 40.765625 55.71875 27.296875 
Q 55.71875 13.875 49.015625 6.21875 
Q 42.328125 -1.421875 30.609375 -1.421875 
Q 18.84375 -1.421875 12.171875 6.21875 
Q 5.515625 13.875 5.515625 27.296875 
Q 5.515625 40.765625 12.171875 48.375 
Q 18.84375 56 30.609375 56 
z
" id="DejaVuSans-111"/>
     <path d="M 9.421875 75.984375 
L 18.40625 75.984375 
L 18.40625 0 
L 9.421875 0 
z
" id="DejaVuSans-108"/>
     <path d="M 18.3125 70.21875 
L 18.3125 54.6875 
L 36.8125 54.6875 
L 36.8125 47.703125 
L 18.3125 47.703125 
L 18.3125 18.015625 
Q 18.3125 11.328125 20.140625 9.421875 
Q 21.96875 7.515625 27.59375 7.515625 
L 36.8125 7.515625 
L 36.8125 0 
L 27.59375 0 
Q 17.1875 0 13.234375 3.875 
Q 9.28125 7.765625 9.28125 18.015625 
L 9.28125 47.703125 
L 2.6875 47.703125 
L 2.6875 54.6875 
L 9.28125 54.6875 
L 9.28125 70.21875 
z
" id="DejaVuSans-116"/>
     <path d="M 9.421875 54.6875 
L 18.40625 54.6875 
L 18.40625 0 
L 9.421875 0 
z
M 9.421875 75.984375 
L 18.40625 75.984375 
L 18.40625 64.59375 
L 9.421875 64.59375 
z
" id="DejaVuSans-105"/>
     <path d="M 48.6875 27.296875 
Q 48.6875 37.203125 44.609375 42.84375 
Q 40.53125 48.484375 33.40625 48.484375 
Q 26.265625 48.484375 22.1875 42.84375 
Q 18.109375 37.203125 18.109375 27.296875 
Q 18.109375 17.390625 22.1875 11.75 
Q 26.265625 6.109375 33.40625 6.109375 
Q 40.53125 6.109375 44.609375 11.75 
Q 48.6875 17.390625 48.6875 27.296875 
z
M 18.109375 46.390625 
Q 20.953125 51.265625 25.265625 53.625 
Q 29.59375 56 35.59375 56 
Q 45.5625 56 51.78125 48.09375 
Q 58.015625 40.1875 58.015625 27.296875 
Q 58.015625 14.40625 51.78125 6.484375 
Q 45.5625 -1.421875 35.59375 -1.421875 
Q 29.59375 -1.421875 25.265625 0.953125 
Q 20.953125 3.328125 18.109375 8.203125 
L 18.109375 0 
L 9.078125 0 
L 9.078125 75.984375 
L 18.109375 75.984375 
z
" id="DejaVuSans-98"/>
     <path d="M 4.203125 54.6875 
L 13.1875 54.6875 
L 24.421875 12.015625 
L 35.59375 54.6875 
L 46.1875 54.6875 
L 57.421875 12.015625 
L 68.609375 54.6875 
L 77.59375 54.6875 
L 63.28125 0 
L 52.6875 0 
L 40.921875 44.828125 
L 29.109375 0 
L 18.5 0 
z
" id="DejaVuSans-119"/>
     <path d="M 45.40625 46.390625 
L 45.40625 75.984375 
L 54.390625 75.984375 
L 54.390625 0 
L 45.40625 0 
L 45.40625 8.203125 
Q 42.578125 3.328125 38.25 0.953125 
Q 33.9375 -1.421875 27.875 -1.421875 
Q 17.96875 -1.421875 11.734375 6.484375 
Q 5.515625 14.40625 5.515625 27.296875 
Q 5.515625 40.1875 11.734375 48.09375 
Q 17.96875 56 27.875 56 
Q 33.9375 56 38.25 53.625 
Q 42.578125 51.265625 45.40625 46.390625 
z
M 14.796875 27.296875 
Q 14.796875 17.390625 18.875 11.75 
Q 22.953125 6.109375 30.078125 6.109375 
Q 37.203125 6.109375 41.296875 11.75 
Q 45.40625 17.390625 45.40625 27.296875 
Q 45.40625 37.203125 41.296875 42.84375 
Q 37.203125 48.484375 30.078125 48.484375 
Q 22.953125 48.484375 18.875 42.84375 
Q 14.796875 37.203125 14.796875 27.296875 
z
" id="DejaVuSans-100"/>
     <path d="M 34.1875 63.1875 
L 20.796875 26.90625 
L 47.609375 26.90625 
z
M 28.609375 72.90625 
L 39.796875 72.90625 
L 67.578125 0 
L 57.328125 0 
L 50.6875 18.703125 
L 17.828125 18.703125 
L 11.1875 0 
L 0.78125 0 
z
" id="DejaVuSans-65"/>
     <path d="M 50.984375 -16.609375 
L 50.984375 -23.578125 
L -0.984375 -23.578125 
L -0.984375 -16.609375 
z
" id="DejaVuSans-95"/>
     <path d="M 19.671875 64.796875 
L 19.671875 37.40625 
L 32.078125 37.40625 
Q 38.96875 37.40625 42.71875 40.96875 
Q 46.484375 44.53125 46.484375 51.125 
Q 46.484375 57.671875 42.71875 61.234375 
Q 38.96875 64.796875 32.078125 64.796875 
z
M 9.8125 72.90625 
L 32.078125 72.90625 
Q 44.34375 72.90625 50.609375 67.359375 
Q 56.890625 61.8125 56.890625 51.125 
Q 56.890625 40.328125 50.609375 34.8125 
Q 44.34375 29.296875 32.078125 29.296875 
L 19.671875 29.296875 
L 19.671875 0 
L 9.8125 0 
z
" id="DejaVuSans-80"/>
     <path d="M 19.671875 64.796875 
L 19.671875 8.109375 
L 31.59375 8.109375 
Q 46.6875 8.109375 53.6875 14.9375 
Q 60.6875 21.78125 60.6875 36.53125 
Q 60.6875 51.171875 53.6875 57.984375 
Q 46.6875 64.796875 31.59375 64.796875 
z
M 9.8125 72.90625 
L 30.078125 72.90625 
Q 51.265625 72.90625 61.171875 64.09375 
Q 71.09375 55.28125 71.09375 36.53125 
Q 71.09375 17.671875 61.125 8.828125 
Q 51.171875 0 30.078125 0 
L 9.8125 0 
z
" id="DejaVuSans-68"/>
     <path d="M 5.609375 72.90625 
L 62.890625 72.90625 
L 62.890625 65.375 
L 16.796875 8.296875 
L 64.015625 8.296875 
L 64.015625 0 
L 4.5 0 
L 4.5 7.515625 
L 50.59375 64.59375 
L 5.609375 64.59375 
z
" id="DejaVuSans-90"/>
     <path d="M 44.390625 34.1875 
Q 47.5625 33.109375 50.5625 29.59375 
Q 53.5625 26.078125 56.59375 19.921875 
L 66.609375 0 
L 56 0 
L 46.6875 18.703125 
Q 43.0625 26.03125 39.671875 28.421875 
Q 36.28125 30.8125 30.421875 30.8125 
L 19.671875 30.8125 
L 19.671875 0 
L 9.8125 0 
L 9.8125 72.90625 
L 32.078125 72.90625 
Q 44.578125 72.90625 50.734375 67.671875 
Q 56.890625 62.453125 56.890625 51.90625 
Q 56.890625 45.015625 53.6875 40.46875 
Q 50.484375 35.9375 44.390625 34.1875 
z
M 19.671875 64.796875 
L 19.671875 38.921875 
L 32.078125 38.921875 
Q 39.203125 38.921875 42.84375 42.21875 
Q 46.484375 45.515625 46.484375 51.90625 
Q 46.484375 58.296875 42.84375 61.546875 
Q 39.203125 64.796875 32.078125 64.796875 
z
" id="DejaVuSans-82"/>
     <path d="M 9.8125 72.90625 
L 24.515625 72.90625 
L 43.109375 23.296875 
L 61.8125 72.90625 
L 76.515625 72.90625 
L 76.515625 0 
L 66.890625 0 
L 66.890625 64.015625 
L 48.09375 14.015625 
L 38.1875 14.015625 
L 19.390625 64.015625 
L 19.390625 0 
L 9.8125 0 
z
" id="DejaVuSans-77"/>
    </defs>
    <g style="fill:#262626;" transform="translate(7.2 19.965375)scale(0.168 -0.168)">
     <use xlink:href="#DejaVuSans-67"/>
     <use x="69.824219" xlink:href="#DejaVuSans-111"/>
     <use x="131.005859" xlink:href="#DejaVuSans-114"/>
     <use x="170.369141" xlink:href="#DejaVuSans-114"/>
     <use x="209.232422" xlink:href="#DejaVuSans-101"/>
     <use x="270.755859" xlink:href="#DejaVuSans-108"/>
     <use x="298.539062" xlink:href="#DejaVuSans-97"/>
     <use x="359.818359" xlink:href="#DejaVuSans-116"/>
     <use x="399.027344" xlink:href="#DejaVuSans-105"/>
     <use x="426.810547" xlink:href="#DejaVuSans-111"/>
     <use x="487.992188" xlink:href="#DejaVuSans-110"/>
     <use x="551.371094" xlink:href="#DejaVuSans-32"/>
     <use x="583.158203" xlink:href="#DejaVuSans-98"/>
     <use x="646.634766" xlink:href="#DejaVuSans-101"/>
     <use x="708.158203" xlink:href="#DejaVuSans-116"/>
     <use x="747.367188" xlink:href="#DejaVuSans-119"/>
     <use x="829.154297" xlink:href="#DejaVuSans-101"/>
     <use x="890.677734" xlink:href="#DejaVuSans-101"/>
     <use x="952.201172" xlink:href="#DejaVuSans-110"/>
     <use x="1015.580078" xlink:href="#DejaVuSans-32"/>
     <use x="1047.367188" xlink:href="#DejaVuSans-105"/>
     <use x="1075.150391" xlink:href="#DejaVuSans-110"/>
     <use x="1138.529297" xlink:href="#DejaVuSans-115"/>
     <use x="1190.628906" xlink:href="#DejaVuSans-101"/>
     <use x="1252.152344" xlink:href="#DejaVuSans-114"/>
     <use x="1293.265625" xlink:href="#DejaVuSans-116"/>
     <use x="1332.474609" xlink:href="#DejaVuSans-105"/>
     <use x="1360.257812" xlink:href="#DejaVuSans-111"/>
     <use x="1421.439453" xlink:href="#DejaVuSans-110"/>
     <use x="1484.818359" xlink:href="#DejaVuSans-32"/>
     <use x="1516.605469" xlink:href="#DejaVuSans-115"/>
     <use x="1568.705078" xlink:href="#DejaVuSans-99"/>
     <use x="1623.685547" xlink:href="#DejaVuSans-111"/>
     <use x="1684.867188" xlink:href="#DejaVuSans-114"/>
     <use x="1723.730469" xlink:href="#DejaVuSans-101"/>
     <use x="1785.253906" xlink:href="#DejaVuSans-32"/>
     <use x="1817.041016" xlink:href="#DejaVuSans-97"/>
     <use x="1878.320312" xlink:href="#DejaVuSans-110"/>
     <use x="1941.699219" xlink:href="#DejaVuSans-100"/>
     <use x="2005.175781" xlink:href="#DejaVuSans-32"/>
     <use x="2036.962891" xlink:href="#DejaVuSans-65"/>
     <use x="2105.371094" xlink:href="#DejaVuSans-114"/>
     <use x="2146.484375" xlink:href="#DejaVuSans-97"/>
     <use x="2207.763672" xlink:href="#DejaVuSans-67"/>
     <use x="2277.587891" xlink:href="#DejaVuSans-95"/>
     <use x="2327.587891" xlink:href="#DejaVuSans-80"/>
     <use x="2387.890625" xlink:href="#DejaVuSans-68"/>
     <use x="2464.892578" xlink:href="#DejaVuSans-90"/>
     <use x="2533.398438" xlink:href="#DejaVuSans-95"/>
     <use x="2583.398438" xlink:href="#DejaVuSans-82"/>
     <use x="2652.880859" xlink:href="#DejaVuSans-77"/>
     <use x="2739.160156" xlink:href="#DejaVuSans-83"/>
     <use x="2802.636719" xlink:href="#DejaVuSans-68"/>
     <use x="2879.638672" xlink:href="#DejaVuSans-95"/>
     <use x="2929.638672" xlink:href="#DejaVuSans-105"/>
     <use x="2957.421875" xlink:href="#DejaVuSans-110"/>
     <use x="3020.800781" xlink:href="#DejaVuSans-115"/>
     <use x="3072.900391" xlink:href="#DejaVuSans-101"/>
     <use x="3134.423828" xlink:href="#DejaVuSans-114"/>
     <use x="3175.537109" xlink:href="#DejaVuSans-116"/>
    </g>
   </g>
  </g>
 </g>
 <defs>
  <clipPath id="p4c42e54d33">
   <rect height="271.8" width="279" x="137.736375" y="25.965375"/>
  </clipPath>
 </defs>
</svg>
