<?xml version="1.0" encoding="utf-8" standalone="no"?>
<!DOCTYPE svg PUBLIC "-//W3C//DTD SVG 1.1//EN"
  "http://www.w3.org/Graphics/SVG/1.1/DTD/svg11.dtd">
<!-- Created with matplotlib (https://matplotlib.org/) -->
<svg height="288pt" version="1.1" viewBox="0 0 180 288" width="180pt" xmlns="http://www.w3.org/2000/svg" xmlns:xlink="http://www.w3.org/1999/xlink">
 <defs>
  <style type="text/css">
*{stroke-linecap:butt;stroke-linejoin:round;}
  </style>
 </defs>
 <g id="figure_1">
  <g id="patch_1">
   <path d="M 0 288 
L 180 288 
L 180 0 
L 0 0 
z
" style="fill:#ffffff;"/>
  </g>
  <g id="axes_1">
   <g id="patch_2">
    <path d="M 22.5 252 
L 162 252 
L 162 34.56 
L 22.5 34.56 
z
" style="fill:#ffffff;"/>
   </g>
   <g id="patch_3">
    <path clip-path="url(#p370291ef36)" d="M 29.475 240.964501 
L 85.275 240.964501 
L 85.275 231.141632 
L 29.475 231.141632 
L 29.475 240.964501 
z
" style="fill:#ffffff;stroke:#808080;stroke-linejoin:miter;stroke-width:1.5;"/>
   </g>
   <g id="patch_4">
    <path clip-path="url(#p370291ef36)" d="M 99.225 44.443636 
L 155.025 44.443636 
L 155.025 44.443636 
L 99.225 44.443636 
L 99.225 44.443636 
z
" style="fill:#ffffff;stroke:#808080;stroke-linejoin:miter;stroke-width:1.5;"/>
   </g>
   <g id="matplotlib.axis_1">
    <g id="xtick_1">
     <g id="line2d_1">
      <defs>
       <path d="M 0 0 
L 0 3.5 
" id="mc153dcbfda" style="stroke:#000000;stroke-width:1.5;"/>
      </defs>
      <g>
       <use style="stroke:#000000;stroke-width:1.5;" x="57.375" xlink:href="#mc153dcbfda" y="252"/>
      </g>
     </g>
     <g id="text_1">
      <text style="font-family:Cantarell;font-size:14px;font-style:normal;font-weight:normal;text-anchor:middle;" transform="rotate(-0, 57.375, 269.051562)" x="57.375" y="269.051562">Depleted</text>
     </g>
    </g>
    <g id="xtick_2">
     <g id="line2d_2">
      <g>
       <use style="stroke:#000000;stroke-width:1.5;" x="127.125" xlink:href="#mc153dcbfda" y="252"/>
      </g>
     </g>
     <g id="text_2">
      <text style="font-family:Cantarell;font-size:14px;font-style:normal;font-weight:normal;text-anchor:middle;" transform="rotate(-0, 127.125, 269.051562)" x="127.125" y="269.051562">Enriched</text>
     </g>
    </g>
   </g>
   <g id="matplotlib.axis_2">
    <g id="ytick_1">
     <g id="line2d_3">
      <defs>
       <path d="M 0 0 
L -3.5 0 
" id="m09893e625a" style="stroke:#000000;stroke-width:1.5;"/>
      </defs>
      <g>
       <use style="stroke:#000000;stroke-width:1.5;" x="22.5" xlink:href="#m09893e625a" y="149.575896"/>
      </g>
     </g>
     <g id="text_3">
      <!-- $\mathdefault{10^{4}}$ -->
      <g transform="translate(-6.76 154.601678)">
       <text>
        <tspan style="font-family:Cantarell;font-size:14px;font-style:regular;font-weight:regular;" x="0 8.035995" y="-0.49375000000000036">10</tspan>
        <tspan style="font-family:Cantarell;font-size:9.8px;font-style:regular;font-weight:regular;" x="16.190116" y="-5.21875">4</tspan>
       </text>
      </g>
     </g>
    </g>
    <g id="ytick_2">
     <g id="line2d_4">
      <defs>
       <path d="M 0 0 
L -2 0 
" id="mddac1b0457" style="stroke:#000000;stroke-width:0.6;"/>
      </defs>
      <g>
       <use style="stroke:#000000;stroke-width:0.6;" x="22.5" xlink:href="#mddac1b0457" y="226.645634"/>
      </g>
     </g>
    </g>
    <g id="ytick_3">
     <g id="line2d_5">
      <g>
       <use style="stroke:#000000;stroke-width:0.6;" x="22.5" xlink:href="#mddac1b0457" y="208.230283"/>
      </g>
     </g>
    </g>
    <g id="ytick_4">
     <g id="line2d_6">
      <g>
       <use style="stroke:#000000;stroke-width:0.6;" x="22.5" xlink:href="#mddac1b0457" y="193.946227"/>
      </g>
     </g>
    </g>
    <g id="ytick_5">
     <g id="line2d_7">
      <g>
       <use style="stroke:#000000;stroke-width:0.6;" x="22.5" xlink:href="#mddac1b0457" y="182.275303"/>
      </g>
     </g>
    </g>
    <g id="ytick_6">
     <g id="line2d_8">
      <g>
       <use style="stroke:#000000;stroke-width:0.6;" x="22.5" xlink:href="#mddac1b0457" y="172.407678"/>
      </g>
     </g>
    </g>
    <g id="ytick_7">
     <g id="line2d_9">
      <g>
       <use style="stroke:#000000;stroke-width:0.6;" x="22.5" xlink:href="#mddac1b0457" y="163.859952"/>
      </g>
     </g>
    </g>
    <g id="ytick_8">
     <g id="line2d_10">
      <g>
       <use style="stroke:#000000;stroke-width:0.6;" x="22.5" xlink:href="#mddac1b0457" y="156.320324"/>
      </g>
     </g>
    </g>
    <g id="ytick_9">
     <g id="line2d_11">
      <g>
       <use style="stroke:#000000;stroke-width:0.6;" x="22.5" xlink:href="#mddac1b0457" y="105.205566"/>
      </g>
     </g>
    </g>
    <g id="ytick_10">
     <g id="line2d_12">
      <g>
       <use style="stroke:#000000;stroke-width:0.6;" x="22.5" xlink:href="#mddac1b0457" y="79.250587"/>
      </g>
     </g>
    </g>
    <g id="ytick_11">
     <g id="line2d_13">
      <g>
       <use style="stroke:#000000;stroke-width:0.6;" x="22.5" xlink:href="#mddac1b0457" y="60.835236"/>
      </g>
     </g>
    </g>
    <g id="ytick_12">
     <g id="line2d_14">
      <g>
       <use style="stroke:#000000;stroke-width:0.6;" x="22.5" xlink:href="#mddac1b0457" y="46.55118"/>
      </g>
     </g>
    </g>
    <g id="ytick_13">
     <g id="line2d_15">
      <g>
       <use style="stroke:#000000;stroke-width:0.6;" x="22.5" xlink:href="#mddac1b0457" y="34.880256"/>
      </g>
     </g>
    </g>
    <g id="text_4">
     <text style="font-family:Cantarell;font-size:14px;font-style:normal;font-weight:normal;text-anchor:middle;" transform="rotate(-90, -14.231563, 143.28)" x="-14.231563" y="143.28">RFP/OD600 [a.u.]</text>
    </g>
   </g>
   <g id="line2d_16">
    <path clip-path="url(#p370291ef36)" d="M 57.375 240.964501 
L 57.375 242.116364 
" style="fill:none;stroke:#808080;stroke-linecap:square;stroke-width:1.5;"/>
   </g>
   <g id="line2d_17">
    <path clip-path="url(#p370291ef36)" d="M 57.375 231.141632 
L 57.375 231.141632 
" style="fill:none;stroke:#808080;stroke-linecap:square;stroke-width:1.5;"/>
   </g>
   <g id="line2d_18">
    <path clip-path="url(#p370291ef36)" d="M 43.425 242.116364 
L 71.325 242.116364 
" style="fill:none;stroke:#808080;stroke-linecap:square;stroke-width:1.5;"/>
   </g>
   <g id="line2d_19">
    <path clip-path="url(#p370291ef36)" d="M 43.425 231.141632 
L 71.325 231.141632 
" style="fill:none;stroke:#808080;stroke-linecap:square;stroke-width:1.5;"/>
   </g>
   <g id="line2d_20"/>
   <g id="line2d_21">
    <path clip-path="url(#p370291ef36)" d="M 127.125 44.443636 
L 127.125 44.443636 
" style="fill:none;stroke:#808080;stroke-linecap:square;stroke-width:1.5;"/>
   </g>
   <g id="line2d_22">
    <path clip-path="url(#p370291ef36)" d="M 127.125 44.443636 
L 127.125 44.443636 
" style="fill:none;stroke:#808080;stroke-linecap:square;stroke-width:1.5;"/>
   </g>
   <g id="line2d_23">
    <path clip-path="url(#p370291ef36)" d="M 113.175 44.443636 
L 141.075 44.443636 
" style="fill:none;stroke:#808080;stroke-linecap:square;stroke-width:1.5;"/>
   </g>
   <g id="line2d_24">
    <path clip-path="url(#p370291ef36)" d="M 113.175 44.443636 
L 141.075 44.443636 
" style="fill:none;stroke:#808080;stroke-linecap:square;stroke-width:1.5;"/>
   </g>
   <g id="line2d_25"/>
   <g id="line2d_26">
    <path clip-path="url(#p370291ef36)" d="M 29.475 234.349464 
L 85.275 234.349464 
" style="fill:none;stroke:#e60234;stroke-linecap:square;stroke-width:1.5;"/>
   </g>
   <g id="line2d_27">
    <path clip-path="url(#p370291ef36)" d="M 99.225 44.443636 
L 155.025 44.443636 
" style="fill:none;stroke:#e60234;stroke-linecap:square;stroke-width:1.5;"/>
   </g>
   <g id="patch_5">
    <path d="M 22.5 252 
L 22.5 34.56 
" style="fill:none;stroke:#000000;stroke-linecap:square;stroke-linejoin:miter;stroke-width:1.5;"/>
   </g>
   <g id="patch_6">
    <path d="M 22.5 252 
L 162 252 
" style="fill:none;stroke:#000000;stroke-linecap:square;stroke-linejoin:miter;stroke-width:1.5;"/>
   </g>
   <g id="PathCollection_1">
    <defs>
     <path d="M 0 2.5 
C 0.663008 2.5 1.29895 2.236584 1.767767 1.767767 
C 2.236584 1.29895 2.5 0.663008 2.5 0 
C 2.5 -0.663008 2.236584 -1.29895 1.767767 -1.767767 
C 1.29895 -2.236584 0.663008 -2.5 0 -2.5 
C -0.663008 -2.5 -1.29895 -2.236584 -1.767767 -1.767767 
C -2.236584 -1.29895 -2.5 -0.663008 -2.5 0 
C -2.5 0.663008 -2.236584 1.29895 -1.767767 1.767767 
C -1.29895 2.236584 -0.663008 2.5 0 2.5 
z
" id="C0_0_c84bf9d839"/>
    </defs>
    <g clip-path="url(#p370291ef36)">
     <use x="51.910698" xlink:href="#C0_0_c84bf9d839" y="240.964501"/>
    </g>
    <g clip-path="url(#p370291ef36)">
     <use x="63.699965" xlink:href="#C0_0_c84bf9d839" y="240.31152"/>
    </g>
    <g clip-path="url(#p370291ef36)">
     <use x="57.393144" xlink:href="#C0_0_c84bf9d839" y="231.141632"/>
    </g>
    <g clip-path="url(#p370291ef36)">
     <use x="61.039252" xlink:href="#C0_0_c84bf9d839" y="202.721491"/>
    </g>
    <g clip-path="url(#p370291ef36)">
     <use x="58.80154" xlink:href="#C0_0_c84bf9d839" y="207.76329"/>
    </g>
    <g clip-path="url(#p370291ef36)">
     <use x="52.271601" xlink:href="#C0_0_c84bf9d839" y="234.349464"/>
    </g>
    <g clip-path="url(#p370291ef36)">
     <use x="60.348637" xlink:href="#C0_0_c84bf9d839" y="241.682499"/>
    </g>
    <g clip-path="url(#p370291ef36)">
     <use x="53.629479" xlink:href="#C0_0_c84bf9d839" y="242.116364"/>
    </g>
    <g clip-path="url(#p370291ef36)">
     <use x="53.190324" xlink:href="#C0_0_c84bf9d839" y="233.097213"/>
    </g>
   </g>
   <g id="PathCollection_2">
    <defs>
     <path d="M 0 2.5 
C 0.663008 2.5 1.29895 2.236584 1.767767 1.767767 
C 2.236584 1.29895 2.5 0.663008 2.5 0 
C 2.5 -0.663008 2.236584 -1.29895 1.767767 -1.767767 
C 1.29895 -2.236584 0.663008 -2.5 0 -2.5 
C -0.663008 -2.5 -1.29895 -2.236584 -1.767767 -1.767767 
C -2.236584 -1.29895 -2.5 -0.663008 -2.5 0 
C -2.5 0.663008 -2.236584 1.29895 -1.767767 1.767767 
C -1.29895 2.236584 -0.663008 2.5 0 2.5 
z
" id="m6c7bee1b04"/>
    </defs>
    <g clip-path="url(#p370291ef36)">
     <use x="127.840367" xlink:href="#m6c7bee1b04" y="44.443636"/>
    </g>
   </g>
   <g id="text_5">
    <text style="font-family:Cantarell;font-size:16.8px;font-style:normal;font-weight:normal;text-anchor:middle;" transform="rotate(-0, 92.25, 28.56)" x="92.25" y="28.56">Flp-PDZ</text>
   </g>
  </g>
 </g>
 <defs>
  <clipPath id="p370291ef36">
   <rect height="217.44" width="139.5" x="22.5" y="34.56"/>
  </clipPath>
 </defs>
</svg>
