<?xml version="1.0" encoding="utf-8" standalone="no"?>
<!DOCTYPE svg PUBLIC "-//W3C//DTD SVG 1.1//EN"
  "http://www.w3.org/Graphics/SVG/1.1/DTD/svg11.dtd">
<svg xmlns:xlink="http://www.w3.org/1999/xlink" width="360pt" height="360pt" viewBox="0 0 360 360" xmlns="http://www.w3.org/2000/svg" version="1.1">
 <metadata>
  <rdf:RDF xmlns:dc="http://purl.org/dc/elements/1.1/" xmlns:cc="http://creativecommons.org/ns#" xmlns:rdf="http://www.w3.org/1999/02/22-rdf-syntax-ns#">
   <cc:Work>
    <dc:type rdf:resource="http://purl.org/dc/dcmitype/StillImage"/>
    <dc:date>2023-12-05T13:48:29.010666</dc:date>
    <dc:format>image/svg+xml</dc:format>
    <dc:creator>
     <cc:Agent>
      <dc:title>Matplotlib v3.5.3, https://matplotlib.org/</dc:title>
     </cc:Agent>
    </dc:creator>
   </cc:Work>
  </rdf:RDF>
 </metadata>
 <defs>
  <style type="text/css">*{stroke-linejoin: round; stroke-linecap: butt}</style>
 </defs>
 <g id="figure_1">
  <g id="patch_1">
   <path d="M 0 360 
L 360 360 
L 360 0 
L 0 0 
z
" style="fill: #ffffff"/>
  </g>
  <g id="axes_1">
   <g id="patch_2">
    <path d="M 45 318.692523 
L 324 318.692523 
L 324 44.907477 
L 45 44.907477 
z
" style="fill: #ffffff"/>
   </g>
   <g id="matplotlib.axis_1">
    <g id="xtick_1">
     <g id="line2d_1">
      <defs>
       <path id="m87f46ec9cb" d="M 0 0 
L 0 3.5 
" style="stroke: #262626; stroke-width: 1.5"/>
      </defs>
      <g>
       <use xlink:href="#m87f46ec9cb" x="50.214953" y="318.692523" style="fill: #262626; stroke: #262626; stroke-width: 1.5"/>
      </g>
     </g>
     <g id="text_1">
      <text style="fill: #262626; font: 14px 'sans-serif'; text-anchor: middle" x="50.214953" y="336.330336" transform="rotate(-0, 50.214953, 336.330336)">0.0</text>
     </g>
    </g>
    <g id="xtick_2">
     <g id="line2d_2">
      <g>
       <use xlink:href="#m87f46ec9cb" x="102.364486" y="318.692523" style="fill: #262626; stroke: #262626; stroke-width: 1.5"/>
      </g>
     </g>
     <g id="text_2">
      <text style="fill: #262626; font: 14px 'sans-serif'; text-anchor: middle" x="102.364486" y="336.330336" transform="rotate(-0, 102.364486, 336.330336)">0.2</text>
     </g>
    </g>
    <g id="xtick_3">
     <g id="line2d_3">
      <g>
       <use xlink:href="#m87f46ec9cb" x="154.514019" y="318.692523" style="fill: #262626; stroke: #262626; stroke-width: 1.5"/>
      </g>
     </g>
     <g id="text_3">
      <text style="fill: #262626; font: 14px 'sans-serif'; text-anchor: middle" x="154.514019" y="336.330336" transform="rotate(-0, 154.514019, 336.330336)">0.4</text>
     </g>
    </g>
    <g id="xtick_4">
     <g id="line2d_4">
      <g>
       <use xlink:href="#m87f46ec9cb" x="206.663551" y="318.692523" style="fill: #262626; stroke: #262626; stroke-width: 1.5"/>
      </g>
     </g>
     <g id="text_4">
      <text style="fill: #262626; font: 14px 'sans-serif'; text-anchor: middle" x="206.663551" y="336.330336" transform="rotate(-0, 206.663551, 336.330336)">0.6</text>
     </g>
    </g>
    <g id="xtick_5">
     <g id="line2d_5">
      <g>
       <use xlink:href="#m87f46ec9cb" x="258.813084" y="318.692523" style="fill: #262626; stroke: #262626; stroke-width: 1.5"/>
      </g>
     </g>
     <g id="text_5">
      <text style="fill: #262626; font: 14px 'sans-serif'; text-anchor: middle" x="258.813084" y="336.330336" transform="rotate(-0, 258.813084, 336.330336)">0.8</text>
     </g>
    </g>
    <g id="xtick_6">
     <g id="line2d_6">
      <g>
       <use xlink:href="#m87f46ec9cb" x="310.962617" y="318.692523" style="fill: #262626; stroke: #262626; stroke-width: 1.5"/>
      </g>
     </g>
     <g id="text_6">
      <text style="fill: #262626; font: 14px 'sans-serif'; text-anchor: middle" x="310.962617" y="336.330336" transform="rotate(-0, 310.962617, 336.330336)">1.0</text>
     </g>
    </g>
    <g id="text_7">
     <text style="fill: #262626; font: 14px 'sans-serif'; text-anchor: middle" x="184.5" y="353.879711" transform="rotate(-0, 184.5, 353.879711)">Recall (Positive label: 1.0)</text>
    </g>
   </g>
   <g id="matplotlib.axis_2">
    <g id="ytick_1">
     <g id="line2d_7">
      <defs>
       <path id="m81902ac23d" d="M 0 0 
L -3.5 0 
" style="stroke: #262626; stroke-width: 1.5"/>
      </defs>
      <g>
       <use xlink:href="#m81902ac23d" x="45" y="318.692523" style="fill: #262626; stroke: #262626; stroke-width: 1.5"/>
      </g>
     </g>
     <g id="text_8">
      <text style="fill: #262626; font: 14px 'sans-serif'; text-anchor: end" x="38" y="324.01143" transform="rotate(-0, 38, 324.01143)">0.0</text>
     </g>
    </g>
    <g id="ytick_2">
     <g id="line2d_8">
      <g>
       <use xlink:href="#m81902ac23d" x="45" y="266.542991" style="fill: #262626; stroke: #262626; stroke-width: 1.5"/>
      </g>
     </g>
     <g id="text_9">
      <text style="fill: #262626; font: 14px 'sans-serif'; text-anchor: end" x="38" y="271.861897" transform="rotate(-0, 38, 271.861897)">0.2</text>
     </g>
    </g>
    <g id="ytick_3">
     <g id="line2d_9">
      <g>
       <use xlink:href="#m81902ac23d" x="45" y="214.393458" style="fill: #262626; stroke: #262626; stroke-width: 1.5"/>
      </g>
     </g>
     <g id="text_10">
      <text style="fill: #262626; font: 14px 'sans-serif'; text-anchor: end" x="38" y="219.712364" transform="rotate(-0, 38, 219.712364)">0.4</text>
     </g>
    </g>
    <g id="ytick_4">
     <g id="line2d_10">
      <g>
       <use xlink:href="#m81902ac23d" x="45" y="162.243925" style="fill: #262626; stroke: #262626; stroke-width: 1.5"/>
      </g>
     </g>
     <g id="text_11">
      <text style="fill: #262626; font: 14px 'sans-serif'; text-anchor: end" x="38" y="167.562831" transform="rotate(-0, 38, 167.562831)">0.6</text>
     </g>
    </g>
    <g id="ytick_5">
     <g id="line2d_11">
      <g>
       <use xlink:href="#m81902ac23d" x="45" y="110.094393" style="fill: #262626; stroke: #262626; stroke-width: 1.5"/>
      </g>
     </g>
     <g id="text_12">
      <text style="fill: #262626; font: 14px 'sans-serif'; text-anchor: end" x="38" y="115.413299" transform="rotate(-0, 38, 115.413299)">0.8</text>
     </g>
    </g>
    <g id="ytick_6">
     <g id="line2d_12">
      <g>
       <use xlink:href="#m81902ac23d" x="45" y="57.94486" style="fill: #262626; stroke: #262626; stroke-width: 1.5"/>
      </g>
     </g>
     <g id="text_13">
      <text style="fill: #262626; font: 14px 'sans-serif'; text-anchor: end" x="38" y="63.263766" transform="rotate(-0, 38, 63.263766)">1.0</text>
     </g>
    </g>
    <g id="text_14">
     <text style="fill: #262626; font: 14px 'sans-serif'; text-anchor: middle" x="8.824063" y="181.8" transform="rotate(-90, 8.824063, 181.8)">Precision (Positive label: 1.0)</text>
    </g>
   </g>
   <g id="line2d_13">
    <path d="M 310.962617 162.243925 
L 281.990654 162.243925 
L 281.990654 169.693858 
L 281.990654 169.693858 
L 281.990654 158.232423 
L 253.018692 158.232423 
L 253.018692 166.58972 
L 253.018692 166.58972 
L 253.018692 152.762192 
L 253.018692 152.762192 
L 253.018692 136.169159 
L 224.046729 136.169159 
L 224.046729 144.860748 
L 224.046729 144.860748 
L 224.046729 123.131776 
L 195.074766 123.131776 
L 195.074766 132.444192 
L 195.074766 132.444192 
L 195.074766 101.402804 
L 195.074766 101.402804 
L 195.074766 57.94486 
L 166.102804 57.94486 
L 166.102804 57.94486 
L 137.130841 57.94486 
L 137.130841 57.94486 
L 108.158879 57.94486 
L 108.158879 57.94486 
L 79.186916 57.94486 
L 79.186916 57.94486 
L 50.214953 57.94486 
L 50.214953 57.94486 
" clip-path="url(#p197a9fe6ab)" style="fill: none; stroke: #332345; stroke-opacity: 0.8; stroke-width: 3; stroke-linecap: round"/>
   </g>
   <g id="line2d_14">
    <path d="M 310.962617 180.649643 
L 281.990654 180.649643 
L 281.990654 188.318692 
L 281.990654 188.318692 
L 281.990654 179.627103 
L 281.990654 179.627103 
L 281.990654 169.693858 
L 281.990654 169.693858 
L 281.990654 158.232423 
L 253.018692 158.232423 
L 253.018692 166.58972 
L 224.046729 166.58972 
L 224.046729 176.466525 
L 195.074766 176.466525 
L 195.074766 188.318692 
L 195.074766 188.318692 
L 195.074766 173.83271 
L 195.074766 173.83271 
L 195.074766 155.725234 
L 195.074766 155.725234 
L 195.074766 132.444192 
L 195.074766 132.444192 
L 195.074766 101.402804 
L 195.074766 101.402804 
L 195.074766 57.94486 
L 166.102804 57.94486 
L 166.102804 57.94486 
L 137.130841 57.94486 
L 137.130841 57.94486 
L 108.158879 57.94486 
L 108.158879 57.94486 
L 79.186916 57.94486 
L 79.186916 57.94486 
L 50.214953 57.94486 
L 50.214953 57.94486 
" clip-path="url(#p197a9fe6ab)" style="fill: none; stroke: #40498e; stroke-opacity: 0.8; stroke-width: 3; stroke-linecap: round"/>
   </g>
   <g id="line2d_15">
    <path d="M 310.962617 265.357774 
L 281.990654 265.357774 
L 281.990654 270.18133 
L 281.990654 270.18133 
L 281.990654 269.026302 
L 253.018692 269.026302 
L 253.018692 274.17463 
L 253.018692 274.17463 
L 253.018692 273.061682 
L 253.018692 273.061682 
L 253.018692 271.891661 
L 253.018692 271.891661 
L 253.018692 270.660059 
L 253.018692 270.660059 
L 253.018692 269.361884 
L 253.018692 269.361884 
L 253.018692 267.991589 
L 253.018692 267.991589 
L 253.018692 266.542991 
L 253.018692 266.542991 
L 253.018692 265.009181 
L 253.018692 265.009181 
L 253.018692 263.382413 
L 253.018692 263.382413 
L 253.018692 261.653972 
L 253.018692 261.653972 
L 253.018692 259.814019 
L 253.018692 259.814019 
L 253.018692 257.851402 
L 253.018692 257.851402 
L 253.018692 255.753432 
L 253.018692 255.753432 
L 253.018692 253.505607 
L 253.018692 253.505607 
L 253.018692 251.091277 
L 253.018692 251.091277 
L 253.018692 248.491229 
L 253.018692 248.491229 
L 253.018692 245.683178 
L 253.018692 245.683178 
L 253.018692 242.641121 
L 253.018692 242.641121 
L 253.018692 239.334539 
L 253.018692 239.334539 
L 253.018692 235.727358 
L 253.018692 235.727358 
L 253.018692 231.776636 
L 253.018692 231.776636 
L 253.018692 227.430841 
L 253.018692 227.430841 
L 253.018692 222.627595 
L 253.018692 222.627595 
L 253.018692 217.290654 
L 253.018692 217.290654 
L 253.018692 211.325838 
L 253.018692 211.325838 
L 253.018692 204.615421 
L 253.018692 204.615421 
L 253.018692 197.01028 
L 253.018692 197.01028 
L 253.018692 188.318692 
L 253.018692 188.318692 
L 253.018692 178.289935 
L 253.018692 178.289935 
L 253.018692 166.58972 
L 253.018692 166.58972 
L 253.018692 152.762192 
L 224.046729 152.762192 
L 224.046729 162.243925 
L 224.046729 162.243925 
L 224.046729 144.860748 
L 195.074766 144.860748 
L 195.074766 155.725234 
L 195.074766 155.725234 
L 195.074766 132.444192 
L 195.074766 132.444192 
L 195.074766 101.402804 
L 166.102804 101.402804 
L 166.102804 110.094393 
L 137.130841 110.094393 
L 137.130841 123.131776 
L 108.158879 123.131776 
L 108.158879 144.860748 
L 79.186916 144.860748 
L 79.186916 188.318692 
L 79.186916 188.318692 
L 79.186916 57.94486 
L 50.214953 57.94486 
L 50.214953 57.94486 
" clip-path="url(#p197a9fe6ab)" style="fill: none; stroke: #357ba3; stroke-opacity: 0.8; stroke-width: 3; stroke-linecap: round"/>
   </g>
   <g id="line2d_16">
    <path d="M 310.962617 188.318692 
L 281.990654 188.318692 
L 281.990654 195.987741 
L 281.990654 195.987741 
L 281.990654 188.318692 
L 281.990654 188.318692 
L 281.990654 179.627103 
L 281.990654 179.627103 
L 281.990654 169.693858 
L 281.990654 169.693858 
L 281.990654 158.232423 
L 281.990654 158.232423 
L 281.990654 144.860748 
L 281.990654 144.860748 
L 281.990654 129.057859 
L 281.990654 129.057859 
L 281.990654 110.094393 
L 281.990654 110.094393 
L 281.990654 86.916822 
L 281.990654 86.916822 
L 281.990654 57.94486 
L 253.018692 57.94486 
L 253.018692 57.94486 
L 224.046729 57.94486 
L 224.046729 57.94486 
L 195.074766 57.94486 
L 195.074766 57.94486 
L 166.102804 57.94486 
L 166.102804 57.94486 
L 137.130841 57.94486 
L 137.130841 57.94486 
L 108.158879 57.94486 
L 108.158879 57.94486 
L 79.186916 57.94486 
L 79.186916 57.94486 
L 50.214953 57.94486 
L 50.214953 57.94486 
" clip-path="url(#p197a9fe6ab)" style="fill: none; stroke: #38aaac; stroke-opacity: 0.8; stroke-width: 3; stroke-linecap: round"/>
   </g>
   <g id="line2d_17">
    <path d="M 310.962617 151.069025 
L 281.990654 151.069025 
L 281.990654 158.232423 
L 281.990654 158.232423 
L 281.990654 144.860748 
L 253.018692 144.860748 
L 253.018692 152.762192 
L 224.046729 152.762192 
L 224.046729 162.243925 
L 195.074766 162.243925 
L 195.074766 173.83271 
L 195.074766 173.83271 
L 195.074766 155.725234 
L 195.074766 155.725234 
L 195.074766 132.444192 
L 195.074766 132.444192 
L 195.074766 101.402804 
L 195.074766 101.402804 
L 195.074766 57.94486 
L 166.102804 57.94486 
L 166.102804 57.94486 
L 137.130841 57.94486 
L 137.130841 57.94486 
L 108.158879 57.94486 
L 108.158879 57.94486 
L 79.186916 57.94486 
L 79.186916 57.94486 
L 50.214953 57.94486 
L 50.214953 57.94486 
" clip-path="url(#p197a9fe6ab)" style="fill: none; stroke: #79d6ae; stroke-opacity: 0.8; stroke-width: 3; stroke-linecap: round"/>
   </g>
   <g id="line2d_18"/>
   <g id="patch_3">
    <path d="M 45 318.692523 
L 45 44.907477 
" style="fill: none; stroke: #262626; stroke-width: 1.5; stroke-linejoin: miter; stroke-linecap: square"/>
   </g>
   <g id="patch_4">
    <path d="M 45 318.692523 
L 324 318.692523 
" style="fill: none; stroke: #262626; stroke-width: 1.5; stroke-linejoin: miter; stroke-linecap: square"/>
   </g>
   <g id="text_15">
    <text style="fill: #262626; font: 16.8px 'sans-serif'; text-anchor: middle" x="184.5" y="38.907477" transform="rotate(-0, 184.5, 38.907477)">Precision recall: AraC_model_context-2</text>
   </g>
   <g id="legend_1">
    <g id="line2d_19">
     <path style="fill: none; stroke: #332345; stroke-opacity: 0.8; stroke-width: 3; stroke-linecap: round"/>
    </g>
    <g id="text_16">
     <text style="fill: #262626; font: 14px 'sans-serif'; text-anchor: start" x="-11.015469" y="384.127569" transform="rotate(-0, -11.015469, 384.127569)">AP fold 0 (AP = 0.85)</text>
    </g>
    <g id="line2d_20">
     <path style="fill: none; stroke: #40498e; stroke-opacity: 0.8; stroke-width: 3; stroke-linecap: round"/>
    </g>
    <g id="text_17">
     <text style="fill: #262626; font: 14px 'sans-serif'; text-anchor: start" x="-11.015469" y="404.676944" transform="rotate(-0, -11.015469, 404.676944)">AP fold 1 (AP = 0.81)</text>
    </g>
    <g id="line2d_21">
     <path style="fill: none; stroke: #357ba3; stroke-opacity: 0.8; stroke-width: 3; stroke-linecap: round"/>
    </g>
    <g id="text_18">
     <text style="fill: #262626; font: 14px 'sans-serif'; text-anchor: start" x="-11.015469" y="425.226319" transform="rotate(-0, -11.015469, 425.226319)">AP fold 2 (AP = 0.64)</text>
    </g>
    <g id="line2d_22">
     <path style="fill: none; stroke: #38aaac; stroke-opacity: 0.8; stroke-width: 3; stroke-linecap: round"/>
    </g>
    <g id="text_19">
     <text style="fill: #262626; font: 14px 'sans-serif'; text-anchor: start" x="203.475469" y="384.127569" transform="rotate(-0, 203.475469, 384.127569)">AP fold 3 (AP = 0.94)</text>
    </g>
    <g id="line2d_23">
     <path style="fill: none; stroke: #79d6ae; stroke-opacity: 0.8; stroke-width: 3; stroke-linecap: round"/>
    </g>
    <g id="text_20">
     <text style="fill: #262626; font: 14px 'sans-serif'; text-anchor: start" x="203.475469" y="404.676944" transform="rotate(-0, 203.475469, 404.676944)">AP fold 4 (AP = 0.84)</text>
    </g>
    <g id="line2d_24"/>
    <g id="text_21">
     <!-- Mean ave. prec. = 0.82 $\pm$ 0.10 -->
     <g style="fill: #262626" transform="translate(203.475469 425.226319)">
      <text>
       <tspan style="font: 14px 'DejaVu Sans'" x="0 12.079102 20.692383 29.271484 38.144531 42.594727 51.173828 59.458984 68.072266 72.522461 76.972656 85.859375 91.615234 100.228516 107.925781 112.375977 116.826172 128.556641 133.006836 141.914062 145.989258 154.896484 163.803711 168.253906 179.984375 184.43457 193.341797 197.791992 206.699219" y="-0.609375">Mean ave. prec. = 0.82 ± 0.10</tspan>
      </text>
     </g>
    </g>
   </g>
  </g>
 </g>
 <defs>
  <clipPath id="p197a9fe6ab">
   <rect x="45" y="44.907477" width="279" height="273.785047"/>
  </clipPath>
 </defs>
</svg>
