<?xml version="1.0" encoding="utf-8" standalone="no"?>
<!DOCTYPE svg PUBLIC "-//W3C//DTD SVG 1.1//EN"
  "http://www.w3.org/Graphics/SVG/1.1/DTD/svg11.dtd">
<svg xmlns:xlink="http://www.w3.org/1999/xlink" width="360pt" height="360pt" viewBox="0 0 360 360" xmlns="http://www.w3.org/2000/svg" version="1.1">
 <metadata>
  <rdf:RDF xmlns:dc="http://purl.org/dc/elements/1.1/" xmlns:cc="http://creativecommons.org/ns#" xmlns:rdf="http://www.w3.org/1999/02/22-rdf-syntax-ns#">
   <cc:Work>
    <dc:type rdf:resource="http://purl.org/dc/dcmitype/StillImage"/>
    <dc:date>2023-12-05T13:48:39.665722</dc:date>
    <dc:format>image/svg+xml</dc:format>
    <dc:creator>
     <cc:Agent>
      <dc:title>Matplotlib v3.5.3, https://matplotlib.org/</dc:title>
     </cc:Agent>
    </dc:creator>
   </cc:Work>
  </rdf:RDF>
 </metadata>
 <defs>
  <style type="text/css">*{stroke-linejoin: round; stroke-linecap: butt}</style>
 </defs>
 <g id="figure_1">
  <g id="patch_1">
   <path d="M 0 360 
L 360 360 
L 360 0 
L 0 0 
z
" style="fill: #ffffff"/>
  </g>
  <g id="axes_1">
   <g id="patch_2">
    <path d="M 45 318.692523 
L 324 318.692523 
L 324 44.907477 
L 45 44.907477 
z
" style="fill: #ffffff"/>
   </g>
   <g id="matplotlib.axis_1">
    <g id="xtick_1">
     <g id="line2d_1">
      <defs>
       <path id="m214e284079" d="M 0 0 
L 0 3.5 
" style="stroke: #262626; stroke-width: 1.5"/>
      </defs>
      <g>
       <use xlink:href="#m214e284079" x="50.214953" y="318.692523" style="fill: #262626; stroke: #262626; stroke-width: 1.5"/>
      </g>
     </g>
     <g id="text_1">
      <text style="fill: #262626; font: 14px 'sans-serif'; text-anchor: middle" x="50.214953" y="336.330336" transform="rotate(-0, 50.214953, 336.330336)">0.0</text>
     </g>
    </g>
    <g id="xtick_2">
     <g id="line2d_2">
      <g>
       <use xlink:href="#m214e284079" x="102.364486" y="318.692523" style="fill: #262626; stroke: #262626; stroke-width: 1.5"/>
      </g>
     </g>
     <g id="text_2">
      <text style="fill: #262626; font: 14px 'sans-serif'; text-anchor: middle" x="102.364486" y="336.330336" transform="rotate(-0, 102.364486, 336.330336)">0.2</text>
     </g>
    </g>
    <g id="xtick_3">
     <g id="line2d_3">
      <g>
       <use xlink:href="#m214e284079" x="154.514019" y="318.692523" style="fill: #262626; stroke: #262626; stroke-width: 1.5"/>
      </g>
     </g>
     <g id="text_3">
      <text style="fill: #262626; font: 14px 'sans-serif'; text-anchor: middle" x="154.514019" y="336.330336" transform="rotate(-0, 154.514019, 336.330336)">0.4</text>
     </g>
    </g>
    <g id="xtick_4">
     <g id="line2d_4">
      <g>
       <use xlink:href="#m214e284079" x="206.663551" y="318.692523" style="fill: #262626; stroke: #262626; stroke-width: 1.5"/>
      </g>
     </g>
     <g id="text_4">
      <text style="fill: #262626; font: 14px 'sans-serif'; text-anchor: middle" x="206.663551" y="336.330336" transform="rotate(-0, 206.663551, 336.330336)">0.6</text>
     </g>
    </g>
    <g id="xtick_5">
     <g id="line2d_5">
      <g>
       <use xlink:href="#m214e284079" x="258.813084" y="318.692523" style="fill: #262626; stroke: #262626; stroke-width: 1.5"/>
      </g>
     </g>
     <g id="text_5">
      <text style="fill: #262626; font: 14px 'sans-serif'; text-anchor: middle" x="258.813084" y="336.330336" transform="rotate(-0, 258.813084, 336.330336)">0.8</text>
     </g>
    </g>
    <g id="xtick_6">
     <g id="line2d_6">
      <g>
       <use xlink:href="#m214e284079" x="310.962617" y="318.692523" style="fill: #262626; stroke: #262626; stroke-width: 1.5"/>
      </g>
     </g>
     <g id="text_6">
      <text style="fill: #262626; font: 14px 'sans-serif'; text-anchor: middle" x="310.962617" y="336.330336" transform="rotate(-0, 310.962617, 336.330336)">1.0</text>
     </g>
    </g>
    <g id="text_7">
     <text style="fill: #262626; font: 14px 'sans-serif'; text-anchor: middle" x="184.5" y="353.879711" transform="rotate(-0, 184.5, 353.879711)">Recall (Positive label: 1.0)</text>
    </g>
   </g>
   <g id="matplotlib.axis_2">
    <g id="ytick_1">
     <g id="line2d_7">
      <defs>
       <path id="m1ac0240c50" d="M 0 0 
L -3.5 0 
" style="stroke: #262626; stroke-width: 1.5"/>
      </defs>
      <g>
       <use xlink:href="#m1ac0240c50" x="45" y="318.692523" style="fill: #262626; stroke: #262626; stroke-width: 1.5"/>
      </g>
     </g>
     <g id="text_8">
      <text style="fill: #262626; font: 14px 'sans-serif'; text-anchor: end" x="38" y="324.01143" transform="rotate(-0, 38, 324.01143)">0.0</text>
     </g>
    </g>
    <g id="ytick_2">
     <g id="line2d_8">
      <g>
       <use xlink:href="#m1ac0240c50" x="45" y="266.542991" style="fill: #262626; stroke: #262626; stroke-width: 1.5"/>
      </g>
     </g>
     <g id="text_9">
      <text style="fill: #262626; font: 14px 'sans-serif'; text-anchor: end" x="38" y="271.861897" transform="rotate(-0, 38, 271.861897)">0.2</text>
     </g>
    </g>
    <g id="ytick_3">
     <g id="line2d_9">
      <g>
       <use xlink:href="#m1ac0240c50" x="45" y="214.393458" style="fill: #262626; stroke: #262626; stroke-width: 1.5"/>
      </g>
     </g>
     <g id="text_10">
      <text style="fill: #262626; font: 14px 'sans-serif'; text-anchor: end" x="38" y="219.712364" transform="rotate(-0, 38, 219.712364)">0.4</text>
     </g>
    </g>
    <g id="ytick_4">
     <g id="line2d_10">
      <g>
       <use xlink:href="#m1ac0240c50" x="45" y="162.243925" style="fill: #262626; stroke: #262626; stroke-width: 1.5"/>
      </g>
     </g>
     <g id="text_11">
      <text style="fill: #262626; font: 14px 'sans-serif'; text-anchor: end" x="38" y="167.562831" transform="rotate(-0, 38, 167.562831)">0.6</text>
     </g>
    </g>
    <g id="ytick_5">
     <g id="line2d_11">
      <g>
       <use xlink:href="#m1ac0240c50" x="45" y="110.094393" style="fill: #262626; stroke: #262626; stroke-width: 1.5"/>
      </g>
     </g>
     <g id="text_12">
      <text style="fill: #262626; font: 14px 'sans-serif'; text-anchor: end" x="38" y="115.413299" transform="rotate(-0, 38, 115.413299)">0.8</text>
     </g>
    </g>
    <g id="ytick_6">
     <g id="line2d_12">
      <g>
       <use xlink:href="#m1ac0240c50" x="45" y="57.94486" style="fill: #262626; stroke: #262626; stroke-width: 1.5"/>
      </g>
     </g>
     <g id="text_13">
      <text style="fill: #262626; font: 14px 'sans-serif'; text-anchor: end" x="38" y="63.263766" transform="rotate(-0, 38, 63.263766)">1.0</text>
     </g>
    </g>
    <g id="text_14">
     <text style="fill: #262626; font: 14px 'sans-serif'; text-anchor: middle" x="8.824063" y="181.8" transform="rotate(-90, 8.824063, 181.8)">Precision (Positive label: 1.0)</text>
    </g>
   </g>
   <g id="line2d_13">
    <path d="M 310.962617 279.04668 
L 300.933861 279.04668 
L 300.933861 280.120384 
L 300.933861 273.423832 
L 290.905104 273.423832 
L 290.905104 273.992924 
L 290.905104 273.345104 
L 280.876348 273.345104 
L 280.876348 274.917368 
L 280.876348 269.93483 
L 270.847592 269.93483 
L 270.847592 271.283857 
L 270.847592 267.012806 
L 260.818835 267.012806 
L 260.818835 268.913424 
L 260.818835 265.009181 
L 250.790079 265.009181 
L 250.790079 266.542991 
L 250.790079 264.930119 
L 240.761323 264.930119 
L 240.761323 265.988208 
L 240.761323 262.394732 
L 230.732566 262.394732 
L 230.732566 262.818024 
L 230.732566 260.024299 
L 220.70381 260.024299 
L 220.70381 261.862904 
L 220.70381 260.367388 
L 210.675054 260.367388 
L 210.675054 261.542351 
L 210.675054 256.424425 
L 200.646298 256.424425 
L 200.646298 259.431691 
L 200.646298 258.519986 
L 190.617541 258.519986 
L 190.617541 260.748598 
L 190.617541 255.753432 
L 180.588785 255.753432 
L 180.588785 255.919938 
L 180.588785 252.227433 
L 170.560029 252.227433 
L 170.560029 256.113084 
L 170.560029 252.118652 
L 160.531272 252.118652 
L 160.531272 254.954206 
L 160.531272 251.989633 
L 150.502516 251.989633 
L 150.502516 256.609746 
L 150.502516 253.505607 
L 140.47376 253.505607 
L 140.47376 258.519986 
L 130.445004 258.519986 
L 130.445004 263.798278 
L 130.445004 244.193191 
L 120.416247 244.193191 
L 120.416247 248.491229 
L 120.416247 245.683178 
L 110.387491 245.683178 
L 110.387491 253.505607 
L 100.358735 253.505607 
L 100.358735 256.609746 
L 90.329978 256.609746 
L 90.329978 266.542991 
L 90.329978 263.798278 
L 80.301222 263.798278 
L 80.301222 266.542991 
L 80.301222 262.818024 
L 70.272466 262.818024 
L 70.272466 275.234579 
L 60.24371 275.234579 
L 60.24371 292.617757 
L 50.214953 292.617757 
L 50.214953 318.692523 
L 50.214953 57.94486 
L 50.214953 57.94486 
" clip-path="url(#p8f7b0cf400)" style="fill: none; stroke: #332345; stroke-opacity: 0.8; stroke-width: 3; stroke-linecap: round"/>
   </g>
   <g id="line2d_14">
    <path d="M 310.962617 280.605786 
L 300.933861 280.605786 
L 300.933861 281.863757 
L 300.933861 273.73603 
L 290.905104 273.73603 
L 290.905104 274.930678 
L 280.876348 274.930678 
L 280.876348 276.159217 
L 280.876348 266.992556 
L 270.847592 266.992556 
L 270.847592 267.474232 
L 270.847592 265.577259 
L 260.818835 265.577259 
L 260.818835 267.034967 
L 260.818835 265.530378 
L 240.761323 265.530378 
L 240.761323 268.139405 
L 240.761323 262.394732 
L 220.70381 262.394732 
L 220.70381 267.149381 
L 210.675054 267.149381 
L 210.675054 269.026302 
L 210.675054 265.88287 
L 200.646298 265.88287 
L 200.646298 267.229169 
L 190.617541 267.229169 
L 190.617541 269.361884 
L 190.617541 265.7872 
L 180.588785 265.7872 
L 180.588785 268.099693 
L 180.588785 261.239648 
L 160.531272 261.239648 
L 160.531272 267.474232 
L 150.502516 267.474232 
L 150.502516 271.283857 
L 140.47376 271.283857 
L 140.47376 275.234579 
L 140.47376 268.76212 
L 130.445004 268.76212 
L 130.445004 271.283857 
L 120.416247 271.283857 
L 120.416247 274.17463 
L 120.416247 273.061682 
L 110.387491 273.061682 
L 110.387491 278.577498 
L 110.387491 269.802336 
L 100.358735 269.802336 
L 100.358735 272.130441 
L 100.358735 266.542991 
L 90.329978 266.542991 
L 90.329978 275.234579 
L 90.329978 271.283857 
L 80.301222 271.283857 
L 80.301222 281.442857 
L 70.272466 281.442857 
L 70.272466 291.245401 
L 70.272466 286.099065 
L 60.24371 286.099065 
L 60.24371 301.309346 
L 60.24371 298.635011 
L 50.214953 298.635011 
L 50.214953 318.692523 
L 50.214953 57.94486 
L 50.214953 57.94486 
" clip-path="url(#p8f7b0cf400)" style="fill: none; stroke: #40498e; stroke-opacity: 0.8; stroke-width: 3; stroke-linecap: round"/>
   </g>
   <g id="line2d_15">
    <path d="M 310.962617 276.321028 
L 300.933861 276.321028 
L 300.933861 277.694463 
L 300.933861 276.086696 
L 290.905104 276.086696 
L 290.905104 277.249186 
L 290.905104 276.409118 
L 280.876348 276.409118 
L 280.876348 277.615837 
L 280.876348 274.917368 
L 270.847592 274.917368 
L 270.847592 276.512754 
L 270.847592 274.22393 
L 260.818835 274.22393 
L 260.818835 275.234579 
L 260.818835 274.533645 
L 250.790079 274.533645 
L 250.790079 275.593736 
L 240.761323 275.593736 
L 240.761323 275.983854 
L 240.761323 271.954735 
L 230.732566 271.954735 
L 230.732566 273.56312 
L 230.732566 271.283857 
L 220.70381 271.283857 
L 220.70381 272.994479 
L 210.675054 272.994479 
L 210.675054 274.777127 
L 200.646298 274.777127 
L 200.646298 276.179317 
L 200.646298 275.234579 
L 190.617541 275.234579 
L 190.617541 277.209941 
L 190.617541 267.277491 
L 180.588785 267.277491 
L 180.588785 268.843705 
L 180.588785 268.099693 
L 170.560029 268.099693 
L 170.560029 270.554493 
L 170.560029 264.744731 
L 160.531272 264.744731 
L 160.531272 266.542991 
L 160.531272 263.534364 
L 150.502516 263.534364 
L 150.502516 267.565531 
L 150.502516 266.542991 
L 140.47376 266.542991 
L 140.47376 267.676676 
L 130.445004 267.676676 
L 130.445004 271.283857 
L 130.445004 270.18133 
L 120.416247 270.18133 
L 120.416247 273.061682 
L 120.416247 271.891661 
L 110.387491 271.891661 
L 110.387491 277.52184 
L 100.358735 277.52184 
L 100.358735 282.47757 
L 100.358735 280.347279 
L 90.329978 280.347279 
L 90.329978 286.099065 
L 90.329978 281.442857 
L 80.301222 281.442857 
L 80.301222 288.606254 
L 70.272466 288.606254 
L 70.272466 297.83271 
L 60.24371 297.83271 
L 60.24371 307.828037 
L 60.24371 306.275968 
L 50.214953 306.275968 
L 50.214953 318.692523 
L 50.214953 57.94486 
L 50.214953 57.94486 
" clip-path="url(#p8f7b0cf400)" style="fill: none; stroke: #357ba3; stroke-opacity: 0.8; stroke-width: 3; stroke-linecap: round"/>
   </g>
   <g id="line2d_16">
    <path d="M 310.962617 281.847745 
L 300.933861 281.847745 
L 300.933861 283.071258 
L 300.933861 279.658442 
L 290.905104 279.658442 
L 290.905104 280.994066 
L 290.905104 280.06324 
L 280.876348 280.06324 
L 280.876348 280.974308 
L 280.876348 276.159217 
L 270.847592 276.159217 
L 270.847592 277.423109 
L 270.847592 274.565996 
L 260.818835 274.565996 
L 260.818835 275.91361 
L 260.818835 274.17463 
L 250.790079 274.17463 
L 250.790079 275.593736 
L 250.790079 273.73603 
L 240.761323 273.73603 
L 240.761323 274.849996 
L 240.761323 272.820249 
L 230.732566 272.820249 
L 230.732566 274.82843 
L 220.70381 274.82843 
L 220.70381 275.656501 
L 220.70381 271.028972 
L 210.675054 271.028972 
L 210.675054 273.345104 
L 200.646298 273.345104 
L 200.646298 275.712139 
L 200.646298 271.569452 
L 190.617541 271.569452 
L 190.617541 273.061682 
L 190.617541 268.686122 
L 170.560029 268.686122 
L 170.560029 273.992924 
L 170.560029 267.397901 
L 160.531272 267.397901 
L 160.531272 270.888785 
L 160.531272 266.542991 
L 150.502516 266.542991 
L 150.502516 267.565531 
L 150.502516 258.053532 
L 140.47376 258.053532 
L 140.47376 261.455231 
L 130.445004 261.455231 
L 130.445004 265.205823 
L 130.445004 263.798278 
L 120.416247 263.798278 
L 120.416247 265.009181 
L 120.416247 255.753432 
L 110.387491 255.753432 
L 110.387491 262.818024 
L 110.387491 250.671394 
L 90.329978 250.671394 
L 90.329978 269.026302 
L 80.301222 269.026302 
L 80.301222 277.52184 
L 70.272466 277.52184 
L 70.272466 289.720561 
L 70.272466 271.283857 
L 60.24371 271.283857 
L 60.24371 289.720561 
L 60.24371 281.442857 
L 50.214953 281.442857 
L 50.214953 318.692523 
L 50.214953 57.94486 
L 50.214953 57.94486 
" clip-path="url(#p8f7b0cf400)" style="fill: none; stroke: #38aaac; stroke-opacity: 0.8; stroke-width: 3; stroke-linecap: round"/>
   </g>
   <g id="line2d_17">
    <path d="M 310.962617 270.611394 
L 300.933861 270.611394 
L 300.933861 272.130441 
L 300.933861 270.760968 
L 290.905104 270.760968 
L 290.905104 272.337383 
L 290.905104 269.802336 
L 280.876348 269.802336 
L 280.876348 271.095728 
L 280.876348 269.535177 
L 270.847592 269.535177 
L 270.847592 270.487073 
L 270.847592 267.012806 
L 260.818835 267.012806 
L 260.818835 268.456735 
L 260.818835 263.382413 
L 250.790079 263.382413 
L 250.790079 265.478714 
L 250.790079 264.370093 
L 230.732566 264.370093 
L 230.732566 267.116062 
L 230.732566 265.357774 
L 220.70381 265.357774 
L 220.70381 266.542991 
L 220.70381 264.635081 
L 210.675054 264.635081 
L 210.675054 266.542991 
L 200.646298 266.542991 
L 200.646298 268.548742 
L 190.617541 268.548742 
L 190.617541 271.283857 
L 190.617541 267.277491 
L 180.588785 267.277491 
L 180.588785 269.566152 
L 180.588785 268.099693 
L 170.560029 268.099693 
L 170.560029 271.283857 
L 170.560029 259.655317 
L 160.531272 259.655317 
L 160.531272 262.452831 
L 150.502516 262.452831 
L 150.502516 266.542991 
L 150.502516 262.008249 
L 140.47376 262.008249 
L 140.47376 266.542991 
L 140.47376 249.671083 
L 130.445004 249.671083 
L 130.445004 255.480969 
L 120.416247 255.480969 
L 120.416247 261.653972 
L 120.416247 235.727358 
L 90.329978 235.727358 
L 90.329978 260.748598 
L 80.301222 260.748598 
L 80.301222 272.67823 
L 80.301222 269.802336 
L 70.272466 269.802336 
L 70.272466 283.926168 
L 70.272466 260.748598 
L 60.24371 260.748598 
L 60.24371 281.442857 
L 50.214953 281.442857 
L 50.214953 318.692523 
L 50.214953 57.94486 
L 50.214953 57.94486 
" clip-path="url(#p8f7b0cf400)" style="fill: none; stroke: #79d6ae; stroke-opacity: 0.8; stroke-width: 3; stroke-linecap: round"/>
   </g>
   <g id="line2d_18"/>
   <g id="patch_3">
    <path d="M 45 318.692523 
L 45 44.907477 
" style="fill: none; stroke: #262626; stroke-width: 1.5; stroke-linejoin: miter; stroke-linecap: square"/>
   </g>
   <g id="patch_4">
    <path d="M 45 318.692523 
L 324 318.692523 
" style="fill: none; stroke: #262626; stroke-width: 1.5; stroke-linejoin: miter; stroke-linecap: square"/>
   </g>
   <g id="text_15">
    <text style="fill: #262626; font: 16.8px 'sans-serif'; text-anchor: middle" x="184.5" y="38.907477" transform="rotate(-0, 184.5, 38.907477)">Precision recall: Full_dataset_AA</text>
   </g>
   <g id="legend_1">
    <g id="line2d_19">
     <path style="fill: none; stroke: #332345; stroke-opacity: 0.8; stroke-width: 3; stroke-linecap: round"/>
    </g>
    <g id="text_16">
     <text style="fill: #262626; font: 14px 'sans-serif'; text-anchor: start" x="-11.155469" y="384.127569" transform="rotate(-0, -11.155469, 384.127569)">AP fold 0 (AP = 0.22)</text>
    </g>
    <g id="line2d_20">
     <path style="fill: none; stroke: #40498e; stroke-opacity: 0.8; stroke-width: 3; stroke-linecap: round"/>
    </g>
    <g id="text_17">
     <text style="fill: #262626; font: 14px 'sans-serif'; text-anchor: start" x="-11.155469" y="404.676944" transform="rotate(-0, -11.155469, 404.676944)">AP fold 1 (AP = 0.18)</text>
    </g>
    <g id="line2d_21">
     <path style="fill: none; stroke: #357ba3; stroke-opacity: 0.8; stroke-width: 3; stroke-linecap: round"/>
    </g>
    <g id="text_18">
     <text style="fill: #262626; font: 14px 'sans-serif'; text-anchor: start" x="-11.155469" y="425.226319" transform="rotate(-0, -11.155469, 425.226319)">AP fold 2 (AP = 0.17)</text>
    </g>
    <g id="line2d_22">
     <path style="fill: none; stroke: #38aaac; stroke-opacity: 0.8; stroke-width: 3; stroke-linecap: round"/>
    </g>
    <g id="text_19">
     <text style="fill: #262626; font: 14px 'sans-serif'; text-anchor: start" x="203.335469" y="384.127569" transform="rotate(-0, 203.335469, 384.127569)">AP fold 3 (AP = 0.19)</text>
    </g>
    <g id="line2d_23">
     <path style="fill: none; stroke: #79d6ae; stroke-opacity: 0.8; stroke-width: 3; stroke-linecap: round"/>
    </g>
    <g id="text_20">
     <text style="fill: #262626; font: 14px 'sans-serif'; text-anchor: start" x="203.335469" y="404.676944" transform="rotate(-0, 203.335469, 404.676944)">AP fold 4 (AP = 0.22)</text>
    </g>
    <g id="line2d_24"/>
    <g id="text_21">
     <!-- Mean ave. prec. = 0.19 $\pm$ 0.02 -->
     <g style="fill: #262626" transform="translate(203.335469 425.226319)">
      <text>
       <tspan style="font: 14px 'DejaVu Sans'" x="0 12.079102 20.692383 29.271484 38.144531 42.594727 51.173828 59.458984 68.072266 72.522461 76.972656 85.859375 91.615234 100.228516 107.925781 112.375977 116.826172 128.556641 133.006836 141.914062 146.364258 155.271484 164.178711 168.628906 180.359375 184.80957 193.716797 198.166992 207.074219" y="-0.609375">Mean ave. prec. = 0.19 ± 0.02</tspan>
      </text>
     </g>
    </g>
   </g>
  </g>
 </g>
 <defs>
  <clipPath id="p8f7b0cf400">
   <rect x="45" y="44.907477" width="279" height="273.785047"/>
  </clipPath>
 </defs>
</svg>
