<?xml version="1.0" encoding="utf-8" standalone="no"?>
<!DOCTYPE svg PUBLIC "-//W3C//DTD SVG 1.1//EN"
  "http://www.w3.org/Graphics/SVG/1.1/DTD/svg11.dtd">
<!-- Created with matplotlib (https://matplotlib.org/) -->
<svg height="360pt" version="1.1" viewBox="0 0 360 360" width="360pt" xmlns="http://www.w3.org/2000/svg" xmlns:xlink="http://www.w3.org/1999/xlink">
 <defs>
  <style type="text/css">
*{stroke-linecap:butt;stroke-linejoin:round;}
  </style>
 </defs>
 <g id="figure_1">
  <g id="patch_1">
   <path d="M 0 360 
L 360 360 
L 360 0 
L 0 0 
z
" style="fill:#ffffff;"/>
  </g>
  <g id="axes_1">
   <g id="patch_2">
    <path d="M 46.011429 315 
L 322.988571 315 
L 322.988571 43.2 
L 46.011429 43.2 
z
" style="fill:#ffffff;"/>
   </g>
   <g id="matplotlib.axis_1">
    <g id="xtick_1">
     <g id="line2d_1">
      <defs>
       <path d="M 0 0 
L 0 3.5 
" id="m5465e229e0" style="stroke:#262626;stroke-width:1.5;"/>
      </defs>
      <g>
       <use style="fill:#262626;stroke:#262626;stroke-width:1.5;" x="51.188571" xlink:href="#m5465e229e0" y="315"/>
      </g>
     </g>
     <g id="text_1">
      <text style="fill:#262626;font-family:Cantarell;font-size:14px;font-style:normal;font-weight:normal;text-anchor:middle;" transform="rotate(-0, 51.188571, 332.051562)" x="51.188571" y="332.051562">0.0</text>
     </g>
    </g>
    <g id="xtick_2">
     <g id="line2d_2">
      <g>
       <use style="fill:#262626;stroke:#262626;stroke-width:1.5;" x="102.96" xlink:href="#m5465e229e0" y="315"/>
      </g>
     </g>
     <g id="text_2">
      <text style="fill:#262626;font-family:Cantarell;font-size:14px;font-style:normal;font-weight:normal;text-anchor:middle;" transform="rotate(-0, 102.96, 332.051562)" x="102.96" y="332.051562">0.2</text>
     </g>
    </g>
    <g id="xtick_3">
     <g id="line2d_3">
      <g>
       <use style="fill:#262626;stroke:#262626;stroke-width:1.5;" x="154.731429" xlink:href="#m5465e229e0" y="315"/>
      </g>
     </g>
     <g id="text_3">
      <text style="fill:#262626;font-family:Cantarell;font-size:14px;font-style:normal;font-weight:normal;text-anchor:middle;" transform="rotate(-0, 154.731429, 332.051562)" x="154.731429" y="332.051562">0.4</text>
     </g>
    </g>
    <g id="xtick_4">
     <g id="line2d_4">
      <g>
       <use style="fill:#262626;stroke:#262626;stroke-width:1.5;" x="206.502857" xlink:href="#m5465e229e0" y="315"/>
      </g>
     </g>
     <g id="text_4">
      <text style="fill:#262626;font-family:Cantarell;font-size:14px;font-style:normal;font-weight:normal;text-anchor:middle;" transform="rotate(-0, 206.502857, 332.051562)" x="206.502857" y="332.051562">0.6</text>
     </g>
    </g>
    <g id="xtick_5">
     <g id="line2d_5">
      <g>
       <use style="fill:#262626;stroke:#262626;stroke-width:1.5;" x="258.274286" xlink:href="#m5465e229e0" y="315"/>
      </g>
     </g>
     <g id="text_5">
      <text style="fill:#262626;font-family:Cantarell;font-size:14px;font-style:normal;font-weight:normal;text-anchor:middle;" transform="rotate(-0, 258.274286, 332.051562)" x="258.274286" y="332.051562">0.8</text>
     </g>
    </g>
    <g id="xtick_6">
     <g id="line2d_6">
      <g>
       <use style="fill:#262626;stroke:#262626;stroke-width:1.5;" x="310.045714" xlink:href="#m5465e229e0" y="315"/>
      </g>
     </g>
     <g id="text_6">
      <text style="fill:#262626;font-family:Cantarell;font-size:14px;font-style:normal;font-weight:normal;text-anchor:middle;" transform="rotate(-0, 310.045714, 332.051562)" x="310.045714" y="332.051562">1.0</text>
     </g>
    </g>
    <g id="text_7">
     <text style="fill:#262626;font-family:Cantarell;font-size:14px;font-style:normal;font-weight:normal;text-anchor:middle;" transform="rotate(-0, 184.5, 349.574687)" x="184.5" y="349.574687">Recall (Positive label: 1.0)</text>
    </g>
   </g>
   <g id="matplotlib.axis_2">
    <g id="ytick_1">
     <g id="line2d_7">
      <defs>
       <path d="M 0 0 
L -3.5 0 
" id="m99332d81cb" style="stroke:#262626;stroke-width:1.5;"/>
      </defs>
      <g>
       <use style="fill:#262626;stroke:#262626;stroke-width:1.5;" x="46.011429" xlink:href="#m99332d81cb" y="315"/>
      </g>
     </g>
     <g id="text_8">
      <text style="fill:#262626;font-family:Cantarell;font-size:14px;font-style:normal;font-weight:normal;text-anchor:end;" transform="rotate(-0, 39.011429, 320.025781)" x="39.011429" y="320.025781">0.0</text>
     </g>
    </g>
    <g id="ytick_2">
     <g id="line2d_8">
      <g>
       <use style="fill:#262626;stroke:#262626;stroke-width:1.5;" x="46.011429" xlink:href="#m99332d81cb" y="263.228571"/>
      </g>
     </g>
     <g id="text_9">
      <text style="fill:#262626;font-family:Cantarell;font-size:14px;font-style:normal;font-weight:normal;text-anchor:end;" transform="rotate(-0, 39.011429, 268.254353)" x="39.011429" y="268.254353">0.2</text>
     </g>
    </g>
    <g id="ytick_3">
     <g id="line2d_9">
      <g>
       <use style="fill:#262626;stroke:#262626;stroke-width:1.5;" x="46.011429" xlink:href="#m99332d81cb" y="211.457143"/>
      </g>
     </g>
     <g id="text_10">
      <text style="fill:#262626;font-family:Cantarell;font-size:14px;font-style:normal;font-weight:normal;text-anchor:end;" transform="rotate(-0, 39.011429, 216.482924)" x="39.011429" y="216.482924">0.4</text>
     </g>
    </g>
    <g id="ytick_4">
     <g id="line2d_10">
      <g>
       <use style="fill:#262626;stroke:#262626;stroke-width:1.5;" x="46.011429" xlink:href="#m99332d81cb" y="159.685714"/>
      </g>
     </g>
     <g id="text_11">
      <text style="fill:#262626;font-family:Cantarell;font-size:14px;font-style:normal;font-weight:normal;text-anchor:end;" transform="rotate(-0, 39.011429, 164.711496)" x="39.011429" y="164.711496">0.6</text>
     </g>
    </g>
    <g id="ytick_5">
     <g id="line2d_11">
      <g>
       <use style="fill:#262626;stroke:#262626;stroke-width:1.5;" x="46.011429" xlink:href="#m99332d81cb" y="107.914286"/>
      </g>
     </g>
     <g id="text_12">
      <text style="fill:#262626;font-family:Cantarell;font-size:14px;font-style:normal;font-weight:normal;text-anchor:end;" transform="rotate(-0, 39.011429, 112.940067)" x="39.011429" y="112.940067">0.8</text>
     </g>
    </g>
    <g id="ytick_6">
     <g id="line2d_12">
      <g>
       <use style="fill:#262626;stroke:#262626;stroke-width:1.5;" x="46.011429" xlink:href="#m99332d81cb" y="56.142857"/>
      </g>
     </g>
     <g id="text_13">
      <text style="fill:#262626;font-family:Cantarell;font-size:14px;font-style:normal;font-weight:normal;text-anchor:end;" transform="rotate(-0, 39.011429, 61.168638)" x="39.011429" y="61.168638">1.0</text>
     </g>
    </g>
    <g id="text_14">
     <text style="fill:#262626;font-family:Cantarell;font-size:14px;font-style:normal;font-weight:normal;text-anchor:middle;" transform="rotate(-90, 11.966116, 179.1)" x="11.966116" y="179.1">Precision (Positive label: 1.0)</text>
    </g>
   </g>
   <g id="line2d_13">
    <path clip-path="url(#pd7e475ea45)" d="M 310.045714 275.641604 
L 300.08967 275.641604 
L 300.08967 276.707523 
L 300.08967 270.059524 
L 290.133626 270.059524 
L 290.133626 270.62449 
L 290.133626 269.981366 
L 280.177582 269.981366 
L 280.177582 271.542231 
L 280.177582 266.595819 
L 270.221538 266.595819 
L 270.221538 267.935065 
L 270.221538 263.694981 
L 260.265495 263.694981 
L 260.265495 265.581818 
L 260.265495 261.705882 
L 250.309451 261.705882 
L 250.309451 263.228571 
L 250.309451 261.627393 
L 240.353407 261.627393 
L 240.353407 262.677812 
L 240.353407 259.11039 
L 230.397363 259.11039 
L 230.397363 259.530612 
L 230.397363 256.757143 
L 220.441319 256.757143 
L 220.441319 258.582418 
L 220.441319 257.097744 
L 210.485275 257.097744 
L 210.485275 258.264188 
L 210.485275 253.183369 
L 200.529231 253.183369 
L 200.529231 256.168831 
L 200.529231 255.263736 
L 190.573187 255.263736 
L 190.573187 257.47619 
L 190.573187 252.517241 
L 180.617143 252.517241 
L 180.617143 252.68254 
L 180.617143 249.016807 
L 170.661099 249.016807 
L 170.661099 252.874286 
L 170.661099 248.908815 
L 160.705055 248.908815 
L 160.705055 251.72381 
L 160.705055 248.780731 
L 150.749011 248.780731 
L 150.749011 253.367347 
L 150.749011 250.285714 
L 140.792967 250.285714 
L 140.792967 255.263736 
L 130.836923 255.263736 
L 130.836923 260.503759 
L 130.836923 241.040816 
L 120.880879 241.040816 
L 120.880879 245.307692 
L 120.880879 242.52 
L 110.924835 242.52 
L 110.924835 250.285714 
L 100.968791 250.285714 
L 100.968791 253.367347 
L 91.012747 253.367347 
L 91.012747 263.228571 
L 91.012747 260.503759 
L 81.056703 260.503759 
L 81.056703 263.228571 
L 81.056703 259.530612 
L 71.100659 259.530612 
L 71.100659 271.857143 
L 61.144615 271.857143 
L 61.144615 289.114286 
L 51.188571 289.114286 
L 51.188571 315 
L 51.188571 56.142857 
L 51.188571 56.142857 
" style="fill:none;stroke:#332345;stroke-linecap:round;stroke-opacity:0.8;stroke-width:3;"/>
   </g>
   <g id="line2d_14">
    <path clip-path="url(#pd7e475ea45)" d="M 310.045714 277.189406 
L 300.08967 277.189406 
L 300.08967 278.438257 
L 300.08967 270.369458 
L 290.133626 270.369458 
L 290.133626 271.555445 
L 280.177582 271.555445 
L 280.177582 272.775076 
L 280.177582 263.674877 
L 270.221538 263.674877 
L 270.221538 264.153061 
L 270.221538 262.269841 
L 260.265495 262.269841 
L 260.265495 263.716981 
L 260.265495 262.223301 
L 240.353407 262.223301 
L 240.353407 264.813411 
L 240.353407 259.11039 
L 220.441319 259.11039 
L 220.441319 263.830565 
L 210.485275 263.830565 
L 210.485275 265.693878 
L 210.485275 262.573237 
L 200.529231 262.573237 
L 200.529231 263.909774 
L 190.573187 263.909774 
L 190.573187 266.027027 
L 190.573187 262.478261 
L 180.617143 262.478261 
L 180.617143 264.773987 
L 180.617143 257.96368 
L 160.705055 257.96368 
L 160.705055 264.153061 
L 150.749011 264.153061 
L 150.749011 267.935065 
L 140.792967 267.935065 
L 140.792967 271.857143 
L 140.792967 265.431611 
L 130.836923 265.431611 
L 130.836923 267.935065 
L 120.880879 267.935065 
L 120.880879 270.804878 
L 120.880879 269.7 
L 110.924835 269.7 
L 110.924835 275.175824 
L 110.924835 266.464286 
L 100.968791 266.464286 
L 100.968791 268.77551 
L 100.968791 263.228571 
L 91.012747 263.228571 
L 91.012747 271.857143 
L 91.012747 267.935065 
L 81.056703 267.935065 
L 81.056703 278.020408 
L 71.100659 278.020408 
L 71.100659 287.75188 
L 71.100659 282.642857 
L 61.144615 282.642857 
L 61.144615 297.742857 
L 61.144615 295.087912 
L 51.188571 295.087912 
L 51.188571 315 
L 51.188571 56.142857 
L 51.188571 56.142857 
" style="fill:none;stroke:#40498e;stroke-linecap:round;stroke-opacity:0.8;stroke-width:3;"/>
   </g>
   <g id="line2d_15">
    <path clip-path="url(#pd7e475ea45)" d="M 310.045714 272.935714 
L 300.08967 272.935714 
L 300.08967 274.299191 
L 300.08967 272.703081 
L 290.133626 272.703081 
L 290.133626 273.857143 
L 290.133626 273.023166 
L 280.177582 273.023166 
L 280.177582 274.221135 
L 280.177582 271.542231 
L 270.221538 271.542231 
L 270.221538 273.12605 
L 270.221538 270.853821 
L 260.265495 270.853821 
L 260.265495 271.857143 
L 260.265495 271.16129 
L 250.309451 271.16129 
L 250.309451 272.213695 
L 240.353407 272.213695 
L 240.353407 272.600985 
L 240.353407 268.601078 
L 230.397363 268.601078 
L 230.397363 270.197802 
L 230.397363 267.935065 
L 220.441319 267.935065 
L 220.441319 269.633284 
L 210.485275 269.633284 
L 210.485275 271.403008 
L 200.529231 271.403008 
L 200.529231 272.795031 
L 200.529231 271.857143 
L 190.573187 271.857143 
L 190.573187 273.818182 
L 190.573187 263.957746 
L 180.617143 263.957746 
L 180.617143 265.512605 
L 180.617143 264.773987 
L 170.661099 264.773987 
L 170.661099 267.210989 
L 170.661099 261.44335 
L 160.705055 261.44335 
L 160.705055 263.228571 
L 160.705055 260.241758 
L 150.749011 260.241758 
L 150.749011 264.243697 
L 150.749011 263.228571 
L 140.792967 263.228571 
L 140.792967 264.354037 
L 130.836923 264.354037 
L 130.836923 267.935065 
L 130.836923 266.840532 
L 120.880879 266.840532 
L 120.880879 269.7 
L 120.880879 268.538462 
L 110.924835 268.538462 
L 110.924835 274.12782 
L 100.968791 274.12782 
L 100.968791 279.047619 
L 100.968791 276.932773 
L 91.012747 276.932773 
L 91.012747 282.642857 
L 91.012747 278.020408 
L 81.056703 278.020408 
L 81.056703 285.131868 
L 71.100659 285.131868 
L 71.100659 294.291429 
L 61.144615 294.291429 
L 61.144615 304.214286 
L 61.144615 302.673469 
L 51.188571 302.673469 
L 51.188571 315 
L 51.188571 56.142857 
L 51.188571 56.142857 
" style="fill:none;stroke:#357ba3;stroke-linecap:round;stroke-opacity:0.8;stroke-width:3;"/>
   </g>
   <g id="line2d_16">
    <path clip-path="url(#pd7e475ea45)" d="M 310.045714 278.42236 
L 300.08967 278.42236 
L 300.08967 279.637002 
L 300.08967 276.248931 
L 290.133626 276.248931 
L 290.133626 277.574871 
L 290.133626 276.650794 
L 280.177582 276.650794 
L 280.177582 277.555256 
L 280.177582 272.775076 
L 270.221538 272.775076 
L 270.221538 274.029805 
L 270.221538 271.193407 
L 260.265495 271.193407 
L 260.265495 272.53125 
L 260.265495 270.804878 
L 250.309451 270.804878 
L 250.309451 272.213695 
L 250.309451 270.369458 
L 240.353407 270.369458 
L 240.353407 271.475348 
L 240.353407 269.460317 
L 230.397363 269.460317 
L 230.397363 271.453939 
L 220.441319 271.453939 
L 220.441319 272.276006 
L 220.441319 267.682028 
L 210.485275 267.682028 
L 210.485275 269.981366 
L 200.529231 269.981366 
L 200.529231 272.33124 
L 200.529231 268.218589 
L 190.573187 268.218589 
L 190.573187 269.7 
L 190.573187 265.356164 
L 170.661099 265.356164 
L 170.661099 270.62449 
L 170.661099 264.077283 
L 160.705055 264.077283 
L 160.705055 267.542857 
L 160.705055 263.228571 
L 150.749011 263.228571 
L 150.749011 264.243697 
L 150.749011 254.800664 
L 140.792967 254.800664 
L 140.792967 258.1777 
L 130.836923 258.1777 
L 130.836923 261.901099 
L 130.836923 260.503759 
L 120.880879 260.503759 
L 120.880879 261.705882 
L 120.880879 252.517241 
L 110.924835 252.517241 
L 110.924835 259.530612 
L 110.924835 247.47205 
L 91.012747 247.47205 
L 91.012747 265.693878 
L 81.056703 265.693878 
L 81.056703 274.12782 
L 71.100659 274.12782 
L 71.100659 286.238095 
L 71.100659 267.935065 
L 61.144615 267.935065 
L 61.144615 286.238095 
L 61.144615 278.020408 
L 51.188571 278.020408 
L 51.188571 315 
L 51.188571 56.142857 
L 51.188571 56.142857 
" style="fill:none;stroke:#38aaac;stroke-linecap:round;stroke-opacity:0.8;stroke-width:3;"/>
   </g>
   <g id="line2d_17">
    <path clip-path="url(#pd7e475ea45)" d="M 310.045714 267.267477 
L 300.08967 267.267477 
L 300.08967 268.77551 
L 300.08967 267.415966 
L 290.133626 267.415966 
L 290.133626 268.980952 
L 290.133626 266.464286 
L 280.177582 266.464286 
L 280.177582 267.748299 
L 280.177582 266.199063 
L 270.221538 266.199063 
L 270.221538 267.144058 
L 270.221538 263.694981 
L 260.265495 263.694981 
L 260.265495 265.12844 
L 260.265495 260.090909 
L 250.309451 260.090909 
L 250.309451 262.172012 
L 250.309451 261.071429 
L 230.397363 261.071429 
L 230.397363 263.797488 
L 230.397363 262.051948 
L 220.441319 262.051948 
L 220.441319 263.228571 
L 220.441319 261.334495 
L 210.485275 261.334495 
L 210.485275 263.228571 
L 200.529231 263.228571 
L 200.529231 265.21978 
L 190.573187 265.21978 
L 190.573187 267.935065 
L 190.573187 263.957746 
L 180.617143 263.957746 
L 180.617143 266.229814 
L 180.617143 264.773987 
L 170.661099 264.773987 
L 170.661099 267.935065 
L 170.661099 256.390836 
L 160.705055 256.390836 
L 160.705055 259.168067 
L 150.749011 259.168067 
L 150.749011 263.228571 
L 150.749011 258.726708 
L 140.792967 258.726708 
L 140.792967 263.228571 
L 140.792967 246.478992 
L 130.836923 246.478992 
L 130.836923 252.246753 
L 120.880879 252.246753 
L 120.880879 258.375 
L 120.880879 232.636364 
L 91.012747 232.636364 
L 91.012747 257.47619 
L 81.056703 257.47619 
L 81.056703 269.319328 
L 81.056703 266.464286 
L 71.100659 266.464286 
L 71.100659 280.485714 
L 71.100659 257.47619 
L 61.144615 257.47619 
L 61.144615 278.020408 
L 51.188571 278.020408 
L 51.188571 315 
L 51.188571 56.142857 
L 51.188571 56.142857 
" style="fill:none;stroke:#79d6ae;stroke-linecap:round;stroke-opacity:0.8;stroke-width:3;"/>
   </g>
   <g id="line2d_18"/>
   <g id="patch_3">
    <path d="M 46.011429 315 
L 46.011429 43.2 
" style="fill:none;stroke:#262626;stroke-linecap:square;stroke-linejoin:miter;stroke-width:1.5;"/>
   </g>
   <g id="patch_4">
    <path d="M 46.011429 315 
L 322.988571 315 
" style="fill:none;stroke:#262626;stroke-linecap:square;stroke-linejoin:miter;stroke-width:1.5;"/>
   </g>
   <g id="text_15">
    <text style="fill:#262626;font-family:Cantarell;font-size:16.8px;font-style:normal;font-weight:normal;text-anchor:middle;" transform="rotate(-0, 184.5, 37.2)" x="184.5" y="37.2">Precision recall: Full_dataset_AA</text>
   </g>
   <g id="legend_1">
    <g id="line2d_19">
     <path style="fill:none;stroke:#332345;stroke-linecap:round;stroke-opacity:0.8;stroke-width:3;"/>
    </g>
    <g id="line2d_20"/>
    <g id="text_16">
     <text style="fill:#262626;font-family:Cantarell;font-size:14px;font-style:normal;font-weight:normal;text-anchor:start;" transform="rotate(-0, 11.746563, 379.292656)" x="11.746563" y="379.292656">AP fold 0 (AP = 0.22)</text>
    </g>
    <g id="line2d_21">
     <path style="fill:none;stroke:#40498e;stroke-linecap:round;stroke-opacity:0.8;stroke-width:3;"/>
    </g>
    <g id="line2d_22"/>
    <g id="text_17">
     <text style="fill:#262626;font-family:Cantarell;font-size:14px;font-style:normal;font-weight:normal;text-anchor:start;" transform="rotate(-0, 11.746563, 399.815781)" x="11.746563" y="399.815781">AP fold 1 (AP = 0.18)</text>
    </g>
    <g id="line2d_23">
     <path style="fill:none;stroke:#357ba3;stroke-linecap:round;stroke-opacity:0.8;stroke-width:3;"/>
    </g>
    <g id="line2d_24"/>
    <g id="text_18">
     <text style="fill:#262626;font-family:Cantarell;font-size:14px;font-style:normal;font-weight:normal;text-anchor:start;" transform="rotate(-0, 11.746563, 420.338906)" x="11.746563" y="420.338906">AP fold 2 (AP = 0.17)</text>
    </g>
    <g id="line2d_25">
     <path style="fill:none;stroke:#38aaac;stroke-linecap:round;stroke-opacity:0.8;stroke-width:3;"/>
    </g>
    <g id="line2d_26"/>
    <g id="text_19">
     <text style="fill:#262626;font-family:Cantarell;font-size:14px;font-style:normal;font-weight:normal;text-anchor:start;" transform="rotate(-0, 209.273438, 379.292656)" x="209.273438" y="379.292656">AP fold 3 (AP = 0.19)</text>
    </g>
    <g id="line2d_27">
     <path style="fill:none;stroke:#79d6ae;stroke-linecap:round;stroke-opacity:0.8;stroke-width:3;"/>
    </g>
    <g id="line2d_28"/>
    <g id="text_20">
     <text style="fill:#262626;font-family:Cantarell;font-size:14px;font-style:normal;font-weight:normal;text-anchor:start;" transform="rotate(-0, 209.273438, 399.815781)" x="209.273438" y="399.815781">AP fold 4 (AP = 0.22)</text>
    </g>
    <g id="line2d_29"/>
    <g id="line2d_30"/>
    <g id="text_21">
     <!-- Mean ave. prec. = 0.19 $\pm$ 0.02 -->
     <g style="fill:#262626;" transform="translate(209.273438 420.338906)">
      <text>
       <tspan style="font-family:Cantarell;font-size:14px;font-style:regular;font-weight:regular;" x="0 11.829987 19.039978 25.773972 33.305969 37.12796 43.861954 50.44194 57.651932 61.151932 64.973923 72.757919 77.811905 85.021896 91.825882 95.325882 99.147873 108.709869 112.53186 120.567856 124.067856 132.103851 140.139847 155.692307 159.514297 167.550293 171.050293 179.086288" y="-0.109375">Mean ave. prec. = 0.19  0.02</tspan>
       <tspan style="font-family:DejaVu Sans;font-size:14px;font-style:book;font-weight:book;" x="143.961838" y="-0.109375">±</tspan>
      </text>
     </g>
    </g>
   </g>
  </g>
 </g>
 <defs>
  <clipPath id="pd7e475ea45">
   <rect height="271.8" width="276.977143" x="46.011429" y="43.2"/>
  </clipPath>
 </defs>
</svg>
