<?xml version="1.0" encoding="utf-8" standalone="no"?>
<!DOCTYPE svg PUBLIC "-//W3C//DTD SVG 1.1//EN"
  "http://www.w3.org/Graphics/SVG/1.1/DTD/svg11.dtd">
<svg xmlns:xlink="http://www.w3.org/1999/xlink" width="360pt" height="360pt" viewBox="0 0 360 360" xmlns="http://www.w3.org/2000/svg" version="1.1">
 <metadata>
  <rdf:RDF xmlns:dc="http://purl.org/dc/elements/1.1/" xmlns:cc="http://creativecommons.org/ns#" xmlns:rdf="http://www.w3.org/1999/02/22-rdf-syntax-ns#">
   <cc:Work>
    <dc:type rdf:resource="http://purl.org/dc/dcmitype/StillImage"/>
    <dc:date>2023-12-05T13:48:32.442028</dc:date>
    <dc:format>image/svg+xml</dc:format>
    <dc:creator>
     <cc:Agent>
      <dc:title>Matplotlib v3.5.3, https://matplotlib.org/</dc:title>
     </cc:Agent>
    </dc:creator>
   </cc:Work>
  </rdf:RDF>
 </metadata>
 <defs>
  <style type="text/css">*{stroke-linejoin: round; stroke-linecap: butt}</style>
 </defs>
 <g id="figure_1">
  <g id="patch_1">
   <path d="M 0 360 
L 360 360 
L 360 0 
L 0 0 
z
" style="fill: #ffffff"/>
  </g>
  <g id="axes_1">
   <g id="patch_2">
    <path d="M 45 318.692523 
L 324 318.692523 
L 324 44.907477 
L 45 44.907477 
z
" style="fill: #ffffff"/>
   </g>
   <g id="matplotlib.axis_1">
    <g id="xtick_1">
     <g id="line2d_1">
      <defs>
       <path id="mabc2dea754" d="M 0 0 
L 0 3.5 
" style="stroke: #262626; stroke-width: 1.5"/>
      </defs>
      <g>
       <use xlink:href="#mabc2dea754" x="50.214953" y="318.692523" style="fill: #262626; stroke: #262626; stroke-width: 1.5"/>
      </g>
     </g>
     <g id="text_1">
      <text style="fill: #262626; font: 14px 'sans-serif'; text-anchor: middle" x="50.214953" y="336.330336" transform="rotate(-0, 50.214953, 336.330336)">0.0</text>
     </g>
    </g>
    <g id="xtick_2">
     <g id="line2d_2">
      <g>
       <use xlink:href="#mabc2dea754" x="102.364486" y="318.692523" style="fill: #262626; stroke: #262626; stroke-width: 1.5"/>
      </g>
     </g>
     <g id="text_2">
      <text style="fill: #262626; font: 14px 'sans-serif'; text-anchor: middle" x="102.364486" y="336.330336" transform="rotate(-0, 102.364486, 336.330336)">0.2</text>
     </g>
    </g>
    <g id="xtick_3">
     <g id="line2d_3">
      <g>
       <use xlink:href="#mabc2dea754" x="154.514019" y="318.692523" style="fill: #262626; stroke: #262626; stroke-width: 1.5"/>
      </g>
     </g>
     <g id="text_3">
      <text style="fill: #262626; font: 14px 'sans-serif'; text-anchor: middle" x="154.514019" y="336.330336" transform="rotate(-0, 154.514019, 336.330336)">0.4</text>
     </g>
    </g>
    <g id="xtick_4">
     <g id="line2d_4">
      <g>
       <use xlink:href="#mabc2dea754" x="206.663551" y="318.692523" style="fill: #262626; stroke: #262626; stroke-width: 1.5"/>
      </g>
     </g>
     <g id="text_4">
      <text style="fill: #262626; font: 14px 'sans-serif'; text-anchor: middle" x="206.663551" y="336.330336" transform="rotate(-0, 206.663551, 336.330336)">0.6</text>
     </g>
    </g>
    <g id="xtick_5">
     <g id="line2d_5">
      <g>
       <use xlink:href="#mabc2dea754" x="258.813084" y="318.692523" style="fill: #262626; stroke: #262626; stroke-width: 1.5"/>
      </g>
     </g>
     <g id="text_5">
      <text style="fill: #262626; font: 14px 'sans-serif'; text-anchor: middle" x="258.813084" y="336.330336" transform="rotate(-0, 258.813084, 336.330336)">0.8</text>
     </g>
    </g>
    <g id="xtick_6">
     <g id="line2d_6">
      <g>
       <use xlink:href="#mabc2dea754" x="310.962617" y="318.692523" style="fill: #262626; stroke: #262626; stroke-width: 1.5"/>
      </g>
     </g>
     <g id="text_6">
      <text style="fill: #262626; font: 14px 'sans-serif'; text-anchor: middle" x="310.962617" y="336.330336" transform="rotate(-0, 310.962617, 336.330336)">1.0</text>
     </g>
    </g>
    <g id="text_7">
     <text style="fill: #262626; font: 14px 'sans-serif'; text-anchor: middle" x="184.5" y="353.879711" transform="rotate(-0, 184.5, 353.879711)">Recall (Positive label: 1.0)</text>
    </g>
   </g>
   <g id="matplotlib.axis_2">
    <g id="ytick_1">
     <g id="line2d_7">
      <defs>
       <path id="m96e2ff0c5a" d="M 0 0 
L -3.5 0 
" style="stroke: #262626; stroke-width: 1.5"/>
      </defs>
      <g>
       <use xlink:href="#m96e2ff0c5a" x="45" y="318.692523" style="fill: #262626; stroke: #262626; stroke-width: 1.5"/>
      </g>
     </g>
     <g id="text_8">
      <text style="fill: #262626; font: 14px 'sans-serif'; text-anchor: end" x="38" y="324.01143" transform="rotate(-0, 38, 324.01143)">0.0</text>
     </g>
    </g>
    <g id="ytick_2">
     <g id="line2d_8">
      <g>
       <use xlink:href="#m96e2ff0c5a" x="45" y="266.542991" style="fill: #262626; stroke: #262626; stroke-width: 1.5"/>
      </g>
     </g>
     <g id="text_9">
      <text style="fill: #262626; font: 14px 'sans-serif'; text-anchor: end" x="38" y="271.861897" transform="rotate(-0, 38, 271.861897)">0.2</text>
     </g>
    </g>
    <g id="ytick_3">
     <g id="line2d_9">
      <g>
       <use xlink:href="#m96e2ff0c5a" x="45" y="214.393458" style="fill: #262626; stroke: #262626; stroke-width: 1.5"/>
      </g>
     </g>
     <g id="text_10">
      <text style="fill: #262626; font: 14px 'sans-serif'; text-anchor: end" x="38" y="219.712364" transform="rotate(-0, 38, 219.712364)">0.4</text>
     </g>
    </g>
    <g id="ytick_4">
     <g id="line2d_10">
      <g>
       <use xlink:href="#m96e2ff0c5a" x="45" y="162.243925" style="fill: #262626; stroke: #262626; stroke-width: 1.5"/>
      </g>
     </g>
     <g id="text_11">
      <text style="fill: #262626; font: 14px 'sans-serif'; text-anchor: end" x="38" y="167.562831" transform="rotate(-0, 38, 167.562831)">0.6</text>
     </g>
    </g>
    <g id="ytick_5">
     <g id="line2d_11">
      <g>
       <use xlink:href="#m96e2ff0c5a" x="45" y="110.094393" style="fill: #262626; stroke: #262626; stroke-width: 1.5"/>
      </g>
     </g>
     <g id="text_12">
      <text style="fill: #262626; font: 14px 'sans-serif'; text-anchor: end" x="38" y="115.413299" transform="rotate(-0, 38, 115.413299)">0.8</text>
     </g>
    </g>
    <g id="ytick_6">
     <g id="line2d_12">
      <g>
       <use xlink:href="#m96e2ff0c5a" x="45" y="57.94486" style="fill: #262626; stroke: #262626; stroke-width: 1.5"/>
      </g>
     </g>
     <g id="text_13">
      <text style="fill: #262626; font: 14px 'sans-serif'; text-anchor: end" x="38" y="63.263766" transform="rotate(-0, 38, 63.263766)">1.0</text>
     </g>
    </g>
    <g id="text_14">
     <text style="fill: #262626; font: 14px 'sans-serif'; text-anchor: middle" x="8.824063" y="181.8" transform="rotate(-90, 8.824063, 181.8)">Precision (Positive label: 1.0)</text>
    </g>
   </g>
   <g id="line2d_13">
    <path d="M 310.962617 272.130441 
L 258.813084 272.130441 
L 258.813084 280.06324 
L 258.813084 280.06324 
L 258.813084 278.577498 
L 258.813084 278.577498 
L 258.813084 275.234579 
L 258.813084 275.234579 
L 258.813084 273.345104 
L 258.813084 273.345104 
L 258.813084 271.283857 
L 258.813084 271.283857 
L 258.813084 269.026302 
L 258.813084 269.026302 
L 258.813084 266.542991 
L 206.663551 266.542991 
L 206.663551 277.52184 
L 206.663551 277.52184 
L 206.663551 275.234579 
L 206.663551 275.234579 
L 206.663551 272.67823 
L 206.663551 272.67823 
L 206.663551 269.802336 
L 206.663551 269.802336 
L 206.663551 266.542991 
L 206.663551 266.542991 
L 206.663551 262.818024 
L 206.663551 262.818024 
L 206.663551 258.519986 
L 206.663551 258.519986 
L 206.663551 253.505607 
L 206.663551 253.505607 
L 206.663551 247.579524 
L 206.663551 247.579524 
L 206.663551 240.468224 
L 206.663551 240.468224 
L 206.663551 231.776636 
L 206.663551 231.776636 
L 206.663551 220.91215 
L 206.663551 220.91215 
L 206.663551 206.943525 
L 206.663551 206.943525 
L 206.663551 188.318692 
L 206.663551 188.318692 
L 206.663551 162.243925 
L 206.663551 162.243925 
L 206.663551 123.131776 
L 206.663551 123.131776 
L 206.663551 57.94486 
L 154.514019 57.94486 
L 154.514019 57.94486 
L 102.364486 57.94486 
L 102.364486 57.94486 
L 50.214953 57.94486 
L 50.214953 57.94486 
" clip-path="url(#p99b12a8f2f)" style="fill: none; stroke: #332345; stroke-opacity: 0.8; stroke-width: 3; stroke-linecap: round"/>
   </g>
   <g id="line2d_14">
    <path d="M 310.962617 132.444192 
L 258.813084 132.444192 
L 258.813084 144.860748 
L 258.813084 144.860748 
L 258.813084 110.094393 
L 206.663551 110.094393 
L 206.663551 123.131776 
L 206.663551 123.131776 
L 206.663551 57.94486 
L 154.514019 57.94486 
L 154.514019 57.94486 
L 102.364486 57.94486 
L 102.364486 57.94486 
L 50.214953 57.94486 
L 50.214953 57.94486 
" clip-path="url(#p99b12a8f2f)" style="fill: none; stroke: #40498e; stroke-opacity: 0.8; stroke-width: 3; stroke-linecap: round"/>
   </g>
   <g id="line2d_15">
    <path d="M 310.962617 223.875191 
L 245.775701 223.875191 
L 245.775701 240.468224 
L 245.775701 240.468224 
L 245.775701 231.776636 
L 245.775701 231.776636 
L 245.775701 220.91215 
L 245.775701 220.91215 
L 245.775701 206.943525 
L 245.775701 206.943525 
L 245.775701 188.318692 
L 245.775701 188.318692 
L 245.775701 162.243925 
L 180.588785 162.243925 
L 180.588785 188.318692 
L 115.401869 188.318692 
L 115.401869 231.776636 
L 50.214953 231.776636 
L 50.214953 318.692523 
L 50.214953 318.692523 
L 50.214953 318.692523 
L 50.214953 318.692523 
L 50.214953 57.94486 
" clip-path="url(#p99b12a8f2f)" style="fill: none; stroke: #357ba3; stroke-opacity: 0.8; stroke-width: 3; stroke-linecap: round"/>
   </g>
   <g id="line2d_16">
    <path d="M 310.962617 259.431691 
L 258.813084 259.431691 
L 258.813084 269.026302 
L 258.813084 269.026302 
L 258.813084 266.542991 
L 258.813084 266.542991 
L 258.813084 263.798278 
L 258.813084 263.798278 
L 258.813084 260.748598 
L 258.813084 260.748598 
L 258.813084 257.340132 
L 258.813084 257.340132 
L 258.813084 253.505607 
L 258.813084 253.505607 
L 258.813084 249.159813 
L 258.813084 249.159813 
L 258.813084 244.193191 
L 258.813084 244.193191 
L 258.813084 238.462473 
L 258.813084 238.462473 
L 258.813084 231.776636 
L 258.813084 231.776636 
L 258.813084 223.875191 
L 258.813084 223.875191 
L 258.813084 214.393458 
L 258.813084 214.393458 
L 258.813084 202.804673 
L 258.813084 202.804673 
L 258.813084 188.318692 
L 258.813084 188.318692 
L 258.813084 169.693858 
L 258.813084 169.693858 
L 258.813084 144.860748 
L 206.663551 144.860748 
L 206.663551 162.243925 
L 206.663551 162.243925 
L 206.663551 123.131776 
L 206.663551 123.131776 
L 206.663551 57.94486 
L 154.514019 57.94486 
L 154.514019 57.94486 
L 102.364486 57.94486 
L 102.364486 57.94486 
L 50.214953 57.94486 
L 50.214953 57.94486 
" clip-path="url(#p99b12a8f2f)" style="fill: none; stroke: #38aaac; stroke-opacity: 0.8; stroke-width: 3; stroke-linecap: round"/>
   </g>
   <g id="line2d_17">
    <path d="M 310.962617 272.130441 
L 258.813084 272.130441 
L 258.813084 280.06324 
L 258.813084 280.06324 
L 258.813084 278.577498 
L 258.813084 278.577498 
L 258.813084 276.972897 
L 258.813084 276.972897 
L 258.813084 275.234579 
L 258.813084 275.234579 
L 258.813084 273.345104 
L 258.813084 273.345104 
L 258.813084 271.283857 
L 258.813084 271.283857 
L 258.813084 269.026302 
L 258.813084 269.026302 
L 258.813084 266.542991 
L 258.813084 266.542991 
L 258.813084 263.798278 
L 258.813084 263.798278 
L 258.813084 260.748598 
L 258.813084 260.748598 
L 258.813084 257.340132 
L 258.813084 257.340132 
L 258.813084 253.505607 
L 258.813084 253.505607 
L 258.813084 249.159813 
L 258.813084 249.159813 
L 258.813084 244.193191 
L 258.813084 244.193191 
L 258.813084 238.462473 
L 258.813084 238.462473 
L 258.813084 231.776636 
L 258.813084 231.776636 
L 258.813084 223.875191 
L 206.663551 223.875191 
L 206.663551 240.468224 
L 206.663551 240.468224 
L 206.663551 231.776636 
L 206.663551 231.776636 
L 206.663551 220.91215 
L 206.663551 220.91215 
L 206.663551 206.943525 
L 206.663551 206.943525 
L 206.663551 188.318692 
L 206.663551 188.318692 
L 206.663551 162.243925 
L 154.514019 162.243925 
L 154.514019 188.318692 
L 102.364486 188.318692 
L 102.364486 231.776636 
L 102.364486 231.776636 
L 102.364486 188.318692 
L 102.364486 188.318692 
L 102.364486 57.94486 
L 50.214953 57.94486 
L 50.214953 57.94486 
" clip-path="url(#p99b12a8f2f)" style="fill: none; stroke: #79d6ae; stroke-opacity: 0.8; stroke-width: 3; stroke-linecap: round"/>
   </g>
   <g id="line2d_18"/>
   <g id="patch_3">
    <path d="M 45 318.692523 
L 45 44.907477 
" style="fill: none; stroke: #262626; stroke-width: 1.5; stroke-linejoin: miter; stroke-linecap: square"/>
   </g>
   <g id="patch_4">
    <path d="M 45 318.692523 
L 324 318.692523 
" style="fill: none; stroke: #262626; stroke-width: 1.5; stroke-linejoin: miter; stroke-linecap: square"/>
   </g>
   <g id="text_15">
    <text style="fill: #262626; font: 16.8px 'sans-serif'; text-anchor: middle" x="184.5" y="38.907477" transform="rotate(-0, 184.5, 38.907477)">Precision recall: Flp_model_context-2</text>
   </g>
   <g id="legend_1">
    <g id="line2d_19">
     <path style="fill: none; stroke: #332345; stroke-opacity: 0.8; stroke-width: 3; stroke-linecap: round"/>
    </g>
    <g id="text_16">
     <text style="fill: #262626; font: 14px 'sans-serif'; text-anchor: start" x="-11.155469" y="384.127569" transform="rotate(-0, -11.155469, 384.127569)">AP fold 0 (AP = 0.68)</text>
    </g>
    <g id="line2d_20">
     <path style="fill: none; stroke: #40498e; stroke-opacity: 0.8; stroke-width: 3; stroke-linecap: round"/>
    </g>
    <g id="text_17">
     <text style="fill: #262626; font: 14px 'sans-serif'; text-anchor: start" x="-11.155469" y="404.676944" transform="rotate(-0, -11.155469, 404.676944)">AP fold 1 (AP = 0.90)</text>
    </g>
    <g id="line2d_21">
     <path style="fill: none; stroke: #357ba3; stroke-opacity: 0.8; stroke-width: 3; stroke-linecap: round"/>
    </g>
    <g id="text_18">
     <text style="fill: #262626; font: 14px 'sans-serif'; text-anchor: start" x="-11.155469" y="425.226319" transform="rotate(-0, -11.155469, 425.226319)">AP fold 2 (AP = 0.45)</text>
    </g>
    <g id="line2d_22">
     <path style="fill: none; stroke: #38aaac; stroke-opacity: 0.8; stroke-width: 3; stroke-linecap: round"/>
    </g>
    <g id="text_19">
     <text style="fill: #262626; font: 14px 'sans-serif'; text-anchor: start" x="203.335469" y="384.127569" transform="rotate(-0, 203.335469, 384.127569)">AP fold 3 (AP = 0.78)</text>
    </g>
    <g id="line2d_23">
     <path style="fill: none; stroke: #79d6ae; stroke-opacity: 0.8; stroke-width: 3; stroke-linecap: round"/>
    </g>
    <g id="text_20">
     <text style="fill: #262626; font: 14px 'sans-serif'; text-anchor: start" x="203.335469" y="404.676944" transform="rotate(-0, 203.335469, 404.676944)">AP fold 4 (AP = 0.53)</text>
    </g>
    <g id="line2d_24"/>
    <g id="text_21">
     <!-- Mean ave. prec. = 0.67 $\pm$ 0.16 -->
     <g style="fill: #262626" transform="translate(203.335469 425.226319)">
      <text>
       <tspan style="font: 14px 'DejaVu Sans'" x="0 12.079102 20.692383 29.271484 38.144531 42.594727 51.173828 59.458984 68.072266 72.522461 76.972656 85.859375 91.615234 100.228516 107.925781 112.375977 116.826172 128.556641 133.006836 141.914062 146.364258 155.271484 164.178711 168.628906 180.359375 184.80957 193.716797 198.166992 207.074219" y="-0.609375">Mean ave. prec. = 0.67 ± 0.16</tspan>
      </text>
     </g>
    </g>
   </g>
  </g>
 </g>
 <defs>
  <clipPath id="p99b12a8f2f">
   <rect x="45" y="44.907477" width="279" height="273.785047"/>
  </clipPath>
 </defs>
</svg>
