<?xml version="1.0" encoding="utf-8" standalone="no"?>
<!DOCTYPE svg PUBLIC "-//W3C//DTD SVG 1.1//EN"
  "http://www.w3.org/Graphics/SVG/1.1/DTD/svg11.dtd">
<svg xmlns:xlink="http://www.w3.org/1999/xlink" width="360pt" height="360pt" viewBox="0 0 360 360" xmlns="http://www.w3.org/2000/svg" version="1.1">
 <metadata>
  <rdf:RDF xmlns:dc="http://purl.org/dc/elements/1.1/" xmlns:cc="http://creativecommons.org/ns#" xmlns:rdf="http://www.w3.org/1999/02/22-rdf-syntax-ns#">
   <cc:Work>
    <dc:type rdf:resource="http://purl.org/dc/dcmitype/StillImage"/>
    <dc:date>2023-12-05T13:48:38.506769</dc:date>
    <dc:format>image/svg+xml</dc:format>
    <dc:creator>
     <cc:Agent>
      <dc:title>Matplotlib v3.5.3, https://matplotlib.org/</dc:title>
     </cc:Agent>
    </dc:creator>
   </cc:Work>
  </rdf:RDF>
 </metadata>
 <defs>
  <style type="text/css">*{stroke-linejoin: round; stroke-linecap: butt}</style>
 </defs>
 <g id="figure_1">
  <g id="patch_1">
   <path d="M 0 360 
L 360 360 
L 360 0 
L 0 0 
z
" style="fill: #ffffff"/>
  </g>
  <g id="axes_1">
   <g id="patch_2">
    <path d="M 45 318.692523 
L 324 318.692523 
L 324 44.907477 
L 45 44.907477 
z
" style="fill: #ffffff"/>
   </g>
   <g id="matplotlib.axis_1">
    <g id="xtick_1">
     <g id="line2d_1">
      <defs>
       <path id="mda363da239" d="M 0 0 
L 0 3.5 
" style="stroke: #262626; stroke-width: 1.5"/>
      </defs>
      <g>
       <use xlink:href="#mda363da239" x="50.214953" y="318.692523" style="fill: #262626; stroke: #262626; stroke-width: 1.5"/>
      </g>
     </g>
     <g id="text_1">
      <text style="fill: #262626; font: 14px 'sans-serif'; text-anchor: middle" x="50.214953" y="336.330336" transform="rotate(-0, 50.214953, 336.330336)">0.0</text>
     </g>
    </g>
    <g id="xtick_2">
     <g id="line2d_2">
      <g>
       <use xlink:href="#mda363da239" x="102.364486" y="318.692523" style="fill: #262626; stroke: #262626; stroke-width: 1.5"/>
      </g>
     </g>
     <g id="text_2">
      <text style="fill: #262626; font: 14px 'sans-serif'; text-anchor: middle" x="102.364486" y="336.330336" transform="rotate(-0, 102.364486, 336.330336)">0.2</text>
     </g>
    </g>
    <g id="xtick_3">
     <g id="line2d_3">
      <g>
       <use xlink:href="#mda363da239" x="154.514019" y="318.692523" style="fill: #262626; stroke: #262626; stroke-width: 1.5"/>
      </g>
     </g>
     <g id="text_3">
      <text style="fill: #262626; font: 14px 'sans-serif'; text-anchor: middle" x="154.514019" y="336.330336" transform="rotate(-0, 154.514019, 336.330336)">0.4</text>
     </g>
    </g>
    <g id="xtick_4">
     <g id="line2d_4">
      <g>
       <use xlink:href="#mda363da239" x="206.663551" y="318.692523" style="fill: #262626; stroke: #262626; stroke-width: 1.5"/>
      </g>
     </g>
     <g id="text_4">
      <text style="fill: #262626; font: 14px 'sans-serif'; text-anchor: middle" x="206.663551" y="336.330336" transform="rotate(-0, 206.663551, 336.330336)">0.6</text>
     </g>
    </g>
    <g id="xtick_5">
     <g id="line2d_5">
      <g>
       <use xlink:href="#mda363da239" x="258.813084" y="318.692523" style="fill: #262626; stroke: #262626; stroke-width: 1.5"/>
      </g>
     </g>
     <g id="text_5">
      <text style="fill: #262626; font: 14px 'sans-serif'; text-anchor: middle" x="258.813084" y="336.330336" transform="rotate(-0, 258.813084, 336.330336)">0.8</text>
     </g>
    </g>
    <g id="xtick_6">
     <g id="line2d_6">
      <g>
       <use xlink:href="#mda363da239" x="310.962617" y="318.692523" style="fill: #262626; stroke: #262626; stroke-width: 1.5"/>
      </g>
     </g>
     <g id="text_6">
      <text style="fill: #262626; font: 14px 'sans-serif'; text-anchor: middle" x="310.962617" y="336.330336" transform="rotate(-0, 310.962617, 336.330336)">1.0</text>
     </g>
    </g>
    <g id="text_7">
     <text style="fill: #262626; font: 14px 'sans-serif'; text-anchor: middle" x="184.5" y="353.879711" transform="rotate(-0, 184.5, 353.879711)">Recall (Positive label: 1.0)</text>
    </g>
   </g>
   <g id="matplotlib.axis_2">
    <g id="ytick_1">
     <g id="line2d_7">
      <defs>
       <path id="m9b0f34a272" d="M 0 0 
L -3.5 0 
" style="stroke: #262626; stroke-width: 1.5"/>
      </defs>
      <g>
       <use xlink:href="#m9b0f34a272" x="45" y="318.692523" style="fill: #262626; stroke: #262626; stroke-width: 1.5"/>
      </g>
     </g>
     <g id="text_8">
      <text style="fill: #262626; font: 14px 'sans-serif'; text-anchor: end" x="38" y="324.01143" transform="rotate(-0, 38, 324.01143)">0.0</text>
     </g>
    </g>
    <g id="ytick_2">
     <g id="line2d_8">
      <g>
       <use xlink:href="#m9b0f34a272" x="45" y="266.542991" style="fill: #262626; stroke: #262626; stroke-width: 1.5"/>
      </g>
     </g>
     <g id="text_9">
      <text style="fill: #262626; font: 14px 'sans-serif'; text-anchor: end" x="38" y="271.861897" transform="rotate(-0, 38, 271.861897)">0.2</text>
     </g>
    </g>
    <g id="ytick_3">
     <g id="line2d_9">
      <g>
       <use xlink:href="#m9b0f34a272" x="45" y="214.393458" style="fill: #262626; stroke: #262626; stroke-width: 1.5"/>
      </g>
     </g>
     <g id="text_10">
      <text style="fill: #262626; font: 14px 'sans-serif'; text-anchor: end" x="38" y="219.712364" transform="rotate(-0, 38, 219.712364)">0.4</text>
     </g>
    </g>
    <g id="ytick_4">
     <g id="line2d_10">
      <g>
       <use xlink:href="#m9b0f34a272" x="45" y="162.243925" style="fill: #262626; stroke: #262626; stroke-width: 1.5"/>
      </g>
     </g>
     <g id="text_11">
      <text style="fill: #262626; font: 14px 'sans-serif'; text-anchor: end" x="38" y="167.562831" transform="rotate(-0, 38, 167.562831)">0.6</text>
     </g>
    </g>
    <g id="ytick_5">
     <g id="line2d_11">
      <g>
       <use xlink:href="#m9b0f34a272" x="45" y="110.094393" style="fill: #262626; stroke: #262626; stroke-width: 1.5"/>
      </g>
     </g>
     <g id="text_12">
      <text style="fill: #262626; font: 14px 'sans-serif'; text-anchor: end" x="38" y="115.413299" transform="rotate(-0, 38, 115.413299)">0.8</text>
     </g>
    </g>
    <g id="ytick_6">
     <g id="line2d_12">
      <g>
       <use xlink:href="#m9b0f34a272" x="45" y="57.94486" style="fill: #262626; stroke: #262626; stroke-width: 1.5"/>
      </g>
     </g>
     <g id="text_13">
      <text style="fill: #262626; font: 14px 'sans-serif'; text-anchor: end" x="38" y="63.263766" transform="rotate(-0, 38, 63.263766)">1.0</text>
     </g>
    </g>
    <g id="text_14">
     <text style="fill: #262626; font: 14px 'sans-serif'; text-anchor: middle" x="8.824063" y="181.8" transform="rotate(-90, 8.824063, 181.8)">Precision (Positive label: 1.0)</text>
    </g>
   </g>
   <g id="line2d_13">
    <path d="M 310.962617 254.126435 
L 300.933861 254.126435 
L 300.933861 256.012797 
L 300.933861 254.783782 
L 290.905104 254.783782 
L 290.905104 256.732683 
L 290.905104 223.875191 
L 280.876348 223.875191 
L 280.876348 226.427965 
L 280.876348 218.739252 
L 270.847592 218.739252 
L 270.847592 221.464581 
L 270.847592 216.255941 
L 260.818835 216.255941 
L 260.818835 219.134325 
L 250.790079 219.134325 
L 250.790079 222.119315 
L 240.761323 222.119315 
L 240.761323 225.216946 
L 240.761323 219.608411 
L 230.732566 219.608411 
L 230.732566 222.907667 
L 230.732566 198.347448 
L 220.70381 198.347448 
L 220.70381 202.042253 
L 220.70381 192.043658 
L 210.675054 192.043658 
L 210.675054 195.987741 
L 210.675054 179.627103 
L 200.646298 179.627103 
L 200.646298 183.823042 
L 200.646298 179.006275 
L 190.617541 179.006275 
L 190.617541 183.490031 
L 190.617541 178.289935 
L 180.588785 178.289935 
L 180.588785 183.103738 
L 170.560029 183.103738 
L 170.560029 188.318692 
L 170.560029 169.693858 
L 160.531272 169.693858 
L 160.531272 175.281308 
L 160.531272 167.73335 
L 150.502516 167.73335 
L 150.502516 173.83271 
L 150.502516 155.725234 
L 140.47376 155.725234 
L 140.47376 162.243925 
L 140.47376 151.069025 
L 130.445004 151.069025 
L 130.445004 158.232423 
L 130.445004 144.860748 
L 120.416247 144.860748 
L 120.416247 152.762192 
L 120.416247 115.888785 
L 110.387491 115.888785 
L 110.387491 123.131776 
L 100.358735 123.131776 
L 100.358735 132.444192 
L 90.329978 132.444192 
L 90.329978 144.860748 
L 90.329978 110.094393 
L 80.301222 110.094393 
L 80.301222 123.131776 
L 80.301222 57.94486 
L 50.214953 57.94486 
L 50.214953 57.94486 
" clip-path="url(#p241dc6c33b)" style="fill: none; stroke: #332345; stroke-opacity: 0.8; stroke-width: 3; stroke-linecap: round"/>
   </g>
   <g id="line2d_14">
    <path d="M 310.962617 273.192931 
L 300.933861 273.192931 
L 300.933861 274.64731 
L 300.933861 273.107267 
L 290.905104 273.107267 
L 290.905104 274.622496 
L 290.905104 260.748598 
L 280.876348 260.748598 
L 280.876348 262.64396 
L 280.876348 259.314343 
L 270.847592 259.314343 
L 270.847592 261.328037 
L 270.847592 258.93785 
L 260.818835 258.93785 
L 260.818835 261.053566 
L 260.818835 250.246262 
L 250.790079 250.246262 
L 250.790079 252.680457 
L 250.790079 233.201486 
L 240.761323 233.201486 
L 240.761323 236.12243 
L 240.761323 225.216946 
L 230.732566 225.216946 
L 230.732566 228.433717 
L 230.732566 222.907667 
L 220.70381 222.907667 
L 220.70381 226.344393 
L 210.675054 226.344393 
L 210.675054 229.927361 
L 210.675054 223.875191 
L 200.646298 223.875191 
L 200.646298 227.734036 
L 200.646298 220.91215 
L 190.617541 220.91215 
L 190.617541 225.090798 
L 190.617541 214.393458 
L 180.588785 214.393458 
L 180.588785 218.994887 
L 180.588785 209.346729 
L 170.560029 209.346729 
L 170.560029 214.393458 
L 170.560029 206.943525 
L 160.531272 206.943525 
L 160.531272 212.461994 
L 150.502516 212.461994 
L 150.502516 218.40496 
L 150.502516 205.323974 
L 140.47376 205.323974 
L 140.47376 212.023025 
L 140.47376 201.356075 
L 130.445004 201.356075 
L 130.445004 208.904033 
L 130.445004 158.232423 
L 120.416247 158.232423 
L 120.416247 166.58972 
L 110.387491 166.58972 
L 110.387491 176.466525 
L 110.387491 144.860748 
L 100.358735 144.860748 
L 100.358735 155.725234 
L 100.358735 132.444192 
L 90.329978 132.444192 
L 90.329978 144.860748 
L 80.301222 144.860748 
L 80.301222 162.243925 
L 70.272466 162.243925 
L 70.272466 188.318692 
L 70.272466 57.94486 
L 50.214953 57.94486 
L 50.214953 57.94486 
" clip-path="url(#p241dc6c33b)" style="fill: none; stroke: #40498e; stroke-opacity: 0.8; stroke-width: 3; stroke-linecap: round"/>
   </g>
   <g id="line2d_15">
    <path d="M 310.962617 257.061257 
L 300.933861 257.061257 
L 300.933861 258.888013 
L 290.905104 258.888013 
L 290.905104 260.748598 
L 290.905104 245.925734 
L 280.876348 245.925734 
L 280.876348 248.137273 
L 280.876348 243.72757 
L 270.847592 243.72757 
L 270.847592 246.07925 
L 270.847592 237.897473 
L 260.818835 237.897473 
L 260.818835 240.468224 
L 250.790079 240.468224 
L 250.790079 243.11349 
L 250.790079 228.779536 
L 240.761323 228.779536 
L 240.761323 231.776636 
L 240.761323 203.478439 
L 230.732566 203.478439 
L 230.732566 206.943525 
L 220.70381 206.943525 
L 220.70381 210.577638 
L 210.675054 210.577638 
L 210.675054 214.393458 
L 210.675054 208.904033 
L 200.646298 208.904033 
L 200.646298 212.984011 
L 200.646298 210.047664 
L 190.617541 210.047664 
L 190.617541 214.393458 
L 190.617541 197.01028 
L 180.588785 197.01028 
L 180.588785 201.80564 
L 180.588785 183.103738 
L 170.560029 183.103738 
L 170.560029 188.318692 
L 160.531272 188.318692 
L 160.531272 193.987119 
L 160.531272 149.973447 
L 150.502516 149.973447 
L 150.502516 155.725234 
L 150.502516 132.444192 
L 140.47376 132.444192 
L 140.47376 138.17491 
L 140.47376 123.131776 
L 130.445004 123.131776 
L 130.445004 129.057859 
L 120.416247 129.057859 
L 120.416247 136.169159 
L 120.416247 90.538318 
L 110.387491 90.538318 
L 110.387491 95.194526 
L 110.387491 57.94486 
L 50.214953 57.94486 
L 50.214953 57.94486 
" clip-path="url(#p241dc6c33b)" style="fill: none; stroke: #357ba3; stroke-opacity: 0.8; stroke-width: 3; stroke-linecap: round"/>
   </g>
   <g id="line2d_16">
    <path d="M 310.962617 278.813469 
L 300.933861 278.813469 
L 300.933861 280.120384 
L 300.933861 263.913602 
L 290.905104 263.913602 
L 290.905104 265.6591 
L 290.905104 258.519986 
L 280.876348 258.519986 
L 280.876348 260.467317 
L 280.876348 234.22497 
L 270.847592 234.22497 
L 270.847592 236.743258 
L 270.847592 229.060514 
L 260.818835 229.060514 
L 260.818835 231.776636 
L 260.818835 217.290654 
L 250.790079 217.290654 
L 250.790079 220.297179 
L 240.761323 220.297179 
L 240.761323 223.419339 
L 240.761323 206.096941 
L 230.732566 206.096941 
L 230.732566 209.542339 
L 230.732566 188.318692 
L 220.70381 188.318692 
L 220.70381 192.043658 
L 210.675054 192.043658 
L 210.675054 195.987741 
L 200.646298 195.987741 
L 200.646298 200.170858 
L 190.617541 200.170858 
L 190.617541 204.615421 
L 190.617541 200.935514 
L 180.588785 200.935514 
L 180.588785 205.701869 
L 180.588785 197.631108 
L 170.560029 197.631108 
L 170.560029 202.804673 
L 170.560029 193.533645 
L 160.531272 193.533645 
L 160.531272 199.183178 
L 160.531272 182.110414 
L 150.502516 182.110414 
L 150.502516 188.318692 
L 150.502516 173.83271 
L 140.47376 173.83271 
L 140.47376 180.649643 
L 140.47376 162.243925 
L 130.445004 162.243925 
L 130.445004 169.693858 
L 120.416247 169.693858 
L 120.416247 178.289935 
L 120.416247 152.762192 
L 110.387491 152.762192 
L 110.387491 162.243925 
L 110.387491 123.131776 
L 100.358735 123.131776 
L 100.358735 132.444192 
L 90.329978 132.444192 
L 90.329978 144.860748 
L 90.329978 110.094393 
L 80.301222 110.094393 
L 80.301222 123.131776 
L 70.272466 123.131776 
L 70.272466 144.860748 
L 60.24371 144.860748 
L 60.24371 188.318692 
L 50.214953 188.318692 
L 50.214953 318.692523 
L 50.214953 57.94486 
L 50.214953 57.94486 
" clip-path="url(#p241dc6c33b)" style="fill: none; stroke: #38aaac; stroke-opacity: 0.8; stroke-width: 3; stroke-linecap: round"/>
   </g>
   <g id="line2d_17">
    <path d="M 310.962617 276.844133 
L 300.933861 276.844133 
L 300.933861 278.203756 
L 300.933861 243.765034 
L 290.905104 243.765034 
L 290.905104 245.925734 
L 290.905104 227.997684 
L 280.876348 227.997684 
L 280.876348 230.498461 
L 270.847592 230.498461 
L 270.847592 233.073888 
L 270.847592 214.393458 
L 260.818835 214.393458 
L 260.818835 217.290654 
L 260.818835 211.325838 
L 250.790079 211.325838 
L 250.790079 214.393458 
L 250.790079 177.74784 
L 240.761323 177.74784 
L 240.761323 181.075701 
L 230.732566 181.075701 
L 230.732566 184.593725 
L 220.70381 184.593725 
L 220.70381 188.318692 
L 220.70381 180.170327 
L 210.675054 180.170327 
L 210.675054 184.113084 
L 210.675054 174.831743 
L 200.646298 174.831743 
L 200.646298 179.006275 
L 190.617541 179.006275 
L 190.617541 183.490031 
L 190.617541 172.673832 
L 180.588785 172.673832 
L 180.588785 177.454206 
L 170.560029 177.454206 
L 170.560029 182.650264 
L 170.560029 169.693858 
L 160.531272 169.693858 
L 160.531272 175.281308 
L 160.531272 139.428505 
L 150.502516 139.428505 
L 150.502516 144.860748 
L 140.47376 144.860748 
L 140.47376 151.069025 
L 130.445004 151.069025 
L 130.445004 158.232423 
L 130.445004 129.057859 
L 120.416247 129.057859 
L 120.416247 136.169159 
L 120.416247 115.888785 
L 110.387491 115.888785 
L 110.387491 123.131776 
L 100.358735 123.131776 
L 100.358735 132.444192 
L 90.329978 132.444192 
L 90.329978 144.860748 
L 80.301222 144.860748 
L 80.301222 162.243925 
L 70.272466 162.243925 
L 70.272466 188.318692 
L 70.272466 144.860748 
L 60.24371 144.860748 
L 60.24371 188.318692 
L 50.214953 188.318692 
L 50.214953 318.692523 
L 50.214953 57.94486 
L 50.214953 57.94486 
" clip-path="url(#p241dc6c33b)" style="fill: none; stroke: #79d6ae; stroke-opacity: 0.8; stroke-width: 3; stroke-linecap: round"/>
   </g>
   <g id="line2d_18"/>
   <g id="patch_3">
    <path d="M 45 318.692523 
L 45 44.907477 
" style="fill: none; stroke: #262626; stroke-width: 1.5; stroke-linejoin: miter; stroke-linecap: square"/>
   </g>
   <g id="patch_4">
    <path d="M 45 318.692523 
L 324 318.692523 
" style="fill: none; stroke: #262626; stroke-width: 1.5; stroke-linejoin: miter; stroke-linecap: square"/>
   </g>
   <g id="text_15">
    <text style="fill: #262626; font: 16.8px 'sans-serif'; text-anchor: middle" x="184.5" y="38.907477" transform="rotate(-0, 184.5, 38.907477)">Precision recall: Full_dataset_context-2</text>
   </g>
   <g id="legend_1">
    <g id="line2d_19">
     <path style="fill: none; stroke: #332345; stroke-opacity: 0.8; stroke-width: 3; stroke-linecap: round"/>
    </g>
    <g id="text_16">
     <text style="fill: #262626; font: 14px 'sans-serif'; text-anchor: start" x="-11.155469" y="384.127569" transform="rotate(-0, -11.155469, 384.127569)">AP fold 0 (AP = 0.58)</text>
    </g>
    <g id="line2d_20">
     <path style="fill: none; stroke: #40498e; stroke-opacity: 0.8; stroke-width: 3; stroke-linecap: round"/>
    </g>
    <g id="text_17">
     <text style="fill: #262626; font: 14px 'sans-serif'; text-anchor: start" x="-11.155469" y="404.676944" transform="rotate(-0, -11.155469, 404.676944)">AP fold 1 (AP = 0.45)</text>
    </g>
    <g id="line2d_21">
     <path style="fill: none; stroke: #357ba3; stroke-opacity: 0.8; stroke-width: 3; stroke-linecap: round"/>
    </g>
    <g id="text_18">
     <text style="fill: #262626; font: 14px 'sans-serif'; text-anchor: start" x="-11.155469" y="425.226319" transform="rotate(-0, -11.155469, 425.226319)">AP fold 2 (AP = 0.59)</text>
    </g>
    <g id="line2d_22">
     <path style="fill: none; stroke: #38aaac; stroke-opacity: 0.8; stroke-width: 3; stroke-linecap: round"/>
    </g>
    <g id="text_19">
     <text style="fill: #262626; font: 14px 'sans-serif'; text-anchor: start" x="203.335469" y="384.127569" transform="rotate(-0, 203.335469, 384.127569)">AP fold 3 (AP = 0.49)</text>
    </g>
    <g id="line2d_23">
     <path style="fill: none; stroke: #79d6ae; stroke-opacity: 0.8; stroke-width: 3; stroke-linecap: round"/>
    </g>
    <g id="text_20">
     <text style="fill: #262626; font: 14px 'sans-serif'; text-anchor: start" x="203.335469" y="404.676944" transform="rotate(-0, 203.335469, 404.676944)">AP fold 4 (AP = 0.55)</text>
    </g>
    <g id="line2d_24"/>
    <g id="text_21">
     <!-- Mean ave. prec. = 0.53 $\pm$ 0.05 -->
     <g style="fill: #262626" transform="translate(203.335469 425.226319)">
      <text>
       <tspan style="font: 14px 'DejaVu Sans'" x="0 12.079102 20.692383 29.271484 38.144531 42.594727 51.173828 59.458984 68.072266 72.522461 76.972656 85.859375 91.615234 100.228516 107.925781 112.375977 116.826172 128.556641 133.006836 141.914062 146.364258 155.271484 164.178711 168.628906 180.359375 184.80957 193.716797 198.166992 207.074219" y="-0.609375">Mean ave. prec. = 0.53 ± 0.05</tspan>
      </text>
     </g>
    </g>
   </g>
  </g>
 </g>
 <defs>
  <clipPath id="p241dc6c33b">
   <rect x="45" y="44.907477" width="279" height="273.785047"/>
  </clipPath>
 </defs>
</svg>
