<?xml version="1.0" encoding="utf-8" standalone="no"?>
<!DOCTYPE svg PUBLIC "-//W3C//DTD SVG 1.1//EN"
  "http://www.w3.org/Graphics/SVG/1.1/DTD/svg11.dtd">
<!-- Created with matplotlib (https://matplotlib.org/) -->
<svg height="360pt" version="1.1" viewBox="0 0 360 360" width="360pt" xmlns="http://www.w3.org/2000/svg" xmlns:xlink="http://www.w3.org/1999/xlink">
 <defs>
  <style type="text/css">
*{stroke-linecap:butt;stroke-linejoin:round;}
  </style>
 </defs>
 <g id="figure_1">
  <g id="patch_1">
   <path d="M 0 360 
L 360 360 
L 360 0 
L 0 0 
z
" style="fill:#ffffff;"/>
  </g>
  <g id="axes_1">
   <g id="patch_2">
    <path d="M 46.011429 315 
L 322.988571 315 
L 322.988571 43.2 
L 46.011429 43.2 
z
" style="fill:#ffffff;"/>
   </g>
   <g id="matplotlib.axis_1">
    <g id="xtick_1">
     <g id="line2d_1">
      <defs>
       <path d="M 0 0 
L 0 3.5 
" id="m528030c46e" style="stroke:#262626;stroke-width:1.5;"/>
      </defs>
      <g>
       <use style="fill:#262626;stroke:#262626;stroke-width:1.5;" x="51.188571" xlink:href="#m528030c46e" y="315"/>
      </g>
     </g>
     <g id="text_1">
      <text style="fill:#262626;font-family:Cantarell;font-size:14px;font-style:normal;font-weight:normal;text-anchor:middle;" transform="rotate(-0, 51.188571, 332.051562)" x="51.188571" y="332.051562">0.0</text>
     </g>
    </g>
    <g id="xtick_2">
     <g id="line2d_2">
      <g>
       <use style="fill:#262626;stroke:#262626;stroke-width:1.5;" x="102.96" xlink:href="#m528030c46e" y="315"/>
      </g>
     </g>
     <g id="text_2">
      <text style="fill:#262626;font-family:Cantarell;font-size:14px;font-style:normal;font-weight:normal;text-anchor:middle;" transform="rotate(-0, 102.96, 332.051562)" x="102.96" y="332.051562">0.2</text>
     </g>
    </g>
    <g id="xtick_3">
     <g id="line2d_3">
      <g>
       <use style="fill:#262626;stroke:#262626;stroke-width:1.5;" x="154.731429" xlink:href="#m528030c46e" y="315"/>
      </g>
     </g>
     <g id="text_3">
      <text style="fill:#262626;font-family:Cantarell;font-size:14px;font-style:normal;font-weight:normal;text-anchor:middle;" transform="rotate(-0, 154.731429, 332.051562)" x="154.731429" y="332.051562">0.4</text>
     </g>
    </g>
    <g id="xtick_4">
     <g id="line2d_4">
      <g>
       <use style="fill:#262626;stroke:#262626;stroke-width:1.5;" x="206.502857" xlink:href="#m528030c46e" y="315"/>
      </g>
     </g>
     <g id="text_4">
      <text style="fill:#262626;font-family:Cantarell;font-size:14px;font-style:normal;font-weight:normal;text-anchor:middle;" transform="rotate(-0, 206.502857, 332.051562)" x="206.502857" y="332.051562">0.6</text>
     </g>
    </g>
    <g id="xtick_5">
     <g id="line2d_5">
      <g>
       <use style="fill:#262626;stroke:#262626;stroke-width:1.5;" x="258.274286" xlink:href="#m528030c46e" y="315"/>
      </g>
     </g>
     <g id="text_5">
      <text style="fill:#262626;font-family:Cantarell;font-size:14px;font-style:normal;font-weight:normal;text-anchor:middle;" transform="rotate(-0, 258.274286, 332.051562)" x="258.274286" y="332.051562">0.8</text>
     </g>
    </g>
    <g id="xtick_6">
     <g id="line2d_6">
      <g>
       <use style="fill:#262626;stroke:#262626;stroke-width:1.5;" x="310.045714" xlink:href="#m528030c46e" y="315"/>
      </g>
     </g>
     <g id="text_6">
      <text style="fill:#262626;font-family:Cantarell;font-size:14px;font-style:normal;font-weight:normal;text-anchor:middle;" transform="rotate(-0, 310.045714, 332.051562)" x="310.045714" y="332.051562">1.0</text>
     </g>
    </g>
    <g id="text_7">
     <text style="fill:#262626;font-family:Cantarell;font-size:14px;font-style:normal;font-weight:normal;text-anchor:middle;" transform="rotate(-0, 184.5, 349.574687)" x="184.5" y="349.574687">Recall (Positive label: 1.0)</text>
    </g>
   </g>
   <g id="matplotlib.axis_2">
    <g id="ytick_1">
     <g id="line2d_7">
      <defs>
       <path d="M 0 0 
L -3.5 0 
" id="m33c7ca1a28" style="stroke:#262626;stroke-width:1.5;"/>
      </defs>
      <g>
       <use style="fill:#262626;stroke:#262626;stroke-width:1.5;" x="46.011429" xlink:href="#m33c7ca1a28" y="315"/>
      </g>
     </g>
     <g id="text_8">
      <text style="fill:#262626;font-family:Cantarell;font-size:14px;font-style:normal;font-weight:normal;text-anchor:end;" transform="rotate(-0, 39.011429, 320.025781)" x="39.011429" y="320.025781">0.0</text>
     </g>
    </g>
    <g id="ytick_2">
     <g id="line2d_8">
      <g>
       <use style="fill:#262626;stroke:#262626;stroke-width:1.5;" x="46.011429" xlink:href="#m33c7ca1a28" y="263.228571"/>
      </g>
     </g>
     <g id="text_9">
      <text style="fill:#262626;font-family:Cantarell;font-size:14px;font-style:normal;font-weight:normal;text-anchor:end;" transform="rotate(-0, 39.011429, 268.254353)" x="39.011429" y="268.254353">0.2</text>
     </g>
    </g>
    <g id="ytick_3">
     <g id="line2d_9">
      <g>
       <use style="fill:#262626;stroke:#262626;stroke-width:1.5;" x="46.011429" xlink:href="#m33c7ca1a28" y="211.457143"/>
      </g>
     </g>
     <g id="text_10">
      <text style="fill:#262626;font-family:Cantarell;font-size:14px;font-style:normal;font-weight:normal;text-anchor:end;" transform="rotate(-0, 39.011429, 216.482924)" x="39.011429" y="216.482924">0.4</text>
     </g>
    </g>
    <g id="ytick_4">
     <g id="line2d_10">
      <g>
       <use style="fill:#262626;stroke:#262626;stroke-width:1.5;" x="46.011429" xlink:href="#m33c7ca1a28" y="159.685714"/>
      </g>
     </g>
     <g id="text_11">
      <text style="fill:#262626;font-family:Cantarell;font-size:14px;font-style:normal;font-weight:normal;text-anchor:end;" transform="rotate(-0, 39.011429, 164.711496)" x="39.011429" y="164.711496">0.6</text>
     </g>
    </g>
    <g id="ytick_5">
     <g id="line2d_11">
      <g>
       <use style="fill:#262626;stroke:#262626;stroke-width:1.5;" x="46.011429" xlink:href="#m33c7ca1a28" y="107.914286"/>
      </g>
     </g>
     <g id="text_12">
      <text style="fill:#262626;font-family:Cantarell;font-size:14px;font-style:normal;font-weight:normal;text-anchor:end;" transform="rotate(-0, 39.011429, 112.940067)" x="39.011429" y="112.940067">0.8</text>
     </g>
    </g>
    <g id="ytick_6">
     <g id="line2d_12">
      <g>
       <use style="fill:#262626;stroke:#262626;stroke-width:1.5;" x="46.011429" xlink:href="#m33c7ca1a28" y="56.142857"/>
      </g>
     </g>
     <g id="text_13">
      <text style="fill:#262626;font-family:Cantarell;font-size:14px;font-style:normal;font-weight:normal;text-anchor:end;" transform="rotate(-0, 39.011429, 61.168638)" x="39.011429" y="61.168638">1.0</text>
     </g>
    </g>
    <g id="text_14">
     <text style="fill:#262626;font-family:Cantarell;font-size:14px;font-style:normal;font-weight:normal;text-anchor:middle;" transform="rotate(-90, 11.966116, 179.1)" x="11.966116" y="179.1">Precision (Positive label: 1.0)</text>
    </g>
   </g>
   <g id="line2d_13">
    <path clip-path="url(#pc5a9b6b0bd)" d="M 310.045714 250.902041 
L 300.08967 250.902041 
L 300.08967 252.774725 
L 300.08967 251.554622 
L 290.133626 251.554622 
L 290.133626 253.489392 
L 290.133626 220.87013 
L 280.177582 220.87013 
L 280.177582 223.404396 
L 280.177582 215.771429 
L 270.221538 215.771429 
L 270.221538 218.476998 
L 270.221538 213.306122 
L 260.265495 213.306122 
L 260.265495 216.163636 
L 250.309451 216.163636 
L 250.309451 219.126984 
L 240.353407 219.126984 
L 240.353407 222.202156 
L 240.353407 216.634286 
L 230.397363 216.634286 
L 230.397363 219.909621 
L 230.397363 195.527473 
L 220.441319 195.527473 
L 220.441319 199.195489 
L 220.441319 189.269388 
L 210.485275 189.269388 
L 210.485275 193.184874 
L 210.485275 176.942857 
L 200.529231 176.942857 
L 200.529231 181.108374 
L 200.529231 176.326531 
L 190.573187 176.326531 
L 190.573187 180.777778 
L 190.573187 175.615385 
L 180.617143 175.615385 
L 180.617143 180.394286 
L 170.661099 180.394286 
L 170.661099 185.571429 
L 170.661099 167.081633 
L 160.705055 167.081633 
L 160.705055 172.628571 
L 160.705055 165.135338 
L 150.749011 165.135338 
L 150.749011 171.190476 
L 150.749011 153.214286 
L 140.792967 153.214286 
L 140.792967 159.685714 
L 140.792967 148.591837 
L 130.836923 148.591837 
L 130.836923 155.703297 
L 130.836923 142.428571 
L 120.880879 142.428571 
L 120.880879 150.272727 
L 120.880879 113.666667 
L 110.924835 113.666667 
L 110.924835 120.857143 
L 100.968791 120.857143 
L 100.968791 130.102041 
L 91.012747 130.102041 
L 91.012747 142.428571 
L 91.012747 107.914286 
L 81.056703 107.914286 
L 81.056703 120.857143 
L 81.056703 56.142857 
L 51.188571 56.142857 
L 51.188571 56.142857 
" style="fill:none;stroke:#332345;stroke-linecap:round;stroke-opacity:0.8;stroke-width:3;"/>
   </g>
   <g id="line2d_14">
    <path clip-path="url(#pc5a9b6b0bd)" d="M 310.045714 269.830297 
L 300.08967 269.830297 
L 300.08967 271.274131 
L 300.08967 269.745255 
L 290.133626 269.745255 
L 290.133626 271.249497 
L 290.133626 257.47619 
L 280.177582 257.47619 
L 280.177582 259.35781 
L 280.177582 256.052334 
L 270.221538 256.052334 
L 270.221538 258.051429 
L 270.221538 255.678571 
L 260.265495 255.678571 
L 260.265495 257.778947 
L 260.265495 247.05 
L 250.309451 247.05 
L 250.309451 249.466546 
L 250.309451 230.128806 
L 240.353407 230.128806 
L 240.353407 233.028571 
L 240.353407 222.202156 
L 230.397363 222.202156 
L 230.397363 225.395604 
L 230.397363 219.909621 
L 220.441319 219.909621 
L 220.441319 223.321429 
L 210.485275 223.321429 
L 210.485275 226.878419 
L 210.485275 220.87013 
L 200.529231 220.87013 
L 200.529231 224.700997 
L 200.529231 217.928571 
L 190.573187 217.928571 
L 190.573187 222.076923 
L 190.573187 211.457143 
L 180.617143 211.457143 
L 180.617143 216.02521 
L 180.617143 206.447005 
L 170.661099 206.447005 
L 170.661099 211.457143 
L 170.661099 204.061224 
L 160.705055 204.061224 
L 160.705055 209.539683 
L 150.749011 209.539683 
L 150.749011 215.43956 
L 150.749011 202.453416 
L 140.792967 202.453416 
L 140.792967 209.103896 
L 140.792967 198.514286 
L 130.836923 198.514286 
L 130.836923 206.007519 
L 130.836923 155.703297 
L 120.880879 155.703297 
L 120.880879 164 
L 110.924835 164 
L 110.924835 173.805195 
L 110.924835 142.428571 
L 100.968791 142.428571 
L 100.968791 153.214286 
L 100.968791 130.102041 
L 91.012747 130.102041 
L 91.012747 142.428571 
L 81.056703 142.428571 
L 81.056703 159.685714 
L 71.100659 159.685714 
L 71.100659 185.571429 
L 71.100659 56.142857 
L 51.188571 56.142857 
L 51.188571 56.142857 
" style="fill:none;stroke:#40498e;stroke-linecap:round;stroke-opacity:0.8;stroke-width:3;"/>
   </g>
   <g id="line2d_15">
    <path clip-path="url(#pc5a9b6b0bd)" d="M 310.045714 253.815584 
L 300.08967 253.815584 
L 300.08967 255.629096 
L 290.133626 255.629096 
L 290.133626 257.47619 
L 290.133626 243.591133 
L 280.177582 243.591133 
L 280.177582 245.770764 
L 280.177582 240.578571 
L 270.221538 240.578571 
L 270.221538 242.913201 
L 270.221538 234.790744 
L 260.265495 234.790744 
L 260.265495 237.342857 
L 250.309451 237.342857 
L 250.309451 239.968944 
L 250.309451 225.738916 
L 240.353407 225.738916 
L 240.353407 228.714286 
L 240.353407 220.417582 
L 230.397363 220.417582 
L 230.397363 223.638655 
L 230.397363 204.061224 
L 220.441319 204.061224 
L 220.441319 207.66899 
L 210.485275 207.66899 
L 210.485275 211.457143 
L 210.485275 206.007519 
L 200.529231 206.007519 
L 200.529231 210.057915 
L 200.529231 207.142857 
L 190.573187 207.142857 
L 190.573187 211.457143 
L 190.573187 194.2 
L 180.617143 194.2 
L 180.617143 198.960591 
L 180.617143 180.394286 
L 170.661099 180.394286 
L 170.661099 185.571429 
L 160.705055 185.571429 
L 160.705055 191.198758 
L 160.705055 147.504202 
L 150.749011 147.504202 
L 150.749011 153.214286 
L 150.749011 130.102041 
L 140.792967 130.102041 
L 140.792967 135.791209 
L 140.792967 120.857143 
L 130.836923 120.857143 
L 130.836923 126.74026 
L 120.880879 126.74026 
L 120.880879 133.8 
L 120.880879 88.5 
L 110.924835 88.5 
L 110.924835 93.122449 
L 110.924835 56.142857 
L 51.188571 56.142857 
L 51.188571 56.142857 
" style="fill:none;stroke:#357ba3;stroke-linecap:round;stroke-opacity:0.8;stroke-width:3;"/>
   </g>
   <g id="line2d_16">
    <path clip-path="url(#pc5a9b6b0bd)" d="M 310.045714 275.410084 
L 300.08967 275.410084 
L 300.08967 276.707523 
L 300.08967 253.948787 
L 290.133626 253.948787 
L 290.133626 255.832653 
L 290.133626 255.263736 
L 280.177582 255.263736 
L 280.177582 257.196949 
L 280.177582 231.144869 
L 270.221538 231.144869 
L 270.221538 233.644898 
L 270.221538 226.017857 
L 260.265495 226.017857 
L 260.265495 228.714286 
L 260.265495 222.864407 
L 250.309451 222.864407 
L 250.309451 225.738916 
L 250.309451 217.318059 
L 240.353407 217.318059 
L 240.353407 220.417582 
L 240.353407 203.220779 
L 230.397363 203.220779 
L 230.397363 206.641196 
L 230.397363 192.383459 
L 220.441319 192.383459 
L 220.441319 196.065637 
L 220.441319 192.761905 
L 210.485275 192.761905 
L 210.485275 196.665306 
L 200.529231 196.665306 
L 200.529231 200.798319 
L 200.529231 197.337662 
L 190.573187 197.337662 
L 190.573187 201.75 
L 190.573187 190.034483 
L 180.617143 190.034483 
L 180.617143 194.816327 
L 180.617143 185.571429 
L 170.661099 185.571429 
L 170.661099 190.748571 
L 170.661099 179.944099 
L 160.705055 179.944099 
L 160.705055 185.571429 
L 160.705055 179.408163 
L 150.749011 179.408163 
L 150.749011 185.571429 
L 150.749011 171.190476 
L 140.792967 171.190476 
L 140.792967 177.957983 
L 140.792967 159.685714 
L 130.836923 159.685714 
L 130.836923 167.081633 
L 120.880879 167.081633 
L 120.880879 175.615385 
L 120.880879 150.272727 
L 110.924835 150.272727 
L 110.924835 159.685714 
L 110.924835 120.857143 
L 100.968791 120.857143 
L 100.968791 130.102041 
L 91.012747 130.102041 
L 91.012747 142.428571 
L 91.012747 107.914286 
L 81.056703 107.914286 
L 81.056703 120.857143 
L 71.100659 120.857143 
L 71.100659 142.428571 
L 61.144615 142.428571 
L 61.144615 185.571429 
L 51.188571 185.571429 
L 51.188571 315 
L 51.188571 56.142857 
L 51.188571 56.142857 
" style="fill:none;stroke:#38aaac;stroke-linecap:round;stroke-opacity:0.8;stroke-width:3;"/>
   </g>
   <g id="line2d_17">
    <path clip-path="url(#pc5a9b6b0bd)" d="M 310.045714 273.709904 
L 300.08967 273.709904 
L 300.08967 275.05291 
L 300.08967 236.080139 
L 290.133626 236.080139 
L 290.133626 238.301587 
L 290.133626 227.498994 
L 280.177582 227.498994 
L 280.177582 229.946939 
L 280.177582 208.683673 
L 270.221538 208.683673 
L 270.221538 211.457143 
L 260.265495 211.457143 
L 260.265495 214.333333 
L 260.265495 199.340426 
L 250.309451 199.340426 
L 250.309451 202.453416 
L 250.309451 178.759398 
L 240.353407 178.759398 
L 240.353407 182.073359 
L 240.353407 170.344538 
L 230.397363 170.344538 
L 230.397363 173.805195 
L 230.397363 164.695853 
L 220.441319 164.695853 
L 220.441319 168.314286 
L 210.485275 168.314286 
L 210.485275 172.182266 
L 210.485275 167.081633 
L 200.529231 167.081633 
L 200.529231 171.190476 
L 190.573187 171.190476 
L 190.573187 175.615385 
L 190.573187 170.04 
L 180.617143 170.04 
L 180.617143 174.785714 
L 170.661099 174.785714 
L 170.661099 179.944099 
L 160.705055 179.944099 
L 160.705055 185.571429 
L 150.749011 185.571429 
L 150.749011 191.734694 
L 150.749011 185.571429 
L 140.792967 185.571429 
L 140.792967 192.383459 
L 140.792967 177.957983 
L 130.836923 177.957983 
L 130.836923 185.571429 
L 130.836923 176.942857 
L 120.880879 176.942857 
L 120.880879 185.571429 
L 120.880879 150.272727 
L 110.924835 150.272727 
L 110.924835 159.685714 
L 110.924835 142.428571 
L 100.968791 142.428571 
L 100.968791 153.214286 
L 100.968791 130.102041 
L 91.012747 130.102041 
L 91.012747 142.428571 
L 81.056703 142.428571 
L 81.056703 159.685714 
L 81.056703 120.857143 
L 71.100659 120.857143 
L 71.100659 142.428571 
L 61.144615 142.428571 
L 61.144615 185.571429 
L 51.188571 185.571429 
L 51.188571 315 
L 51.188571 56.142857 
L 51.188571 56.142857 
" style="fill:none;stroke:#79d6ae;stroke-linecap:round;stroke-opacity:0.8;stroke-width:3;"/>
   </g>
   <g id="line2d_18"/>
   <g id="patch_3">
    <path d="M 46.011429 315 
L 46.011429 43.2 
" style="fill:none;stroke:#262626;stroke-linecap:square;stroke-linejoin:miter;stroke-width:1.5;"/>
   </g>
   <g id="patch_4">
    <path d="M 46.011429 315 
L 322.988571 315 
" style="fill:none;stroke:#262626;stroke-linecap:square;stroke-linejoin:miter;stroke-width:1.5;"/>
   </g>
   <g id="text_15">
    <text style="fill:#262626;font-family:Cantarell;font-size:16.8px;font-style:normal;font-weight:normal;text-anchor:middle;" transform="rotate(-0, 184.5, 37.2)" x="184.5" y="37.2">Precision recall: Model trained without AA sequence</text>
   </g>
   <g id="legend_1">
    <g id="line2d_19">
     <path style="fill:none;stroke:#332345;stroke-linecap:round;stroke-opacity:0.8;stroke-width:3;"/>
    </g>
    <g id="line2d_20"/>
    <g id="text_16">
     <text style="fill:#262626;font-family:Cantarell;font-size:14px;font-style:normal;font-weight:normal;text-anchor:start;" transform="rotate(-0, 11.746563, 379.292656)" x="11.746563" y="379.292656">AP fold 0 (AP = 0.58)</text>
    </g>
    <g id="line2d_21">
     <path style="fill:none;stroke:#40498e;stroke-linecap:round;stroke-opacity:0.8;stroke-width:3;"/>
    </g>
    <g id="line2d_22"/>
    <g id="text_17">
     <text style="fill:#262626;font-family:Cantarell;font-size:14px;font-style:normal;font-weight:normal;text-anchor:start;" transform="rotate(-0, 11.746563, 399.815781)" x="11.746563" y="399.815781">AP fold 1 (AP = 0.45)</text>
    </g>
    <g id="line2d_23">
     <path style="fill:none;stroke:#357ba3;stroke-linecap:round;stroke-opacity:0.8;stroke-width:3;"/>
    </g>
    <g id="line2d_24"/>
    <g id="text_18">
     <text style="fill:#262626;font-family:Cantarell;font-size:14px;font-style:normal;font-weight:normal;text-anchor:start;" transform="rotate(-0, 11.746563, 420.338906)" x="11.746563" y="420.338906">AP fold 2 (AP = 0.59)</text>
    </g>
    <g id="line2d_25">
     <path style="fill:none;stroke:#38aaac;stroke-linecap:round;stroke-opacity:0.8;stroke-width:3;"/>
    </g>
    <g id="line2d_26"/>
    <g id="text_19">
     <text style="fill:#262626;font-family:Cantarell;font-size:14px;font-style:normal;font-weight:normal;text-anchor:start;" transform="rotate(-0, 209.273438, 379.292656)" x="209.273438" y="379.292656">AP fold 3 (AP = 0.50)</text>
    </g>
    <g id="line2d_27">
     <path style="fill:none;stroke:#79d6ae;stroke-linecap:round;stroke-opacity:0.8;stroke-width:3;"/>
    </g>
    <g id="line2d_28"/>
    <g id="text_20">
     <text style="fill:#262626;font-family:Cantarell;font-size:14px;font-style:normal;font-weight:normal;text-anchor:start;" transform="rotate(-0, 209.273438, 399.815781)" x="209.273438" y="399.815781">AP fold 4 (AP = 0.53)</text>
    </g>
    <g id="line2d_29"/>
    <g id="line2d_30"/>
    <g id="text_21">
     <!-- Mean ave. prec. = 0.53 $\pm$ 0.05 -->
     <g style="fill:#262626;" transform="translate(209.273438 420.338906)">
      <text>
       <tspan style="font-family:Cantarell;font-size:14px;font-style:regular;font-weight:regular;" x="0 11.829987 19.039978 25.773972 33.305969 37.12796 43.861954 50.44194 57.651932 61.151932 64.973923 72.757919 77.811905 85.021896 91.825882 95.325882 99.147873 108.709869 112.53186 120.567856 124.067856 132.103851 140.139847 155.692307 159.514297 167.550293 171.050293 179.086288" y="-0.109375">Mean ave. prec. = 0.53  0.05</tspan>
       <tspan style="font-family:DejaVu Sans;font-size:14px;font-style:book;font-weight:book;" x="143.961838" y="-0.109375">±</tspan>
      </text>
     </g>
    </g>
   </g>
  </g>
 </g>
 <defs>
  <clipPath id="pc5a9b6b0bd">
   <rect height="271.8" width="276.977143" x="46.011429" y="43.2"/>
  </clipPath>
 </defs>
</svg>
