<?xml version="1.0" encoding="utf-8" standalone="no"?>
<!DOCTYPE svg PUBLIC "-//W3C//DTD SVG 1.1//EN"
  "http://www.w3.org/Graphics/SVG/1.1/DTD/svg11.dtd">
<svg xmlns:xlink="http://www.w3.org/1999/xlink" width="360pt" height="360pt" viewBox="0 0 360 360" xmlns="http://www.w3.org/2000/svg" version="1.1">
 <metadata>
  <rdf:RDF xmlns:dc="http://purl.org/dc/elements/1.1/" xmlns:cc="http://creativecommons.org/ns#" xmlns:rdf="http://www.w3.org/1999/02/22-rdf-syntax-ns#">
   <cc:Work>
    <dc:type rdf:resource="http://purl.org/dc/dcmitype/StillImage"/>
    <dc:date>2023-12-05T14:14:31.354459</dc:date>
    <dc:format>image/svg+xml</dc:format>
    <dc:creator>
     <cc:Agent>
      <dc:title>Matplotlib v3.5.3, https://matplotlib.org/</dc:title>
     </cc:Agent>
    </dc:creator>
   </cc:Work>
  </rdf:RDF>
 </metadata>
 <defs>
  <style type="text/css">*{stroke-linejoin: round; stroke-linecap: butt}</style>
 </defs>
 <g id="figure_1">
  <g id="patch_1">
   <path d="M 0 360 
L 360 360 
L 360 0 
L 0 0 
z
" style="fill: #ffffff"/>
  </g>
  <g id="axes_1">
   <g id="patch_2">
    <path d="M 45 318.692523 
L 324 318.692523 
L 324 44.907477 
L 45 44.907477 
z
" style="fill: #ffffff"/>
   </g>
   <g id="matplotlib.axis_1">
    <g id="xtick_1">
     <g id="line2d_1">
      <defs>
       <path id="mab828240e2" d="M 0 0 
L 0 3.5 
" style="stroke: #262626; stroke-width: 1.5"/>
      </defs>
      <g>
       <use xlink:href="#mab828240e2" x="50.214953" y="318.692523" style="fill: #262626; stroke: #262626; stroke-width: 1.5"/>
      </g>
     </g>
     <g id="text_1">
      <text style="fill: #262626; font: 14px 'sans-serif'; text-anchor: middle" x="50.214953" y="336.330336" transform="rotate(-0, 50.214953, 336.330336)">0.0</text>
     </g>
    </g>
    <g id="xtick_2">
     <g id="line2d_2">
      <g>
       <use xlink:href="#mab828240e2" x="102.364486" y="318.692523" style="fill: #262626; stroke: #262626; stroke-width: 1.5"/>
      </g>
     </g>
     <g id="text_2">
      <text style="fill: #262626; font: 14px 'sans-serif'; text-anchor: middle" x="102.364486" y="336.330336" transform="rotate(-0, 102.364486, 336.330336)">0.2</text>
     </g>
    </g>
    <g id="xtick_3">
     <g id="line2d_3">
      <g>
       <use xlink:href="#mab828240e2" x="154.514019" y="318.692523" style="fill: #262626; stroke: #262626; stroke-width: 1.5"/>
      </g>
     </g>
     <g id="text_3">
      <text style="fill: #262626; font: 14px 'sans-serif'; text-anchor: middle" x="154.514019" y="336.330336" transform="rotate(-0, 154.514019, 336.330336)">0.4</text>
     </g>
    </g>
    <g id="xtick_4">
     <g id="line2d_4">
      <g>
       <use xlink:href="#mab828240e2" x="206.663551" y="318.692523" style="fill: #262626; stroke: #262626; stroke-width: 1.5"/>
      </g>
     </g>
     <g id="text_4">
      <text style="fill: #262626; font: 14px 'sans-serif'; text-anchor: middle" x="206.663551" y="336.330336" transform="rotate(-0, 206.663551, 336.330336)">0.6</text>
     </g>
    </g>
    <g id="xtick_5">
     <g id="line2d_5">
      <g>
       <use xlink:href="#mab828240e2" x="258.813084" y="318.692523" style="fill: #262626; stroke: #262626; stroke-width: 1.5"/>
      </g>
     </g>
     <g id="text_5">
      <text style="fill: #262626; font: 14px 'sans-serif'; text-anchor: middle" x="258.813084" y="336.330336" transform="rotate(-0, 258.813084, 336.330336)">0.8</text>
     </g>
    </g>
    <g id="xtick_6">
     <g id="line2d_6">
      <g>
       <use xlink:href="#mab828240e2" x="310.962617" y="318.692523" style="fill: #262626; stroke: #262626; stroke-width: 1.5"/>
      </g>
     </g>
     <g id="text_6">
      <text style="fill: #262626; font: 14px 'sans-serif'; text-anchor: middle" x="310.962617" y="336.330336" transform="rotate(-0, 310.962617, 336.330336)">1.0</text>
     </g>
    </g>
    <g id="text_7">
     <text style="fill: #262626; font: 14px 'sans-serif'; text-anchor: middle" x="184.5" y="353.879711" transform="rotate(-0, 184.5, 353.879711)">Recall (Positive label: 1.0)</text>
    </g>
   </g>
   <g id="matplotlib.axis_2">
    <g id="ytick_1">
     <g id="line2d_7">
      <defs>
       <path id="m9af75e8d3c" d="M 0 0 
L -3.5 0 
" style="stroke: #262626; stroke-width: 1.5"/>
      </defs>
      <g>
       <use xlink:href="#m9af75e8d3c" x="45" y="318.692523" style="fill: #262626; stroke: #262626; stroke-width: 1.5"/>
      </g>
     </g>
     <g id="text_8">
      <text style="fill: #262626; font: 14px 'sans-serif'; text-anchor: end" x="38" y="324.01143" transform="rotate(-0, 38, 324.01143)">0.0</text>
     </g>
    </g>
    <g id="ytick_2">
     <g id="line2d_8">
      <g>
       <use xlink:href="#m9af75e8d3c" x="45" y="266.542991" style="fill: #262626; stroke: #262626; stroke-width: 1.5"/>
      </g>
     </g>
     <g id="text_9">
      <text style="fill: #262626; font: 14px 'sans-serif'; text-anchor: end" x="38" y="271.861897" transform="rotate(-0, 38, 271.861897)">0.2</text>
     </g>
    </g>
    <g id="ytick_3">
     <g id="line2d_9">
      <g>
       <use xlink:href="#m9af75e8d3c" x="45" y="214.393458" style="fill: #262626; stroke: #262626; stroke-width: 1.5"/>
      </g>
     </g>
     <g id="text_10">
      <text style="fill: #262626; font: 14px 'sans-serif'; text-anchor: end" x="38" y="219.712364" transform="rotate(-0, 38, 219.712364)">0.4</text>
     </g>
    </g>
    <g id="ytick_4">
     <g id="line2d_10">
      <g>
       <use xlink:href="#m9af75e8d3c" x="45" y="162.243925" style="fill: #262626; stroke: #262626; stroke-width: 1.5"/>
      </g>
     </g>
     <g id="text_11">
      <text style="fill: #262626; font: 14px 'sans-serif'; text-anchor: end" x="38" y="167.562831" transform="rotate(-0, 38, 167.562831)">0.6</text>
     </g>
    </g>
    <g id="ytick_5">
     <g id="line2d_11">
      <g>
       <use xlink:href="#m9af75e8d3c" x="45" y="110.094393" style="fill: #262626; stroke: #262626; stroke-width: 1.5"/>
      </g>
     </g>
     <g id="text_12">
      <text style="fill: #262626; font: 14px 'sans-serif'; text-anchor: end" x="38" y="115.413299" transform="rotate(-0, 38, 115.413299)">0.8</text>
     </g>
    </g>
    <g id="ytick_6">
     <g id="line2d_12">
      <g>
       <use xlink:href="#m9af75e8d3c" x="45" y="57.94486" style="fill: #262626; stroke: #262626; stroke-width: 1.5"/>
      </g>
     </g>
     <g id="text_13">
      <text style="fill: #262626; font: 14px 'sans-serif'; text-anchor: end" x="38" y="63.263766" transform="rotate(-0, 38, 63.263766)">1.0</text>
     </g>
    </g>
    <g id="text_14">
     <text style="fill: #262626; font: 14px 'sans-serif'; text-anchor: middle" x="8.824063" y="181.8" transform="rotate(-90, 8.824063, 181.8)">Precision (Positive label: 1.0)</text>
    </g>
   </g>
   <g id="line2d_13">
    <path d="M 310.962617 240.767934 
L 300.933861 240.767934 
L 300.933861 242.893784 
L 300.933861 211.828727 
L 290.905104 211.828727 
L 290.905104 214.393458 
L 290.905104 210.796938 
L 280.876348 210.796938 
L 280.876348 213.478554 
L 280.876348 211.599733 
L 270.847592 211.599733 
L 270.847592 214.393458 
L 270.847592 188.318692 
L 260.818835 188.318692 
L 260.818835 191.350641 
L 260.818835 188.318692 
L 250.790079 188.318692 
L 250.790079 191.498541 
L 240.761323 191.498541 
L 240.761323 194.837383 
L 230.732566 194.837383 
L 230.732566 198.347448 
L 230.732566 184.593725 
L 220.70381 184.593725 
L 220.70381 188.318692 
L 220.70381 184.367969 
L 210.675054 184.367969 
L 210.675054 188.318692 
L 210.675054 184.113084 
L 200.646298 184.113084 
L 200.646298 188.318692 
L 190.617541 188.318692 
L 190.617541 192.814341 
L 190.617541 183.490031 
L 180.588785 183.490031 
L 180.588785 188.318692 
L 170.560029 188.318692 
L 170.560029 193.533645 
L 160.531272 193.533645 
L 160.531272 199.183178 
L 150.502516 199.183178 
L 150.502516 205.323974 
L 150.502516 144.860748 
L 140.47376 144.860748 
L 140.47376 151.069025 
L 140.47376 138.17491 
L 130.445004 138.17491 
L 130.445004 144.860748 
L 120.416247 144.860748 
L 120.416247 152.762192 
L 120.416247 136.169159 
L 110.387491 136.169159 
L 110.387491 144.860748 
L 100.358735 144.860748 
L 100.358735 155.725234 
L 100.358735 132.444192 
L 90.329978 132.444192 
L 90.329978 144.860748 
L 90.329978 57.94486 
L 50.214953 57.94486 
L 50.214953 57.94486 
" clip-path="url(#pfa6cd2ac72)" style="fill: none; stroke: #332345; stroke-opacity: 0.8; stroke-width: 3; stroke-linecap: round"/>
   </g>
   <g id="line2d_14">
    <path d="M 310.962617 277.605013 
L 300.933861 277.605013 
L 300.933861 278.944404 
L 300.933861 273.423832 
L 290.905104 273.423832 
L 290.905104 274.930678 
L 290.905104 263.798278 
L 280.876348 263.798278 
L 280.876348 265.61999 
L 280.876348 264.663728 
L 270.847592 264.663728 
L 270.847592 266.542991 
L 270.847592 258.93785 
L 260.818835 258.93785 
L 260.818835 261.053566 
L 260.818835 238.16751 
L 250.790079 238.16751 
L 250.790079 240.8574 
L 250.790079 228.779536 
L 240.761323 228.779536 
L 240.761323 231.776636 
L 240.761323 228.616058 
L 230.732566 228.616058 
L 230.732566 231.776636 
L 230.732566 212.023025 
L 220.70381 212.023025 
L 220.70381 215.606238 
L 220.70381 207.874766 
L 210.675054 207.874766 
L 210.675054 211.719123 
L 210.675054 202.804673 
L 200.646298 202.804673 
L 200.646298 206.943525 
L 190.617541 206.943525 
L 190.617541 211.325838 
L 180.588785 211.325838 
L 180.588785 215.973747 
L 180.588785 209.346729 
L 170.560029 209.346729 
L 170.560029 214.393458 
L 160.531272 214.393458 
L 160.531272 219.788237 
L 160.531272 203.963551 
L 150.502516 203.963551 
L 150.502516 210.047664 
L 150.502516 188.318692 
L 140.47376 188.318692 
L 140.47376 195.180472 
L 140.47376 180.649643 
L 130.445004 180.649643 
L 130.445004 188.318692 
L 130.445004 179.627103 
L 120.416247 179.627103 
L 120.416247 188.318692 
L 110.387491 188.318692 
L 110.387491 198.347448 
L 100.358735 198.347448 
L 100.358735 210.047664 
L 100.358735 200.170858 
L 90.329978 200.170858 
L 90.329978 214.393458 
L 90.329978 202.804673 
L 80.301222 202.804673 
L 80.301222 220.91215 
L 80.301222 57.94486 
L 50.214953 57.94486 
L 50.214953 57.94486 
" clip-path="url(#pfa6cd2ac72)" style="fill: none; stroke: #40498e; stroke-opacity: 0.8; stroke-width: 3; stroke-linecap: round"/>
   </g>
   <g id="line2d_15">
    <path d="M 310.962617 252.872725 
L 300.933861 252.872725 
L 300.933861 254.783782 
L 300.933861 222.829412 
L 290.905104 222.829412 
L 290.905104 225.290375 
L 290.905104 210.796938 
L 280.876348 210.796938 
L 280.876348 213.478554 
L 280.876348 211.599733 
L 270.847592 211.599733 
L 270.847592 214.393458 
L 270.847592 212.461994 
L 260.818835 212.461994 
L 260.818835 215.377411 
L 260.818835 206.943525 
L 250.790079 206.943525 
L 250.790079 210.047664 
L 250.790079 202.804673 
L 240.761323 202.804673 
L 240.761323 206.096941 
L 240.761323 200.735247 
L 230.732566 200.735247 
L 230.732566 204.217939 
L 230.732566 176.466525 
L 220.70381 176.466525 
L 220.70381 180.170327 
L 220.70381 165.840445 
L 210.675054 165.840445 
L 210.675054 169.693858 
L 200.646298 169.693858 
L 200.646298 173.83271 
L 200.646298 162.243925 
L 190.617541 162.243925 
L 190.617541 166.58972 
L 190.617541 126.562666 
L 180.588785 126.562666 
L 180.588785 130.374766 
L 170.560029 130.374766 
L 170.560029 134.635349 
L 160.531272 134.635349 
L 160.531272 139.428505 
L 150.502516 139.428505 
L 150.502516 144.860748 
L 140.47376 144.860748 
L 140.47376 151.069025 
L 130.445004 151.069025 
L 130.445004 158.232423 
L 130.445004 129.057859 
L 120.416247 129.057859 
L 120.416247 136.169159 
L 110.387491 136.169159 
L 110.387491 144.860748 
L 100.358735 144.860748 
L 100.358735 155.725234 
L 90.329978 155.725234 
L 90.329978 169.693858 
L 90.329978 57.94486 
L 50.214953 57.94486 
L 50.214953 57.94486 
" clip-path="url(#pfa6cd2ac72)" style="fill: none; stroke: #357ba3; stroke-opacity: 0.8; stroke-width: 3; stroke-linecap: round"/>
   </g>
   <g id="line2d_16">
    <path d="M 310.962617 276.844133 
L 300.933861 276.844133 
L 300.933861 278.203756 
L 300.933861 273.107267 
L 290.905104 273.107267 
L 290.905104 274.622496 
L 290.905104 247.579524 
L 280.876348 247.579524 
L 280.876348 249.759233 
L 280.876348 244.653063 
L 270.847592 244.653063 
L 270.847592 246.986916 
L 270.847592 223.085047 
L 260.818835 223.085047 
L 260.818835 225.884033 
L 260.818835 220.91215 
L 250.790079 220.91215 
L 250.790079 223.875191 
L 250.790079 194.526969 
L 240.761323 194.526969 
L 240.761323 197.85824 
L 240.761323 181.075701 
L 230.732566 181.075701 
L 230.732566 184.593725 
L 230.732566 167.290654 
L 220.70381 167.290654 
L 220.70381 170.935514 
L 210.675054 170.935514 
L 210.675054 174.831743 
L 210.675054 169.693858 
L 200.646298 169.693858 
L 200.646298 173.83271 
L 200.646298 168.261179 
L 190.617541 168.261179 
L 190.617541 172.673832 
L 180.588785 172.673832 
L 180.588785 177.454206 
L 180.588785 149.206542 
L 170.560029 149.206542 
L 170.560029 154.009788 
L 160.531272 154.009788 
L 160.531272 159.346729 
L 150.502516 159.346729 
L 150.502516 165.311545 
L 150.502516 155.725234 
L 140.47376 155.725234 
L 140.47376 162.243925 
L 130.445004 162.243925 
L 130.445004 169.693858 
L 120.416247 169.693858 
L 120.416247 178.289935 
L 120.416247 166.58972 
L 110.387491 166.58972 
L 110.387491 176.466525 
L 100.358735 176.466525 
L 100.358735 188.318692 
L 100.358735 155.725234 
L 90.329978 155.725234 
L 90.329978 169.693858 
L 80.301222 169.693858 
L 80.301222 188.318692 
L 70.272466 188.318692 
L 70.272466 214.393458 
L 70.272466 188.318692 
L 60.24371 188.318692 
L 60.24371 231.776636 
L 60.24371 57.94486 
L 50.214953 57.94486 
L 50.214953 57.94486 
" clip-path="url(#pfa6cd2ac72)" style="fill: none; stroke: #38aaac; stroke-opacity: 0.8; stroke-width: 3; stroke-linecap: round"/>
   </g>
   <g id="line2d_17">
    <path d="M 310.962617 267.333135 
L 300.933861 267.333135 
L 300.933861 268.931519 
L 300.933861 225.568358 
L 290.905104 225.568358 
L 290.905104 227.997684 
L 290.905104 222.416463 
L 280.876348 222.416463 
L 280.876348 224.986332 
L 280.876348 221.963551 
L 270.847592 221.963551 
L 270.847592 224.652382 
L 260.818835 224.652382 
L 260.818835 227.430841 
L 260.818835 217.290654 
L 250.790079 217.290654 
L 250.790079 220.297179 
L 250.790079 212.264906 
L 240.761323 212.264906 
L 240.761323 215.479907 
L 240.761323 208.599065 
L 230.732566 208.599065 
L 230.732566 212.023025 
L 230.732566 206.943525 
L 220.70381 206.943525 
L 220.70381 210.577638 
L 220.70381 188.318692 
L 210.675054 188.318692 
L 210.675054 192.269414 
L 210.675054 188.318692 
L 200.646298 188.318692 
L 200.646298 192.524299 
L 200.646298 183.823042 
L 190.617541 183.823042 
L 190.617541 188.318692 
L 180.588785 188.318692 
L 180.588785 193.147352 
L 180.588785 188.318692 
L 170.560029 188.318692 
L 170.560029 193.533645 
L 170.560029 182.650264 
L 160.531272 182.650264 
L 160.531272 188.318692 
L 160.531272 167.73335 
L 150.502516 167.73335 
L 150.502516 173.83271 
L 150.502516 101.402804 
L 140.47376 101.402804 
L 140.47376 105.353526 
L 140.47376 84.019626 
L 130.445004 84.019626 
L 130.445004 86.916822 
L 120.416247 86.916822 
L 120.416247 90.538318 
L 110.387491 90.538318 
L 110.387491 95.194526 
L 100.358735 95.194526 
L 100.358735 101.402804 
L 90.329978 101.402804 
L 90.329978 110.094393 
L 80.301222 110.094393 
L 80.301222 123.131776 
L 70.272466 123.131776 
L 70.272466 144.860748 
L 60.24371 144.860748 
L 60.24371 188.318692 
L 60.24371 57.94486 
L 50.214953 57.94486 
L 50.214953 57.94486 
" clip-path="url(#pfa6cd2ac72)" style="fill: none; stroke: #79d6ae; stroke-opacity: 0.8; stroke-width: 3; stroke-linecap: round"/>
   </g>
   <g id="line2d_18"/>
   <g id="patch_3">
    <path d="M 45 318.692523 
L 45 44.907477 
" style="fill: none; stroke: #262626; stroke-width: 1.5; stroke-linejoin: miter; stroke-linecap: square"/>
   </g>
   <g id="patch_4">
    <path d="M 45 318.692523 
L 324 318.692523 
" style="fill: none; stroke: #262626; stroke-width: 1.5; stroke-linejoin: miter; stroke-linecap: square"/>
   </g>
   <g id="text_15">
    <text style="fill: #262626; font: 16.8px 'sans-serif'; text-anchor: middle" x="184.5" y="38.907477" transform="rotate(-0, 184.5, 38.907477)">Precision recall: Model trained on selected features</text>
   </g>
   <g id="legend_1">
    <g id="line2d_19">
     <path style="fill: none; stroke: #332345; stroke-opacity: 0.8; stroke-width: 3; stroke-linecap: round"/>
    </g>
    <g id="text_16">
     <text style="fill: #262626; font: 14px 'sans-serif'; text-anchor: start" x="-11.155469" y="384.127569" transform="rotate(-0, -11.155469, 384.127569)">AP fold 0 (AP = 0.60)</text>
    </g>
    <g id="line2d_20">
     <path style="fill: none; stroke: #40498e; stroke-opacity: 0.8; stroke-width: 3; stroke-linecap: round"/>
    </g>
    <g id="text_17">
     <text style="fill: #262626; font: 14px 'sans-serif'; text-anchor: start" x="-11.155469" y="404.676944" transform="rotate(-0, -11.155469, 404.676944)">AP fold 1 (AP = 0.45)</text>
    </g>
    <g id="line2d_21">
     <path style="fill: none; stroke: #357ba3; stroke-opacity: 0.8; stroke-width: 3; stroke-linecap: round"/>
    </g>
    <g id="text_18">
     <text style="fill: #262626; font: 14px 'sans-serif'; text-anchor: start" x="-11.155469" y="425.226319" transform="rotate(-0, -11.155469, 425.226319)">AP fold 2 (AP = 0.63)</text>
    </g>
    <g id="line2d_22">
     <path style="fill: none; stroke: #38aaac; stroke-opacity: 0.8; stroke-width: 3; stroke-linecap: round"/>
    </g>
    <g id="text_19">
     <text style="fill: #262626; font: 14px 'sans-serif'; text-anchor: start" x="203.335469" y="384.127569" transform="rotate(-0, 203.335469, 384.127569)">AP fold 3 (AP = 0.52)</text>
    </g>
    <g id="line2d_23">
     <path style="fill: none; stroke: #79d6ae; stroke-opacity: 0.8; stroke-width: 3; stroke-linecap: round"/>
    </g>
    <g id="text_20">
     <text style="fill: #262626; font: 14px 'sans-serif'; text-anchor: start" x="203.335469" y="404.676944" transform="rotate(-0, 203.335469, 404.676944)">AP fold 4 (AP = 0.59)</text>
    </g>
    <g id="line2d_24"/>
    <g id="text_21">
     <!-- Mean ave. prec. = 0.56 $\pm$ 0.06 -->
     <g style="fill: #262626" transform="translate(203.335469 425.226319)">
      <text>
       <tspan style="font: 14px 'DejaVu Sans'" x="0 12.079102 20.692383 29.271484 38.144531 42.594727 51.173828 59.458984 68.072266 72.522461 76.972656 85.859375 91.615234 100.228516 107.925781 112.375977 116.826172 128.556641 133.006836 141.914062 146.364258 155.271484 164.178711 168.628906 180.359375 184.80957 193.716797 198.166992 207.074219" y="-0.609375">Mean ave. prec. = 0.56 ± 0.06</tspan>
      </text>
     </g>
    </g>
   </g>
  </g>
 </g>
 <defs>
  <clipPath id="pfa6cd2ac72">
   <rect x="45" y="44.907477" width="279" height="273.785047"/>
  </clipPath>
 </defs>
</svg>
