<?xml version="1.0" encoding="utf-8" standalone="no"?>
<!DOCTYPE svg PUBLIC "-//W3C//DTD SVG 1.1//EN"
  "http://www.w3.org/Graphics/SVG/1.1/DTD/svg11.dtd">
<!-- Created with matplotlib (https://matplotlib.org/) -->
<svg height="360pt" version="1.1" viewBox="0 0 360 360" width="360pt" xmlns="http://www.w3.org/2000/svg" xmlns:xlink="http://www.w3.org/1999/xlink">
 <defs>
  <style type="text/css">
*{stroke-linecap:butt;stroke-linejoin:round;}
  </style>
 </defs>
 <g id="figure_1">
  <g id="patch_1">
   <path d="M 0 360 
L 360 360 
L 360 0 
L 0 0 
z
" style="fill:#ffffff;"/>
  </g>
  <g id="axes_1">
   <g id="patch_2">
    <path d="M 46.011429 315 
L 322.988571 315 
L 322.988571 43.2 
L 46.011429 43.2 
z
" style="fill:#ffffff;"/>
   </g>
   <g id="matplotlib.axis_1">
    <g id="xtick_1">
     <g id="line2d_1">
      <defs>
       <path d="M 0 0 
L 0 3.5 
" id="mca9c24d160" style="stroke:#262626;stroke-width:1.5;"/>
      </defs>
      <g>
       <use style="fill:#262626;stroke:#262626;stroke-width:1.5;" x="51.188571" xlink:href="#mca9c24d160" y="315"/>
      </g>
     </g>
     <g id="text_1">
      <text style="fill:#262626;font-family:Cantarell;font-size:14px;font-style:normal;font-weight:normal;text-anchor:middle;" transform="rotate(-0, 51.188571, 332.051562)" x="51.188571" y="332.051562">0.0</text>
     </g>
    </g>
    <g id="xtick_2">
     <g id="line2d_2">
      <g>
       <use style="fill:#262626;stroke:#262626;stroke-width:1.5;" x="102.96" xlink:href="#mca9c24d160" y="315"/>
      </g>
     </g>
     <g id="text_2">
      <text style="fill:#262626;font-family:Cantarell;font-size:14px;font-style:normal;font-weight:normal;text-anchor:middle;" transform="rotate(-0, 102.96, 332.051562)" x="102.96" y="332.051562">0.2</text>
     </g>
    </g>
    <g id="xtick_3">
     <g id="line2d_3">
      <g>
       <use style="fill:#262626;stroke:#262626;stroke-width:1.5;" x="154.731429" xlink:href="#mca9c24d160" y="315"/>
      </g>
     </g>
     <g id="text_3">
      <text style="fill:#262626;font-family:Cantarell;font-size:14px;font-style:normal;font-weight:normal;text-anchor:middle;" transform="rotate(-0, 154.731429, 332.051562)" x="154.731429" y="332.051562">0.4</text>
     </g>
    </g>
    <g id="xtick_4">
     <g id="line2d_4">
      <g>
       <use style="fill:#262626;stroke:#262626;stroke-width:1.5;" x="206.502857" xlink:href="#mca9c24d160" y="315"/>
      </g>
     </g>
     <g id="text_4">
      <text style="fill:#262626;font-family:Cantarell;font-size:14px;font-style:normal;font-weight:normal;text-anchor:middle;" transform="rotate(-0, 206.502857, 332.051562)" x="206.502857" y="332.051562">0.6</text>
     </g>
    </g>
    <g id="xtick_5">
     <g id="line2d_5">
      <g>
       <use style="fill:#262626;stroke:#262626;stroke-width:1.5;" x="258.274286" xlink:href="#mca9c24d160" y="315"/>
      </g>
     </g>
     <g id="text_5">
      <text style="fill:#262626;font-family:Cantarell;font-size:14px;font-style:normal;font-weight:normal;text-anchor:middle;" transform="rotate(-0, 258.274286, 332.051562)" x="258.274286" y="332.051562">0.8</text>
     </g>
    </g>
    <g id="xtick_6">
     <g id="line2d_6">
      <g>
       <use style="fill:#262626;stroke:#262626;stroke-width:1.5;" x="310.045714" xlink:href="#mca9c24d160" y="315"/>
      </g>
     </g>
     <g id="text_6">
      <text style="fill:#262626;font-family:Cantarell;font-size:14px;font-style:normal;font-weight:normal;text-anchor:middle;" transform="rotate(-0, 310.045714, 332.051562)" x="310.045714" y="332.051562">1.0</text>
     </g>
    </g>
    <g id="text_7">
     <text style="fill:#262626;font-family:Cantarell;font-size:14px;font-style:normal;font-weight:normal;text-anchor:middle;" transform="rotate(-0, 184.5, 349.574687)" x="184.5" y="349.574687">Recall (Positive label: 1.0)</text>
    </g>
   </g>
   <g id="matplotlib.axis_2">
    <g id="ytick_1">
     <g id="line2d_7">
      <defs>
       <path d="M 0 0 
L -3.5 0 
" id="m1dbea7fc2d" style="stroke:#262626;stroke-width:1.5;"/>
      </defs>
      <g>
       <use style="fill:#262626;stroke:#262626;stroke-width:1.5;" x="46.011429" xlink:href="#m1dbea7fc2d" y="315"/>
      </g>
     </g>
     <g id="text_8">
      <text style="fill:#262626;font-family:Cantarell;font-size:14px;font-style:normal;font-weight:normal;text-anchor:end;" transform="rotate(-0, 39.011429, 320.025781)" x="39.011429" y="320.025781">0.0</text>
     </g>
    </g>
    <g id="ytick_2">
     <g id="line2d_8">
      <g>
       <use style="fill:#262626;stroke:#262626;stroke-width:1.5;" x="46.011429" xlink:href="#m1dbea7fc2d" y="263.228571"/>
      </g>
     </g>
     <g id="text_9">
      <text style="fill:#262626;font-family:Cantarell;font-size:14px;font-style:normal;font-weight:normal;text-anchor:end;" transform="rotate(-0, 39.011429, 268.254353)" x="39.011429" y="268.254353">0.2</text>
     </g>
    </g>
    <g id="ytick_3">
     <g id="line2d_9">
      <g>
       <use style="fill:#262626;stroke:#262626;stroke-width:1.5;" x="46.011429" xlink:href="#m1dbea7fc2d" y="211.457143"/>
      </g>
     </g>
     <g id="text_10">
      <text style="fill:#262626;font-family:Cantarell;font-size:14px;font-style:normal;font-weight:normal;text-anchor:end;" transform="rotate(-0, 39.011429, 216.482924)" x="39.011429" y="216.482924">0.4</text>
     </g>
    </g>
    <g id="ytick_4">
     <g id="line2d_10">
      <g>
       <use style="fill:#262626;stroke:#262626;stroke-width:1.5;" x="46.011429" xlink:href="#m1dbea7fc2d" y="159.685714"/>
      </g>
     </g>
     <g id="text_11">
      <text style="fill:#262626;font-family:Cantarell;font-size:14px;font-style:normal;font-weight:normal;text-anchor:end;" transform="rotate(-0, 39.011429, 164.711496)" x="39.011429" y="164.711496">0.6</text>
     </g>
    </g>
    <g id="ytick_5">
     <g id="line2d_11">
      <g>
       <use style="fill:#262626;stroke:#262626;stroke-width:1.5;" x="46.011429" xlink:href="#m1dbea7fc2d" y="107.914286"/>
      </g>
     </g>
     <g id="text_12">
      <text style="fill:#262626;font-family:Cantarell;font-size:14px;font-style:normal;font-weight:normal;text-anchor:end;" transform="rotate(-0, 39.011429, 112.940067)" x="39.011429" y="112.940067">0.8</text>
     </g>
    </g>
    <g id="ytick_6">
     <g id="line2d_12">
      <g>
       <use style="fill:#262626;stroke:#262626;stroke-width:1.5;" x="46.011429" xlink:href="#m1dbea7fc2d" y="56.142857"/>
      </g>
     </g>
     <g id="text_13">
      <text style="fill:#262626;font-family:Cantarell;font-size:14px;font-style:normal;font-weight:normal;text-anchor:end;" transform="rotate(-0, 39.011429, 61.168638)" x="39.011429" y="61.168638">1.0</text>
     </g>
    </g>
    <g id="text_14">
     <text style="fill:#262626;font-family:Cantarell;font-size:14px;font-style:normal;font-weight:normal;text-anchor:middle;" transform="rotate(-90, 11.966116, 179.1)" x="11.966116" y="179.1">Precision (Positive label: 1.0)</text>
    </g>
   </g>
   <g id="line2d_13">
    <path clip-path="url(#pf02e00b7ca)" d="M 310.045714 237.640394 
L 300.08967 237.640394 
L 300.08967 239.750831 
L 300.08967 208.911007 
L 290.133626 208.911007 
L 290.133626 211.457143 
L 290.133626 207.8867 
L 280.177582 207.8867 
L 280.177582 210.548872 
L 280.177582 208.683673 
L 270.221538 208.683673 
L 270.221538 211.457143 
L 270.221538 185.571429 
L 260.265495 185.571429 
L 260.265495 188.581395 
L 260.265495 185.571429 
L 250.309451 185.571429 
L 250.309451 188.728223 
L 240.353407 188.728223 
L 240.353407 192.042857 
L 230.397363 192.042857 
L 230.397363 195.527473 
L 230.397363 181.873469 
L 220.441319 181.873469 
L 220.441319 185.571429 
L 220.441319 181.649351 
L 210.485275 181.649351 
L 210.485275 185.571429 
L 210.485275 181.396313 
L 200.529231 181.396313 
L 200.529231 185.571429 
L 190.573187 185.571429 
L 190.573187 190.034483 
L 190.573187 180.777778 
L 180.617143 180.777778 
L 180.617143 185.571429 
L 170.661099 185.571429 
L 170.661099 190.748571 
L 160.705055 190.748571 
L 160.705055 196.357143 
L 150.749011 196.357143 
L 150.749011 202.453416 
L 150.749011 142.428571 
L 140.792967 142.428571 
L 140.792967 148.591837 
L 140.792967 135.791209 
L 130.836923 135.791209 
L 130.836923 142.428571 
L 120.880879 142.428571 
L 120.880879 150.272727 
L 120.880879 133.8 
L 110.924835 133.8 
L 110.924835 142.428571 
L 100.968791 142.428571 
L 100.968791 153.214286 
L 100.968791 130.102041 
L 91.012747 130.102041 
L 91.012747 142.428571 
L 91.012747 56.142857 
L 51.188571 56.142857 
L 51.188571 56.142857 
" style="fill:none;stroke:#332345;stroke-linecap:round;stroke-opacity:0.8;stroke-width:3;"/>
   </g>
   <g id="line2d_14">
    <path clip-path="url(#pf02e00b7ca)" d="M 310.045714 274.21039 
L 300.08967 274.21039 
L 300.08967 275.54007 
L 300.08967 270.059524 
L 290.133626 270.059524 
L 290.133626 271.555445 
L 290.133626 260.503759 
L 280.177582 260.503759 
L 280.177582 262.312263 
L 280.177582 261.362934 
L 270.221538 261.362934 
L 270.221538 263.228571 
L 270.221538 255.678571 
L 260.265495 255.678571 
L 260.265495 257.778947 
L 260.265495 235.058824 
L 250.309451 235.058824 
L 250.309451 237.729211 
L 250.309451 225.738916 
L 240.353407 225.738916 
L 240.353407 228.714286 
L 240.353407 225.576623 
L 230.397363 225.576623 
L 230.397363 228.714286 
L 230.397363 209.103896 
L 220.441319 209.103896 
L 220.441319 212.66113 
L 220.441319 204.985714 
L 210.485275 204.985714 
L 210.485275 208.802198 
L 210.485275 199.952381 
L 200.529231 199.952381 
L 200.529231 204.061224 
L 190.573187 204.061224 
L 190.573187 208.411765 
L 180.617143 208.411765 
L 180.617143 213.025974 
L 180.617143 206.447005 
L 170.661099 206.447005 
L 170.661099 211.457143 
L 160.705055 211.457143 
L 160.705055 216.812808 
L 160.705055 201.102857 
L 150.749011 201.102857 
L 150.749011 207.142857 
L 150.749011 185.571429 
L 140.792967 185.571429 
L 140.792967 192.383459 
L 140.792967 177.957983 
L 130.836923 177.957983 
L 130.836923 185.571429 
L 130.836923 176.942857 
L 120.880879 176.942857 
L 120.880879 185.571429 
L 110.924835 185.571429 
L 110.924835 195.527473 
L 100.968791 195.527473 
L 100.968791 207.142857 
L 100.968791 197.337662 
L 91.012747 197.337662 
L 91.012747 211.457143 
L 91.012747 199.952381 
L 81.056703 199.952381 
L 81.056703 217.928571 
L 81.056703 56.142857 
L 51.188571 56.142857 
L 51.188571 56.142857 
" style="fill:none;stroke:#40498e;stroke-linecap:round;stroke-opacity:0.8;stroke-width:3;"/>
   </g>
   <g id="line2d_15">
    <path clip-path="url(#pf02e00b7ca)" d="M 310.045714 250.902041 
L 300.08967 250.902041 
L 300.08967 252.774725 
L 300.08967 221.21118 
L 290.133626 221.21118 
L 290.133626 223.638655 
L 290.133626 220.87013 
L 280.177582 220.87013 
L 280.177582 223.404396 
L 280.177582 221.973214 
L 270.221538 221.973214 
L 270.221538 224.605442 
L 260.265495 224.605442 
L 260.265495 227.322581 
L 260.265495 214.333333 
L 250.309451 214.333333 
L 250.309451 217.318059 
L 250.309451 194.601329 
L 240.353407 194.601329 
L 240.353407 197.897959 
L 240.353407 185.571429 
L 230.397363 185.571429 
L 230.397363 189.069498 
L 230.397363 181.873469 
L 220.441319 181.873469 
L 220.441319 185.571429 
L 220.441319 168.314286 
L 210.485275 168.314286 
L 210.485275 172.182266 
L 200.529231 172.182266 
L 200.529231 176.326531 
L 190.573187 176.326531 
L 190.573187 180.777778 
L 190.573187 142.428571 
L 180.617143 142.428571 
L 180.617143 146.742857 
L 170.661099 146.742857 
L 170.661099 151.511278 
L 170.661099 142.428571 
L 160.705055 142.428571 
L 160.705055 147.504202 
L 160.705055 137.035714 
L 150.749011 137.035714 
L 150.749011 142.428571 
L 140.792967 142.428571 
L 140.792967 148.591837 
L 140.792967 135.791209 
L 130.836923 135.791209 
L 130.836923 142.428571 
L 130.836923 126.74026 
L 120.880879 126.74026 
L 120.880879 133.8 
L 120.880879 113.666667 
L 110.924835 113.666667 
L 110.924835 120.857143 
L 100.968791 120.857143 
L 100.968791 130.102041 
L 91.012747 130.102041 
L 91.012747 142.428571 
L 91.012747 107.914286 
L 81.056703 107.914286 
L 81.056703 120.857143 
L 81.056703 56.142857 
L 51.188571 56.142857 
L 51.188571 56.142857 
" style="fill:none;stroke:#357ba3;stroke-linecap:round;stroke-opacity:0.8;stroke-width:3;"/>
   </g>
   <g id="line2d_16">
    <path clip-path="url(#pf02e00b7ca)" d="M 310.045714 273.455026 
L 300.08967 273.455026 
L 300.08967 274.804791 
L 300.08967 269.745255 
L 290.133626 269.745255 
L 290.133626 271.249497 
L 290.133626 244.402597 
L 280.177582 244.402597 
L 280.177582 246.566502 
L 280.177582 241.497354 
L 270.221538 241.497354 
L 270.221538 243.814286 
L 270.221538 220.085714 
L 260.265495 220.085714 
L 260.265495 222.864407 
L 260.265495 217.928571 
L 250.309451 217.928571 
L 250.309451 220.87013 
L 250.309451 199.952381 
L 240.353407 199.952381 
L 240.353407 203.220779 
L 240.353407 195.041812 
L 230.397363 195.041812 
L 230.397363 198.514286 
L 230.397363 164.695853 
L 220.441319 164.695853 
L 220.441319 168.314286 
L 210.485275 168.314286 
L 210.485275 172.182266 
L 210.485275 167.081633 
L 200.529231 167.081633 
L 200.529231 171.190476 
L 200.529231 165.659341 
L 190.573187 165.659341 
L 190.573187 170.04 
L 180.617143 170.04 
L 180.617143 174.785714 
L 180.617143 146.742857 
L 170.661099 146.742857 
L 170.661099 151.511278 
L 160.705055 151.511278 
L 160.705055 156.809524 
L 150.749011 156.809524 
L 150.749011 162.731092 
L 150.749011 153.214286 
L 140.792967 153.214286 
L 140.792967 159.685714 
L 130.836923 159.685714 
L 130.836923 167.081633 
L 120.880879 167.081633 
L 120.880879 175.615385 
L 120.880879 164 
L 110.924835 164 
L 110.924835 173.805195 
L 100.968791 173.805195 
L 100.968791 185.571429 
L 100.968791 153.214286 
L 91.012747 153.214286 
L 91.012747 167.081633 
L 81.056703 167.081633 
L 81.056703 185.571429 
L 71.100659 185.571429 
L 71.100659 211.457143 
L 71.100659 185.571429 
L 61.144615 185.571429 
L 61.144615 228.714286 
L 61.144615 56.142857 
L 51.188571 56.142857 
L 51.188571 56.142857 
" style="fill:none;stroke:#38aaac;stroke-linecap:round;stroke-opacity:0.8;stroke-width:3;"/>
   </g>
   <g id="line2d_17">
    <path clip-path="url(#pf02e00b7ca)" d="M 310.045714 264.012987 
L 300.08967 264.012987 
L 300.08967 265.599782 
L 300.08967 222.55102 
L 290.133626 222.55102 
L 290.133626 224.962733 
L 290.133626 219.421978 
L 280.177582 219.421978 
L 280.177582 221.973214 
L 280.177582 218.97235 
L 270.221538 218.97235 
L 270.221538 221.641686 
L 260.265495 221.641686 
L 260.265495 224.4 
L 260.265495 214.333333 
L 250.309451 214.333333 
L 250.309451 217.318059 
L 250.309451 209.344023 
L 240.353407 209.344023 
L 240.353407 212.535714 
L 240.353407 205.704762 
L 230.397363 205.704762 
L 230.397363 209.103896 
L 230.397363 204.061224 
L 220.441319 204.061224 
L 220.441319 207.66899 
L 220.441319 185.571429 
L 210.485275 185.571429 
L 210.485275 189.493506 
L 210.485275 185.571429 
L 200.529231 185.571429 
L 200.529231 189.746544 
L 200.529231 181.108374 
L 190.573187 181.108374 
L 190.573187 185.571429 
L 180.617143 185.571429 
L 180.617143 190.365079 
L 180.617143 185.571429 
L 170.661099 185.571429 
L 170.661099 190.748571 
L 170.661099 179.944099 
L 160.705055 179.944099 
L 160.705055 185.571429 
L 160.705055 165.135338 
L 150.749011 165.135338 
L 150.749011 171.190476 
L 150.749011 99.285714 
L 140.792967 99.285714 
L 140.792967 103.207792 
L 140.792967 82.028571 
L 130.836923 82.028571 
L 130.836923 84.904762 
L 120.880879 84.904762 
L 120.880879 88.5 
L 110.924835 88.5 
L 110.924835 93.122449 
L 100.968791 93.122449 
L 100.968791 99.285714 
L 91.012747 99.285714 
L 91.012747 107.914286 
L 81.056703 107.914286 
L 81.056703 120.857143 
L 71.100659 120.857143 
L 71.100659 142.428571 
L 61.144615 142.428571 
L 61.144615 185.571429 
L 61.144615 56.142857 
L 51.188571 56.142857 
L 51.188571 56.142857 
" style="fill:none;stroke:#79d6ae;stroke-linecap:round;stroke-opacity:0.8;stroke-width:3;"/>
   </g>
   <g id="line2d_18"/>
   <g id="patch_3">
    <path d="M 46.011429 315 
L 46.011429 43.2 
" style="fill:none;stroke:#262626;stroke-linecap:square;stroke-linejoin:miter;stroke-width:1.5;"/>
   </g>
   <g id="patch_4">
    <path d="M 46.011429 315 
L 322.988571 315 
" style="fill:none;stroke:#262626;stroke-linecap:square;stroke-linejoin:miter;stroke-width:1.5;"/>
   </g>
   <g id="text_15">
    <text style="fill:#262626;font-family:Cantarell;font-size:16.8px;font-style:normal;font-weight:normal;text-anchor:middle;" transform="rotate(-0, 184.5, 37.2)" x="184.5" y="37.2">Precision recall: Model trained on selected features</text>
   </g>
   <g id="legend_1">
    <g id="line2d_19">
     <path style="fill:none;stroke:#332345;stroke-linecap:round;stroke-opacity:0.8;stroke-width:3;"/>
    </g>
    <g id="line2d_20"/>
    <g id="text_16">
     <text style="fill:#262626;font-family:Cantarell;font-size:14px;font-style:normal;font-weight:normal;text-anchor:start;" transform="rotate(-0, 11.746563, 379.292656)" x="11.746563" y="379.292656">AP fold 0 (AP = 0.60)</text>
    </g>
    <g id="line2d_21">
     <path style="fill:none;stroke:#40498e;stroke-linecap:round;stroke-opacity:0.8;stroke-width:3;"/>
    </g>
    <g id="line2d_22"/>
    <g id="text_17">
     <text style="fill:#262626;font-family:Cantarell;font-size:14px;font-style:normal;font-weight:normal;text-anchor:start;" transform="rotate(-0, 11.746563, 399.815781)" x="11.746563" y="399.815781">AP fold 1 (AP = 0.45)</text>
    </g>
    <g id="line2d_23">
     <path style="fill:none;stroke:#357ba3;stroke-linecap:round;stroke-opacity:0.8;stroke-width:3;"/>
    </g>
    <g id="line2d_24"/>
    <g id="text_18">
     <text style="fill:#262626;font-family:Cantarell;font-size:14px;font-style:normal;font-weight:normal;text-anchor:start;" transform="rotate(-0, 11.746563, 420.338906)" x="11.746563" y="420.338906">AP fold 2 (AP = 0.62)</text>
    </g>
    <g id="line2d_25">
     <path style="fill:none;stroke:#38aaac;stroke-linecap:round;stroke-opacity:0.8;stroke-width:3;"/>
    </g>
    <g id="line2d_26"/>
    <g id="text_19">
     <text style="fill:#262626;font-family:Cantarell;font-size:14px;font-style:normal;font-weight:normal;text-anchor:start;" transform="rotate(-0, 209.273438, 379.292656)" x="209.273438" y="379.292656">AP fold 3 (AP = 0.52)</text>
    </g>
    <g id="line2d_27">
     <path style="fill:none;stroke:#79d6ae;stroke-linecap:round;stroke-opacity:0.8;stroke-width:3;"/>
    </g>
    <g id="line2d_28"/>
    <g id="text_20">
     <text style="fill:#262626;font-family:Cantarell;font-size:14px;font-style:normal;font-weight:normal;text-anchor:start;" transform="rotate(-0, 209.273438, 399.815781)" x="209.273438" y="399.815781">AP fold 4 (AP = 0.59)</text>
    </g>
    <g id="line2d_29"/>
    <g id="line2d_30"/>
    <g id="text_21">
     <!-- Mean ave. prec. = 0.55 $\pm$ 0.06 -->
     <g style="fill:#262626;" transform="translate(209.273438 420.338906)">
      <text>
       <tspan style="font-family:Cantarell;font-size:14px;font-style:regular;font-weight:regular;" x="0 11.829987 19.039978 25.773972 33.305969 37.12796 43.861954 50.44194 57.651932 61.151932 64.973923 72.757919 77.811905 85.021896 91.825882 95.325882 99.147873 108.709869 112.53186 120.567856 124.067856 132.103851 140.139847 155.692307 159.514297 167.550293 171.050293 179.086288" y="-0.109375">Mean ave. prec. = 0.55  0.06</tspan>
       <tspan style="font-family:DejaVu Sans;font-size:14px;font-style:book;font-weight:book;" x="143.961838" y="-0.109375">±</tspan>
      </text>
     </g>
    </g>
   </g>
  </g>
 </g>
 <defs>
  <clipPath id="pf02e00b7ca">
   <rect height="271.8" width="276.977143" x="46.011429" y="43.2"/>
  </clipPath>
 </defs>
</svg>
