<?xml version="1.0" encoding="utf-8" standalone="no"?>
<!DOCTYPE svg PUBLIC "-//W3C//DTD SVG 1.1//EN"
  "http://www.w3.org/Graphics/SVG/1.1/DTD/svg11.dtd">
<svg xmlns:xlink="http://www.w3.org/1999/xlink" width="360pt" height="360pt" viewBox="0 0 360 360" xmlns="http://www.w3.org/2000/svg" version="1.1">
 <metadata>
  <rdf:RDF xmlns:dc="http://purl.org/dc/elements/1.1/" xmlns:cc="http://creativecommons.org/ns#" xmlns:rdf="http://www.w3.org/1999/02/22-rdf-syntax-ns#">
   <cc:Work>
    <dc:type rdf:resource="http://purl.org/dc/dcmitype/StillImage"/>
    <dc:date>2023-12-05T13:48:34.038288</dc:date>
    <dc:format>image/svg+xml</dc:format>
    <dc:creator>
     <cc:Agent>
      <dc:title>Matplotlib v3.5.3, https://matplotlib.org/</dc:title>
     </cc:Agent>
    </dc:creator>
   </cc:Work>
  </rdf:RDF>
 </metadata>
 <defs>
  <style type="text/css">*{stroke-linejoin: round; stroke-linecap: butt}</style>
 </defs>
 <g id="figure_1">
  <g id="patch_1">
   <path d="M 0 360 
L 360 360 
L 360 0 
L 0 0 
z
" style="fill: #ffffff"/>
  </g>
  <g id="axes_1">
   <g id="patch_2">
    <path d="M 45 318.692523 
L 324 318.692523 
L 324 44.907477 
L 45 44.907477 
z
" style="fill: #ffffff"/>
   </g>
   <g id="matplotlib.axis_1">
    <g id="xtick_1">
     <g id="line2d_1">
      <defs>
       <path id="m1faf4804ca" d="M 0 0 
L 0 3.5 
" style="stroke: #262626; stroke-width: 1.5"/>
      </defs>
      <g>
       <use xlink:href="#m1faf4804ca" x="50.214953" y="318.692523" style="fill: #262626; stroke: #262626; stroke-width: 1.5"/>
      </g>
     </g>
     <g id="text_1">
      <text style="fill: #262626; font: 14px 'sans-serif'; text-anchor: middle" x="50.214953" y="336.330336" transform="rotate(-0, 50.214953, 336.330336)">0.0</text>
     </g>
    </g>
    <g id="xtick_2">
     <g id="line2d_2">
      <g>
       <use xlink:href="#m1faf4804ca" x="102.364486" y="318.692523" style="fill: #262626; stroke: #262626; stroke-width: 1.5"/>
      </g>
     </g>
     <g id="text_2">
      <text style="fill: #262626; font: 14px 'sans-serif'; text-anchor: middle" x="102.364486" y="336.330336" transform="rotate(-0, 102.364486, 336.330336)">0.2</text>
     </g>
    </g>
    <g id="xtick_3">
     <g id="line2d_3">
      <g>
       <use xlink:href="#m1faf4804ca" x="154.514019" y="318.692523" style="fill: #262626; stroke: #262626; stroke-width: 1.5"/>
      </g>
     </g>
     <g id="text_3">
      <text style="fill: #262626; font: 14px 'sans-serif'; text-anchor: middle" x="154.514019" y="336.330336" transform="rotate(-0, 154.514019, 336.330336)">0.4</text>
     </g>
    </g>
    <g id="xtick_4">
     <g id="line2d_4">
      <g>
       <use xlink:href="#m1faf4804ca" x="206.663551" y="318.692523" style="fill: #262626; stroke: #262626; stroke-width: 1.5"/>
      </g>
     </g>
     <g id="text_4">
      <text style="fill: #262626; font: 14px 'sans-serif'; text-anchor: middle" x="206.663551" y="336.330336" transform="rotate(-0, 206.663551, 336.330336)">0.6</text>
     </g>
    </g>
    <g id="xtick_5">
     <g id="line2d_5">
      <g>
       <use xlink:href="#m1faf4804ca" x="258.813084" y="318.692523" style="fill: #262626; stroke: #262626; stroke-width: 1.5"/>
      </g>
     </g>
     <g id="text_5">
      <text style="fill: #262626; font: 14px 'sans-serif'; text-anchor: middle" x="258.813084" y="336.330336" transform="rotate(-0, 258.813084, 336.330336)">0.8</text>
     </g>
    </g>
    <g id="xtick_6">
     <g id="line2d_6">
      <g>
       <use xlink:href="#m1faf4804ca" x="310.962617" y="318.692523" style="fill: #262626; stroke: #262626; stroke-width: 1.5"/>
      </g>
     </g>
     <g id="text_6">
      <text style="fill: #262626; font: 14px 'sans-serif'; text-anchor: middle" x="310.962617" y="336.330336" transform="rotate(-0, 310.962617, 336.330336)">1.0</text>
     </g>
    </g>
    <g id="text_7">
     <text style="fill: #262626; font: 14px 'sans-serif'; text-anchor: middle" x="184.5" y="353.879711" transform="rotate(-0, 184.5, 353.879711)">Recall (Positive label: 1.0)</text>
    </g>
   </g>
   <g id="matplotlib.axis_2">
    <g id="ytick_1">
     <g id="line2d_7">
      <defs>
       <path id="m3b47633c7b" d="M 0 0 
L -3.5 0 
" style="stroke: #262626; stroke-width: 1.5"/>
      </defs>
      <g>
       <use xlink:href="#m3b47633c7b" x="45" y="318.692523" style="fill: #262626; stroke: #262626; stroke-width: 1.5"/>
      </g>
     </g>
     <g id="text_8">
      <text style="fill: #262626; font: 14px 'sans-serif'; text-anchor: end" x="38" y="324.01143" transform="rotate(-0, 38, 324.01143)">0.0</text>
     </g>
    </g>
    <g id="ytick_2">
     <g id="line2d_8">
      <g>
       <use xlink:href="#m3b47633c7b" x="45" y="266.542991" style="fill: #262626; stroke: #262626; stroke-width: 1.5"/>
      </g>
     </g>
     <g id="text_9">
      <text style="fill: #262626; font: 14px 'sans-serif'; text-anchor: end" x="38" y="271.861897" transform="rotate(-0, 38, 271.861897)">0.2</text>
     </g>
    </g>
    <g id="ytick_3">
     <g id="line2d_9">
      <g>
       <use xlink:href="#m3b47633c7b" x="45" y="214.393458" style="fill: #262626; stroke: #262626; stroke-width: 1.5"/>
      </g>
     </g>
     <g id="text_10">
      <text style="fill: #262626; font: 14px 'sans-serif'; text-anchor: end" x="38" y="219.712364" transform="rotate(-0, 38, 219.712364)">0.4</text>
     </g>
    </g>
    <g id="ytick_4">
     <g id="line2d_10">
      <g>
       <use xlink:href="#m3b47633c7b" x="45" y="162.243925" style="fill: #262626; stroke: #262626; stroke-width: 1.5"/>
      </g>
     </g>
     <g id="text_11">
      <text style="fill: #262626; font: 14px 'sans-serif'; text-anchor: end" x="38" y="167.562831" transform="rotate(-0, 38, 167.562831)">0.6</text>
     </g>
    </g>
    <g id="ytick_5">
     <g id="line2d_11">
      <g>
       <use xlink:href="#m3b47633c7b" x="45" y="110.094393" style="fill: #262626; stroke: #262626; stroke-width: 1.5"/>
      </g>
     </g>
     <g id="text_12">
      <text style="fill: #262626; font: 14px 'sans-serif'; text-anchor: end" x="38" y="115.413299" transform="rotate(-0, 38, 115.413299)">0.8</text>
     </g>
    </g>
    <g id="ytick_6">
     <g id="line2d_12">
      <g>
       <use xlink:href="#m3b47633c7b" x="45" y="57.94486" style="fill: #262626; stroke: #262626; stroke-width: 1.5"/>
      </g>
     </g>
     <g id="text_13">
      <text style="fill: #262626; font: 14px 'sans-serif'; text-anchor: end" x="38" y="63.263766" transform="rotate(-0, 38, 63.263766)">1.0</text>
     </g>
    </g>
    <g id="text_14">
     <text style="fill: #262626; font: 14px 'sans-serif'; text-anchor: middle" x="8.824063" y="181.8" transform="rotate(-90, 8.824063, 181.8)">Precision (Positive label: 1.0)</text>
    </g>
   </g>
   <g id="line2d_13">
    <path d="M 310.962617 241.433956 
L 278.369159 241.433956 
L 278.369159 248.491229 
L 278.369159 248.491229 
L 278.369159 245.683178 
L 278.369159 245.683178 
L 278.369159 239.334539 
L 245.775701 239.334539 
L 245.775701 247.579524 
L 245.775701 247.579524 
L 245.775701 244.193191 
L 245.775701 244.193191 
L 245.775701 240.468224 
L 245.775701 240.468224 
L 245.775701 236.351156 
L 245.775701 236.351156 
L 245.775701 231.776636 
L 213.182243 231.776636 
L 213.182243 242.002034 
L 213.182243 242.002034 
L 213.182243 237.208879 
L 213.182243 237.208879 
L 213.182243 231.776636 
L 213.182243 231.776636 
L 213.182243 225.568358 
L 213.182243 225.568358 
L 213.182243 218.40496 
L 213.182243 218.40496 
L 213.182243 210.047664 
L 213.182243 210.047664 
L 213.182243 200.170858 
L 213.182243 200.170858 
L 213.182243 188.318692 
L 213.182243 188.318692 
L 213.182243 173.83271 
L 180.588785 173.83271 
L 180.588785 188.318692 
L 180.588785 188.318692 
L 180.588785 169.693858 
L 180.588785 169.693858 
L 180.588785 144.860748 
L 147.995327 144.860748 
L 147.995327 162.243925 
L 115.401869 162.243925 
L 115.401869 188.318692 
L 115.401869 188.318692 
L 115.401869 144.860748 
L 82.808411 144.860748 
L 82.808411 188.318692 
L 50.214953 188.318692 
L 50.214953 318.692523 
L 50.214953 318.692523 
L 50.214953 57.94486 
" clip-path="url(#pc0084dae02)" style="fill: none; stroke: #332345; stroke-opacity: 0.8; stroke-width: 3; stroke-linecap: round"/>
   </g>
   <g id="line2d_14">
    <path d="M 310.962617 253.505607 
L 273.712951 253.505607 
L 273.712951 260.748598 
L 273.712951 260.748598 
L 273.712951 258.519986 
L 273.712951 258.519986 
L 273.712951 256.113084 
L 236.463284 256.113084 
L 236.463284 264.370093 
L 199.213618 264.370093 
L 199.213618 273.345104 
L 199.213618 273.345104 
L 199.213618 271.283857 
L 199.213618 271.283857 
L 199.213618 269.026302 
L 199.213618 269.026302 
L 199.213618 266.542991 
L 199.213618 266.542991 
L 199.213618 263.798278 
L 199.213618 263.798278 
L 199.213618 260.748598 
L 199.213618 260.748598 
L 199.213618 257.340132 
L 199.213618 257.340132 
L 199.213618 253.505607 
L 199.213618 253.505607 
L 199.213618 249.159813 
L 199.213618 249.159813 
L 199.213618 244.193191 
L 199.213618 244.193191 
L 199.213618 238.462473 
L 161.963952 238.462473 
L 161.963952 253.505607 
L 161.963952 253.505607 
L 161.963952 247.579524 
L 161.963952 247.579524 
L 161.963952 240.468224 
L 124.714286 240.468224 
L 124.714286 260.748598 
L 124.714286 260.748598 
L 124.714286 253.505607 
L 124.714286 253.505607 
L 124.714286 244.193191 
L 124.714286 244.193191 
L 124.714286 231.776636 
L 87.464619 231.776636 
L 87.464619 266.542991 
L 87.464619 266.542991 
L 87.464619 253.505607 
L 87.464619 253.505607 
L 87.464619 231.776636 
L 87.464619 231.776636 
L 87.464619 188.318692 
L 87.464619 188.318692 
L 87.464619 57.94486 
L 50.214953 57.94486 
L 50.214953 57.94486 
" clip-path="url(#pc0084dae02)" style="fill: none; stroke: #40498e; stroke-opacity: 0.8; stroke-width: 3; stroke-linecap: round"/>
   </g>
   <g id="line2d_15">
    <path d="M 310.962617 267.991589 
L 273.712951 267.991589 
L 273.712951 273.992924 
L 273.712951 273.992924 
L 273.712951 272.67823 
L 273.712951 272.67823 
L 273.712951 271.283857 
L 273.712951 271.283857 
L 273.712951 269.802336 
L 273.712951 269.802336 
L 273.712951 268.225234 
L 273.712951 268.225234 
L 273.712951 266.542991 
L 273.712951 266.542991 
L 273.712951 264.744731 
L 273.712951 264.744731 
L 273.712951 260.748598 
L 273.712951 260.748598 
L 273.712951 258.519986 
L 273.712951 258.519986 
L 273.712951 256.113084 
L 273.712951 256.113084 
L 273.712951 253.505607 
L 273.712951 253.505607 
L 273.712951 250.671394 
L 273.712951 250.671394 
L 273.712951 247.579524 
L 273.712951 247.579524 
L 273.712951 244.193191 
L 273.712951 244.193191 
L 273.712951 240.468224 
L 273.712951 240.468224 
L 273.712951 236.351156 
L 273.712951 236.351156 
L 273.712951 231.776636 
L 273.712951 231.776636 
L 273.712951 226.663936 
L 273.712951 226.663936 
L 273.712951 220.91215 
L 273.712951 220.91215 
L 273.712951 214.393458 
L 236.463284 214.393458 
L 236.463284 225.568358 
L 236.463284 225.568358 
L 236.463284 218.40496 
L 236.463284 218.40496 
L 236.463284 210.047664 
L 236.463284 210.047664 
L 236.463284 200.170858 
L 199.213618 200.170858 
L 199.213618 214.393458 
L 199.213618 214.393458 
L 199.213618 202.804673 
L 199.213618 202.804673 
L 199.213618 188.318692 
L 161.963952 188.318692 
L 161.963952 206.943525 
L 124.714286 206.943525 
L 124.714286 231.776636 
L 124.714286 231.776636 
L 124.714286 214.393458 
L 124.714286 214.393458 
L 124.714286 188.318692 
L 87.464619 188.318692 
L 87.464619 231.776636 
L 87.464619 231.776636 
L 87.464619 188.318692 
L 87.464619 188.318692 
L 87.464619 57.94486 
L 50.214953 57.94486 
L 50.214953 57.94486 
" clip-path="url(#pc0084dae02)" style="fill: none; stroke: #357ba3; stroke-opacity: 0.8; stroke-width: 3; stroke-linecap: round"/>
   </g>
   <g id="line2d_16">
    <path d="M 310.962617 239.334539 
L 273.712951 239.334539 
L 273.712951 247.579524 
L 273.712951 247.579524 
L 273.712951 244.193191 
L 273.712951 244.193191 
L 273.712951 240.468224 
L 273.712951 240.468224 
L 273.712951 236.351156 
L 273.712951 236.351156 
L 273.712951 231.776636 
L 236.463284 231.776636 
L 236.463284 242.002034 
L 199.213618 242.002034 
L 199.213618 253.505607 
L 161.963952 253.505607 
L 161.963952 266.542991 
L 124.714286 266.542991 
L 124.714286 281.442857 
L 124.714286 281.442857 
L 124.714286 278.577498 
L 124.714286 278.577498 
L 124.714286 275.234579 
L 124.714286 275.234579 
L 124.714286 271.283857 
L 124.714286 271.283857 
L 124.714286 266.542991 
L 124.714286 266.542991 
L 124.714286 260.748598 
L 124.714286 260.748598 
L 124.714286 253.505607 
L 124.714286 253.505607 
L 124.714286 244.193191 
L 124.714286 244.193191 
L 124.714286 231.776636 
L 87.464619 231.776636 
L 87.464619 266.542991 
L 87.464619 266.542991 
L 87.464619 253.505607 
L 50.214953 253.505607 
L 50.214953 318.692523 
L 50.214953 318.692523 
L 50.214953 318.692523 
L 50.214953 318.692523 
L 50.214953 318.692523 
L 50.214953 318.692523 
L 50.214953 57.94486 
" clip-path="url(#pc0084dae02)" style="fill: none; stroke: #38aaac; stroke-opacity: 0.8; stroke-width: 3; stroke-linecap: round"/>
   </g>
   <g id="line2d_17">
    <path d="M 310.962617 265.009181 
L 273.712951 265.009181 
L 273.712951 271.283857 
L 273.712951 271.283857 
L 273.712951 269.802336 
L 273.712951 269.802336 
L 273.712951 268.225234 
L 273.712951 268.225234 
L 273.712951 266.542991 
L 273.712951 266.542991 
L 273.712951 264.744731 
L 273.712951 264.744731 
L 273.712951 262.818024 
L 273.712951 262.818024 
L 273.712951 260.748598 
L 273.712951 260.748598 
L 273.712951 258.519986 
L 273.712951 258.519986 
L 273.712951 256.113084 
L 273.712951 256.113084 
L 273.712951 253.505607 
L 273.712951 253.505607 
L 273.712951 250.671394 
L 273.712951 250.671394 
L 273.712951 247.579524 
L 273.712951 247.579524 
L 273.712951 244.193191 
L 273.712951 244.193191 
L 273.712951 240.468224 
L 273.712951 240.468224 
L 273.712951 236.351156 
L 273.712951 236.351156 
L 273.712951 231.776636 
L 273.712951 231.776636 
L 273.712951 226.663936 
L 273.712951 226.663936 
L 273.712951 220.91215 
L 273.712951 220.91215 
L 273.712951 214.393458 
L 236.463284 214.393458 
L 236.463284 225.568358 
L 236.463284 225.568358 
L 236.463284 218.40496 
L 236.463284 218.40496 
L 236.463284 210.047664 
L 236.463284 210.047664 
L 236.463284 200.170858 
L 199.213618 200.170858 
L 199.213618 214.393458 
L 199.213618 214.393458 
L 199.213618 202.804673 
L 161.963952 202.804673 
L 161.963952 220.91215 
L 161.963952 220.91215 
L 161.963952 206.943525 
L 124.714286 206.943525 
L 124.714286 231.776636 
L 124.714286 231.776636 
L 124.714286 214.393458 
L 87.464619 214.393458 
L 87.464619 253.505607 
L 87.464619 253.505607 
L 87.464619 231.776636 
L 50.214953 231.776636 
L 50.214953 318.692523 
L 50.214953 318.692523 
L 50.214953 318.692523 
L 50.214953 318.692523 
L 50.214953 57.94486 
" clip-path="url(#pc0084dae02)" style="fill: none; stroke: #79d6ae; stroke-opacity: 0.8; stroke-width: 3; stroke-linecap: round"/>
   </g>
   <g id="line2d_18"/>
   <g id="patch_3">
    <path d="M 45 318.692523 
L 45 44.907477 
" style="fill: none; stroke: #262626; stroke-width: 1.5; stroke-linejoin: miter; stroke-linecap: square"/>
   </g>
   <g id="patch_4">
    <path d="M 45 318.692523 
L 324 318.692523 
" style="fill: none; stroke: #262626; stroke-width: 1.5; stroke-linejoin: miter; stroke-linecap: square"/>
   </g>
   <g id="text_15">
    <text style="fill: #262626; font: 16.8px 'sans-serif'; text-anchor: middle" x="184.5" y="38.907477" transform="rotate(-0, 184.5, 38.907477)">Precision recall: SigF_model_context-2</text>
   </g>
   <g id="legend_1">
    <g id="line2d_19">
     <path style="fill: none; stroke: #332345; stroke-opacity: 0.8; stroke-width: 3; stroke-linecap: round"/>
    </g>
    <g id="text_16">
     <text style="fill: #262626; font: 14px 'sans-serif'; text-anchor: start" x="-11.155469" y="384.127569" transform="rotate(-0, -11.155469, 384.127569)">AP fold 0 (AP = 0.49)</text>
    </g>
    <g id="line2d_20">
     <path style="fill: none; stroke: #40498e; stroke-opacity: 0.8; stroke-width: 3; stroke-linecap: round"/>
    </g>
    <g id="text_17">
     <text style="fill: #262626; font: 14px 'sans-serif'; text-anchor: start" x="-11.155469" y="404.676944" transform="rotate(-0, -11.155469, 404.676944)">AP fold 1 (AP = 0.38)</text>
    </g>
    <g id="line2d_21">
     <path style="fill: none; stroke: #357ba3; stroke-opacity: 0.8; stroke-width: 3; stroke-linecap: round"/>
    </g>
    <g id="text_18">
     <text style="fill: #262626; font: 14px 'sans-serif'; text-anchor: start" x="-11.155469" y="425.226319" transform="rotate(-0, -11.155469, 425.226319)">AP fold 2 (AP = 0.50)</text>
    </g>
    <g id="line2d_22">
     <path style="fill: none; stroke: #38aaac; stroke-opacity: 0.8; stroke-width: 3; stroke-linecap: round"/>
    </g>
    <g id="text_19">
     <text style="fill: #262626; font: 14px 'sans-serif'; text-anchor: start" x="203.335469" y="384.127569" transform="rotate(-0, 203.335469, 384.127569)">AP fold 3 (AP = 0.28)</text>
    </g>
    <g id="line2d_23">
     <path style="fill: none; stroke: #79d6ae; stroke-opacity: 0.8; stroke-width: 3; stroke-linecap: round"/>
    </g>
    <g id="text_20">
     <text style="fill: #262626; font: 14px 'sans-serif'; text-anchor: start" x="203.335469" y="404.676944" transform="rotate(-0, 203.335469, 404.676944)">AP fold 4 (AP = 0.38)</text>
    </g>
    <g id="line2d_24"/>
    <g id="text_21">
     <!-- Mean ave. prec. = 0.41 $\pm$ 0.08 -->
     <g style="fill: #262626" transform="translate(203.335469 425.226319)">
      <text>
       <tspan style="font: 14px 'DejaVu Sans'" x="0 12.079102 20.692383 29.271484 38.144531 42.594727 51.173828 59.458984 68.072266 72.522461 76.972656 85.859375 91.615234 100.228516 107.925781 112.375977 116.826172 128.556641 133.006836 141.914062 146.364258 155.271484 164.178711 168.628906 180.359375 184.80957 193.716797 198.166992 207.074219" y="-0.609375">Mean ave. prec. = 0.41 ± 0.08</tspan>
      </text>
     </g>
    </g>
   </g>
  </g>
 </g>
 <defs>
  <clipPath id="pc0084dae02">
   <rect x="45" y="44.907477" width="279" height="273.785047"/>
  </clipPath>
 </defs>
</svg>
