<?xml version="1.0" encoding="utf-8" standalone="no"?>
<!DOCTYPE svg PUBLIC "-//W3C//DTD SVG 1.1//EN"
  "http://www.w3.org/Graphics/SVG/1.1/DTD/svg11.dtd">
<!-- Created with matplotlib (https://matplotlib.org/) -->
<svg height="288pt" version="1.1" viewBox="0 0 180 288" width="180pt" xmlns="http://www.w3.org/2000/svg" xmlns:xlink="http://www.w3.org/1999/xlink">
 <defs>
  <style type="text/css">
*{stroke-linecap:butt;stroke-linejoin:round;}
  </style>
 </defs>
 <g id="figure_1">
  <g id="patch_1">
   <path d="M 0 288 
L 180 288 
L 180 0 
L 0 0 
z
" style="fill:#ffffff;"/>
  </g>
  <g id="axes_1">
   <g id="patch_2">
    <path d="M 22.5 252 
L 162 252 
L 162 34.56 
L 22.5 34.56 
z
" style="fill:#ffffff;"/>
   </g>
   <g id="patch_3">
    <path clip-path="url(#p54263a5a2a)" d="M 29.475 204.328871 
L 85.275 204.328871 
L 85.275 194.613713 
L 29.475 194.613713 
L 29.475 204.328871 
z
" style="fill:#ffffff;stroke:#808080;stroke-linejoin:miter;stroke-width:1.5;"/>
   </g>
   <g id="patch_4">
    <path clip-path="url(#p54263a5a2a)" d="M 99.225 73.203945 
L 155.025 73.203945 
L 155.025 50.547178 
L 99.225 50.547178 
L 99.225 73.203945 
z
" style="fill:#ffffff;stroke:#808080;stroke-linejoin:miter;stroke-width:1.5;"/>
   </g>
   <g id="matplotlib.axis_1">
    <g id="xtick_1">
     <g id="line2d_1">
      <defs>
       <path d="M 0 0 
L 0 3.5 
" id="m8ba60f9bc7" style="stroke:#000000;stroke-width:1.5;"/>
      </defs>
      <g>
       <use style="stroke:#000000;stroke-width:1.5;" x="57.375" xlink:href="#m8ba60f9bc7" y="252"/>
      </g>
     </g>
     <g id="text_1">
      <text style="font-family:Cantarell;font-size:14px;font-style:normal;font-weight:normal;text-anchor:middle;" transform="rotate(-0, 57.375, 269.051562)" x="57.375" y="269.051562">Depleted</text>
     </g>
    </g>
    <g id="xtick_2">
     <g id="line2d_2">
      <g>
       <use style="stroke:#000000;stroke-width:1.5;" x="127.125" xlink:href="#m8ba60f9bc7" y="252"/>
      </g>
     </g>
     <g id="text_2">
      <text style="font-family:Cantarell;font-size:14px;font-style:normal;font-weight:normal;text-anchor:middle;" transform="rotate(-0, 127.125, 269.051562)" x="127.125" y="269.051562">Enriched</text>
     </g>
    </g>
   </g>
   <g id="matplotlib.axis_2">
    <g id="ytick_1">
     <g id="line2d_3">
      <defs>
       <path d="M 0 0 
L -2 0 
" id="m2fbd91af84" style="stroke:#000000;stroke-width:0.6;"/>
      </defs>
      <g>
       <use style="stroke:#000000;stroke-width:0.6;" x="22.5" xlink:href="#m2fbd91af84" y="125.064464"/>
      </g>
     </g>
     <g id="text_3">
      <text style="font-family:Cantarell;font-size:14px;font-style:normal;font-weight:normal;text-anchor:end;" transform="rotate(-0, 17.1, 130.090246)" x="17.1" y="130.090246">2000.0</text>
     </g>
    </g>
    <g id="ytick_2">
     <g id="line2d_4">
      <g>
       <use style="stroke:#000000;stroke-width:0.6;" x="22.5" xlink:href="#m2fbd91af84" y="41.172653"/>
      </g>
     </g>
     <g id="text_4">
      <text style="font-family:Cantarell;font-size:14px;font-style:normal;font-weight:normal;text-anchor:end;" transform="rotate(-0, 17.1, 46.198434)" x="17.1" y="46.198434">3000.0</text>
     </g>
    </g>
    <g id="text_5">
     <text style="font-family:Cantarell;font-size:14px;font-style:normal;font-weight:normal;text-anchor:middle;" transform="rotate(-90, -34.055938, 143.28)" x="-34.055938" y="143.28">RFP/OD600 [a.u.]</text>
    </g>
   </g>
   <g id="line2d_5">
    <path clip-path="url(#p54263a5a2a)" d="M 57.375 204.328871 
L 57.375 211.435659 
" style="fill:none;stroke:#808080;stroke-linecap:square;stroke-width:1.5;"/>
   </g>
   <g id="line2d_6">
    <path clip-path="url(#p54263a5a2a)" d="M 57.375 194.613713 
L 57.375 182.768511 
" style="fill:none;stroke:#808080;stroke-linecap:square;stroke-width:1.5;"/>
   </g>
   <g id="line2d_7">
    <path clip-path="url(#p54263a5a2a)" d="M 43.425 211.435659 
L 71.325 211.435659 
" style="fill:none;stroke:#808080;stroke-linecap:square;stroke-width:1.5;"/>
   </g>
   <g id="line2d_8">
    <path clip-path="url(#p54263a5a2a)" d="M 43.425 182.768511 
L 71.325 182.768511 
" style="fill:none;stroke:#808080;stroke-linecap:square;stroke-width:1.5;"/>
   </g>
   <g id="line2d_9"/>
   <g id="line2d_10">
    <path clip-path="url(#p54263a5a2a)" d="M 127.125 73.203945 
L 127.125 90.978544 
" style="fill:none;stroke:#808080;stroke-linecap:square;stroke-width:1.5;"/>
   </g>
   <g id="line2d_11">
    <path clip-path="url(#p54263a5a2a)" d="M 127.125 50.547178 
L 127.125 44.443636 
" style="fill:none;stroke:#808080;stroke-linecap:square;stroke-width:1.5;"/>
   </g>
   <g id="line2d_12">
    <path clip-path="url(#p54263a5a2a)" d="M 113.175 90.978544 
L 141.075 90.978544 
" style="fill:none;stroke:#808080;stroke-linecap:square;stroke-width:1.5;"/>
   </g>
   <g id="line2d_13">
    <path clip-path="url(#p54263a5a2a)" d="M 113.175 44.443636 
L 141.075 44.443636 
" style="fill:none;stroke:#808080;stroke-linecap:square;stroke-width:1.5;"/>
   </g>
   <g id="line2d_14"/>
   <g id="line2d_15">
    <path clip-path="url(#p54263a5a2a)" d="M 29.475 199.313938 
L 85.275 199.313938 
" style="fill:none;stroke:#e60234;stroke-linecap:square;stroke-width:1.5;"/>
   </g>
   <g id="line2d_16">
    <path clip-path="url(#p54263a5a2a)" d="M 99.225 56.836258 
L 155.025 56.836258 
" style="fill:none;stroke:#e60234;stroke-linecap:square;stroke-width:1.5;"/>
   </g>
   <g id="patch_5">
    <path d="M 22.5 252 
L 22.5 34.56 
" style="fill:none;stroke:#000000;stroke-linecap:square;stroke-linejoin:miter;stroke-width:1.5;"/>
   </g>
   <g id="patch_6">
    <path d="M 22.5 252 
L 162 252 
" style="fill:none;stroke:#000000;stroke-linecap:square;stroke-linejoin:miter;stroke-width:1.5;"/>
   </g>
   <g id="PathCollection_1">
    <defs>
     <path d="M 0 2.5 
C 0.663008 2.5 1.29895 2.236584 1.767767 1.767767 
C 2.236584 1.29895 2.5 0.663008 2.5 0 
C 2.5 -0.663008 2.236584 -1.29895 1.767767 -1.767767 
C 1.29895 -2.236584 0.663008 -2.5 0 -2.5 
C -0.663008 -2.5 -1.29895 -2.236584 -1.767767 -1.767767 
C -2.236584 -1.29895 -2.5 -0.663008 -2.5 0 
C -2.5 0.663008 -2.236584 1.29895 -1.767767 1.767767 
C -1.29895 2.236584 -0.663008 2.5 0 2.5 
z
" id="C0_0_4e7b3795c7"/>
    </defs>
    <g clip-path="url(#p54263a5a2a)">
     <use x="51.267815" xlink:href="#C0_0_4e7b3795c7" y="182.768511"/>
    </g>
    <g clip-path="url(#p54263a5a2a)">
     <use x="62.889273" xlink:href="#C0_0_4e7b3795c7" y="191.544659"/>
    </g>
    <g clip-path="url(#p54263a5a2a)">
     <use x="58.378377" xlink:href="#C0_0_4e7b3795c7" y="198.684815"/>
    </g>
    <g clip-path="url(#p54263a5a2a)">
     <use x="54.124908" xlink:href="#C0_0_4e7b3795c7" y="199.94498"/>
    </g>
    <g clip-path="url(#p54263a5a2a)">
     <use x="63.595208" xlink:href="#C0_0_4e7b3795c7" y="211.435659"/>
    </g>
    <g clip-path="url(#p54263a5a2a)">
     <use x="51.498739" xlink:href="#C0_0_4e7b3795c7" y="200.692345"/>
    </g>
    <g clip-path="url(#p54263a5a2a)">
     <use x="61.782741" xlink:href="#C0_0_4e7b3795c7" y="242.116364"/>
    </g>
    <g clip-path="url(#p54263a5a2a)">
     <use x="57.871684" xlink:href="#C0_0_4e7b3795c7" y="194.482777"/>
    </g>
    <g clip-path="url(#p54263a5a2a)">
     <use x="57.956793" xlink:href="#C0_0_4e7b3795c7" y="195.00702"/>
    </g>
    <g clip-path="url(#p54263a5a2a)">
     <use x="60.265281" xlink:href="#C0_0_4e7b3795c7" y="205.55539"/>
    </g>
   </g>
   <g id="PathCollection_2">
    <defs>
     <path d="M 0 2.5 
C 0.663008 2.5 1.29895 2.236584 1.767767 1.767767 
C 2.236584 1.29895 2.5 0.663008 2.5 0 
C 2.5 -0.663008 2.236584 -1.29895 1.767767 -1.767767 
C 1.29895 -2.236584 0.663008 -2.5 0 -2.5 
C -0.663008 -2.5 -1.29895 -2.236584 -1.767767 -1.767767 
C -2.236584 -1.29895 -2.5 -0.663008 -2.5 0 
C -2.5 0.663008 -2.236584 1.29895 -1.767767 1.767767 
C -1.29895 2.236584 -0.663008 2.5 0 2.5 
z
" id="C1_0_156993c7f5"/>
    </defs>
    <g clip-path="url(#p54263a5a2a)">
     <use x="126.82937" xlink:href="#C1_0_156993c7f5" y="90.978544"/>
    </g>
    <g clip-path="url(#p54263a5a2a)">
     <use x="123.755256" xlink:href="#C1_0_156993c7f5" y="44.443636"/>
    </g>
    <g clip-path="url(#p54263a5a2a)">
     <use x="123.468695" xlink:href="#C1_0_156993c7f5" y="56.836258"/>
    </g>
   </g>
   <g id="text_6">
    <text style="font-family:Cantarell;font-size:16.8px;font-style:normal;font-weight:normal;text-anchor:middle;" transform="rotate(-0, 92.25, 28.56)" x="92.25" y="28.56">TVMV-PDZ</text>
   </g>
  </g>
 </g>
 <defs>
  <clipPath id="p54263a5a2a">
   <rect height="217.44" width="139.5" x="22.5" y="34.56"/>
  </clipPath>
 </defs>
</svg>
